/* XPM */
static char *dummy[]={
"64 128 116 2",
"#X c #000000",
"#o c #000003",
"#R c #00070c",
"#s c #07050d",
"#r c #141d32",
"#x c #1e232c",
"#U c #2b2c38",
"#q c #303a55",
".2 c #383f4a",
".g c #383f4b",
"#i c #383f4c",
".1 c #38404c",
".e c #393f4b",
"Qt c #3a404b",
".h c #3a404c",
"#E c #3d4046",
".d c #3d4047",
".f c #3f4148",
"#V c #3f4449",
".i c #404248",
"#M c #424349",
".# c #434245",
"#P c #43434a",
"#I c #44434a",
".j c #44444b",
"#v c #46413d",
".a c #46413e",
".s c #474242",
"#O c #474548",
".k c #47464d",
"#C c #494649",
"#a c #4a4138",
".b c #4a423a",
".t c #4a433e",
"#Q c #4b4440",
".l c #4b4951",
"#w c #4b5e7f",
".c c #4c423a",
".m c #4d484c",
".u c #4e4541",
"#l c #4f443c",
"#p c #4f5463",
"#D c #50443c",
"#u c #50453d",
"#N c #51453d",
".Q c #514743",
"#h c #52300c",
"#G c #53463f",
".E c #54473f",
"#B c #544845",
".n c #544946",
".q c #554840",
".r c #554a47",
".p c #584a43",
".o c #584a44",
"#K c #584a47",
".D c #584d4d",
".v c #5a4d4b",
"#m c #5b4b44",
"#J c #5b4c48",
"#n c #5c4b43",
"#t c #5d4b43",
".5 c #5e4d45",
"#L c #5e4d48",
"#H c #5f4f4d",
".3 c #614d45",
".w c #61514f",
".9 c #635049",
".4 c #644f48",
"#F c #645352",
".x c #655451",
".F c #66514a",
".6 c #67524b",
".R c #67544f",
"#z c #684700",
"#c c #68524b",
".X c #68534c",
"#b c #69534d",
".W c #69544d",
".O c #6c564f",
".Z c #6c5650",
".y c #6c5959",
"#W c #6c7273",
"#. c #6d5650",
".8 c #6e5651",
".Y c #6e5751",
".G c #6f5750",
".0 c #6f5a56",
".P c #705853",
".A c #705c5c",
".z c #705c5d",
"#y c #708ea7",
".B c #715c5b",
".H c #725a55",
"#e c #735a54",
".N c #745b56",
".C c #745d59",
"#d c #755c57",
"#S c #757c87",
".S c #785e5a",
".V c #7a5f5b",
".T c #7a605b",
".U c #7a605c",
".7 c #7c615d",
"## c #7d625e",
".I c #7e625e",
".M c #826663",
".K c #836663",
".L c #836764",
".J c #846763",
"#f c #946230",
"#A c #9e7b10",
"#T c #b1b5be",
"#g c #d1a049",
"#j c #f0e883",
"#k c #fffffa",
"QtQtQtQtQtQtQtQtQtQtQtQtQtQtQtQtQtQtQt.#.a.b.b.b.b.b.b.c.b.b.b.b.b.b.b.a.d.e.f.g.f.e.h.hQtQt.f.gQt.f.e.h.f.gQtQtQtQt.f.d.a.c.c.b",
"QtQtQtQtQtQtQt.gQt.gQt.g.gQt.g.g.g.g.g.d.a.b.b.b.b.b.b.b.b.b.b.b.b.b.b.a.e.e.g.g.g.g.e.gQt.g.g.g.g.g.e.e.g.g.g.g.gQt.g.d.a.c.c.c",
".h.hQtQtQt.g.gQt.gQtQt.g.g.g.g.g.g.g.g.d.a.b.b.b.b.b.b.b.b.b.b.b.b.b.b.a.e.g.g.g.g.g.g.g.g.g.g.g.g.g.e.e.g.g.g.g.g.g.g.d.a.c.c.c",
".d.d.d.i.j.j.k.k.k.l.l.l.m.l.l.m.l.l.l.m.n.o.p.o.o.o.q.p.o.o.o.o.o.o.p.n.r.l.l.l.l.l.l.l.l.l.l.l.l.l.l.l.l.l.l.l.k.k.k.j.s.a.t.a",
".t.a.a.u.v.w.w.x.y.z.z.z.y.z.z.z.z.A.A.B.B.C.C.C.C.C.C.C.C.C.C.C.C.C.C.C.z.A.A.A.y.z.z.z.z.z.z.y.A.A.z.z.z.z.z.y.x.w.w.D.j.d.d.d",
".c.b.b.E.F.G.G.H.I.J.J.K.L.L.L.L.K.J.K.K.J.M.M.M.M.M.L.M.M.M.M.M.M.M.M.L.J.J.K.J.K.K.L.M.J.L.L.K.K.K.K.J.K.J.L.I.N.G.G.w.k.gQtQt",
".c.c.b.E.F.G.O.H.I.J.K.K.K.K.J.J.L.K.K.K.K.K.M.M.M.M.M.M.M.M.M.M.M.M.M.M.K.K.K.K.K.K.K.K.K.K.K.K.K.M.M.K.K.K.K.I.P.O.O.w.kQtQt.h",
".a.a.a.Q.R.H.H.N.S.T.T.T.T.T.T.T.U.V.S.V.U.I.U.I.V.V.V.V.V.V.V.V.V.V.V.V.V.I.V.I.I.U.I.U.I.I.I.U.V.V.V.U.I.I.U.S.N.N.H.x.k.g.gQt",
".d.d.d.m.y.I.I.S.G.W.W.W.W.W.W.W.X.X.W.G.Y.H.H.P.Z.X.X.X.X.X.X.X.X.X.W.G.H.H.H.H.H.H.H.H.H.H.H.0.Z.X.X.Z.G.H.H.H.V.M.I.y.k.g.g.f",
"Qt.1.2.l.z.J.K.T.X.3.3.3.3.3.3.3.3.3.3.4.X.G.G.x.4.3.4.3.4.3.4.3.3.3.3.4.x.Z.G.W.G.Z.Z.Z.Z.Z.Z.X.4.3.3.4.X.Z.G.H.V.M.K.B.l.g.e.e",
"QtQt.2.l.z.J.K.T.W.3.3.3.3.3.3.3.3.3.5.4.Z.G.Z.X.4.3.5.3.3.3.3.3.3.3.3.4.6.G.Z.Z.Z.Z.Z.Z.Z.Z.G.x.4.3.5.4.Z.Z.W.H.7.K.J.B.l.e.e.e",
"Qt.2Qt.l.B.J.K.T.W.3.3.3.4.3.3.4.4.F.4.F.6.Z.Z.6.4.3.4.3.3.4.3.4.4.4.4.F.Z.Z.G.Z.Z.Z.G.Z.Z.Z.G.Z.F.4.4.F.Z.Z.G.0.I.J.K.B.l.e.e.h",
"Qt.2.2.l.z.K.K.T.W.3.3.4.3.3.3.F.6.X.Z.6.F.F.4.4.4.4.3.3.3.4.3.4.X.Z.x.W.G.G.G.Z.Z.G.Z.Z.8.Z.Z.Z.W.X.Z.Z.Z.Z.Z.H.I.K.L.z.l.g.gQt",
"QtQt.2.l.z.J.K.T.W.3.3.3.3.4.3.F.Z.G.G.Z.4.3.3.4.3.3.3.4.3.3.3.4.X.G.G.Z.Z.G.Z.Z.Z.Z.G.Z.Z.8.8.Z.G.G.Z.Z.G.Z.Z.H.U.K.L.z.l.g.gQt",
"Qt.2.2.l.z.K.K.U.W.3.3.3.3.3.3.F.Z.G.G.W.F.3.3.3.3.3.3.3.3.4.3.4.Z.G.G.Z.G.Z.Z.Z.Z.Z.Z.Z.Z.8.Z.8.Z.Z.G.Z.Z.Z.G.H.I.K.L.z.l.e.g.f",
"QtQt.2.l.z.K.K.U.W.3.3.3.4.F.4.F.X.X.Z.X.4.3.3.4.3.4.3.4.4.F.4.6.X.X.Z.Z.Z.Z.Z.G.G.Z.G.Z.8.Z.8.Z.Z.G.Z.Z.Z.G.Z.H.U.K.L.y.l.e.e.e",
"Qt.gQt.m.y.L.L.U.W.3.3.4.6.W.Z.6.F.9.4.4.4.3.4.3.5.3.4.4.6.Z.Z.6.F.F.F.F.x#..Z.8.Z.8.Z.8.8.Z.Z.8.G.Z.Y.Z.Z.Z.Z.H.U.M.L.z.l.g.gQt",
"QtQtQt.l.z.L.K.U.W.3.3.F.W.G.G.W.F.3.4.3.3.3.4.3.4.3.3.4.X.G.G.X.4.3.5.F.Z#.#..Z.8.Z.8.Z.Z.Z.8.Z.Z.Z.Z.8.Z.Z.Z.H.I.M.M.z.l.gQtQt",
"Qt.g.g.l.z.K.K.U.W.3.3.F.Z.G.G.Z.4.3.3.3.3.4.3.3.4.3.3.4.Z.Y.Y.Z.4.3.3.9.W.Y.Z.8.Z.8.8.Z.8.Z.Z.8.Z.8.Z.Y.G.Z.Z.H.U.M.M.z.m.g.gQt",
"Qt.g.g.k.z.K.K.U.W.4.4.F.X.W.Z.6.4.3.4.3.3.3.3.4.4.4.4.6.X.X.Z.X.F.4.9.F.Z.Z.8.Z.Z.Z.Z.8.Z.8.8.Z.Z.Z.8.Z.Z.Z.Z.H##.M.M.z.l.gQtQt",
"QtQtQt.l.z.K.K.I.Y.W.W.W.F.F.4.F.3.4.3.4.4.3.3.F.6.Z.X.6.F.4.4.F.W.W.W.W.Z.8.Z.8.8.Z.8.Z.8.Z.8.8.Y.Z.8.Z.8.Z.G.H.I.K.J.z.l.g.gQt",
"QtQtQt.l.z.K.K.U.H.G.Y.Z.4.3.3.3.3.3.3.3.3.3.3.9.Z.G.G.Z.4.3.3.F.W.G.Y.Y.Z.8.8.Z.Z.8.Z.8.Z.8.Z.Z.Z.8.Z.8.8.Z.W.H.I.K.J.z.l.e.g.h",
"QtQt.2.k.z.K.K.I.H.G.G.W.4.3.3.3.4.3.4.3.3.3.3.F.W.G.G.Z.F.5.3.4.W.Z.G.G.Z.Z.Z.8.Z.8.8.Z.8.Z.Z.8.Z.8.Z.Z.Z.8.Z.H.T.K.J.z.l.g.g.h",
"Qt.2Qt.l.z.K.K.U.P.W.W.X.F.4.9.F.4.3.3.3.4.F.4.F.X.Z.X.X.F.4.4.9.Z.G.Z.G.8.Z.8.Z.8.Z.8.Z.Z.8.Z.Z.Y.Z.8.Z.Z.Z.Z.B.I.K.J.z.m.d.d.d",
"QtQt.2.k.z.J.J.U.O.4.4.F.W.W.O.W.F.3.3.F.6.W.Z.X.6.F.4.F.X.Z.W.Z.Z.Z.Z.Z.Z.Z.Z.Z.Z.8.Z.Z.8.Z.Z.8.8.Z.Z.Z.Z.Z.Z.H.U.K.K.B.n.a.a.t",
"Qt.1Qt.l.z.L.K.T.W.3.3.4.W.Y.G.W.4.3.3.F.Z.G.G.X.4.3.3.4.X.G.G.G.Z.Z.G.Z.0.Z.G.Z.8.Z.Z.8.Z.8.8.Z.Z.Z.8.G.G.Z.Z.H.U.K.K.C.p.c#a.b",
"Qt.1.1.l.y.L.L.U#b.3.3.4.O.Y.Y.W.F.3.3.4.Z.G.G.W.F.3.3.4.x.G.8.8.G.Z.Z.Z.Z.Z.Z.Z.Z.8.Z.Z.8.Z.Z.8.8.Z.Z.Z.Z.Z.Z.H.I.K.K.H.p#a.b.b",
".d.d.d.m.z.K.L.U.W.4.4.F.W.W.W#c.4.3.3.4.X.W.W.X.F.4.4.6.Z.8.Z.Z.Z.Z.G.Z.G.Z.G.Z.8.Z.8.8.Z.8.8.Z.Z.8.Z.G.Z.Z.Z.H.I.K.K.B.p.b.b.b",
".a.a.a.n.B.J.L.U.P.W.W.W.F.F.F.4.3.3.3.4.F.4.F.F.6.W.Z.Z.Z.Z.Z.8#..Z.Z.8.Z.G.Z.Z.8.Z.8.Z.8.Z.8.Z.8.Z.Z.8.Z.Z.Z.H.I.M.M.C.p.b.b.b",
".b.b#a.p#d.K.L.U#e.Y.Y.W.F.3.3.4.3.4.3.4.3.3.3.4.Z.G.G.Z.Z.Z.G.Z#..Z.8.Z.Z.Z.Z.8.Z.8.Z.8.Z.8.Z.8.Z.8.8.Z.Z.Z.Z.H.U.M.M.C.p.b.b.b",
".b.b.b.p#d.K.K.I.H.Y.O.W.9.3.3.3.3.3.4.3.3.3.3.F.X.Z.Z.Z.Z.Z.Z.Y#..8.Z.8.Z.Z.8.Z.Z.Z.Z.8.Z.8.8.Z.Z.8.Z.8.Z.Z.G.H.I.M.M.C.q.b.b.b",
".c.b.b.p#d.K.K.U.H.O.G.W.F.3.3.3.4.3.3.3.3.4.3.F.Z.G.G.Z.Z.Z.Z.Z.8.Z.8.Z.8.8.Z.8.8.Z.8.Z.8.Z.Z.Z.8.Z.8.Z.G.Z.Z.H.U.M.M.C.o#a.b.b",
".b.b.b.p.B.K.K.I.H.Z.G.W.4.4.3.4.3.4.4.3.3.3.3.4.Z.8.8.8.G.Z.Z.Y.Z.8.Z.8.Z.Z#.#..Z.8.Z.8.Z.Z.Z.8.Z.8.Z.8.Z.Z.Z.H.U.M.M.C.o.b.b.b",
".c.b#a.p.N.K.K.U.H.Z.G.X.4.3.3.3.3.3.3.3.4.3.4.4.x.8.Z.Z.Z.Y.Z.Z.8.Z.8#..8.Z#.#..8.Z.8.Z.Z.8.8.Z.8.Z.Z.Z.G.Z.Z.H.U.M.K.C.o.b.b.b",
".c#a.b.p.C.K.K.I.H.G.G.Z.F.3.3.3.4.3.3.4.3.3.3.F.X.G.8.Z.8.Z.Z.Z.Z.Z#.#.#.#.#.#..Z.8.8.Z.8.Z.8.Z.8.Z.8.Z.Z.Z.Z.H##.M.M.C.p.b.b.c",
".a.a.a.n.B.K.K.V.0.X.W.X.4.3.4.3.3.3.3.4.4.4.4.6.W.G.8.Z.8.Z.G.Z#f#g#f#.#.#.#.#..Z.8.Z.8.Z.8.Z.8.Z.8.Z.8.Z.G.Z.H##.M.M.z.n.a.a.a",
".d.d.e.r.z.J.J.I.W.4.F.4.4.3.3.3.4.3.4.4.6.x.W.W.G.G.Z.Z#f#f#h#h#f#g#f.Z#..Z.8.Z.Z.Z.8.Z.Z.Z.Z.Z.8.Z.8.Z.Z.Z.G.H.I.K.J.z.m.d.d.d",
"Qt.g#i.l.z.L.K.S.X.3.3.3.3.4.3.4.3.3.3.4.Z.G.G.G.Z.Z#f#f#f#f#h#h#g#f#h#f#..8#..Z.8.Z.Z.8.Z.G.Z.Z.8.Z.Z.8#.#..W.H.U.K.K.z.lQtQtQt",
"Qt.g#i.l.z.L.M.U.X.3.3.4.3.3.3.4.3.3.3.4.6.G.Z.G.G#f#f#f#g#g#j#f#g#h#h#f#f#.#.#..Z.8.Z.G.Z.G.Z.0.Z.8.Z.Z#..G.Z.H.I.K.L.z.l.2QtQt",
".d.d.e.m.z.L.M.U.X.3.3.3.4.3.3.3.4.F.4.6.Z.G.Z.G#g#f#g#j#j#g#f#h#f#g#g#j#f#h#.#..G.Z.Z.Z.Z.Z.Z.8.8.Z.8.Z.Z.x.W.0.U.K.M.y.l.2QtQt",
".t.a.a.n.B.K.K.S.X.4.3.3.3.4.4.4.X.W.Z.x.G.Z.Z.X#g#g#j#j#g#j#j#j#g#j#g#j#j#h#h.Z.Z.Z.Z.Z.Z.Z.G.Z.G.Z.G.O.F.F.F.W.U.K.J.z.lQtQtQt",
".b.b#a.p#d.J.J.S.X.3.3.4.3.3.3.4.Z.G.Z.Z.G.G.G.W#h#f#g#g#k#j#k#k#j#g#k#f#j#f#h#h.Z.G.Z.G.Z.G.Z.Z.Z.G.G.W.F.3.3.W.T.K.L.z.lQtQtQt",
".c.b#a.p.C.M.J.T.X.4.3.3.3.4.5.4.X.G.Z.G.G.G.G.Z#h#g#j#k#j#g#k#j#g#g#j#k#f#g#f#h.Z.8.Z.8.Z.Z.Z.Z.Z.G.G.W.F.3.3.W.T.K.K.z.k.g.1Qt",
".b.b.b.p.C.K.K.T.X.3.3.4.4.4.4.6.Z.G.Z.Z.Z.X.Z#f#f#g#f#j#g#g#j#g#g#f#g#j#g#h#h.Z.Z.Z.8.Z.Z.Z.Z.Z.W.W.W.F.3.p.o.6.T.K.K.y.l.g.gQt",
".b.b.b.o.C.M.M.V.X.4.3.4.X.X.Z.X.Z.Z.G.Z.6.4.4#f#g#h#f#g#g#f#g#g#g#g#f#g#f#g#h.8.8.Z.8.Z.8.Z.G.Z.6.F.F.5.E#l#l.5.C.J.J.z.mQtQtQt",
".b.b.b.o.C.K.M.V.X.3.3.4.Z.Z.G.Z.Z.Z.G.X.4.5.3.4#h#h#g#g#f#f#g#g#f#g#h#g#h#f#f.Z.Z.8.Z.Z.8#..G.W.9.3.3#m#l.b.b.q.C.K.J.z.l.hQtQt",
".b.b.b.o.C.M.M.V.X.3.5.4.X.G.G.Z.G.Z.G.Z.4.3.3.4.Z#h#g#f#h#f#g#h#f#f#h#f#h#h.Z.Z.8.Z.8.8.8.G.G.Z.F.3.3.5#l.b.b.o.C.K.K.z.k.2.1Qt",
".a.a.a.r.C.M.M.U.Z.4.4.6.Z.G.G.G.x.Z.X.X.6.4.4.6.6#h#f#h#h#f#f#h#h#f#h#h#h#h.G.Z.Z.8.Z.Z.Z.x.W.6.F.3.3#n#l.b.b.o.C.K.J.z.l.2QtQt",
".d.d.e.r.z.J.K.U.P.X.X.Z.Z.Z.Z.Z.F.4.4.F.6.W.Z.6.F#o#h#h#h#f#h#h#h#h#h#h#h#o.Z.Z.G.Z.G.G.F.F.F.F.3.4.3.5#l.b.b.n.C.J.J.B.l.g.gQt",
"Qt.g#i.l.z.J.K.I.H.G.Z.G.Z.G.G.X.F.3.3.F.W.G.Z.Z#o#p#q#o#h#h#h#h#h#h#h#o#q#p#o.Z.Z.Z.G.W.4.3.3.3.3.3.3#n#l.b.b.q.C.J.J.z.l.gQtQt",
"Qt.g#i.l.z.M.M.U.H.G.G.Z.G.G.G.Z.4.3.3.4.W.G#r#q#o#o#r#r#q#q#q#q#q#q#r#r#o#s#o#q#r.G.G.W.F.3.3.3.3.3.3#t#u.b.b.n.C.J.J.z.l.g.gQt",
".d.d.e.m.z.M.M.I.H.O.W.G.W.W.x.6.F.3.3.F.W.G#r#q#q#r#r#o#o#o#o#r#r#o#o#r#r#o#r#q#r.x.W.X.4.3.3.3.F.F.F.3.q#l#l.5.C.J.K.B.m.d.d.d",
".t.a#v.n.C.K.M.I.H.Z.G.W.6.F.4.4.4.3.3.F.W#r#q#w#w#r#r#r#r#r#r#r#r#r#r#r#x#x#q#w#q.4.4.4.4.3.3.F#c.W.Z.6.5.o#n.F.T.K.K.B.n.a.a.a",
".b.b#a.p.C.K.M.I.H.Z.G.Z.4.3.3.3.3.3.3.F.Z#r#w#y#w#q#q#r#r#r#r#r#r#r#r#r#q#r#o#y#w.3.3.3.3.3.3.F.W.G.G.W.F.3.3.W.T.K.K.C.p.b.c.c",
".c.c#a.p.C.M.M##.H.Z.G.W.4.3.3.4.3.3.3.9.R#z#A#w#q#r#w#w#q#q#q#q#q#q#w#w#q#r#o#y#A.3.3.3.3.3.3.F.W.G.G.Z.F.3.3.W.T.K.K.C.p#a#a.c",
".a.a.a.n.H.I.I.C.Y.X.W.X.4.4.3.3.4.4.F.6#o#z#A#q#q#o#q#w#w#y#y#y#y#w#w#q#q#r#o#w#z#o.3.4.4.4.F.F.W.O.W.6.3#n#n.F#d.I.I.0#B.a.a.t",
".#.d.e#C.x.H.H.G.X.F.4.4.4.4.3.4.X.W.O.W#o#r#q#q#r#o#o#r#q#q#q#q#q#q#r#r#o#o#r#q#q#o.4.4#c.O.W.X.F.F.F.5.E#l#D.p.W#d#d.R#C#E.d.d",
".e.g.g.k#F.G.G.Z.4.4.3.4.3.3.4.4.W.G.G.G#o#r#q#q#r#o#r#r#r#o#s#s#s#o#o#r#r#o#r#q#q#o.3.F.O.O.G.O.F.3.3#t#D.b#a#G.F.G.O.w.k.1QtQt",
".e.e.e.k#H.G.G.X.4.4.3.3.3.4.3.4.O.G.G.G#o#r#r#r#x#o#r#r#r#r#r#o#r#r#r#r#r#o#r#q#r#o.3.F.O.G.G.W.4.4.3.5#D.b.b#G.F.Y.Y.w.k.1QtQt",
".e.f.d#I.v.6.4.4.v.n.o#J#n.3#m#m.v#F#H#o#r#r#r#r#o#H#r#r#r#r#q#o#q#r#r#r#r#o#r#r#r#o#n.5.4#H#F.v.v.o#K#B#l.a.a.Q#L.F.R.v#M.1QtQt",
".t.a.a.t#N.E.E.Q#O#P#I#Q#l#N#N.u#C.k.j#o#r#r#r#r#o.k#o#r#r#r#q#r#q#r#r#r#R#s#r#r#r#o#p.u#C.k.k.j.j#I#I.i.i.d.d.#.u.E.q.u.fQtQtQt",
".b.c.c.c.b.b.b#v.e.e.e.e.a.b.c.a.dQt#i#o#r#r#r#r#o#i#o#r#r#r#q#o#q#x#r#r#s#s#o#r#r#s#p.a.d.g.g.g.gQtQtQt.h.h.h.d.a.b.b.a.dQtQtQt",
".c.c.c.c.b.c.b.t.#.e.e.f.a.c.c.a.dQtQt#o#r#q#r#o#o#s#s#s#s#r#r#s#r#r#r#o#o#s#p#S#T#S#s.a.d.g.gQtQtQtQtQtQt.h.h.d.a.c.b.a.d.h.hQt",
".b.b.c.b.b.c.b.t.e.e.g.e.t.c.c.a.dQtQt#U#p#S#S#p#U#s#s#U#o#o#o#o#o#o#o#U#U#U#s#s#s#s#x.t.dQtQtQtQtQtQtQtQtQt.h.d.a.c.c.a.dQtQtQt",
"QtQtQtQtQtQtQtQtQtQtQtQtQtQtQtQtQtQtQt#o#r#q#q#r#o#o#s#o#U#U#p#S#S#S#p#U#s#s#s#x#V#U#o.hQtQt.f.gQt.f.e.h.f.gQtQtQtQt.f.d.a.c.c.b",
"QtQtQtQtQtQtQt.gQt.gQt.g.gQt.g.g.g.g.g#U#p#S#p#U#U#r#r#o#o#o#o#s#o#r#r#r#r#o#x#R#x#R.e.gQt.g.g.g.g.g.e.e.g.g.g.g.gQt.g.d.a.c.c.c",
".h.hQtQtQt.g.gQt.gQtQt.g.g.g.g.g.g.g.g#x#x#o#s#s#o#r#r#r#r#q#x#o#x#q#q#r#r#o#x#r#V#R.g.g.g.g.g.g.g.g.e.e.g.g.g.g.g.g.g.d.a.c.c.c",
".d.d.d.i.j.j.k.k.k.l.l.l.m.l.l.m.l.l.l#x#V#x#o#x#o#r#r#r#q#q#q#o#q#q#q#q#r#o#R#R#R.l.l.l.l.l.l.l.l.l.l.l.l.l.l.l.k.k.k.j.s.a.t.a",
".t.a.a.u.v.w.w.x.y.z.z.z.y.z.z.z.z.A.A#o#W#W#V#o#o#r#r#q#q#q#q#o#w#q#q#q#r#r#o.A.y.z.z.z.z.z.z.y.A.A.z.z.z.z.z.y.x.w.w.D.j.d.d.d",
".c.b.b.E.F.G.G.H.I.J.J.K.L.L.L.L.K.J.K.K#o#o#o#o#r#r#r#q#q#q#w#o#w#w#q#q#q#r#o.J.K.K.L.M.J.L.L.K.K.K.K.J.K.J.L.I.N.G.G.w.k.gQtQt",
".c.c.b.E.F.G.O.H.I.J.K.K.K.K.J.J.L.K.K.K.K.K.M#s#r#r#r#q#q#w#w#o#w#w#w#q#q#r#o.K.K.K.K.K.K.K.K.K.K.M.M.K.K.K.K.I.P.O.O.w.kQtQt.h",
".a.a.a.Q.R.H.H.N.S.T.T.T.T.T.T.T.U.V.S.V.U.I.U#o#r#r#q#q#w#w#w#r#w#w#w#q#q#r#r#o.I.U.I.U.I.I.I.U.V.V.V.U.I.I.U.S.N.N.H.x.k.g.gQt",
".d.d.d.m.y.I.I.S.G.W.W.W.W.W.W.W.X.X.W.G.Y.H#o#r#r#r#q#q#w#w#w#o#w#w#w#w#q#r#r#o.H.H.H.H.H.H.H.0.Z.X.X.Z.G.H.H.H.V.M.I.y.k.g.g.f",
"Qt.1.2.l.z.J.K.T.X.3.3.3.3.3.3.3.3.3.3.4.X.G#o#r#r#r#q#w#w#w#w#r#w#w#w#w#q#q#r#o.G.Z.Z.Z.Z.Z.Z.X.4.3.3.4.X.Z.G.H.V.M.K.B.l.g.e.e",
"QtQt.2.l.z.J.K.T.W.3.3.3.3.3.3.3.3.3.5.4.Z#o#r#x#x#r#q#w#w#w#w#r#w#y#w#w#q#q#r#r#o.Z.Z.Z.Z.Z.G.x.4.3.5.4.Z.Z.W.H.7.K.J.B.l.e.e.e",
"Qt.2Qt.l.B.J.K.T.W.3.3.3.4.3.3.4.4.F.4.F.6#o#r#q#r#q#q#w#w#y#w#o#w#y#w#w#q#q#r#r#o.Z.G.Z.Z.Z.G.Z.F.4.4.F.Z.Z.G.0.I.J.K.B.l.e.e.h",
"Qt.2.2.l.z.K.K.T.W.3.3.4.3.3.3.F.6.X.Z.6#o#r#r#q#r#q#w#w#y#y#q#o#w#y#y#w#w#q#r#r#s.G.Z.Z.8.Z.Z.Z.W.X.Z.Z.Z.Z.Z.H.I.K.L.z.l.g.gQt",
"QtQt.2.l.z.J.K.T.W.3.3.3.3.4.3.F.Z.G.G.Z#o#r#q#q#r#q#w#y#y#y#q#o#q#y#y#w#w#q#r#q#r#s.G.Z.Z.8.8.Z.G.G.Z.Z.G.Z.Z.H.U.K.L.z.l.g.gQt",
"Qt.2.2.l.z.K.K.U.W.3.3.3.3.3.3.F.Z.G.G.W#o#r#q#q#r#q#w#y#y#y#r#o#q#y#y#w#w#q#r#q#r#s.Z.Z.Z.8.Z.8.Z.Z.G.Z.Z.Z.G.H.I.K.L.z.l.e.g.f",
"QtQt.2.l.z.K.K.U.W.3.3.3.4.F.4.F.X.X.Z.X#U#o#r#q#r#q#w#y#y#w#x#R#r#y#y#y#w#q#q#q#r#s.G.Z.8.Z.8.Z.Z.G.Z.Z.Z.G.Z.H.U.K.L.y.l.e.e.e",
"Qt.gQt.m.y.L.L.U.W.3.3.4.6.W.Z.6.F.9.4.4#s#p#S#S#p#r#q#w#y#w#o#s#r#w#y#y#w#q#r#p#U#s.Z.8.8.Z.Z.8.G.Z.Y.Z.Z.Z.Z.H.U.M.L.z.l.g.gQt",
"QtQtQt.l.z.L.K.U.W.3.3.F.W.G.G.W.F.3.4.3#s#U#p#p#p#S#T#T#T#p#o#R#U#S#T#T#T#S#p#p#U#s.8.Z.Z.Z.8.Z.Z.Z.Z.8.Z.Z.Z.H.I.M.M.z.l.gQtQt",
"Qt.g.g.l.z.K.K.U.W.3.3.F.Z.G.G.Z.4#X#X#X#s#U#U#p#U#p#S#S#p#U#R#s#U#p#S#S#p#U#p#U#U#s#X#X#X.Z.Z.8.Z.8.Z.Y.G.Z.Z.H.U.M.M.z.m.g.gQt",
"Qt.g.g.k.z.K.K.U.W.4.4.F.X.W.Z#X#X#X#X#X#X#s#U#U#U#U#S#S#p#U#R#R#s#p#S#S#U#U#U#U#s#X#X#X#X#X#X.Z.Z.Z.8.Z.Z.Z.Z.H##.M.M.z.l.gQtQt",
"QtQtQt.l.z.K.K.I.Y.W.W.W.F.F#X#X#X#X#X#X#X#X#s#s#U#U#p#S#p#U#s#R#s#p#S#p#U#U#s#X#X#X#X#X#X#X#X#X.Y.Z.8.Z.8.Z.G.H.I.K.J.z.l.g.gQt",
"QtQtQt.l.z.K.K.U.H.G.Y.Z.4#X#X#X#X#X#X#X#X#X#X#X#X#s#o#s#o#s#R#s#s#s#s#s#s#X#X#X#X#X#X#X#X#X#X#X#X.8.Z.8.8.Z.W.H.I.K.J.z.l.e.g.h",
"QtQt.2.k.z.K.K.I.H.G.G.W#X#X#X#X#X#X#X#X#X#X#X#X#X#X#X#X#X#X#R#x#x#V#x#x#R#X#X#X#X#X#X#X#X#X#X#X#X#X.Z.Z.Z.8.Z.H.T.K.J.z.l.g.g.h",
"Qt.2Qt.l.z.K.K.U.P.W.W.X#X#X#X#X#X#X#X#X#X#X#X#X#X#X#X#X#X#X#R#V#V#W#V#V#x#X#X#X#X#X#X#X#X#X#X#X#X#X.8.Z.Z.Z.Z.B.I.K.J.z.m.d.d.d",
"QtQt.2.k.z.J.J.U.O.4.4.F#X#X#X#X#X#X#X#X#X#X#X#X#X#X#X#X#X#X#R#x#x#V#x#R#R#X#X#X#X#X#X#X#X#X#X#X#X#X.Z.Z.Z.Z.Z.H.U.K.K.B.n.a.a.t",
"Qt.1Qt.l.z.L.K.T.W.3.3.4#X#X#X#X#X#X#X#X#X#X#X#X#X#X#X#X#X#X#o#s#x#x#s#R#o#X#X#X#X#X#X#X#X#X#X#X#X#X.8.G.G.Z.Z.H.U.K.K.C.p.c#a.b",
"Qt.1.1.l.y.L.L.U#b.3.3.4.O#X#X#X#X#X#X#X#X#X#X#X#X#X#X#X#X#X#X#X#X#X#X#X#X#X#X#X#X#X#X#X#X#X#X#X#X.Z.Z.Z.Z.Z.Z.H.I.K.K.H.p#a.b.b",
".d.d.d.m.z.K.L.U.W.4.4.F.W.W#X#X#X#X#X#X#X#X#X#X#X#X#X#X#X#X#X#X#X#X#X#X#X#X#X#X#X#X#X#X#X#X#X#X.Z.8.Z.G.Z.Z.Z.H.I.K.K.B.p.b.b.b",
".a.a.a.n.B.J.L.U.P.W.W.W.F.F.F#X#X#X#X#X#X#X#X#X#X#X#X#X#X#X#X#X#X#X#X#X#X#X#X#X#X#X#X#X#X#X#X.Z.8.Z.Z.8.Z.Z.Z.H.I.M.M.C.p.b.b.b",
".b.b#a.p#d.K.L.U#e.Y.Y.W.F.3.3.4.3#X#X#X#X#X#X#X#X#X#X#X#X#X#X#X#X#X#X#X#X#X#X#X#X#X#X#X#X.8.Z.8.Z.8.8.Z.Z.Z.Z.H.U.M.M.C.p.b.b.b",
".b.b.b.p#d.K.K.I.H.Y.O.W.9.3.3.3.3.3.4.3.3#X#X#X#X#X#X#X#X#X#X#X#X#X#X#X#X#X#X#X#X.Z.Z.8.Z.8.8.Z.Z.8.Z.8.Z.Z.G.H.I.M.M.C.q.b.b.b",
".c.b.b.p#d.K.K.U.H.O.G.W.F.3.3.3.4.3.3.3.3.4.3.F.Z.G.G.Z.Z.Z.Z.Z.8.Z.8.Z.8.8.Z.8.8.Z.8.Z.8.Z.Z.Z.8.Z.8.Z.G.Z.Z.H.U.M.M.C.o#a.b.b",
".b.b.b.p.B.K.K.I.H.Z.G.W.4.4.3.4.3.4.4.3.3.3.3.4.Z.8.8.8.G.Z.Z.Y.Z.8.Z.8.Z.Z#.#..Z.8.Z.8.Z.Z.Z.8.Z.8.Z.8.Z.Z.Z.H.U.M.M.C.o.b.b.b",
".c.b#a.p.N.K.K.U.H.Z.G.X.4.3.3.3.3.3.3.3.4.3.4.4.x.8.Z.Z.Z.Y.Z.Z.8.Z.8#..8.Z#.#..8.Z.8.Z.Z.8.8.Z.8.Z.Z.Z.G.Z.Z.H.U.M.K.C.o.b.b.b",
".c#a.b.p.C.K.K.I.H.G.G.Z.F.3.3.3.4.3.3.4.3.3.3.F.X.G.8.Z.8.Z.Z.Z.Z.Z#.#.#.#.#.#..Z.8.8.Z.8.Z.8.Z.8.Z.8.Z.Z.Z.Z.H##.M.M.C.p.b.b.c",
".a.a.a.n.B.K.K.V.0.X.W.X.4.3.4.3.3.3.3.4.4.4.4.6.W.G.8.Z.8.Z.G.Z.8.Z#.#.#.#.#.#..Z.8.Z.8.Z.8.Z.8.Z.8.Z.8.Z.G.Z.H##.M.M.z.n.a.a.a",
".d.d.e.r.z.J.J.I.W.4.F.4.4.3.3.3.4.3.4.4.6.x.W.W.G.G.Z.Z.Z.Z.G.Z.G.Z.Z.Z#..Z.8.Z.Z.Z.8.Z.Z.Z.Z.Z.8.Z.8.Z.Z.Z.G.H.I.K.J.z.m.d.d.d",
"Qt.g#i.l.z.L.K.S.X.3.3.3.3.4.3.4.3.3.3.4.Z.G.G.G.Z.Z.Z.G.Z.G.Z.Z.Z.Z.G.Z#..8#..Z.8.Z.Z.8.Z.G.Z.Z.8.Z.Z.8#.#..W.H.U.K.K.z.lQtQtQt",
"Qt.g#i.l.z.L.M.U.X.3.3.4.3.3.3.4.3.3.3.4.6.G.Z.G.G.G.Z.G.Z.Z.Z.Z.Z.Y.G.G#.#.#.#..Z.8.Z.G.Z.G.Z.0.Z.8.Z.Z#..G.Z.H.I.K.L.z.l.2QtQt",
".d.d.e.m.z.L.M.U.X.3.3.3.4.3.3.3.4.F.4.6.Z.G.Z.G.W.X.x.Z.Z.Z.G.G.Z.Z.x.Z.Z#.#.#..G.Z.Z.Z.Z.Z.Z.8.8.Z.8.Z.Z.x.W.0.U.K.M.y.l.2QtQt",
".t.a.a.n.B.K.K.S.X.4.3.3.3.4.4.4.X.W.Z.x.G.Z.Z.X.6.4.4.6.Z.G.G.Z.9.9.F.F.W.G.Z.Z.Z.Z.Z.Z.Z.Z.G.Z.G.Z.G.O.F.F.F.W.U.K.J.z.lQtQtQt",
".b.b#a.p#d.J.J.S.X.3.3.4.3.3.3.4.Z.G.Z.Z.G.G.G.W.4.3.3.4.X.G.G.X.9.3.3.F.W.G.G.Z.Z.G.Z.G.Z.G.Z.Z.Z.G.G.W.F.3.3.W.T.K.L.z.lQtQtQt",
".c.b#a.p.C.M.J.T.X.4.3.3.3.4.5.4.X.G.Z.G.G.G.G.Z.4.5.4.4.x.G.G.O.3.3.3.4.x.G.Z.8.Z.8.Z.8.Z.Z.Z.Z.Z.G.G.W.F.3.3.W.T.K.K.z.k.g.1Qt",
".b.b.b.p.C.K.K.T.X.3.3.4.4.4.4.6.Z.G.Z.Z.Z.X.Z.6.F.4.4.6.X.O.X.X.F.F.9.F.Z.8.8.Z.Z.Z.8.Z.Z.Z.Z.Z.W.W.W.F.3.p.o.6.T.K.K.y.l.g.gQt",
".b.b.b.o.C.M.M.V.X.4.3.4.X.X.Z.X.Z.Z.G.Z.6.4.4.F.6.W.Z.X.F.4.4.6.W.W.W.Z.Z.Z.Z.8.8.Z.8.Z.8.Z.G.Z.6.F.F.5.E#l#l.5.C.J.J.z.mQtQtQt",
".b.b.b.o.C.K.M.V.X.3.3.4.Z.Z.G.Z.Z.Z.G.X.4.5.3.4.Z.Z.G.X.F.3.3.4.W.G.G.Z.Z.Z.G.Z.Z.8.Z.Z.8#..G.W.9.3.3#m#l.b.b.q.C.K.J.z.l.hQtQt",
".b.b.b.o.C.M.M.V.X.3.5.4.X.G.G.Z.G.Z.G.Z.4.3.3.4.Z.G.G.Z.4.3.5.4.W.G.Z.Z.Z.Z.Z.Z.8.Z.8.8.8.G.G.Z.F.3.3.5#l.b.b.o.C.K.K.z.k.2.1Qt",
".a.a.a.r.C.M.M.U.Z.4.4.6.Z.G.G.G.x.Z.X.X.6.4.4.6.6.Z.X.X.F.4.4.F.G.G.G.Z.G.Z.G.Z.Z.8.Z.Z.Z.x.W.6.F.3.3#n#l.b.b.o.C.K.J.z.l.2QtQt",
".d.d.e.r.z.J.K.U.P.X.X.Z.Z.Z.Z.Z.F.4.4.F.6.W.Z.6.F.F.4.F.X.Z.W.Z.Z.Z.8.Z.Z.Z.Z.Z.G.Z.G.G.F.F.F.F.3.4.3.5#l.b.b.n.C.J.J.B.l.g.gQt",
"Qt.g#i.l.z.J.K.I.H.G.Z.G.Z.G.G.X.F.3.3.F.W.G.Z.Z.4.5.3.4.X.G.G.G.8.8.Z.8.8.G.Z.Z.Z.Z.G.W.4.3.3.3.3.3.3#n#l.b.b.q.C.J.J.z.l.gQtQt",
"Qt.g#i.l.z.M.M.U.H.G.G.Z.G.G.G.Z.4.3.3.4.W.G.G.W.F.3.3.4.x.G.8.8.Z.Z.8.Z.Z.8.Z.G.Z.G.G.W.F.3.3.3.3.3.3#t#u.b.b.n.C.J.J.z.l.g.gQt",
".d.d.e.m.z.M.M.I.H.O.W.G.W.W.x.6.F.3.3.F.W.G.G.Z.F.4.4.6.Z.8.Z.Z.Z.8.Z.Z.8.Z.Z.Z.W.x.W.X.4.3.3.3.F.F.F.3.q#l#l.5.C.J.K.B.m.d.d.d",
".t.a#v.n.C.K.M.I.H.Z.G.W.6.F.4.4.4.3.3.F.W.G.G.W.W.W.Z.Z.Z.Z.Z.8.8.Z.8.Z.Z.G.Z.Z#c.4.4.4.4.3.3.F#c.W.Z.6.5.o#n.F.T.K.K.B.n.a.a.a",
".b.b#a.p.C.K.M.I.H.Z.G.Z.4.3.3.3.3.3.3.F.Z.Z.G.Z.G.G.8.Z.Z.Z.Z.8.8.Z.8.8.Z.G.G.X.F.3.3.3.3.3.3.F.W.G.G.W.F.3.3.W.T.K.K.C.p.b.c.c",
".c.c#a.p.C.M.M##.H.Z.G.W.4.3.3.4.3.3.3.9.R.G.Z.G.G.Z.G.G.Z.Z.Z.Z.G.G.Z.8.G.G.G.W.F.3.3.3.3.3.3.F.W.G.G.Z.F.3.3.W.T.K.K.C.p#a#a.c",
".a.a.a.n.H.I.I.C.Y.X.W.X.4.4.3.3.4.4.F.6.W.Z.G.O.Z.Z.Z.Z.Z.Z.8.Z.W.W.x.Z.O.W.W.X.F.3.3.4.4.4.F.F.W.O.W.6.3#n#n.F#d.I.I.0#B.a.a.t",
".#.d.e#C.x.H.H.G.X.F.4.4.4.4.3.4.X.W.O.W.G.G.G.G.Z.Z.Z.Z.Z.G.G.O.6.4.F.F.4.F.F.4.3.3.4.4#c.O.W.X.F.F.F.5.E#l#D.p.W#d#d.R#C#E.d.d",
".e.g.g.k#F.G.G.Z.4.4.3.4.3.3.4.4.W.G.G.G.G.G.G.O.G.G.G.G.G.G.G.W.F.3.3.3.3.3.3.3.4.3.3.F.O.O.G.O.F.3.3#t#D.b#a#G.F.G.O.w.k.1QtQt",
".e.e.e.k#H.G.G.X.4.4.3.3.3.4.3.4.O.G.G.G.Z.G.G.G.G.G.G.G.Z.G.G.W.4.3.3.4.3.4.4.3.4.3.3.F.O.G.G.W.4.4.3.5#D.b.b#G.F.Y.Y.w.k.1QtQt",
".e.f.d#I.v.6.4.4.v.n.o#J#n.3#m#m.v#F#H.w.w.F.9.w.w#H.w.w.F.w.F.4.5#m#m#m#n#n#n#n#n#n#n.5.4#H#F.v.v.o#K#B#l.a.a.Q#L.F.R.v#M.1QtQt",
".t.a.a.t#N.E.E.Q#O#P#I#Q#l#N#N.u#C.k.j#C.Q.E.E.Q#C.k.k.j.Q#u.q.Q#u#u#u#u#u#u#u#u#u#u#u.u#C.k.k.j.j#I#I.i.i.d.d.#.u.E.q.u.fQtQtQt",
".b.c.c.c.b.b.b#v.e.e.e.e.a.b.c.a.dQt#i#E.a.b.b.a.d#i.g.d.a.b.b.b.c.c.t.b.c.b.b.c.b.b.c.a.d.g.g.g.gQtQtQt.h.h.h.d.a.b.b.a.dQtQtQt",
".c.c.c.c.b.c.b.t.#.e.e.f.a.c.c.a.dQtQt.d.a#a.b.a.d.hQt.d.a.c.b.b.b.c.b.b.b.b.c.b.b.b.b.a.d.g.gQtQtQtQtQtQt.h.h.d.a.c.b.a.d.h.hQt",
".b.b.c.b.b.c.b.t.e.e.g.e.t.c.c.a.dQtQt.d.a.c.b.a.d.hQt.d.a.c.c.c.c.b.c.b.c.c.b.c.c.b.b.t.dQtQtQtQtQtQtQtQtQt.h.d.a.c.c.a.dQtQtQt"};
