/* XPM */
static char *dummy[]={
"64 128 116 2",
"#O c #000000",
"#e c #000003",
"#y c #00070c",
"#s c #07050d",
"#g c #141d32",
"#k c #1e232c",
"#v c #2b2c38",
"#j c #303a55",
".2 c #383f4a",
".g c #383f4b",
"#t c #383f4c",
".1 c #38404c",
".e c #393f4b",
"Qt c #3a404b",
".h c #3a404c",
"#K c #3d4046",
".d c #3d4047",
".f c #3f4148",
"#z c #3f4449",
".i c #404248",
"#T c #424349",
".# c #434245",
"#W c #43434a",
"#P c #44434a",
".j c #44444b",
"#G c #46413d",
".a c #46413e",
".s c #474242",
"#V c #474548",
".k c #47464d",
"#I c #494649",
"#h c #4a4138",
".b c #4a423a",
".t c #4a433e",
"#X c #4b4440",
".l c #4b4951",
"#m c #4b5e7f",
".c c #4c423a",
".m c #4d484c",
".u c #4e4541",
"#B c #4f443c",
"#f c #4f5463",
"#J c #50443c",
"#F c #50453d",
"#U c #51453d",
".Q c #514743",
"#. c #52300c",
"#M c #53463f",
".E c #54473f",
"#H c #544845",
".n c #544946",
".q c #554840",
".r c #554a47",
".p c #584a43",
".o c #584a44",
"#R c #584a47",
".D c #584d4d",
".v c #5a4d4b",
"#C c #5b4b44",
"#Q c #5b4c48",
"#D c #5c4b43",
"#E c #5d4b43",
".5 c #5e4d45",
"#S c #5e4d48",
"#N c #5f4f4d",
".3 c #614d45",
".w c #61514f",
"#b c #635049",
".4 c #644f48",
"#L c #645352",
".x c #655451",
".F c #66514a",
".6 c #67524b",
".R c #67544f",
"#r c #684700",
"#l c #68524b",
".X c #68534c",
"#i c #69534d",
".W c #69544d",
".O c #6c564f",
".Z c #6c5650",
".y c #6c5959",
"#A c #6c7273",
"#u c #6d5650",
"## c #6e5651",
".Y c #6e5751",
".G c #6f5750",
".0 c #6f5a56",
".P c #705853",
".A c #705c5c",
".z c #705c5d",
"#n c #708ea7",
".B c #715c5b",
".H c #725a55",
"#p c #735a54",
".N c #745b56",
".C c #745d59",
"#o c #755c57",
"#w c #757c87",
".S c #785e5a",
".V c #7a5f5b",
".T c #7a605b",
".U c #7a605c",
".7 c #7c615d",
"#d c #7d625e",
".I c #7e625e",
".M c #826663",
".K c #836663",
".L c #836764",
".J c #846763",
".8 c #946230",
"#q c #9e7b10",
"#x c #b1b5be",
".9 c #d1a049",
"#a c #f0e883",
"#c c #fffffa",
"QtQtQtQtQtQtQtQtQtQtQtQtQtQtQtQtQtQtQt.#.a.b.b.b.b.b.b.c.b.b.b.b.b.b.b.a.d.e.f.g.f.e.h.hQtQt.f.gQt.f.e.h.f.gQtQtQtQt.f.d.a.c.c.b",
"QtQtQtQtQtQtQt.gQt.gQt.g.gQt.g.g.g.g.g.d.a.b.b.b.b.b.b.b.b.b.b.b.b.b.b.a.e.e.g.g.g.g.e.gQt.g.g.g.g.g.e.e.g.g.g.g.gQt.g.d.a.c.c.c",
".h.hQtQtQt.g.gQt.gQtQt.g.g.g.g.g.g.g.g.d.a.b.b.b.b.b.b.b.b.b.b.b.b.b.b.a.e.g.g.g.g.g.g.g.g.g.g.g.g.g.e.e.g.g.g.g.g.g.g.d.a.c.c.c",
".d.d.d.i.j.j.k.k.k.l.l.l.m.l.l.m.l.l.l.m.n.o.p.o.o.o.q.p.o.o.o.o.o.o.p.n.r.l.l.l.l.l.l.l.l.l.l.l.l.l.l.l.l.l.l.l.k.k.k.j.s.a.t.a",
".t.a.a.u.v.w.w.x.y.z.z.z.y.z.z.z.z.A.A.B.B.C.C.C.C.C.C.C.C.C.C.C.C.C.C.C.z.A.A.A.y.z.z.z.z.z.z.y.A.A.z.z.z.z.z.y.x.w.w.D.j.d.d.d",
".c.b.b.E.F.G.G.H.I.J.J.K.L.L.L.L.K.J.K.K.J.M.M.M.M.M.L.M.M.M.M.M.M.M.M.L.J.J.K.J.K.K.L.M.J.L.L.K.K.K.K.J.K.J.L.I.N.G.G.w.k.gQtQt",
".c.c.b.E.F.G.O.H.I.J.K.K.K.K.J.J.L.K.K.K.K.K.M.M.M.M.M.M.M.M.M.M.M.M.M.M.K.K.K.K.K.K.K.K.K.K.K.K.K.M.M.K.K.K.K.I.P.O.O.w.kQtQt.h",
".a.a.a.Q.R.H.H.N.S.T.T.T.T.T.T.T.U.V.S.V.U.I.U.I.V.V.V.V.V.V.V.V.V.V.V.V.V.I.V.I.I.U.I.U.I.I.I.U.V.V.V.U.I.I.U.S.N.N.H.x.k.g.gQt",
".d.d.d.m.y.I.I.S.G.W.W.W.W.W.W.W.X.X.W.G.Y.H.H.P.Z.X.X.X.X.X.X.X.X.X.W.G.H.H.H.H.H.H.H.H.H.H.H.0.Z.X.X.Z.G.H.H.H.V.M.I.y.k.g.g.f",
"Qt.1.2.l.z.J.K.T.X.3.3.3.3.3.3.3.3.3.3.4.X.G.G.x.4.3.4.3.4.3.4.3.3.3.3.4.x.Z.G.W.G.Z.Z.Z.Z.Z.Z.X.4.3.3.4.X.Z.G.H.V.M.K.B.l.g.e.e",
"QtQt.2.l.z.J.K.T.W.3.3.3.3.3.3.3.3.3.5.4.Z.G.Z.X.4.3.5.3.3.3.3.3.3.3.3.4.6.G.Z.Z.Z.Z.Z.Z.Z.Z.G.x.4.3.5.4.Z.Z.W.H.7.K.J.B.l.e.e.e",
"Qt.2Qt.l.B.J.K.T.W.3.3.3.4.3.3.4.4.F.4.F.6.Z.Z.6.4.3.4.3.3.4.3.4.8.9.8.F.Z.Z.G.Z.Z.Z.G.Z.Z.Z.G.Z.F.4.4.F.Z.Z.G.0.I.J.K.B.l.e.e.h",
"Qt.2.2.l.z.K.K.T.W.3.3.4.3.3.3.F.6.X.Z.6.F.F.4.4.4.4.3.3.8.8#.#..8.9.8.W.G.G.G.Z.Z.G.Z.Z##.Z.Z.Z.W.X.Z.Z.Z.Z.Z.H.I.K.L.z.l.g.gQt",
"QtQt.2.l.z.J.K.T.W.3.3.3.3.4.3.F.Z.G.G.Z.4.3.3.4.3.3.8.8.8.8#.#..9.8#..8.Z.G.Z.Z.Z.Z.G.Z.Z####.Z.G.G.Z.Z.G.Z.Z.H.U.K.L.z.l.g.gQt",
"Qt.2.2.l.z.K.K.U.W.3.3.3.3.3.3.F.Z.G.G.W.F.3.3.3.3.8.8.8.9.9#a.8.9#.#..8.8.Z.Z.Z.Z.Z.Z.Z.Z##.Z##.Z.Z.G.Z.Z.Z.G.H.I.K.L.z.l.e.g.f",
"QtQt.2.l.z.K.K.U.W.3.3.3.4.F.4.F.X.X.Z.X.4.3.3.4.9.8.9#a#a.9.8#..8.9.9#a.8#..Z.G.G.Z.G.Z##.Z##.Z.Z.G.Z.Z.Z.G.Z.H.U.K.L.y.l.e.e.e",
"Qt.gQt.m.y.L.L.U.W.3.3.4.6.W.Z.6.F#b.4.4.4.3.4.3.9.9#a#a.9#a#a#a.9#a.9#a#a#.#.##.Z##.Z####.Z.Z##.G.Z.Y.Z.Z.Z.Z.H.U.M.L.z.l.g.gQt",
"QtQtQt.l.z.L.K.U.W.3.3.F.W.G.G.W.F.3.4.3.3.3.4.3#..8.9.9#c#a#c#c#a.9#c.8#a.8#.#.##.Z##.Z.Z.Z##.Z.Z.Z.Z##.Z.Z.Z.H.I.M.M.z.l.gQtQt",
"Qt.g.g.l.z.K.K.U.W.3.3.F.Z.G.G.Z.4.3.3.3.3.4.3.3#..9#a#c#a.9#c#a.9.9#a#c.8.9.8#..Z####.Z##.Z.Z##.Z##.Z.Y.G.Z.Z.H.U.M.M.z.m.g.gQt",
"Qt.g.g.k.z.K.K.U.W.4.4.F.X.W.Z.6.4.3.4.3.3.3.3.8.8.9.8#a.9.9#a.9.9.8.9#a.9#.#..Z.Z.Z.Z##.Z####.Z.Z.Z##.Z.Z.Z.Z.H#d.M.M.z.l.gQtQt",
"QtQtQt.l.z.K.K.I.Y.W.W.W.F.F.4.F.3.4.3.4.4.3.3.8.9#..8.9.9.8.9.9.9.9.8.9.8.9#.####.Z##.Z##.Z####.Y.Z##.Z##.Z.G.H.I.K.J.z.l.g.gQt",
"QtQtQt.l.z.K.K.U.H.G.Y.Z.4.3.3.3.3.3.3.3.3.3.3#b#.#..9.9.8.8.9.9.8.9#..9#..8.8.Z.Z##.Z##.Z##.Z.Z.Z##.Z####.Z.W.H.I.K.J.z.l.e.g.h",
"QtQt.2.k.z.K.K.I.H.G.G.W.4.3.3.3.4.3.4.3.3.3.3.F.W#..9.8#..8.9#..8.8#..8#.#..Z##.Z####.Z##.Z.Z##.Z##.Z.Z.Z##.Z.H.T.K.J.z.l.g.g.h",
"Qt.2Qt.l.z.K.K.U.P.W.W.X.F.4#b.F.4.3.3.3.4.F.4.F.X#..8#.#..8.8#.#..8#.#.#.#.##.Z##.Z##.Z.Z##.Z.Z.Y.Z##.Z.Z.Z.Z.B.I.K.J.z.m.d.d.d",
"QtQt.2.k.z.J.J.U.O.4.4.F.W.W.O.W.F.3.3.F.6.W.Z.X.6#e#.#.#..8#.#.#.#.#.#.#e#e.Z.Z.Z##.Z.Z##.Z.Z####.Z.Z.Z.Z.Z.Z.H.U.K.K.B.n.a.a.t",
"Qt.1Qt.l.z.L.K.T.W.3.3.4.W.Y.G.W.4.3.3.F.Z.G.G.X#e#f#g#e#.#.#.#.#.#.#e#g#f#f.G.Z##.Z.Z##.Z####.Z.Z.Z##.G.G.Z.Z.H.U.K.K.C.p.c#h.b",
"Qt.1.1.l.y.L.L.U#i.3.3.4.O.Y.Y.W.F.3.3.4.Z.G#g#j#e#k#f#j#g#g#j#j#j#j#g#e#g#e#j#g.Z##.Z.Z##.Z.Z####.Z.Z.Z.Z.Z.Z.H.I.K.K.H.p#h.b.b",
".d.d.d.m.z.K.L.U.W.4.4.F.W.W.W#l.4.3.3.4.X.W#g#j#g#g#g#e#e#e#e#e#e#g#g#g#g#e#j#g##.Z####.Z####.Z.Z##.Z.G.Z.Z.Z.H.I.K.K.B.p.b.b.b",
".a.a.a.n.B.J.L.U.P.W.W.W.F.F.F.4.3.3.3.4.F#g#m#n#g#g#g#g#g#g#g#g#g#g#g#g#k#g#m#j#g.Z##.Z##.Z##.Z##.Z.Z##.Z.Z.Z.H.I.M.M.C.p.b.b.b",
".b.b#h.p#o.K.L.U#p.Y.Y.W.F.3.3.4.3.4.3.4.3#g#n#n#j#j#j#g#g#g#g#g#g#g#g#g#j#g#e#q#g##.Z##.Z##.Z##.Z####.Z.Z.Z.Z.H.U.M.M.C.p.b.b.b",
".b.b.b.p#o.K.K.I.H.Y.O.W#b.3.3.3.3.3.4.3.3#r#q#m#j#g#m#m#j#j#j#j#j#j#m#m#j#g#e#q#r.Z.Z##.Z####.Z.Z##.Z##.Z.Z.G.H.I.M.M.C.q.b.b.b",
".c.b.b.p#o.K.K.U.H.O.G.W.F.3.3.3.4.3.3.3.3#r#q#j#g#e#j#m#m#n#n#n#n#n#m#j#j#g#e#j#r#e##.Z##.Z.Z.Z##.Z##.Z.G.Z.Z.H.U.M.M.C.o#h.b.b",
".b.b.b.p.B.K.K.I.H.Z.G.W.4.4.3.4.3.4.4.3#e#g#j#j#g#e#e#g#j#j#j#j#j#j#g#g#e#e#j#j#g#e.Z##.Z.Z.Z##.Z##.Z##.Z.Z.Z.H.U.M.M.C.o.b.b.b",
".c.b#h.p.N.K.K.U.H.Z.G.X.4.3.3.3.3.3.3.3#e#g#j#g#g#e#g#g#e#e#s#s#s#e#g#g#g#e#g#j#g#e##.Z.Z####.Z##.Z.Z.Z.G.Z.Z.H.U.M.K.C.o.b.b.b",
".c#h.b.p.C.K.K.I.H.G.G.Z.F.3.3.3.4.3.3.4#e#g#g#g#g.G#g#g#g#g#g#e#g#g#g#g#g#e#g#g#g#g#e.Z##.Z##.Z##.Z##.Z.Z.Z.Z.H#d.M.M.C.p.b.b.c",
".a.a.a.n.B.K.K.V.0.X.W.X.4.3.4.3.3.3.3.4#g#g#g#g#e.G#e#g#g#g#j#e#j#g#g#g#e#e#k#g#g#g#e##.Z##.Z##.Z##.Z##.Z.G.Z.H#d.M.M.z.n.a.a.a",
".d.d.e.r.z.J.J.I.W.4.F.4.4.3.3.3.4.3.4#e#g#g#g#g#e.G#e#g#g#g#j#g#j#g#g#g#e.Z#e#g#g#g#e#e.Z.Z.Z.Z##.Z##.Z.Z.Z.G.H.I.K.J.z.m.d.d.d",
"Qt.g#t.l.z.L.K.S.X.3.3.3.3.4.3.4.3.3.3#e#g#g#g#g#e.Z#e#g#g#g#j#e#j#g#g#g#s#s#e#g#g#g#g#e.Z.G.Z.Z##.Z.Z###u#u.W.H.U.K.K.z.lQtQtQt",
"Qt.g#t.l.z.L.M.U.X.3.3.4.3.3.3.4.3.3.3#e#g#g#g#e#e.G#e#e#g#g#g#s#g#g#s#e#e#e#v#e#g#g#g#f.Z.G.Z.0.Z##.Z.Z#u.G.Z.H.I.K.L.z.l.2QtQt",
".d.d.e.m.z.L.M.U.X.3.3.3.4.3.3.3.4.F.4#f#w#x#w#f#v.X#s#v#e#e#e#e#e#e#e#v#v#e#s#v#f#w#f#v.Z.Z.Z####.Z##.Z.Z.x.W.0.U.K.M.y.l.2QtQt",
".t.a.a.n.B.K.K.S.X.4.3.3.3.4.4.4.X.W.Z#e#g#j#j#g#e.4#s#s#v#v#f#f#w#w#f#v#s#e#v#g#g#g#e#s.Z.Z.G.Z.G.Z.G.O.F.F.F.W.U.K.J.z.lQtQtQt",
".b.b#h.p#o.J.J.S.X.3.3.4.3.3.3.4.Z.G.Z#v#f#w#w#f#v.3#g#s#s#s#s#s#e#g#g#g#g#e#s#s#s#s#e.G.Z.G.Z.Z.Z.G.G.W.F.3.3.W.T.K.L.z.lQtQtQt",
".c.b#h.p.C.M.J.T.X.4.3.3.3.4.5.4.X.G.Z#e#k#g#e#s#s#y#g#g#g#j#k#e#g#j#j#g#g#g#e#k#k#z#k##.Z.Z.Z.Z.Z.G.G.W.F.3.3.W.T.K.K.z.k.g.1Qt",
".b.b.b.p.C.K.K.T.X.3.3.4.4.4.4.6.Z.G.Z#e#z#k#e#k#s#s#g#g#j#j#j#e#j#j#j#j#g#g#e#z#A#A#s.Z.Z.Z.Z.Z.W.W.W.F.3.p.o.6.T.K.K.y.l.g.gQt",
".b.b.b.o.C.M.M.V.X.4.3.4.X.X.Z.X.Z.Z.G#e#A#A#z#e#e#e#g#g#j#j#m#e#m#m#j#j#j#g#g#s#s#s##.Z##.Z.G.Z.6.F.F.5.E#B#B.5.C.J.J.z.mQtQtQt",
".b.b.b.o.C.K.M.V.X.3.3.4.Z.Z.G.Z.Z.Z.G.X#e#e#e#e.Z#e#g#j#j#m#m#e#m#m#m#j#j#g#g#e.Z##.Z.Z###u.G.W#b.3.3#C#B.b.b.q.C.K.J.z.l.hQtQt",
".b.b.b.o.C.M.M.V.X.3.5.4.X.G.G.Z.G.Z.G.Z.4.3.3.4#e#g#g#j#j#m#m#g#m#m#m#j#j#j#g#g#e.Z######.G.G.Z.F.3.3.5#B.b.b.o.C.K.K.z.k.2.1Qt",
".a.a.a.r.C.M.M.U.Z.4.4.6.Z.G.G.G.x.Z.X.X.6.4.4.6#e#g#g#j#m#m#m#g#m#m#m#m#j#j#g#g#e##.Z.Z.Z.x.W.6.F.3.3#D#B.b.b.o.C.K.J.z.l.2QtQt",
".d.d.e.r.z.J.K.U.P.X.X.Z.Z.Z.Z.Z.F.4.4.F.6.W.Z.6#e#g#g#j#m#m#m#g#m#m#m#m#m#j#j#g#g#s.G.G.F.F.F.F.3.4.3.5#B.b.b.n.C.J.J.B.l.g.gQt",
"Qt.g#t.l.z.J.K.I.H.G.Z.G.Z.G.G.X.F.3.3.F.W.G.Z#e#g#g#j#j#m#m#m#g#m#n#m#m#m#j#j#g#g#s.G.W.4.3.3.3.3.3.3#D#B.b.b.q.C.J.J.z.l.gQtQt",
"Qt.g#t.l.z.M.M.U.H.G.G.Z.G.G.G.Z.4.3.3.4.W.G.G#e#g#g#j#j#m#n#m#g#m#n#n#m#m#m#j#g#g#e.G.W.F.3.3.3.3.3.3#E#F.b.b.n.C.J.J.z.l.g.gQt",
".d.d.e.m.z.M.M.I.H.O.W.G.W.W.x.6.F.3.3.F.W.G#e#g#j#g#j#m#m#n#m#e#m#n#n#m#m#m#j#g#j#g#s.X.4.3.3.3.F.F.F.3.q#B#B.5.C.J.K.B.m.d.d.d",
".t.a#G.n.C.K.M.I.H.Z.G.W.6.F.4.4.4.3.3.F.W.G#e#g#j#g#j#m#n#n#j#g#m#n#n#n#m#m#m#j#j#g#s.4.4.3.3.F#l.W.Z.6.5.o#D.F.T.K.K.B.n.a.a.a",
".b.b#h.p.C.K.M.I.H.Z.G.Z.4.3.3.3.3.3.3.F.Z#e#g#j#j#g#j#m#n#n#j#e#j#n#n#n#m#m#m#j#j#j#s.3.3.3.3.F.W.G.G.W.F.3.3.W.T.K.K.C.p.b.c.c",
".c.c#h.p.C.M.M#d.H.Z.G.W.4.3.3.4.3.3.3#b.R#e#g#j#j#j#j#m#n#n#g#e#j#n#n#n#n#m#m#j#j#j#g#s.3.3.3.F.W.G.G.Z.F.3.3.W.T.K.K.C.p#h#h.c",
".a.a.a.n.H.I.I.C.Y.X.W.X.4.4.3.3.4.4.F.6.W#e#f#g#j#j#g#m#n#n#g#e#j#n#n#n#n#m#j#g#j#j#g#s.4.4.F.F.W.O.W.6.3#D#D.F#o.I.I.0#H.a.a.t",
".#.d.e#I.x.H.H.G.X.F.4.4.4.4.3.4.X.W.O.W.G#s#v#f#f#g#g#j#m#n#e#e#g#m#n#n#n#m#j#g#g#f#v#s#l.O.W.X.F.F.F.5.E#B#J.p.W#o#o.R#I#K.d.d",
".e.g.g.k#L.G.G.Z.4.4.3.4.3.3.4.4.W.G.G.G.G#s#v#v#f#w#x#x#x#w#e#y#v#w#x#x#x#x#w#f#f#f#v#s.O.O.G.O.F.3.3#E#J.b#h#M.F.G.O.w.k.1QtQt",
".e.e.e.k#N.G.G.X.4.4.3.3.3.4.3.4.O#O#O#O#O#O#v#v#v#f#f#f#w#w#y#y#v#f#w#w#w#f#f#v#f#f#v#s#O.G.G.W.4.4.3.5#J.b.b#M.F.Y.Y.w.k.1QtQt",
".e.f.d#P.v.6.4.4.v.n.o#Q#D.3#C#O#O#O#O#O#O#O#s#v#v#f#v#f#w#w#y#y#s#f#w#w#w#f#v#v#f#v#s#O#O#O#O.v.v.o#R#H#B.a.a.Q#S.F.R.v#T.1QtQt",
".t.a.a.t#U.E.E.Q#V#W#P#X#B#U#O#O#O#O#O#O#O#O#O#s#v#v#v#v#w#w#y#y#s#f#f#w#w#f#v#v#s#O#O#O#O#O#O#O.j#P#P.i.i.d.d.#.u.E.q.u.fQtQtQt",
".b.c.c.c.b.b.b#G.e.e.e.e.a#O#O#O#O#O#O#O#O#O#O#O#s#s#v#s#s#e#y#s#s#s#s#s#s#s#s#O#O#O#O#O#O#O#O#O#OQtQtQt.h.h.h.d.a.b.b.a.dQtQtQt",
".c.c.c.c.b.c.b.t.#.e.e.f#O#O#O#O#O#O#O#O#O#O#O#O#O#O#O#O#O#O#y#k#k#z#k#k#y#O#O#O#O#O#O#O#O#O#O#O#O#OQtQtQt.h.h.d.a.c.b.a.d.h.hQt",
".b.b.c.b.b.c.b.t.e.e.g.e#O#O#O#O#O#O#O#O#O#O#O#O#O#O#O#O#O#O#y#z#z#A#z#z#k#O#O#O#O#O#O#O#O#O#O#O#O#OQtQtQtQt.h.d.a.c.c.a.dQtQtQt",
"QtQtQtQtQtQtQtQtQtQtQtQt#O#O#O#O#O#O#O#O#O#O#O#O#O#O#O#O#O#O#y#k#k#z#k#y#y#O#O#O#O#O#O#O#O#O#O#O#O#O.e.h.f.gQtQtQtQt.f.d.a.c.c.b",
"QtQtQtQtQtQtQt.gQt.gQt.g#O#O#O#O#O#O#O#O#O#O#O#O#O#O#O#O#O#O#e#s#k#k#s#y#e#O#O#O#O#O#O#O#O#O#O#O#O#O.e.e.g.g.g.g.gQt.g.d.a.c.c.c",
".h.hQtQtQt.g.gQt.gQtQt.g.g#O#O#O#O#O#O#O#O#O#O#O#O#O#O#O#O#O#O#O#O#O#O#O#O#O#O#O#O#O#O#O#O#O#O#O#O.g.e.e.g.g.g.g.g.g.g.d.a.c.c.c",
".d.d.d.i.j.j.k.k.k.l.l.l.m.l#O#O#O#O#O#O#O#O#O#O#O#O#O#O#O#O#O#O#O#O#O#O#O#O#O#O#O#O#O#O#O#O#O#O.l.l.l.l.l.l.l.l.k.k.k.j.s.a.t.a",
".t.a.a.u.v.w.w.x.y.z.z.z.y.z.z#O#O#O#O#O#O#O#O#O#O#O#O#O#O#O#O#O#O#O#O#O#O#O#O#O#O#O#O#O#O#O#O.y.A.A.z.z.z.z.z.y.x.w.w.D.j.d.d.d",
".c.b.b.E.F.G.G.H.I.J.J.K.L.L.L.L.K#O#O#O#O#O#O#O#O#O#O#O#O#O#O#O#O#O#O#O#O#O#O#O#O#O#O#O#O.L.L.K.K.K.K.J.K.J.L.I.N.G.G.w.k.gQtQt",
".c.c.b.E.F.G.O.H.I.J.K.K.K.K.J.J.L.K.K.K.K#O#O#O#O#O#O#O#O#O#O#O#O#O#O#O#O#O#O#O#O.K.K.K.K.K.K.K.K.M.M.K.K.K.K.I.P.O.O.w.kQtQt.h",
".a.a.a.Q.R.H.H.N.S.T.T.T.T.T.T.T.U.V.S.V.U.I.U.I.V.V.V.V.V.V.V.V.V.V.V.V.V.I.V.I.I.U.I.U.I.I.I.U.V.V.V.U.I.I.U.S.N.N.H.x.k.g.gQt",
".d.d.d.m.y.I.I.S.G.W.W.W.W.W.W.W.X.X.W.G.Y.H.H.P.Z.X.X.X.X.X.X.X.X.X.W.G.H.H.H.H.H.H.H.H.H.H.H.0.Z.X.X.Z.G.H.H.H.V.M.I.y.k.g.g.f",
"Qt.1.2.l.z.J.K.T.X.3.3.3.3.3.3.3.3.3.3.4.X.G.G.x.4.3.4.3.4.3.4.3.3.3.3.4.x.Z.G.W.G.Z.Z.Z.Z.Z.Z.X.4.3.3.4.X.Z.G.H.V.M.K.B.l.g.e.e",
"QtQt.2.l.z.J.K.T.W.3.3.3.3.3.3.3.3.3.5.4.Z.G.Z.X.4.3.5.3.3.3.3.3.3.3.3.4.6.G.Z.Z.Z.Z.Z.Z.Z.Z.G.x.4.3.5.4.Z.Z.W.H.7.K.J.B.l.e.e.e",
"Qt.2Qt.l.B.J.K.T.W.3.3.3.4.3.3.4.4.F.4.F.6.Z.Z.6.4.3.4.3.3.4.3.4.4.4.4.F.Z.Z.G.Z.Z.Z.G.Z.Z.Z.G.Z.F.4.4.F.Z.Z.G.0.I.J.K.B.l.e.e.h",
"Qt.2.2.l.z.K.K.T.W.3.3.4.3.3.3.F.6.X.Z.6.F.F.4.4.4.4.3.3.3.4.3.4.X.Z.x.W.G.G.G.Z.Z.G.Z.Z##.Z.Z.Z.W.X.Z.Z.Z.Z.Z.H.I.K.L.z.l.g.gQt",
"QtQt.2.l.z.J.K.T.W.3.3.3.3.4.3.F.Z.G.G.Z.4.3.3.4.3.3.3.4.3.3.3.4.X.G.G.Z.Z.G.Z.Z.Z.Z.G.Z.Z####.Z.G.G.Z.Z.G.Z.Z.H.U.K.L.z.l.g.gQt",
"Qt.2.2.l.z.K.K.U.W.3.3.3.3.3.3.F.Z.G.G.W.F.3.3.3.3.3.3.3.3.4.3.4.Z.G.G.Z.G.Z.Z.Z.Z.Z.Z.Z.Z##.Z##.Z.Z.G.Z.Z.Z.G.H.I.K.L.z.l.e.g.f",
"QtQt.2.l.z.K.K.U.W.3.3.3.4.F.4.F.X.X.Z.X.4.3.3.4.3.4.3.4.4.F.4.6.X.X.Z.Z.Z.Z.Z.G.G.Z.G.Z##.Z##.Z.Z.G.Z.Z.Z.G.Z.H.U.K.L.y.l.e.e.e",
"Qt.gQt.m.y.L.L.U.W.3.3.4.6.W.Z.6.F#b.4.4.4.3.4.3.5.3.4.4.6.Z.Z.6.F.F.F.F.x#u.Z##.Z##.Z####.Z.Z##.G.Z.Y.Z.Z.Z.Z.H.U.M.L.z.l.g.gQt",
"QtQtQt.l.z.L.K.U.W.3.3.F.W.G.G.W.F.3.4.3.3.3.4.3.4.3.3.4.X.G.G.X.4.3.5.F.Z#u#u.Z##.Z##.Z.Z.Z##.Z.Z.Z.Z##.Z.Z.Z.H.I.M.M.z.l.gQtQt",
"Qt.g.g.l.z.K.K.U.W.3.3.F.Z.G.G.Z.4.3.3.3.3.4.3.3.4.3.3.4.Z.Y.Y.Z.4.3.3#b.W.Y.Z##.Z####.Z##.Z.Z##.Z##.Z.Y.G.Z.Z.H.U.M.M.z.m.g.gQt",
"Qt.g.g.k.z.K.K.U.W.4.4.F.X.W.Z.6.4.3.4.3.3.3.3.4.4.4.4.6.X.X.Z.X.F.4#b.F.Z.Z##.Z.Z.Z.Z##.Z####.Z.Z.Z##.Z.Z.Z.Z.H#d.M.M.z.l.gQtQt",
"QtQtQt.l.z.K.K.I.Y.W.W.W.F.F.4.F.3.4.3.4.4.3.3.F.6.Z.X.6.F.4.4.F.W.W.W.W.Z##.Z####.Z##.Z##.Z####.Y.Z##.Z##.Z.G.H.I.K.J.z.l.g.gQt",
"QtQtQt.l.z.K.K.U.H.G.Y.Z.4.3.3.3.3.3.3.3.3.3.3#b.Z.G.G.Z.4.3.3.F.W.G.Y.Y.Z####.Z.Z##.Z##.Z##.Z.Z.Z##.Z####.Z.W.H.I.K.J.z.l.e.g.h",
"QtQt.2.k.z.K.K.I.H.G.G.W.4.3.3.3.4.3.4.3.3.3.3.F.W.G.G.Z.F.5.3.4.W.Z.G.G.Z.Z.Z##.Z####.Z##.Z.Z##.Z##.Z.Z.Z##.Z.H.T.K.J.z.l.g.g.h",
"Qt.2Qt.l.z.K.K.U.P.W.W.X.F.4#b.F.4.3.3.3.4.F.4.F.X.Z.X.X.F.4.4#b.Z.G.Z.G##.Z##.Z##.Z##.Z.Z##.Z.Z.Y.Z##.Z.Z.Z.Z.B.I.K.J.z.m.d.d.d",
"QtQt.2.k.z.J.J.U.O.4.4.F.W.W.O.W.F.3.3.F.6.W.Z.X.6.F.4.F.X.Z.W.Z.Z.Z.Z.Z.Z.Z.Z.Z.Z##.Z.Z##.Z.Z####.Z.Z.Z.Z.Z.Z.H.U.K.K.B.n.a.a.t",
"Qt.1Qt.l.z.L.K.T.W.3.3.4.W.Y.G.W.4.3.3.F.Z.G.G.X.4.3.3.4.X.G.G.G.Z.Z.G.Z.0.Z.G.Z##.Z.Z##.Z####.Z.Z.Z##.G.G.Z.Z.H.U.K.K.C.p.c#h.b",
"Qt.1.1.l.y.L.L.U#i.3.3.4.O.Y.Y.W.F.3.3.4.Z.G.G.W.F.3.3.4.x.G####.G.Z.Z.Z.Z.Z.Z.Z.Z##.Z.Z##.Z.Z####.Z.Z.Z.Z.Z.Z.H.I.K.K.H.p#h.b.b",
".d.d.d.m.z.K.L.U.W.4.4.F.W.W.W#l.4.3.3.4.X.W.W.X.F.4.4.6.Z##.Z.Z.Z.Z.G.Z.G.Z.G.Z##.Z####.Z####.Z.Z##.Z.G.Z.Z.Z.H.I.K.K.B.p.b.b.b",
".a.a.a.n.B.J.L.U.P.W.W.W.F.F.F.4.3.3.3.4.F.4.F.F.6.W.Z.Z.Z.Z.Z###u.Z.Z##.Z.G.Z.Z##.Z##.Z##.Z##.Z##.Z.Z##.Z.Z.Z.H.I.M.M.C.p.b.b.b",
".b.b#h.p#o.K.L.U#p.Y.Y.W.F.3.3.4.3.4.3.4.3.3.3.4.Z.G.G.Z.Z.Z.G.Z#u.Z##.Z.Z.Z.Z##.Z##.Z##.Z##.Z##.Z####.Z.Z.Z.Z.H.U.M.M.C.p.b.b.b",
".b.b.b.p#o.K.K.I.H.Y.O.W#b.3.3.3.3.3.4.3.3.3.3.F.X.Z.Z.Z.Z.Z.Z.Y#u##.Z##.Z.Z##.Z.Z.Z.Z##.Z####.Z.Z##.Z##.Z.Z.G.H.I.M.M.C.q.b.b.b",
".c.b.b.p#o.K.K.U.H.O.G.W.F.3.3.3.4.3.3.3.3.4.3.F.Z.G.G.Z.Z.Z.Z.Z##.Z##.Z####.Z####.Z##.Z##.Z.Z.Z##.Z##.Z.G.Z.Z.H.U.M.M.C.o#h.b.b",
".b.b.b.p.B.K.K.I.H.Z.G.W.4.4.3.4.3.4.4.3.3.3.3.4.Z######.G.Z.Z.Y.Z##.Z##.Z.Z#u#u.Z##.Z##.Z.Z.Z##.Z##.Z##.Z.Z.Z.H.U.M.M.C.o.b.b.b",
".c.b#h.p.N.K.K.U.H.Z.G.X.4.3.3.3.3.3.3.3.4.3.4.4.x##.Z.Z.Z.Y.Z.Z##.Z###u##.Z#u#u##.Z##.Z.Z####.Z##.Z.Z.Z.G.Z.Z.H.U.M.K.C.o.b.b.b",
".c#h.b.p.C.K.K.I.H.G.G.Z.F.3.3.3.4.3.3.4.3.3.3.F.X.G##.Z##.Z.Z.Z.Z.Z#u#u#u#u#u#u.Z####.Z##.Z##.Z##.Z##.Z.Z.Z.Z.H#d.M.M.C.p.b.b.c",
".a.a.a.n.B.K.K.V.0.X.W.X.4.3.4.3.3.3.3.4.4.4.4.6.W.G##.Z##.Z.G.Z##.Z#u#u#u#u#u#u.Z##.Z##.Z##.Z##.Z##.Z##.Z.G.Z.H#d.M.M.z.n.a.a.a",
".d.d.e.r.z.J.J.I.W.4.F.4.4.3.3.3.4.3.4.4.6.x.W.W.G.G.Z.Z.Z.Z.G.Z.G.Z.Z.Z#u.Z##.Z.Z.Z##.Z.Z.Z.Z.Z##.Z##.Z.Z.Z.G.H.I.K.J.z.m.d.d.d",
"Qt.g#t.l.z.L.K.S.X.3.3.3.3.4.3.4.3.3.3.4.Z.G.G.G.Z.Z.Z.G.Z.G.Z.Z.Z.Z.G.Z#u###u.Z##.Z.Z##.Z.G.Z.Z##.Z.Z###u#u.W.H.U.K.K.z.lQtQtQt",
"Qt.g#t.l.z.L.M.U.X.3.3.4.3.3.3.4.3.3.3.4.6.G.Z.G.G.G.Z.G.Z.Z.Z.Z.Z.Y.G.G#u#u#u#u.Z##.Z.G.Z.G.Z.0.Z##.Z.Z#u.G.Z.H.I.K.L.z.l.2QtQt",
".d.d.e.m.z.L.M.U.X.3.3.3.4.3.3.3.4.F.4.6.Z.G.Z.G.W.X.x.Z.Z.Z.G.G.Z.Z.x.Z.Z#u#u#u.G.Z.Z.Z.Z.Z.Z####.Z##.Z.Z.x.W.0.U.K.M.y.l.2QtQt",
".t.a.a.n.B.K.K.S.X.4.3.3.3.4.4.4.X.W.Z.x.G.Z.Z.X.6.4.4.6.Z.G.G.Z#b#b.F.F.W.G.Z.Z.Z.Z.Z.Z.Z.Z.G.Z.G.Z.G.O.F.F.F.W.U.K.J.z.lQtQtQt",
".b.b#h.p#o.J.J.S.X.3.3.4.3.3.3.4.Z.G.Z.Z.G.G.G.W.4.3.3.4.X.G.G.X#b.3.3.F.W.G.G.Z.Z.G.Z.G.Z.G.Z.Z.Z.G.G.W.F.3.3.W.T.K.L.z.lQtQtQt",
".c.b#h.p.C.M.J.T.X.4.3.3.3.4.5.4.X.G.Z.G.G.G.G.Z.4.5.4.4.x.G.G.O.3.3.3.4.x.G.Z##.Z##.Z##.Z.Z.Z.Z.Z.G.G.W.F.3.3.W.T.K.K.z.k.g.1Qt",
".b.b.b.p.C.K.K.T.X.3.3.4.4.4.4.6.Z.G.Z.Z.Z.X.Z.6.F.4.4.6.X.O.X.X.F.F#b.F.Z####.Z.Z.Z##.Z.Z.Z.Z.Z.W.W.W.F.3.p.o.6.T.K.K.y.l.g.gQt",
".b.b.b.o.C.M.M.V.X.4.3.4.X.X.Z.X.Z.Z.G.Z.6.4.4.F.6.W.Z.X.F.4.4.6.W.W.W.Z.Z.Z.Z####.Z##.Z##.Z.G.Z.6.F.F.5.E#B#B.5.C.J.J.z.mQtQtQt",
".b.b.b.o.C.K.M.V.X.3.3.4.Z.Z.G.Z.Z.Z.G.X.4.5.3.4.Z.Z.G.X.F.3.3.4.W.G.G.Z.Z.Z.G.Z.Z##.Z.Z###u.G.W#b.3.3#C#B.b.b.q.C.K.J.z.l.hQtQt",
".b.b.b.o.C.M.M.V.X.3.5.4.X.G.G.Z.G.Z.G.Z.4.3.3.4.Z.G.G.Z.4.3.5.4.W.G.Z.Z.Z.Z.Z.Z##.Z######.G.G.Z.F.3.3.5#B.b.b.o.C.K.K.z.k.2.1Qt",
".a.a.a.r.C.M.M.U.Z.4.4.6.Z.G.G.G.x.Z.X.X.6.4.4.6.6.Z.X.X.F.4.4.F.G.G.G.Z.G.Z.G.Z.Z##.Z.Z.Z.x.W.6.F.3.3#D#B.b.b.o.C.K.J.z.l.2QtQt",
".d.d.e.r.z.J.K.U.P.X.X.Z.Z.Z.Z.Z.F.4.4.F.6.W.Z.6.F.F.4.F.X.Z.W.Z.Z.Z##.Z.Z.Z.Z.Z.G.Z.G.G.F.F.F.F.3.4.3.5#B.b.b.n.C.J.J.B.l.g.gQt",
"Qt.g#t.l.z.J.K.I.H.G.Z.G.Z.G.G.X.F.3.3.F.W.G.Z.Z.4.5.3.4.X.G.G.G####.Z####.G.Z.Z.Z.Z.G.W.4.3.3.3.3.3.3#D#B.b.b.q.C.J.J.z.l.gQtQt",
"Qt.g#t.l.z.M.M.U.H.G.G.Z.G.G.G.Z.4.3.3.4.W.G.G.W.F.3.3.4.x.G####.Z.Z##.Z.Z##.Z.G.Z.G.G.W.F.3.3.3.3.3.3#E#F.b.b.n.C.J.J.z.l.g.gQt",
".d.d.e.m.z.M.M.I.H.O.W.G.W.W.x.6.F.3.3.F.W.G.G.Z.F.4.4.6.Z##.Z.Z.Z##.Z.Z##.Z.Z.Z.W.x.W.X.4.3.3.3.F.F.F.3.q#B#B.5.C.J.K.B.m.d.d.d",
".t.a#G.n.C.K.M.I.H.Z.G.W.6.F.4.4.4.3.3.F.W.G.G.W.W.W.Z.Z.Z.Z.Z####.Z##.Z.Z.G.Z.Z#l.4.4.4.4.3.3.F#l.W.Z.6.5.o#D.F.T.K.K.B.n.a.a.a",
".b.b#h.p.C.K.M.I.H.Z.G.Z.4.3.3.3.3.3.3.F.Z.Z.G.Z.G.G##.Z.Z.Z.Z####.Z####.Z.G.G.X.F.3.3.3.3.3.3.F.W.G.G.W.F.3.3.W.T.K.K.C.p.b.c.c",
".c.c#h.p.C.M.M#d.H.Z.G.W.4.3.3.4.3.3.3#b.R.G.Z.G.G.Z.G.G.Z.Z.Z.Z.G.G.Z##.G.G.G.W.F.3.3.3.3.3.3.F.W.G.G.Z.F.3.3.W.T.K.K.C.p#h#h.c",
".a.a.a.n.H.I.I.C.Y.X.W.X.4.4.3.3.4.4.F.6.W.Z.G.O.Z.Z.Z.Z.Z.Z##.Z.W.W.x.Z.O.W.W.X.F.3.3.4.4.4.F.F.W.O.W.6.3#D#D.F#o.I.I.0#H.a.a.t",
".#.d.e#I.x.H.H.G.X.F.4.4.4.4.3.4.X.W.O.W.G.G.G.G.Z.Z.Z.Z.Z.G.G.O.6.4.F.F.4.F.F.4.3.3.4.4#l.O.W.X.F.F.F.5.E#B#J.p.W#o#o.R#I#K.d.d",
".e.g.g.k#L.G.G.Z.4.4.3.4.3.3.4.4.W.G.G.G.G.G.G.O.G.G.G.G.G.G.G.W.F.3.3.3.3.3.3.3.4.3.3.F.O.O.G.O.F.3.3#E#J.b#h#M.F.G.O.w.k.1QtQt",
".e.e.e.k#N.G.G.X.4.4.3.3.3.4.3.4.O.G.G.G.Z.G.G.G.G.G.G.G.Z.G.G.W.4.3.3.4.3.4.4.3.4.3.3.F.O.G.G.W.4.4.3.5#J.b.b#M.F.Y.Y.w.k.1QtQt",
".e.f.d#P.v.6.4.4.v.n.o#Q#D.3#C#C.v#L#N.w.w.F#b.w.w#N.w.w.F.w.F.4.5#C#C#C#D#D#D#D#D#D#D.5.4#N#L.v.v.o#R#H#B.a.a.Q#S.F.R.v#T.1QtQt",
".t.a.a.t#U.E.E.Q#V#W#P#X#B#U#U.u#I.k.j#I.Q.E.E.Q#I.k.k.j.Q#F.q.Q#F#F#F#F#F#F#F#F#F#F#F.u#I.k.k.j.j#P#P.i.i.d.d.#.u.E.q.u.fQtQtQt",
".b.c.c.c.b.b.b#G.e.e.e.e.a.b.c.a.dQt#t#K.a.b.b.a.d#t.g.d.a.b.b.b.c.c.t.b.c.b.b.c.b.b.c.a.d.g.g.g.gQtQtQt.h.h.h.d.a.b.b.a.dQtQtQt",
".c.c.c.c.b.c.b.t.#.e.e.f.a.c.c.a.dQtQt.d.a#h.b.a.d.hQt.d.a.c.b.b.b.c.b.b.b.b.c.b.b.b.b.a.d.g.gQtQtQtQtQtQt.h.h.d.a.c.b.a.d.h.hQt",
".b.b.c.b.b.c.b.t.e.e.g.e.t.c.c.a.dQtQt.d.a.c.b.a.d.hQt.d.a.c.c.c.c.b.c.b.c.c.b.c.c.b.b.t.dQtQtQtQtQtQtQtQtQt.h.d.a.c.c.a.dQtQtQt"};
