/* XPM */
static char *dummy[]={
"64 64 97 2",
"Qt c None",
".u c #000000",
"#A c #000000",
".v c #000000",
"#. c #000000",
".F c #000000",
".0 c #000000",
".w c #000000",
"#B c #000000",
".z c #000000",
".x c #000000",
"#C c #000000",
"#D c #000000",
"#E c #000000",
".y c #000000",
".P c #000000",
".G c #000000",
"#b c #000000",
".A c #000000",
"#r c #000000",
".1 c #000000",
".8 c #000000",
"#s c #000000",
".B c #000000",
"#t c #000000",
".H c #000000",
".O c #000000",
"#u c #000000",
".C c #000000",
"#v c #000000",
".Q c #000000",
"#w c #000000",
"#x c #000000",
"#y c #000000",
"#z c #000000",
".D c #000000",
".E c #000000",
".I c #000000",
"#c c #000000",
"#k c #000000",
".2 c #000000",
".9 c #000000",
"#l c #000000",
".J c #000000",
".R c #000000",
"#m c #000000",
"#n c #000000",
".K c #000000",
"#d c #000000",
"#o c #000000",
"#p c #000000",
".S c #000000",
".L c #000000",
"#q c #000000",
".3 c #000000",
".M c #000000",
".T c #000000",
".N c #000000",
"#e c #000000",
"#f c #000000",
".4 c #000000",
".U c #000000",
"#g c #000000",
"#j c #000000",
"#i c #000000",
".V c #000000",
"#h c #000000",
".W c #000000",
".X c #000000",
".Y c #000000",
".Z c #000000",
"## c #000000",
".5 c #000000",
"#a c #000000",
".6 c #000000",
".7 c #000000",
".e c #000003",
".p c #00070c",
".n c #07050d",
".g c #141d32",
".j c #1e232c",
".o c #2b2c38",
".h c #303a55",
".s c #3f4449",
".i c #4b5e7f",
".f c #4f5463",
".b c #52300c",
".m c #684700",
".t c #6c7273",
".k c #708ea7",
".q c #757c87",
".# c #946230",
".l c #9e7b10",
".r c #b1b5be",
".a c #d1a049",
".c c #f0e883",
".d c #fffffa",
"QtQtQtQtQtQtQtQtQtQtQtQtQtQtQtQtQtQtQtQtQtQtQtQtQtQtQtQtQtQtQtQtQtQtQtQtQtQtQtQtQtQtQtQtQtQtQtQtQtQtQtQtQtQtQtQtQtQtQtQtQtQtQtQt",
"QtQtQtQtQtQtQtQtQtQtQtQtQtQtQtQtQtQtQtQtQtQtQtQtQtQtQtQtQtQtQtQtQtQtQtQtQtQtQtQtQtQtQtQtQtQtQtQtQtQtQtQtQtQtQtQtQtQtQtQtQtQtQtQt",
"QtQtQtQtQtQtQtQtQtQtQtQtQtQtQtQtQtQtQtQtQtQtQtQtQtQtQtQtQtQtQtQtQtQtQtQtQtQtQtQtQtQtQtQtQtQtQtQtQtQtQtQtQtQtQtQtQtQtQtQtQtQtQtQt",
"QtQtQtQtQtQtQtQtQtQtQtQtQtQtQtQtQtQtQtQtQtQtQtQtQtQtQtQtQtQtQtQt.#.a.#QtQtQtQtQtQtQtQtQtQtQtQtQtQtQtQtQtQtQtQtQtQtQtQtQtQtQtQtQt",
"QtQtQtQtQtQtQtQtQtQtQtQtQtQtQtQtQtQtQtQtQtQtQtQtQtQtQtQt.#.#.b.b.#.a.#QtQtQtQtQtQtQtQtQtQtQtQtQtQtQtQtQtQtQtQtQtQtQtQtQtQtQtQtQt",
"QtQtQtQtQtQtQtQtQtQtQtQtQtQtQtQtQtQtQtQtQtQtQtQtQtQt.#.#.#.#.b.b.a.#.b.#QtQtQtQtQtQtQtQtQtQtQtQtQtQtQtQtQtQtQtQtQtQtQtQtQtQtQtQt",
"QtQtQtQtQtQtQtQtQtQtQtQtQtQtQtQtQtQtQtQtQtQtQtQtQt.#.#.#.a.a.c.#.a.b.b.#.#QtQtQtQtQtQtQtQtQtQtQtQtQtQtQtQtQtQtQtQtQtQtQtQtQtQtQt",
"QtQtQtQtQtQtQtQtQtQtQtQtQtQtQtQtQtQtQtQtQtQtQtQt.a.#.a.c.c.a.#.b.#.a.a.c.#.bQtQtQtQtQtQtQtQtQtQtQtQtQtQtQtQtQtQtQtQtQtQtQtQtQtQt",
"QtQtQtQtQtQtQtQtQtQtQtQtQtQtQtQtQtQtQtQtQtQtQtQt.a.a.c.c.a.c.c.c.a.c.a.c.c.b.bQtQtQtQtQtQtQtQtQtQtQtQtQtQtQtQtQtQtQtQtQtQtQtQtQt",
"QtQtQtQtQtQtQtQtQtQtQtQtQtQtQtQtQtQtQtQtQtQtQtQt.b.#.a.a.d.c.d.d.c.a.d.#.c.#.b.bQtQtQtQtQtQtQtQtQtQtQtQtQtQtQtQtQtQtQtQtQtQtQtQt",
"QtQtQtQtQtQtQtQtQtQtQtQtQtQtQtQtQtQtQtQtQtQtQtQt.b.a.c.d.c.a.d.c.a.a.c.d.#.a.#.bQtQtQtQtQtQtQtQtQtQtQtQtQtQtQtQtQtQtQtQtQtQtQtQt",
"QtQtQtQtQtQtQtQtQtQtQtQtQtQtQtQtQtQtQtQtQtQtQt.#.#.a.#.c.a.a.c.a.a.#.a.c.a.b.bQtQtQtQtQtQtQtQtQtQtQtQtQtQtQtQtQtQtQtQtQtQtQtQtQt",
"QtQtQtQtQtQtQtQtQtQtQtQtQtQtQtQtQtQtQtQtQtQtQt.#.a.b.#.a.a.#.a.a.a.a.#.a.#.a.bQtQtQtQtQtQtQtQtQtQtQtQtQtQtQtQtQtQtQtQtQtQtQtQtQt",
"QtQtQtQtQtQtQtQtQtQtQtQtQtQtQtQtQtQtQtQtQtQtQtQt.b.b.a.a.#.#.a.a.#.a.b.a.b.#.#QtQtQtQtQtQtQtQtQtQtQtQtQtQtQtQtQtQtQtQtQtQtQtQtQt",
"QtQtQtQtQtQtQtQtQtQtQtQtQtQtQtQtQtQtQtQtQtQtQtQtQt.b.a.#.b.#.a.b.#.#.b.#.b.bQtQtQtQtQtQtQtQtQtQtQtQtQtQtQtQtQtQtQtQtQtQtQtQtQtQt",
"QtQtQtQtQtQtQtQtQtQtQtQtQtQtQtQtQtQtQtQtQtQtQtQtQt.b.#.b.b.#.#.b.b.#.b.b.b.bQtQtQtQtQtQtQtQtQtQtQtQtQtQtQtQtQtQtQtQtQtQtQtQtQtQt",
"QtQtQtQtQtQtQtQtQtQtQtQtQtQtQtQtQtQtQtQtQtQtQtQtQt.e.e.b.b.#.b.b.b.b.b.b.b.eQtQtQtQtQtQtQtQtQtQtQtQtQtQtQtQtQtQtQtQtQtQtQtQtQtQt",
"QtQtQtQtQtQtQtQtQtQtQtQtQtQtQtQtQtQtQtQtQtQtQtQt.e.f.f.g.e.b.b.b.b.b.b.e.g.f.eQtQtQtQtQtQtQtQtQtQtQtQtQtQtQtQtQtQtQtQtQtQtQtQtQt",
"QtQtQtQtQtQtQtQtQtQtQtQtQtQtQtQtQtQtQtQtQtQt.g.h.e.e.g.e.g.h.h.h.h.g.g.h.f.g.e.h.gQtQtQtQtQtQtQtQtQtQtQtQtQtQtQtQtQtQtQtQtQtQtQt",
"QtQtQtQtQtQtQtQtQtQtQtQtQtQtQtQtQtQtQtQtQtQt.g.h.g.e.g.g.g.g.e.e.e.e.e.e.g.g.h.h.gQtQtQtQtQtQtQtQtQtQtQtQtQtQtQtQtQtQtQtQtQtQtQt",
"QtQtQtQtQtQtQtQtQtQtQtQtQtQtQtQtQtQtQtQtQtQt.h.i.h.j.j.g.g.g.g.g.g.g.g.g.h.g.i.k.i.gQtQtQtQtQtQtQtQtQtQtQtQtQtQtQtQtQtQtQtQtQtQt",
"QtQtQtQtQtQtQtQtQtQtQtQtQtQtQtQtQtQtQtQtQtQt.l.k.e.g.h.g.g.g.g.g.g.g.g.h.i.h.i.k.k.gQtQtQtQtQtQtQtQtQtQtQtQtQtQtQtQtQtQtQtQtQtQt",
"QtQtQtQtQtQtQtQtQtQtQtQtQtQtQtQtQtQtQtQtQtQt.m.i.e.g.h.i.i.h.h.h.h.h.h.i.h.g.i.k.l.mQtQtQtQtQtQtQtQtQtQtQtQtQtQtQtQtQtQtQtQtQtQt",
"QtQtQtQtQtQtQtQtQtQtQtQtQtQtQtQtQtQtQtQtQt.e.h.h.e.g.h.h.i.k.k.k.k.k.i.i.h.e.h.i.l.mQtQtQtQtQtQtQtQtQtQtQtQtQtQtQtQtQtQtQtQtQtQt",
"QtQtQtQtQtQtQtQtQtQtQtQtQtQtQtQtQtQtQtQtQt.e.h.j.g.e.e.g.g.h.h.h.h.h.h.g.e.g.h.h.h.g.eQtQtQtQtQtQtQtQtQtQtQtQtQtQtQtQtQtQtQtQtQt",
"QtQtQtQtQtQtQtQtQtQtQtQtQtQtQtQtQtQtQtQtQt.e.g.g.g.e.g.g.g.e.n.n.n.e.e.g.g.e.g.h.h.g.eQtQtQtQtQtQtQtQtQtQtQtQtQtQtQtQtQtQtQtQtQt",
"QtQtQtQtQtQtQtQtQtQtQtQtQtQtQtQtQtQtQtQt.o.e.g.g.n.p.g.g.g.g.g.e.g.g.g.g.g.e.g.h.j.g.eQtQtQtQtQtQtQtQtQtQtQtQtQtQtQtQtQtQtQtQtQt",
"QtQtQtQtQtQtQtQtQtQtQtQtQtQtQtQtQtQtQtQt.o.n.n.j.n.n.n.g.g.g.h.e.h.g.g.g.eQt.g.g.g.j.gQtQtQtQtQtQtQtQtQtQtQtQtQtQtQtQtQtQtQtQtQt",
"QtQtQtQtQtQtQtQtQtQtQtQtQtQtQtQtQtQtQtQt.n.f.f.o.o.n.e.g.g.g.h.g.h.g.g.g.eQt.e.g.g.h.g.eQtQtQtQtQtQtQtQtQtQtQtQtQtQtQtQtQtQtQtQt",
"QtQtQtQtQtQtQtQtQtQtQtQtQtQtQtQtQtQtQtQt.o.n.n.n.n.o.e.g.g.g.h.e.h.g.g.g.eQt.e.g.h.h.g.eQtQtQtQtQtQtQtQtQtQtQtQtQtQtQtQtQtQtQtQt",
"QtQtQtQtQtQtQtQtQtQtQtQtQtQtQtQtQtQtQtQt.e.o.f.o.n.n.e.e.n.g.g.n.g.g.g.e.eQt.e.f.q.r.q.eQtQtQtQtQtQtQtQtQtQtQtQtQtQtQtQtQtQtQtQt",
"QtQtQtQtQtQtQtQtQtQtQtQtQtQtQtQtQtQtQtQtQt.p.j.p.j.e.o.o.e.e.e.e.e.e.e.o.n.e.f.h.i.i.h.fQtQtQtQtQtQtQtQtQtQtQtQtQtQtQtQtQtQtQtQt",
"QtQtQtQtQtQtQtQtQtQtQtQtQtQtQtQtQtQtQtQtQt.p.s.g.j.e.n.o.f.q.q.f.o.o.o.n.n.e.h.q.r.q.f.eQtQtQtQtQtQtQtQtQtQtQtQtQtQtQtQtQtQtQtQt",
"QtQtQtQtQtQtQtQtQtQtQtQtQtQtQtQtQtQtQtQtQtQt.p.p.p.e.g.g.g.g.e.n.n.n.n.n.g.e.f.e.n.n.e.fQtQtQtQtQtQtQtQtQtQtQtQtQtQtQtQtQtQtQtQt",
"QtQtQtQtQtQtQtQtQtQtQtQtQtQtQtQtQtQtQtQtQtQtQtQt.e.g.g.g.h.h.g.e.j.h.g.g.g.g.n.n.e.j.j.eQtQtQtQtQtQtQtQtQtQtQtQtQtQtQtQtQtQtQtQt",
"QtQtQtQtQtQtQtQtQtQtQtQtQtQtQtQtQtQtQtQtQtQtQtQt.e.g.g.h.h.h.h.e.h.h.h.g.g.n.e.j.e.s.s.jQtQtQtQtQtQtQtQtQtQtQtQtQtQtQtQtQtQtQtQt",
"QtQtQtQtQtQtQtQtQtQtQtQtQtQtQtQtQtQtQtQtQtQtQtQt.e.g.g.h.h.i.i.e.h.h.h.g.g.e.e.s.e.s.t.jQtQtQtQtQtQtQtQtQtQtQtQtQtQtQtQtQtQtQtQt",
"QtQtQtQtQtQtQtQtQtQtQtQtQtQtQtQtQtQtQtQtQtQtQt.e.g.g.h.h.i.i.i.g.i.h.h.h.g.g.e.e.s.t.t.eQtQtQtQtQtQtQtQtQtQtQtQtQtQtQtQtQtQtQtQt",
"QtQtQtQtQtQtQtQtQtQtQtQtQtQtQtQtQtQtQtQtQtQtQt.e.g.g.h.h.i.i.i.g.i.i.h.h.g.g.eQt.e.e.eQtQtQtQtQtQtQtQtQtQtQtQtQtQtQtQtQtQtQtQtQt",
"QtQtQtQtQtQtQtQtQtQtQtQtQtQtQtQtQtQtQtQtQtQtQt.e.g.g.h.i.i.i.i.h.i.i.h.h.g.g.g.eQtQtQtQtQtQtQtQtQtQtQtQtQtQtQtQtQtQtQtQtQtQtQtQt",
"QtQtQtQtQtQtQtQtQtQtQtQtQtQtQtQtQtQtQtQtQtQt.e.g.g.h.h.i.i.k.i.h.i.i.i.h.h.g.g.eQtQtQtQtQtQtQtQtQtQtQtQtQtQtQtQtQtQtQtQtQtQtQtQt",
"QtQtQtQtQtQtQtQtQtQtQtQtQtQtQtQtQtQtQtQtQtQt.e.g.g.h.h.i.i.k.i.h.i.i.i.h.h.g.g.g.eQtQtQtQtQtQtQtQtQtQtQtQtQtQtQtQtQtQtQtQtQtQtQt",
"QtQtQtQtQtQtQtQtQtQtQtQtQtQtQtQtQtQtQtQtQtQt.n.g.g.h.i.i.k.k.i.g.i.i.i.h.h.g.j.g.eQtQtQtQtQtQtQtQtQtQtQtQtQtQtQtQtQtQtQtQtQtQtQt",
"QtQtQtQtQtQtQtQtQtQtQtQtQtQtQtQtQtQtQtQtQt.n.g.j.g.h.i.i.k.k.i.g.i.k.i.h.h.g.h.g.g.eQtQtQtQtQtQtQtQtQtQtQtQtQtQtQtQtQtQtQtQtQtQt",
"QtQtQtQtQtQtQtQtQtQtQtQtQtQtQtQtQtQtQtQtQt.n.g.h.g.h.i.i.k.k.i.g.h.k.i.i.h.g.h.h.g.e.eQtQtQtQtQtQtQtQtQtQtQtQtQtQtQtQtQtQtQtQtQt",
"QtQtQtQtQtQtQtQtQtQtQtQtQtQtQtQtQtQtQtQtQt.n.g.o.h.h.i.k.k.k.h.e.h.k.k.i.h.g.h.h.h.f.eQtQtQtQtQtQtQtQtQtQtQtQtQtQtQtQtQtQtQtQtQt",
"QtQtQtQtQtQtQtQtQtQtQtQtQtQtQtQtQtQtQtQt.n.g.h.h.h.h.i.k.k.k.h.e.g.k.k.i.h.g.h.h.f.o.nQtQtQtQtQtQtQtQtQtQtQtQtQtQtQtQtQtQtQtQtQt",
"QtQtQtQtQtQtQtQtQtQtQtQtQtQtQtQtQtQtQtQt.n.g.h.g.h.h.i.k.k.k.g.p.g.k.k.i.h.g.g.q.o.o.nQtQtQtQtQtQtQtQtQtQtQtQtQtQtQtQtQtQtQtQtQt",
"QtQtQtQtQtQtQtQtQtQtQtQtQtQtQtQtQtQtQtQt.n.o.f.g.g.h.i.k.k.i.g.p.e.i.k.i.h.r.q.f.o.oQtQtQtQtQtQtQtQtQtQtQtQtQtQtQtQtQtQtQtQtQtQt",
"QtQtQtQtQtQtQtQtQtQtQtQtQtQtQtQtQt.u.u.u.n.o.f.f.q.q.r.r.r.q.o.n.e.h.r.r.r.f.f.f.o.n.u.u.uQtQtQtQtQtQtQtQtQtQtQtQtQtQtQtQtQtQtQt",
"QtQtQtQtQtQtQtQtQtQtQtQtQtQtQt.u.u.v.w.x.n.o.f.f.o.f.f.q.q.f.n.p.n.o.q.q.f.f.o.f.n.y.x.w.v.u.uQtQtQtQtQtQtQtQtQtQtQtQtQtQtQtQtQt",
"QtQtQtQtQtQtQtQtQtQtQtQtQtQt.u.v.z.A.B.C.D.n.o.f.o.o.f.q.q.f.n.p.p.n.q.q.f.o.o.n.p.E.C.B.A.z.v.uQtQtQtQtQtQtQtQtQtQtQtQtQtQtQtQt",
"QtQtQtQtQtQtQtQtQtQtQtQtQt.u.F.G.H.I.J.K.L.M.N.n.o.o.f.q.q.f.n.p.p.n.q.q.o.o.n.N.M.L.K.J.I.O.G.F.uQtQtQtQtQtQtQtQtQtQtQtQtQtQtQt",
"QtQtQtQtQtQtQtQtQtQtQtQt.u.v.P.Q.R.S.T.U.V.W.X.Y.Z.n.n.n.n.n.n.p.p.n.n.e.n.Z.Y.X.W.V.U.T.S.R.Q.P.v.uQtQtQtQtQtQtQtQtQtQtQtQtQtQt",
"QtQtQtQtQtQtQtQtQtQtQtQt.u.0.1.2.3.4.W.Z.5.6.6.6.6.6.p.j.s.t.s.j.n.7.7.7.6.6.6.6.6.5.Z.W.4.3.2.1.0.uQtQtQtQtQtQtQtQtQtQtQtQtQtQt",
"QtQtQtQtQtQtQtQtQtQtQtQt.u.0.8.2.3.U.W.Z.5.6.6.6.6.6.j.s.s.s.s.j.p.7.7.7.6.6.6.6.6.5.Z.W.U.3.9.8.0.uQtQtQtQtQtQtQtQtQtQtQtQtQtQt",
"QtQtQtQtQtQtQtQtQtQtQtQt.u#..P.Q.R.S.T.U.V.W.X.Y.Z##.j.j.p.p.p.p.p#a.5####.Z.Y.X.W.V.U.T.S.R.Q.P#..uQtQtQtQtQtQtQtQtQtQtQtQtQtQt",
"QtQtQtQtQtQtQtQtQtQtQtQtQt.u.F#b.O#c.R#d.L.M.N#e#f#g.e.p.p.p.p.p.e#h#i#j#g#f#e.N.M.L#d.R#c.O#b.F.uQtQtQtQtQtQtQtQtQtQtQtQtQtQtQt",
"QtQtQtQtQtQtQtQtQtQtQtQtQtQt.u#..x.A.B.C.E#k#l#m#n#o#p.e.e.p.e.e.3#q.S#p#o#n#m#l#k.E.C.B.A.x#..uQtQtQtQtQtQtQtQtQtQtQtQtQtQtQtQt",
"QtQtQtQtQtQtQtQtQtQtQtQtQtQtQt.u.u.v.w.x.y#r#s#t#u#v#w#x#y#z.D.D#z#y#x#w#v#u#t#s#r.P.x.w.v.u.uQtQtQtQtQtQtQtQtQtQtQtQtQtQtQtQtQt",
"QtQtQtQtQtQtQtQtQtQtQtQtQtQtQtQtQt.u.u.u#A.v.F.w#B.x#C#D#D#D#E#E#D#D#D#C.x#B.w.F.v#A.u.u.uQtQtQtQtQtQtQtQtQtQtQtQtQtQtQtQtQtQtQt",
"QtQtQtQtQtQtQtQtQtQtQtQtQtQtQtQtQtQtQtQtQt.u.u.u.u.u.u.u.u.u.u.u.u.u.u.u.u.u.u.u.uQtQtQtQtQtQtQtQtQtQtQtQtQtQtQtQtQtQtQtQtQtQtQt",
"QtQtQtQtQtQtQtQtQtQtQtQtQtQtQtQtQtQtQtQtQtQtQtQtQtQtQtQtQtQtQtQtQtQtQtQtQtQtQtQtQtQtQtQtQtQtQtQtQtQtQtQtQtQtQtQtQtQtQtQtQtQtQtQt",
"QtQtQtQtQtQtQtQtQtQtQtQtQtQtQtQtQtQtQtQtQtQtQtQtQtQtQtQtQtQtQtQtQtQtQtQtQtQtQtQtQtQtQtQtQtQtQtQtQtQtQtQtQtQtQtQtQtQtQtQtQtQtQtQt"};
