/* XPM */
static char *dummy[]={
"64 64 100 2",
"Qt c None",
".u c #000000",
".v c #000000",
".w c #000000",
"#f c #000000",
".J c #000000",
".8 c #000000",
".x c #000000",
"#E c #000000",
".B c #000000",
".y c #000000",
"#F c #000000",
"#G c #000000",
"#H c #000000",
".z c #000000",
".U c #000000",
".K c #000000",
"#g c #000000",
".C c #000000",
".A c #000000",
".9 c #000000",
"#d c #000000",
"#w c #000000",
".D c #000000",
"#x c #000000",
".L c #000000",
".T c #000000",
"#y c #000000",
".E c #000000",
"#z c #000000",
".V c #000000",
"#A c #000000",
"#B c #000000",
"#C c #000000",
"#D c #000000",
".F c #000000",
".I c #000000",
".M c #000000",
"#h c #000000",
".G c #000000",
"#p c #000000",
"#. c #000000",
"#e c #000000",
".H c #000000",
".N c #000000",
".W c #000000",
"#q c #000000",
"#r c #000000",
".O c #000000",
"#i c #000000",
"#s c #000000",
"#t c #000000",
".X c #000000",
".P c #000000",
"#u c #000000",
"## c #000000",
"#v c #000000",
".Q c #000000",
".Y c #000000",
".R c #000000",
".S c #000000",
"#j c #000000",
"#a c #000000",
".Z c #000000",
"#k c #000000",
"#l c #000000",
"#m c #000000",
".0 c #000000",
"#n c #000000",
"#o c #000000",
".1 c #000000",
".2 c #000000",
".3 c #000000",
".4 c #000000",
".5 c #000000",
".6 c #000000",
".7 c #000000",
"#b c #000000",
"#c c #000000",
".e c #000003",
".r c #00070c",
".n c #07050d",
".g c #141d32",
".i c #1e232c",
".o c #2b2c38",
".h c #303a55",
".s c #3f4449",
".j c #4b5e7f",
".f c #4f5463",
".b c #52300c",
".m c #684700",
".t c #6c7273",
".k c #708ea7",
".p c #757c87",
".# c #946230",
".l c #9e7b10",
".q c #b1b5be",
".a c #d1a049",
".c c #f0e883",
".d c #fffffa",
"QtQtQtQtQtQtQtQtQtQtQtQtQtQtQtQtQtQtQtQtQtQtQtQtQtQtQtQtQtQtQtQtQtQtQtQtQtQtQtQtQtQtQtQtQtQtQtQtQtQtQtQtQtQtQtQtQtQtQtQtQtQtQtQt",
"QtQtQtQtQtQtQtQtQtQtQtQtQtQtQtQtQtQtQtQtQtQtQtQtQtQtQtQtQtQtQtQtQtQtQtQtQtQtQtQtQtQtQtQtQtQtQtQtQtQtQtQtQtQtQtQtQtQtQtQtQtQtQtQt",
"QtQtQtQtQtQtQtQtQtQtQtQtQtQtQtQtQtQtQtQtQtQtQtQtQtQtQtQtQtQtQtQt.#.a.#QtQtQtQtQtQtQtQtQtQtQtQtQtQtQtQtQtQtQtQtQtQtQtQtQtQtQtQtQt",
"QtQtQtQtQtQtQtQtQtQtQtQtQtQtQtQtQtQtQtQtQtQtQtQtQtQtQtQt.#.#.b.b.#.a.#QtQtQtQtQtQtQtQtQtQtQtQtQtQtQtQtQtQtQtQtQtQtQtQtQtQtQtQtQt",
"QtQtQtQtQtQtQtQtQtQtQtQtQtQtQtQtQtQtQtQtQtQtQtQtQtQt.#.#.#.#.b.b.a.#.b.#QtQtQtQtQtQtQtQtQtQtQtQtQtQtQtQtQtQtQtQtQtQtQtQtQtQtQtQt",
"QtQtQtQtQtQtQtQtQtQtQtQtQtQtQtQtQtQtQtQtQtQtQtQtQt.#.#.#.a.a.c.#.a.b.b.#.#QtQtQtQtQtQtQtQtQtQtQtQtQtQtQtQtQtQtQtQtQtQtQtQtQtQtQt",
"QtQtQtQtQtQtQtQtQtQtQtQtQtQtQtQtQtQtQtQtQtQtQtQt.a.#.a.c.c.a.#.b.#.a.a.c.#.bQtQtQtQtQtQtQtQtQtQtQtQtQtQtQtQtQtQtQtQtQtQtQtQtQtQt",
"QtQtQtQtQtQtQtQtQtQtQtQtQtQtQtQtQtQtQtQtQtQtQtQt.a.a.c.c.a.c.c.c.a.c.a.c.c.b.bQtQtQtQtQtQtQtQtQtQtQtQtQtQtQtQtQtQtQtQtQtQtQtQtQt",
"QtQtQtQtQtQtQtQtQtQtQtQtQtQtQtQtQtQtQtQtQtQtQtQt.b.#.a.a.d.c.d.d.c.a.d.#.c.#.b.bQtQtQtQtQtQtQtQtQtQtQtQtQtQtQtQtQtQtQtQtQtQtQtQt",
"QtQtQtQtQtQtQtQtQtQtQtQtQtQtQtQtQtQtQtQtQtQtQtQt.b.a.c.d.c.a.d.c.a.a.c.d.#.a.#.bQtQtQtQtQtQtQtQtQtQtQtQtQtQtQtQtQtQtQtQtQtQtQtQt",
"QtQtQtQtQtQtQtQtQtQtQtQtQtQtQtQtQtQtQtQtQtQtQt.#.#.a.#.c.a.a.c.a.a.#.a.c.a.b.bQtQtQtQtQtQtQtQtQtQtQtQtQtQtQtQtQtQtQtQtQtQtQtQtQt",
"QtQtQtQtQtQtQtQtQtQtQtQtQtQtQtQtQtQtQtQtQtQtQt.#.a.b.#.a.a.#.a.a.a.a.#.a.#.a.bQtQtQtQtQtQtQtQtQtQtQtQtQtQtQtQtQtQtQtQtQtQtQtQtQt",
"QtQtQtQtQtQtQtQtQtQtQtQtQtQtQtQtQtQtQtQtQtQtQtQt.b.b.a.a.#.#.a.a.#.a.b.a.b.#.#QtQtQtQtQtQtQtQtQtQtQtQtQtQtQtQtQtQtQtQtQtQtQtQtQt",
"QtQtQtQtQtQtQtQtQtQtQtQtQtQtQtQtQtQtQtQtQtQtQtQtQt.b.a.#.b.#.a.b.#.#.b.#.b.bQtQtQtQtQtQtQtQtQtQtQtQtQtQtQtQtQtQtQtQtQtQtQtQtQtQt",
"QtQtQtQtQtQtQtQtQtQtQtQtQtQtQtQtQtQtQtQtQtQtQtQtQt.b.#.b.b.#.#.b.b.#.b.b.b.bQtQtQtQtQtQtQtQtQtQtQtQtQtQtQtQtQtQtQtQtQtQtQtQtQtQt",
"QtQtQtQtQtQtQtQtQtQtQtQtQtQtQtQtQtQtQtQtQtQtQtQtQt.e.b.b.b.#.b.b.b.b.b.b.e.eQtQtQtQtQtQtQtQtQtQtQtQtQtQtQtQtQtQtQtQtQtQtQtQtQtQt",
"QtQtQtQtQtQtQtQtQtQtQtQtQtQtQtQtQtQtQtQtQtQtQtQt.e.f.g.e.b.b.b.b.b.b.e.g.f.fQtQtQtQtQtQtQtQtQtQtQtQtQtQtQtQtQtQtQtQtQtQtQtQtQtQt",
"QtQtQtQtQtQtQtQtQtQtQtQtQtQtQtQtQtQtQtQtQtQt.g.h.e.i.f.h.g.g.h.h.h.h.g.e.g.e.h.gQtQtQtQtQtQtQtQtQtQtQtQtQtQtQtQtQtQtQtQtQtQtQtQt",
"QtQtQtQtQtQtQtQtQtQtQtQtQtQtQtQtQtQtQtQtQtQt.g.h.g.g.g.e.e.e.e.e.e.g.g.g.g.e.h.gQtQtQtQtQtQtQtQtQtQtQtQtQtQtQtQtQtQtQtQtQtQtQtQt",
"QtQtQtQtQtQtQtQtQtQtQtQtQtQtQtQtQtQtQtQtQt.g.j.k.g.g.g.g.g.g.g.g.g.g.g.g.i.g.j.h.gQtQtQtQtQtQtQtQtQtQtQtQtQtQtQtQtQtQtQtQtQtQtQt",
"QtQtQtQtQtQtQtQtQtQtQtQtQtQtQtQtQtQtQtQtQt.g.k.k.h.h.h.g.g.g.g.g.g.g.g.g.h.g.e.l.gQtQtQtQtQtQtQtQtQtQtQtQtQtQtQtQtQtQtQtQtQtQtQt",
"QtQtQtQtQtQtQtQtQtQtQtQtQtQtQtQtQtQtQtQtQt.m.l.j.h.g.j.j.h.h.h.h.h.h.j.j.h.g.e.l.mQtQtQtQtQtQtQtQtQtQtQtQtQtQtQtQtQtQtQtQtQtQtQt",
"QtQtQtQtQtQtQtQtQtQtQtQtQtQtQtQtQtQtQtQtQt.m.l.h.g.e.h.j.j.k.k.k.k.k.j.h.h.g.e.h.m.eQtQtQtQtQtQtQtQtQtQtQtQtQtQtQtQtQtQtQtQtQtQt",
"QtQtQtQtQtQtQtQtQtQtQtQtQtQtQtQtQtQtQtQt.e.g.h.h.g.e.e.g.h.h.h.h.h.h.g.g.e.e.h.h.g.eQtQtQtQtQtQtQtQtQtQtQtQtQtQtQtQtQtQtQtQtQtQt",
"QtQtQtQtQtQtQtQtQtQtQtQtQtQtQtQtQtQtQtQt.e.g.h.g.g.e.g.g.e.e.n.n.n.e.g.g.g.e.g.h.g.eQtQtQtQtQtQtQtQtQtQtQtQtQtQtQtQtQtQtQtQtQtQt",
"QtQtQtQtQtQtQtQtQtQtQtQtQtQtQtQtQtQtQtQt.e.g.g.g.gQt.g.g.g.g.g.e.g.g.g.g.g.e.g.g.g.g.eQtQtQtQtQtQtQtQtQtQtQtQtQtQtQtQtQtQtQtQtQt",
"QtQtQtQtQtQtQtQtQtQtQtQtQtQtQtQtQtQtQtQt.g.g.g.g.eQt.e.g.g.g.h.e.h.g.g.g.e.e.i.g.g.g.eQtQtQtQtQtQtQtQtQtQtQtQtQtQtQtQtQtQtQtQtQt",
"QtQtQtQtQtQtQtQtQtQtQtQtQtQtQtQtQtQtQt.e.g.g.g.g.eQt.e.g.g.g.h.g.h.g.g.g.eQt.e.g.g.g.e.eQtQtQtQtQtQtQtQtQtQtQtQtQtQtQtQtQtQtQtQt",
"QtQtQtQtQtQtQtQtQtQtQtQtQtQtQtQtQtQtQt.e.g.g.g.g.eQt.e.g.g.g.h.e.h.g.g.g.n.n.e.g.g.g.g.eQtQtQtQtQtQtQtQtQtQtQtQtQtQtQtQtQtQtQtQt",
"QtQtQtQtQtQtQtQtQtQtQtQtQtQtQtQtQtQtQt.e.g.g.g.e.eQt.e.e.g.g.g.n.g.g.n.e.e.e.o.e.g.g.g.fQtQtQtQtQtQtQtQtQtQtQtQtQtQtQtQtQtQtQtQt",
"QtQtQtQtQtQtQtQtQtQtQtQtQtQtQtQtQtQtQt.f.p.q.p.f.oQt.n.o.e.e.e.e.e.e.e.o.o.e.n.o.f.p.f.oQtQtQtQtQtQtQtQtQtQtQtQtQtQtQtQtQtQtQtQt",
"QtQtQtQtQtQtQtQtQtQtQtQtQtQtQtQtQtQtQt.e.g.h.h.g.eQt.n.n.o.o.f.f.p.p.f.o.n.e.o.g.g.g.e.nQtQtQtQtQtQtQtQtQtQtQtQtQtQtQtQtQtQtQtQt",
"QtQtQtQtQtQtQtQtQtQtQtQtQtQtQtQtQtQtQt.o.f.p.p.f.oQt.g.n.n.n.n.n.e.g.g.g.g.e.n.n.n.n.eQtQtQtQtQtQtQtQtQtQtQtQtQtQtQtQtQtQtQtQtQt",
"QtQtQtQtQtQtQtQtQtQtQtQtQtQtQtQtQtQtQt.e.i.g.e.n.n.r.g.g.g.h.i.e.g.h.h.g.g.g.e.i.i.s.iQtQtQtQtQtQtQtQtQtQtQtQtQtQtQtQtQtQtQtQtQt",
"QtQtQtQtQtQtQtQtQtQtQtQtQtQtQtQtQtQtQt.e.s.i.e.i.n.n.g.g.h.h.h.e.h.h.h.h.g.g.e.s.t.t.nQtQtQtQtQtQtQtQtQtQtQtQtQtQtQtQtQtQtQtQtQt",
"QtQtQtQtQtQtQtQtQtQtQtQtQtQtQtQtQtQtQt.e.t.t.s.e.e.e.g.g.h.h.j.e.j.j.h.h.h.g.g.n.n.nQtQtQtQtQtQtQtQtQtQtQtQtQtQtQtQtQtQtQtQtQtQt",
"QtQtQtQtQtQtQtQtQtQtQtQtQtQtQtQtQtQtQtQt.e.e.e.eQt.e.g.h.h.j.j.e.j.j.j.h.h.g.g.eQtQtQtQtQtQtQtQtQtQtQtQtQtQtQtQtQtQtQtQtQtQtQtQt",
"QtQtQtQtQtQtQtQtQtQtQtQtQtQtQtQtQtQtQtQtQtQtQtQt.e.g.g.h.h.j.j.g.j.j.j.h.h.h.g.g.eQtQtQtQtQtQtQtQtQtQtQtQtQtQtQtQtQtQtQtQtQtQtQt",
"QtQtQtQtQtQtQtQtQtQtQtQtQtQtQtQtQtQtQtQtQtQtQtQt.e.g.g.h.j.j.j.g.j.j.j.j.h.h.g.g.eQtQtQtQtQtQtQtQtQtQtQtQtQtQtQtQtQtQtQtQtQtQtQt",
"QtQtQtQtQtQtQtQtQtQtQtQtQtQtQtQtQtQtQtQtQtQtQtQt.e.g.g.h.j.j.j.g.j.j.j.j.j.h.h.g.g.nQtQtQtQtQtQtQtQtQtQtQtQtQtQtQtQtQtQtQtQtQtQt",
"QtQtQtQtQtQtQtQtQtQtQtQtQtQtQtQtQtQtQtQtQtQtQt.e.g.g.h.h.j.j.j.g.j.k.j.j.j.h.h.g.g.nQtQtQtQtQtQtQtQtQtQtQtQtQtQtQtQtQtQtQtQtQtQt",
"QtQtQtQtQtQtQtQtQtQtQtQtQtQtQtQtQtQtQtQtQtQtQt.e.g.g.h.h.j.k.j.g.j.k.k.j.j.j.h.g.g.eQtQtQtQtQtQtQtQtQtQtQtQtQtQtQtQtQtQtQtQtQtQt",
"QtQtQtQtQtQtQtQtQtQtQtQtQtQtQtQtQtQtQtQtQtQt.e.g.h.g.h.j.j.k.j.e.j.k.k.j.j.j.h.g.h.g.nQtQtQtQtQtQtQtQtQtQtQtQtQtQtQtQtQtQtQtQtQt",
"QtQtQtQtQtQtQtQtQtQtQtQtQtQtQtQtQtQtQtQtQtQt.e.g.h.g.h.j.k.k.h.g.j.k.k.k.j.j.j.h.h.g.nQtQtQtQtQtQtQtQtQtQtQtQtQtQtQtQtQtQtQtQtQt",
"QtQtQtQtQtQtQtQtQtQtQtQtQtQtQtQtQtQtQtQtQt.e.g.h.h.g.h.j.k.k.h.e.h.k.k.k.j.j.j.h.h.h.nQtQtQtQtQtQtQtQtQtQtQtQtQtQtQtQtQtQtQtQtQt",
"QtQtQtQtQtQtQtQtQtQtQtQtQtQtQtQtQtQtQtQtQt.e.g.h.h.h.h.j.k.k.g.e.h.k.k.k.k.j.j.h.h.h.g.nQtQtQtQtQtQtQtQtQtQtQtQtQtQtQtQtQtQtQtQt",
"QtQtQtQtQtQtQtQtQtQtQtQtQtQtQtQtQtQtQtQtQt.e.f.g.h.h.g.j.k.k.g.e.h.k.k.k.k.j.h.g.h.h.g.nQtQtQtQtQtQtQtQtQtQtQtQtQtQtQtQtQtQtQtQt",
"QtQtQtQtQtQtQtQtQtQtQtQtQtQtQtQtQtQtQtQtQt.n.o.f.f.g.g.h.j.k.e.e.g.j.k.k.k.j.h.g.g.f.o.nQtQtQtQtQtQtQtQtQtQtQtQtQtQtQtQtQtQtQtQt",
"QtQtQtQtQtQtQtQtQtQtQtQtQtQtQtQtQtQtQtQtQt.n.o.o.f.p.q.q.q.p.e.r.o.p.q.q.q.q.p.f.f.f.o.nQtQtQtQtQtQtQtQtQtQtQtQtQtQtQtQtQtQtQtQt",
"QtQtQtQtQtQtQtQtQtQtQtQtQtQtQtQtQt.u.u.u.v.w.o.o.o.f.f.f.p.p.r.r.o.f.p.p.p.f.f.o.f.f.o.n.uQtQtQtQtQtQtQtQtQtQtQtQtQtQtQtQtQtQtQt",
"QtQtQtQtQtQtQtQtQtQtQtQtQtQtQt.u.u.w.x.y.z.A.n.o.o.f.o.f.p.p.r.r.n.f.p.p.p.f.o.o.f.o.n.x.w.u.uQtQtQtQtQtQtQtQtQtQtQtQtQtQtQtQtQt",
"QtQtQtQtQtQtQtQtQtQtQtQtQtQt.u.w.B.C.D.E.F.G.H.n.o.o.o.o.p.p.r.r.n.f.f.p.p.f.o.o.n.I.E.D.C.B.w.uQtQtQtQtQtQtQtQtQtQtQtQtQtQtQtQt",
"QtQtQtQtQtQtQtQtQtQtQtQtQt.u.J.K.L.M.N.O.P.Q.R.S.n.n.o.n.n.e.r.n.n.n.n.n.n.n.n.R.Q.P.O.N.M.T.K.J.uQtQtQtQtQtQtQtQtQtQtQtQtQtQtQt",
"QtQtQtQtQtQtQtQtQtQtQtQt.u.w.U.V.W.X.Y.Z.0.1.2.3.4.5.5.6.7.7.r.i.i.s.i.i.r.4.3.2.1.0.Z.Y.X.W.V.U.w.uQtQtQtQtQtQtQtQtQtQtQtQtQtQt",
"QtQtQtQtQtQtQtQtQtQtQtQt.u.8.9#.###a.1.4.6#b#b#b#b#b#c#c#c#c.r.s.s.t.s.s.i#b#b#b#b.6.4.1#a###..9.8.uQtQtQtQtQtQtQtQtQtQtQtQtQtQt",
"QtQtQtQtQtQtQtQtQtQtQtQt.u.8#d#.##.Z.1.4.6#b#b#b#b#b#c#c#c#c.r.i.i.s.i.r.r#b#b#b#b.6.4.1.Z###e#d.8.uQtQtQtQtQtQtQtQtQtQtQtQtQtQt",
"QtQtQtQtQtQtQtQtQtQtQtQt.u#f.U.V.W.X.Y.Z.0.1.2.3.4.5.5.6.7.7.e.n.i.i.n.r.e.4.3.2.1.0.Z.Y.X.W.V.U#f.uQtQtQtQtQtQtQtQtQtQtQtQtQtQt",
"QtQtQtQtQtQtQtQtQtQtQtQtQt.u.J#g.T#h.W#i.P.Q.R.S#j#k#l#m#n#o#o#o#o#n#m#l#k#j.S.R.Q.P#i.W#h.T#g.J.uQtQtQtQtQtQtQtQtQtQtQtQtQtQtQt",
"QtQtQtQtQtQtQtQtQtQtQtQtQtQt.u#f.y.C.D.E.I#p.H#q#r#s#t.X#u###v#v###u.X#t#s#r#q.H#p.I.E.D.C.y#f.uQtQtQtQtQtQtQtQtQtQtQtQtQtQtQtQt",
"QtQtQtQtQtQtQtQtQtQtQtQtQtQtQt.u.u.w.x.y.z.A#w#x#y#z#A#B#C#D.F.F#D#C#B#A#z#y#x#w.A.U.y.x.w.u.uQtQtQtQtQtQtQtQtQtQtQtQtQtQtQtQtQt",
"QtQtQtQtQtQtQtQtQtQtQtQtQtQtQtQtQt.u.u.u.v.w.J.x#E.y#F#G#G#G#H#H#G#G#G#F.y#E.x.J.w.v.u.u.uQtQtQtQtQtQtQtQtQtQtQtQtQtQtQtQtQtQtQt",
"QtQtQtQtQtQtQtQtQtQtQtQtQtQtQtQtQtQtQtQtQt.u.u.u.u.u.u.u.u.u.u.u.u.u.u.u.u.u.u.u.uQtQtQtQtQtQtQtQtQtQtQtQtQtQtQtQtQtQtQtQtQtQtQt",
"QtQtQtQtQtQtQtQtQtQtQtQtQtQtQtQtQtQtQtQtQtQtQtQtQtQtQtQtQtQtQtQtQtQtQtQtQtQtQtQtQtQtQtQtQtQtQtQtQtQtQtQtQtQtQtQtQtQtQtQtQtQtQtQt",
"QtQtQtQtQtQtQtQtQtQtQtQtQtQtQtQtQtQtQtQtQtQtQtQtQtQtQtQtQtQtQtQtQtQtQtQtQtQtQtQtQtQtQtQtQtQtQtQtQtQtQtQtQtQtQtQtQtQtQtQtQtQtQtQt"};
