/* XPM */
static char *dummy[]={
"64 64 305 2",
"#S c #000000",
"#x c #000003",
"#b c #00000f",
"#U c #00070c",
"#k c #07050d",
"#y c #141d32",
"#i c #1baba8",
"#T c #1c0000",
"#N c #1e232c",
"a0 c #221b18",
"a1 c #231c19",
"bo c #241c1a",
"a2 c #241d1a",
"b# c #251d1b",
"#f c #25424b",
"aL c #261e1b",
"aY c #261e1c",
"aX c #261f1d",
"aZ c #271e1c",
"aK c #271e1d",
"bG c #271f1c",
"aJ c #271f1d",
"aW c #27201d",
"#t c #280500",
"ba c #281f1d",
"bH c #28201c",
"aM c #28201d",
"bI c #29201d",
"b. c #29201e",
"bF c #29211e",
"bp c #2a211e",
"bE c #2a221f",
"bJ c #2b221e",
"aN c #2b221f",
"#q c #2b2c38",
"aV c #2c231f",
"at c #2c2321",
"bb c #2d2320",
"aI c #2d2421",
"a9 c #2e2421",
"bK c #2e2521",
"bD c #2f2522",
"bC c #302623",
"aH c #302624",
"#C c #303a55",
"bB c #312623",
"aO c #312723",
"bn c #322724",
"aG c #332925",
"au c #342925",
"bq c #342926",
"av c #352a26",
"bm c #352a27",
"#L c #362700",
"aU c #372b27",
"b4 c #372c27",
"bL c #382c28",
"aF c #382d28",
"a8 c #382d29",
".7 c #383f4a",
".g c #383f4b",
"#Q c #383f4c",
".6 c #38404c",
"aw c #392d29",
".e c #393f4b",
"b5 c #3a2e29",
"bc c #3a2e2a",
"b3 c #3a2f2b",
"Qt c #3a404b",
".h c #3a404c",
"as c #3b2e2a",
"ag c #3c302d",
"af c #3d312d",
"bu c #3d4046",
".d c #3d4047",
"b6 c #3e312d",
"ah c #3e312e",
"b2 c #3f312d",
"ae c #3f312e",
"ax c #3f322d",
"bl c #3f322e",
".f c #3f4148",
"#M c #3f4449",
"ar c #40322e",
"bM c #40332e",
".k c #404248",
"b7 c #41342f",
"cL c #414148",
"aq c #423531",
"cC c #424349",
"b1 c #433430",
".# c #434245",
"cF c #43434a",
"aE c #443630",
"ca c #44434a",
".l c #44444b",
"b0 c #453632",
"cK c #45444b",
"bA c #463732",
"ay c #463733",
"al c #46413d",
".a c #46413e",
"bZ c #473833",
".u c #474242",
"cJ c #474447",
"cE c #474548",
".m c #47464d",
"aT c #483933",
"ap c #483934",
"b8 c #493a34",
"bk c #493b36",
"cq c #493c37",
"bg c #494649",
"a7 c #4a3b35",
"cr c #4a3d37",
"#F c #4a4138",
".b c #4a423a",
".v c #4a433e",
"bY c #4b3b36",
"bd c #4b3c37",
"cp c #4b3e37",
"cG c #4b4440",
".n c #4b4951",
"#D c #4b5e7f",
"ao c #4c3c36",
"a3 c #4c3c37",
"cs c #4c3e37",
"ai c #4c3f3d",
"cO c #4c413a",
".c c #4c423a",
"b9 c #4d3d37",
"bz c #4d3d38",
"ct c #4d3f38",
"cP c #4d423a",
"cQ c #4d423b",
"cR c #4d433b",
"cN c #4d4340",
"cM c #4d4440",
".o c #4d484c",
"cm c #4e4140",
"cS c #4e433b",
"cT c #4e443c",
".w c #4e4541",
"#o c #4f211e",
"bX c #4f3e39",
"cu c #4f4039",
"#V c #4f443c",
"cU c #4f443d",
"cI c #4f4642",
"#w c #4f5463",
"co c #503f3a",
"cv c #50413a",
"ck c #504341",
"bt c #50443c",
"#9 c #50453d",
"aD c #51403a",
"cj c #514442",
"cD c #51453d",
".U c #514743",
".F c #52300c",
"cn c #52413b",
"cw c #52433c",
"cl c #53423c",
"cH c #53463e",
"bQ c #53463f",
"az c #54423c",
"an c #54433c",
"aj c #54433d",
"bN c #54433e",
".H c #54473f",
"ci c #544745",
"bf c #544845",
".p c #544946",
"aP c #55443e",
"cx c #55453e",
".s c #554840",
".t c #554a47",
"c. c #56443e",
"#5 c #564540",
"by c #57443e",
"a6 c #57453e",
"bj c #57453f",
"cy c #57473f",
"ch c #574847",
"bW c #584540",
"#4 c #584541",
"ak c #584640",
".r c #584a43",
".q c #584a44",
"cA c #584a47",
".G c #584d4d",
"ad c #594640",
"ac c #594741",
"#3 c #5a4641",
"aS c #5a4741",
"aa c #5a4840",
"ab c #5a4842",
"cz c #5a4a42",
".x c #5a4d4b",
"#n c #5b0a00",
"aC c #5b4841",
"bV c #5b4943",
"cg c #5b4a43",
"#W c #5b4b44",
"cb c #5b4c48",
"#X c #5c4b43",
"#8 c #5d4b43",
"ce c #5d4e4c",
"a# c #5e4a43",
"bi c #5e4a44",
"be c #5e4b45",
"#. c #5e4d45",
"cB c #5e4d48",
"cc c #5e4e4c",
"cd c #5e4f4d",
"aR c #5f4b43",
"bh c #5f4c44",
"a4 c #5f4c45",
"bR c #5f4f4d",
"bx c #604b45",
"#1 c #604c44",
"aA c #604c45",
"br c #604c46",
"cf c #604d46",
".8 c #614d45",
"#2 c #614d46",
".y c #61514f",
"am c #624d47",
"bw c #624e48",
"#7 c #634f48",
"#l c #635049",
".9 c #644f48",
"bP c #644f49",
"bs c #645049",
"bv c #645352",
"a. c #655049",
"bO c #65504a",
"#6 c #65514a",
".z c #655451",
"aB c #66504a",
".I c #66514a",
"bU c #67514a",
"#a c #67524b",
"c# c #67534c",
".V c #67544f",
"#B c #684700",
"#H c #68524b",
"#0 c #68524d",
".1 c #68534c",
"#Z c #69534c",
"#G c #69534d",
".0 c #69544d",
"#Y c #6a534c",
"bS c #6a554e",
"bT c #6b544d",
"a5 c #6c554e",
".R c #6c564f",
".5 c #6c5650",
".A c #6c5959",
"#O c #6c7273",
"#R c #6d5650",
"aQ c #6e564f",
"#d c #6e5651",
".2 c #6e5751",
".J c #6f5750",
".4 c #6f5a56",
".T c #705853",
".C c #705c5c",
".B c #705c5d",
"#I c #708ea7",
".D c #715c5b",
".K c #725a55",
"#K c #735a54",
".Q c #745b56",
".E c #745d59",
"#J c #755c57",
"#m c #757c87",
".W c #785e5a",
".Z c #7a5f5b",
".X c #7a605b",
".Y c #7a605c",
"## c #7c615d",
"#z c #7d625e",
".L c #7e625e",
".P c #826663",
".N c #836663",
".O c #836764",
"#s c #841914",
".M c #846763",
"#g c #8b4435",
".i c #946230",
"#P c #99a09e",
"#A c #9e7b10",
"#r c #b1b5be",
"#e c #b5bfce",
"#p c #c26552",
"#v c #c91b26",
".j c #d1a049",
"#E c #dfba18",
".S c #f0e883",
"#h c #f2ffff",
"#u c #f4fffe",
"#c c #fd9370",
"#j c #ffe5ba",
".3 c #fffffa",
"QtQtQtQtQtQtQtQtQtQtQtQtQtQtQtQtQtQtQt.#.a.b.b.b.b.b.b.c.b.b.b.b.b.b.b.a.d.e.f.g.f.e.h.hQtQt.f.gQt.f.e.h.f.gQtQtQtQt.f.d.a.c.c.b",
"QtQtQtQtQtQtQt.gQt.gQt.g.gQt.g.g.g.g.g.d.a.b.b.b.b.b.b.b.b.b.b.b.b.b.b.a.e.e.g.g.g.g.e.gQt.g.g.g.g.g.e.e.g.g.g.g.gQt.g.d.a.c.c.c",
".h.hQtQtQt.g.gQt.gQtQt.g.g.g.g.g.g.g.g.d.a.b.b.b.b.b.b.b.i.j.i.b.b.b.b.a.e.g.g.g.g.g.g.g.g.g.g.g.g.g.e.e.g.g.g.g.g.g.g.d.a.c.c.c",
".d.d.d.k.l.l.m.m.m.n.n.n.o.n.n.o.n.n.n.o.p.q.r.q.q.q.s.r.i.j.i.i.i.i.r.p.t.n.n.n.n.n.n.n.n.n.n.n.n.n.n.n.n.n.n.n.m.m.m.l.u.a.v.a",
".v.a.a.w.x.y.y.z.A.B.B.B.A.B.B.B.B.C.C.D.D.E.E.E.E.E.i.i.F.F.j.i.i.i.j.i.B.C.C.C.A.B.B.B.B.B.B.A.C.C.B.B.B.B.B.A.z.y.y.G.l.d.d.d",
".c.b.b.H.I.J.J.K.L.M.M.N.O.O.O.O.N.M.N.N.M.P.P.P.P.F.i.i.j.i.F.j.i.j.j.i.F.M.N.M.N.N.O.P.M.O.O.N.N.N.N.M.N.M.O.L.Q.J.J.y.m.gQtQt",
".c.c.b.H.I.J.R.K.L.M.N.N.N.N.M.M.O.N.N.N.N.N.P.P.F.F.i.j.S.j.i.j.j.S.j.j.F.F.N.N.N.N.N.N.N.N.N.N.N.P.P.N.N.N.N.L.T.R.R.y.mQtQt.h",
".a.a.a.U.V.K.K.Q.W.X.X.X.X.X.X.X.Y.Z.W.Z.Y.L.Y.i.F.i.S.S.j.S.j.S.S.j.S.j.i.F.Z.L.L.Y.L.Y.L.L.L.Y.Z.Z.Z.Y.L.L.Y.W.Q.Q.K.z.m.g.gQt",
".d.d.d.o.A.L.L.W.J.0.0.0.0.0.0.0.1.1.0.J.2.K.K.i.i.j.S.j.3.j.S.S.j.3.j.i.j.i.i.K.K.K.K.K.K.K.K.4.5.1.1.5.J.K.K.K.Z.P.L.A.m.g.g.f",
"Qt.6.7.n.B.M.N.X.1.8.8.8.8.8.8.8.8.8.8.9.1.J.J.z.F.F.j.3.S.j.3.S.j.S.3.j.i.j.i.i.J.5.5.5.5.5.5.1.9.8.8.9.1.5.J.K.Z.P.N.D.n.g.e.e",
"QtQt.7.n.B.M.N.X.0.8.8.8.8.8.8.8.8.8#..9.5.J.5.j.i.j.S.S.j.i.3.3.i.j.S.j.F.i.j.i.5.5.5.5.5.5.J.z.9.8#..9.5.5.0.K##.N.M.D.n.e.e.e",
"Qt.7Qt.n.D.M.N.X.0.8.8.8.9.8.8.9.9.I.9.I#a.5.5.j.j.S.i.j.i.F.j.3.F.i.j.S.F.F.F.5.5.5.J.5.5.5.J.5.I.9.9.I.5.5.J.4.L.M.N.D.n.e.e.h",
"Qt.7.7.n.B.N.N.X.0.8.8.9.8.8.8.I#a.1.5#a.I.I.9.F.F.F.j.j#b#b.i.S#c#b#b.j.F.j.F.5.5.J.5.5#d.5.5.5.0.1.5.5.5.5.5.K.L.N.O.B.n.g.gQt",
"QtQt.7.n.B.M.N.X.0.8.8.8.8.9.8.I.5.J.J.5.9.8.8.9.8.F.j.i#e#f.i.j#b#f#e.i#c.i.F.5.5.5.J.5.5#d#d.5.J.J.5.5.J.5.5.K.Y.N.O.B.n.g.gQt",
"Qt.7.7.n.B.N.N.Y.0.8.8.8.8.8.8.I.5.J.J.0.I.8.8.8.8.i.j#g#h#i#j.i#j#i#h.F#c.F.i.5.5.5.5.5.5#d.5#d.5.5.J.5.5.5.J.K.L.N.O.B.n.e.g.f",
"QtQt.7.n.B.N.N.Y.0.8.8.8.9.I.9.I.1.1.5.1.9.8.8.9#k.i.F#g#c#j#j#j#j#j#g#g.F#k#k.J.J.5.J.5#d.5#d.5.5.J.5.5.5.J.5.K.Y.N.O.A.n.e.e.e",
"Qt.gQt.o.A.O.O.Y.0.8.8.9#a.0.5#a.I#l.9.9.9.8.9#k#k#m#n#o#p#j#j#j#j#j#p#o#q#m#k#d.5#d.5#d#d.5.5#d.J.5.2.5.5.5.5.K.Y.P.O.B.n.g.gQt",
"QtQtQt.n.B.O.N.Y.0.8.8.I.0.J.J.0.I.8.9.8.8.8#k#k#r#s#s#t#o#p#c#c#c#p#o#s#s#q#r#k#d.5#d.5.5.5#d.5.5.5.5#d.5.5.5.K.L.P.P.B.n.gQtQt",
"Qt.g.g.n.B.N.N.Y.0.8.8.I.5.J.J.5.9.8.8.8.8.9#k#u#m#v#v#t#q#o#g#g#g#o#q#v#v#q#u#k.5#d#d.5#d.5.5#d.5#d.5.2.J.5.5.K.Y.P.P.B.o.g.gQt",
"Qt.g.g.m.B.N.N.Y.0.9.9.I.1.0.5#a.9.8.9.8.8.8#k#w#u#m#v#s#q#m#x#k#x#m#q#v#q#u#w#k#y.5.5#d.5#d#d.5.5.5#d.5.5.5.5.K#z.P.P.B.n.gQtQt",
"QtQtQt.n.B.N.N.L.2.0.0.0.I.I.9.I.8.9.8.9.9#y#y#k#w#u#v#s#m#q#x#x#q#w#m#v#u#m#k#y#y.5#d.5#d.5#d#d.2.5#d.5#d.5.J.K.L.N.M.B.n.g.gQt",
"QtQtQt.n.B.N.N.Y.K.J.2.5.9.8.8.8.8.8.8.8.8#y#A#y#k#m#u#v#q#r#x#w#r#r#t#s#r#k#y#y#A#B.5#d.5#d.5.5.5#d.5#d#d.5.0.K.L.N.M.B.n.e.g.h",
"QtQt.7.m.B.N.N.L.K.J.J.0.9.8.8.8.9.8.9.8.8#B#A#y#y#k#r#v#s#x#w#r#q#t#s#r#m#y#y#C#A#B#d.5#d.5.5#d.5#d.5.5.5#d.5.K.X.N.M.B.n.g.g.h",
"Qt.7Qt.n.B.N.N.Y.T.0.0.1.I.9#l.I.9.8.8.8.9#B#C#C#y#k#m#r#s#t#r#y#q#t#s#u#x#y#C#C#y#B#d.5.5#d.5.5.2.5#d.5.5.5.5.D.L.N.M.B.o.d.d.d",
"QtQt.7.m.B.M.M.Y.R.9.9.I.0.0.R.0.I.8.8.I#y#C#C#C#y#k#k#u#s#t#q#w#q#t#s#r#k#y#C#C#C#y.5.5#d.5.5#d#d.5.5.5.5.5.5.K.Y.N.N.D.p.a.a.v",
"Qt.6Qt.n.B.O.N.X.0.8.8.9.0.2.J.0.9.8.8.I#y#D#C#C#y#x#k#r#s#y#A#w#E#y#r#w#k#x#C#C#C#y#y#d.5#d#d.5.5.5#d.J.J.5.5.K.Y.N.N.E.r.c#F.b",
"Qt.6.6.n.A.O.O.Y#G.8.8.9.R.2.2.0.I.8.8#y#y#D#D#C#x.8#k#k#r#y#q#w#w#y#u#k#k.5#y#C#C#C#y.5#d.5.5#d#d.5.5.5.5.5.5.K.L.N.N.K.r#F.b.b",
".d.d.d.o.B.N.O.Y.0.9.9.I.0.0.0#H.9.8.8#y#C#I#D#y#x.9#k#k#u#y#B#w#A#y#u#k#k.5#x#C#C#D#y#d.5#d#d.5.5#d.5.J.5.5.5.K.L.N.N.D.r.b.b.b",
".a.a.a.p.D.M.O.Y.T.0.0.0.I.I.I.9.8.8.8#y#D#I#D#y#a.0#k#k#u#y#q#w#w#y#r#k#k.J#x#y#D#D#C#y#d.5#d.5#d.5.5#d.5.5.5.K.L.P.P.E.r.b.b.b",
".b.b#F.r#J.N.O.Y#K.2.2.0.I.8.8.9.8.9#r#C#I#I#C#x.5#x#k#k#r#x#E#A#B#y#m#k#k#k.5#y#D#I#D#y#w#d.5#d.5#d#d.5.5.5.5.K.Y.P.P.E.r.b.b.b",
".b.b.b.r#J.N.N.L.K.2.R.0#l.8.8.8.8.8#r#y#I#D#C#x.1#x#w#k#m#x#A#B#L#y#m#k#w#k#d#q#I#I#D#C#w#d#d.5.5#d.5#d.5.5.J.K.L.P.P.E.s.b.b.b",
".c.b.b.r#J.N.N.Y.K.R.J.0.I.8.8.8.9.8#C#r#u#r#r#m.5#x#x#w#m#B#q#y#y#y#m#w#k#x.5#w#m#r#r#m#y.5.5.5#d.5#d.5.J.5.5.K.Y.P.P.E.q#F.b.b",
".b.b.b.r.D.N.N.L.K.5.J.0.9.9.8.9.8.9#m#C#D#D#C#y#x#y#x#k#m#y#A#A#B#y#m#k#x#y#x#q#y#D#D#C#w.5.5#d.5#d.5#d.5.5.5.K.Y.P.P.E.q.b.b.b",
".c.b#F.r.Q.N.N.Y.K.5.J.1.9.8.8.8.8.8#x#r#u#r#m#m#x#y#y#k#m#y#y#y#y#y#m#x#y#y#x#w#m#r#m#w#x#d#d.5#d.5.5.5.J.5.5.K.Y.P.N.E.q.b.b.b",
".c#F.b.r.E.N.N.L.K.J.J.5.I.8.8.8.9.8#x#M#N#M#M#x#x#C#y#x#m#B#y#y#y#k#r#x#y#y#x#x#N#x#x#M#N.5#d.5#d.5#d.5.5.5.5.K#z.P.P.E.r.b.b.c",
".a.a.a.p.D.N.N.Z.4.1.0.1.9.8.9.8.8.8#N#O#x#x#O#x#y#C#y#x#m#k#A#B#B#k#r#x#y#C#y#x#O#x#M#O#x#d.5#d.5#d.5#d.5.J.5.K#z.P.P.B.p.a.a.a",
".d.d.e.t.B.M.M.L.0.9.I.9.9.8.8.8.9.8#x#P#O#x#O#x#y#C#k#m#w#y#k#k#y#y#r#x#y#C#N#x#x#x#N#x.5.5.5.5#d.5#d.5.5.5.J.K.L.N.M.B.o.d.d.d",
"Qt.g#Q.n.B.O.N.W.1.8.8.8.8.9.8.9.8.8.8#x#x#x#x#y#C#C#k#r#k#w#m#m#m#w#w#r#k#C#C#x#d.5.5#d.5.J.5.5#d.5.5#d#R#R.0.K.Y.N.N.B.nQtQtQt",
"Qt.g#Q.n.B.O.P.Y.1.8.8.9.8.8.8.9.8.8.8.9#a.J#x#y#C#N#k#r#k#k#k#k#k#k#y#u#k#C#C#N#x#d.5.J.5.J.5.4.5#d.5.5#R.J.5.K.L.N.O.B.n.7QtQt",
".d.d.e.o.B.O.P.Y.1.8.8.8.9.8.8.8.9.I.9#a.5#x#y#C#D#y#k#m#y#y#k#x#k#y#y#u#k#y#C#C#x#x.5.5.5.5.5#d#d.5#d.5.5.z.0.4.Y.N.P.A.n.7QtQt",
".v.a.a.p.D.N.N.W.1.9.8.8.8.9.9.9.1.0.5.z#x#x#y#C#D#k#m#y#C#y#k#x#k#y#C#r#k#y#C#D#y#x#x.5.5.5.J.5.J.5.J.R.I.I.I.0.Y.N.M.B.nQtQtQt",
".b.b#F.r#J.M.M.W.1.8.8.9.8.8.8.9.5.J.5.5#x#y#C#D#D#k#r#y#C#y#k#S#S#x#C#C#u#k#C#D#C#y#x#y.5.J.5.5.5.J.J.0.I.8.8.0.X.N.O.B.nQtQtQt",
".c.b#F.r.E.P.M.X.1.9.8.8.8.9#..9.1.J.5#x#y#y#C#D#D#k#u#y#C#y#k#x#T#k#y#C#u#k#y#C#D#C#C#y#y.5.5.5.5.J.J.0.I.8.8.0.X.N.N.B.m.g.6Qt",
".b.b.b.r.E.N.N.X.1.8.8.9.9.9.9#a.5.J#q#x#y#C#D#D#C#k#u#y#y#k#x#n#t#x#U#U#r#k#y#C#D#D#C#C#y#k.5.5.0.0.0.I.8.r.q#a.X.N.N.A.n.g.gQt",
".b.b.b.q.E.P.P.Z.1.9.8.9.1.1.5.1.5.5#q#y#C#C#D#I#C#k#u#x#y#U#x#n#n#U#N#M#N#u#k#y#D#D#D#C#y#k.J.5#a.I.I#..H#V#V#..E.M.M.B.oQtQtQt",
".b.b.b.q.E.N.P.Z.1.8.8.9.5.5.J.5.5.5#w#y#C#D#D#I#y#k#r#N#U#U#x#n#n#N#M#M#M#u#k#y#C#I#D#D#q#k.J.0#l.8.8#W#V.b.b.s.E.N.M.B.n.hQtQt",
".b.b.b.q.E.P.P.Z.1.8#..9.1.J.J.5.J.5#q#m#m#D#I#I#k#r#O#O#N#U#x#n#n#N#M#O#O#r#k#k#C#I#I#m#w#k.J.5.I.8.8#.#V.b.b.q.E.N.N.B.m.7.6Qt",
".a.a.a.t.E.P.P.Y.5.9.9#a.5.J.J.J.z.5#q#w#m#m#m#r#k#r#O#M#N#k#t#t#t#k#U#M#O#N#u#k#y#D#r#m#w.z.0#a.I.8.8#X#V.b.b.q.E.N.M.B.n.7QtQt",
".d.d.e.t.B.M.N.Y.T.1.1.5.5.5.5.5.I.9#k#q#q#q#w#r#u#r#M#N#U#U.0.5.5#k#N#U#M#N#r#r#r#r#m#m#k.I.I.I.8.9.8#.#V.b.b.p.E.M.M.D.n.g.gQt",
"Qt.g#Q.n.B.M.N.L.K.J.5.J.5.J.J.1.I.8.8#k#q#q#q#r#u#m#N#U#U#U#Y#Z#0#U#N#N#N#U#m#u#w#w#q#q.9.8.8.8.8.8.8#X#V.b.b.s.E.M.M.B.n.gQtQt",
"Qt.g#Q.n.B.P.P.Y.K.J.J.5.J.J.J.5.9.8#1#2#k#k#q#r#u#U#U#N#k#3#4#4#5#k#N#M#O#M#U#u#w#q#q#6#7#1.8.8.8.8.8#8#9.b.b.p.E.M.M.B.n.g.gQt",
".d.d.e.o.B.P.P.L.K.R.0.J.0.0.z#aa.a#aaabacad#k#w#r#M#M#N#Uaeafagagah#U#U#q#N#U#q#kaiajakadaaa##1.I.I.I.8.s#V#V#..E.M.N.D.o.d.d.d",
".v.aal.p.E.N.P.L.K.5.J.0#a.I.9ama#anaoapaqaras#k#k#N#U#U#Uatatatatat#U#N#M#M#N#UauavawaxayaoazaAaB.0.5#a#..q#X.I.X.N.N.D.p.a.a.a",
".b.b#F.r.E.N.P.L.K.5.J.5.9.8#1aCaDaEaFaGaHaI#U#U#O#M#N#kaJaJaJaKaKaJ#k#N#N#N#U#U#kaLaMaNaOaFaEaP#7aQ.J.0.I.8.8.0.X.N.N.E.r.b.c.c",
".c.c#F.r.E.P.P#z.K.5.J.0.9.8aRaSaTaUaVaWaX#U#U#N#N#M#N#UaYaYaYaYaZaZ#U#N#U#M#M#M#Ua0a1a2aLaVaUa3a4a5.J.5.I.8.8.0.X.N.N.E.r#F#F.c",
".a.a.a.p.K.L.L.E.2.1.0.1.9.9aRa6a7a8a9b.aJ#U#O#O#M#q#N#kaYaYaYaYb#b##x#U#N#N#N#N#Ua0a1b#babbbcbdbe.0.0#a.8#X#X.I#J.L.L.4bf.a.a.v",
".#.d.ebg.z.K.K.J.1.I.9.9.9.9bhbibjbkblbmbn#N#M#M#M#N#kaJaJbabaaYa2boa2b##x#x#U#x#xaLbpbbbqblbkbjbrbs.I#..H#Vbt.r.0#J#J.Vbgbu.d.d",
".e.g.g.mbv.J.J.5.9.9.8.9.8.8.9ambwbxbybzbA#k#N#N#N#kbBbCbDa9bbbEbFbGbHbIbpbJaVbKbnaGbLbMbdbNbxbObP.8.8#8bt.b#FbQ.I.J.R.y.m.6QtQt",
".e.e.e.mbR.J.J.1.9.9.8.8.8.9.8.9bSbTbUambVbWazbXbYbZb0b1blb2b2b3bLaUb4bcb5b6bMb7bZb8b9c.brbUbTc#.9.9.8#.bt.b.bbQ.I.2.2.y.m.6QtQt",
".e.f.dca.x#a.9.9.x.p.qcb#X.8#W#W.xbvcccdcecfcgchcicjcjckclcmcncocpcqcrcrcsctcucvcwcxcycz#2ccbv.x.x.qcAbf#V.a.a.UcB.I.V.xcC.6QtQt",
".v.a.a.vcD.H.H.UcEcFcacG#VcDcD.wbg.m.lbg.UbQcHcIcJcKcacLcM.ccDcNcO.c.c.ccPcQcRcScT#VcU.wbg.m.m.l.lcaca.k.k.d.d.#.w.H.s.w.fQtQtQt",
".b.c.c.c.b.b.bal.e.e.e.e.a.b.c.a.dQt#Qbu.a.b.b.a.d#Q.g.d.a.b.b.b.c.c.v.b.c.b.b.c.b.b.c.a.d.g.g.g.gQtQtQt.h.h.h.d.a.b.b.a.dQtQtQt",
".c.c.c.c.b.c.b.v.#.e.e.f.a.c.c.a.dQtQt.d.a#F.b.a.d.hQt.d.a.c.b.b.b.c.b.b.b.b.c.b.b.b.b.a.d.g.gQtQtQtQtQtQt.h.h.d.a.c.b.a.d.h.hQt",
".b.b.c.b.b.c.b.v.e.e.g.e.v.c.c.a.dQtQt.d.a.c.b.a.d.hQt.d.a.c.c.c.c.b.c.b.c.c.b.c.c.b.b.v.dQtQtQtQtQtQtQtQtQt.h.d.a.c.c.a.dQtQtQt"};
