/* XPM */
static char *exit[] = {
/* columns rows colors chars-per-pixel */
"64 64 88 1 ",
"  c #25373E",
". c #26393F",
"X c #2F3D3F",
"o c #3D3F3D",
"O c #46413E",
"+ c #4B4239",
"@ c #52463E",
"# c #273A41",
"$ c #293C42",
"% c #2F3F48",
"& c #333F42",
"* c #393F4B",
"= c #2F4048",
"- c #364043",
"; c #3D4146",
": c #33444A",
"> c #3B414B",
", c #36494F",
"< c #39484E",
"1 c #3C4554",
"2 c #3A4D54",
"3 c #3F4859",
"4 c #3E5355",
"5 c #3E5258",
"6 c #444445",
"7 c #4C4542",
"8 c #45454B",
"9 c #4A4649",
"0 c #4D494D",
"q c #504743",
"w c #544A45",
"e c #5A4B44",
"r c #504B4A",
"t c #5B4E4A",
"y c #5D504D",
"u c #444751",
"i c #464A55",
"p c #4B4951",
"a c #404758",
"s c #414959",
"d c #445157",
"f c #465459",
"g c #46585E",
"h c #4D585E",
"j c #51505B",
"k c #505B5F",
"l c #634E46",
"z c #624F49",
"x c #64514B",
"c c #6B544E",
"v c #645452",
"b c #6E5750",
"n c #6F5A56",
"m c #62565A",
"M c #6C5B5A",
"N c #705751",
"B c #735A55",
"V c #725C5B",
"C c #795F5B",
"Z c #7C615D",
"A c #4A5D61",
"S c #515D61",
"D c #535E69",
"F c #735F61",
"G c #4A6063",
"H c #546266",
"J c #53666B",
"K c #59676C",
"L c #59686D",
"P c #5C6772",
"I c #596E74",
"U c #5E7074",
"Y c #5E757D",
"T c #62767A",
"R c #846663",
"E c #6A847F",
"W c #647B82",
"Q c #6B8285",
"! c #6F878C",
"~ c #7B8D8F",
"^ c #728A92",
"/ c #7E9994",
"( c #829F95",
") c #82999B",
"_ c #90A5A2",
"` c #97A9A9",
"' c #A4B9B7",
"] c #B7CCC6",
/* pixels */
">**>*u*******>*>***8O++++++++++++++O***>****>>*>>*>>*******;O+++",
"*>***********>*>***>O++++++++++++++O;*****>>>*>>*>>********;O+++",
"**>***********>*****O++++++++++++++O*************>*********;O+++",
";;*88888ppppu*8>u**89O77qeeewewewewwrpp0u*1*8**11>*upppp9p887O+O",
"+OO7tzyvMFVmiaa111u*1uujmCBBVCBCBCVBBVFmi1u33u11a1aimFFnvyvt8;;;",
"+++ezbbBRRRFjaaa3333a33jFRRRRRRRRRRRRRRFj3333133aasjFRRCBbby8***",
"+++@zbbBCRRFj3aa3333aaajFRRRRRRRRRRRRRRFj3ss3*33aaajFRRRBbbx8***",
"OOOwbBBBCCCMi11sDPPDs**imMVMMMMMMMMMMMVms11sDPPDs1*iVRCCBnBvp**8",
"6**0MZZCNcct*&$h^``~A$$%<;<<6<6<8><8<8<>:=$g~``~h$$*xBBBFRFnp***",
"***pVRRZxllw&. A_]]`A###X#X###########X....h_]]_A##*tbbBRRRVp***",
"***pMRRCcllw&##A_]]_A #####$=###$#$###$#=..G_]]_A #*tNbnCRRVp***",
"***pVRRCcllq&# g)''/A#####$#####$$$$$$$$...g)'')g##*tbbBCRRnp***",
"***pMRRCcllw&$#sQ//Q4##X$$$$=.#=$$$$$$#$##.4Q)/Q2##&tNNBFRRVp***",
"***0VRRZcllw&$.4Y^^W,..#####..####$#X.###..,Y^^Y2#$;yNbBRRRVp***",
"***pMRRCxllw-#.2Y^!Y,#.#####=..####$#.###..4Y^^Y2##;xNNBFRRVp**8",
"***pMRRZcllw-##2Y^^QG444444f444444444444444GW^^Y2##&0ttxCRRVp***",
">**pVRRCcllw-##2Y^^!EEEEEEEEEEEEEEEEEEEEEEEQ!^^Y2#$%:>-0VRRVi>>>",
"***pVRRCcllw-##2Y^^^/((((((((((((((((/((((//^^^Y2#####.;MRRM0:*>",
">**pVRRCcllw-##2Y^!^/(((((((((((((((((((((//^^^Y2$$$##.<MRRFp**>",
">**pVRRCyww7-##4Y^^!QEEEEEEEEEEEEEEEEEEEEEEQ!^^Y2.#$##X6MRRV0***",
"***pMRRMr&&&= #4Y^^EG4444444444444444444444GQ^^Y2#$$$..<MRRMp***",
"***pFRRM;##$ =#,Y^^Y2# #....#...##.#...###.,T^^W2$.$$$X<MRRVp***",
"***pVRRM<.####.2W^^Y,  #...X.#...##..#.#...,Y^^Y2.$$$##6MRRV0**>",
"***iVRRM<###=#=,IQQY4,,,,,,,,,,,,,,,,,,,,,,gUQQI2.$$$$#<MRRVr;**",
">**pVRRM*##$=..:ALLJJJJJJJJJJJJJJJJJJJJJJJJJKKKG,##$##.8MRRCrOOO",
"***pFRRM8#$$##==fAkHUTTTTTTTTTYTTTTTTTTTTTTUHkhf:#$#=.=;MRRBe+++",
"***pVRRM>##$$X.:fhSHUTTTTTTTTTTYTTTTTTTTYTTUHkSf:###.##<MRRVe+++",
";;;rVRRM8##$$$$:fSSSJJJJJJJJJJJJJJJJJJJJJJJHSSSf:##=##X;MRRCw+++",
"OOOwVRRM<.#$$$#:fSSh2,,,,,,,,,,,,,,,,,,,,,,4gSSf,##X=##<MRRCe+++",
"+++eBRRM<$X$$#.:fSSf:...X.#.##X#X##.#####..:fSSf:######<MRRBe+++",
"+++eCRRM6.$$$$#:fSSf:...##########.#####...-fSkf,$#$=##8MRRBw+++",
"+++eVRRM<.$$$$$:dhhf<:::=::::::::::::::::::<fkh4:#$$###>MRRBw+++",
"+++eZRRM<$#$$##=3sgdfffffffffffffffffffffffdids3=#=####6MRZZw+++",
"+++eMRRM;#$$$$#=133shSSSSSSkHkkHkkSSSSSSSSHhss31=###=##<MRZZe+++",
"+++@ZZRM<XX#$$#=133ihSSSSSHkkkHhSSSSSSSSSSShs3s1=.=.##X<MRRBe+++",
"OOowZRRM<#$$$$#=1as5ffffffffffffffffffffffffiss1=.=####6MRRZwOOO",
";;;0VRRM6###$$#=<sa3:=:::::::::=::::::::::::1331=.=####<MRRV0;;;",
"<>>0VRRM<X##$$$=1aa1=.##X#=..$X#$###$$#$$#.=1s31==##$##6MRRVi:;>",
"***pMZRM<$#$#$#=1sa1=...#...###.#$##$###$$#=1ss1=..#$#$<MRRMp*>>",
"*8&0ZRRM6#$$###=:11:==#=====%%%%:$:$==:X$#$=:11:=.=.$##<MRRM0**>",
"OO+qVRRM6=..##$=%%$&$$$%:1111111,<1<111:%$$$====$$$$$$.<MRRF8*>*",
"+++eVRRM<..=#=$$$$$$$$#%1sss33ssssssss31%#$$=...$$$$$$.6MRRMp**>",
"+++eCRRM<.#.#$$$$$$$$$$%3ssss3sa33ss3ss1%$$$$$#$$$$$$##<MRRVp***",
"+++eVRRM9---##$$$$$$$$#%:1<,111<1111111:%#$$$$$$$$$$XXX8MRRFp***",
"+++eBRRVyww7-#$$$$$$$#$$$:$=====%%======$$$$$$$$$$$Xo+oqVRRFp***",
"+++eCRRCcllw-####$$$$$$$$$$$#$#$X.$$###$$$$$X$$#$$#Xo++eVRRMp***",
"+++wVRRCcllq-###$$$$$$$$#$$$#$$##$$#$#$$$$$$#$$#$##-++OeBRRVp**8",
"OOOwVRRCccly6:;-$$$$$$$$$$$$$$$$##$$$$$$$$$###$=----O++eBRRVp***",
"*6*rVRRCBczvztyr-#==.#$$$$$$$$$$$$$$#$X$$$$$$$$&7wwq+++eVRRVi>*>",
"&**pVRRFBbbbbNBy>...=#$$$$$$$$$$X$$$$$$$$$$$$$$&wlle+++eBRRM0>**",
"***pVRRCBbbbbbNt:$####$$$$$$$$$$##$$$$$$$$$$###&elll@++eZRRV0**>",
";;*0VRRCBbcbbbbz6---##$$$$$$$$$$$#$$$$$$$##&&&*;exll@@@eVRRMr;**",
"+OOwVRRCBcbczzlzeww9:$$$$$$$$$$$$=##$$$$$$$&9wwlccccte@cCRRVwOOO",
"+++eBRRRBbbczlllllle&####$$$$$#$##=#$$$$$#$&wlllcbbclllcCRRCe+++",
"+++eVRRCBbbclllllllw&$##$$$=$$$=####$.$$$$$&wlllcbbclllcCRRBe+++",
"OOOenFRCbxcclltlllxt6;;*--------:---;&&*&&&6zxxlcccxleexVZZBwOOO",
"8;;9cVBNczzlzllzcccvzyyyyyyyyyyyweewwewwwwwtlbccxlll@@+ecBBv9;;8",
"***8ycNcllllllzlcbbbbbNNbbbcbbbcllllllllllllcbbcxlle@++@xbbv8***",
"***8yNNcllllllllcbNNbNbNNbnnbbNbxlllllllllllcnbbxlll@++qxNNx8***",
";;*8zxxltteeeetlzvyzvzzzxxxxxxxxleeeeeleeellxxyyeeew+OO@txxt8***",
"OOO7q@e@8886+@@q9989w@@w8889qq@@@@@@@@@@@@@q988p88888;;6q@@78***",
"+++++++O;**6O++O***;O++O;>:;O++++++++++++++O;*******>**>O++O**;*",
"+++++++O;**>O++O6**;O++O***8O++++++++++++++O;***>***>**;O+++8**>",
"+++++++O;**;O++O>**;O+++;***O++++++++++++++O;*>>*******;O+@O*>**"
};
