/* XPM */
static char *wall[] = {
/* columns rows colors chars-per-pixel */
"64 64 103 2 ",
"   c #26393F",
".  c #303D3F",
"X  c #3D3F3D",
"o  c #423F3A",
"O  c #43413C",
"+  c #4B423A",
"@  c #52443A",
"#  c #5B463A",
"$  c #684637",
"%  c #62473A",
"&  c #684738",
"*  c #65483A",
"=  c #694939",
"-  c #704D3D",
";  c #273A40",
":  c #293C42",
">  c #313D40",
",  c #2F4048",
"<  c #324449",
"1  c #3A4649",
"2  c #394A4F",
"3  c #3E4656",
"4  c #374B52",
"5  c #3A4E54",
"6  c #3F4758",
"7  c #3E5258",
"8  c #464745",
"9  c #4A4542",
"0  c #4C4843",
"q  c #4C4F4D",
"w  c #524A43",
"e  c #5D4C43",
"r  c #514F4B",
"t  c #4F504D",
"y  c #55534F",
"u  c #414654",
"i  c #464A52",
"p  c #404758",
"a  c #414958",
"s  c #445157",
"d  c #4E5557",
"f  c #465459",
"g  c #4C575E",
"h  c #45595D",
"j  c #4E5A5F",
"k  c #555757",
"l  c #505B5F",
"z  c #634E43",
"x  c #6A574D",
"c  c #6B584F",
"v  c #765341",
"b  c #7E5643",
"n  c #705B51",
"m  c #7C6356",
"M  c #4B5765",
"N  c #4C5B64",
"B  c #4F5B68",
"V  c #505D61",
"C  c #545F6B",
"Z  c #57646D",
"A  c #58676C",
"S  c #59686D",
"D  c #5C6771",
"F  c #566A73",
"G  c #5B6D74",
"H  c #5F757D",
"J  c #706761",
"K  c #637174",
"L  c #60777E",
"P  c #6B7779",
"I  c #6E797B",
"U  c #757D7E",
"Y  c #805744",
"T  c #875A46",
"R  c #885B46",
"E  c #8A5E49",
"W  c #8D614B",
"Q  c #90644D",
"!  c #816659",
"~  c #956A51",
"^  c #9A6E53",
"/  c #A07458",
"(  c #657983",
")  c #687E85",
"_  c #6A8087",
"`  c #70838B",
"'  c #7A8789",
"]  c #74888D",
"[  c #7A8C8D",
"{  c #7D908F",
"}  c #6F8992",
"|  c #718A93",
" . c #7F8F93",
".. c #819293",
"X. c #81999D",
"o. c #899C9E",
"O. c #92A6A4",
"+. c #96A8A7",
"@. c #96A8A8",
"#. c #9AADAA",
"$. c #A1B7B5",
"%. c #A2B8B6",
"&. c #B5CAC4",
/* pixels */
"p p p p 3 3 3 3 6 a a a a a a 6 p p p p p p p p p p p p p p p p p p a a 6 a a 6 a a a a a 6 p p p p p p a a 6 a a a a p > : : : ",
"p p p p 3 3 3 3 3 3 3 6 3 6 a 3 3 p p p p p 6 p p p 6 p 6 u 6 6 6 p 6 6 6 6 6 6 6 6 3 3 6 6 3 u p p p p 3 6 6 3 3 3 a > : : : : ",
"a p p p 3 3 3 3 3 3 6 3 3 3 3 3 3 p 3 p 3 3 3 p 6 6 6 6 3 3 6 a 6 6 6 6 3 3 3 3 6 6 6 6 3 3 3 3 6 6 6 6 6 6 6 6 3 3 3 4 > : : : ",
"p p p f C D D Z B M M M M M M M M M M M M M M M M M M M M M N M M M M M M M N N M M M M N M M M M M M M M M M M Z S D M 3 : : : ",
"a 6 3 C  .+.+.o.` ( ( ( ( ( ( ( ( ( ( ( ( ( ( ( ( ( ( ( ( ( ( ( ( ( ( ( ( ( ( ( ( ( ( ( ( ( ( ( ( ( ( ( ( ( ( ` o.@.@.{ M     ; ",
"6 6 3 D +.&.&.%.X.} } | | | | | | | | | | | | | | | | | | | | | | | | | | | | | | | | | | | | | | | | | | | } X.%.&.&.O.N   ; ; ",
"p 6 3 D +.&.&.$.X.} ] | | | | | | | | | | | | | | | | | | | | | | | | | | | | | | | | | | | } | | | | | | } } X.%.&.&.O.N ; ; ; ",
"p 6 3 Z o.$.$.O.' I I I ) I I I I I I I I I I I I I I I I I I I U I I I I I I I I I I I I I I I I I I I I I I ' O.%.%.X.7 ; ; : ",
"p 3 p B ) X.X.' J x c c c c c c c c c c c c c c c c c c c c c c x x x x c c c c c c c c c c c c c c c c c x x J [  . .} 7   ,   ",
"p p p M ( } | I x $ $ = $ $ $ = $ $ = & & & & $ & & & & & & = $ & & & & & & & & & & & & & & & & * = $ $ = $ $ x I | } H 5 ; ; ; ",
"p p p M ( | | I x $ $ = & & = = * $ * * & & * $ $ = = = * $ $ $ & & & & * & & * * & & & % & & & $ = $ = = $ $ x I } | H 5 ; ,   ",
"p p p M ( | | I x $ $ = = v = v v v v v v v v v = v = v = v - v v v v v v v v v - - - - v = v v - - - - = = = c I | | ( 5 ;   ; ",
"p p 3 M ( | | I c & = = b Y Y T Q ~ ~ ~ ~ ~ ~ Q T b Y Y Y Y Y T W ~ ~ ~ ~ ~ ~ W W b b b Y T b b - - W - - = $ c ) | | H 5 ; ; , ",
"p p 3 M ( | | I c & = = Y T E E ^ / / / / / / ^ E E T T E T R E ^ / / / / / / ^ W T T T T T T T W W W W - = $ c I | | H 5 ;     ",
"p p p M ( | | I c & & v Y T T W ^ / / / / / / ^ E E T E T T T W ^ / / / / / / ^ W T T T T T T T T R T - - = * c I | | H 5 ; ; , ",
"p p 3 M ( | | I c & * v Y T E E ~ ^ ^ ^ ^ ^ ^ ~ Q W E E W W E Q ~ ^ ^ ^ ^ ^ ^ ~ W W W W W W W W W T W T - = * c I | | H 5   ;   ",
"p p 3 M ( | | I c & * = Y T T E E W W W W E W W ~ ^ ^ ^ ^ ^ ^ ~ Q E W W W W W Q ~ ^ ^ ^ ^ ^ ^ ~ W T T - - & & c I | | L 7   : , ",
"p 3 3 M ( | | I c & $ v Y E T T T T T T T T T W ^ / / / / / / ^ W T T T T R T W ^ / / / / / / ^ W T W T - & = c I | | L 5       ",
"p p 3 M ( | | I c = = = Y T E T T T T T T T T W ^ / / / / / / ^ W T T T T b T W ^ / / / / / / ^ W R T b - & $ c I | | H 5 : : : ",
"p p p M ( | | I c $ $ v Y T T E E W W W W W W W ^ ^ ^ ^ ^ ^ ^ ~ Q E W W W W W Q ~ ^ ^ ^ ^ ^ ^ ~ W R R b - = $ c I | | H 7   : : ",
"p p 3 M ( | | U c & & = Y R T W ~ ^ ^ ^ ^ ^ ^ ~ Q E W E W E W Q ~ ^ ^ ^ ^ ^ ^ ~ Q W W W W W W R R R R - - = = c I | | H 5   : : ",
"p p 3 M ( | | P c = & v Y T T W ^ / / / / / / ^ E T T T R R R E ^ / / / / / / ^ W R R R R R R R R R W b - = $ c I | | H 5   : : ",
"p p 3 M ( | | I c & = = Y T T W ^ / / / / / / ^ W R R R R R R W ^ / / / / / / ^ W T R R R R R R R R R b - = = c I | | H 5 : : : ",
"p p 3 M ( | | I c & = v b E T W ~ ^ ^ ^ ^ ^ ^ ~ Q W E W E E W Q ~ ^ ^ ^ ^ ^ ^ ~ W W W R W W W R W R R b - = = c I | | H 5   : : ",
"p 6 6 M ( | | I c $ = - Y R R R W W W W E Q E Q ^ ^ ^ ^ ^ ^ ^ ~ Q W W W W W W W ~ ^ ^ ^ ^ ^ ^ ~ W R W Y - * & c I | | L 7 : : : ",
"p p 6 M ( | | I c $ & - Y T R T T T T T T T T E ^ / / / / / / ^ W T T T T T T W ^ / / / / / / ^ W R R Y - & & c I | | L 7     : ",
"a 6 6 M ( | | I c $ & = Y R R R T T T T T T R W ^ / / / / / / ^ W T T T T T T W ^ / / / / / / ^ W R W - - & & c I | | L 5 : : : ",
"a 6 6 M ( | | I c $ = v Y R R R T T T T T T T E ~ ^ ^ ^ ^ ^ ^ ~ E T T T T T T W ~ ^ ^ ^ ^ ^ ^ ~ W R W Y - * & c I | | L 5   : : ",
"6 6 3 M ( | | I c = $ - Y R R R T T T T T T T E E E E W W W R E R T T T T T T E R W W W W R W W R R R b - & $ x I | | L 5   : : ",
"a 6 u M ( | | I x & $ - Y R R R T T T T T T R T T T R R R R T T T R R R T T T T R R R R R R R R R R W - - $ $ x I | | H 5 : : : ",
"a 6 3 M ( } } P x & & - Y R R R E T T T T T T T T R R R R R R R R R R R R R T R R Y R R R R R R R R W b - $ % c I | | L 7     : ",
"6 6 3 N ` X.X.' J x x c m ! ! ! ! ! ! ! ! ! ! ! ! ! ! ! ! ! ! ! ! ! ! ! ! ! ! ! ! ! ! ! ! ! ! ! ! ! ! m n x x J {  . ._ 7   : : ",
"6 3 6 Z o.$.$.O.' P P P U U U U U U U U U U U U U U U U U U U U U U U U U U U U U U U U U U U U U U U U I I P { O.%.%. .h   ; : ",
"6 3 3 D O.&.&.$. .| | | | | | | | } | | | | } } | | | | | | } | } ] } | | } | | | | | | | | } | | | | | } } |  .%.&.&.O.N , ; : ",
"6 6 6 D @.&.&.$.X.} } } | } ] | | } } } | } ] } ] } | | } | } | } ] | | | } | | | | | | } } | } } } } | } } |  .%.&.&.O.h   ; : ",
"4 4 < A { #.#.o.| _ ) ) ) ) ) ) ( _ _ _ ( _ _ _ _ _ L _ _ ( _ _ ) ( _ ( _ _ ( _ ) ) ) ) ) ) ) ) ) ) ) ) _ _ _ ] o.#.#.{ h   : : ",
"> : > 6 A P P K S S A A A A A A A A A A A A A A A A A A A A A A A A A A A A A A A A A A A A A A A A A A A A A S K K K A 4 ; : : ",
": : : < s l j j l l l l l l l l l l l l l l l l j j l j l l l l l l l l j j l j l l l l l l l l l l l l l l l l l l l s < : : : ",
": : : , f l l l l l l l l l l V V V l V V V V V l l l l V V j j l V V V V V V V l l l l l l l l l l l l l l l l l l l h < ; : : ",
": : : < f l l j d f f h f h h 7 f f f f f f f f f f f h f f f h f f f f f f f f f f f f h f f h f f f f f f h d l l l h < : : : ",
": : : < h V V g 2 < < < < < < < < < < < < < < < < < < < < < < < < < < < < < < < < < < < < < < < < < < < < < < 2 h l l h > : : : ",
": : : < f V V f < ; ; ; ; ; : :   .     ; ; , ; :   : : :   ; ; .   ,   : : : ; ; : ; ; ; : : : : ; : :       < f l l f 1   : : ",
": : : < f l l s < ; : : : : : :   ,   , : :     : : :   : ,   : : :   : : : : :   , : ; : : : : ; ; : : : :   < f l l h 1 : : : ",
": : : < N S S N 2 : : : . . . > > > . . > > > : > > > , . . . . . . . . > . . , : > > > > > > > > > > . . . . 1 l S S l < : : : ",
": : : 4 G _ _ G 4 ; : > X O O O O O O O O O O O 8 O O O O O O O O O O O O O O O O O O O O O O O O O O O o o o q H _ _ G 4 ; : : ",
": :   5 L | | L 5 ; ; : O @ + + + + + + + + + + + + + + + + + + + + + + + + + + + + + + + + + + + + + + + + + y P | | L 5 : : : ",
": : : 5 ( | | ( 5 ; , > O + + + + + + + + + + + + + + + + + + + + + + + + + + + + + + + + + + + + + + + + + + y L | | L 5 ; ; : ",
": : : 4 F ) ) G 4 ; ; > O + + + @ @ @ @ @ @ @ @ + + + @ @ @ @ @ @ @ @ @ + + + @ @ @ @ @ @ @ @ @ + + + + + + + r K _ _ F 4 ; : : ",
": :   < a M C a < : : > 9 + + + # % % % % % % # @ + + @ # & % % % * % # + + + @ # % % % % % % # @ + + + + + + 0 g N M a < : : : ",
": : : , 4 3 3 3 : : : > o + + @ & = = = = = = % @ + + @ % = = = = = = % @ + + @ % = - = = = = % @ + + + + + + 8 u 6 3 4 > : : : ",
": : : , 3 3 u 4 , : : > O + + @ % = = = = = - % @ + + @ & = = = = z = % @ + + @ % = = = = - = % @ + + + + + @ O u 6 6 4 : : : : ",
": : : , 6 f a 5 , : : : O + + @ # % % % = = * % # @ @ @ # % % % = = * % # @ + # # % % * * * = & @ @ @ @ + + + 8 i i s 6 < : : : ",
": :   < s g j s < ; : > O + + + + @ @ # & = = = # % % # # @ + # * = = * & % % # # @ @ # & = = * * % * # @ + + 0 d M g f < : : : ",
": : , < f l l f < ; ; . O + + + + + + @ % = = = = = = % + + + @ & = = = = = = & @ + + + % = = = = = = * @ + + 0 d V V f < : : : ",
": : : < f l l f < ; : . O + + + + + + @ % = = = = = = % @ + + @ * = = = = = $ % + + + @ % $ = = = = = * @ + + + d l V f < : : : ",
": :   < N S S V 5 , < 1 8 0 0 w 0 0 0 w e z z z x z z e w 0 0 w e z z z z z z e w 0 0 r z z z z z z z e w 0 + d V A S M 4 : : : ",
": : ; 5 G ` ) L N f f f d d d d k d d k k k k k k k k k k d d k k k d k k k k k k d d k d k k k k k k k d d t A K ` ) G 5 ; : : ",
": ; ; 5 H | | ) A l l l l Z l l V V N V l N N V Z V V V N V V V j Z V V Z j V V V V V V V V l N Z V V V V j j A ) | | L 5 : : : ",
": : ; 5 L | | ) A l l l V V l l V V V l l j N l j j N l l V l V j V V V V V V V l V V V V N V V j j N l V V j A _ | | ( 5 ; : : ",
": ; ; 5 F ) ( H Z g g g g g g g g j g N j j j g g g g g g j M M g g j g g g g g g g M M j g j g g g g g g j g C H ( ) F 4 ; : : ",
": : : < a B M M M a a f s a a f a a M a a a f a i f a f f a a f f a a f s a f a f a a f M a a f i s a f f a a M M M M a < : : : ",
": : : : 3 3 6 6 a p p p a a p p 6 6 3 p a 6 a 6 6 6 3 3 p p a a p p p a 6 a p p p p a a 3 6 a p 6 a p 3 p p a a p p p 4 : : : : ",
": : : < 4 u p p a u p p p p p p 6 a a a a a p a a p p p p p p p p p p p p p p p p p p p 3 3 p p a p p p p p p p p p p 3 < : : : ",
": : : : 3 p p p p p a p a p p p 6 a a a a a p a p p p a p a a p p p a p a a p p p p p p p p p a p p p p p p p p p p p 3 : : : : "
};
