/* XPM */
static char *dummy[]={
"64 64 123 2",
"Qt c None",
".N c #000000",
".O c #000000",
".P c #000000",
"#M c #000000",
".Q c #000000",
"#D c #000000",
".R c #000000",
".V c #000000",
".3 c #000000",
".W c #000000",
"#3 c #000000",
"#4 c #000000",
".S c #000000",
".X c #000000",
"#q c #000000",
"#e c #000000",
"#O c #000000",
".4 c #000000",
".Y c #000000",
"#E c #000000",
"#K c #000000",
".Z c #000000",
".5 c #000000",
".0 c #000000",
"#f c #000000",
"#p c #000000",
".2 c #000000",
".6 c #000000",
"#Y c #000000",
"#r c #000000",
"#Z c #000000",
"#0 c #000000",
"#1 c #000000",
"#2 c #000000",
".1 c #000000",
"#d c #000000",
"#g c #000000",
"#P c #000000",
".7 c #000000",
"#c c #000000",
"#F c #000000",
"#L c #000000",
".8 c #000000",
"#h c #000000",
"#s c #000000",
".9 c #000000",
"#b c #000000",
"#i c #000000",
"#Q c #000000",
"#V c #000000",
"#W c #000000",
"#t c #000000",
"#j c #000000",
"#X c #000000",
"#G c #000000",
"#. c #000000",
"#k c #000000",
"#u c #000000",
"#l c #000000",
"#m c #000000",
"#o c #000000",
"#H c #000000",
"#v c #000000",
"#R c #000000",
"#S c #000000",
"#T c #000000",
"#w c #000000",
"#U c #000000",
"#n c #000000",
"#x c #000000",
"#y c #000000",
"#z c #000000",
"#A c #000000",
"#N c #000000",
"#I c #000000",
"#B c #000000",
"#C c #000000",
"#J c #000000",
".l c #001111",
".k c #002b2b",
".z c #005477",
".m c #005e7f",
".o c #007faa",
".C c #00e200",
".h c #080808",
".r c #0f0e11",
".w c #190000",
".p c #1e424f",
".I c #212828",
"#a c #260c0c",
".U c #26252c",
".T c #35353a",
".q c #3d5358",
".e c #444448",
".v c #470000",
".G c #51545b",
".J c #535353",
"## c #562f1d",
".A c #637a82",
".# c #6d3300",
".n c #72472d",
".B c #750000",
".i c #797a7c",
".M c #838384",
".u c #84393a",
".K c #870000",
".D c #946c45",
".a c #996314",
".g c #9e99a6",
".L c #adb2af",
".F c #af001c",
".E c #c09d7b",
".s c #c46555",
".y c #c91c23",
".f c #ccd3d6",
".b c #d19e30",
".j c #e5f4ff",
".H c #ef0c23",
".t c #f78c6b",
".d c #f9edd6",
".c c #fcd670",
".x c #ffd8ce",
"QtQtQtQtQtQtQtQtQtQtQtQtQtQtQtQtQtQtQtQtQtQtQtQtQtQtQtQtQtQtQtQtQtQtQtQtQtQtQtQtQtQtQtQtQtQtQtQtQtQtQtQtQtQtQtQtQtQtQtQtQtQtQtQt",
"QtQtQtQtQtQtQtQtQtQtQtQtQtQtQtQtQtQtQtQtQtQtQtQtQtQtQtQtQtQtQtQtQtQtQtQtQtQtQtQtQtQtQtQtQtQtQtQtQtQtQtQtQtQtQtQtQtQtQtQtQtQtQtQt",
"QtQtQtQtQtQtQtQtQtQtQtQtQtQtQtQtQtQtQtQtQtQtQtQtQtQtQtQtQtQtQtQtQtQtQtQtQtQtQtQtQtQtQtQtQtQtQtQtQtQtQtQtQtQtQtQtQtQtQtQtQtQtQtQt",
"QtQtQtQtQtQtQtQtQtQtQtQtQtQtQtQtQtQtQtQtQtQtQtQtQtQtQtQtQtQtQtQtQtQtQtQtQtQtQtQtQtQtQtQtQtQtQtQtQtQtQtQtQtQtQtQtQtQtQtQtQtQtQtQt",
"QtQtQtQtQtQtQtQtQtQtQtQtQtQtQtQtQtQtQtQtQtQtQtQtQtQtQtQtQtQtQtQtQtQtQtQtQtQtQtQtQtQtQtQtQtQtQtQtQtQtQtQtQtQtQtQtQtQtQtQtQtQtQtQt",
"QtQtQtQtQtQtQtQtQtQtQtQtQtQtQtQtQtQtQtQtQtQtQtQtQtQtQtQtQtQtQtQtQtQtQtQtQtQtQtQtQtQtQtQtQtQtQtQtQtQtQtQtQtQtQtQtQtQtQtQtQtQtQtQt",
"QtQtQtQtQtQtQtQtQtQtQtQtQtQtQtQtQtQtQtQtQtQtQtQtQtQtQtQtQtQtQtQtQtQtQtQtQtQtQtQtQtQtQtQtQtQtQtQtQtQtQtQtQtQtQtQtQtQtQtQtQtQtQtQt",
"QtQtQtQtQtQtQtQtQtQtQtQtQtQtQtQtQtQtQtQtQtQtQtQtQtQtQtQtQtQtQtQtQtQtQtQtQtQtQtQtQtQtQtQtQtQtQtQtQtQtQtQtQtQtQtQtQtQtQtQtQtQtQtQt",
"QtQtQtQtQtQtQtQtQtQtQtQtQtQtQtQtQtQtQtQtQtQtQtQtQtQtQtQtQt.#.#.a.a.a.aQt.a.b.b.aQtQtQtQtQtQtQtQtQtQtQtQtQtQtQtQtQtQtQtQtQtQtQtQt",
"QtQtQtQtQtQtQtQtQtQtQtQtQtQtQtQtQtQtQtQtQtQtQtQtQtQtQt.#.a.a.a.a.a.a.a.a.aQtQtQt.aQtQtQtQtQtQtQtQtQtQtQtQtQtQtQtQtQtQtQtQtQtQtQt",
"QtQtQtQtQtQtQtQtQtQtQtQtQtQtQtQtQtQtQtQtQtQtQtQtQtQt.#.a.a.b.b.a.a.b.b.b.b.aQtQtQtQtQtQtQtQtQtQtQtQtQtQtQtQtQtQtQtQtQtQtQtQtQtQt",
"QtQtQtQtQtQtQtQtQtQtQtQtQtQtQtQtQtQtQtQtQtQtQtQtQt.#.a.a.b.b.a.b.b.c.b.c.c.b.aQtQtQtQtQtQtQtQtQtQtQtQtQtQtQtQtQtQtQtQtQtQtQtQtQt",
"QtQtQtQtQtQtQtQtQtQtQtQtQtQtQtQtQtQtQtQtQtQtQtQt.#.a.a.b.b.c.d.c.c.c.d.b.c.c.b.aQtQtQtQtQtQtQtQtQtQtQtQtQtQtQtQtQtQtQtQtQtQtQtQt",
"QtQtQtQtQtQtQtQtQtQtQtQtQtQtQtQtQtQtQtQtQtQtQtQt.#.a.#.b.c.d.c.b.b.c.d.d.d.b.a.a.aQtQtQtQtQtQtQtQtQtQtQtQtQtQtQtQtQtQtQtQtQtQtQt",
"QtQtQtQtQtQtQtQtQtQtQtQtQtQtQtQtQtQtQtQtQtQtQt.#.a.#.a.b.d.d.b.d.d.c.d.c.d.c.b.a.aQtQtQtQtQtQtQtQtQtQtQtQtQtQtQtQtQtQtQtQtQtQtQt",
"QtQtQtQtQtQtQtQtQtQtQtQtQtQtQtQtQtQtQtQtQtQtQt.#.#.#.b.c.d.b.d.d.c.d.d.b.d.b.c.b.aQtQtQtQtQtQtQtQtQtQtQtQtQtQtQtQtQtQtQtQtQtQtQt",
"QtQtQtQtQtQtQtQtQtQtQtQtQtQtQtQtQtQtQtQtQtQt.#.#.#.a.b.b.d.b.d.c.c.d.c.c.b.b.c.b.aQtQtQtQtQtQtQt.e.e.eQtQtQtQtQtQtQtQtQtQtQtQtQt",
"QtQtQtQtQtQtQtQtQtQtQtQtQtQtQtQtQtQtQtQtQtQtQtQt.a.b.#.a.c.b.c.c.c.d.c.c.b.a.c.b.#QtQtQtQtQtQt.e.f.g.eQtQtQtQtQtQtQtQtQtQtQtQtQt",
"QtQtQtQtQtQtQtQtQtQtQtQtQtQtQtQtQtQtQtQtQtQtQtQt.#.#.a.a.b.b.c.c.b.c.c.c.b.a.b.b.#QtQtQtQtQt.h.f.h.f.eQtQtQtQtQtQtQtQtQtQtQtQtQt",
"QtQtQtQtQtQtQtQtQtQtQtQtQtQtQtQtQtQtQtQtQtQtQt.#.#.a.a.a.b.a.b.c.b.c.c.b.a.a.b.e.e.e.hQtQt.h.e.g.f.eQtQtQtQtQtQtQtQtQtQtQtQtQtQt",
"QtQtQtQtQtQtQtQtQtQtQtQtQtQtQtQtQtQtQtQtQtQtQtQtQt.#.a.a.a.a.b.c.b.b.b.e.e.g.f.e.hQtQtQt.h.g.i.hQtQtQtQtQtQtQtQtQtQtQtQtQtQtQtQt",
"QtQtQtQtQtQtQtQtQtQtQtQtQtQtQtQtQtQtQtQtQtQtQtQtQtQt.a.#.a.a.#.b.b.b.e.e.g.j.e.hQtQtQt.h.e.e.hQtQtQtQtQtQtQtQtQtQtQtQtQtQtQtQtQt",
"QtQtQtQtQtQtQtQtQtQtQtQtQtQtQtQtQtQtQtQtQtQtQtQtQt.k.#.a.#.a.#.a.b.e.i.f.j.f.h.kQtQt.h.e.g.hQtQtQtQtQtQtQtQtQtQtQtQtQtQtQtQtQtQt",
"QtQtQtQtQtQtQtQtQtQtQtQtQtQtQtQtQtQtQtQtQtQtQtQt.k.k.k.l.#.#.a.#.e.i.f.j.f.e.l.kQt.e.e.g.eQtQtQtQtQtQtQtQtQtQtQtQtQtQtQtQtQtQtQt",
"QtQtQtQtQtQtQtQtQtQtQtQtQtQtQtQtQtQtQtQtQtQtQt.k.m.k.k.l.l.#.#.e.e.f.j.j.i.h.h.h.i.g.e.e.hQtQtQtQtQtQtQtQtQtQtQtQtQtQtQtQtQtQtQt",
"QtQtQtQtQtQtQtQtQtQtQtQtQtQtQtQtQtQtQtQtQtQt.k.n.k.o.k.k.l.k.#.e.g.j.j.i.e.i.i.i.e.i.g.hQtQtQtQtQtQtQtQtQtQtQtQtQtQtQtQtQtQtQtQt",
"QtQtQtQtQtQtQtQtQtQtQtQtQtQtQtQtQtQtQtQtQtQt.l.l.l.k.k.l.l.k.p.g.j.j.f.e.f.g.e.e.i.g.g.hQtQtQtQtQtQtQtQtQtQtQtQtQtQtQtQtQtQtQtQt",
"QtQtQtQtQtQtQtQtQtQtQtQtQtQtQtQtQtQtQtQtQt.k.q.q.p.l.l.l.l.k.e.j.j.j.i.j.g.h.h.h.e.f.iQtQtQtQtQtQtQtQtQtQtQtQtQtQtQtQtQtQtQtQtQt",
"QtQtQtQtQtQtQtQtQtQtQtQtQtQtQtQtQtQtQtQtQt.k.k.k.k.k.l.r.l.e.f.j.g.g.j.h.h.h.h.h.j.g.hQtQtQtQtQtQtQtQtQtQtQtQtQtQtQtQtQtQtQtQtQt",
"QtQtQtQtQtQtQtQtQtQtQtQtQtQtQtQtQtQtQtQtQt.s.t.u.v.l.l.w.e.g.j.f.i.f.i.h.h.h.h.g.f.i.h.h.hQtQtQtQtQtQtQtQtQtQtQtQtQtQtQtQtQtQtQt",
"QtQtQtQtQtQtQtQtQtQtQtQtQtQtQtQtQtQtQtQtQt.s.x.t.u.v.w.v.i.j.j.g.e.f.g.h.h.h.g.j.h.h.e.h.yQtQtQtQtQtQtQtQtQtQtQtQtQtQtQtQtQtQtQt",
"QtQtQtQtQtQtQtQtQtQtQtQtQtQtQtQtQtQtQtQt.v.u.t.t.u.v.v.e.g.j.j.e.j.g.h.g.i.j.f.e.e.i.e.h.hQtQtQtQtQtQtQtQtQtQtQtQtQtQtQtQtQtQtQt",
"QtQtQtQtQtQtQtQtQtQtQtQtQtQtQtQtQtQtQtQt.k.v.u.u.v.w.v.i.f.j.i.j.j.h.f.g.f.g.i.e.h.z.e.y.hQtQtQtQtQtQtQtQtQtQtQtQtQtQtQtQtQtQtQt",
"QtQtQtQtQtQtQtQtQtQtQtQtQtQtQtQtQtQtQtQt.k.A.v.v.l.B.e.i.f.e.e.j.h.j.j.g.e.h.e.h.z.C.i.hQtQtQtQtQtQtQtQtQtQtQtQtQtQtQtQtQtQtQtQt",
"QtQtQtQtQtQtQtQtQtQtQtQtQtQtQtQtQtQtQtQt.k.D.q.k.l.v.e.i.e.i.j.h.j.j.g.e.h.h.e.h.i.i.hQtQtQtQtQtQtQtQtQtQtQtQtQtQtQtQtQtQtQtQtQt",
"QtQtQtQtQtQtQtQtQtQtQtQtQtQtQtQtQtQtQt.k.A.E.D.k.l.e.i.g.j.j.h.j.e.v.v.F.h.i.i.G.h.vQtQtQtQtQtQtQtQtQtQtQtQtQtQtQtQtQtQtQtQtQtQt",
"QtQtQtQtQtQtQtQtQtQtQtQtQtQtQtQtQtQtQt.v.k.D.k.l.e.g.f.j.j.h.j.e.F.v.v.h.e.e.h.v.B.B.vQtQtQtQtQtQtQtQtQtQtQtQtQtQtQtQtQtQtQtQtQt",
"QtQtQtQtQtQtQtQtQtQtQtQtQtQtQtQtQtQtQt.v.t.q.q.e.g.j.j.j.h.j.j.H.F.v.v.v.v.v.v.v.v.v.B.vQtQtQtQtQtQtQtQtQtQtQtQtQtQtQtQtQtQtQtQt",
"QtQtQtQtQtQtQtQtQtQtQtQtQtQtQtQtQtQtQtQt.v.e.g.f.j.j.j.h.j.j.e.H.F.F.v.v.F.v.v.v.v.v.v.B.IQtQtQtQtQtQtQtQtQtQtQtQtQtQtQtQtQtQtQt",
"QtQtQtQtQtQtQtQtQtQtQtQtQtQtQtQtQtQtQt.I.i.j.j.j.f.e.h.j.j.g.H.H.F.F.v.v.B.F.F.B.v.v.v.v.v.JQtQtQtQtQtQtQtQtQtQtQtQtQtQtQtQtQtQt",
"QtQtQtQtQtQtQtQtQtQtQtQtQtQtQtQtQtQtQt.g.j.j.g.h.h.h.e.j.f.e.H.H.F.F.B.v.v.B.F.B.B.v.v.v.v.vQtQtQtQtQtQtQtQtQtQtQtQtQtQtQtQtQtQt",
"QtQtQtQtQtQtQtQtQtQtQtQtQtQtQtQtQtQt.i.j.j.g.h.h.h.h.f.f.e.H.H.H.H.F.F.B.v.v.B.F.B.B.v.v.v.v.vQtQtQtQtQtQtQtQtQtQtQtQtQtQtQtQtQt",
"QtQtQtQtQtQtQtQtQtQtQtQtQtQtQtQtQt.e.f.j.g.h.h.H.h.h.j.g.F.H.H.H.H.F.F.B.B.B.B.K.F.F.v.J.v.v.vQtQtQtQtQtQtQtQtQtQtQtQtQtQtQtQtQt",
"QtQtQtQtQtQtQtQtQtQtQtQtQtQtQtQtQt.f.j.g.h.h.h.h.g.j.g.F.F.H.H.H.H.F.F.B.B.B.K.B.B.F.H.H.H.L.LQtQtQtQtQtQtQtQtQtQtQtQtQtQtQtQtQt",
"QtQtQtQtQtQtQtQtQtQtQtQtQtQtQtQtQt.j.f.i.h.h.h.g.j.f.e.F.H.H.H.H.H.F.F.B.B.K.F.B.B.v.v.F.J.F.L.LQtQtQtQtQtQtQtQtQtQtQtQtQtQtQtQt",
"QtQtQtQtQtQtQtQtQtQtQtQtQtQtQtQt.e.j.f.i.i.g.j.j.f.e.B.F.H.H.L.L.L.i.i.i.B.B.B.L.L.B.F.F.I.I.F.L.LQtQtQtQtQtQtQtQtQtQtQtQtQtQtQt",
"QtQtQtQtQtQtQtQtQtQtQtQtQtQtQtQt.i.j.f.f.f.j.j.g.e.i.i.L.L.L.i.i.i.I.I.I.J.J.J.I.i.L.L.B.B.F.M.MQtQtQtQtQtQtQtQtQtQtQtQtQtQtQtQt",
"QtQtQtQtQtQtQtQtQtQtQtQtQtQtQt.e.g.j.j.j.j.g.e.e.i.J.J.i.i.i.L.L.L.i.i.i.I.I.I.i.LQtQtQtQt.J.v.vQtQtQtQtQtQtQtQtQtQtQtQtQtQtQtQt",
"QtQtQtQtQtQtQtQtQtQtQtQtQtQtQt.e.f.j.f.f.i.e.N.N.N.i.L.L.L.L.r.N.r.n.D.n.J.J.J.J.N.NQtQtQt.JQt.vQtQtQtQtQtQtQtQtQtQtQtQtQtQtQtQt",
"QtQtQtQtQtQtQtQtQtQtQtQtQtQt.e.i.f.g.i.e.N.O.P.Q.R.h.r.r.r.r.r.S.r.T.G.T.U.r.V.R.Q.P.O.N.N.J.JQtQtQtQtQtQtQtQtQtQtQtQtQtQtQtQtQt",
"QtQtQtQtQtQtQtQtQtQtQtQtQtQt.e.g.i.e.P.R.W.X.Y.Z.0.r.r.r.r.r.h.1.r.r.r.r.r.r.2.0.Z.Y.X.W.R.J.J.NQtQtQtQtQtQtQtQtQtQtQtQtQtQtQtQt",
"QtQtQtQtQtQtQtQtQtQtQtQtQtQtQt.N.P.3.4.5.6.1.7.8.9.r.r.r.r.r.h#..r.n.D.n###a#b.9.8#c#d.6.5.J.3.P.NQtQtQtQtQtQtQtQtQtQtQtQtQtQtQt",
"QtQtQtQtQtQtQtQtQtQtQtQtQtQt.N.Q#e#f#g#h#i#j#k#l#m.r.r.U.U.r.r#n.U.T.G.T.U.r#o#m#l#k#j#i#h#g#p#e.Q.NQtQtQtQtQtQtQtQtQtQtQtQtQtQt",
"QtQtQtQtQtQtQtQtQtQtQtQtQt.N.P#q#r#s#t#u#v#w#x#y#z#A.h.r.r.h#B#C.U.G.G.G.T.r#A#z#y#x#w#v#u#t#s#r#q.P.NQtQtQtQtQtQtQtQtQtQtQtQtQt",
"QtQtQtQtQtQtQtQtQtQtQtQtQt.N#D#E#F#G#H#x#A#I#C#C#C#C#C#J#J#J#J.U.T.G.i.G.U.U.r#C#C#C#I#A#x#H#G#F#E#D.NQtQtQtQtQtQtQtQtQtQtQtQtQt",
"QtQtQtQtQtQtQtQtQtQtQtQtQt.N#D#K#F#G#v#x#A#I#C#C#C#C#C#J#J#J#J.U.U.r.r.r.r.U.r#C#C#C#I#A#x#v#G#L#K#D.NQtQtQtQtQtQtQtQtQtQtQtQtQt",
"QtQtQtQtQtQtQtQtQtQtQtQtQt.N#M#q#r#s#t#u#v#w#x#y#z#A#N#N#I#B#B.U.r.r.r.r.r.r.r#z#y#x#w#v#u#t#s#r#q#M.NQtQtQtQtQtQtQtQtQtQtQtQtQt",
"QtQtQtQtQtQtQtQtQtQtQtQtQtQt.N.Q#O#p#P#s#Q#j#k#l#m#o#R#S#T#U#n#n.h.r.r.r.r.h#o#m#l#k#j#Q#s#P#p#O.Q.NQtQtQtQtQtQtQtQtQtQtQtQtQtQt",
"QtQtQtQtQtQtQtQtQtQtQtQtQtQtQt.N#M.W.4.5.6#d#c.8.9#b#V#W#t#X#G#.#.#G#X#t#W#V#b.9.8#c#d.6.5.4.W#M.NQtQtQtQtQtQtQtQtQtQtQtQtQtQtQt",
"QtQtQtQtQtQtQtQtQtQtQtQtQtQtQtQt.N.N.P.R.W.X.Y.Z.0.2#Y#Z#0#1#2.1.1#2#1#0#Z#Y.2.0.Z.Y#q.W.R.P.N.NQtQtQtQtQtQtQtQtQtQtQtQtQtQtQtQt",
"QtQtQtQtQtQtQtQtQtQtQtQtQtQtQtQtQtQt.N.N.N.O.P.Q.R.V.W#3#4#4#4.S.S#4#4#4#3.W.V.R.Q.P.O.N.N.NQtQtQtQtQtQtQtQtQtQtQtQtQtQtQtQtQtQt",
"QtQtQtQtQtQtQtQtQtQtQtQtQtQtQtQtQtQtQtQtQtQt.N.N.N.N.N.N.N.N.N.N.N.N.N.N.N.N.N.N.N.NQtQtQtQtQtQtQtQtQtQtQtQtQtQtQtQtQtQtQtQtQtQt",
"QtQtQtQtQtQtQtQtQtQtQtQtQtQtQtQtQtQtQtQtQtQtQtQtQtQtQtQtQtQtQtQtQtQtQtQtQtQtQtQtQtQtQtQtQtQtQtQtQtQtQtQtQtQtQtQtQtQtQtQtQtQtQtQt",
"QtQtQtQtQtQtQtQtQtQtQtQtQtQtQtQtQtQtQtQtQtQtQtQtQtQtQtQtQtQtQtQtQtQtQtQtQtQtQtQtQtQtQtQtQtQtQtQtQtQtQtQtQtQtQtQtQtQtQtQtQtQtQtQt"};
