/* XPM */
static char *dummy[]={
"64 64 123 2",
"Qt c None",
".M c #000000",
".Q c #000000",
".R c #000000",
"#K c #000000",
".S c #000000",
"#A c #000000",
".T c #000000",
".W c #000000",
".4 c #000000",
".X c #000000",
"#3 c #000000",
"#4 c #000000",
".U c #000000",
".Y c #000000",
"#p c #000000",
"#d c #000000",
"#N c #000000",
".5 c #000000",
".Z c #000000",
"#B c #000000",
"#I c #000000",
".0 c #000000",
".6 c #000000",
".1 c #000000",
"#e c #000000",
"#o c #000000",
".3 c #000000",
".7 c #000000",
"#Y c #000000",
"#q c #000000",
"#Z c #000000",
"#0 c #000000",
"#1 c #000000",
"#2 c #000000",
".2 c #000000",
"#c c #000000",
"#f c #000000",
"#O c #000000",
".8 c #000000",
"#b c #000000",
"#C c #000000",
"#J c #000000",
".9 c #000000",
"#g c #000000",
"#r c #000000",
"#. c #000000",
"#a c #000000",
"#h c #000000",
"#P c #000000",
"#V c #000000",
"#W c #000000",
"#s c #000000",
"#i c #000000",
"#X c #000000",
"#D c #000000",
"## c #000000",
"#j c #000000",
"#t c #000000",
"#k c #000000",
"#n c #000000",
"#m c #000000",
"#E c #000000",
"#u c #000000",
"#Q c #000000",
"#R c #000000",
"#S c #000000",
"#v c #000000",
"#T c #000000",
"#U c #000000",
"#w c #000000",
"#x c #000000",
"#z c #000000",
"#y c #000000",
"#M c #000000",
"#F c #000000",
"#L c #000000",
"#G c #000000",
"#H c #000000",
".k c #001111",
".l c #002b2b",
".x c #005477",
".o c #005e7f",
".m c #007faa",
".y c #00e200",
".h c #080808",
".K c #0f0e11",
".w c #190000",
".H c #190700",
".n c #1e424f",
".E c #212828",
".O c #260c0c",
".V c #26252c",
".N c #35353a",
"#l c #35383f",
".p c #3d5358",
".e c #444448",
".t c #470000",
".s c #4a2121",
".C c #51545b",
".F c #535353",
".L c #562f1d",
".A c #637a82",
".# c #6d3300",
".D c #72472d",
".z c #750000",
".i c #797a7c",
".P c #838384",
".q c #84393a",
".I c #870000",
".a c #996314",
".g c #9e99a6",
".J c #adb2af",
".B c #af001c",
".r c #c46555",
".u c #c91c23",
".f c #ccd3d6",
".b c #d19e30",
".j c #e5f4ff",
".G c #ef0c23",
".v c #f78c6b",
".d c #f9edd6",
".c c #fcd670",
"QtQtQtQtQtQtQtQtQtQtQtQtQtQtQtQtQtQtQtQtQtQtQtQtQtQtQtQtQtQtQtQtQtQtQtQtQtQtQtQtQtQtQtQtQtQtQtQtQtQtQtQtQtQtQtQtQtQtQtQtQtQtQtQt",
"QtQtQtQtQtQtQtQtQtQtQtQtQtQtQtQtQtQtQtQtQtQtQtQtQtQtQtQtQtQtQtQtQtQtQtQtQtQtQtQtQtQtQtQtQtQtQtQtQtQtQtQtQtQtQtQtQtQtQtQtQtQtQtQt",
"QtQtQtQtQtQtQtQtQtQtQtQtQtQtQtQtQtQtQtQtQtQtQtQtQtQtQtQtQtQtQtQtQtQtQtQtQtQtQtQtQtQtQtQtQtQtQtQtQtQtQtQtQtQtQtQtQtQtQtQtQtQtQtQt",
"QtQtQtQtQtQtQtQtQtQtQtQtQtQtQtQtQtQtQtQtQtQtQtQtQtQtQtQtQtQtQtQtQtQtQtQtQtQtQtQtQtQtQtQtQtQtQtQtQtQtQtQtQtQtQtQtQtQtQtQtQtQtQtQt",
"QtQtQtQtQtQtQtQtQtQtQtQtQtQtQtQtQtQtQtQtQtQtQtQtQtQtQtQtQtQtQtQtQtQtQtQtQtQtQtQtQtQtQtQtQtQtQtQtQtQtQtQtQtQtQtQtQtQtQtQtQtQtQtQt",
"QtQtQtQtQtQtQtQtQtQtQtQtQtQtQtQtQtQtQtQtQtQtQtQtQtQtQtQtQtQtQtQtQtQtQtQtQtQtQtQtQtQtQtQtQtQtQtQtQtQtQtQtQtQtQtQtQtQtQtQtQtQtQtQt",
"QtQtQtQtQtQtQtQtQtQtQtQtQtQtQtQtQtQtQtQtQtQtQtQtQtQtQtQtQtQtQtQtQtQtQtQtQtQtQtQtQtQtQtQtQtQtQtQtQtQtQtQtQtQtQtQtQtQtQtQtQtQtQtQt",
"QtQtQtQtQtQtQtQtQtQtQtQtQtQtQtQtQtQtQtQtQtQtQtQtQtQtQtQtQt.#.#.a.a.a.aQt.a.b.b.aQtQtQtQtQtQtQtQtQtQtQtQtQtQtQtQtQtQtQtQtQtQtQtQt",
"QtQtQtQtQtQtQtQtQtQtQtQtQtQtQtQtQtQtQtQtQtQtQtQtQtQtQt.#.a.a.a.a.a.a.a.a.aQtQtQt.aQtQtQtQtQtQtQtQtQtQtQtQtQtQtQtQtQtQtQtQtQtQtQt",
"QtQtQtQtQtQtQtQtQtQtQtQtQtQtQtQtQtQtQtQtQtQtQtQtQtQt.#.a.a.b.b.a.a.b.b.b.b.aQtQtQtQtQtQtQtQtQtQtQtQtQtQtQtQtQtQtQtQtQtQtQtQtQtQt",
"QtQtQtQtQtQtQtQtQtQtQtQtQtQtQtQtQtQtQtQtQtQtQtQtQt.#.a.a.b.b.a.b.b.c.b.c.c.b.aQtQtQtQtQtQtQtQtQtQtQtQtQtQtQtQtQtQtQtQtQtQtQtQtQt",
"QtQtQtQtQtQtQtQtQtQtQtQtQtQtQtQtQtQtQtQtQtQtQtQt.#.a.a.b.b.c.d.c.c.c.d.b.c.c.b.aQtQtQtQtQtQtQtQtQtQtQtQtQtQtQtQtQtQtQtQtQtQtQtQt",
"QtQtQtQtQtQtQtQtQtQtQtQtQtQtQtQtQtQtQtQtQtQtQtQt.#.a.#.b.c.d.c.b.b.c.d.d.d.b.a.a.aQtQtQtQtQtQtQtQtQtQtQtQtQtQtQtQtQtQtQtQtQtQtQt",
"QtQtQtQtQtQtQtQtQtQtQtQtQtQtQtQtQtQtQtQtQtQtQt.#.a.#.a.b.d.d.b.d.d.c.d.c.d.c.b.a.aQtQtQtQtQtQtQtQtQtQtQtQtQtQtQtQtQtQtQtQtQtQtQt",
"QtQtQtQtQtQtQtQtQtQtQtQtQtQtQtQtQtQtQtQtQtQtQt.#.#.#.b.c.d.b.d.d.c.d.d.b.d.b.c.b.aQtQtQtQtQtQtQtQtQtQtQtQtQtQtQtQtQtQtQtQtQtQtQt",
"QtQtQtQtQtQtQtQtQtQtQtQtQtQtQtQtQtQtQtQtQtQt.#.#.#.a.b.b.d.b.d.c.c.d.c.c.b.b.c.b.aQtQtQtQtQtQtQt.e.e.eQtQtQtQtQtQtQtQtQtQtQtQtQt",
"QtQtQtQtQtQtQtQtQtQtQtQtQtQtQtQtQtQtQtQtQtQtQtQt.a.b.#.a.c.b.c.c.c.d.c.c.b.a.c.b.#QtQtQtQtQtQt.e.f.g.eQtQtQtQtQtQtQtQtQtQtQtQtQt",
"QtQtQtQtQtQtQtQtQtQtQtQtQtQtQtQtQtQtQtQtQtQtQtQt.#.#.a.a.b.b.c.c.b.c.c.c.b.a.b.b.#QtQtQtQtQt.h.f.h.f.eQtQtQtQtQtQtQtQtQtQtQtQtQt",
"QtQtQtQtQtQtQtQtQtQtQtQtQtQtQtQtQtQtQtQtQtQtQt.#.#.a.a.a.b.a.b.c.b.c.c.b.a.a.b.e.e.e.hQtQt.h.e.g.f.eQtQtQtQtQtQtQtQtQtQtQtQtQtQt",
"QtQtQtQtQtQtQtQtQtQtQtQtQtQtQtQtQtQtQtQtQtQtQtQtQt.#.a.a.a.a.b.c.b.b.b.e.e.g.f.e.hQtQtQt.h.g.i.hQtQtQtQtQtQtQtQtQtQtQtQtQtQtQtQt",
"QtQtQtQtQtQtQtQtQtQtQtQtQtQtQtQtQtQtQtQtQtQtQtQtQtQt.a.#.a.a.#.b.b.b.e.e.g.j.e.hQtQtQt.h.e.e.hQtQtQtQtQtQtQtQtQtQtQtQtQtQtQtQtQt",
"QtQtQtQtQtQtQtQtQtQtQtQtQtQtQtQtQtQtQtQtQtQtQtQtQt.k.#.a.#.a.#.a.b.e.i.f.j.f.hQtQtQt.h.e.g.hQtQtQtQtQtQtQtQtQtQtQtQtQtQtQtQtQtQt",
"QtQtQtQtQtQtQtQtQtQtQtQtQtQtQtQtQtQtQtQtQtQtQtQt.k.l.k.l.#.#.a.#.e.i.f.j.f.e.l.lQt.e.e.g.eQtQtQtQtQtQtQtQtQtQtQtQtQtQtQtQtQtQtQt",
"QtQtQtQtQtQtQtQtQtQtQtQtQtQtQtQtQtQtQtQtQtQtQt.m.n.l.k.l.l.#.#.e.e.f.j.j.i.h.h.h.i.g.e.e.hQtQtQtQtQtQtQtQtQtQtQtQtQtQtQtQtQtQtQt",
"QtQtQtQtQtQtQtQtQtQtQtQtQtQtQtQtQtQtQtQtQtQtQt.l.o.n.k.l.n.n.#.e.g.j.j.i.e.i.i.i.e.i.g.hQtQtQtQtQtQtQtQtQtQtQtQtQtQtQtQtQtQtQtQt",
"QtQtQtQtQtQtQtQtQtQtQtQtQtQtQtQtQtQtQtQtQtQtQt.l.n.n.l.k.l.n.n.g.j.j.f.e.f.g.e.e.i.g.g.hQtQtQtQtQtQtQtQtQtQtQtQtQtQtQtQtQtQtQtQt",
"QtQtQtQtQtQtQtQtQtQtQtQtQtQtQtQtQtQtQtQtQtQt.l.n.l.k.k.k.l.n.e.j.j.j.i.j.g.h.h.h.e.f.iQtQtQtQtQtQtQtQtQtQtQtQtQtQtQtQtQtQtQtQtQt",
"QtQtQtQtQtQtQtQtQtQtQtQtQtQtQtQtQtQtQtQtQtQt.l.p.p.n.k.k.l.e.f.j.g.g.j.h.h.h.h.h.j.g.hQtQtQtQtQtQtQtQtQtQtQtQtQtQtQtQtQtQtQtQtQt",
"QtQtQtQtQtQtQtQtQtQtQtQtQtQtQtQtQtQtQtQtQtQt.q.l.l.l.k.k.e.g.j.f.i.f.i.h.h.h.h.g.f.i.h.h.hQtQtQtQtQtQtQtQtQtQtQtQtQtQtQtQtQtQtQt",
"QtQtQtQtQtQtQtQtQtQtQtQtQtQtQtQtQtQtQtQtQtQt.q.r.s.l.t.t.i.j.j.g.e.f.g.h.h.h.g.j.h.h.e.h.uQtQtQtQtQtQtQtQtQtQtQtQtQtQtQtQtQtQtQt",
"QtQtQtQtQtQtQtQtQtQtQtQtQtQtQtQtQtQtQtQtQt.q.r.v.q.s.t.e.g.j.j.e.j.g.h.g.i.j.f.e.e.i.e.h.hQtQtQtQtQtQtQtQtQtQtQtQtQtQtQtQtQtQtQt",
"QtQtQtQtQtQtQtQtQtQtQtQtQtQtQtQtQtQtQtQtQt.q.v.v.q.w.w.i.f.j.i.j.j.h.f.g.f.g.i.e.h.x.e.u.hQtQtQtQtQtQtQtQtQtQtQtQtQtQtQtQtQtQtQt",
"QtQtQtQtQtQtQtQtQtQtQtQtQtQtQtQtQtQtQtQtQt.s.r.q.w.t.e.i.f.e.e.j.h.j.j.g.e.h.e.h.x.y.i.hQtQtQtQtQtQtQtQtQtQtQtQtQtQtQtQtQtQtQtQt",
"QtQtQtQtQtQtQtQtQtQtQtQtQtQtQtQtQtQtQtQtQt.s.s.w.t.z.e.i.e.i.j.h.j.j.g.e.h.h.e.h.i.i.h.AQtQtQtQtQtQtQtQtQtQtQtQtQtQtQtQtQtQtQtQt",
"QtQtQtQtQtQtQtQtQtQtQtQtQtQtQtQtQtQtQtQtQt.s.t.t.z.e.i.g.j.j.h.j.e.t.B.B.h.i.i.C.h.l.D.tQtQtQtQtQtQtQtQtQtQtQtQtQtQtQtQtQtQtQtQt",
"QtQtQtQtQtQtQtQtQtQtQtQtQtQtQtQtQtQtQtQtQt.t.t.z.e.g.f.j.j.h.j.e.B.t.t.h.e.e.h.t.t.t.tQtQtQtQtQtQtQtQtQtQtQtQtQtQtQtQtQtQtQtQtQt",
"QtQtQtQtQtQtQtQtQtQtQtQtQtQtQtQtQtQtQtQt.t.t.z.e.g.j.j.j.h.j.j.B.z.t.t.t.B.B.z.z.t.t.EQtQtQtQtQtQtQtQtQtQtQtQtQtQtQtQtQtQtQtQtQt",
"QtQtQtQtQtQtQtQtQtQtQtQtQtQtQtQtQtQtQt.E.t.e.g.f.j.j.j.h.j.j.e.B.z.B.t.t.t.t.z.z.t.E.F.EQtQtQtQtQtQtQtQtQtQtQtQtQtQtQtQtQtQtQtQt",
"QtQtQtQtQtQtQtQtQtQtQtQtQtQtQtQtQtQt.F.E.i.j.j.j.f.e.h.j.j.g.G.B.z.B.B.t.t.t.t.t.t.E.F.EQtQtQtQtQtQtQtQtQtQtQtQtQtQtQtQtQtQtQtQt",
"QtQtQtQtQtQtQtQtQtQtQtQtQtQtQtQtQtQt.F.g.j.j.g.h.h.h.e.j.f.e.G.B.z.z.B.G.z.z.z.t.t.t.t.tQtQtQtQtQtQtQtQtQtQtQtQtQtQtQtQtQtQtQtQt",
"QtQtQtQtQtQtQtQtQtQtQtQtQtQtQtQtQtQt.i.j.j.g.h.h.H.h.f.f.e.G.G.B.z.z.B.B.t.z.B.B.t.t.t.t.t.tQtQtQtQtQtQtQtQtQtQtQtQtQtQtQtQtQtQt",
"QtQtQtQtQtQtQtQtQtQtQtQtQtQtQtQtQt.e.f.j.g.h.h.z.h.h.j.g.G.G.G.B.z.z.B.B.G.t.z.B.B.t.t.t.t.t.tQtQtQtQtQtQtQtQtQtQtQtQtQtQtQtQtQt",
"QtQtQtQtQtQtQtQtQtQtQtQtQtQtQtQtQt.f.j.g.h.h.h.h.g.j.g.B.G.G.G.B.z.I.B.B.G.G.t.z.B.B.G.t.t.t.t.tQtQtQtQtQtQtQtQtQtQtQtQtQtQtQtQt",
"QtQtQtQtQtQtQtQtQtQtQtQtQtQtQtQtQt.j.f.i.h.h.h.g.j.f.e.B.G.G.G.B.z.z.z.B.B.G.J.t.z.B.B.GQt.t.t.t.tQtQtQtQtQtQtQtQtQtQtQtQtQtQtQt",
"QtQtQtQtQtQtQtQtQtQtQtQtQtQtQtQt.e.j.f.i.i.g.j.j.f.e.i.i.G.G.G.B.z.z.z.i.J.J.F.F.t.z.t.B.GQt.t.t.tQtQtQtQtQtQtQtQtQtQtQtQtQtQtQt",
"QtQtQtQtQtQtQtQtQtQtQtQtQtQtQtQt.i.j.f.f.f.j.j.g.e.E.E.E.J.J.i.F.F.i.i.F.F.F.J.J.J.t.z.t.B.GQt.t.t.FQtQtQtQtQtQtQtQtQtQtQtQtQtQt",
"QtQtQtQtQtQtQtQtQtQtQtQtQtQtQt.e.g.j.j.j.j.g.e.e.i.i.i.i.E.E.E.E.E.E.E.i.J.JQtQtQtQt.t.z.B.B.J.t.t.t.FQtQtQtQtQtQtQtQtQtQtQtQtQt",
"QtQtQtQtQtQtQtQtQtQtQtQtQtQtQt.e.f.j.f.f.i.eQtQtQt.K.L.D.J.J.i.F.F.i.i.K.K.KQtQtQtQtQt.t.EQt.J.F.tQt.FQtQtQtQtQtQtQtQtQtQtQtQtQt",
"QtQtQtQtQtQtQtQtQtQtQtQtQtQt.e.i.f.g.i.eQtQt.M.M.M.K.K.N.C.K.K.M.O.L.D.D.L.K.M.M.M.MQt.F.t.E.P.J.F.C.FQtQtQtQtQtQtQtQtQtQtQtQtQt",
"QtQtQtQtQtQtQtQtQtQtQtQtQtQt.e.g.i.e.M.M.M.Q.R.S.T.K.L.K.K.L.K.U.K.V.V.V.V.K.W.T.S.R.Q.M.F.P.P.JQt.F.FQtQtQtQtQtQtQtQtQtQtQtQtQt",
"QtQtQtQtQtQtQtQtQtQtQtQtQtQtQtQt.M.M.R.T.X.Y.Z.0.1.K.K.D.D.K.V.2.h.K.K.K.K.h.3.1.0.Z.Y.X.T.F.P.JQtQtQtQtQtQtQtQtQtQtQtQtQtQtQtQt",
"QtQtQtQtQtQtQtQtQtQtQtQtQtQtQt.M.R.4.5.6.7.2.8.9#..K.L.N.N.L.V##.K.K.K.K.K.K#a#..9#b#c.7.6.5.4.R.MQtQtQtQtQtQtQtQtQtQtQtQtQtQtQt",
"QtQtQtQtQtQtQtQtQtQtQtQtQtQt.M.S#d#e#f#g#h#i#j#k.K.K.N.D.D#l.V.V.K.V.N.N.V.K#m#n#k#j#i#h#g#f#o#d.S.MQtQtQtQtQtQtQtQtQtQtQtQtQtQt",
"QtQtQtQtQtQtQtQtQtQtQtQtQt.M.R#p#q#r#s#t#u#v#w#x.K.K.V.N.F.N.V.V.K.V.N.N.N.K#y#z#x#w#v#u#t#s#r#q#p.R.MQtQtQtQtQtQtQtQtQtQtQtQtQt",
"QtQtQtQtQtQtQtQtQtQtQtQtQt.M#A#B#C#D#E#w#y#F#G#G.K.V.N.C.P.C.N.V#H.h.K.K.h#G#G#G#G#G#F#y#w#E#D#C#B#A.MQtQtQtQtQtQtQtQtQtQtQtQtQt",
"QtQtQtQtQtQtQtQtQtQtQtQtQt.M#A#I#C#D#u#w#y#F#G#G.h.V.C.P.P.P.C.V#H#H#H#H#H#G#G#G#G#G#F#y#w#u#D#J#I#A.MQtQtQtQtQtQtQtQtQtQtQtQtQt",
"QtQtQtQtQtQtQtQtQtQtQtQtQt.M#K#p#q#r#s#t#u#v#w#x#z.K.N.C.C.C.V#G#G#L#L#F#M#M#y#z#x#w#v#u#t#s#r#q#p#K.MQtQtQtQtQtQtQtQtQtQtQtQtQt",
"QtQtQtQtQtQtQtQtQtQtQtQtQtQt.M.S#N#o#O#r#P#i#j#k#n#m#Q#R#S#T#U#U#U#U#T#S#R#Q#m#n#k#j#i#P#r#O#o#N.S.MQtQtQtQtQtQtQtQtQtQtQtQtQtQt",
"QtQtQtQtQtQtQtQtQtQtQtQtQtQtQt.M#K.X.5.6.7#c#b.9#.#a#V#W#s#X#D#####D#X#s#W#V#a#..9#b#c.7.6.5.X#K.MQtQtQtQtQtQtQtQtQtQtQtQtQtQtQt",
"QtQtQtQtQtQtQtQtQtQtQtQtQtQtQtQt.M.M.R.T.X.Y.Z.0.1.3#Y#Z#0#1#2.2.2#2#1#0#Z#Y.3.1.0.Z#p.X.T.R.M.MQtQtQtQtQtQtQtQtQtQtQtQtQtQtQtQt",
"QtQtQtQtQtQtQtQtQtQtQtQtQtQtQtQtQtQt.M.M.M.Q.R.S.T.W.X#3#4#4#4.U.U#4#4#4#3.X.W.T.S.R.Q.M.M.MQtQtQtQtQtQtQtQtQtQtQtQtQtQtQtQtQtQt",
"QtQtQtQtQtQtQtQtQtQtQtQtQtQtQtQtQtQtQtQtQtQt.M.M.M.M.M.M.M.M.M.M.M.M.M.M.M.M.M.M.M.MQtQtQtQtQtQtQtQtQtQtQtQtQtQtQtQtQtQtQtQtQtQt",
"QtQtQtQtQtQtQtQtQtQtQtQtQtQtQtQtQtQtQtQtQtQtQtQtQtQtQtQtQtQtQtQtQtQtQtQtQtQtQtQtQtQtQtQtQtQtQtQtQtQtQtQtQtQtQtQtQtQtQtQtQtQtQtQt",
"QtQtQtQtQtQtQtQtQtQtQtQtQtQtQtQtQtQtQtQtQtQtQtQtQtQtQtQtQtQtQtQtQtQtQtQtQtQtQtQtQtQtQtQtQtQtQtQtQtQtQtQtQtQtQtQtQtQtQtQtQtQtQtQt"};
