/* XPM */
static char *dummy[]={
"64 128 139 2",
"#1 c #000000",
"#q c #001111",
"#r c #002b2b",
"#E c #005477",
"#u c #005e7f",
"#s c #007faa",
"#F c #00e200",
"#i c #080808",
"#X c #0f0e11",
"#D c #190000",
"#R c #190700",
"#t c #1e424f",
"#L c #212828",
"#3 c #260c0c",
"#8 c #26252c",
"#2 c #35353a",
"ai c #35383f",
".2 c #383f4a",
".g c #383f4b",
"#x c #383f4c",
".1 c #38404c",
".e c #393f4b",
"Qt c #3a404b",
".h c #3a404c",
"#6 c #3d4046",
".d c #3d4047",
"#v c #3d5358",
".f c #3f4148",
".i c #404248",
"ad c #424349",
".# c #434245",
"ag c #43434a",
"a# c #44434a",
"#f c #444448",
".j c #44444b",
"#W c #46413d",
".a c #46413e",
"#A c #470000",
".s c #474242",
"af c #474548",
".k c #47464d",
"#0 c #494649",
"#z c #4a2121",
"#j c #4a4138",
".b c #4a423a",
".t c #4a433e",
"ah c #4b4440",
".l c #4b4951",
".c c #4c423a",
".m c #4d484c",
".u c #4e4541",
"#M c #4f443c",
"#5 c #50443c",
"#U c #50453d",
"ae c #51453d",
".Q c #514743",
"#J c #51545b",
"#9 c #53463f",
"#N c #535353",
".E c #54473f",
"#Z c #544845",
".n c #544946",
".q c #554840",
".r c #554a47",
"#Y c #562f1d",
".p c #584a43",
".o c #584a44",
"ab c #584a47",
".D c #584d4d",
".v c #5a4d4b",
"#O c #5b4b44",
"aa c #5b4c48",
"#Q c #5c4b43",
"#T c #5d4b43",
".5 c #5e4d45",
"ac c #5e4d48",
"a. c #5f4f4d",
".3 c #614d45",
".w c #61514f",
"#a c #635049",
"#H c #637a82",
".4 c #644f48",
"#7 c #645352",
".x c #655451",
".F c #66514a",
".6 c #67524b",
".R c #67544f",
"#l c #68524b",
".X c #68534c",
"#k c #69534d",
".W c #69544d",
".O c #6c564f",
".Z c #6c5650",
".y c #6c5959",
".9 c #6d3300",
"#b c #6d5650",
".8 c #6e5651",
".Y c #6e5751",
".G c #6f5750",
".0 c #6f5a56",
".P c #705853",
".A c #705c5c",
".z c #705c5d",
".B c #715c5b",
"#K c #72472d",
".H c #725a55",
"#p c #735a54",
".N c #745b56",
".C c #745d59",
"#G c #750000",
"#o c #755c57",
".S c #785e5a",
"#m c #797a7c",
".V c #7a5f5b",
".T c #7a605b",
".U c #7a605c",
".7 c #7c615d",
"#e c #7d625e",
".I c #7e625e",
".M c #826663",
".K c #836663",
".L c #836764",
"#4 c #838384",
"#w c #84393a",
".J c #846763",
"#S c #870000",
"#. c #996314",
"#h c #9e99a6",
"#V c #adb2af",
"#I c #af001c",
"#y c #c46555",
"#B c #c91c23",
"#g c #ccd3d6",
"## c #d19e30",
"#n c #e5f4ff",
"#P c #ef0c23",
"#C c #f78c6b",
"#d c #f9edd6",
"#c c #fcd670",
"QtQtQtQtQtQtQtQtQtQtQtQtQtQtQtQtQtQtQt.#.a.b.b.b.b.b.b.c.b.b.b.b.b.b.b.a.d.e.f.g.f.e.h.hQtQt.f.gQt.f.e.h.f.gQtQtQtQt.f.d.a.c.c.b",
"QtQtQtQtQtQtQt.gQt.gQt.g.gQt.g.g.g.g.g.d.a.b.b.b.b.b.b.b.b.b.b.b.b.b.b.a.e.e.g.g.g.g.e.gQt.g.g.g.g.g.e.e.g.g.g.g.gQt.g.d.a.c.c.c",
".h.hQtQtQt.g.gQt.gQtQt.g.g.g.g.g.g.g.g.d.a.b.b.b.b.b.b.b.b.b.b.b.b.b.b.a.e.g.g.g.g.g.g.g.g.g.g.g.g.g.e.e.g.g.g.g.g.g.g.d.a.c.c.c",
".d.d.d.i.j.j.k.k.k.l.l.l.m.l.l.m.l.l.l.m.n.o.p.o.o.o.q.p.o.o.o.o.o.o.p.n.r.l.l.l.l.l.l.l.l.l.l.l.l.l.l.l.l.l.l.l.k.k.k.j.s.a.t.a",
".t.a.a.u.v.w.w.x.y.z.z.z.y.z.z.z.z.A.A.B.B.C.C.C.C.C.C.C.C.C.C.C.C.C.C.C.z.A.A.A.y.z.z.z.z.z.z.y.A.A.z.z.z.z.z.y.x.w.w.D.j.d.d.d",
".c.b.b.E.F.G.G.H.I.J.J.K.L.L.L.L.K.J.K.K.J.M.M.M.M.M.L.M.M.M.M.M.M.M.M.L.J.J.K.J.K.K.L.M.J.L.L.K.K.K.K.J.K.J.L.I.N.G.G.w.k.gQtQt",
".c.c.b.E.F.G.O.H.I.J.K.K.K.K.J.J.L.K.K.K.K.K.M.M.M.M.M.M.M.M.M.M.M.M.M.M.K.K.K.K.K.K.K.K.K.K.K.K.K.M.M.K.K.K.K.I.P.O.O.w.kQtQt.h",
".a.a.a.Q.R.H.H.N.S.T.T.T.T.T.T.T.U.V.S.V.U.I.U.I.V.V.V.V.V.V.V.V.V.V.V.V.V.I.V.I.I.U.I.U.I.I.I.U.V.V.V.U.I.I.U.S.N.N.H.x.k.g.gQt",
".d.d.d.m.y.I.I.S.G.W.W.W.W.W.W.W.X.X.W.G.Y.H.H.P.Z.X.X.X.X.X.X.X.X.X.W.G.H.H.H.H.H.H.H.H.H.H.H.0.Z.X.X.Z.G.H.H.H.V.M.I.y.k.g.g.f",
"Qt.1.2.l.z.J.K.T.X.3.3.3.3.3.3.3.3.3.3.4.X.G.G.x.4.3.4.3.4.3.4.3.3.3.3.4.x.Z.G.W.G.Z.Z.Z.Z.Z.Z.X.4.3.3.4.X.Z.G.H.V.M.K.B.l.g.e.e",
"QtQt.2.l.z.J.K.T.W.3.3.3.3.3.3.3.3.3.5.4.Z.G.Z.X.4.3.5.3.3.3.3.3.3.3.3.4.6.G.Z.Z.Z.Z.Z.Z.Z.Z.G.x.4.3.5.4.Z.Z.W.H.7.K.J.B.l.e.e.e",
"Qt.2Qt.l.B.J.K.T.W.3.3.3.4.3.3.4.4.F.4.F.6.Z.Z.6.4.3.4.3.3.4.3.4.4.4.4.F.Z.Z.G.Z.Z.Z.G.Z.Z.Z.G.Z.F.4.4.F.Z.Z.G.0.I.J.K.B.l.e.e.h",
"Qt.2.2.l.z.K.K.T.W.3.3.4.3.3.3.F.6.X.Z.6.F.F.4.4.4.4.3.3.3.4.3.4.X.Z.x.W.G.G.G.Z.Z.G.Z.Z.8.Z.Z.Z.W.X.Z.Z.Z.Z.Z.H.I.K.L.z.l.g.gQt",
"QtQt.2.l.z.J.K.T.W.3.3.3.3.4.3.F.Z.G.G.Z.4.3.3.4.3.3.3.4.3.3.3.4.X.G.G.Z.Z.G.Z.Z.Z.Z.G.Z.Z.8.8.Z.G.G.Z.Z.G.Z.Z.H.U.K.L.z.l.g.gQt",
"Qt.2.2.l.z.K.K.U.W.3.3.3.3.3.3.F.Z.G.G.W.F.3.3.3.3.3.3.3.3.4.3.4.Z.G.G.Z.G.Z.Z.Z.Z.Z.Z.Z.Z.8.Z.8.Z.Z.G.Z.Z.Z.G.H.I.K.L.z.l.e.g.f",
"QtQt.2.l.z.K.K.U.W.3.3.3.4.F.4.F.X.X.Z.X.4.3.3.4.3.4.3.4.4.9.9#.#.#.#..Z#.#####..G.Z.G.Z.8.Z.8.Z.Z.G.Z.Z.Z.G.Z.H.U.K.L.y.l.e.e.e",
"Qt.gQt.m.y.L.L.U.W.3.3.4.6.W.Z.6.F#a.4.4.4.3.4.3.5.3.4.9#.#.#.#.#.#.#.#.#.#b.Z.8#..8.Z.8.8.Z.Z.8.G.Z.Y.Z.Z.Z.Z.H.U.M.L.z.l.g.gQt",
"QtQtQt.l.z.L.K.U.W.3.3.F.W.G.G.W.F.3.4.3.3.3.4.3.4.3.9#.#.#####.#.#########.#b.Z.8.Z.8.Z.Z.Z.8.Z.Z.Z.Z.8.Z.Z.Z.H.I.M.M.z.l.gQtQt",
"Qt.g.g.l.z.K.K.U.W.3.3.F.Z.G.G.Z.4.3.3.3.3.4.3.3.4.9#.#.#####.#####c###c#c###..8.Z.8.8.Z.8.Z.Z.8.Z.8.Z.Y.G.Z.Z.H.U.M.M.z.m.g.gQt",
"Qt.g.g.k.z.K.K.U.W.4.4.F.X.W.Z.6.4.3.4.3.3.3.3.4.9#.#.#####c#d#c#c#c#d###c#c###..Z.Z.Z.8.Z.8.8.Z.Z.Z.8.Z.Z.Z.Z.H#e.M.M.z.l.gQtQt",
"QtQtQt.l.z.K.K.I.Y.W.W.W.F.F.4.F.3.4.3.4.4.3.3.F.9#..9###c#d#c#####c#d#d#d###.#.#..Z.8.Z.8.Z.8.8.Y.Z.8.Z.8.Z.G.H.I.K.J.z.l.g.gQt",
"QtQtQt.l.z.K.K.U.H.G.Y.Z.4.3.3.3.3.3.3.3.3.3.3.9#..9#.###d#d###d#d#c#d#c#d#c###.#..8.Z.8.Z.8.Z.Z.Z.8.Z.8.8.Z.W.H.I.K.J.z.l.e.g.h",
"QtQt.2.k.z.K.K.I.H.G.G.W.4.3.3.3.4.3.4.3.3.3.3.9.9.9###c#d###d#d#c#d#d###d###c###..8.8.Z.8.Z.Z.8.Z.8.Z.Z.Z.8.Z.H.T.K.J.z.l.g.g.h",
"Qt.2Qt.l.z.K.K.U.P.W.W.X.F.4#a.F.4.3.3.3.4.F.9.9.9#.#####d###d#c#c#d#c#c#####c###..Z.8.Z.Z.8.Z.Z#f#f#f.Z.Z.Z.Z.B.I.K.J.z.m.d.d.d",
"QtQt.2.k.z.J.J.U.O.4.4.F.W.W.O.W.F.3.3.F.6.W.Z.X#.##.9#.#c###c#c#c#d#c#c###.#c##.9.8.Z.Z.8.Z.Z#f#g#h#f.Z.Z.Z.Z.H.U.K.K.B.n.a.a.t",
"Qt.1Qt.l.z.L.K.T.W.3.3.4.W.Y.G.W.4.3.3.F.Z.G.G.X.9.9#.#.#####c#c###c#c#c###.####.9.Z.Z.8.Z.8#i#g#i#g#f.G.G.Z.Z.H.U.K.K.C.p.c#j.b",
"Qt.1.1.l.y.L.L.U#k.3.3.4.O.Y.Y.W.F.3.3.4.Z.G.G.9.9#.#.#.###.###c###c#c###.#.###f#f#f#i.Z.8#i#f#h#g#f.Z.Z.Z.Z.Z.H.I.K.K.H.p#j.b.b",
".d.d.d.m.z.K.L.U.W.4.4.F.W.W.W#l.4.3.3.4.X.W.W.X.F.9#.#.#.#.###c#######f#f#h#g#f#i.Z.8.8#i#h#m#i.Z.8.Z.G.Z.Z.Z.H.I.K.K.B.p.b.b.b",
".a.a.a.n.B.J.L.U.P.W.W.W.F.F.F.4.3.3.3.4.F.4.F.F.6.W#..9#.#..9#######f#f#h#n#f#i.8.Z.8#i#f#f#i.Z.8.Z.Z.8.Z.Z.Z.H.I.M.M.C.p.b.b.b",
".b.b#j.p#o.K.L.U#p.Y.Y.W.F.3.3.4.3.4.3.4.3.3.3.4.Z#q.9#..9#..9#.###f#m#g#n#g#i.8.Z.8#i#f#h#i.Z.8.Z.8.8.Z.Z.Z.Z.H.U.M.M.C.p.b.b.b",
".b.b.b.p#o.K.K.I.H.Y.O.W#a.3.3.3.3.3.4.3.3.3.3.F#q#r#q#r.9.9#..9#f#m#g#n#g#f#r#r.Z#f#f#h#f.8.8.Z.Z.8.Z.8.Z.Z.G.H.I.M.M.C.q.b.b.b",
".c.b.b.p#o.K.K.U.H.O.G.W.F.3.3.3.4.3.3.3.3.4.3#s#t#r#q#r#r.9.9#f#f#g#n#n#m#i#i#i#m#h#f#f#i.Z.Z.Z.8.Z.8.Z.G.Z.Z.H.U.M.M.C.o#j.b.b",
".b.b.b.p.B.K.K.I.H.Z.G.W.4.4.3.4.3.4.4.3.3.3.3#r#u#t#q#r#t#t.9#f#h#n#n#m#f#m#m#m#f#m#h#i.Z.Z.Z.8.Z.8.Z.8.Z.Z.Z.H.U.M.M.C.o.b.b.b",
".c.b#j.p.N.K.K.U.H.Z.G.X.4.3.3.3.3.3.3.3.4.3.4#r#t#t#r#q#r#t#t#h#n#n#g#f#g#h#f#f#m#h#h#i.Z.8.8.Z.8.Z.Z.Z.G.Z.Z.H.U.M.K.C.o.b.b.b",
".c#j.b.p.C.K.K.I.H.G.G.Z.F.3.3.3.4.3.3.4.3.3#r#t#r#q#q#q#r#t#f#n#n#n#m#n#h#i#i#i#f#g#m.Z.8.Z.8.Z.8.Z.8.Z.Z.Z.Z.H#e.M.M.C.p.b.b.c",
".a.a.a.n.B.K.K.V.0.X.W.X.4.3.4.3.3.3.3.4.4.4#r#v#v#t#q#q#r#f#g#n#h#h#n#i#i#i#i#i#n#h#i.8.Z.8.Z.8.Z.8.Z.8.Z.G.Z.H#e.M.M.z.n.a.a.a",
".d.d.e.r.z.J.J.I.W.4.F.4.4.3.3.3.4.3.4.4.6.x#w#r#r#r#q#q#f#h#n#g#m#g#m#i#i#i#i#h#g#m#i#i#i.Z.Z.Z.8.Z.8.Z.Z.Z.G.H.I.K.J.z.m.d.d.d",
"Qt.g#x.l.z.L.K.S.X.3.3.3.3.4.3.4.3.3.3.4.Z.G#w#y#z#r#A#A#m#n#n#h#f#g#h#i#i#i#h#n#i#i#f#i#B.G.Z.Z.8.Z.Z.8#b#b.W.H.U.K.K.z.lQtQtQt",
"Qt.g#x.l.z.L.M.U.X.3.3.4.3.3.3.4.3.3.3.4.6#w#y#C#w#z#A#f#h#n#n#f#n#h#i#h#m#n#g#f#f#m#f#i#i.G.Z.0.Z.8.Z.Z#b.G.Z.H.I.K.L.z.l.2QtQt",
".d.d.e.m.z.L.M.U.X.3.3.3.4.3.3.3.4.F.4.6.Z#w#C#C#w#D#D#m#g#n#m#n#n#i#g#h#g#h#m#f#i#E#f#B#i.Z.Z.8.8.Z.8.Z.Z.x.W.0.U.K.M.y.l.2QtQt",
".t.a.a.n.B.K.K.S.X.4.3.3.3.4.4.4.X.W.Z.x.G#z#y#w#D#A#f#m#g#f#f#n#i#n#n#h#f#i#f#i#E#F#m#i.Z.Z.G.Z.G.Z.G.O.F.F.F.W.U.K.J.z.lQtQtQt",
".b.b#j.p#o.J.J.S.X.3.3.4.3.3.3.4.Z.G.Z.Z.G#z#z#D#A#G#f#m#f#m#n#i#n#n#h#f#i#i#f#i#m#m#i#H.Z.G.Z.Z.Z.G.G.W.F.3.3.W.T.K.L.z.lQtQtQt",
".c.b#j.p.C.M.J.T.X.4.3.3.3.4.5.4.X.G.Z.G.G#z#A#A#G#f#m#h#n#n#i#n#f#A#I#I#i#m#m#J#i#r#K#A.Z.Z.Z.Z.Z.G.G.W.F.3.3.W.T.K.K.z.k.g.1Qt",
".b.b.b.p.C.K.K.T.X.3.3.4.4.4.4.6.Z.G.Z.Z.Z#A#A#G#f#h#g#n#n#i#n#f#I#A#A#i#f#f#i#A#A#A#A.Z.Z.Z.Z.Z.W.W.W.F.3.p.o.6.T.K.K.y.l.g.gQt",
".b.b.b.o.C.M.M.V.X.4.3.4.X.X.Z.X.Z.Z.G.Z#A#A#G#f#h#n#n#n#i#n#n#I#G#A#A#A#I#I#G#G#A#A#L.Z.8.Z.G.Z.6.F.F.5.E#M#M.5.C.J.J.z.mQtQtQt",
".b.b.b.o.C.K.M.V.X.3.3.4.Z.Z.G.Z.Z.Z.G#L#A#f#h#g#n#n#n#i#n#n#f#I#G#I#A#A#A#A#G#G#A#L#N#L.8#b.G.W#a.3.3#O#M.b.b.q.C.K.J.z.l.hQtQt",
".b.b.b.o.C.M.M.V.X.3.5.4.X.G.G.Z.G.Z#N#L#m#n#n#n#g#f#i#n#n#h#P#I#G#I#I#A#A#A#A#A#A#L#N#L.8.G.G.Z.F.3.3.5#M.b.b.o.C.K.K.z.k.2.1Qt",
".a.a.a.r.C.M.M.U.Z.4.4.6.Z.G.G.G.x.Z#N#h#n#n#h#i#i#i#f#n#g#f#P#I#G#G#I#P#G#G#G#A#A#A#A#A.Z.x.W.6.F.3.3#Q#M.b.b.o.C.K.J.z.l.2QtQt",
".d.d.e.r.z.J.K.U.P.X.X.Z.Z.Z.Z.Z.F.4#m#n#n#h#i#i#R#i#g#g#f#P#P#I#G#G#I#I#A#G#I#I#A#A#A#A#A#A.F.F.3.4.3.5#M.b.b.n.C.J.J.B.l.g.gQt",
"Qt.g#x.l.z.J.K.I.H.G.Z.G.Z.G.G.X.F#f#g#n#h#i#i#G#i#i#n#h#P#P#P#I#G#G#I#I#P#A#G#I#I#A#A#A#A#A#A.3.3.3.3#Q#M.b.b.q.C.J.J.z.l.gQtQt",
"Qt.g#x.l.z.M.M.U.H.G.G.Z.G.G.G.Z.4#g#n#h#i#i#i#i#h#n#h#I#P#P#P#I#G#S#I#I#P#P#A#G#I#I#P#A#A#A#A#A.3.3.3#T#U.b.b.n.C.J.J.z.l.g.gQt",
".d.d.e.m.z.M.M.I.H.O.W.G.W.W.x.6.F#n#g#m#i#i#i#h#n#g#f#I#P#P#P#I#G#G#G#I#I#P#V#A#G#I#I#P.4#A#A#A#A.F.F.3.q#M#M.5.C.J.K.B.m.d.d.d",
".t.a#W.n.C.K.M.I.H.Z.G.W.6.F.4.4#f#n#g#m#m#h#n#n#g#f#m#m#P#P#P#I#G#G#G#m#V#V#N#N#A#G#A#I#P.3#A#A#A.W.Z.6.5.o#Q.F.T.K.K.B.n.a.a.a",
".b.b#j.p.C.K.M.I.H.Z.G.Z.4.3.3.3#m#n#g#g#g#n#n#h#f#L#L#L#V#V#m#N#N#m#m#N#N#N#V#V#V#A#G#A#I#P.3#A#A#N.G.W.F.3.3.W.T.K.K.C.p.b.c.c",
".c.c#j.p.C.M.M#e.H.Z.G.W.4.3.3#f#h#n#n#n#n#h#f#f#m#m#m#m#L#L#L#L#L#L#L#m#V#V.G.W.F.3#A#G#I#I#V#A#A#A#N.Z.F.3.3.W.T.K.K.C.p#j#j.c",
".a.a.a.n.H.I.I.C.Y.X.W.X.4.4.3#f#g#n#g#g#m#f.G.O.Z#X#Y#K#V#V#m#N#N#m#m#X#X#X.W.X.F.3.3#A#L.4#V#N#A.O#N.6.3#Q#Q.F#o.I.I.0#Z.a.a.t",
".#.d.e#0.x.H.H.G.X.F.4.4.4.4#f#m#g#h#m#f.G.G#1#1#1#X#X#2#J#X#X#1#3#Y#K#K#Y#X#1#1#1#1.4#N#A#L#4#V#N#J#N.5.E#M#5.p.W#o#o.R#0#6.d.d",
".e.g.g.k#7.G.G.Z.4.4.3.4.3.3#f#h#m#f#1#1#1#1#1#1#1#X#Y#X#X#Y#X#1#X#8#8#8#8#X#1#1#1#1#1#1#N#4#4#V.F#N#N#T#5.b#j#9.F.G.O.w.k.1QtQt",
".e.e.e.ka..G.G.X.4.4.3.3.3.4.3.4#1#1#1#1#1#1#1#1#1#X#X#K#K#X#8#1#i#X#X#X#X#i#1#1#1#1#1#1#1#N#4#V.4.4.3.5#5.b.b#9.F.Y.Y.w.k.1QtQt",
".e.f.da#.v.6.4.4.v.n.oaa#Q.3#O#1#1#1#1#1#1#1#1#1#1#X#Y#2#2#Y#8#1#X#X#X#X#X#X#1#1#1#1#1#1#1#1#1#1#1.oab#Z#M.a.a.Qac.F.R.vad.1QtQt",
".t.a.a.tae.E.E.Qafaga#ah#Mae#1#1#1#1#1#1#1#1#1#1#X#X#2#K#Kai#8#8#X#8#2#2#8#X#1#1#1#1#1#1#1#1#1#1#1#1a#.i.i.d.d.#.u.E.q.u.fQtQtQt",
".b.c.c.c.b.b.b#W.e.e.e.e.a#1#1#1#1#1#1#1#1#1#1#1#X#X#8#2#N#2#8#8#X#8#2#2#2#X#1#1#1#1#1#1#1#1#1#1#1#1#1Qt.h.h.h.d.a.b.b.a.dQtQtQt",
".c.c.c.c.b.c.b.t.#.e.e.f.a#1#1#1#1#1#1#1#1#1#1#1#X#8#2#J#4#J#2#8#1#i#X#X#i#1#1#1#1#1#1#1#1#1#1#1#1#1#1QtQt.h.h.d.a.c.b.a.d.h.hQt",
".b.b.c.b.b.c.b.t.e.e.g.e.t#1#1#1#1#1#1#1#1#1#1#1#i#8#J#4#4#4#J#8#1#1#1#1#1#1#1#1#1#1#1#1#1#1#1#1#1#1#1QtQtQt.h.d.a.c.c.a.dQtQtQt",
"QtQtQtQtQtQtQtQtQtQtQtQtQt#1#1#1#1#1#1#1#1#1#1#1#1#X#2#J#J#J#8#1#1#1#1#1#1#1#1#1#1#1#1#1#1#1#1#1#1#1#1.h.f.gQtQtQtQt.f.d.a.c.c.b",
"QtQtQtQtQtQtQt.gQt.gQt.g.gQt#1#1#1#1#1#1#1#1#1#1#1#1#1#1#1#1#1#1#1#1#1#1#1#1#1#1#1#1#1#1#1#1#1#1#1#1.e.e.g.g.g.g.gQt.g.d.a.c.c.c",
".h.hQtQtQt.g.gQt.gQtQt.g.g.g.g#1#1#1#1#1#1#1#1#1#1#1#1#1#1#1#1#1#1#1#1#1#1#1#1#1#1#1#1#1#1#1#1#1#1.g.e.e.g.g.g.g.g.g.g.d.a.c.c.c",
".d.d.d.i.j.j.k.k.k.l.l.l.m.l.l.m#1#1#1#1#1#1#1#1#1#1#1#1#1#1#1#1#1#1#1#1#1#1#1#1#1#1#1#1#1#1#1#1.l.l.l.l.l.l.l.l.k.k.k.j.s.a.t.a",
".t.a.a.u.v.w.w.x.y.z.z.z.y.z.z.z.z.A#1#1#1#1#1#1#1#1#1#1#1#1#1#1#1#1#1#1#1#1#1#1#1#1#1#1#1#1.z.y.A.A.z.z.z.z.z.y.x.w.w.D.j.d.d.d",
".c.b.b.E.F.G.G.H.I.J.J.K.L.L.L.L.K.J.K.K.J.M#1#1#1#1#1#1#1#1#1#1#1#1#1#1#1#1#1#1#1#1.L.M.J.L.L.K.K.K.K.J.K.J.L.I.N.G.G.w.k.gQtQt",
".c.c.b.E.F.G.O.H.I.J.K.K.K.K.J.J.L.K.K.K.K.K.M.M.M.M.M.M.M.M.M.M.M.M.M.M.K.K.K.K.K.K.K.K.K.K.K.K.K.M.M.K.K.K.K.I.P.O.O.w.kQtQt.h",
".a.a.a.Q.R.H.H.N.S.T.T.T.T.T.T.T.U.V.S.V.U.I.U.I.V.V.V.V.V.V.V.V.V.V.V.V.V.I.V.I.I.U.I.U.I.I.I.U.V.V.V.U.I.I.U.S.N.N.H.x.k.g.gQt",
".d.d.d.m.y.I.I.S.G.W.W.W.W.W.W.W.X.X.W.G.Y.H.H.P.Z.X.X.X.X.X.X.X.X.X.W.G.H.H.H.H.H.H.H.H.H.H.H.0.Z.X.X.Z.G.H.H.H.V.M.I.y.k.g.g.f",
"Qt.1.2.l.z.J.K.T.X.3.3.3.3.3.3.3.3.3.3.4.X.G.G.x.4.3.4.3.4.3.4.3.3.3.3.4.x.Z.G.W.G.Z.Z.Z.Z.Z.Z.X.4.3.3.4.X.Z.G.H.V.M.K.B.l.g.e.e",
"QtQt.2.l.z.J.K.T.W.3.3.3.3.3.3.3.3.3.5.4.Z.G.Z.X.4.3.5.3.3.3.3.3.3.3.3.4.6.G.Z.Z.Z.Z.Z.Z.Z.Z.G.x.4.3.5.4.Z.Z.W.H.7.K.J.B.l.e.e.e",
"Qt.2Qt.l.B.J.K.T.W.3.3.3.4.3.3.4.4.F.4.F.6.Z.Z.6.4.3.4.3.3.4.3.4.4.4.4.F.Z.Z.G.Z.Z.Z.G.Z.Z.Z.G.Z.F.4.4.F.Z.Z.G.0.I.J.K.B.l.e.e.h",
"Qt.2.2.l.z.K.K.T.W.3.3.4.3.3.3.F.6.X.Z.6.F.F.4.4.4.4.3.3.3.4.3.4.X.Z.x.W.G.G.G.Z.Z.G.Z.Z.8.Z.Z.Z.W.X.Z.Z.Z.Z.Z.H.I.K.L.z.l.g.gQt",
"QtQt.2.l.z.J.K.T.W.3.3.3.3.4.3.F.Z.G.G.Z.4.3.3.4.3.3.3.4.3.3.3.4.X.G.G.Z.Z.G.Z.Z.Z.Z.G.Z.Z.8.8.Z.G.G.Z.Z.G.Z.Z.H.U.K.L.z.l.g.gQt",
"Qt.2.2.l.z.K.K.U.W.3.3.3.3.3.3.F.Z.G.G.W.F.3.3.3.3.3.3.3.3.4.3.4.Z.G.G.Z.G.Z.Z.Z.Z.Z.Z.Z.Z.8.Z.8.Z.Z.G.Z.Z.Z.G.H.I.K.L.z.l.e.g.f",
"QtQt.2.l.z.K.K.U.W.3.3.3.4.F.4.F.X.X.Z.X.4.3.3.4.3.4.3.4.4.F.4.6.X.X.Z.Z.Z.Z.Z.G.G.Z.G.Z.8.Z.8.Z.Z.G.Z.Z.Z.G.Z.H.U.K.L.y.l.e.e.e",
"Qt.gQt.m.y.L.L.U.W.3.3.4.6.W.Z.6.F#a.4.4.4.3.4.3.5.3.4.4.6.Z.Z.6.F.F.F.F.x#b.Z.8.Z.8.Z.8.8.Z.Z.8.G.Z.Y.Z.Z.Z.Z.H.U.M.L.z.l.g.gQt",
"QtQtQt.l.z.L.K.U.W.3.3.F.W.G.G.W.F.3.4.3.3.3.4.3.4.3.3.4.X.G.G.X.4.3.5.F.Z#b#b.Z.8.Z.8.Z.Z.Z.8.Z.Z.Z.Z.8.Z.Z.Z.H.I.M.M.z.l.gQtQt",
"Qt.g.g.l.z.K.K.U.W.3.3.F.Z.G.G.Z.4.3.3.3.3.4.3.3.4.3.3.4.Z.Y.Y.Z.4.3.3#a.W.Y.Z.8.Z.8.8.Z.8.Z.Z.8.Z.8.Z.Y.G.Z.Z.H.U.M.M.z.m.g.gQt",
"Qt.g.g.k.z.K.K.U.W.4.4.F.X.W.Z.6.4.3.4.3.3.3.3.4.4.4.4.6.X.X.Z.X.F.4#a.F.Z.Z.8.Z.Z.Z.Z.8.Z.8.8.Z.Z.Z.8.Z.Z.Z.Z.H#e.M.M.z.l.gQtQt",
"QtQtQt.l.z.K.K.I.Y.W.W.W.F.F.4.F.3.4.3.4.4.3.3.F.6.Z.X.6.F.4.4.F.W.W.W.W.Z.8.Z.8.8.Z.8.Z.8.Z.8.8.Y.Z.8.Z.8.Z.G.H.I.K.J.z.l.g.gQt",
"QtQtQt.l.z.K.K.U.H.G.Y.Z.4.3.3.3.3.3.3.3.3.3.3#a.Z.G.G.Z.4.3.3.F.W.G.Y.Y.Z.8.8.Z.Z.8.Z.8.Z.8.Z.Z.Z.8.Z.8.8.Z.W.H.I.K.J.z.l.e.g.h",
"QtQt.2.k.z.K.K.I.H.G.G.W.4.3.3.3.4.3.4.3.3.3.3.F.W.G.G.Z.F.5.3.4.W.Z.G.G.Z.Z.Z.8.Z.8.8.Z.8.Z.Z.8.Z.8.Z.Z.Z.8.Z.H.T.K.J.z.l.g.g.h",
"Qt.2Qt.l.z.K.K.U.P.W.W.X.F.4#a.F.4.3.3.3.4.F.4.F.X.Z.X.X.F.4.4#a.Z.G.Z.G.8.Z.8.Z.8.Z.8.Z.Z.8.Z.Z.Y.Z.8.Z.Z.Z.Z.B.I.K.J.z.m.d.d.d",
"QtQt.2.k.z.J.J.U.O.4.4.F.W.W.O.W.F.3.3.F.6.W.Z.X.6.F.4.F.X.Z.W.Z.Z.Z.Z.Z.Z.Z.Z.Z.Z.8.Z.Z.8.Z.Z.8.8.Z.Z.Z.Z.Z.Z.H.U.K.K.B.n.a.a.t",
"Qt.1Qt.l.z.L.K.T.W.3.3.4.W.Y.G.W.4.3.3.F.Z.G.G.X.4.3.3.4.X.G.G.G.Z.Z.G.Z.0.Z.G.Z.8.Z.Z.8.Z.8.8.Z.Z.Z.8.G.G.Z.Z.H.U.K.K.C.p.c#j.b",
"Qt.1.1.l.y.L.L.U#k.3.3.4.O.Y.Y.W.F.3.3.4.Z.G.G.W.F.3.3.4.x.G.8.8.G.Z.Z.Z.Z.Z.Z.Z.Z.8.Z.Z.8.Z.Z.8.8.Z.Z.Z.Z.Z.Z.H.I.K.K.H.p#j.b.b",
".d.d.d.m.z.K.L.U.W.4.4.F.W.W.W#l.4.3.3.4.X.W.W.X.F.4.4.6.Z.8.Z.Z.Z.Z.G.Z.G.Z.G.Z.8.Z.8.8.Z.8.8.Z.Z.8.Z.G.Z.Z.Z.H.I.K.K.B.p.b.b.b",
".a.a.a.n.B.J.L.U.P.W.W.W.F.F.F.4.3.3.3.4.F.4.F.F.6.W.Z.Z.Z.Z.Z.8#b.Z.Z.8.Z.G.Z.Z.8.Z.8.Z.8.Z.8.Z.8.Z.Z.8.Z.Z.Z.H.I.M.M.C.p.b.b.b",
".b.b#j.p#o.K.L.U#p.Y.Y.W.F.3.3.4.3.4.3.4.3.3.3.4.Z.G.G.Z.Z.Z.G.Z#b.Z.8.Z.Z.Z.Z.8.Z.8.Z.8.Z.8.Z.8.Z.8.8.Z.Z.Z.Z.H.U.M.M.C.p.b.b.b",
".b.b.b.p#o.K.K.I.H.Y.O.W#a.3.3.3.3.3.4.3.3.3.3.F.X.Z.Z.Z.Z.Z.Z.Y#b.8.Z.8.Z.Z.8.Z.Z.Z.Z.8.Z.8.8.Z.Z.8.Z.8.Z.Z.G.H.I.M.M.C.q.b.b.b",
".c.b.b.p#o.K.K.U.H.O.G.W.F.3.3.3.4.3.3.3.3.4.3.F.Z.G.G.Z.Z.Z.Z.Z.8.Z.8.Z.8.8.Z.8.8.Z.8.Z.8.Z.Z.Z.8.Z.8.Z.G.Z.Z.H.U.M.M.C.o#j.b.b",
".b.b.b.p.B.K.K.I.H.Z.G.W.4.4.3.4.3.4.4.3.3.3.3.4.Z.8.8.8.G.Z.Z.Y.Z.8.Z.8.Z.Z#b#b.Z.8.Z.8.Z.Z.Z.8.Z.8.Z.8.Z.Z.Z.H.U.M.M.C.o.b.b.b",
".c.b#j.p.N.K.K.U.H.Z.G.X.4.3.3.3.3.3.3.3.4.3.4.4.x.8.Z.Z.Z.Y.Z.Z.8.Z.8#b.8.Z#b#b.8.Z.8.Z.Z.8.8.Z.8.Z.Z.Z.G.Z.Z.H.U.M.K.C.o.b.b.b",
".c#j.b.p.C.K.K.I.H.G.G.Z.F.3.3.3.4.3.3.4.3.3.3.F.X.G.8.Z.8.Z.Z.Z.Z.Z#b#b#b#b#b#b.Z.8.8.Z.8.Z.8.Z.8.Z.8.Z.Z.Z.Z.H#e.M.M.C.p.b.b.c",
".a.a.a.n.B.K.K.V.0.X.W.X.4.3.4.3.3.3.3.4.4.4.4.6.W.G.8.Z.8.Z.G.Z.8.Z#b#b#b#b#b#b.Z.8.Z.8.Z.8.Z.8.Z.8.Z.8.Z.G.Z.H#e.M.M.z.n.a.a.a",
".d.d.e.r.z.J.J.I.W.4.F.4.4.3.3.3.4.3.4.4.6.x.W.W.G.G.Z.Z.Z.Z.G.Z.G.Z.Z.Z#b.Z.8.Z.Z.Z.8.Z.Z.Z.Z.Z.8.Z.8.Z.Z.Z.G.H.I.K.J.z.m.d.d.d",
"Qt.g#x.l.z.L.K.S.X.3.3.3.3.4.3.4.3.3.3.4.Z.G.G.G.Z.Z.Z.G.Z.G.Z.Z.Z.Z.G.Z#b.8#b.Z.8.Z.Z.8.Z.G.Z.Z.8.Z.Z.8#b#b.W.H.U.K.K.z.lQtQtQt",
"Qt.g#x.l.z.L.M.U.X.3.3.4.3.3.3.4.3.3.3.4.6.G.Z.G.G.G.Z.G.Z.Z.Z.Z.Z.Y.G.G#b#b#b#b.Z.8.Z.G.Z.G.Z.0.Z.8.Z.Z#b.G.Z.H.I.K.L.z.l.2QtQt",
".d.d.e.m.z.L.M.U.X.3.3.3.4.3.3.3.4.F.4.6.Z.G.Z.G.W.X.x.Z.Z.Z.G.G.Z.Z.x.Z.Z#b#b#b.G.Z.Z.Z.Z.Z.Z.8.8.Z.8.Z.Z.x.W.0.U.K.M.y.l.2QtQt",
".t.a.a.n.B.K.K.S.X.4.3.3.3.4.4.4.X.W.Z.x.G.Z.Z.X.6.4.4.6.Z.G.G.Z#a#a.F.F.W.G.Z.Z.Z.Z.Z.Z.Z.Z.G.Z.G.Z.G.O.F.F.F.W.U.K.J.z.lQtQtQt",
".b.b#j.p#o.J.J.S.X.3.3.4.3.3.3.4.Z.G.Z.Z.G.G.G.W.4.3.3.4.X.G.G.X#a.3.3.F.W.G.G.Z.Z.G.Z.G.Z.G.Z.Z.Z.G.G.W.F.3.3.W.T.K.L.z.lQtQtQt",
".c.b#j.p.C.M.J.T.X.4.3.3.3.4.5.4.X.G.Z.G.G.G.G.Z.4.5.4.4.x.G.G.O.3.3.3.4.x.G.Z.8.Z.8.Z.8.Z.Z.Z.Z.Z.G.G.W.F.3.3.W.T.K.K.z.k.g.1Qt",
".b.b.b.p.C.K.K.T.X.3.3.4.4.4.4.6.Z.G.Z.Z.Z.X.Z.6.F.4.4.6.X.O.X.X.F.F#a.F.Z.8.8.Z.Z.Z.8.Z.Z.Z.Z.Z.W.W.W.F.3.p.o.6.T.K.K.y.l.g.gQt",
".b.b.b.o.C.M.M.V.X.4.3.4.X.X.Z.X.Z.Z.G.Z.6.4.4.F.6.W.Z.X.F.4.4.6.W.W.W.Z.Z.Z.Z.8.8.Z.8.Z.8.Z.G.Z.6.F.F.5.E#M#M.5.C.J.J.z.mQtQtQt",
".b.b.b.o.C.K.M.V.X.3.3.4.Z.Z.G.Z.Z.Z.G.X.4.5.3.4.Z.Z.G.X.F.3.3.4.W.G.G.Z.Z.Z.G.Z.Z.8.Z.Z.8#b.G.W#a.3.3#O#M.b.b.q.C.K.J.z.l.hQtQt",
".b.b.b.o.C.M.M.V.X.3.5.4.X.G.G.Z.G.Z.G.Z.4.3.3.4.Z.G.G.Z.4.3.5.4.W.G.Z.Z.Z.Z.Z.Z.8.Z.8.8.8.G.G.Z.F.3.3.5#M.b.b.o.C.K.K.z.k.2.1Qt",
".a.a.a.r.C.M.M.U.Z.4.4.6.Z.G.G.G.x.Z.X.X.6.4.4.6.6.Z.X.X.F.4.4.F.G.G.G.Z.G.Z.G.Z.Z.8.Z.Z.Z.x.W.6.F.3.3#Q#M.b.b.o.C.K.J.z.l.2QtQt",
".d.d.e.r.z.J.K.U.P.X.X.Z.Z.Z.Z.Z.F.4.4.F.6.W.Z.6.F.F.4.F.X.Z.W.Z.Z.Z.8.Z.Z.Z.Z.Z.G.Z.G.G.F.F.F.F.3.4.3.5#M.b.b.n.C.J.J.B.l.g.gQt",
"Qt.g#x.l.z.J.K.I.H.G.Z.G.Z.G.G.X.F.3.3.F.W.G.Z.Z.4.5.3.4.X.G.G.G.8.8.Z.8.8.G.Z.Z.Z.Z.G.W.4.3.3.3.3.3.3#Q#M.b.b.q.C.J.J.z.l.gQtQt",
"Qt.g#x.l.z.M.M.U.H.G.G.Z.G.G.G.Z.4.3.3.4.W.G.G.W.F.3.3.4.x.G.8.8.Z.Z.8.Z.Z.8.Z.G.Z.G.G.W.F.3.3.3.3.3.3#T#U.b.b.n.C.J.J.z.l.g.gQt",
".d.d.e.m.z.M.M.I.H.O.W.G.W.W.x.6.F.3.3.F.W.G.G.Z.F.4.4.6.Z.8.Z.Z.Z.8.Z.Z.8.Z.Z.Z.W.x.W.X.4.3.3.3.F.F.F.3.q#M#M.5.C.J.K.B.m.d.d.d",
".t.a#W.n.C.K.M.I.H.Z.G.W.6.F.4.4.4.3.3.F.W.G.G.W.W.W.Z.Z.Z.Z.Z.8.8.Z.8.Z.Z.G.Z.Z#l.4.4.4.4.3.3.F#l.W.Z.6.5.o#Q.F.T.K.K.B.n.a.a.a",
".b.b#j.p.C.K.M.I.H.Z.G.Z.4.3.3.3.3.3.3.F.Z.Z.G.Z.G.G.8.Z.Z.Z.Z.8.8.Z.8.8.Z.G.G.X.F.3.3.3.3.3.3.F.W.G.G.W.F.3.3.W.T.K.K.C.p.b.c.c",
".c.c#j.p.C.M.M#e.H.Z.G.W.4.3.3.4.3.3.3#a.R.G.Z.G.G.Z.G.G.Z.Z.Z.Z.G.G.Z.8.G.G.G.W.F.3.3.3.3.3.3.F.W.G.G.Z.F.3.3.W.T.K.K.C.p#j#j.c",
".a.a.a.n.H.I.I.C.Y.X.W.X.4.4.3.3.4.4.F.6.W.Z.G.O.Z.Z.Z.Z.Z.Z.8.Z.W.W.x.Z.O.W.W.X.F.3.3.4.4.4.F.F.W.O.W.6.3#Q#Q.F#o.I.I.0#Z.a.a.t",
".#.d.e#0.x.H.H.G.X.F.4.4.4.4.3.4.X.W.O.W.G.G.G.G.Z.Z.Z.Z.Z.G.G.O.6.4.F.F.4.F.F.4.3.3.4.4#l.O.W.X.F.F.F.5.E#M#5.p.W#o#o.R#0#6.d.d",
".e.g.g.k#7.G.G.Z.4.4.3.4.3.3.4.4.W.G.G.G.G.G.G.O.G.G.G.G.G.G.G.W.F.3.3.3.3.3.3.3.4.3.3.F.O.O.G.O.F.3.3#T#5.b#j#9.F.G.O.w.k.1QtQt",
".e.e.e.ka..G.G.X.4.4.3.3.3.4.3.4.O.G.G.G.Z.G.G.G.G.G.G.G.Z.G.G.W.4.3.3.4.3.4.4.3.4.3.3.F.O.G.G.W.4.4.3.5#5.b.b#9.F.Y.Y.w.k.1QtQt",
".e.f.da#.v.6.4.4.v.n.oaa#Q.3#O#O.v#7a..w.w.F#a.w.wa..w.w.F.w.F.4.5#O#O#O#Q#Q#Q#Q#Q#Q#Q.5.4a.#7.v.v.oab#Z#M.a.a.Qac.F.R.vad.1QtQt",
".t.a.a.tae.E.E.Qafaga#ah#Maeae.u#0.k.j#0.Q.E.E.Q#0.k.k.j.Q#U.q.Q#U#U#U#U#U#U#U#U#U#U#U.u#0.k.k.j.ja#a#.i.i.d.d.#.u.E.q.u.fQtQtQt",
".b.c.c.c.b.b.b#W.e.e.e.e.a.b.c.a.dQt#x#6.a.b.b.a.d#x.g.d.a.b.b.b.c.c.t.b.c.b.b.c.b.b.c.a.d.g.g.g.gQtQtQt.h.h.h.d.a.b.b.a.dQtQtQt",
".c.c.c.c.b.c.b.t.#.e.e.f.a.c.c.a.dQtQt.d.a#j.b.a.d.hQt.d.a.c.b.b.b.c.b.b.b.b.c.b.b.b.b.a.d.g.gQtQtQtQtQtQt.h.h.d.a.c.b.a.d.h.hQt",
".b.b.c.b.b.c.b.t.e.e.g.e.t.c.c.a.dQtQt.d.a.c.b.a.d.hQt.d.a.c.c.c.c.b.c.b.c.c.b.c.c.b.b.t.dQtQtQtQtQtQtQtQtQt.h.d.a.c.c.a.dQtQtQt"};
