/* XPM */
static char *dummy[]={
"64 64 123 2",
"Qt c None",
".N c #000000",
".Q c #000000",
".R c #000000",
"#J c #000000",
".S c #000000",
"#y c #000000",
".T c #000000",
".W c #000000",
".4 c #000000",
".X c #000000",
"#3 c #000000",
"#4 c #000000",
".V c #000000",
".Y c #000000",
"#o c #000000",
"#d c #000000",
"#M c #000000",
".5 c #000000",
".Z c #000000",
"#z c #000000",
"#H c #000000",
".0 c #000000",
".6 c #000000",
".1 c #000000",
"#e c #000000",
"#n c #000000",
".3 c #000000",
".7 c #000000",
"#Y c #000000",
"#p c #000000",
"#Z c #000000",
"#0 c #000000",
"#1 c #000000",
"#2 c #000000",
".2 c #000000",
"#c c #000000",
"#f c #000000",
"#N c #000000",
".8 c #000000",
"#b c #000000",
"#A c #000000",
"#I c #000000",
".9 c #000000",
"#g c #000000",
"#q c #000000",
"#. c #000000",
"#a c #000000",
"#h c #000000",
"#O c #000000",
"#V c #000000",
"#W c #000000",
"#r c #000000",
"#i c #000000",
"#X c #000000",
"#B c #000000",
"## c #000000",
"#j c #000000",
"#s c #000000",
"#k c #000000",
"#l c #000000",
"#P c #000000",
"#C c #000000",
"#t c #000000",
"#Q c #000000",
"#R c #000000",
"#S c #000000",
"#u c #000000",
"#T c #000000",
"#U c #000000",
"#v c #000000",
"#w c #000000",
"#x c #000000",
"#D c #000000",
"#K c #000000",
"#E c #000000",
"#L c #000000",
"#F c #000000",
"#G c #000000",
".l c #001111",
".k c #002b2b",
".x c #005477",
".o c #005e7f",
".m c #007faa",
".z c #00e200",
".h c #080808",
".I c #0f0e11",
".w c #190000",
".p c #1e424f",
".F c #212828",
".O c #260c0c",
".U c #26252c",
".P c #35353a",
"#m c #35383f",
".q c #3d5358",
".e c #444448",
".r c #470000",
".E c #4a2121",
".D c #51545b",
".H c #535353",
".L c #562f1d",
".y c #637a82",
".# c #6d3300",
".n c #72472d",
".C c #750000",
".i c #797a7c",
".M c #838384",
".u c #84393a",
".J c #870000",
".A c #946c45",
".a c #996314",
".g c #9e99a6",
".K c #adb2af",
".B c #af001c",
".t c #c46555",
".v c #c91c23",
".f c #ccd3d6",
".b c #d19e30",
".j c #e5f4ff",
".G c #ef0c23",
".s c #f78c6b",
".d c #f9edd6",
".c c #fcd670",
"QtQtQtQtQtQtQtQtQtQtQtQtQtQtQtQtQtQtQtQtQtQtQtQtQtQtQtQtQtQtQtQtQtQtQtQtQtQtQtQtQtQtQtQtQtQtQtQtQtQtQtQtQtQtQtQtQtQtQtQtQtQtQtQt",
"QtQtQtQtQtQtQtQtQtQtQtQtQtQtQtQtQtQtQtQtQtQtQtQtQtQtQtQtQtQtQtQtQtQtQtQtQtQtQtQtQtQtQtQtQtQtQtQtQtQtQtQtQtQtQtQtQtQtQtQtQtQtQtQt",
"QtQtQtQtQtQtQtQtQtQtQtQtQtQtQtQtQtQtQtQtQtQtQtQtQtQtQtQtQtQtQtQtQtQtQtQtQtQtQtQtQtQtQtQtQtQtQtQtQtQtQtQtQtQtQtQtQtQtQtQtQtQtQtQt",
"QtQtQtQtQtQtQtQtQtQtQtQtQtQtQtQtQtQtQtQtQtQtQtQtQtQtQtQtQtQtQtQtQtQtQtQtQtQtQtQtQtQtQtQtQtQtQtQtQtQtQtQtQtQtQtQtQtQtQtQtQtQtQtQt",
"QtQtQtQtQtQtQtQtQtQtQtQtQtQtQtQtQtQtQtQtQtQtQtQtQtQtQtQtQtQtQtQtQtQtQtQtQtQtQtQtQtQtQtQtQtQtQtQtQtQtQtQtQtQtQtQtQtQtQtQtQtQtQtQt",
"QtQtQtQtQtQtQtQtQtQtQtQtQtQtQtQtQtQtQtQtQtQtQtQtQtQtQtQtQtQtQtQtQtQtQtQtQtQtQtQtQtQtQtQtQtQtQtQtQtQtQtQtQtQtQtQtQtQtQtQtQtQtQtQt",
"QtQtQtQtQtQtQtQtQtQtQtQtQtQtQtQtQtQtQtQtQtQtQtQtQtQtQtQtQtQtQtQtQtQtQtQtQtQtQtQtQtQtQtQtQtQtQtQtQtQtQtQtQtQtQtQtQtQtQtQtQtQtQtQt",
"QtQtQtQtQtQtQtQtQtQtQtQtQtQtQtQtQtQtQtQtQtQtQtQtQtQtQtQtQt.#.#.a.a.a.aQt.a.b.b.aQtQtQtQtQtQtQtQtQtQtQtQtQtQtQtQtQtQtQtQtQtQtQtQt",
"QtQtQtQtQtQtQtQtQtQtQtQtQtQtQtQtQtQtQtQtQtQtQtQtQtQtQt.#.a.a.a.a.a.a.a.a.aQtQtQt.aQtQtQtQtQtQtQtQtQtQtQtQtQtQtQtQtQtQtQtQtQtQtQt",
"QtQtQtQtQtQtQtQtQtQtQtQtQtQtQtQtQtQtQtQtQtQtQtQtQtQt.#.a.a.b.b.a.a.b.b.b.b.aQtQtQtQtQtQtQtQtQtQtQtQtQtQtQtQtQtQtQtQtQtQtQtQtQtQt",
"QtQtQtQtQtQtQtQtQtQtQtQtQtQtQtQtQtQtQtQtQtQtQtQtQt.#.a.a.b.b.a.b.b.c.b.c.c.b.aQtQtQtQtQtQtQtQtQtQtQtQtQtQtQtQtQtQtQtQtQtQtQtQtQt",
"QtQtQtQtQtQtQtQtQtQtQtQtQtQtQtQtQtQtQtQtQtQtQtQt.#.a.a.b.b.c.d.c.c.c.d.b.c.c.b.aQtQtQtQtQtQtQtQtQtQtQtQtQtQtQtQtQtQtQtQtQtQtQtQt",
"QtQtQtQtQtQtQtQtQtQtQtQtQtQtQtQtQtQtQtQtQtQtQtQt.#.a.#.b.c.d.c.b.b.c.d.d.d.b.a.a.aQtQtQtQtQtQtQtQtQtQtQtQtQtQtQtQtQtQtQtQtQtQtQt",
"QtQtQtQtQtQtQtQtQtQtQtQtQtQtQtQtQtQtQtQtQtQtQt.#.a.#.a.b.d.d.b.d.d.c.d.c.d.c.b.a.aQtQtQtQtQtQtQtQtQtQtQtQtQtQtQtQtQtQtQtQtQtQtQt",
"QtQtQtQtQtQtQtQtQtQtQtQtQtQtQtQtQtQtQtQtQtQtQt.#.#.#.b.c.d.b.d.d.c.d.d.b.d.b.c.b.aQtQtQtQtQtQtQtQtQtQtQtQtQtQtQtQtQtQtQtQtQtQtQt",
"QtQtQtQtQtQtQtQtQtQtQtQtQtQtQtQtQtQtQtQtQtQt.#.#.#.a.b.b.d.b.d.c.c.d.c.c.b.b.c.b.aQtQtQtQtQtQtQt.e.e.eQtQtQtQtQtQtQtQtQtQtQtQtQt",
"QtQtQtQtQtQtQtQtQtQtQtQtQtQtQtQtQtQtQtQtQtQtQtQt.a.b.#.a.c.b.c.c.c.d.c.c.b.a.c.b.#QtQtQtQtQtQt.e.f.g.eQtQtQtQtQtQtQtQtQtQtQtQtQt",
"QtQtQtQtQtQtQtQtQtQtQtQtQtQtQtQtQtQtQtQtQtQtQtQt.#.#.a.a.b.b.c.c.b.c.c.c.b.a.b.b.#QtQtQtQtQt.h.f.h.f.eQtQtQtQtQtQtQtQtQtQtQtQtQt",
"QtQtQtQtQtQtQtQtQtQtQtQtQtQtQtQtQtQtQtQtQtQtQt.#.#.a.a.a.b.a.b.c.b.c.c.b.a.a.b.e.e.e.hQtQt.h.e.g.f.eQtQtQtQtQtQtQtQtQtQtQtQtQtQt",
"QtQtQtQtQtQtQtQtQtQtQtQtQtQtQtQtQtQtQtQtQtQtQtQtQt.#.a.a.a.a.b.c.b.b.b.e.e.g.f.e.hQtQtQt.h.g.i.hQtQtQtQtQtQtQtQtQtQtQtQtQtQtQtQt",
"QtQtQtQtQtQtQtQtQtQtQtQtQtQtQtQtQtQtQtQtQtQtQtQtQtQt.a.#.a.a.#.b.b.b.e.e.g.j.e.hQtQtQt.h.e.e.hQtQtQtQtQtQtQtQtQtQtQtQtQtQtQtQtQt",
"QtQtQtQtQtQtQtQtQtQtQtQtQtQtQtQtQtQtQtQtQtQtQtQtQt.k.#.a.#.a.#.a.b.e.i.f.j.f.hQtQtQt.h.e.g.hQtQtQtQtQtQtQtQtQtQtQtQtQtQtQtQtQtQt",
"QtQtQtQtQtQtQtQtQtQtQtQtQtQtQtQtQtQtQtQtQtQtQtQt.k.k.k.l.#.#.a.#.e.i.f.j.f.e.k.lQt.e.e.g.eQtQtQtQtQtQtQtQtQtQtQtQtQtQtQtQtQtQtQt",
"QtQtQtQtQtQtQtQtQtQtQtQtQtQtQtQtQtQtQtQtQtQtQt.k.m.k.k.l.k.#.#.e.e.f.j.j.i.h.h.h.i.g.e.e.hQtQtQtQtQtQtQtQtQtQtQtQtQtQtQtQtQtQtQt",
"QtQtQtQtQtQtQtQtQtQtQtQtQtQtQtQtQtQtQtQtQtQtQt.n.k.o.k.l.k.p.#.e.g.j.j.i.e.i.i.i.e.i.g.hQtQtQtQtQtQtQtQtQtQtQtQtQtQtQtQtQtQtQtQt",
"QtQtQtQtQtQtQtQtQtQtQtQtQtQtQtQtQtQtQtQtQtQt.l.l.k.k.k.l.k.p.p.g.j.j.f.e.f.g.e.e.i.g.g.hQtQtQtQtQtQtQtQtQtQtQtQtQtQtQtQtQtQtQtQt",
"QtQtQtQtQtQtQtQtQtQtQtQtQtQtQtQtQtQtQtQtQtQt.q.k.l.l.l.l.l.k.e.j.j.j.i.j.g.h.h.h.e.f.iQtQtQtQtQtQtQtQtQtQtQtQtQtQtQtQtQtQtQtQtQt",
"QtQtQtQtQtQtQtQtQtQtQtQtQtQtQtQtQtQtQtQtQt.l.k.q.k.k.l.l.l.e.f.j.g.g.j.h.h.h.h.h.j.g.hQtQtQtQtQtQtQtQtQtQtQtQtQtQtQtQtQtQtQtQtQt",
"QtQtQtQtQtQtQtQtQtQtQtQtQtQtQtQtQtQtQtQtQt.r.l.l.r.l.lQt.e.g.j.f.i.f.i.h.h.h.h.g.f.i.h.h.hQtQtQtQtQtQtQtQtQtQtQtQtQtQtQtQtQtQtQt",
"QtQtQtQtQtQtQtQtQtQtQtQtQtQtQtQtQtQtQtQtQt.r.s.t.u.r.r.r.i.j.j.g.e.f.g.h.h.h.g.j.h.h.e.h.vQtQtQtQtQtQtQtQtQtQtQtQtQtQtQtQtQtQtQt",
"QtQtQtQtQtQtQtQtQtQtQtQtQtQtQtQtQtQtQtQtQt.r.s.t.u.r.r.e.g.j.j.e.j.g.h.g.i.j.f.e.e.i.e.h.hQtQtQtQtQtQtQtQtQtQtQtQtQtQtQtQtQtQtQt",
"QtQtQtQtQtQtQtQtQtQtQtQtQtQtQtQtQtQtQtQt.k.r.u.u.r.w.w.i.f.j.i.j.j.h.f.g.f.g.i.e.h.x.e.v.hQtQtQtQtQtQtQtQtQtQtQtQtQtQtQtQtQtQtQt",
"QtQtQtQtQtQtQtQtQtQtQtQtQtQtQtQtQtQtQtQt.k.y.r.r.l.w.e.i.f.e.e.j.h.j.j.g.e.h.e.h.x.z.i.hQtQtQtQtQtQtQtQtQtQtQtQtQtQtQtQtQtQtQtQt",
"QtQtQtQtQtQtQtQtQtQtQtQtQtQtQtQtQtQtQtQt.y.A.n.k.l.r.e.i.e.i.j.h.j.j.g.e.h.h.e.h.i.i.hQtQtQtQtQtQtQtQtQtQtQtQtQtQtQtQtQtQtQtQtQt",
"QtQtQtQtQtQtQtQtQtQtQtQtQtQtQtQtQtQtQtQt.r.n.k.l.r.e.i.g.j.j.h.j.e.r.B.C.h.i.i.D.h.r.EQtQtQtQtQtQtQtQtQtQtQtQtQtQtQtQtQtQtQtQtQt",
"QtQtQtQtQtQtQtQtQtQtQtQtQtQtQtQtQtQtQtQtQt.r.r.r.e.g.f.j.j.h.j.e.B.r.r.h.e.e.h.C.C.r.rQtQtQtQtQtQtQtQtQtQtQtQtQtQtQtQtQtQtQtQtQt",
"QtQtQtQtQtQtQtQtQtQtQtQtQtQtQtQtQtQtQtQtQt.F.r.e.g.j.j.j.h.j.j.C.B.G.r.r.r.C.B.C.C.C.r.rQtQtQtQtQtQtQtQtQtQtQtQtQtQtQtQtQtQtQtQt",
"QtQtQtQtQtQtQtQtQtQtQtQtQtQtQtQtQtQtQtQt.F.e.g.f.j.j.j.h.j.j.e.C.B.G.r.r.r.r.r.r.r.C.r.r.FQtQtQtQtQtQtQtQtQtQtQtQtQtQtQtQtQtQtQt",
"QtQtQtQtQtQtQtQtQtQtQtQtQtQtQtQtQtQtQtQt.i.j.j.j.f.e.h.j.j.g.B.C.B.G.G.r.C.C.r.r.r.r.r.r.F.HQtQtQtQtQtQtQtQtQtQtQtQtQtQtQtQtQtQt",
"QtQtQtQtQtQtQtQtQtQtQtQtQtQtQtQtQtQtQt.g.j.j.g.h.h.h.e.j.f.e.C.C.B.G.G.B.r.C.C.C.r.r.r.r.r.rQtQtQtQtQtQtQtQtQtQtQtQtQtQtQtQtQtQt",
"QtQtQtQtQtQtQtQtQtQtQtQtQtQtQtQtQtQt.i.j.j.g.h.h.I.h.f.f.e.B.C.C.B.G.G.B.B.r.C.B.B.C.r.r.r.r.rQtQtQtQtQtQtQtQtQtQtQtQtQtQtQtQtQt",
"QtQtQtQtQtQtQtQtQtQtQtQtQtQtQtQtQt.e.f.j.g.h.h.H.h.h.j.g.B.B.C.C.B.G.G.G.B.B.r.C.B.B.C.H.r.r.r.rQtQtQtQtQtQtQtQtQtQtQtQtQtQtQtQt",
"QtQtQtQtQtQtQtQtQtQtQtQtQtQtQtQtQt.f.j.g.h.h.h.h.g.j.g.G.B.B.J.C.B.G.G.G.B.B.C.r.B.B.G.F.H.r.r.rQtQtQtQtQtQtQtQtQtQtQtQtQtQtQtQt",
"QtQtQtQtQtQtQtQtQtQtQtQtQtQtQtQtQt.j.f.i.h.h.h.g.j.f.e.B.B.C.C.C.B.G.G.G.B.B.B.C.C.B.B.G.G.r.r.r.rQtQtQtQtQtQtQtQtQtQtQtQtQtQtQt",
"QtQtQtQtQtQtQtQtQtQtQtQtQtQtQtQt.e.j.f.i.i.g.j.j.f.e.K.K.i.C.C.C.B.G.G.G.i.i.i.H.F.C.r.r.B.G.K.r.rQtQtQtQtQtQtQtQtQtQtQtQtQtQtQt",
"QtQtQtQtQtQtQtQtQtQtQtQtQtQtQtQt.i.j.f.f.f.j.j.g.e.K.H.H.H.i.i.H.H.i.K.K.F.F.F.F.i.H.C.B.BQt.G.K.rQtQtQtQtQtQtQtQtQtQtQtQtQtQtQt",
"QtQtQtQtQtQtQtQtQtQtQtQtQtQtQt.e.g.j.j.j.j.g.e.eQt.I.K.K.i.F.F.F.F.F.F.F.i.i.i.iQtQtQtQt.C.F.F.K.K.HQtQtQtQtQtQtQtQtQtQtQtQtQtQt",
"QtQtQtQtQtQtQtQtQtQtQtQtQtQtQt.e.f.j.f.f.i.eQtQtQt.I.I.I.I.i.i.H.H.i.K.K.L.IQtQtQtQtQtQtQt.C.B.M.K.HQtQtQtQtQtQtQtQtQtQtQtQtQtQt",
"QtQtQtQtQtQtQtQtQtQtQtQtQtQt.e.i.f.g.i.eQtQt.N.N.N.O.L.n.n.L.I.N.I.I.D.P.I.I.N.N.N.NQtQtQtQtQt.H.M.MQtQtQtQtQtQtQtQtQtQtQtQtQtQt",
"QtQtQtQtQtQtQtQtQtQtQtQtQtQt.e.g.i.e.N.N.N.Q.R.S.T.I.U.U.U.U.I.V.I.L.I.I.L.I.W.T.S.R.Q.N.N.NQtQt.D.HQtQtQtQtQtQtQtQtQtQtQtQtQtQt",
"QtQtQtQtQtQtQtQtQtQtQtQtQtQtQtQt.N.N.R.T.X.Y.Z.0.1.I.I.I.I.I.h.2.U.I.n.n.I.I.3.1.0.Z.Y.X.T.R.N.N.HQtQtQtQtQtQtQtQtQtQtQtQtQtQtQt",
"QtQtQtQtQtQtQtQtQtQtQtQtQtQtQt.N.R.4.5.6.7.2.8.9#..I.I.I.I.I.I##.U.L.P.P.L.I#a#..9#b#c.7.6.5.4.R.NQtQtQtQtQtQtQtQtQtQtQtQtQtQtQt",
"QtQtQtQtQtQtQtQtQtQtQtQtQtQt.N.S#d#e#f#g#h#i#j#k#l.I.U.P.P.U.I.U.U#m.n.n.P.I.h#l#k#j#i#h#g#f#n#d.S.NQtQtQtQtQtQtQtQtQtQtQtQtQtQt",
"QtQtQtQtQtQtQtQtQtQtQtQtQt.N.R#o#p#q#r#s#t#u#v#w#x.I.P.P.P.U.I.U.U.P.H.P.U.I.I#x#w#v#u#t#s#r#q#p#o.R.NQtQtQtQtQtQtQtQtQtQtQtQtQt",
"QtQtQtQtQtQtQtQtQtQtQtQtQt.N#y#z#A#B#C#v#D#E#F#F#F#F.h.I.I.h#G.U.P.D.M.D.P.U.I#F#F#F#E#D#v#C#B#A#z#y.NQtQtQtQtQtQtQtQtQtQtQtQtQt",
"QtQtQtQtQtQtQtQtQtQtQtQtQt.N#y#H#A#B#t#v#D#E#F#F#F#F#F#G#G#G#G.U.D.M.M.M.D.U.I#F#F#F#E#D#v#t#B#I#H#y.NQtQtQtQtQtQtQtQtQtQtQtQtQt",
"QtQtQtQtQtQtQtQtQtQtQtQtQt.N#J#o#p#q#r#s#t#u#v#w#x#D#K#K#E#L#L#F.U.D.D.D.P.I#D#x#w#v#u#t#s#r#q#p#o#J.NQtQtQtQtQtQtQtQtQtQtQtQtQt",
"QtQtQtQtQtQtQtQtQtQtQtQtQtQt.N.S#M#n#N#q#O#i#j#k#l#P#Q#R#S#T#U#U#U#U#T#S#R#Q#P#l#k#j#i#O#q#N#n#M.S.NQtQtQtQtQtQtQtQtQtQtQtQtQtQt",
"QtQtQtQtQtQtQtQtQtQtQtQtQtQtQt.N#J.X.5.6.7#c#b.9#.#a#V#W#r#X#B#####B#X#r#W#V#a#..9#b#c.7.6.5.X#J.NQtQtQtQtQtQtQtQtQtQtQtQtQtQtQt",
"QtQtQtQtQtQtQtQtQtQtQtQtQtQtQtQt.N.N.R.T.X.Y.Z.0.1.3#Y#Z#0#1#2.2.2#2#1#0#Z#Y.3.1.0.Z#o.X.T.R.N.NQtQtQtQtQtQtQtQtQtQtQtQtQtQtQtQt",
"QtQtQtQtQtQtQtQtQtQtQtQtQtQtQtQtQtQt.N.N.N.Q.R.S.T.W.X#3#4#4#4.V.V#4#4#4#3.X.W.T.S.R.Q.N.N.NQtQtQtQtQtQtQtQtQtQtQtQtQtQtQtQtQtQt",
"QtQtQtQtQtQtQtQtQtQtQtQtQtQtQtQtQtQtQtQtQtQt.N.N.N.N.N.N.N.N.N.N.N.N.N.N.N.N.N.N.N.NQtQtQtQtQtQtQtQtQtQtQtQtQtQtQtQtQtQtQtQtQtQt",
"QtQtQtQtQtQtQtQtQtQtQtQtQtQtQtQtQtQtQtQtQtQtQtQtQtQtQtQtQtQtQtQtQtQtQtQtQtQtQtQtQtQtQtQtQtQtQtQtQtQtQtQtQtQtQtQtQtQtQtQtQtQtQtQt",
"QtQtQtQtQtQtQtQtQtQtQtQtQtQtQtQtQtQtQtQtQtQtQtQtQtQtQtQtQtQtQtQtQtQtQtQtQtQtQtQtQtQtQtQtQtQtQtQtQtQtQtQtQtQtQtQtQtQtQtQtQtQtQtQt"};
