/* XPM */
static char *dummy[]={
"64 64 123 2",
"Qt c None",
".K c #000000",
".N c #000000",
".O c #000000",
"#M c #000000",
".P c #000000",
"#D c #000000",
".Q c #000000",
".U c #000000",
".3 c #000000",
".W c #000000",
"#3 c #000000",
"#4 c #000000",
".T c #000000",
".X c #000000",
"#q c #000000",
"#e c #000000",
"#O c #000000",
".4 c #000000",
".Y c #000000",
"#E c #000000",
"#K c #000000",
".Z c #000000",
".5 c #000000",
".0 c #000000",
"#f c #000000",
"#p c #000000",
".2 c #000000",
".6 c #000000",
"#Y c #000000",
"#r c #000000",
"#Z c #000000",
"#0 c #000000",
"#1 c #000000",
"#2 c #000000",
".1 c #000000",
"#d c #000000",
"#g c #000000",
"#P c #000000",
".7 c #000000",
"#c c #000000",
"#F c #000000",
"#L c #000000",
".8 c #000000",
"#h c #000000",
"#s c #000000",
".9 c #000000",
"#b c #000000",
"#i c #000000",
"#Q c #000000",
"#V c #000000",
"#W c #000000",
"#t c #000000",
"#j c #000000",
"#X c #000000",
"#G c #000000",
"#a c #000000",
"#k c #000000",
"#u c #000000",
"#l c #000000",
"#m c #000000",
"#o c #000000",
"#H c #000000",
"#v c #000000",
"#U c #000000",
"#T c #000000",
"#S c #000000",
"#w c #000000",
"#R c #000000",
"#n c #000000",
"#x c #000000",
"#y c #000000",
"#z c #000000",
"#C c #000000",
"#B c #000000",
"#I c #000000",
"#N c #000000",
"#A c #000000",
"#J c #000000",
".l c #001111",
".j c #002b2b",
".x c #005477",
".p c #005e7f",
".n c #007faa",
".z c #00e200",
".h c #080808",
".M c #0f0e11",
".t c #190000",
".I c #190700",
".m c #1e424f",
".G c #212828",
"#. c #260c0c",
".R c #26252c",
".S c #35353a",
".o c #3d5358",
".e c #444448",
".v c #470000",
".q c #4a2121",
".A c #51545b",
".H c #535353",
"## c #562f1d",
".D c #637a82",
".# c #6d3300",
".L c #72472d",
".y c #750000",
".i c #797a7c",
".V c #838384",
".r c #84393a",
".B c #946c45",
".a c #996314",
".g c #9e99a6",
".J c #adb2af",
".F c #af001c",
".C c #c09d7b",
".s c #c46555",
".w c #c91c23",
".f c #ccd3d6",
".b c #d19e30",
".k c #e5f4ff",
".E c #ef0c23",
".u c #f78c6b",
".d c #f9edd6",
".c c #fcd670",
"QtQtQtQtQtQtQtQtQtQtQtQtQtQtQtQtQtQtQtQtQtQtQtQtQtQtQtQtQtQtQtQtQtQtQtQtQtQtQtQtQtQtQtQtQtQtQtQtQtQtQtQtQtQtQtQtQtQtQtQtQtQtQtQt",
"QtQtQtQtQtQtQtQtQtQtQtQtQtQtQtQtQtQtQtQtQtQtQtQtQtQtQtQtQtQtQtQtQtQtQtQtQtQtQtQtQtQtQtQtQtQtQtQtQtQtQtQtQtQtQtQtQtQtQtQtQtQtQtQt",
"QtQtQtQtQtQtQtQtQtQtQtQtQtQtQtQtQtQtQtQtQtQtQtQtQtQtQtQtQtQtQtQtQtQtQtQtQtQtQtQtQtQtQtQtQtQtQtQtQtQtQtQtQtQtQtQtQtQtQtQtQtQtQtQt",
"QtQtQtQtQtQtQtQtQtQtQtQtQtQtQtQtQtQtQtQtQtQtQtQtQtQtQtQtQtQtQtQtQtQtQtQtQtQtQtQtQtQtQtQtQtQtQtQtQtQtQtQtQtQtQtQtQtQtQtQtQtQtQtQt",
"QtQtQtQtQtQtQtQtQtQtQtQtQtQtQtQtQtQtQtQtQtQtQtQtQtQtQtQtQtQtQtQtQtQtQtQtQtQtQtQtQtQtQtQtQtQtQtQtQtQtQtQtQtQtQtQtQtQtQtQtQtQtQtQt",
"QtQtQtQtQtQtQtQtQtQtQtQtQtQtQtQtQtQtQtQtQtQtQtQtQtQtQtQtQtQtQtQtQtQtQtQtQtQtQtQtQtQtQtQtQtQtQtQtQtQtQtQtQtQtQtQtQtQtQtQtQtQtQtQt",
"QtQtQtQtQtQtQtQtQtQtQtQtQtQtQtQtQtQtQtQtQtQtQtQtQtQtQtQtQtQtQtQtQtQtQtQtQtQtQtQtQtQtQtQtQtQtQtQtQtQtQtQtQtQtQtQtQtQtQtQtQtQtQtQt",
"QtQtQtQtQtQtQtQtQtQtQtQtQtQtQtQtQtQtQtQtQtQtQtQtQtQtQtQtQtQtQtQtQtQtQtQtQtQtQtQtQtQtQtQtQtQtQtQtQtQtQtQtQtQtQtQtQtQtQtQtQtQtQtQt",
"QtQtQtQtQtQtQtQtQtQtQtQtQtQtQtQtQtQtQtQtQtQtQtQtQtQtQtQtQt.#.#.a.a.a.aQt.a.b.b.aQtQtQtQtQtQtQtQtQtQtQtQtQtQtQtQtQtQtQtQtQtQtQtQt",
"QtQtQtQtQtQtQtQtQtQtQtQtQtQtQtQtQtQtQtQtQtQtQtQtQtQtQt.#.a.a.a.a.a.a.a.a.aQtQtQt.aQtQtQtQtQtQtQtQtQtQtQtQtQtQtQtQtQtQtQtQtQtQtQt",
"QtQtQtQtQtQtQtQtQtQtQtQtQtQtQtQtQtQtQtQtQtQtQtQtQtQt.#.a.a.b.b.a.a.b.b.b.b.aQtQtQtQtQtQtQtQtQtQtQtQtQtQtQtQtQtQtQtQtQtQtQtQtQtQt",
"QtQtQtQtQtQtQtQtQtQtQtQtQtQtQtQtQtQtQtQtQtQtQtQtQt.#.a.a.b.b.a.b.b.c.b.c.c.b.aQtQtQtQtQtQtQtQtQtQtQtQtQtQtQtQtQtQtQtQtQtQtQtQtQt",
"QtQtQtQtQtQtQtQtQtQtQtQtQtQtQtQtQtQtQtQtQtQtQtQt.#.a.a.b.b.c.d.c.c.c.d.b.c.c.b.aQtQtQtQtQtQtQtQtQtQtQtQtQtQtQtQtQtQtQtQtQtQtQtQt",
"QtQtQtQtQtQtQtQtQtQtQtQtQtQtQtQtQtQtQtQtQtQtQtQt.#.a.#.b.c.d.c.b.b.c.d.d.d.b.a.a.aQtQtQtQtQtQtQtQtQtQtQtQtQtQtQtQtQtQtQtQtQtQtQt",
"QtQtQtQtQtQtQtQtQtQtQtQtQtQtQtQtQtQtQtQtQtQtQt.#.a.#.a.b.d.d.b.d.d.c.d.c.d.c.b.a.aQtQtQtQtQtQtQtQtQtQtQtQtQtQtQtQtQtQtQtQtQtQtQt",
"QtQtQtQtQtQtQtQtQtQtQtQtQtQtQtQtQtQtQtQtQtQtQt.#.#.#.b.c.d.b.d.d.c.d.d.b.d.b.c.b.aQtQtQtQtQtQtQtQtQtQtQtQtQtQtQtQtQtQtQtQtQtQtQt",
"QtQtQtQtQtQtQtQtQtQtQtQtQtQtQtQtQtQtQtQtQtQt.#.#.#.a.b.b.d.b.d.c.c.d.c.c.b.b.c.b.aQtQtQtQtQtQtQt.e.e.eQtQtQtQtQtQtQtQtQtQtQtQtQt",
"QtQtQtQtQtQtQtQtQtQtQtQtQtQtQtQtQtQtQtQtQtQtQtQt.a.b.#.a.c.b.c.c.c.d.c.c.b.a.c.b.#QtQtQtQtQtQt.e.f.g.eQtQtQtQtQtQtQtQtQtQtQtQtQt",
"QtQtQtQtQtQtQtQtQtQtQtQtQtQtQtQtQtQtQtQtQtQtQtQt.#.#.a.a.b.b.c.c.b.c.c.c.b.a.b.b.#QtQtQtQtQt.h.f.h.f.eQtQtQtQtQtQtQtQtQtQtQtQtQt",
"QtQtQtQtQtQtQtQtQtQtQtQtQtQtQtQtQtQtQtQtQtQtQt.#.#.a.a.a.b.a.b.c.b.c.c.b.a.a.b.e.e.e.hQtQt.h.e.g.f.eQtQtQtQtQtQtQtQtQtQtQtQtQtQt",
"QtQtQtQtQtQtQtQtQtQtQtQtQtQtQtQtQtQtQtQtQtQtQtQtQt.#.a.a.a.a.b.c.b.b.b.e.e.g.f.e.hQtQtQt.h.g.i.hQtQtQtQtQtQtQtQtQtQtQtQtQtQtQtQt",
"QtQtQtQtQtQtQtQtQtQtQtQtQtQtQtQtQtQtQtQtQtQtQtQtQt.j.a.#.a.a.#.b.b.b.e.e.g.k.e.hQtQtQt.h.e.e.hQtQtQtQtQtQtQtQtQtQtQtQtQtQtQtQtQt",
"QtQtQtQtQtQtQtQtQtQtQtQtQtQtQtQtQtQtQtQtQtQtQtQt.j.l.#.a.#.a.#.a.b.e.i.f.k.f.hQtQtQt.h.e.g.hQtQtQtQtQtQtQtQtQtQtQtQtQtQtQtQtQtQt",
"QtQtQtQtQtQtQtQtQtQtQtQtQtQtQtQtQtQtQtQtQtQtQtQt.j.l.l.l.#.#.a.#.e.i.f.k.f.e.j.jQt.e.e.g.eQtQtQtQtQtQtQtQtQtQtQtQtQtQtQtQtQtQtQt",
"QtQtQtQtQtQtQtQtQtQtQtQtQtQtQtQtQtQtQtQtQtQtQt.j.m.l.l.j.j.#.#.e.e.f.k.k.i.h.h.h.i.g.e.e.hQtQtQtQtQtQtQtQtQtQtQtQtQtQtQtQtQtQtQt",
"QtQtQtQtQtQtQtQtQtQtQtQtQtQtQtQtQtQtQtQtQtQtQt.n.o.j.l.j.m.j.#.e.g.k.k.i.e.i.i.i.e.i.g.hQtQtQtQtQtQtQtQtQtQtQtQtQtQtQtQtQtQtQtQt",
"QtQtQtQtQtQtQtQtQtQtQtQtQtQtQtQtQtQtQtQtQtQt.j.j.p.m.l.j.m.m.j.g.k.k.f.e.f.g.e.e.i.g.g.hQtQtQtQtQtQtQtQtQtQtQtQtQtQtQtQtQtQtQtQt",
"QtQtQtQtQtQtQtQtQtQtQtQtQtQtQtQtQtQtQtQtQtQt.j.o.j.o.l.l.m.m.e.k.k.k.i.k.g.h.h.h.e.f.iQtQtQtQtQtQtQtQtQtQtQtQtQtQtQtQtQtQtQtQtQt",
"QtQtQtQtQtQtQtQtQtQtQtQtQtQtQtQtQtQtQtQtQtQt.q.j.j.j.l.l.j.e.f.k.g.g.k.h.h.h.h.h.k.g.hQtQtQtQtQtQtQtQtQtQtQtQtQtQtQtQtQtQtQtQtQt",
"QtQtQtQtQtQtQtQtQtQtQtQtQtQtQtQtQtQtQtQtQtQt.r.s.s.r.q.t.e.g.k.f.i.f.i.h.h.h.h.g.f.i.h.h.hQtQtQtQtQtQtQtQtQtQtQtQtQtQtQtQtQtQtQt",
"QtQtQtQtQtQtQtQtQtQtQtQtQtQtQtQtQtQtQtQtQtQt.r.u.s.r.t.v.i.k.k.g.e.f.g.h.h.h.g.k.h.h.e.h.wQtQtQtQtQtQtQtQtQtQtQtQtQtQtQtQtQtQtQt",
"QtQtQtQtQtQtQtQtQtQtQtQtQtQtQtQtQtQtQtQtQtQt.j.r.r.t.v.e.g.k.k.e.k.g.h.g.i.k.f.e.e.i.e.h.hQtQtQtQtQtQtQtQtQtQtQtQtQtQtQtQtQtQtQt",
"QtQtQtQtQtQtQtQtQtQtQtQtQtQtQtQtQtQtQtQtQtQt.j.j.j.t.v.i.f.k.i.k.k.h.f.g.f.g.i.e.h.x.e.w.hQtQtQtQtQtQtQtQtQtQtQtQtQtQtQtQtQtQtQt",
"QtQtQtQtQtQtQtQtQtQtQtQtQtQtQtQtQtQtQtQtQtQtQt.j.v.y.e.i.f.e.e.k.h.k.k.g.e.h.e.h.x.z.i.hQtQtQtQtQtQtQtQtQtQtQtQtQtQtQtQtQtQtQtQt",
"QtQtQtQtQtQtQtQtQtQtQtQtQtQtQtQtQtQtQtQtQtQtQt.v.y.y.e.i.e.i.k.h.k.k.g.e.h.h.e.h.i.i.h.jQtQtQtQtQtQtQtQtQtQtQtQtQtQtQtQtQtQtQtQt",
"QtQtQtQtQtQtQtQtQtQtQtQtQtQtQtQtQtQtQtQtQtQt.v.y.y.e.i.g.k.k.h.k.e.v.v.y.h.i.i.A.h.B.C.D.jQtQtQtQtQtQtQtQtQtQtQtQtQtQtQtQtQtQtQt",
"QtQtQtQtQtQtQtQtQtQtQtQtQtQtQtQtQtQtQtQtQt.v.y.y.e.g.f.k.k.h.k.e.E.v.v.h.e.e.h.v.l.j.B.j.vQtQtQtQtQtQtQtQtQtQtQtQtQtQtQtQtQtQtQt",
"QtQtQtQtQtQtQtQtQtQtQtQtQtQtQtQtQtQtQtQt.v.y.v.e.g.k.k.k.h.k.k.F.E.F.v.v.y.y.y.v.r.o.o.u.vQtQtQtQtQtQtQtQtQtQtQtQtQtQtQtQtQtQtQt",
"QtQtQtQtQtQtQtQtQtQtQtQtQtQtQtQtQtQtQt.G.y.e.g.f.k.k.k.h.k.k.e.F.E.E.F.v.y.F.v.y.v.v.r.vQtQtQtQtQtQtQtQtQtQtQtQtQtQtQtQtQtQtQtQt",
"QtQtQtQtQtQtQtQtQtQtQtQtQtQtQtQtQtQt.H.G.i.k.k.k.f.e.h.k.k.g.F.F.E.E.F.F.v.y.F.v.v.v.v.H.GQtQtQtQtQtQtQtQtQtQtQtQtQtQtQtQtQtQtQt",
"QtQtQtQtQtQtQtQtQtQtQtQtQtQtQtQtQtQt.H.g.k.k.g.h.h.h.e.k.f.e.F.F.E.E.F.F.F.v.y.F.v.v.v.H.GQtQtQtQtQtQtQtQtQtQtQtQtQtQtQtQtQtQtQt",
"QtQtQtQtQtQtQtQtQtQtQtQtQtQtQtQtQtQt.i.k.k.g.h.h.I.h.f.f.e.F.F.E.E.E.E.F.y.F.v.y.E.v.v.v.v.vQtQtQtQtQtQtQtQtQtQtQtQtQtQtQtQtQtQt",
"QtQtQtQtQtQtQtQtQtQtQtQtQtQtQtQtQt.e.f.k.g.h.h.y.h.h.k.g.y.F.F.E.E.E.E.F.y.F.v.y.F.E.v.v.v.v.v.vQtQtQtQtQtQtQtQtQtQtQtQtQtQtQtQt",
"QtQtQtQtQtQtQtQtQtQtQtQtQtQtQtQtQt.f.k.g.h.h.h.h.g.k.g.y.y.F.F.E.E.E.E.F.F.y.F.v.y.F.E.G.v.v.v.v.vQtQtQtQtQtQtQtQtQtQtQtQtQtQtQt",
"QtQtQtQtQtQtQtQtQtQtQtQtQtQtQtQtQt.k.f.i.h.h.h.g.k.f.e.y.y.F.F.E.E.E.E.E.F.y.y.v.y.v.F.G.JQt.v.v.v.vQtQtQtQtQtQtQtQtQtQtQtQtQtQt",
"QtQtQtQtQtQtQtQtQtQtQtQtQtQtQtQt.e.k.f.i.i.g.k.k.f.e.y.y.i.i.i.J.J.J.E.E.F.y.y.i.v.F.v.EQtQtQt.v.v.v.v.HQtQtQtQtQtQtQtQtQtQtQtQt",
"QtQtQtQtQtQtQtQtQtQtQtQtQtQtQtQt.i.k.f.f.f.k.k.g.e.H.H.H.G.G.G.i.i.i.J.J.J.i.i.H.v.y.G.EQtQtQtQt.v.vQt.H.HQtQtQtQtQtQtQtQtQtQtQt",
"QtQtQtQtQtQtQtQtQtQtQtQtQtQtQt.e.g.k.k.k.k.g.e.e.i.G.G.G.i.i.i.J.J.J.i.i.i.H.H.i.i.v.G.F.JQtQtQtQt.H.H.H.A.HQtQtQtQtQtQtQtQtQtQt",
"QtQtQtQtQtQtQtQtQtQtQtQtQtQtQt.e.f.k.f.f.i.e.K.K.H.H.H.H.B.L.M.K.M.M.J.J.J.J.i.K.K.H.v.y.JQtQtQtQtQtQtQt.H.HQtQtQtQtQtQtQtQtQtQt",
"QtQtQtQtQtQtQtQtQtQtQtQtQtQt.e.i.f.g.i.e.K.N.O.P.Q.M.R.S.A.S.M.T.h.M.M.M.M.M.U.Q.P.H.V.V.J.KQtQtQtQtQtQtQtQtQtQtQtQtQtQtQtQtQtQt",
"QtQtQtQtQtQtQtQtQtQtQtQtQtQt.e.g.i.e.O.Q.W.X.Y.Z.0.M.M.M.M.M.M.1.M.M.M.M.M.h.2.0.Z.Y.H.V.J.O.K.KQtQtQtQtQtQtQtQtQtQtQtQtQtQtQtQt",
"QtQtQtQtQtQtQtQtQtQtQtQtQtQtQt.K.O.3.4.5.6.1.7.8.9#.##.L.B.L.M#a.M.M.M.M.M.M#b.9.8#c#d.H.5.4.3.O.KQtQtQtQtQtQtQtQtQtQtQtQtQtQtQt",
"QtQtQtQtQtQtQtQtQtQtQtQtQtQt.K.P#e#f#g#h#i#j#k#l#m.M.R.S.A.S.R#n.M.M.R.R.M.M#o#m#l#k#j#i#h#g#p#e.P.KQtQtQtQtQtQtQtQtQtQtQtQtQtQt",
"QtQtQtQtQtQtQtQtQtQtQtQtQt.K.O#q#r#s#t#u#v#w#x#y#z.M.S.A.A.A.R#A#A.h.M.M.h#B#C#z#y#x#w#v#u#t#s#r#q.O.KQtQtQtQtQtQtQtQtQtQtQtQtQt",
"QtQtQtQtQtQtQtQtQtQtQtQtQt.K#D#E#F#G#H#x#C#I#A#A.M.R.R.A.i.A.S.R#J#J#J#J#J#A#A#A#A#A#I#C#x#H#G#F#E#D.KQtQtQtQtQtQtQtQtQtQtQtQtQt",
"QtQtQtQtQtQtQtQtQtQtQtQtQt.K#D#K#F#G#v#x#C#I#A#A.M.R.M.M.M.M.R.R#J#J#J#J#J#A#A#A#A#A#I#C#x#v#G#L#K#D.KQtQtQtQtQtQtQtQtQtQtQtQtQt",
"QtQtQtQtQtQtQtQtQtQtQtQtQt.K#M#q#r#s#t#u#v#w#x#y.M.M.M.M.M.M.M.R#A#N#N#I#B#B#C#z#y#x#w#v#u#t#s#r#q#M.KQtQtQtQtQtQtQtQtQtQtQtQtQt",
"QtQtQtQtQtQtQtQtQtQtQtQtQtQt.K.P#O#p#P#s#Q#j#k#l#m.h.M.M.M.M.h#n#n#n#R#S#T#U#o#m#l#k#j#Q#s#P#p#O.P.KQtQtQtQtQtQtQtQtQtQtQtQtQtQt",
"QtQtQtQtQtQtQtQtQtQtQtQtQtQtQt.K#M.W.4.5.6#d#c.8.9#b#V#W#t#X#G#a#a#G#X#t#W#V#b.9.8#c#d.6.5.4.W#M.KQtQtQtQtQtQtQtQtQtQtQtQtQtQtQt",
"QtQtQtQtQtQtQtQtQtQtQtQtQtQtQtQt.K.K.O.Q.W.X.Y.Z.0.2#Y#Z#0#1#2.1.1#2#1#0#Z#Y.2.0.Z.Y#q.W.Q.O.K.KQtQtQtQtQtQtQtQtQtQtQtQtQtQtQtQt",
"QtQtQtQtQtQtQtQtQtQtQtQtQtQtQtQtQtQt.K.K.K.N.O.P.Q.U.W#3#4#4#4.T.T#4#4#4#3.W.U.Q.P.O.N.K.K.KQtQtQtQtQtQtQtQtQtQtQtQtQtQtQtQtQtQt",
"QtQtQtQtQtQtQtQtQtQtQtQtQtQtQtQtQtQtQtQtQtQt.K.K.K.K.K.K.K.K.K.K.K.K.K.K.K.K.K.K.K.KQtQtQtQtQtQtQtQtQtQtQtQtQtQtQtQtQtQtQtQtQtQt",
"QtQtQtQtQtQtQtQtQtQtQtQtQtQtQtQtQtQtQtQtQtQtQtQtQtQtQtQtQtQtQtQtQtQtQtQtQtQtQtQtQtQtQtQtQtQtQtQtQtQtQtQtQtQtQtQtQtQtQtQtQtQtQtQt",
"QtQtQtQtQtQtQtQtQtQtQtQtQtQtQtQtQtQtQtQtQtQtQtQtQtQtQtQtQtQtQtQtQtQtQtQtQtQtQtQtQtQtQtQtQtQtQtQtQtQtQtQtQtQtQtQtQtQtQtQtQtQtQtQt"};
