/* XPM */
static char *dummy[]={
"64 128 139 2",
"ab c #000000",
"#s c #001111",
"#q c #002b2b",
"#H c #005477",
"#w c #005e7f",
"#u c #007faa",
"#J c #00e200",
"#n c #080808",
"ad c #0f0e11",
"#C c #190000",
"#2 c #190700",
"#t c #1e424f",
"#T c #212828",
"ah c #260c0c",
"ae c #26252c",
"af c #35353a",
".2 c #383f4a",
".g c #383f4b",
"#o c #383f4c",
".1 c #38404c",
".e c #393f4b",
"Qt c #3a404b",
".h c #3a404c",
"#Y c #3d4046",
".d c #3d4047",
"#v c #3d5358",
".f c #3f4148",
".i c #404248",
"#7 c #424349",
".# c #434245",
"a. c #43434a",
"#3 c #44434a",
"#k c #444448",
".j c #44444b",
"#M c #46413d",
".a c #46413e",
"#E c #470000",
".s c #474242",
"#9 c #474548",
".k c #47464d",
"#V c #494649",
"#y c #4a2121",
"#d c #4a4138",
".b c #4a423a",
".t c #4a433e",
"a# c #4b4440",
".l c #4b4951",
".c c #4c423a",
".m c #4d484c",
".u c #4e4541",
"#x c #4f443c",
"#X c #50443c",
"#L c #50453d",
"#8 c #51453d",
".Q c #514743",
"#N c #51545b",
"#0 c #53463f",
"#W c #535353",
".E c #54473f",
"#U c #544845",
".n c #544946",
".q c #554840",
".r c #554a47",
"ai c #562f1d",
".p c #584a43",
".o c #584a44",
"#5 c #584a47",
".D c #584d4d",
".v c #5a4d4b",
"#z c #5b4b44",
"#4 c #5b4c48",
"#G c #5c4b43",
"#K c #5d4b43",
".5 c #5e4d45",
"#6 c #5e4d48",
"#1 c #5f4f4d",
".3 c #614d45",
".w c #61514f",
".9 c #635049",
"#Q c #637a82",
".4 c #644f48",
"#Z c #645352",
".x c #655451",
".F c #66514a",
".6 c #67524b",
".R c #67544f",
"#f c #68524b",
".X c #68534c",
"#e c #69534d",
".W c #69544d",
".O c #6c564f",
".Z c #6c5650",
".y c #6c5959",
"#a c #6d3300",
"#. c #6d5650",
".8 c #6e5651",
".Y c #6e5751",
".G c #6f5750",
".0 c #6f5a56",
".P c #705853",
".A c #705c5c",
".z c #705c5d",
".B c #715c5b",
"ac c #72472d",
".H c #725a55",
"#i c #735a54",
".N c #745b56",
".C c #745d59",
"#I c #750000",
"#h c #755c57",
".S c #785e5a",
"#p c #797a7c",
".V c #7a5f5b",
".T c #7a605b",
".U c #7a605c",
".7 c #7c615d",
"## c #7d625e",
".I c #7e625e",
".M c #826663",
".K c #836663",
".L c #836764",
"ag c #838384",
"#A c #84393a",
".J c #846763",
"#O c #946c45",
"#b c #996314",
"#m c #9e99a6",
"aa c #adb2af",
"#S c #af001c",
"#P c #c09d7b",
"#B c #c46555",
"#F c #c91c23",
"#l c #ccd3d6",
"#c c #d19e30",
"#r c #e5f4ff",
"#R c #ef0c23",
"#D c #f78c6b",
"#j c #f9edd6",
"#g c #fcd670",
"QtQtQtQtQtQtQtQtQtQtQtQtQtQtQtQtQtQtQt.#.a.b.b.b.b.b.b.c.b.b.b.b.b.b.b.a.d.e.f.g.f.e.h.hQtQt.f.gQt.f.e.h.f.gQtQtQtQt.f.d.a.c.c.b",
"QtQtQtQtQtQtQt.gQt.gQt.g.gQt.g.g.g.g.g.d.a.b.b.b.b.b.b.b.b.b.b.b.b.b.b.a.e.e.g.g.g.g.e.gQt.g.g.g.g.g.e.e.g.g.g.g.gQt.g.d.a.c.c.c",
".h.hQtQtQt.g.gQt.gQtQt.g.g.g.g.g.g.g.g.d.a.b.b.b.b.b.b.b.b.b.b.b.b.b.b.a.e.g.g.g.g.g.g.g.g.g.g.g.g.g.e.e.g.g.g.g.g.g.g.d.a.c.c.c",
".d.d.d.i.j.j.k.k.k.l.l.l.m.l.l.m.l.l.l.m.n.o.p.o.o.o.q.p.o.o.o.o.o.o.p.n.r.l.l.l.l.l.l.l.l.l.l.l.l.l.l.l.l.l.l.l.k.k.k.j.s.a.t.a",
".t.a.a.u.v.w.w.x.y.z.z.z.y.z.z.z.z.A.A.B.B.C.C.C.C.C.C.C.C.C.C.C.C.C.C.C.z.A.A.A.y.z.z.z.z.z.z.y.A.A.z.z.z.z.z.y.x.w.w.D.j.d.d.d",
".c.b.b.E.F.G.G.H.I.J.J.K.L.L.L.L.K.J.K.K.J.M.M.M.M.M.L.M.M.M.M.M.M.M.M.L.J.J.K.J.K.K.L.M.J.L.L.K.K.K.K.J.K.J.L.I.N.G.G.w.k.gQtQt",
".c.c.b.E.F.G.O.H.I.J.K.K.K.K.J.J.L.K.K.K.K.K.M.M.M.M.M.M.M.M.M.M.M.M.M.M.K.K.K.K.K.K.K.K.K.K.K.K.K.M.M.K.K.K.K.I.P.O.O.w.kQtQt.h",
".a.a.a.Q.R.H.H.N.S.T.T.T.T.T.T.T.U.V.S.V.U.I.U.I.V.V.V.V.V.V.V.V.V.V.V.V.V.I.V.I.I.U.I.U.I.I.I.U.V.V.V.U.I.I.U.S.N.N.H.x.k.g.gQt",
".d.d.d.m.y.I.I.S.G.W.W.W.W.W.W.W.X.X.W.G.Y.H.H.P.Z.X.X.X.X.X.X.X.X.X.W.G.H.H.H.H.H.H.H.H.H.H.H.0.Z.X.X.Z.G.H.H.H.V.M.I.y.k.g.g.f",
"Qt.1.2.l.z.J.K.T.X.3.3.3.3.3.3.3.3.3.3.4.X.G.G.x.4.3.4.3.4.3.4.3.3.3.3.4.x.Z.G.W.G.Z.Z.Z.Z.Z.Z.X.4.3.3.4.X.Z.G.H.V.M.K.B.l.g.e.e",
"QtQt.2.l.z.J.K.T.W.3.3.3.3.3.3.3.3.3.5.4.Z.G.Z.X.4.3.5.3.3.3.3.3.3.3.3.4.6.G.Z.Z.Z.Z.Z.Z.Z.Z.G.x.4.3.5.4.Z.Z.W.H.7.K.J.B.l.e.e.e",
"Qt.2Qt.l.B.J.K.T.W.3.3.3.4.3.3.4.4.F.4.F.6.Z.Z.6.4.3.4.3.3.4.3.4.4.4.4.F.Z.Z.G.Z.Z.Z.G.Z.Z.Z.G.Z.F.4.4.F.Z.Z.G.0.I.J.K.B.l.e.e.h",
"Qt.2.2.l.z.K.K.T.W.3.3.4.3.3.3.F.6.X.Z.6.F.F.4.4.4.4.3.3.3.4.3.4.X.Z.x.W.G.G.G.Z.Z.G.Z.Z.8.Z.Z.Z.W.X.Z.Z.Z.Z.Z.H.I.K.L.z.l.g.gQt",
"QtQt.2.l.z.J.K.T.W.3.3.3.3.4.3.F.Z.G.G.Z.4.3.3.4.3.3.3.4.3.3.3.4.X.G.G.Z.Z.G.Z.Z.Z.Z.G.Z.Z.8.8.Z.G.G.Z.Z.G.Z.Z.H.U.K.L.z.l.g.gQt",
"Qt.2.2.l.z.K.K.U.W.3.3.3.3.3.3.F.Z.G.G.W.F.3.3.3.3.3.3.3.3.4.3.4.Z.G.G.Z.G.Z.Z.Z.Z.Z.Z.Z.Z.8.Z.8.Z.Z.G.Z.Z.Z.G.H.I.K.L.z.l.e.g.f",
"QtQt.2.l.z.K.K.U.W.3.3.3.4.F.4.F.X.X.Z.X.4.3.3.4.3.4.3.4.4.F.4.6.X.X.Z.Z.Z.Z.Z.G.G.Z.G.Z.8.Z.8.Z.Z.G.Z.Z.Z.G.Z.H.U.K.L.y.l.e.e.e",
"Qt.gQt.m.y.L.L.U.W.3.3.4.6.W.Z.6.F.9.4.4.4.3.4.3.5.3.4.4.6.Z.Z.6.F.F.F.F.x#..Z.8.Z.8.Z.8.8.Z.Z.8.G.Z.Y.Z.Z.Z.Z.H.U.M.L.z.l.g.gQt",
"QtQtQt.l.z.L.K.U.W.3.3.F.W.G.G.W.F.3.4.3.3.3.4.3.4.3.3.4.X.G.G.X.4.3.5.F.Z#.#..Z.8.Z.8.Z.Z.Z.8.Z.Z.Z.Z.8.Z.Z.Z.H.I.M.M.z.l.gQtQt",
"Qt.g.g.l.z.K.K.U.W.3.3.F.Z.G.G.Z.4.3.3.3.3.4.3.3.4.3.3.4.Z.Y.Y.Z.4.3.3.9.W.Y.Z.8.Z.8.8.Z.8.Z.Z.8.Z.8.Z.Y.G.Z.Z.H.U.M.M.z.m.g.gQt",
"Qt.g.g.k.z.K.K.U.W.4.4.F.X.W.Z.6.4.3.4.3.3.3.3.4.4.4.4.6.X.X.Z.X.F.4.9.F.Z.Z.8.Z.Z.Z.Z.8.Z.8.8.Z.Z.Z.8.Z.Z.Z.Z.H##.M.M.z.l.gQtQt",
"QtQtQt.l.z.K.K.I.Y.W.W.W.F.F.4.F.3.4.3.4.4.3.3.F.6.Z.X.6.F.4.4.F.W.W.W.W.Z.8.Z.8.8.Z.8.Z.8.Z.8.8.Y.Z.8.Z.8.Z.G.H.I.K.J.z.l.g.gQt",
"QtQtQt.l.z.K.K.U.H.G.Y.Z.4.3.3.3.3.3.3.3.3.3.3.9.Z.G.G.Z.4.3.3.F.W.G.Y.Y.Z.8.8.Z.Z.8.Z.8.Z.8.Z.Z.Z.8.Z.8.8.Z.W.H.I.K.J.z.l.e.g.h",
"QtQt.2.k.z.K.K.I.H.G.G.W.4.3.3.3.4.3.4.3.3.3.3.F.W.G.G.Z.F.5.3.4.W.Z.G.G.Z.Z.Z.8.Z.8.8.Z.8.Z.Z.8.Z.8.Z.Z.Z.8.Z.H.T.K.J.z.l.g.g.h",
"Qt.2Qt.l.z.K.K.U.P.W.W.X.F.4.9.F.4.3.3.3.4.F.4.F.X.Z.X.X.F.4.4.9.Z.G.Z.G.8.Z.8.Z.8.Z.8.Z.Z.8.Z.Z.Y.Z.8.Z.Z.Z.Z.B.I.K.J.z.m.d.d.d",
"QtQt.2.k.z.J.J.U.O.4.4.F.W.W.O.W.F.3.3.F.6.W.Z.X.6.F.4.F.X.Z.W.Z.Z.Z.Z.Z.Z.Z.Z.Z.Z.8.Z.Z.8.Z.Z.8.8.Z.Z.Z.Z.Z.Z.H.U.K.K.B.n.a.a.t",
"Qt.1Qt.l.z.L.K.T.W.3.3.4.W.Y.G.W.4.3.3.F.Z.G.G.X.4.3.3.4.X#a#a#b#b#b#b.Z#b#c#c#b.8.Z.Z.8.Z.8.8.Z.Z.Z.8.G.G.Z.Z.H.U.K.K.C.p.c#d.b",
"Qt.1.1.l.y.L.L.U#e.3.3.4.O.Y.Y.W.F.3.3.4.Z.G.G.W.F.3.3#a#b#b#b#b#b#b#b#b#b.Z.Z.Z#b.8.Z.Z.8.Z.Z.8.8.Z.Z.Z.Z.Z.Z.H.I.K.K.H.p#d.b.b",
".d.d.d.m.z.K.L.U.W.4.4.F.W.W.W#f.4.3.3.4.X.W.W.X.F.4#a#b#b#c#c#b#b#c#c#c#c#b.G.Z.8.Z.8.8.Z.8.8.Z.Z.8.Z.G.Z.Z.Z.H.I.K.K.B.p.b.b.b",
".a.a.a.n.B.J.L.U.P.W.W.W.F.F.F.4.3.3.3.4.F.4.F.F.6#a#b#b#c#c#b#c#c#g#c#g#g#c#b.Z.8.Z.8.Z.8.Z.8.Z.8.Z.Z.8.Z.Z.Z.H.I.M.M.C.p.b.b.b",
".b.b#d.p#h.K.L.U#i.Y.Y.W.F.3.3.4.3.4.3.4.3.3.3.4#a#b#b#c#c#g#j#g#g#g#j#c#g#g#c#b.Z.8.Z.8.Z.8.Z.8.Z.8.8.Z.Z.Z.Z.H.U.M.M.C.p.b.b.b",
".b.b.b.p#h.K.K.I.H.Y.O.W.9.3.3.3.3.3.4.3.3.3.3.F#a#b#a#c#g#j#g#c#c#g#j#j#j#c#b#b#b.Z.Z.8.Z.8.8.Z.Z.8.Z.8.Z.Z.G.H.I.M.M.C.q.b.b.b",
".c.b.b.p#h.K.K.U.H.O.G.W.F.3.3.3.4.3.3.3.3.4.3#a#b#a#b#c#j#j#c#j#j#g#j#g#j#g#c#b#b.Z.8.Z.8.Z.Z.Z.8.Z.8.Z.G.Z.Z.H.U.M.M.C.o#d.b.b",
".b.b.b.p.B.K.K.I.H.Z.G.W.4.4.3.4.3.4.4.3.3.3.3#a#a#a#c#g#j#c#j#j#g#j#j#c#j#c#g#c#b.8.Z.8.Z.Z.Z.8.Z.8.Z.8.Z.Z.Z.H.U.M.M.C.o.b.b.b",
".c.b#d.p.N.K.K.U.H.Z.G.X.4.3.3.3.3.3.3.3.4.3#a#a#a#b#c#c#j#c#j#g#g#j#g#g#c#c#g#c#b.Z.8.Z.Z.8.8.Z#k#k#k.Z.G.Z.Z.H.U.M.K.C.o.b.b.b",
".c#d.b.p.C.K.K.I.H.G.G.Z.F.3.3.3.4.3.3.4.3.3.3.F#b#c#a#b#g#c#g#g#g#j#g#g#c#b#g#c#a.8.8.Z.8.Z.8#k#l#m#k.Z.Z.Z.Z.H##.M.M.C.p.b.b.c",
".a.a.a.n.B.K.K.V.0.X.W.X.4.3.4.3.3.3.3.4.4.4.4.6#a#a#b#b#c#c#g#g#c#g#g#g#c#b#c#c#a.8.Z.8.Z.8#n#l#n#l#k.8.Z.G.Z.H##.M.M.z.n.a.a.a",
".d.d.e.r.z.J.J.I.W.4.F.4.4.3.3.3.4.3.4.4.6.x.W#a#a#b#b#b#c#b#c#g#c#g#g#c#b#b#c#k#k#k#n.Z.Z#n#k#m#l#k.8.Z.Z.Z.G.H.I.K.J.z.m.d.d.d",
"Qt.g#o.l.z.L.K.S.X.3.3.3.3.4.3.4.3.3.3.4.Z.G.G.G.Z#a#b#b#b#b#c#g#c#c#c#k#k#m#l#k#n.Z.Z.8#n#m#p#n.8.Z.Z.8#.#..W.H.U.K.K.z.lQtQtQt",
"Qt.g#o.l.z.L.M.U.X.3.3.4.3.3.3.4.3.3.3.4.6.G.Z.G.G#q#b#a#b#b#a#c#c#c#k#k#m#r#k#n.Z.8.Z#n#k#k#n.0.Z.8.Z.Z#..G.Z.H.I.K.L.z.l.2QtQt",
".d.d.e.m.z.L.M.U.X.3.3.3.4.3.3.3.4.F.4.6.Z.G.Z.G#q#s#a#b#a#b#a#b#c#k#p#l#r#l#n#..G.Z#n#k#m#n.Z.8.8.Z.8.Z.Z.x.W.0.U.K.M.y.l.2QtQt",
".t.a.a.n.B.K.K.S.X.4.3.3.3.4.4.4.X.W.Z.x.G.Z.Z.X#q#s#s#s#a#a#b#a#k#p#l#r#l#k#q#q.Z#k#k#m#k.Z.G.Z.G.Z.G.O.F.F.F.W.U.K.J.z.lQtQtQt",
".b.b#d.p#h.J.J.S.X.3.3.4.3.3.3.4.Z.G.Z.Z.G.G.G#q#t#s#s#q#q#a#a#k#k#l#r#r#p#n#n#n#p#m#k#k#n.G.Z.Z.Z.G.G.W.F.3.3.W.T.K.L.z.lQtQtQt",
".c.b#d.p.C.M.J.T.X.4.3.3.3.4.5.4.X.G.Z.G.G.G.G#u#v#q#s#q#t#q#a#k#m#r#r#p#k#p#p#p#k#p#m#n.Z.Z.Z.Z.Z.G.G.W.F.3.3.W.T.K.K.z.k.g.1Qt",
".b.b.b.p.C.K.K.T.X.3.3.4.4.4.4.6.Z.G.Z.Z.Z.X#q#q#w#t#s#q#t#t#q#m#r#r#l#k#l#m#k#k#p#m#m#n.Z.Z.Z.Z.W.W.W.F.3.p.o.6.T.K.K.y.l.g.gQt",
".b.b.b.o.C.M.M.V.X.4.3.4.X.X.Z.X.Z.Z.G.Z.6.4#q#v#q#v#s#s#t#t#k#r#r#r#p#r#m#n#n#n#k#l#p.Z.8.Z.G.Z.6.F.F.5.E#x#x.5.C.J.J.z.mQtQtQt",
".b.b.b.o.C.K.M.V.X.3.3.4.Z.Z.G.Z.Z.Z.G.X.4.5#y#q#q#q#s#s#q#k#l#r#m#m#r#n#n#n#n#n#r#m#n.Z.8#..G.W.9.3.3#z#x.b.b.q.C.K.J.z.l.hQtQt",
".b.b.b.o.C.M.M.V.X.3.5.4.X.G.G.Z.G.Z.G.Z.4.3#A#B#B#A#y#C#k#m#r#l#p#l#p#n#n#n#n#m#l#p#n#n#n.G.G.Z.F.3.3.5#x.b.b.o.C.K.K.z.k.2.1Qt",
".a.a.a.r.C.M.M.U.Z.4.4.6.Z.G.G.G.x.Z.X.X.6.4#A#D#B#A#C#E#p#r#r#m#k#l#m#n#n#n#m#r#n#n#k#n#F.x.W.6.F.3.3#G#x.b.b.o.C.K.J.z.l.2QtQt",
".d.d.e.r.z.J.K.U.P.X.X.Z.Z.Z.Z.Z.F.4.4.F.6.W#q#A#A#C#E#k#m#r#r#k#r#m#n#m#p#r#l#k#k#p#k#n#n.F.F.F.3.4.3.5#x.b.b.n.C.J.J.B.l.g.gQt",
"Qt.g#o.l.z.J.K.I.H.G.Z.G.Z.G.G.X.F.3.3.F.W.G#q#q#q#C#E#p#l#r#p#r#r#n#l#m#l#m#p#k#n#H#k#F#n.3.3.3.3.3.3#G#x.b.b.q.C.J.J.z.l.gQtQt",
"Qt.g#o.l.z.M.M.U.H.G.G.Z.G.G.G.Z.4.3.3.4.W.G.G#q#E#I#k#p#l#k#k#r#n#r#r#m#k#n#k#n#H#J#p#n.F.3.3.3.3.3.3#K#L.b.b.n.C.J.J.z.l.g.gQt",
".d.d.e.m.z.M.M.I.H.O.W.G.W.W.x.6.F.3.3.F.W.G.G#E#I#I#k#p#k#p#r#n#r#r#m#k#n#n#k#n#p#p#n#q.4.3.3.3.F.F.F.3.q#x#x.5.C.J.K.B.m.d.d.d",
".t.a#M.n.C.K.M.I.H.Z.G.W.6.F.4.4.4.3.3.F.W.G#E#I#I#k#p#m#r#r#n#r#k#E#E#I#n#p#p#N#n#O#P#Q#q.3.3.F#f.W.Z.6.5.o#G.F.T.K.K.B.n.a.a.a",
".b.b#d.p.C.K.M.I.H.Z.G.Z.4.3.3.3.3.3.3.F.Z#E#I#I#k#m#l#r#r#n#r#k#R#E#E#n#k#k#n#E#s#q#O#q#E.3.3.F.W.G.G.W.F.3.3.W.T.K.K.C.p.b.c.c",
".c.c#d.p.C.M.M##.H.Z.G.W.4.3.3.4.3.3.3.9#E#I#E#k#m#r#r#r#n#r#r#S#R#S#E#E#I#I#I#E#A#v#v#D#E.3.3.F.W.G.G.Z.F.3.3.W.T.K.K.C.p#d#d.c",
".a.a.a.n.H.I.I.C.Y.X.W.X.4.4.3.3.4.4.F#T#I#k#m#l#r#r#r#n#r#r#k#S#R#R#S#E#I#S#E#I#E#E#A#E.4.4.F.F.W.O.W.6.3#G#G.F#h.I.I.0#U.a.a.t",
".#.d.e#V.x.H.H.G.X.F.4.4.4.4.3.4.X.W#W#T#p#r#r#r#l#k#n#r#r#m#S#S#R#R#S#S#E#I#S#E#E#E#E#W#T.O.W.X.F.F.F.5.E#x#X.p.W#h#h.R#V#Y.d.d",
".e.g.g.k#Z.G.G.Z.4.4.3.4.3.3.4.4.W.G#W#m#r#r#m#n#n#n#k#r#l#k#S#S#R#R#S#S#S#E#I#S#E#E#E#W#T.O.G.O.F.3.3#K#X.b#d#0.F.G.O.w.k.1QtQt",
".e.e.e.k#1.G.G.X.4.4.3.3.3.4.3.4.O.G#p#r#r#m#n#n#2#n#l#l#k#S#S#R#R#R#R#S#I#S#E#I#R#E#E#E#E#E.G.W.4.4.3.5#X.b.b#0.F.Y.Y.w.k.1QtQt",
".e.f.d#3.v.6.4.4.v.n.o#4#G.3#z#z.v#k#l#r#m#n#n#I#n#n#r#m#I#S#S#R#R#R#R#S#I#S#E#I#S#R#E#E#E#E#E#E.v.o#5#U#x.a.a.Q#6.F.R.v#7.1QtQt",
".t.a.a.t#8.E.E.Q#9a.#3a##x#8#8.u#V#l#r#m#n#n#n#n#m#r#m#I#I#S#S#R#R#R#R#S#S#I#S#E#I#S#R#T#E#E#E#E#E#3#3.i.i.d.d.#.u.E.q.u.fQtQtQt",
".b.c.c.c.b.b.b#M.e.e.e.e.a.b.c.a.d#r#l#p#n#n#n#m#r#l#k#I#I#S#S#R#R#R#R#R#S#I#I#E#I#E#S#Taa.g#E#E#E#EQtQt.h.h.h.d.a.b.b.a.dQtQtQt",
".c.c.c.c.b.c.b.t.#.e.e.f.a.c.c.a#k#r#l#p#p#m#r#r#l#k#I#I#p#p#paaaaaa#R#R#S#I#I#p#E#S#E#R.d.g.g#E#E#E#E#WQt.h.h.d.a.c.b.a.d.h.hQt",
".b.b.c.b.b.c.b.t.e.e.g.e.t.c.c.a#p#r#l#l#l#r#r#m#k#W#W#W#T#T#T#p#p#paaaaaa#p#p#W#E#I#T#R.dQtQtQt#E#EQt#W#WQt.h.d.a.c.c.a.dQtQtQt",
"QtQtQtQtQtQtQtQtQtQtQtQtQtQtQt#k#m#r#r#r#r#m#k#k#p#T#T#T#p#p#paaaaaa#p#p#p#W#W#p#p#E#T#SaaQt.f.gQt#W#W#W#N#WQtQtQtQt.f.d.a.c.c.b",
"QtQtQtQtQtQtQt.gQt.gQt.g.gQt.g#k#l#r#l#l#p#kabab#W#W#W#W#Oacadabadadaaaaaaaa#pabab#W#E#Iaa.g.g.g.g.g.e.e#W#W.g.g.gQt.g.d.a.c.c.c",
".h.hQtQtQt.g.gQt.gQtQt.g.g.g#k#p#l#m#p#kabababababadaeaf#Nafadab#nadadadadadababab#Wagagaaab.g.g.g.g.e.e.g.g.g.g.g.g.g.d.a.c.c.c",
".d.d.d.i.j.j.k.k.k.l.l.l.m.l#k#m#p#kabababababababadadadadadadabadadadadad#nabababab#Wagaaababab.l.l.l.l.l.l.l.l.k.k.k.j.s.a.t.a",
".t.a.a.u.v.w.w.x.y.z.z.z.y.z.zababababababababababahaiac#Oacadabadadadadadadababababab#Wababababab.A.z.z.z.z.z.y.x.w.w.D.j.d.d.d",
".c.b.b.E.F.G.G.H.I.J.J.K.L.Labababababababababababadaeaf#Nafaeabadadaeaeadadabababababababababababab.K.J.K.J.L.I.N.G.G.w.k.gQtQt",
".c.c.b.E.F.G.O.H.I.J.K.K.Kababababababababababababadaf#N#N#Naeabab#nadad#nabababababababababababababab.K.K.K.K.I.P.O.O.w.kQtQt.h",
".a.a.a.Q.R.H.H.N.S.T.T.T.Tabababababababababababadaeae#N#p#Nafaeababababababababababababababababababab.U.I.I.U.S.N.N.H.x.k.g.gQt",
".d.d.d.m.y.I.I.S.G.W.W.W.Wabababababababababababadaeadadadadaeaeababababababababababababababababababab.Z.G.H.H.H.V.M.I.y.k.g.g.f",
"Qt.1.2.l.z.J.K.T.X.3.3.3.3abababababababababababadadadadadadadaeababababababababababababababababababab.4.X.Z.G.H.V.M.K.B.l.g.e.e",
"QtQt.2.l.z.J.K.T.W.3.3.3.3.3ababababababababababab#nadadadad#nababababababababababababababababababab.5.4.Z.Z.W.H.7.K.J.B.l.e.e.e",
"Qt.2Qt.l.B.J.K.T.W.3.3.3.4.3.3abababababababababababababababababababababababababababababababababab.4.4.F.Z.Z.G.0.I.J.K.B.l.e.e.h",
"Qt.2.2.l.z.K.K.T.W.3.3.4.3.3.3.Fabababababababababababababababababababababababababababababababab.W.X.Z.Z.Z.Z.Z.H.I.K.L.z.l.g.gQt",
"QtQt.2.l.z.J.K.T.W.3.3.3.3.4.3.F.Z.Gabababababababababababababababababababababababababababab.8.Z.G.G.Z.Z.G.Z.Z.H.U.K.L.z.l.g.gQt",
"Qt.2.2.l.z.K.K.U.W.3.3.3.3.3.3.F.Z.G.G.W.F.3abababababababababababababababababababab.Z.Z.Z.8.Z.8.Z.Z.G.Z.Z.Z.G.H.I.K.L.z.l.e.g.f",
"QtQt.2.l.z.K.K.U.W.3.3.3.4.F.4.F.X.X.Z.X.4.3.3.4.3.4.3.4.4.F.4.6.X.X.Z.Z.Z.Z.Z.G.G.Z.G.Z.8.Z.8.Z.Z.G.Z.Z.Z.G.Z.H.U.K.L.y.l.e.e.e",
"Qt.gQt.m.y.L.L.U.W.3.3.4.6.W.Z.6.F.9.4.4.4.3.4.3.5.3.4.4.6.Z.Z.6.F.F.F.F.x#..Z.8.Z.8.Z.8.8.Z.Z.8.G.Z.Y.Z.Z.Z.Z.H.U.M.L.z.l.g.gQt",
"QtQtQt.l.z.L.K.U.W.3.3.F.W.G.G.W.F.3.4.3.3.3.4.3.4.3.3.4.X.G.G.X.4.3.5.F.Z#.#..Z.8.Z.8.Z.Z.Z.8.Z.Z.Z.Z.8.Z.Z.Z.H.I.M.M.z.l.gQtQt",
"Qt.g.g.l.z.K.K.U.W.3.3.F.Z.G.G.Z.4.3.3.3.3.4.3.3.4.3.3.4.Z.Y.Y.Z.4.3.3.9.W.Y.Z.8.Z.8.8.Z.8.Z.Z.8.Z.8.Z.Y.G.Z.Z.H.U.M.M.z.m.g.gQt",
"Qt.g.g.k.z.K.K.U.W.4.4.F.X.W.Z.6.4.3.4.3.3.3.3.4.4.4.4.6.X.X.Z.X.F.4.9.F.Z.Z.8.Z.Z.Z.Z.8.Z.8.8.Z.Z.Z.8.Z.Z.Z.Z.H##.M.M.z.l.gQtQt",
"QtQtQt.l.z.K.K.I.Y.W.W.W.F.F.4.F.3.4.3.4.4.3.3.F.6.Z.X.6.F.4.4.F.W.W.W.W.Z.8.Z.8.8.Z.8.Z.8.Z.8.8.Y.Z.8.Z.8.Z.G.H.I.K.J.z.l.g.gQt",
"QtQtQt.l.z.K.K.U.H.G.Y.Z.4.3.3.3.3.3.3.3.3.3.3.9.Z.G.G.Z.4.3.3.F.W.G.Y.Y.Z.8.8.Z.Z.8.Z.8.Z.8.Z.Z.Z.8.Z.8.8.Z.W.H.I.K.J.z.l.e.g.h",
"QtQt.2.k.z.K.K.I.H.G.G.W.4.3.3.3.4.3.4.3.3.3.3.F.W.G.G.Z.F.5.3.4.W.Z.G.G.Z.Z.Z.8.Z.8.8.Z.8.Z.Z.8.Z.8.Z.Z.Z.8.Z.H.T.K.J.z.l.g.g.h",
"Qt.2Qt.l.z.K.K.U.P.W.W.X.F.4.9.F.4.3.3.3.4.F.4.F.X.Z.X.X.F.4.4.9.Z.G.Z.G.8.Z.8.Z.8.Z.8.Z.Z.8.Z.Z.Y.Z.8.Z.Z.Z.Z.B.I.K.J.z.m.d.d.d",
"QtQt.2.k.z.J.J.U.O.4.4.F.W.W.O.W.F.3.3.F.6.W.Z.X.6.F.4.F.X.Z.W.Z.Z.Z.Z.Z.Z.Z.Z.Z.Z.8.Z.Z.8.Z.Z.8.8.Z.Z.Z.Z.Z.Z.H.U.K.K.B.n.a.a.t",
"Qt.1Qt.l.z.L.K.T.W.3.3.4.W.Y.G.W.4.3.3.F.Z.G.G.X.4.3.3.4.X.G.G.G.Z.Z.G.Z.0.Z.G.Z.8.Z.Z.8.Z.8.8.Z.Z.Z.8.G.G.Z.Z.H.U.K.K.C.p.c#d.b",
"Qt.1.1.l.y.L.L.U#e.3.3.4.O.Y.Y.W.F.3.3.4.Z.G.G.W.F.3.3.4.x.G.8.8.G.Z.Z.Z.Z.Z.Z.Z.Z.8.Z.Z.8.Z.Z.8.8.Z.Z.Z.Z.Z.Z.H.I.K.K.H.p#d.b.b",
".d.d.d.m.z.K.L.U.W.4.4.F.W.W.W#f.4.3.3.4.X.W.W.X.F.4.4.6.Z.8.Z.Z.Z.Z.G.Z.G.Z.G.Z.8.Z.8.8.Z.8.8.Z.Z.8.Z.G.Z.Z.Z.H.I.K.K.B.p.b.b.b",
".a.a.a.n.B.J.L.U.P.W.W.W.F.F.F.4.3.3.3.4.F.4.F.F.6.W.Z.Z.Z.Z.Z.8#..Z.Z.8.Z.G.Z.Z.8.Z.8.Z.8.Z.8.Z.8.Z.Z.8.Z.Z.Z.H.I.M.M.C.p.b.b.b",
".b.b#d.p#h.K.L.U#i.Y.Y.W.F.3.3.4.3.4.3.4.3.3.3.4.Z.G.G.Z.Z.Z.G.Z#..Z.8.Z.Z.Z.Z.8.Z.8.Z.8.Z.8.Z.8.Z.8.8.Z.Z.Z.Z.H.U.M.M.C.p.b.b.b",
".b.b.b.p#h.K.K.I.H.Y.O.W.9.3.3.3.3.3.4.3.3.3.3.F.X.Z.Z.Z.Z.Z.Z.Y#..8.Z.8.Z.Z.8.Z.Z.Z.Z.8.Z.8.8.Z.Z.8.Z.8.Z.Z.G.H.I.M.M.C.q.b.b.b",
".c.b.b.p#h.K.K.U.H.O.G.W.F.3.3.3.4.3.3.3.3.4.3.F.Z.G.G.Z.Z.Z.Z.Z.8.Z.8.Z.8.8.Z.8.8.Z.8.Z.8.Z.Z.Z.8.Z.8.Z.G.Z.Z.H.U.M.M.C.o#d.b.b",
".b.b.b.p.B.K.K.I.H.Z.G.W.4.4.3.4.3.4.4.3.3.3.3.4.Z.8.8.8.G.Z.Z.Y.Z.8.Z.8.Z.Z#.#..Z.8.Z.8.Z.Z.Z.8.Z.8.Z.8.Z.Z.Z.H.U.M.M.C.o.b.b.b",
".c.b#d.p.N.K.K.U.H.Z.G.X.4.3.3.3.3.3.3.3.4.3.4.4.x.8.Z.Z.Z.Y.Z.Z.8.Z.8#..8.Z#.#..8.Z.8.Z.Z.8.8.Z.8.Z.Z.Z.G.Z.Z.H.U.M.K.C.o.b.b.b",
".c#d.b.p.C.K.K.I.H.G.G.Z.F.3.3.3.4.3.3.4.3.3.3.F.X.G.8.Z.8.Z.Z.Z.Z.Z#.#.#.#.#.#..Z.8.8.Z.8.Z.8.Z.8.Z.8.Z.Z.Z.Z.H##.M.M.C.p.b.b.c",
".a.a.a.n.B.K.K.V.0.X.W.X.4.3.4.3.3.3.3.4.4.4.4.6.W.G.8.Z.8.Z.G.Z.8.Z#.#.#.#.#.#..Z.8.Z.8.Z.8.Z.8.Z.8.Z.8.Z.G.Z.H##.M.M.z.n.a.a.a",
".d.d.e.r.z.J.J.I.W.4.F.4.4.3.3.3.4.3.4.4.6.x.W.W.G.G.Z.Z.Z.Z.G.Z.G.Z.Z.Z#..Z.8.Z.Z.Z.8.Z.Z.Z.Z.Z.8.Z.8.Z.Z.Z.G.H.I.K.J.z.m.d.d.d",
"Qt.g#o.l.z.L.K.S.X.3.3.3.3.4.3.4.3.3.3.4.Z.G.G.G.Z.Z.Z.G.Z.G.Z.Z.Z.Z.G.Z#..8#..Z.8.Z.Z.8.Z.G.Z.Z.8.Z.Z.8#.#..W.H.U.K.K.z.lQtQtQt",
"Qt.g#o.l.z.L.M.U.X.3.3.4.3.3.3.4.3.3.3.4.6.G.Z.G.G.G.Z.G.Z.Z.Z.Z.Z.Y.G.G#.#.#.#..Z.8.Z.G.Z.G.Z.0.Z.8.Z.Z#..G.Z.H.I.K.L.z.l.2QtQt",
".d.d.e.m.z.L.M.U.X.3.3.3.4.3.3.3.4.F.4.6.Z.G.Z.G.W.X.x.Z.Z.Z.G.G.Z.Z.x.Z.Z#.#.#..G.Z.Z.Z.Z.Z.Z.8.8.Z.8.Z.Z.x.W.0.U.K.M.y.l.2QtQt",
".t.a.a.n.B.K.K.S.X.4.3.3.3.4.4.4.X.W.Z.x.G.Z.Z.X.6.4.4.6.Z.G.G.Z.9.9.F.F.W.G.Z.Z.Z.Z.Z.Z.Z.Z.G.Z.G.Z.G.O.F.F.F.W.U.K.J.z.lQtQtQt",
".b.b#d.p#h.J.J.S.X.3.3.4.3.3.3.4.Z.G.Z.Z.G.G.G.W.4.3.3.4.X.G.G.X.9.3.3.F.W.G.G.Z.Z.G.Z.G.Z.G.Z.Z.Z.G.G.W.F.3.3.W.T.K.L.z.lQtQtQt",
".c.b#d.p.C.M.J.T.X.4.3.3.3.4.5.4.X.G.Z.G.G.G.G.Z.4.5.4.4.x.G.G.O.3.3.3.4.x.G.Z.8.Z.8.Z.8.Z.Z.Z.Z.Z.G.G.W.F.3.3.W.T.K.K.z.k.g.1Qt",
".b.b.b.p.C.K.K.T.X.3.3.4.4.4.4.6.Z.G.Z.Z.Z.X.Z.6.F.4.4.6.X.O.X.X.F.F.9.F.Z.8.8.Z.Z.Z.8.Z.Z.Z.Z.Z.W.W.W.F.3.p.o.6.T.K.K.y.l.g.gQt",
".b.b.b.o.C.M.M.V.X.4.3.4.X.X.Z.X.Z.Z.G.Z.6.4.4.F.6.W.Z.X.F.4.4.6.W.W.W.Z.Z.Z.Z.8.8.Z.8.Z.8.Z.G.Z.6.F.F.5.E#x#x.5.C.J.J.z.mQtQtQt",
".b.b.b.o.C.K.M.V.X.3.3.4.Z.Z.G.Z.Z.Z.G.X.4.5.3.4.Z.Z.G.X.F.3.3.4.W.G.G.Z.Z.Z.G.Z.Z.8.Z.Z.8#..G.W.9.3.3#z#x.b.b.q.C.K.J.z.l.hQtQt",
".b.b.b.o.C.M.M.V.X.3.5.4.X.G.G.Z.G.Z.G.Z.4.3.3.4.Z.G.G.Z.4.3.5.4.W.G.Z.Z.Z.Z.Z.Z.8.Z.8.8.8.G.G.Z.F.3.3.5#x.b.b.o.C.K.K.z.k.2.1Qt",
".a.a.a.r.C.M.M.U.Z.4.4.6.Z.G.G.G.x.Z.X.X.6.4.4.6.6.Z.X.X.F.4.4.F.G.G.G.Z.G.Z.G.Z.Z.8.Z.Z.Z.x.W.6.F.3.3#G#x.b.b.o.C.K.J.z.l.2QtQt",
".d.d.e.r.z.J.K.U.P.X.X.Z.Z.Z.Z.Z.F.4.4.F.6.W.Z.6.F.F.4.F.X.Z.W.Z.Z.Z.8.Z.Z.Z.Z.Z.G.Z.G.G.F.F.F.F.3.4.3.5#x.b.b.n.C.J.J.B.l.g.gQt",
"Qt.g#o.l.z.J.K.I.H.G.Z.G.Z.G.G.X.F.3.3.F.W.G.Z.Z.4.5.3.4.X.G.G.G.8.8.Z.8.8.G.Z.Z.Z.Z.G.W.4.3.3.3.3.3.3#G#x.b.b.q.C.J.J.z.l.gQtQt",
"Qt.g#o.l.z.M.M.U.H.G.G.Z.G.G.G.Z.4.3.3.4.W.G.G.W.F.3.3.4.x.G.8.8.Z.Z.8.Z.Z.8.Z.G.Z.G.G.W.F.3.3.3.3.3.3#K#L.b.b.n.C.J.J.z.l.g.gQt",
".d.d.e.m.z.M.M.I.H.O.W.G.W.W.x.6.F.3.3.F.W.G.G.Z.F.4.4.6.Z.8.Z.Z.Z.8.Z.Z.8.Z.Z.Z.W.x.W.X.4.3.3.3.F.F.F.3.q#x#x.5.C.J.K.B.m.d.d.d",
".t.a#M.n.C.K.M.I.H.Z.G.W.6.F.4.4.4.3.3.F.W.G.G.W.W.W.Z.Z.Z.Z.Z.8.8.Z.8.Z.Z.G.Z.Z#f.4.4.4.4.3.3.F#f.W.Z.6.5.o#G.F.T.K.K.B.n.a.a.a",
".b.b#d.p.C.K.M.I.H.Z.G.Z.4.3.3.3.3.3.3.F.Z.Z.G.Z.G.G.8.Z.Z.Z.Z.8.8.Z.8.8.Z.G.G.X.F.3.3.3.3.3.3.F.W.G.G.W.F.3.3.W.T.K.K.C.p.b.c.c",
".c.c#d.p.C.M.M##.H.Z.G.W.4.3.3.4.3.3.3.9.R.G.Z.G.G.Z.G.G.Z.Z.Z.Z.G.G.Z.8.G.G.G.W.F.3.3.3.3.3.3.F.W.G.G.Z.F.3.3.W.T.K.K.C.p#d#d.c",
".a.a.a.n.H.I.I.C.Y.X.W.X.4.4.3.3.4.4.F.6.W.Z.G.O.Z.Z.Z.Z.Z.Z.8.Z.W.W.x.Z.O.W.W.X.F.3.3.4.4.4.F.F.W.O.W.6.3#G#G.F#h.I.I.0#U.a.a.t",
".#.d.e#V.x.H.H.G.X.F.4.4.4.4.3.4.X.W.O.W.G.G.G.G.Z.Z.Z.Z.Z.G.G.O.6.4.F.F.4.F.F.4.3.3.4.4#f.O.W.X.F.F.F.5.E#x#X.p.W#h#h.R#V#Y.d.d",
".e.g.g.k#Z.G.G.Z.4.4.3.4.3.3.4.4.W.G.G.G.G.G.G.O.G.G.G.G.G.G.G.W.F.3.3.3.3.3.3.3.4.3.3.F.O.O.G.O.F.3.3#K#X.b#d#0.F.G.O.w.k.1QtQt",
".e.e.e.k#1.G.G.X.4.4.3.3.3.4.3.4.O.G.G.G.Z.G.G.G.G.G.G.G.Z.G.G.W.4.3.3.4.3.4.4.3.4.3.3.F.O.G.G.W.4.4.3.5#X.b.b#0.F.Y.Y.w.k.1QtQt",
".e.f.d#3.v.6.4.4.v.n.o#4#G.3#z#z.v#Z#1.w.w.F.9.w.w#1.w.w.F.w.F.4.5#z#z#z#G#G#G#G#G#G#G.5.4#1#Z.v.v.o#5#U#x.a.a.Q#6.F.R.v#7.1QtQt",
".t.a.a.t#8.E.E.Q#9a.#3a##x#8#8.u#V.k.j#V.Q.E.E.Q#V.k.k.j.Q#L.q.Q#L#L#L#L#L#L#L#L#L#L#L.u#V.k.k.j.j#3#3.i.i.d.d.#.u.E.q.u.fQtQtQt",
".b.c.c.c.b.b.b#M.e.e.e.e.a.b.c.a.dQt#o#Y.a.b.b.a.d#o.g.d.a.b.b.b.c.c.t.b.c.b.b.c.b.b.c.a.d.g.g.g.gQtQtQt.h.h.h.d.a.b.b.a.dQtQtQt",
".c.c.c.c.b.c.b.t.#.e.e.f.a.c.c.a.dQtQt.d.a#d.b.a.d.hQt.d.a.c.b.b.b.c.b.b.b.b.c.b.b.b.b.a.d.g.gQtQtQtQtQtQt.h.h.d.a.c.b.a.d.h.hQt",
".b.b.c.b.b.c.b.t.e.e.g.e.t.c.c.a.dQtQt.d.a.c.b.a.d.hQt.d.a.c.c.c.c.b.c.b.c.c.b.c.c.b.b.t.dQtQtQtQtQtQtQtQtQt.h.d.a.c.c.a.dQtQtQt"};
