/* XPM */
static char *dummy[]={
"64 64 112 2",
"Qt c None",
".J c #000000",
".K c #000000",
".L c #000000",
"#z c #000000",
".M c #000000",
"#p c #000000",
".N c #000000",
".O c #000000",
".W c #000000",
".P c #000000",
"#R c #000000",
"#S c #000000",
"#T c #000000",
".Q c #000000",
"#f c #000000",
".6 c #000000",
"#B c #000000",
".X c #000000",
".R c #000000",
"#q c #000000",
"#x c #000000",
".S c #000000",
".Y c #000000",
".T c #000000",
".7 c #000000",
"#e c #000000",
".U c #000000",
".Z c #000000",
".V c #000000",
"#g c #000000",
"#N c #000000",
"#O c #000000",
"#P c #000000",
"#Q c #000000",
".0 c #000000",
"#I c #000000",
".8 c #000000",
"#C c #000000",
".1 c #000000",
"#J c #000000",
"#r c #000000",
"#y c #000000",
".2 c #000000",
".9 c #000000",
"#h c #000000",
".3 c #000000",
".4 c #000000",
"#. c #000000",
"#D c #000000",
".5 c #000000",
"#K c #000000",
"#i c #000000",
"## c #000000",
"#L c #000000",
"#s c #000000",
"#M c #000000",
"#a c #000000",
"#j c #000000",
"#b c #000000",
"#c c #000000",
"#d c #000000",
"#t c #000000",
"#k c #000000",
"#E c #000000",
"#F c #000000",
"#G c #000000",
"#l c #000000",
"#H c #000000",
"#m c #000000",
"#n c #000000",
"#o c #000000",
"#u c #000000",
"#A c #000000",
"#v c #000000",
"#w c #000000",
".o c #000003",
".F c #00070c",
".x c #07050d",
".r c #141d32",
".j c #1baba8",
".f c #1c0000",
".y c #1e232c",
".g c #25424b",
".p c #2b2c38",
".z c #303a55",
".I c #3f4449",
".C c #4b5e7f",
".l c #4f211e",
".t c #4f5463",
".b c #52300c",
".q c #5b0a00",
".D c #684700",
".G c #6c7273",
".E c #708ea7",
".s c #757c87",
".u c #841914",
".n c #8b4435",
".a c #946230",
".H c #99a09e",
".B c #9e7b10",
".w c #b1b5be",
".h c #b5bfce",
".m c #c26552",
".# c #d1a049",
".A c #dfba18",
".c c #f0e883",
".k c #f2ffff",
".v c #f4fffe",
".e c #fd9370",
".i c #ffe5ba",
".d c #fffffa",
"QtQtQtQtQtQtQtQtQtQtQtQtQtQtQtQtQtQtQtQtQtQtQtQtQtQtQtQtQtQtQtQtQtQtQtQtQtQtQtQtQtQtQtQtQtQtQtQtQtQtQtQtQtQtQtQtQtQtQtQtQtQtQtQt",
"QtQtQtQtQtQtQtQtQtQtQtQtQtQtQtQtQtQtQtQtQtQtQtQtQtQtQtQtQtQtQtQtQtQtQtQtQtQtQtQtQtQtQtQtQtQtQtQtQtQtQtQtQtQtQtQtQtQtQtQtQtQtQtQt",
"QtQtQtQtQtQtQtQtQtQtQtQtQtQtQtQtQtQtQtQtQtQtQtQtQtQtQtQtQt.#.aQtQtQtQtQtQtQtQtQtQtQtQtQtQtQtQtQtQtQtQtQtQtQtQtQtQtQtQtQtQtQtQtQt",
"QtQtQtQtQtQtQtQtQtQtQtQtQtQtQtQtQtQtQtQtQtQtQtQtQtQtQtQt.b.#.a.a.a.aQtQtQtQtQtQtQtQtQtQtQtQtQtQtQtQtQtQtQtQtQtQtQtQtQtQtQtQtQtQt",
"QtQtQtQtQtQtQtQtQtQtQtQtQtQtQtQtQtQtQtQtQtQtQtQtQtQt.b.a.b.b.#.a.a.a.#.aQtQtQtQtQtQtQtQtQtQtQtQtQtQtQtQtQtQtQtQtQtQtQtQtQtQtQtQt",
"QtQtQtQtQtQtQtQtQtQtQtQtQtQtQtQtQtQtQtQtQtQtQtQtQt.b.b.a.a.#.a.a.#.#.#.a.aQtQtQtQtQtQtQtQtQtQtQtQtQtQtQtQtQtQtQtQtQtQtQtQtQtQtQt",
"QtQtQtQtQtQtQtQtQtQtQtQtQtQtQtQtQtQtQtQtQtQtQtQtQt.b.a.#.c.#.#.#.c.#.c.#.a.aQtQtQtQtQtQtQtQtQtQtQtQtQtQtQtQtQtQtQtQtQtQtQtQtQtQt",
"QtQtQtQtQtQtQtQtQtQtQtQtQtQtQtQtQtQtQtQtQtQtQtQt.a.#.d.c.c.#.c.#.c.c.#.c.c.aQtQtQtQtQtQtQtQtQtQtQtQtQtQtQtQtQtQtQtQtQtQtQtQtQtQt",
"QtQtQtQtQtQtQtQtQtQtQtQtQtQtQtQtQtQtQtQtQtQtQtQt.a.d.c.#.c.#.c.c.#.c.#.#.c.#.bQtQtQtQtQtQtQtQtQtQtQtQtQtQtQtQtQtQtQtQtQtQtQtQtQt",
"QtQtQtQtQtQtQtQtQtQtQtQtQtQtQtQtQtQtQtQtQtQtQt.#.c.#.#.d.c.a.#.d.c.a.#.a.a.#.bQtQtQtQtQtQtQtQtQtQtQtQtQtQtQtQtQtQtQtQtQtQtQtQtQt",
"QtQtQtQtQtQtQtQtQtQtQtQtQtQtQtQtQtQtQtQtQtQtQt.#.#.a.d.c.a.b.a.c.d.a.#.#.b.a.#.aQtQtQtQtQtQtQtQtQtQtQtQtQtQtQtQtQtQtQtQtQtQtQtQt",
"QtQtQtQtQtQtQtQtQtQtQtQtQtQtQtQtQtQtQtQtQtQtQtQt.b.b.d.#.b.e.a.#.c.#.a.#.a.b.b.aQtQtQtQtQtQtQtQtQtQtQtQtQtQtQtQtQtQtQtQtQtQtQtQt",
"QtQtQtQtQtQtQtQtQtQtQtQtQtQtQtQtQtQtQtQtQtQtQtQtQt.b.c.a.e.f.f.b.#.#.b.a.b.a.a.aQtQtQtQtQtQtQtQtQtQtQtQtQtQtQtQtQtQtQtQtQtQtQtQt",
"QtQtQtQtQtQtQtQtQtQtQtQtQtQtQtQtQtQtQtQtQtQtQtQtQt.b.#.b.f.g.h.b.#.a.e.a.b.b.b.aQtQtQtQtQtQtQtQtQtQtQtQtQtQtQtQtQtQtQtQtQtQtQtQt",
"QtQtQtQtQtQtQtQtQtQtQtQtQtQtQtQtQtQtQtQtQtQtQtQtQtQt.b.e.i.j.k.e.a.b.e.a.b.bQtQtQtQtQtQtQtQtQtQtQtQtQtQtQtQtQtQtQtQtQtQtQtQtQtQt",
"QtQtQtQtQtQtQtQtQtQtQtQtQtQtQtQtQtQtQtQtQtQtQtQtQtQt.l.i.i.i.m.i.b.n.n.b.b.oQtQtQtQtQtQtQtQtQtQtQtQtQtQtQtQtQtQtQtQtQtQtQtQtQtQt",
"QtQtQtQtQtQtQtQtQtQtQtQtQtQtQtQtQtQtQtQtQtQtQtQtQt.p.l.m.i.i.i.n.m.n.b.b.o.oQtQtQtQtQtQtQtQtQtQtQtQtQtQtQtQtQtQtQtQtQtQtQtQtQtQt",
"QtQtQtQtQtQtQtQtQtQtQtQtQtQtQtQtQtQtQtQtQtQtQtQtQt.p.q.l.m.e.e.m.n.b.o.r.r.oQtQtQtQtQtQtQtQtQtQtQtQtQtQtQtQtQtQtQtQtQtQtQtQtQtQt",
"QtQtQtQtQtQtQtQtQtQtQtQtQtQtQtQtQtQtQtQtQtQtQtQtQt.s.q.p.l.n.n.o.r.r.t.t.oQtQtQtQtQtQtQtQtQtQtQtQtQtQtQtQtQtQtQtQtQtQtQtQtQtQtQt",
"QtQtQtQtQtQtQtQtQtQtQtQtQtQtQtQtQtQtQtQtQtQtQtQtQt.t.u.s.o.p.s.v.w.s.t.r.oQtQtQtQtQtQtQtQtQtQtQtQtQtQtQtQtQtQtQtQtQtQtQtQtQtQtQt",
"QtQtQtQtQtQtQtQtQtQtQtQtQtQtQtQtQtQtQtQtQtQtQtQtQt.x.t.w.s.s.v.r.r.o.o.o.oQtQtQtQtQtQtQtQtQtQtQtQtQtQtQtQtQtQtQtQtQtQtQtQtQtQtQt",
"QtQtQtQtQtQtQtQtQtQtQtQtQtQtQtQtQtQtQtQtQtQtQtQtQt.x.x.w.s.w.w.o.y.z.z.z.oQtQtQtQtQtQtQtQtQtQtQtQtQtQtQtQtQtQtQtQtQtQtQtQtQtQtQt",
"QtQtQtQtQtQtQtQtQtQtQtQtQtQtQtQtQtQtQtQtQtQtQtQtQt.p.x.p.s.v.o.o.z.z.A.B.rQtQtQtQtQtQtQtQtQtQtQtQtQtQtQtQtQtQtQtQtQtQtQtQtQtQtQt",
"QtQtQtQtQtQtQtQtQtQtQtQtQtQtQtQtQtQtQtQtQtQtQtQtQt.t.p.p.p.v.o.r.C.B.A.A.zQtQtQtQtQtQtQtQtQtQtQtQtQtQtQtQtQtQtQtQtQtQtQtQtQtQtQt",
"QtQtQtQtQtQtQtQtQtQtQtQtQtQtQtQtQtQtQtQtQtQtQtQtQt.s.D.t.t.w.o.z.C.A.A.B.rQtQtQtQtQtQtQtQtQtQtQtQtQtQtQtQtQtQtQtQtQtQtQtQtQtQtQt",
"QtQtQtQtQtQtQtQtQtQtQtQtQtQtQtQtQtQtQtQtQtQtQtQtQt.t.p.B.p.w.o.z.C.C.C.z.rQtQtQtQtQtQtQtQtQtQtQtQtQtQtQtQtQtQtQtQtQtQtQtQtQtQtQt",
"QtQtQtQtQtQtQtQtQtQtQtQtQtQtQtQtQtQtQtQtQtQtQtQtQt.p.D.t.t.w.o.r.z.C.z.z.oQtQtQtQtQtQtQtQtQtQtQtQtQtQtQtQtQtQtQtQtQtQtQtQtQtQtQt",
"QtQtQtQtQtQtQtQtQtQtQtQtQtQtQtQtQtQtQtQtQtQtQtQtQt.p.x.B.p.s.o.r.z.z.z.r.oQtQtQtQtQtQtQtQtQtQtQtQtQtQtQtQtQtQtQtQtQtQtQtQtQtQtQt",
"QtQtQtQtQtQtQtQtQtQtQtQtQtQtQtQtQtQtQtQtQtQtQtQtQtQt.x.x.p.s.r.z.C.z.z.r.oQtQtQtQtQtQtQtQtQtQtQtQtQtQtQtQtQtQtQtQtQtQtQtQtQtQtQt",
"QtQtQtQtQtQtQtQtQtQtQtQtQtQtQtQtQtQtQtQtQtQtQtQtQtQt.B.D.x.w.r.C.E.z.z.o.oQtQtQtQtQtQtQtQtQtQtQtQtQtQtQtQtQtQtQtQtQtQtQtQtQtQtQt",
"QtQtQtQtQtQtQtQtQtQtQtQtQtQtQtQtQtQtQtQtQtQtQtQtQt.D.D.D.x.s.z.E.E.C.r.x.oQtQtQtQtQtQtQtQtQtQtQtQtQtQtQtQtQtQtQtQtQtQtQtQtQtQtQt",
"QtQtQtQtQtQtQtQtQtQtQtQtQtQtQtQtQtQtQtQtQtQtQtQtQt.D.D.p.p.w.v.C.C.C.r.o.o.oQtQtQtQtQtQtQtQtQtQtQtQtQtQtQtQtQtQtQtQtQtQtQtQtQtQt",
"QtQtQtQtQtQtQtQtQtQtQtQtQtQtQtQtQtQtQtQtQtQtQtQtQt.x.B.D.D.r.z.v.w.s.t.o.o.oQtQtQtQtQtQtQtQtQtQtQtQtQtQtQtQtQtQtQtQtQtQtQtQtQtQt",
"QtQtQtQtQtQtQtQtQtQtQtQtQtQtQtQtQtQtQtQtQtQtQtQtQt.D.t.t.p.s.w.z.z.r.o.x.x.oQtQtQtQtQtQtQtQtQtQtQtQtQtQtQtQtQtQtQtQtQtQtQtQtQtQt",
"QtQtQtQtQtQtQtQtQtQtQtQtQtQtQtQtQtQtQtQtQtQtQtQtQt.x.D.B.F.F.p.w.s.t.p.o.r.o.oQtQtQtQtQtQtQtQtQtQtQtQtQtQtQtQtQtQtQtQtQtQtQtQtQt",
"QtQtQtQtQtQtQtQtQtQtQtQtQtQtQtQtQtQtQtQtQtQtQtQtQt.p.w.F.G.F.y.F.F.F.r.o.r.r.x.oQtQtQtQtQtQtQtQtQtQtQtQtQtQtQtQtQtQtQtQtQtQtQtQt",
"QtQtQtQtQtQtQtQtQtQtQtQtQtQtQtQtQtQtQtQtQtQtQtQtQt.o.p.F.H.y.I.I.y.F.y.r.r.r.o.oQtQtQtQtQtQtQtQtQtQtQtQtQtQtQtQtQtQtQtQtQtQtQtQt",
"QtQtQtQtQtQtQtQtQtQtQtQtQtQtQtQtQtQtQtQtQtQtQtQtQt.o.x.p.F.I.G.G.F.z.z.r.r.r.r.oQtQtQtQtQtQtQtQtQtQtQtQtQtQtQtQtQtQtQtQtQtQtQtQt",
"QtQtQtQtQtQtQtQtQtQtQtQtQtQtQtQtQtQtQtQtQtQtQtQtQt.o.o.o.r.F.F.F.r.z.z.r.r.r.z.y.oQtQtQtQtQtQtQtQtQtQtQtQtQtQtQtQtQtQtQtQtQtQtQt",
"QtQtQtQtQtQtQtQtQtQtQtQtQtQtQtQtQtQtQtQtQtQtQtQtQt.o.y.z.r.o.w.s.z.z.z.z.r.r.z.z.o.oQtQtQtQtQtQtQtQtQtQtQtQtQtQtQtQtQtQtQtQtQtQt",
"QtQtQtQtQtQtQtQtQtQtQtQtQtQtQtQtQtQtQtQtQtQtQtQtQt.o.z.z.z.r.s.s.z.z.C.z.r.r.z.z.r.oQtQtQtQtQtQtQtQtQtQtQtQtQtQtQtQtQtQtQtQtQtQt",
"QtQtQtQtQtQtQtQtQtQtQtQtQtQtQtQtQtQtQtQtQtQtQtQtQt.o.z.C.z.y.o.w.z.z.C.C.z.r.r.C.z.r.oQtQtQtQtQtQtQtQtQtQtQtQtQtQtQtQtQtQtQtQtQt",
"QtQtQtQtQtQtQtQtQtQtQtQtQtQtQtQtQtQtQtQtQtQtQtQtQt.o.y.C.z.z.o.w.r.z.C.C.z.z.r.z.C.z.o.pQtQtQtQtQtQtQtQtQtQtQtQtQtQtQtQtQtQtQtQt",
"QtQtQtQtQtQtQtQtQtQtQtQtQtQtQtQtQtQtQtQtQtQtQtQtQt.o.r.z.z.r.o.v.r.z.C.C.C.z.z.z.z.z.o.p.xQtQtQtQtQtQtQtQtQtQtQtQtQtQtQtQtQtQtQt",
"QtQtQtQtQtQtQtQtQtQtQtQtQtQtQtQtQtQtQtQtQtQtQtQtQt.o.o.I.o.o.o.v.r.z.C.E.C.C.z.z.r.z.o.p.xQtQtQtQtQtQtQtQtQtQtQtQtQtQtQtQtQtQtQt",
"QtQtQtQtQtQtQtQtQtQtQtQtQtQtQtQtQtQtQtQtQtQtQtQtQt.y.I.H.G.I.y.v.r.z.C.E.E.C.C.z.r.r.p.p.xQtQtQtQtQtQtQtQtQtQtQtQtQtQtQtQtQtQtQt",
"QtQtQtQtQtQtQtQtQtQtQtQtQtQtQtQtQtQtQtQtQtQtQtQtQt.y.o.y.I.G.y.v.s.z.C.E.E.C.C.z.z.r.t.p.xQtQtQtQtQtQtQtQtQtQtQtQtQtQtQtQtQtQtQt",
"QtQtQtQtQtQtQtQtQtQtQtQtQtQtQtQtQtQtQtQtQtQtQtQtQt.y.y.H.G.I.o.w.w.z.C.C.E.E.C.C.z.t.p.p.xQtQtQtQtQtQtQtQtQtQtQtQtQtQtQtQtQtQtQt",
"QtQtQtQtQtQtQtQtQtQtQtQtQtQtQtQtQtQtQtQtQt.J.J.J.J.F.F.x.x.y.o.I.v.z.z.z.C.C.E.w.s.p.p.p.xQtQtQtQtQtQtQtQtQtQtQtQtQtQtQtQtQtQtQt",
"QtQtQtQtQtQtQtQtQtQtQtQtQtQtQtQtQt.J.J.J.K.L.M.N.O.P.F.y.o.o.y.o.v.w.s.G.s.w.w.s.t.t.p.x.JQtQtQtQtQtQtQtQtQtQtQtQtQtQtQtQtQtQtQt",
"QtQtQtQtQtQtQtQtQtQtQtQtQtQtQt.J.J.L.N.P.Q.R.S.T.U.V.y.y.F.F.y.y.v.s.s.s.t.t.t.t.t.p.x.N.L.J.JQtQtQtQtQtQtQtQtQtQtQtQtQtQtQtQtQt",
"QtQtQtQtQtQtQtQtQtQtQtQtQtQt.J.L.W.X.Y.Z.0.1.2.3.4.5.x.F.F.F.o.I.v.s.s.s.t.t.p.p.x.x.Z.Y.X.W.L.JQtQtQtQtQtQtQtQtQtQtQtQtQtQtQtQt",
"QtQtQtQtQtQtQtQtQtQtQtQtQt.J.M.6.7.8.9#.###a#b#c#d.x.y.y.F.F.F.y.y.x.x.x.x.x.x.x#a###..9.8#e.6.M.JQtQtQtQtQtQtQtQtQtQtQtQtQtQtQt",
"QtQtQtQtQtQtQtQtQtQtQtQt.J.L#f#g#h#i#j#k#l#m#n.y.r.F.F.F.F.F.F.F.G.I.y.I.F.F#o#n#m#l#k#j#i#h#g#f.L.JQtQtQtQtQtQtQtQtQtQtQtQtQtQt",
"QtQtQtQtQtQtQtQtQtQtQtQt.J#p#q#r#s#t#m#u#v#w#w.y.y.y.y.F.F.F.y.y.F.F.F.F.F.o#w#w#w#v#u#m#t#s#r#q#p.JQtQtQtQtQtQtQtQtQtQtQtQtQtQt",
"QtQtQtQtQtQtQtQtQtQtQtQt.J#p#x#r#s#k#m#u#v#w#w.y.y.y.F.F.F.o.G.G.I.y.y.F.o#w#w#w#w#v#u#m#k#s#y#x#p.JQtQtQtQtQtQtQtQtQtQtQtQtQtQt",
"QtQtQtQtQtQtQtQtQtQtQtQt.J#z#f#g#h#i#j#k#l#m#n.o.o.F.o.F.x.o.I.y.y.F.F.o#A#u#o#n#m#l#k#j#i#h#g#f#z.JQtQtQtQtQtQtQtQtQtQtQtQtQtQt",
"QtQtQtQtQtQtQtQtQtQtQtQtQt.J.M#B#e#C#h#D###a#b#c#d#E#F#G#H.y.y.x.F.o.o#F#E#d#c#b#a###D#h#C#e#B.M.JQtQtQtQtQtQtQtQtQtQtQtQtQtQtQt",
"QtQtQtQtQtQtQtQtQtQtQtQtQtQt.J#z.P.X.Y.Z#I#J.2.3.4.5#K#i#L#s#M#M#s#L#i#K.5.4.3.2#J#I.Z.Y.X.P#z.JQtQtQtQtQtQtQtQtQtQtQtQtQtQtQtQt",
"QtQtQtQtQtQtQtQtQtQtQtQtQtQtQt.J.J.L.N.P.Q.R.S.T.U.V#N#O#P#Q.0.0#Q#P#O#N.V.U.T.S.R#f.P.N.L.J.JQtQtQtQtQtQtQtQtQtQtQtQtQtQtQtQtQt",
"QtQtQtQtQtQtQtQtQtQtQtQtQtQtQtQtQt.J.J.J.K.L.M.N.O.P#R#S#S#S#T#T#S#S#S#R.P.O.N.M.L.K.J.J.JQtQtQtQtQtQtQtQtQtQtQtQtQtQtQtQtQtQtQt",
"QtQtQtQtQtQtQtQtQtQtQtQtQtQtQtQtQtQtQtQtQt.J.J.J.J.J.J.J.J.J.J.J.J.J.J.J.J.J.J.J.JQtQtQtQtQtQtQtQtQtQtQtQtQtQtQtQtQtQtQtQtQtQtQt",
"QtQtQtQtQtQtQtQtQtQtQtQtQtQtQtQtQtQtQtQtQtQtQtQtQtQtQtQtQtQtQtQtQtQtQtQtQtQtQtQtQtQtQtQtQtQtQtQtQtQtQtQtQtQtQtQtQtQtQtQtQtQtQtQt",
"QtQtQtQtQtQtQtQtQtQtQtQtQtQtQtQtQtQtQtQtQtQtQtQtQtQtQtQtQtQtQtQtQtQtQtQtQtQtQtQtQtQtQtQtQtQtQtQtQtQtQtQtQtQtQtQtQtQtQtQtQtQtQtQt"};
