/* XPM */
static char *dummy[]={
"64 64 100 2",
"Qt c None",
".u c #000000",
".v c #000000",
".w c #000000",
"#c c #000000",
".H c #000000",
".4 c #000000",
".x c #000000",
"#E c #000000",
".B c #000000",
".y c #000000",
"#F c #000000",
"#G c #000000",
"#H c #000000",
".z c #000000",
".S c #000000",
".I c #000000",
"#e c #000000",
".C c #000000",
".A c #000000",
".5 c #000000",
"#a c #000000",
"#w c #000000",
".D c #000000",
"#x c #000000",
".J c #000000",
".R c #000000",
"#y c #000000",
".E c #000000",
"#z c #000000",
".T c #000000",
"#A c #000000",
"#B c #000000",
"#C c #000000",
"#D c #000000",
".F c #000000",
"#n c #000000",
".K c #000000",
"#f c #000000",
".G c #000000",
"#o c #000000",
".6 c #000000",
"#b c #000000",
"#p c #000000",
".L c #000000",
".U c #000000",
"#q c #000000",
"#r c #000000",
".M c #000000",
"#g c #000000",
"#s c #000000",
"#t c #000000",
".V c #000000",
".N c #000000",
"#u c #000000",
".7 c #000000",
"#v c #000000",
".O c #000000",
".W c #000000",
".P c #000000",
".Q c #000000",
"#h c #000000",
".8 c #000000",
".X c #000000",
"#i c #000000",
"#j c #000000",
"#k c #000000",
".Y c #000000",
"#l c #000000",
"#m c #000000",
".Z c #000000",
".0 c #000000",
".1 c #000000",
".2 c #000000",
".3 c #000000",
".9 c #000000",
"#d c #000000",
"#. c #000000",
"## c #000000",
".e c #000003",
".o c #00070c",
".n c #07050d",
".g c #141d32",
".k c #1e232c",
".p c #2b2c38",
".h c #303a55",
".s c #3f4449",
".i c #4b5e7f",
".f c #4f5463",
".b c #52300c",
".m c #684700",
".t c #6c7273",
".j c #708ea7",
".q c #757c87",
".# c #946230",
".l c #9e7b10",
".r c #b1b5be",
".a c #d1a049",
".c c #f0e883",
".d c #fffffa",
"QtQtQtQtQtQtQtQtQtQtQtQtQtQtQtQtQtQtQtQtQtQtQtQtQtQtQtQtQtQtQtQtQtQtQtQtQtQtQtQtQtQtQtQtQtQtQtQtQtQtQtQtQtQtQtQtQtQtQtQtQtQtQtQt",
"QtQtQtQtQtQtQtQtQtQtQtQtQtQtQtQtQtQtQtQtQtQtQtQtQtQtQtQtQtQtQtQtQtQtQtQtQtQtQtQtQtQtQtQtQtQtQtQtQtQtQtQtQtQtQtQtQtQtQtQtQtQtQtQt",
"QtQtQtQtQtQtQtQtQtQtQtQtQtQtQtQtQtQtQtQtQtQtQtQtQtQtQtQtQtQtQtQtQtQtQtQtQtQtQtQtQtQtQtQtQtQtQtQtQtQtQtQtQtQtQtQtQtQtQtQtQtQtQtQt",
"QtQtQtQtQtQtQtQtQtQtQtQtQtQtQtQtQtQtQtQtQtQtQtQtQtQtQtQtQtQtQtQt.#.a.#QtQtQtQtQtQtQtQtQtQtQtQtQtQtQtQtQtQtQtQtQtQtQtQtQtQtQtQtQt",
"QtQtQtQtQtQtQtQtQtQtQtQtQtQtQtQtQtQtQtQtQtQtQtQtQtQtQtQt.#.#.b.b.#.a.#QtQtQtQtQtQtQtQtQtQtQtQtQtQtQtQtQtQtQtQtQtQtQtQtQtQtQtQtQt",
"QtQtQtQtQtQtQtQtQtQtQtQtQtQtQtQtQtQtQtQtQtQtQtQtQtQt.#.#.#.#.b.b.a.#.b.#QtQtQtQtQtQtQtQtQtQtQtQtQtQtQtQtQtQtQtQtQtQtQtQtQtQtQtQt",
"QtQtQtQtQtQtQtQtQtQtQtQtQtQtQtQtQtQtQtQtQtQtQtQtQt.#.#.#.a.a.c.#.a.b.b.#.#QtQtQtQtQtQtQtQtQtQtQtQtQtQtQtQtQtQtQtQtQtQtQtQtQtQtQt",
"QtQtQtQtQtQtQtQtQtQtQtQtQtQtQtQtQtQtQtQtQtQtQtQt.a.#.a.c.c.a.#.b.#.a.a.c.#.bQtQtQtQtQtQtQtQtQtQtQtQtQtQtQtQtQtQtQtQtQtQtQtQtQtQt",
"QtQtQtQtQtQtQtQtQtQtQtQtQtQtQtQtQtQtQtQtQtQtQtQt.a.a.c.c.a.c.c.c.a.c.a.c.c.b.bQtQtQtQtQtQtQtQtQtQtQtQtQtQtQtQtQtQtQtQtQtQtQtQtQt",
"QtQtQtQtQtQtQtQtQtQtQtQtQtQtQtQtQtQtQtQtQtQtQtQt.b.#.a.a.d.c.d.d.c.a.d.#.c.#.b.bQtQtQtQtQtQtQtQtQtQtQtQtQtQtQtQtQtQtQtQtQtQtQtQt",
"QtQtQtQtQtQtQtQtQtQtQtQtQtQtQtQtQtQtQtQtQtQtQtQt.b.a.c.d.c.a.d.c.a.a.c.d.#.a.#.bQtQtQtQtQtQtQtQtQtQtQtQtQtQtQtQtQtQtQtQtQtQtQtQt",
"QtQtQtQtQtQtQtQtQtQtQtQtQtQtQtQtQtQtQtQtQtQtQt.#.#.a.#.c.a.a.c.a.a.#.a.c.a.b.bQtQtQtQtQtQtQtQtQtQtQtQtQtQtQtQtQtQtQtQtQtQtQtQtQt",
"QtQtQtQtQtQtQtQtQtQtQtQtQtQtQtQtQtQtQtQtQtQtQt.#.a.b.#.a.a.#.a.a.a.a.#.a.#.a.bQtQtQtQtQtQtQtQtQtQtQtQtQtQtQtQtQtQtQtQtQtQtQtQtQt",
"QtQtQtQtQtQtQtQtQtQtQtQtQtQtQtQtQtQtQtQtQtQtQtQt.b.b.a.a.#.#.a.a.#.a.b.a.b.#.#QtQtQtQtQtQtQtQtQtQtQtQtQtQtQtQtQtQtQtQtQtQtQtQtQt",
"QtQtQtQtQtQtQtQtQtQtQtQtQtQtQtQtQtQtQtQtQtQtQtQtQt.b.a.#.b.#.a.b.#.#.b.#.b.bQtQtQtQtQtQtQtQtQtQtQtQtQtQtQtQtQtQtQtQtQtQtQtQtQtQt",
"QtQtQtQtQtQtQtQtQtQtQtQtQtQtQtQtQtQtQtQtQtQtQtQtQt.b.#.b.b.#.#.b.b.#.b.b.b.bQtQtQtQtQtQtQtQtQtQtQtQtQtQtQtQtQtQtQtQtQtQtQtQtQtQt",
"QtQtQtQtQtQtQtQtQtQtQtQtQtQtQtQtQtQtQtQtQtQtQtQtQt.e.b.b.b.#.b.b.b.b.b.b.e.eQtQtQtQtQtQtQtQtQtQtQtQtQtQtQtQtQtQtQtQtQtQtQtQtQtQt",
"QtQtQtQtQtQtQtQtQtQtQtQtQtQtQtQtQtQtQtQtQtQtQtQt.e.f.g.e.b.b.b.b.b.b.e.g.f.f.eQtQtQtQtQtQtQtQtQtQtQtQtQtQtQtQtQtQtQtQtQtQtQtQtQt",
"QtQtQtQtQtQtQtQtQtQtQtQtQtQtQtQtQtQtQtQtQtQt.g.h.e.g.f.h.g.g.h.h.h.h.g.e.g.e.e.h.gQtQtQtQtQtQtQtQtQtQtQtQtQtQtQtQtQtQtQtQtQtQtQt",
"QtQtQtQtQtQtQtQtQtQtQtQtQtQtQtQtQtQtQtQtQtQt.g.h.h.g.g.e.e.e.e.e.e.g.g.g.g.e.g.h.gQtQtQtQtQtQtQtQtQtQtQtQtQtQtQtQtQtQtQtQtQtQtQt",
"QtQtQtQtQtQtQtQtQtQtQtQtQtQtQtQtQtQtQtQtQt.g.i.j.i.g.h.g.g.g.g.g.g.g.g.g.k.k.h.i.hQtQtQtQtQtQtQtQtQtQtQtQtQtQtQtQtQtQtQtQtQtQtQt",
"QtQtQtQtQtQtQtQtQtQtQtQtQtQtQtQtQtQtQtQtQt.g.j.j.i.h.i.h.g.g.g.g.g.g.g.g.h.g.e.j.lQtQtQtQtQtQtQtQtQtQtQtQtQtQtQtQtQtQtQtQtQtQtQt",
"QtQtQtQtQtQtQtQtQtQtQtQtQtQtQtQtQtQtQtQtQt.m.l.j.i.g.h.i.h.h.h.h.h.h.i.i.h.g.e.i.mQtQtQtQtQtQtQtQtQtQtQtQtQtQtQtQtQtQtQtQtQtQtQt",
"QtQtQtQtQtQtQtQtQtQtQtQtQtQtQtQtQtQtQtQtQt.m.l.i.h.e.h.i.i.j.j.j.j.j.i.h.h.g.e.h.h.eQtQtQtQtQtQtQtQtQtQtQtQtQtQtQtQtQtQtQtQtQtQt",
"QtQtQtQtQtQtQtQtQtQtQtQtQtQtQtQtQtQtQtQt.e.g.h.h.h.g.e.g.h.h.h.h.h.h.g.g.e.e.g.g.h.eQtQtQtQtQtQtQtQtQtQtQtQtQtQtQtQtQtQtQtQtQtQt",
"QtQtQtQtQtQtQtQtQtQtQtQtQtQtQtQtQtQtQtQt.e.g.h.h.g.e.g.g.e.e.n.n.n.e.g.g.g.e.g.g.g.eQtQtQtQtQtQtQtQtQtQtQtQtQtQtQtQtQtQtQtQtQtQt",
"QtQtQtQtQtQtQtQtQtQtQtQtQtQtQtQtQtQtQtQt.e.g.g.h.g.e.k.g.g.g.g.e.g.g.g.g.g.n.o.g.g.e.pQtQtQtQtQtQtQtQtQtQtQtQtQtQtQtQtQtQtQtQtQt",
"QtQtQtQtQtQtQtQtQtQtQtQtQtQtQtQtQtQtQtQt.g.k.g.g.gQt.e.g.g.g.h.e.h.g.g.g.n.n.n.k.n.n.pQtQtQtQtQtQtQtQtQtQtQtQtQtQtQtQtQtQtQtQtQt",
"QtQtQtQtQtQtQtQtQtQtQtQtQtQtQtQtQtQtQt.e.g.h.g.g.eQt.e.g.g.g.h.g.h.g.g.g.e.n.p.p.f.f.nQtQtQtQtQtQtQtQtQtQtQtQtQtQtQtQtQtQtQtQtQt",
"QtQtQtQtQtQtQtQtQtQtQtQtQtQtQtQtQtQtQt.e.g.h.h.g.eQt.e.g.g.k.h.e.h.g.g.g.e.p.n.n.n.n.pQtQtQtQtQtQtQtQtQtQtQtQtQtQtQtQtQtQtQtQtQt",
"QtQtQtQtQtQtQtQtQtQtQtQtQtQtQtQtQtQtQt.e.q.r.q.f.eQt.e.e.g.g.g.n.g.g.n.e.e.n.n.p.f.p.eQtQtQtQtQtQtQtQtQtQtQtQtQtQtQtQtQtQtQtQtQt",
"QtQtQtQtQtQtQtQtQtQtQtQtQtQtQtQtQtQtQt.f.h.i.i.h.f.e.n.p.e.e.e.e.e.e.e.p.p.e.k.o.k.oQtQtQtQtQtQtQtQtQtQtQtQtQtQtQtQtQtQtQtQtQtQt",
"QtQtQtQtQtQtQtQtQtQtQtQtQtQtQtQtQtQtQt.e.f.q.r.q.h.e.n.n.p.p.p.f.q.q.f.p.n.e.k.g.s.oQtQtQtQtQtQtQtQtQtQtQtQtQtQtQtQtQtQtQtQtQtQt",
"QtQtQtQtQtQtQtQtQtQtQtQtQtQtQtQtQtQtQt.f.e.n.n.e.f.e.g.n.n.n.n.n.e.g.g.g.g.e.o.o.oQtQtQtQtQtQtQtQtQtQtQtQtQtQtQtQtQtQtQtQtQtQtQt",
"QtQtQtQtQtQtQtQtQtQtQtQtQtQtQtQtQtQtQt.e.k.k.e.n.n.g.g.g.g.h.k.e.k.h.h.g.g.g.eQtQtQtQtQtQtQtQtQtQtQtQtQtQtQtQtQtQtQtQtQtQtQtQtQt",
"QtQtQtQtQtQtQtQtQtQtQtQtQtQtQtQtQtQtQt.k.s.s.e.k.e.n.g.g.h.h.h.e.h.h.h.h.g.g.eQtQtQtQtQtQtQtQtQtQtQtQtQtQtQtQtQtQtQtQtQtQtQtQtQt",
"QtQtQtQtQtQtQtQtQtQtQtQtQtQtQtQtQtQtQt.k.t.s.e.s.e.e.g.g.h.h.h.e.i.i.h.h.g.g.eQtQtQtQtQtQtQtQtQtQtQtQtQtQtQtQtQtQtQtQtQtQtQtQtQt",
"QtQtQtQtQtQtQtQtQtQtQtQtQtQtQtQtQtQtQt.e.t.t.s.e.e.g.g.h.h.h.i.g.i.i.i.h.h.g.g.eQtQtQtQtQtQtQtQtQtQtQtQtQtQtQtQtQtQtQtQtQtQtQtQt",
"QtQtQtQtQtQtQtQtQtQtQtQtQtQtQtQtQtQtQtQt.e.e.eQt.e.g.g.h.h.i.i.g.i.i.i.h.h.g.g.eQtQtQtQtQtQtQtQtQtQtQtQtQtQtQtQtQtQtQtQtQtQtQtQt",
"QtQtQtQtQtQtQtQtQtQtQtQtQtQtQtQtQtQtQtQtQtQtQt.e.g.g.g.h.h.i.i.h.i.i.i.i.h.g.g.eQtQtQtQtQtQtQtQtQtQtQtQtQtQtQtQtQtQtQtQtQtQtQtQt",
"QtQtQtQtQtQtQtQtQtQtQtQtQtQtQtQtQtQtQtQtQtQtQt.e.g.g.h.h.i.i.i.h.i.j.i.i.h.h.g.g.eQtQtQtQtQtQtQtQtQtQtQtQtQtQtQtQtQtQtQtQtQtQtQt",
"QtQtQtQtQtQtQtQtQtQtQtQtQtQtQtQtQtQtQtQtQtQt.e.g.g.g.h.h.i.i.i.h.i.j.i.i.h.h.g.g.eQtQtQtQtQtQtQtQtQtQtQtQtQtQtQtQtQtQtQtQtQtQtQt",
"QtQtQtQtQtQtQtQtQtQtQtQtQtQtQtQtQtQtQtQtQtQt.e.g.k.g.h.h.i.i.i.g.i.j.j.i.i.h.g.g.nQtQtQtQtQtQtQtQtQtQtQtQtQtQtQtQtQtQtQtQtQtQtQt",
"QtQtQtQtQtQtQtQtQtQtQtQtQtQtQtQtQtQtQtQtQt.e.g.g.h.g.h.h.i.j.i.g.i.j.j.i.i.h.g.k.g.nQtQtQtQtQtQtQtQtQtQtQtQtQtQtQtQtQtQtQtQtQtQt",
"QtQtQtQtQtQtQtQtQtQtQtQtQtQtQtQtQtQtQtQt.e.e.g.h.h.g.h.i.i.j.h.g.i.j.j.i.i.h.g.h.g.nQtQtQtQtQtQtQtQtQtQtQtQtQtQtQtQtQtQtQtQtQtQt",
"QtQtQtQtQtQtQtQtQtQtQtQtQtQtQtQtQtQtQtQt.e.f.h.h.h.g.h.i.j.j.h.e.h.j.j.j.i.h.h.p.g.nQtQtQtQtQtQtQtQtQtQtQtQtQtQtQtQtQtQtQtQtQtQt",
"QtQtQtQtQtQtQtQtQtQtQtQtQtQtQtQtQtQtQtQt.n.p.f.h.h.g.h.i.j.j.g.e.h.j.j.j.i.h.h.h.h.g.nQtQtQtQtQtQtQtQtQtQtQtQtQtQtQtQtQtQtQtQtQt",
"QtQtQtQtQtQtQtQtQtQtQtQtQtQtQtQtQtQtQtQt.n.p.p.q.g.g.h.i.j.j.g.o.g.j.j.j.i.h.h.g.h.g.nQtQtQtQtQtQtQtQtQtQtQtQtQtQtQtQtQtQtQtQtQt",
"QtQtQtQtQtQtQtQtQtQtQtQtQtQtQtQtQtQtQtQtQt.p.p.f.q.r.h.i.j.i.e.o.g.i.j.j.i.h.g.g.f.p.nQtQtQtQtQtQtQtQtQtQtQtQtQtQtQtQtQtQtQtQtQt",
"QtQtQtQtQtQtQtQtQtQtQtQtQtQtQtQtQt.u.u.u.v.n.p.f.f.f.r.r.r.h.e.n.p.q.r.r.r.q.q.f.f.p.n.u.uQtQtQtQtQtQtQtQtQtQtQtQtQtQtQtQtQtQtQt",
"QtQtQtQtQtQtQtQtQtQtQtQtQtQtQt.u.u.w.x.y.z.A.n.f.p.f.f.q.q.p.o.o.n.f.q.q.f.f.p.f.f.p.n.x.w.u.uQtQtQtQtQtQtQtQtQtQtQtQtQtQtQtQtQt",
"QtQtQtQtQtQtQtQtQtQtQtQtQtQt.u.w.B.C.D.E.F.G.o.n.p.p.f.q.q.n.n.o.n.f.q.q.f.p.p.f.p.n.E.D.C.B.w.uQtQtQtQtQtQtQtQtQtQtQtQtQtQtQtQt",
"QtQtQtQtQtQtQtQtQtQtQtQtQt.u.H.I.J.K.L.M.N.O.P.Q.n.p.p.q.q.n.o.o.n.f.q.q.f.p.p.n.O.N.M.L.K.R.I.H.uQtQtQtQtQtQtQtQtQtQtQtQtQtQtQt",
"QtQtQtQtQtQtQtQtQtQtQtQt.u.w.S.T.U.V.W.X.Y.Z.0.1.2.3.n.e.n.n.o.o.n.n.n.n.n.n.1.0.Z.Y.X.W.V.U.T.S.w.uQtQtQtQtQtQtQtQtQtQtQtQtQtQt",
"QtQtQtQtQtQtQtQtQtQtQtQt.u.4.5.6.7.8.Z.2.9#.#.#.#.#.########.n.k.s.t.s.k.o#.#.#.#..9.2.Z.8.7.6.5.4.uQtQtQtQtQtQtQtQtQtQtQtQtQtQt",
"QtQtQtQtQtQtQtQtQtQtQtQt.u.4#a.6.7.X.Z.2.9#.#.#.#.#.########.o.k.s.s.s.s.k#.#.#.#..9.2.Z.X.7#b#a.4.uQtQtQtQtQtQtQtQtQtQtQtQtQtQt",
"QtQtQtQtQtQtQtQtQtQtQtQt.u#c.S.T.U.V.W.X.Y.Z.0.1.2.3.3.9#d#d.o.o.o.o.o.k.k.2.1.0.Z.Y.X.W.V.U.T.S#c.uQtQtQtQtQtQtQtQtQtQtQtQtQtQt",
"QtQtQtQtQtQtQtQtQtQtQtQtQt.u.H#e.R#f.U#g.N.O.P.Q#h#i#j#k#l#m.e.o.o.o.o.o.e#h.Q.P.O.N#g.U#f.R#e.H.uQtQtQtQtQtQtQtQtQtQtQtQtQtQtQt",
"QtQtQtQtQtQtQtQtQtQtQtQtQtQt.u#c.y.C.D.E#n#o#p#q#r#s#t.V#u.7#v.e.e.o.e.e#s#r#q#p#o#n.E.D.C.y#c.uQtQtQtQtQtQtQtQtQtQtQtQtQtQtQtQt",
"QtQtQtQtQtQtQtQtQtQtQtQtQtQtQt.u.u.w.x.y.z.A#w#x#y#z#A#B#C#D.F.F#D#C#B#A#z#y#x#w.A.S.y.x.w.u.uQtQtQtQtQtQtQtQtQtQtQtQtQtQtQtQtQt",
"QtQtQtQtQtQtQtQtQtQtQtQtQtQtQtQtQt.u.u.u.v.w.H.x#E.y#F#G#G#G#H#H#G#G#G#F.y#E.x.H.w.v.u.u.uQtQtQtQtQtQtQtQtQtQtQtQtQtQtQtQtQtQtQt",
"QtQtQtQtQtQtQtQtQtQtQtQtQtQtQtQtQtQtQtQtQt.u.u.u.u.u.u.u.u.u.u.u.u.u.u.u.u.u.u.u.uQtQtQtQtQtQtQtQtQtQtQtQtQtQtQtQtQtQtQtQtQtQtQt",
"QtQtQtQtQtQtQtQtQtQtQtQtQtQtQtQtQtQtQtQtQtQtQtQtQtQtQtQtQtQtQtQtQtQtQtQtQtQtQtQtQtQtQtQtQtQtQtQtQtQtQtQtQtQtQtQtQtQtQtQtQtQtQtQt",
"QtQtQtQtQtQtQtQtQtQtQtQtQtQtQtQtQtQtQtQtQtQtQtQtQtQtQtQtQtQtQtQtQtQtQtQtQtQtQtQtQtQtQtQtQtQtQtQtQtQtQtQtQtQtQtQtQtQtQtQtQtQtQtQt"};
