/* XPM */
static char *dummy[]={
"64 64 100 2",
"Qt c None",
".u c #000000",
".v c #000000",
".w c #000000",
"#e c #000000",
".I c #000000",
".7 c #000000",
".x c #000000",
"#E c #000000",
".A c #000000",
".y c #000000",
"#F c #000000",
"#G c #000000",
"#H c #000000",
".z c #000000",
".T c #000000",
".J c #000000",
"#f c #000000",
".B c #000000",
"#v c #000000",
".8 c #000000",
"#c c #000000",
"#w c #000000",
".C c #000000",
"#x c #000000",
".K c #000000",
".S c #000000",
"#y c #000000",
".D c #000000",
"#z c #000000",
".U c #000000",
"#A c #000000",
"#B c #000000",
"#C c #000000",
"#D c #000000",
".E c #000000",
".H c #000000",
".L c #000000",
"#g c #000000",
".F c #000000",
".G c #000000",
".9 c #000000",
"#d c #000000",
"#o c #000000",
".M c #000000",
".V c #000000",
"#p c #000000",
"#q c #000000",
".N c #000000",
"#h c #000000",
"#r c #000000",
"#s c #000000",
".W c #000000",
".O c #000000",
"#t c #000000",
"#. c #000000",
"#u c #000000",
".P c #000000",
".X c #000000",
".Q c #000000",
".R c #000000",
"#i c #000000",
"## c #000000",
".Y c #000000",
"#j c #000000",
"#k c #000000",
"#l c #000000",
".Z c #000000",
"#m c #000000",
"#n c #000000",
".0 c #000000",
".1 c #000000",
".2 c #000000",
".3 c #000000",
".4 c #000000",
".6 c #000000",
".5 c #000000",
"#a c #000000",
"#b c #000000",
".e c #000003",
".t c #00070c",
".n c #07050d",
".g c #141d32",
".i c #1e232c",
".o c #2b2c38",
".h c #303a55",
".r c #3f4449",
".j c #4b5e7f",
".f c #4f5463",
".b c #52300c",
".m c #684700",
".s c #6c7273",
".k c #708ea7",
".p c #757c87",
".# c #946230",
".l c #9e7b10",
".q c #b1b5be",
".a c #d1a049",
".c c #f0e883",
".d c #fffffa",
"QtQtQtQtQtQtQtQtQtQtQtQtQtQtQtQtQtQtQtQtQtQtQtQtQtQtQtQtQtQtQtQtQtQtQtQtQtQtQtQtQtQtQtQtQtQtQtQtQtQtQtQtQtQtQtQtQtQtQtQtQtQtQtQt",
"QtQtQtQtQtQtQtQtQtQtQtQtQtQtQtQtQtQtQtQtQtQtQtQtQtQtQtQtQtQtQtQtQtQtQtQtQtQtQtQtQtQtQtQtQtQtQtQtQtQtQtQtQtQtQtQtQtQtQtQtQtQtQtQt",
"QtQtQtQtQtQtQtQtQtQtQtQtQtQtQtQtQtQtQtQtQtQtQtQtQtQtQtQtQtQtQtQt.#.a.#QtQtQtQtQtQtQtQtQtQtQtQtQtQtQtQtQtQtQtQtQtQtQtQtQtQtQtQtQt",
"QtQtQtQtQtQtQtQtQtQtQtQtQtQtQtQtQtQtQtQtQtQtQtQtQtQtQtQt.#.#.b.b.#.a.#QtQtQtQtQtQtQtQtQtQtQtQtQtQtQtQtQtQtQtQtQtQtQtQtQtQtQtQtQt",
"QtQtQtQtQtQtQtQtQtQtQtQtQtQtQtQtQtQtQtQtQtQtQtQtQtQt.#.#.#.#.b.b.a.#.b.#QtQtQtQtQtQtQtQtQtQtQtQtQtQtQtQtQtQtQtQtQtQtQtQtQtQtQtQt",
"QtQtQtQtQtQtQtQtQtQtQtQtQtQtQtQtQtQtQtQtQtQtQtQtQt.#.#.#.a.a.c.#.a.b.b.#.#QtQtQtQtQtQtQtQtQtQtQtQtQtQtQtQtQtQtQtQtQtQtQtQtQtQtQt",
"QtQtQtQtQtQtQtQtQtQtQtQtQtQtQtQtQtQtQtQtQtQtQtQt.a.#.a.c.c.a.#.b.#.a.a.c.#.bQtQtQtQtQtQtQtQtQtQtQtQtQtQtQtQtQtQtQtQtQtQtQtQtQtQt",
"QtQtQtQtQtQtQtQtQtQtQtQtQtQtQtQtQtQtQtQtQtQtQtQt.a.a.c.c.a.c.c.c.a.c.a.c.c.b.bQtQtQtQtQtQtQtQtQtQtQtQtQtQtQtQtQtQtQtQtQtQtQtQtQt",
"QtQtQtQtQtQtQtQtQtQtQtQtQtQtQtQtQtQtQtQtQtQtQtQt.b.#.a.a.d.c.d.d.c.a.d.#.c.#.b.bQtQtQtQtQtQtQtQtQtQtQtQtQtQtQtQtQtQtQtQtQtQtQtQt",
"QtQtQtQtQtQtQtQtQtQtQtQtQtQtQtQtQtQtQtQtQtQtQtQt.b.a.c.d.c.a.d.c.a.a.c.d.#.a.#.bQtQtQtQtQtQtQtQtQtQtQtQtQtQtQtQtQtQtQtQtQtQtQtQt",
"QtQtQtQtQtQtQtQtQtQtQtQtQtQtQtQtQtQtQtQtQtQtQt.#.#.a.#.c.a.a.c.a.a.#.a.c.a.b.bQtQtQtQtQtQtQtQtQtQtQtQtQtQtQtQtQtQtQtQtQtQtQtQtQt",
"QtQtQtQtQtQtQtQtQtQtQtQtQtQtQtQtQtQtQtQtQtQtQt.#.a.b.#.a.a.#.a.a.a.a.#.a.#.a.bQtQtQtQtQtQtQtQtQtQtQtQtQtQtQtQtQtQtQtQtQtQtQtQtQt",
"QtQtQtQtQtQtQtQtQtQtQtQtQtQtQtQtQtQtQtQtQtQtQtQt.b.b.a.a.#.#.a.a.#.a.b.a.b.#.#QtQtQtQtQtQtQtQtQtQtQtQtQtQtQtQtQtQtQtQtQtQtQtQtQt",
"QtQtQtQtQtQtQtQtQtQtQtQtQtQtQtQtQtQtQtQtQtQtQtQtQt.b.a.#.b.#.a.b.#.#.b.#.b.bQtQtQtQtQtQtQtQtQtQtQtQtQtQtQtQtQtQtQtQtQtQtQtQtQtQt",
"QtQtQtQtQtQtQtQtQtQtQtQtQtQtQtQtQtQtQtQtQtQtQtQtQt.b.#.b.b.#.#.b.b.#.b.b.b.bQtQtQtQtQtQtQtQtQtQtQtQtQtQtQtQtQtQtQtQtQtQtQtQtQtQt",
"QtQtQtQtQtQtQtQtQtQtQtQtQtQtQtQtQtQtQtQtQtQtQtQtQt.e.e.b.b.#.b.b.b.b.b.b.b.eQtQtQtQtQtQtQtQtQtQtQtQtQtQtQtQtQtQtQtQtQtQtQtQtQtQt",
"QtQtQtQtQtQtQtQtQtQtQtQtQtQtQtQtQtQtQtQtQtQtQtQtQt.f.f.g.e.b.b.b.b.b.b.e.g.f.eQtQtQtQtQtQtQtQtQtQtQtQtQtQtQtQtQtQtQtQtQtQtQtQtQt",
"QtQtQtQtQtQtQtQtQtQtQtQtQtQtQtQtQtQtQtQtQtQtQt.g.h.e.g.e.g.h.h.h.h.g.g.h.f.i.e.h.gQtQtQtQtQtQtQtQtQtQtQtQtQtQtQtQtQtQtQtQtQtQtQt",
"QtQtQtQtQtQtQtQtQtQtQtQtQtQtQtQtQtQtQtQtQtQtQt.g.h.e.g.g.g.g.e.e.e.e.e.e.g.g.g.h.gQtQtQtQtQtQtQtQtQtQtQtQtQtQtQtQtQtQtQtQtQtQtQt",
"QtQtQtQtQtQtQtQtQtQtQtQtQtQtQtQtQtQtQtQtQtQt.g.h.j.g.i.g.g.g.g.g.g.g.g.g.g.g.g.k.j.gQtQtQtQtQtQtQtQtQtQtQtQtQtQtQtQtQtQtQtQtQtQt",
"QtQtQtQtQtQtQtQtQtQtQtQtQtQtQtQtQtQtQtQtQtQt.g.l.e.g.h.g.g.g.g.g.g.g.g.g.h.h.h.k.k.gQtQtQtQtQtQtQtQtQtQtQtQtQtQtQtQtQtQtQtQtQtQt",
"QtQtQtQtQtQtQtQtQtQtQtQtQtQtQtQtQtQtQtQtQtQt.m.l.e.g.h.j.j.h.h.h.h.h.h.j.j.g.h.j.l.mQtQtQtQtQtQtQtQtQtQtQtQtQtQtQtQtQtQtQtQtQtQt",
"QtQtQtQtQtQtQtQtQtQtQtQtQtQtQtQtQtQtQtQtQt.e.m.h.e.g.h.h.j.k.k.k.k.k.j.j.h.e.g.h.l.mQtQtQtQtQtQtQtQtQtQtQtQtQtQtQtQtQtQtQtQtQtQt",
"QtQtQtQtQtQtQtQtQtQtQtQtQtQtQtQtQtQtQtQtQt.e.g.h.h.e.e.g.g.h.h.h.h.h.h.g.e.e.g.h.h.g.eQtQtQtQtQtQtQtQtQtQtQtQtQtQtQtQtQtQtQtQtQt",
"QtQtQtQtQtQtQtQtQtQtQtQtQtQtQtQtQtQtQtQtQt.e.g.h.g.e.g.g.g.e.n.n.n.e.e.g.g.e.g.g.h.g.eQtQtQtQtQtQtQtQtQtQtQtQtQtQtQtQtQtQtQtQtQt",
"QtQtQtQtQtQtQtQtQtQtQtQtQtQtQtQtQtQtQtQt.e.g.g.g.g.e.g.g.g.g.g.e.g.g.g.g.gQt.g.g.g.g.eQtQtQtQtQtQtQtQtQtQtQtQtQtQtQtQtQtQtQtQtQt",
"QtQtQtQtQtQtQtQtQtQtQtQtQtQtQtQtQtQtQtQt.e.g.g.g.g.e.e.g.g.g.h.e.h.g.g.g.eQt.e.g.g.g.gQtQtQtQtQtQtQtQtQtQtQtQtQtQtQtQtQtQtQtQtQt",
"QtQtQtQtQtQtQtQtQtQtQtQtQtQtQtQtQtQtQt.e.e.g.g.g.eQt.e.g.g.g.h.g.h.g.g.g.eQt.e.g.g.g.g.eQtQtQtQtQtQtQtQtQtQtQtQtQtQtQtQtQtQtQtQt",
"QtQtQtQtQtQtQtQtQtQtQtQtQtQtQtQtQtQtQt.e.g.g.g.g.e.n.n.g.g.g.h.e.h.i.g.g.eQt.e.g.g.g.g.eQtQtQtQtQtQtQtQtQtQtQtQtQtQtQtQtQtQtQtQt",
"QtQtQtQtQtQtQtQtQtQtQtQtQtQtQtQtQtQtQt.f.g.g.g.e.o.e.e.e.n.g.g.n.g.g.g.e.eQt.e.e.g.g.g.eQtQtQtQtQtQtQtQtQtQtQtQtQtQtQtQtQtQtQtQt",
"QtQtQtQtQtQtQtQtQtQtQtQtQtQtQtQtQtQtQt.o.f.p.f.o.n.e.o.o.e.e.e.e.e.e.e.o.nQt.o.f.p.q.p.fQtQtQtQtQtQtQtQtQtQtQtQtQtQtQtQtQtQtQtQt",
"QtQtQtQtQtQtQtQtQtQtQtQtQtQtQtQtQtQtQt.n.e.g.g.g.o.e.n.o.f.p.p.f.f.o.o.n.nQt.e.g.h.h.g.eQtQtQtQtQtQtQtQtQtQtQtQtQtQtQtQtQtQtQtQt",
"QtQtQtQtQtQtQtQtQtQtQtQtQtQtQtQtQtQtQtQt.e.n.n.n.n.e.g.g.g.g.e.n.n.n.n.n.gQt.o.f.p.p.f.oQtQtQtQtQtQtQtQtQtQtQtQtQtQtQtQtQtQtQtQt",
"QtQtQtQtQtQtQtQtQtQtQtQtQtQtQtQtQtQtQtQt.i.r.i.i.e.g.g.g.h.h.i.e.i.h.g.g.g.n.e.n.e.g.i.eQtQtQtQtQtQtQtQtQtQtQtQtQtQtQtQtQtQtQtQt",
"QtQtQtQtQtQtQtQtQtQtQtQtQtQtQtQtQtQtQtQt.n.s.s.r.e.g.g.h.h.h.h.e.h.h.h.g.g.n.n.i.e.i.r.eQtQtQtQtQtQtQtQtQtQtQtQtQtQtQtQtQtQtQtQt",
"QtQtQtQtQtQtQtQtQtQtQtQtQtQtQtQtQtQtQtQtQt.n.n.n.g.g.h.h.h.j.j.e.j.h.h.g.g.e.e.e.r.s.s.eQtQtQtQtQtQtQtQtQtQtQtQtQtQtQtQtQtQtQtQt",
"QtQtQtQtQtQtQtQtQtQtQtQtQtQtQtQtQtQtQtQtQtQtQt.e.g.g.h.h.j.j.j.e.j.j.h.h.g.eQt.e.e.e.eQtQtQtQtQtQtQtQtQtQtQtQtQtQtQtQtQtQtQtQtQt",
"QtQtQtQtQtQtQtQtQtQtQtQtQtQtQtQtQtQtQtQtQtQt.e.g.g.h.h.h.j.j.j.g.j.j.h.h.g.g.eQtQtQtQtQtQtQtQtQtQtQtQtQtQtQtQtQtQtQtQtQtQtQtQtQt",
"QtQtQtQtQtQtQtQtQtQtQtQtQtQtQtQtQtQtQtQtQtQt.e.g.g.h.h.j.j.j.j.g.j.j.j.h.g.g.eQtQtQtQtQtQtQtQtQtQtQtQtQtQtQtQtQtQtQtQtQtQtQtQtQt",
"QtQtQtQtQtQtQtQtQtQtQtQtQtQtQtQtQtQtQtQtQt.n.g.g.h.h.j.j.j.j.j.g.j.j.j.h.g.g.eQtQtQtQtQtQtQtQtQtQtQtQtQtQtQtQtQtQtQtQtQtQtQtQtQt",
"QtQtQtQtQtQtQtQtQtQtQtQtQtQtQtQtQtQtQtQtQt.n.g.g.h.h.j.j.j.k.j.g.j.j.j.h.h.g.g.eQtQtQtQtQtQtQtQtQtQtQtQtQtQtQtQtQtQtQtQtQtQtQtQt",
"QtQtQtQtQtQtQtQtQtQtQtQtQtQtQtQtQtQtQtQtQt.e.g.g.h.j.j.j.k.k.j.g.j.k.j.h.h.g.g.eQtQtQtQtQtQtQtQtQtQtQtQtQtQtQtQtQtQtQtQtQtQtQtQt",
"QtQtQtQtQtQtQtQtQtQtQtQtQtQtQtQtQtQtQtQt.n.g.h.g.h.j.j.j.k.k.j.e.j.k.j.j.h.g.h.g.eQtQtQtQtQtQtQtQtQtQtQtQtQtQtQtQtQtQtQtQtQtQtQt",
"QtQtQtQtQtQtQtQtQtQtQtQtQtQtQtQtQtQtQtQt.n.g.h.h.j.j.j.k.k.k.j.e.h.k.k.j.h.g.h.g.eQtQtQtQtQtQtQtQtQtQtQtQtQtQtQtQtQtQtQtQtQtQtQt",
"QtQtQtQtQtQtQtQtQtQtQtQtQtQtQtQtQtQtQtQt.n.h.h.h.j.j.j.k.k.k.h.e.h.k.k.j.h.g.o.h.g.eQtQtQtQtQtQtQtQtQtQtQtQtQtQtQtQtQtQtQtQtQtQt",
"QtQtQtQtQtQtQtQtQtQtQtQtQtQtQtQtQtQtQt.n.g.h.h.h.j.j.k.k.k.k.h.e.g.k.k.j.h.h.h.h.g.eQtQtQtQtQtQtQtQtQtQtQtQtQtQtQtQtQtQtQtQtQtQt",
"QtQtQtQtQtQtQtQtQtQtQtQtQtQtQtQtQtQtQt.n.g.h.h.g.h.j.k.k.k.k.h.e.g.k.k.j.g.h.h.g.f.eQtQtQtQtQtQtQtQtQtQtQtQtQtQtQtQtQtQtQtQtQtQt",
"QtQtQtQtQtQtQtQtQtQtQtQtQtQtQtQtQtQtQt.n.o.f.g.g.h.j.k.k.k.j.g.e.e.k.j.h.g.g.f.f.o.nQtQtQtQtQtQtQtQtQtQtQtQtQtQtQtQtQtQtQtQtQtQt",
"QtQtQtQtQtQtQtQtQtQtQtQtQtQtQtQtQtQtQt.n.o.f.f.f.p.q.q.q.q.p.o.t.e.p.q.q.q.p.f.o.o.nQtQtQtQtQtQtQtQtQtQtQtQtQtQtQtQtQtQtQtQtQtQt",
"QtQtQtQtQtQtQtQtQtQtQtQtQtQtQtQtQt.u.u.n.o.f.f.o.f.f.p.p.p.f.o.t.t.p.p.f.f.f.o.o.o.v.u.u.uQtQtQtQtQtQtQtQtQtQtQtQtQtQtQtQtQtQtQt",
"QtQtQtQtQtQtQtQtQtQtQtQtQtQtQt.u.u.w.x.y.n.o.f.o.o.f.p.p.p.f.n.t.t.p.p.f.o.f.o.o.n.z.y.x.w.u.uQtQtQtQtQtQtQtQtQtQtQtQtQtQtQtQtQt",
"QtQtQtQtQtQtQtQtQtQtQtQtQtQt.u.w.A.B.C.D.E.F.n.o.o.f.p.p.f.f.n.t.t.p.p.o.o.o.o.n.G.H.D.C.B.A.w.uQtQtQtQtQtQtQtQtQtQtQtQtQtQtQtQt",
"QtQtQtQtQtQtQtQtQtQtQtQtQt.u.I.J.K.L.M.N.O.P.Q.R.n.n.n.n.n.n.n.n.t.n.e.n.o.n.n.Q.P.O.N.M.L.S.J.I.uQtQtQtQtQtQtQtQtQtQtQtQtQtQtQt",
"QtQtQtQtQtQtQtQtQtQtQtQt.u.w.T.U.V.W.X.Y.Z.0.1.2.3.4.t.i.i.r.i.i.t.5.6.4.4.3.2.1.0.Z.Y.X.W.V.U.T.w.uQtQtQtQtQtQtQtQtQtQtQtQtQtQt",
"QtQtQtQtQtQtQtQtQtQtQtQt.u.7.8.9#.##.0.3.6#a#a#a#a#a.i.r.r.s.r.r.t#b#b#b#a#a#a#a#a.6.3.0###..9.8.7.uQtQtQtQtQtQtQtQtQtQtQtQtQtQt",
"QtQtQtQtQtQtQtQtQtQtQtQt.u.7#c.9#..Y.0.3.6#a#a#a#a#a.t.t.i.r.i.i.t#b#b#b#a#a#a#a#a.6.3.0.Y#.#d#c.7.uQtQtQtQtQtQtQtQtQtQtQtQtQtQt",
"QtQtQtQtQtQtQtQtQtQtQtQt.u#e.T.U.V.W.X.Y.Z.0.1.2.3.4.e.e.t.i.i.n.e.5.6.4.4.3.2.1.0.Z.Y.X.W.V.U.T#e.uQtQtQtQtQtQtQtQtQtQtQtQtQtQt",
"QtQtQtQtQtQtQtQtQtQtQtQtQt.u.I#f.S#g.V#h.O.P.Q.R#i#j#k#l#m#n#n#n#n#m#l#k#j#i.R.Q.P.O#h.V#g.S#f.I.uQtQtQtQtQtQtQtQtQtQtQtQtQtQtQt",
"QtQtQtQtQtQtQtQtQtQtQtQtQtQt.u#e.y.B.C.D.H.G#o#p#q#r#s.W#t#.#u#u#.#t.W#s#r#q#p#o.G.H.D.C.B.y#e.uQtQtQtQtQtQtQtQtQtQtQtQtQtQtQtQt",
"QtQtQtQtQtQtQtQtQtQtQtQtQtQtQt.u.u.w.x.y.z#v#w#x#y#z#A#B#C#D.E.E#D#C#B#A#z#y#x#w#v.T.y.x.w.u.uQtQtQtQtQtQtQtQtQtQtQtQtQtQtQtQtQt",
"QtQtQtQtQtQtQtQtQtQtQtQtQtQtQtQtQt.u.u.u.v.w.I.x#E.y#F#G#G#G#H#H#G#G#G#F.y#E.x.I.w.v.u.u.uQtQtQtQtQtQtQtQtQtQtQtQtQtQtQtQtQtQtQt",
"QtQtQtQtQtQtQtQtQtQtQtQtQtQtQtQtQtQtQtQtQt.u.u.u.u.u.u.u.u.u.u.u.u.u.u.u.u.u.u.u.uQtQtQtQtQtQtQtQtQtQtQtQtQtQtQtQtQtQtQtQtQtQtQt",
"QtQtQtQtQtQtQtQtQtQtQtQtQtQtQtQtQtQtQtQtQtQtQtQtQtQtQtQtQtQtQtQtQtQtQtQtQtQtQtQtQtQtQtQtQtQtQtQtQtQtQtQtQtQtQtQtQtQtQtQtQtQtQtQt",
"QtQtQtQtQtQtQtQtQtQtQtQtQtQtQtQtQtQtQtQtQtQtQtQtQtQtQtQtQtQtQtQtQtQtQtQtQtQtQtQtQtQtQtQtQtQtQtQtQtQtQtQtQtQtQtQtQtQtQtQtQtQtQtQt"};
