/* XPM */
static char *dummy[]={
"128 64 147 2",
"#9 c #000000",
"#F c #001111",
"#z c #002b2b",
"#O c #005477",
"#H c #005e7f",
"#K c #007faa",
"#J c #00e200",
"#e c #080808",
"#2 c #0f0e11",
"#B c #1e424f",
"#X c #212828",
"#v c #260c0c",
"#4 c #26252c",
"#Z c #35353a",
"#0 c #35383f",
".4 c #383f4a",
".g c #383f4b",
"#W c #383f4c",
".3 c #38404c",
".e c #393f4b",
"Qt c #3a404b",
".h c #3a404c",
"ae c #3d4046",
".d c #3d4047",
"#A c #3d5358",
".f c #3f4148",
".i c #404248",
"am c #424349",
".# c #434245",
"ap c #43434a",
"ai c #44434a",
"#a c #444448",
".j c #44444b",
"aa c #46413d",
".a c #46413e",
"#x c #470000",
".s c #474242",
"ao c #474548",
".k c #47464d",
"#r c #494482",
"ac c #494649",
"#p c #4a2121",
"#G c #4a4138",
".b c #4a423a",
".t c #4a433e",
"aq c #4b4440",
".l c #4b4951",
".c c #4c423a",
".m c #4d484c",
".u c #4e4541",
"#3 c #4f443c",
"ad c #50443c",
"a# c #50453d",
"an c #51453d",
".Q c #514743",
"#5 c #51545b",
"ag c #53463f",
"#1 c #535353",
".E c #54473f",
"ab c #544845",
".n c #544946",
".q c #554840",
".r c #554a47",
"#8 c #562f1d",
".p c #584a43",
".o c #584a44",
"ak c #584a47",
".D c #584d4d",
".v c #5a4d4b",
"#6 c #5b4b44",
"aj c #5b4c48",
"#7 c #5c4b43",
"a. c #5d4b43",
".8 c #5e4d45",
"al c #5e4d48",
"ah c #5f4f4d",
".5 c #614d45",
".w c #61514f",
"#j c #635049",
"#L c #637a82",
".6 c #644f48",
"af c #645352",
".x c #655451",
".F c #66514a",
".9 c #67524b",
".R c #67544f",
"#N c #68524b",
".Z c #68534c",
"#I c #69534d",
".Y c #69544d",
".O c #6c564f",
".1 c #6c5650",
".y c #6c5959",
".W c #6d3300",
"#k c #6d5650",
"#c c #6e5651",
".0 c #6e5751",
".G c #6f5750",
".2 c #6f5a56",
".P c #705853",
".A c #705c5c",
".z c #705c5d",
".B c #715c5b",
"#M c #72472d",
".H c #725a55",
"#o c #7291ea",
"#R c #735a54",
".N c #745b56",
".C c #745d59",
"#u c #750000",
"#Q c #755c57",
".S c #785e5a",
"#b c #797a7c",
".V c #7a5f5b",
".T c #7a605b",
".U c #7a605c",
"#. c #7c615d",
"#t c #7d625e",
".I c #7e625e",
".M c #826663",
".K c #836663",
".L c #836764",
"#E c #838384",
"#m c #84393a",
".J c #846763",
"#w c #870000",
"#T c #8e3314",
"#P c #946c45",
"#q c #96b2ff",
".X c #996314",
"#d c #9e99a6",
"#D c #adb2af",
"#y c #af001c",
"#V c #c09d7b",
"#l c #c1bfbc",
"#h c #c46555",
"#U c #c65619",
"#g c #ccd3d6",
".7 c #d19e30",
"#n c #e5f4ff",
"#Y c #ef0c23",
"#S c #f78c6b",
"#f c #f9edd6",
"## c #fcd670",
"#C c #ff7084",
"#i c #ffa893",
"#s c #ffd8ce",
"QtQtQtQtQtQtQtQtQtQtQtQtQtQtQtQtQtQtQt.#.a.b.b.b.b.b.b.c.b.b.b.b.b.b.b.a.d.e.f.g.f.e.h.hQtQt.f.gQt.f.e.h.f.gQtQtQtQt.f.d.a.c.c.bQtQtQtQtQtQtQtQtQtQtQtQtQtQtQtQtQtQtQt.#.a.b.b.b.b.b.b.c.b.b.b.b.b.b.b.a.d.e.f.g.f.e.h.hQtQt.f.gQt.f.e.h.f.gQtQtQtQt.f.d.a.c.c.b",
"QtQtQtQtQtQtQt.gQt.gQt.g.gQt.g.g.g.g.g.d.a.b.b.b.b.b.b.b.b.b.b.b.b.b.b.a.e.e.g.g.g.g.e.gQt.g.g.g.g.g.e.e.g.g.g.g.gQt.g.d.a.c.c.cQtQtQtQtQtQtQt.gQt.gQt.g.gQt.g.g.g.g.g.d.a.b.b.b.b.b.b.b.b.b.b.b.b.b.b.a.e.e.g.g.g.g.e.gQt.g.g.g.g.g.e.e.g.g.g.g.gQt.g.d.a.c.c.c",
".h.hQtQtQt.g.gQt.gQtQt.g.g.g.g.g.g.g.g.d.a.b.b.b.b.b.b.b.b.b.b.b.b.b.b.a.e.g.g.g.g.g.g.g.g.g.g.g.g.g.e.e.g.g.g.g.g.g.g.d.a.c.c.c.h.hQtQtQt.g.gQt.gQtQt.g.g.g.g.g.g.g.g.d.a.b.b.b.b.b.b.b.b.b.b.b.b.b.b.a.e.g.g.g.g.g.g.g.g.g.g.g.g.g.e.e.g.g.g.g.g.g.g.d.a.c.c.c",
".d.d.d.i.j.j.k.k.k.l.l.l.m.l.l.m.l.l.l.m.n.o.p.o.o.o.q.p.o.o.o.o.o.o.p.n.r.l.l.l.l.l.l.l.l.l.l.l.l.l.l.l.l.l.l.l.k.k.k.j.s.a.t.a.d.d.d.i.j.j.k.k.k.l.l.l.m.l.l.m.l.l.l.m.n.o.p.o.o.o.q.p.o.o.o.o.o.o.p.n.r.l.l.l.l.l.l.l.l.l.l.l.l.l.l.l.l.l.l.l.k.k.k.j.s.a.t.a",
".t.a.a.u.v.w.w.x.y.z.z.z.y.z.z.z.z.A.A.B.B.C.C.C.C.C.C.C.C.C.C.C.C.C.C.C.z.A.A.A.y.z.z.z.z.z.z.y.A.A.z.z.z.z.z.y.x.w.w.D.j.d.d.d.t.a.a.u.v.w.w.x.y.z.z.z.y.z.z.z.z.A.A.B.B.C.C.C.C.C.C.C.C.C.C.C.C.C.C.C.z.A.A.A.y.z.z.z.z.z.z.y.A.A.z.z.z.z.z.y.x.w.w.D.j.d.d.d",
".c.b.b.E.F.G.G.H.I.J.J.K.L.L.L.L.K.J.K.K.J.M.M.M.M.M.L.M.M.M.M.M.M.M.M.L.J.J.K.J.K.K.L.M.J.L.L.K.K.K.K.J.K.J.L.I.N.G.G.w.k.gQtQt.c.b.b.E.F.G.G.H.I.J.J.K.L.L.L.L.K.J.K.K.J.M.M.M.M.M.L.M.M.M.M.M.M.M.M.L.J.J.K.J.K.K.L.M.J.L.L.K.K.K.K.J.K.J.L.I.N.G.G.w.k.gQtQt",
".c.c.b.E.F.G.O.H.I.J.K.K.K.K.J.J.L.K.K.K.K.K.M.M.M.M.M.M.M.M.M.M.M.M.M.M.K.K.K.K.K.K.K.K.K.K.K.K.K.M.M.K.K.K.K.I.P.O.O.w.kQtQt.h.c.c.b.E.F.G.O.H.I.J.K.K.K.K.J.J.L.K.K.K.K.K.M.M.M.M.M.M.M.M.M.M.M.M.M.M.K.K.K.K.K.K.K.K.K.K.K.K.K.M.M.K.K.K.K.I.P.O.O.w.kQtQt.h",
".a.a.a.Q.R.H.H.N.S.T.T.T.T.T.T.T.U.V.S.V.U.I.U.I.V.V.V.V.V.V.V.V.V.V.V.V.V.I.V.I.I.U.I.U.I.I.I.U.V.V.V.U.I.I.U.S.N.N.H.x.k.g.gQt.a.a.a.Q.R.H.H.N.W.W.W.W.W.T.T.X.X.X.X.V.U.I.U.I.V.V.V.V.V.V.V.V.V.V.V.V.V.I.V.I.I.U.I.U.I.I.I.U.V.V.V.U.I.I.U.S.N.N.H.x.k.g.gQt",
".d.d.d.m.y.I.I.S.G.Y.Y.Y.Y.Y.Y.Y.Z.Z.Y.G.0.H.H.P.1.Z.Z.Z.Z.Z.Z.Z.Z.Z.Y.G.H.H.H.H.H.H.H.H.H.H.H.2.1.Z.Z.1.G.H.H.H.V.M.I.y.k.g.g.f.d.d.d.m.y.I.W.X.X.X.X.X.X.X.W.X.W.W.W.X.0.H.H.P.1.Z.Z.Z.Z.Z.Z.Z.Z.Z.Y.G.H.H.H.H.H.H.H.H.H.H.H.2.1.Z.Z.1.G.H.H.H.V.M.I.y.k.g.g.f",
"Qt.3.4.l.z.J.K.T.Z.5.5.5.5.5.5.5.5.5.5.6.Z.G.G.x.6.5.6.5.6.5.6.5.5.5.5.6.x.1.G.Y.G.1.1.1.1.1.1.Z.6.5.5.6.Z.1.G.H.V.M.K.B.l.g.e.eQt.3.4.l.z.W.X.X.7.7.X.7.7.X.7.7.X.5.5.W.Z.G.G.x.6.5.6.5.6.5.6.5.5.5.5.6.x.1.G.Y.G.1.1.1.1.1.1.Z.6.5.5.6.Z.1.G.H.V.M.K.B.l.g.e.e",
"QtQt.4.l.z.J.K.T.Y.5.5.5.5.5.5.5.5.5.8.6.1.G.1.Z.6.5.8.5.5.5.5.5.5.5.5.6.9.G.1.1.1.1.1.1.1.1.G.x.6.5.8.6.1.1.Y.H#..K.J.B.l.e.e.eQtQt.4.l.W.X.X.7.7.X.7####.7####.7.X.8.6.1.G.1.Z.6.5.8.5.5.5.5.5.5.5.5.6.9.G.1.1.1.1.1.1.1.1.G.x.6.5.8.6.1.1.Y.H#..K.J.B.l.e.e.e",
"Qt.4Qt.l.B.J.K.T.Y.5.5.5.6.5.5.6.6.F.6.F.9.1.1.9.6.5.6.5.5.6.5.6.6.6.6.F.1.1.G.1.1.1.G.1.1.1.G.1.F.6.6.F.1.1.G.2.I.J.K.B.l.e#a#b#b.4Qt.W.X.X.7.7.X##########.7####.7.X.F.9.1.1.9.6.5.6.5.5.6.5.6.6.6.6.F.1.1.G.1.1.1.G.1.1.1.G.1.F.6.6.F.1.1.G.2.I.J.K.B.l.e.e.h",
"Qt.4.4.l.z.K.K.T.Y.5.5.6.5.5.5.F.9.Z.1.9.F.F.6.6.6.6.5.5.5.6.5.6.Z.1.x.Y.G.G.G.1.1.G.1.1#c.1.1.1.Y.Z.1.1.1.1.1.H.I.K.L.z.l.g#a#d#e#b.4.W.X.W.7.7####.7#f#####f##.7.X.7.X.F.F.6.6.6.6.5.5.5.6.5.6.Z.1.x.Y.G.G.G.1.1.G.1.1#c.1.1.1.Y.Z.1.1.1.1.1.H.I.K.L.z.l.g.gQt",
"QtQt.4.l.z.J.K.T.Y.5.5.5.5.6.5.F.1.G.G.1.6.5.5.6.5.5.5.6.5.5.5.6.Z.G.G.1.1.G.1.1.1.1.G.1.1#c#c.1.G.G.1.1.G.1.1.H.U.K.L.z.l.g#a#g#e#b.W.X.W.7.7.7##.7###f.7###f####.7.W.W.W.5.5.6.5.5.5.6.5.5.5.6.Z.G.G.1.1.G.1.1.1.1.G.1.1#c#c.1.G.G.1.1.G.1.1.H.U.K.L.z.l.g.gQt",
"Qt.4.4.l.z.K.K.U.Y.5.5.5.5.5.5.F.1.G.G.Y.F.5.5.5.5.5.5.5.5.6.5.6.1.G.G.1.G.1.1.1.1.1.1.1.1#c.1#c.1.1.G.1.1.1.G.H.I.K.L.z.l.e#a#d#d#a.W.W.X.7.X#######f.7.X#f#f###f##.7.Y.F.5.5.5.5.5.5.5.5.6.5.6.1.G.G.1.G.1.1.1.1.1.1.1.1#c.1#c.1.1.G.1.1.1.G.H.I.K.L.z.l.e.g.f",
"QtQt.4.l.z.K.K.U.Y.5.5.5.6.F.6.F.Z.Z.1.Z.6.5.5.6.5.6.5.6.6.F.6.9.Z.Z.1.1.1.1.1.G.G.1.G.1#c.1#c.1.1.G.1.1.1.G.1.H.U.K.L.y.l.e.e#e#e.W.W.W.X.X.W##.7##.X#h#i#f.7###f##.7.X.6.5.5.6.5.6.5.6.6.F.6.9.Z.Z.1.1.1.1.1.G.G.1.G.1#c.1#c.1.1.G.1.1.1.G.1.H.U.K.L.y.l.e.e.e",
"Qt.gQt.m.y.L.L.U.Y.5.5.6.9.Y.1.9.F#j.6.6.6.5.6.5.8.5.6.6.9.1.1.9.F.F.F.F.x#k.1#c.1#c.1#c#c.1.1#c.G.1.0.1.1.1.1.H.U.M.L.z.l.g.gQt#e#a.W.X.X.W.X##.X#l#e#e#m##.X.7#f##.X.7.X.5.6.5.8.5.6.6.9.1.1.9.F.F.F.F.x#k.1#c.1#c.1#c#c.1.1#c.G.1.0.1.1.1.1.H.U.M.L.z.l.g.gQt",
"QtQtQt.l.z.L.K.U.Y.5.5.F.Y.G.G.Y.F.5.6.5.5.5.6.5.6.5.5.6.Z.G.G.Z.6.5.8.F.1#k#k.1#c.1#c.1.1.1#c.1.1.1.1#c.1.1.1.H.I.M.M.z.l.gQtQtQt#e.W.X.W.X#h.7#e#n#o#e#i.7#h.W#f.7.X.5.5.5.6.5.6.5.5.6.Z.G.G.Z.6.5.8.F.1#k#k.1#c.1#c.1.1.1#c.1.1.1.1#c.1.1.1.H.I.M.M.z.l.gQtQt",
"Qt.g.g.l.z.K.K.U.Y.5.5.F.1.G.G.1.6.5.5.5.5.6.5.5.6.5.5.6.1.0.0.1.6.5.5#j.Y.0.1#c.1#c#c.1#c.1.1#c.1#c.1.0.G.1.1.H.U.M.M.z.m.g.gQtQt#e.W#a.W.X#h.7#p#i#q#r#s#i#i.W##.7.5.5.5.6.5.5.6.5.5.6.1.0.0.1.6.5.5#j.Y.0.1#c.1#c#c.1#c.1.1#c.1#c.1.0.G.1.1.H.U.M.M.z.m.g.gQt",
"Qt.g.g.k.z.K.K.U.Y.6.6.F.Z.Y.1.9.6.5.6.5.5.5.5.6.6.6.6.9.Z.Z.1.Z.F.6#j.F.1.1#c.1.1.1.1#c.1#c#c.1.1.1#c.1.1.1.1.H#t.M.M.z.l.gQtQtQt.g#e#a.W.X.W.X#p#h#s#s#s#s#i.W##.X.6.5.5.5.5.6.6.6.6.9.Z.Z.1.Z.F.6#j.F.1.1#c.1.1.1.1#c.1#c#c.1.1.1#c.1.1.1.1.H#t.M.M.z.l.gQtQt",
"QtQtQt.l.z.K.K.I.0.Y.Y.Y.F.F.6.F.5.6.5.6.6.5.5.F.9.1.Z.9.F.6.6.F.Y.Y.Y.Y.1#c.1#c#c.1#c.1#c.1#c#c.0.1#c.1#c.1.G.H.I.K.J.z.l.g.gQtQtQt#e#e#d.W.W.W#p#m#i#s#s#s#h.W.7.6.5.6.6.5.5.F.9.1.Z.9.F.6.6.F.Y.Y.Y.Y.1#c.1#c#c.1#c.1#c.1#c#c.0.1#c.1#c.1.G.H.I.K.J.z.l.g.gQt",
"QtQtQt.l.z.K.K.U.H.G.0.1.6.5.5.5.5.5.5.5.5.5.5#j.1.G.G.1.6.5.5.F.Y.G.0.0.1#c#c.1.1#c.1#c.1#c.1.1.1#c.1#c#c.1.Y.H.I.K.J.z.l.e.g.h#e#e#a#e#d#a#u.W#v#p#m#h#i#h#p.5.X.5.5.5.5.5.5#j.1.G.G.1.6.5.5.F.Y.G.0.0.1#c#c.1.1#c.1#c.1#c.1.1.1#c.1#c#c.1.Y.H.I.K.J.z.l.e.g.h",
"QtQt.4.k.z.K.K.I.H.G.G.Y.6.5.5.5.6.5.6.5.5.5.5.F.Y.G.G.1.F.8.5.6.Y.1.G.G.1.1.1#c.1#c#c.1#c.1.1#c.1#c.1.1.1#c.1.H.T.K.J.z.l.g.g.h#e#w#a#b#a#x#u#u#y#v#p#p#p#z#p#p.6.5.6.5.5.5.5.F.Y.G.G.1.F.8.5.6.Y.1.G.G.1.1.1#c.1#c#c.1#c.1.1#c.1#c.1.1.1#c.1.H.T.K.J.z.l.g.g.h",
"Qt.4Qt.l.z.K.K.U.P.Y.Y.Z.F.6#j.F.6.5.5.5.6.F.6.F.Z.1.Z.Z.F.6.6#j.1.G.1.G#c.1#c.1#c.1#c.1.1#c.1.1.0.1#c.1.1.1.1.B.I.K.J.z.m.d.d.d#e#e#a#b#x#z#z#z#z#u#y#v#A#A#z#u.6.5.5.5.6.F.6.F.Z.1.Z.Z.F.6.6#j.1.G.1.G#c.1#c.1#c.1#c.1.1#c.1.1.0.1#c.1.1.1.1.B.I.K.J.z.m.d.d.d",
"QtQt.4.k.z.J.J.U.O.6.6.F.Y.Y.O.Y.F.5.5.F.9.Y.1.Z.9.F.6.F.Z.1.Y.1.1.1.1.1.1.1.1.1.1#c.1.1#c.1.1#c#c.1.1.1.1.1.1.H.U.K.K.B.n.a.a.t#e#w#a#b#z#z#B#B#B#u#y#C#D#D#E#F.F.5.5.F.9.Y.1.Z.9.F.6.F.Z.1.Y.1.1.1.1.1.1.1.1.1.1#c.1.1#c.1.1#c#c.1.1.1.1.1.1.H.U.K.K.B.n.a.a.t",
"Qt.3Qt.l.z.L.K.T.Y.5.5.6.Y.0.G.Y.6.5.5.F.1.G.G.Z.6.5.5.6.Z.G.G.G.1.1.G.1.2.1.G.1#c.1.1#c.1#c#c.1.1.1#c.G.G.1.1.H.U.K.K.C.p.c#G.b#e#e#e#z#z#H#A#A#B#z#y#z#A#z#z#A#F.5.5.F.1.G.G.Z.6.5.5.6.Z.G.G.G.1.1.G.1.2.1.G.1#c.1.1#c.1#c#c.1.1.1#c.G.G.1.1.H.U.K.K.C.p.c#G.b",
"Qt.3.3.l.y.L.L.U#I.5.5.6.O.0.0.Y.F.5.5.6.1.G.G.Y.F.5.5.6.x.G#c#c.G.1.1.1.1.1.1.1.1#c.1.1#c.1.1#c#c.1.1.1.1.1.1.H.I.K.K.H.p#G.b.bQt#e#J#z#B#z#K#A#B#z#y#K#L#A#M#M#F.5.5.6.1.G.G.Y.F.5.5.6.x.G#c#c.G.1.1.1.1.1.1.1.1#c.1.1#c.1.1#c#c.1.1.1.1.1.1.H.I.K.K.H.p#G.b.b",
".d.d.d.m.z.K.L.U.Y.6.6.F.Y.Y.Y#N.6.5.5.6.Z.Y.Y.Z.F.6.6.9.1#c.1.1.1.1.G.1.G.1.G.1#c.1#c#c.1#c#c.1.1#c.1.G.1.1.1.H.I.K.K.B.p.b.b.b.d#e#O#z#z#M#A#A#z#z#u#M#P#A#z#B#F.5.5.6.Z.Y.Y.Z.F.6.6.9.1#c.1.1.1.1.G.1.G.1.G.1#c.1#c#c.1#c#c.1.1#c.1.G.1.1.1.H.I.K.K.B.p.b.b.b",
".a.a.a.n.B.J.L.U.P.Y.Y.Y.F.F.F.6.5.5.5.6.F.6.F.F.9.Y.1.1.1.1.1#c#k.1.1#c.1.G.1.1#c.1#c.1#c.1#c.1#c.1.1#c.1.1.1.H.I.M.M.C.p.b.b.b.a.a#m#m#m#z#B#B#z#x#u#B#B#A#M#M#F.5.5.6.F.6.F.F.9.Y.1.1.1.1.1#c#k.1.1#c.1.G.1.1#c.1#c.1#c.1#c.1#c.1.1#c.1.1.1.H.I.M.M.C.p.b.b.b",
".b.b#G.p#Q.K.L.U#R.0.0.Y.F.5.5.6.5.6.5.6.5.5.5.6.1.G.G.1.1.1.G.1#k.1#c.1.1.1.1#c.1#c.1#c.1#c.1#c.1#c#c.1.1.1.1.H.U.M.M.C.p.b.b.b.b.b#m#h#S#h#m#z#z#u#y#M#P#A#z#B#F.6.5.6.5.5.5.6.1.G.G.1.1.1.G.1#k.1#c.1.1.1.1#c.1#c.1#c.1#c.1#c.1#c#c.1.1.1.1.H.U.M.M.C.p.b.b.b",
".b.b.b.p#Q.K.K.I.H.0.O.Y#j.5.5.5.5.5.6.5.5.5.5.F.Z.1.1.1.1.1.1.0#k#c.1#c.1.1#c.1.1.1.1#c.1#c#c.1.1#c.1#c.1.1.G.H.I.M.M.C.q.b.b.b.b#m#h#S#s#S#m#x#u#u#u#y#B#F#F#F#M.5.6.5.5.5.5.F.Z.1.1.1.1.1.1.0#k#c.1#c.1.1#c.1.1.1.1#c.1#c#c.1.1#c.1#c.1.1.G.H.I.M.M.C.q.b.b.b",
".c.b.b.p#Q.K.K.U.H.O.G.Y.F.5.5.5.6.5.5.5.5.6.5.F.1.G.G.1.1.1.1.1#c.1#c.1#c#c.1#c#c.1#c.1#c.1.1.1#c.1#c.1.G.1.1.H.U.M.M.C.o#G.b.b.c#M#M#h#h#m#x#x#x#x#u#u#F#T#A#z#M.5.5.5.5.6.5.F.1.G.G.1.1.1.1.1#c.1#c.1#c#c.1#c#c.1#c.1#c.1.1.1#c.1#c.1.G.1.1.H.U.M.M.C.o#G.b.b",
".b.b.b.p.B.K.K.I.H.1.G.Y.6.6.5.6.5.6.6.5.5.5.5.6.1#c#c#c.G.1.1.0.1#c.1#c.1.1#k#k.1#c.1#c.1.1.1#c.1#c.1#c.1.1.1.H.U.M.M.C.o.b.b.b#M#P#A#L#A#z#x#u#x#u#x#x#x#z#U#U#x.6.6.5.5.5.5.6.1#c#c#c.G.1.1.0.1#c.1#c.1.1#k#k.1#c.1#c.1.1.1#c.1#c.1#c.1.1.1.H.U.M.M.C.o.b.b.b",
".c.b#G.p.N.K.K.U.H.1.G.Z.6.5.5.5.5.5.5.5.6.5.6.6.x#c.1.1.1.0.1.1#c.1#c#k#c.1#k#k#c.1#c.1.1#c#c.1#c.1.1.1.G.1.1.H.U.M.K.C.o.b.b.b#M#A#P#V#V#z#u#x#x#y#y#y#u#z#B#z#x#M.5.5.6.5.6.6.x#c.1.1.1.0.1.1#c.1#c#k#c.1#k#k#c.1#c.1.1#c#c.1#c.1.1.1.G.1.1.H.U.M.K.C.o.b.b.b",
".c#G.b.p.C.K.K.I.H.G.G.1.F.5.5.5.6.5.5.6.5.5.5.F.Z.G#c.1#c.1.1.1.1.1#k#k#k#k#k#k.1#c#c.1#c.1#c.1#c.1#c.1.1.1.1.H#t.M.M.C.p.b.b.c#z#P#A#h#z#x#x#x#x#x#x#x#x#z#A#A#z#x#m#m.5.5.5.F.Z.G#c.1#c.1.1.1.1.1#k#k#k#k#k#k.1#c#c.1#c.1#c.1#c.1#c.1.1.1.1.H#t.M.M.C.p.b.b.c",
".a.a.a.n.B.K.K.V.2.Z.Y.Z.6.5.6.5.5.5.5.6.6.6.6.9.Y.G#c.1#c.1.G.1#c.1#k#k#k#k#k#k.1#c.1#c.1#c.1#c.1#c.1#c.1.G.1.H#t.M.M.z.n.a.a.a#M#A#P#A#m#m#x#x#x#u#w#u#B#z#z#M#z#x#h#S#m.6.6.9.Y.G#c.1#c.1.G.1#c.1#k#k#k#k#k#k.1#c.1#c.1#c.1#c.1#c.1#c.1.G.1.H#t.M.M.z.n.a.a.a",
".d.d.e.r.z.J.J.I.Y.6.F.6.6.5.5.5.6.5.6.6.9.x.Y.Y.G.G.1.1.1.1.G.1.G.1.1.1#k.1#c.1.1.1#c.1.1.1.1.1#c.1#c.1.1.1.G.H.I.K.J.z.m.d.d#x#p#p#h#S#m#S#m#x#u#u#y#u#B#M#F#M#M#x#S#m#h#m.Y.Y.G.G.1.1.1.1.G.1.G.1.1.1#k.1#c.1.1.1#c.1.1.1.1.1#c.1#c.1.1.1.G.H.I.K.J.z.m.d.d.d",
"Qt.g#W.l.z.L.K.S.Z.5.5.5.5.6.5.6.5.5.5.6.1.G.G.G.1.1.1.G.1.G.1.1.1.1.G.1#k#c#k.1#c.1.1#c.1.G.1.1#c.1.1#c#k#k.Y.H.U.K.K.z.l#x#x#u#p#m#m#h#h#S#m#u#u#u#y#u#B#P#z#F#M#z#u#S#h#m.G.G.1.1.1.G.1.G.1.1.1.1.G.1#k#c#k.1#c.1.1#c.1.G.1.1#c.1.1#c#k#k.Y.H.U.K.K.z.lQtQtQt",
"Qt.g#W.l.z.L.M.U.Z.5.5.6.5.5.5.6.5.5.5.6.9.G.1.G.G.G.1.G.1.1.1.1.1.0.G.G#k#k#k#k.1#c.1.G.1.G.1.2.1#c.1.1#k.G.1.H.I.K.L#x#y#y#w#u#p#m#S#S#s#m#u#u#u#y#u#X#F#z#P#F#F#z#u#m#m.G.1.G.G.G.1.G.1.1.1.1.1.0.G.G#k#k#k#k.1#c.1.G.1.G.1.2.1#c.1.1#k.G.1.H.I.K.L.z.l.4QtQt",
".d.d.e.m.z.L.M.U.Z.5.5.5.6.5.5.5.6.F.6.9.1.G.1.G.Y.Z.x.1.1.1.G.G.1.1.x.1.1#k#k#k.G.1.1.1.1.1.1#c#c.1#c.1.1.x.Y#D#D#Y#Y#Y#y#u#u#u#p#m#m#h#h#m#u#u#y#y#u#X#X#F#M#F#F#F#x#u.1.G.1.G.Y.Z.x.1.1.1.G.G.1.1.x.1.1#k#k#k.G.1.1.1.1.1.1#c#c.1#c.1.1.x.Y.2.U.K.M.y.l.4QtQt",
".t.a.a.n.B.K.K.S.Z.6.5.5.5.6.6.6.Z.Y.1.x.G.1.1.Z.9.6.6.9.1.G.G.1#j#j.F.F.Y.G.1.1.1.1.1.1.1.1.G.1.G.1.G.O.F.F#D#D#y.K#y#x#x#u#uQt#u#p#S#s#m#u#y#y#y#y#X#Z#0#1#1#1#X#x#x#u.G.1.1.Z.9.6.6.9.1.G.G.1#j#j.F.F.Y.G.1.1.1.1.1.1.1.1.G.1.G.1.G.O.F.F.F.Y.U.K.J.z.lQtQtQt",
".b.b#G.p#Q.J.J.S.Z.5.5.6.5.5.5.6.1.G.1.1.G.G.G.Y.6.5.5.6.Z.G.G.Z#j.5.5.F.Y.G.G.1.1.G.1.G.1.G.1.1.1.G.G.Y.F#D#D#y#X#X#y#y#uQtQt#x#u#u#u#u#y#y#y#Y#Y#y#X#Z#0#E#E#E#1#x#x#x#u.G.G.Y.6.5.5.6.Z.G.G.Z#j.5.5.F.Y.G.G.1.1.G.1.G.1.G.1.1.1.G.G.Y.F.5.5.Y.T.K.L.z.lQtQtQt",
".c.b#G.p.C.M.J.T.Z.6.5.5.5.6.8.6.Z.G.1.G.G.G.G.1.6.8.6.6.x.G.G.O.5.5.5.6.x.G.1#c.1#c.1#c.1.1.1.1.1.G.G.Y.F.5#E#E#y#u#u.z.k.g#X#1#1#u#y#y#y#y#Y#Y#y#2#X#Z#0#E#D#D#E#X#x#x#u.G.G.1.6.8.6.6.x.G.G.O.5.5.5.6.x.G.1#c.1#c.1#c.1.1.1.1.1.G.G.Y.F.5.5.Y.T.K.K.z.k.g.3Qt",
".b.b.b.p.C.K.K.T.Z.5.5.6.6.6.6.9.1.G.1.1.1.Z.1.9.F.6.6.9.Z.O.Z.Z.F.F#j.F.1#c#c.1.1.1#c.1.1.1.1.1.Y.Y.Y.F.5.p.o.9#x#x#x.y.l#X#1#X#b#1#u#y#y#Y#Y#Y#X#2#X#Z#1#E#D#D#D#X#x#x#E#1.1.9.F.6.6.9.Z.O.Z.Z.F.F#j.F.1#c#c.1.1.1#c.1.1.1.1.1.Y.Y.Y.F.5.p.o.9.T.K.K.y.l.g.gQt",
".b.b.b.o.C.M.M.V.Z.6.5.6.Z.Z.1.Z.1.1.G.1.9.6.6.F.9.Y.1.Z.F.6.6.9.Y.Y.Y.1.1.1.1#c#c.1#c.1#c.1.G.1.9.F.F.8.E#3#3.8#x#x#x.z.m#X#1#X#X#D#1#y#Y#Y#Y#y#2#x#2#4#1#5#E#E#5#X#x#x#D#X.6.F.9.Y.1.Z.F.6.6.9.Y.Y.Y.1.1.1.1#c#c.1#c.1#c.1.G.1.9.F.F.8.E#3#3.8.C.J.J.z.mQtQtQt",
".b.b.b.o.C.K.M.V.Z.5.5.6.1.1.G.1.1.1.G.Z.6.8.5.6.1.1.G.Z.F.5.5.6.Y.G.G.1.1.1.G.1.1#c.1.1#c#k.G.Y#j.5.5#6#3.b.b.q#x#x#x.z.l.h#X#b#b#X#1#u#Y#Y#Y#X#2.5#2#X#0#1#1#0#0#4#x#x#X#D#1.6.1.1.G.Z.F.5.5.6.Y.G.G.1.1.1.G.1.1#c.1.1#c#k.G.Y#j.5.5#6#3.b.b.q.C.K.J.z.l.hQtQt",
".b.b.b.o.C.M.M.V.Z.5.8.6.Z.G.G.1.G.1.G.1.6.5.5.6.1.G.G.1.6.5.8.6.Y.G.1.1.1.1.1.1#c.1#c#c#c.G.G.1.F.5.5.8#3.b.b.o#1#5#1.z.k.4.3#X#b#X#b#D#u#y#Y#2.Z.5.8#2#4#0#0#M#P#M#4.1#E#1.5.6.1.G.G.1.6.5.8.6.Y.G.1.1.1.1.1.1#c.1#c#c#c.G.G.1.F.5.5.8#3.b.b.o.C.K.K.z.k.4.3Qt",
".a.a.a.r.C.M.M.U.1.6.6.9.1.G.G.G.x.1.Z.Z.9.6.6.9.9.1.Z.Z.F.6.6.F.G.G.G.1.G.1.G.1.1#c.1.1.1.x.Y.9.F.5.5#7#3.b.b.o.C#1#1.z.l.4QtQt#1#D#X#X#D#D#D.U.1.6.6.9#2#4#8#P#5#Z#4.Z.9.6.6.9.9.1.Z.Z.F.6.6.F.G.G.G.1.G.1.G.1.1#c.1.1.1.x.Y.9.F.5.5#7#3.b.b.o.C.K.J.z.l.4QtQt",
".d.d.e.r.z.J.K.U.P.Z.Z.1.1.1.1.1.F.6.6.F.9.Y.1.9.F.F.6.F.Z.1.Y.1.1.1#c.1.1.1.1.1.G.1.G.G.F.F.F.F.5.6.5.8#3.b.b.n.C#1.J.B.l.g.gQt#2#1#b#D#X#X#b#9#9#9#9#9#9#4#Z#4#M#P#M#4#9.Y.1.9.F.F.6.F.Z.1.Y.1.1.1#c.1.1.1.1.1.G.1.G.G.F.F.F.F.5.6.5.8#3.b.b.n.C.J.J.B.l.g.gQt",
"Qt.g#W.l.z.J.K.I.H.G.1.G.1.G.G.Z.F.5.5.F.Y.G.1.1.6.8.5.6.Z.G.G.G#c#c.1#c#c.G.1.1.1.1.G.Y.6.5.5.5.5.5.5#7#3.b.b.q.C#1.J.z.l#9#9#e#2#2#1#1#b#b#9#9#9#9#9#9#9#2#2#8#2#5#Z#8#4#5#5#1#9.8.5.6.Z.G.G.G#c#c.1#c#c.G.1.1.1.1.G.Y.6.5.5.5.5.5.5#7#3.b.b.q.C.J.J.z.l.gQtQt",
"Qt.g#W.l.z.M.M.U.H.G.G.1.G.G.G.1.6.5.5.6.Y.G.G.Y.F.5.5.6.x.G#c#c.1.1#c.1.1#c.1.G.1.G.G.Y.F.5.5.5.5.5.5a.a#.b.b.n.C.J.J#9#9#9#9#2#2#2#2#4#4#2#9#9#9#9#9#9#9#9#2#2#5#Z#M#Z#5#b#b#b#5#9#9.6.x.G#c#c.1.1#c.1.1#c.1.G.1.G.G.Y.F.5.5.5.5.5.5a.a#.b.b.n.C.J.J.z.l.g.gQt",
".d.d.e.m.z.M.M.I.H.O.Y.G.Y.Y.x.9.F.5.5.F.Y.G.G.1.F.6.6.9.1#c.1.1.1#c.1.1#c.1.1.1.Y.x.Y.Z.6.5.5.5.F.F.F.5.q#3#3.8.C.J#9#9#9#9#9#e#2#2#4#4#Z#4#2#9#9#9#9#9#9#9#9#2#4#8#Z#5#b#b#b#4#2#9#9#9.1#c.1.1.1#c.1.1#c.1.1.1.Y.x.Y.Z.6.5.5.5.F.F.F.5.q#3#3.8.C.J.K.B.m.d.d.d",
".t.aaa.n.C.K.M.I.H.1.G.Y.9.F.6.6.6.5.5.F.Y.G.G.Y.Y.Y.1.1.1.1.1#c#c.1#c.1.1.G.1.1#N.6.6.6.6.5.5.F#N.Y.1.9.8.o#7.F.T#9#9#9#9#9#9#e#2#2#4#4#Z#Z#2#9#9#9#9#9#9#9#9#2#2#4#5#5#5#5#4#2#9#9#9#9#9.1.1#c#c.1#c.1.1.G.1.1#N.6.6.6.6.5.5.F#N.Y.1.9.8.o#7.F.T.K.K.B.n.a.a.a",
".b.b#G.p.C.K.M.I.H.1.G.1.6.5.5.5.5.5.5.F.1.1.G.1.G.G#c.1.1.1.1#c#c.1#c#c.1.G.G.Z.F.5.5.5.5.5.5.F.Y.G.G.Y.F.5.5.Y#9#9#9#9#9#9#9#9#9#9#e#2#2#2#e#9#9#9#9#9#9#9#9#9#2#4#Z#5#4#2#e#9#9#9#9#9#9#9.1#c#c.1#c#c.1.G.G.Z.F.5.5.5.5.5.5.F.Y.G.G.Y.F.5.5.Y.T.K.K.C.p.b.c.c",
".c.c#G.p.C.M.M#t.H.1.G.Y.6.5.5.6.5.5.5#j.R.G.1.G.G.1.G.G.1.1.1.1.G.G.1#c.G.G.G.Y.F.5.5.5.5.5.5.F.Y.G.G.1.F.5.5.Y#9#9#9#9#9#9#9#9#9#9#9#9#9#9#9#9#9#9#9#9#9#9#9#9#9#2#4#Z#2#9#9#9#9#9#9#9#9#9.1.1.G.G.1#c.G.G.G.Y.F.5.5.5.5.5.5.F.Y.G.G.1.F.5.5.Y.T.K.K.C.p#G#G.c",
".a.a.a.n.H.I.I.C.0.Z.Y.Z.6.6.5.5.6.6.F.9.Y.1.G.O.1.1.1.1.1.1#c.1.Y.Y.x.1.O.Y.Y.Z.F.5.5.6.6.6.F.F.Y.O.Y.9.5#7#7.F#9#9#9#9#9#9#9#9#9#9#9#9#9#9#9#9#9#9#9#9#9#9#9#9#9#e#2#e#9#9#9#9#9#9#9#9#9#9#c.1.Y.Y.x.1.O.Y.Y.Z.F.5.5.6.6.6.F.F.Y.O.Y.9.5#7#7.F#Q.I.I.2ab.a.a.t",
".#.d.eac.x.H.H.G.Z.F.6.6.6.6.5.6.Z.Y.O.Y.G.G.G.G.1.1.1.1.1.G.G.O.9.6.F.F.6.F.F.6.5.5.6.6#N.O.Y.Z.F.F.F.8.E#3ad.p#9#9#9#9#9#9#9#9#9#9#9#9#9#9#9#9#9#9#9#9#9#9#9#9#9#9#9#9#9#9#9#9#9#9#9#9#9#9.G.O.9.6.F.F.6.F.F.6.5.5.6.6#N.O.Y.Z.F.F.F.8.E#3ad.p.Y#Q#Q.Racae.d.d",
".e.g.g.kaf.G.G.1.6.6.5.6.5.5.6.6.Y.G.G.G.G.G.G.O.G.G.G.G.G.G.G.Y.F.5.5.5.5.5.5.5.6.5.5.F.O.O.G.O.F.5.5a.ad.b#Gag.F#9#9#9#9#9#9#9#9#9#9#9#9#9#9#9#9#9#9#9#9#9#9#9#9#9#9#9#9#9#9#9#9#9#9#9#9.G.G.Y.F.5.5.5.5.5.5.5.6.5.5.F.O.O.G.O.F.5.5a.ad.b#Gag.F.G.O.w.k.3QtQt",
".e.e.e.kah.G.G.Z.6.6.5.5.5.6.5.6.O.G.G.G.1.G.G.G.G.G.G.G.1.G.G.Y.6.5.5.6.5.6.6.5.6.5.5.F.O.G.G.Y.6.6.5.8ad.b.bag.F.0#9#9#9#9#9#9#9#9#9#9#9#9#9#9#9#9#9#9#9#9#9#9#9#9#9#9#9#9#9#9#9#9#9#9.1.G.G.Y.6.5.5.6.5.6.6.5.6.5.5.F.O.G.G.Y.6.6.5.8ad.b.bag.F.0.0.w.k.3QtQt",
".e.f.dai.v.9.6.6.v.n.oaj#7.5#6#6.vafah.w.w.F#j.w.wah.w.w.F.w.F.6.8#6#6#6#7#7#7#7#7#7#7.8.6ahaf.v.v.oakab#3.a.a.Qal.F.R#9#9#9#9#9#9#9#9#9#9#9#9#9#9#9#9#9#9#9#9#9#9#9#9#9#9#9#9#9#9#9#9.w.F.w.F.6.8#6#6#6#7#7#7#7#7#7#7.8.6ahaf.v.v.oakab#3.a.a.Qal.F.R.vam.3QtQt",
".t.a.a.tan.E.E.Qaoapaiaq#3anan.uac.k.jac.Q.E.E.Qac.k.k.j.Qa#.q.Qa#a#a#a#a#a#a#a#a#a#a#.uac.k.k.j.jaiai.i.i.d.d.#.u.E.q.u.f#9#9#9#9#9#9#9#9#9#9#9#9#9#9#9#9#9#9#9#9#9#9#9#9#9#9#9#9.k.k.j.Qa#.q.Qa#a#a#a#a#a#a#a#a#a#a#.uac.k.k.j.jaiai.i.i.d.d.#.u.E.q.u.fQtQtQt",
".b.c.c.c.b.b.baa.e.e.e.e.a.b.c.a.dQt#Wae.a.b.b.a.d#W.g.d.a.b.b.b.c.c.t.b.c.b.b.c.b.b.c.a.d.g.g.g.gQtQtQt.h.h.h.d.a.b.b.a.dQtQtQt.b#9#9#9#9#9#9#9#9#9#9#9#9#9#9#9#9#9#9#9#9.b.b.a.d#W.g.d.a.b.b.b.c.c.t.b.c.b.b.c.b.b.c.a.d.g.g.g.gQtQtQt.h.h.h.d.a.b.b.a.dQtQtQt",
".c.c.c.c.b.c.b.t.#.e.e.f.a.c.c.a.dQtQt.d.a#G.b.a.d.hQt.d.a.c.b.b.b.c.b.b.b.b.c.b.b.b.b.a.d.g.gQtQtQtQtQtQt.h.h.d.a.c.b.a.d.h.hQt.c.c.c.c.b.c.b.t.#.e.e.f.a.c.c.a.dQtQt.d.a#G.b.a.d.hQt.d.a.c.b.b.b.c.b.b.b.b.c.b.b.b.b.a.d.g.gQtQtQtQtQtQt.h.h.d.a.c.b.a.d.h.hQt",
".b.b.c.b.b.c.b.t.e.e.g.e.t.c.c.a.dQtQt.d.a.c.b.a.d.hQt.d.a.c.c.c.c.b.c.b.c.c.b.c.c.b.b.t.dQtQtQtQtQtQtQtQtQt.h.d.a.c.c.a.dQtQtQt.b.b.c.b.b.c.b.t.e.e.g.e.t.c.c.a.dQtQt.d.a.c.b.a.d.hQt.d.a.c.c.c.c.b.c.b.c.c.b.c.c.b.b.t.dQtQtQtQtQtQtQtQtQt.h.d.a.c.c.a.dQtQtQt"};
