/* XPM */
static char *dummy[]={
"128 64 148 2",
"#9 c #000000",
"#B c #001111",
"#z c #002b2b",
"#O c #005477",
"#H c #005e7f",
"#J c #007faa",
"#I c #00e200",
"#d c #080808",
"#A c #0f0e11",
"#D c #1e424f",
"#Z c #212828",
"#v c #260c0c",
"#0 c #26252c",
"a. c #35353a",
"#1 c #35383f",
"#6 c #371812",
".5 c #383f4a",
".g c #383f4b",
"#Y c #383f4c",
".4 c #38404c",
".e c #393f4b",
"Qt c #3a404b",
".h c #3a404c",
"af c #3d4046",
".d c #3d4047",
"#C c #3d5358",
".f c #3f4148",
".i c #404248",
"an c #424349",
".# c #434245",
"aq c #43434a",
"aj c #44434a",
"## c #444448",
".j c #44444b",
"ab c #46413d",
".a c #46413e",
"#x c #470000",
".s c #474242",
"ap c #474548",
".k c #47464d",
"#r c #494482",
"ad c #494649",
"#p c #4a2121",
"#M c #4a4138",
".b c #4a423a",
".t c #4a433e",
"ar c #4b4440",
".l c #4b4951",
".c c #4c423a",
".m c #4d484c",
".u c #4e4541",
"#4 c #4f443c",
"ae c #50443c",
"aa c #50453d",
"ao c #51453d",
".S c #514743",
"#3 c #51545b",
"ah c #53463f",
"#2 c #535353",
".E c #54473f",
"ac c #544845",
".n c #544946",
".q c #554840",
".r c #554a47",
"#8 c #562f1d",
".p c #584a43",
".o c #584a44",
"al c #584a47",
".D c #584d4d",
".v c #5a4d4b",
"#5 c #5b4b44",
"ak c #5b4c48",
"#7 c #5c4b43",
"a# c #5d4b43",
".9 c #5e4d45",
"am c #5e4d48",
"ai c #5f4f4d",
".6 c #614d45",
".w c #61514f",
"#l c #635049",
"#K c #637a82",
".7 c #644f48",
"ag c #645352",
".x c #655451",
".F c #66514a",
"#. c #67524b",
".T c #67544f",
"#Q c #68524b",
".Z c #68534c",
"#N c #69534d",
".Y c #69544d",
".O c #6c564f",
".1 c #6c5650",
".y c #6c5959",
".Q c #6d3300",
"#m c #6d5650",
"#f c #6e5651",
".0 c #6e5751",
".G c #6f5750",
".2 c #6f5a56",
".P c #705853",
".A c #705c5c",
".z c #705c5d",
".B c #715c5b",
"#L c #72472d",
".H c #725a55",
"#o c #7291ea",
"#S c #735a54",
".N c #745b56",
".C c #745d59",
"#u c #750000",
"#R c #755c57",
".U c #785e5a",
"#a c #797a7c",
".X c #7a5f5b",
".V c #7a605b",
".W c #7a605c",
"#b c #7c615d",
"#t c #7d625e",
".I c #7e625e",
".M c #826663",
".K c #836663",
".L c #836764",
"#G c #838384",
"#k c #84393a",
".J c #846763",
"#w c #870000",
"#U c #8e3314",
"#P c #946c45",
"#q c #96b2ff",
".R c #996314",
"#c c #9e99a6",
"#F c #adb2af",
"#y c #af001c",
"#V c #c09d7b",
"#j c #c1bfbc",
"#h c #c46555",
"#W c #c65619",
"#g c #ccd3d6",
".3 c #d19e30",
"#n c #e5f4ff",
"#X c #ef0c23",
"#T c #f78c6b",
"#e c #f9edd6",
".8 c #fcd670",
"#E c #ff7084",
"#i c #ffa893",
"#s c #ffd8ce",
"QtQtQtQtQtQtQtQtQtQtQtQtQtQtQtQtQtQtQt.#.a.b.b.b.b.b.b.c.b.b.b.b.b.b.b.a.d.e.f.g.f.e.h.hQtQt.f.gQt.f.e.h.f.gQtQtQtQt.f.d.a.c.c.bQtQtQtQtQtQtQtQtQtQtQtQtQtQtQtQtQtQtQt.#.a.b.b.b.b.b.b.c.b.b.b.b.b.b.b.a.d.e.f.g.f.e.h.hQtQt.f.gQt.f.e.h.f.gQtQtQtQt.f.d.a.c.c.b",
"QtQtQtQtQtQtQt.gQt.gQt.g.gQt.g.g.g.g.g.d.a.b.b.b.b.b.b.b.b.b.b.b.b.b.b.a.e.e.g.g.g.g.e.gQt.g.g.g.g.g.e.e.g.g.g.g.gQt.g.d.a.c.c.cQtQtQtQtQtQtQt.gQt.gQt.g.gQt.g.g.g.g.g.d.a.b.b.b.b.b.b.b.b.b.b.b.b.b.b.a.e.e.g.g.g.g.e.gQt.g.g.g.g.g.e.e.g.g.g.g.gQt.g.d.a.c.c.c",
".h.hQtQtQt.g.gQt.gQtQt.g.g.g.g.g.g.g.g.d.a.b.b.b.b.b.b.b.b.b.b.b.b.b.b.a.e.g.g.g.g.g.g.g.g.g.g.g.g.g.e.e.g.g.g.g.g.g.g.d.a.c.c.c.h.hQtQtQt.g.gQt.gQtQt.g.g.g.g.g.g.g.g.d.a.b.b.b.b.b.b.b.b.b.b.b.b.b.b.a.e.g.g.g.g.g.g.g.g.g.g.g.g.g.e.e.g.g.g.g.g.g.g.d.a.c.c.c",
".d.d.d.i.j.j.k.k.k.l.l.l.m.l.l.m.l.l.l.m.n.o.p.o.o.o.q.p.o.o.o.o.o.o.p.n.r.l.l.l.l.l.l.l.l.l.l.l.l.l.l.l.l.l.l.l.k.k.k.j.s.a.t.a.d.d.d.i.j.j.k.k.k.l.l.l.m.l.l.m.l.l.l.m.n.o.p.o.o.o.q.p.o.o.o.o.o.o.p.n.r.l.l.l.l.l.l.l.l.l.l.l.l.l.l.l.l.l.l.l.k.k.k.j.s.a.t.a",
".t.a.a.u.v.w.w.x.y.z.z.z.y.z.z.z.z.A.A.B.B.C.C.C.C.C.C.C.C.C.C.C.C.C.C.C.z.A.A.A.y.z.z.z.z.z.z.y.A.A.z.z.z.z.z.y.x.w.w.D.j.d.d.d.t.a.a.u.v.w.w.x.y.z.z.z.y.z.z.z.z.A.A.B.B.C.C.C.C.C.C.C.C.C.C.C.C.C.C.C.z.A.A.A.y.z.z.z.z.z.z.y.A.A.z.z.z.z.z.y.x.w.w.D.j.d.d.d",
".c.b.b.E.F.G.G.H.I.J.J.K.L.L.L.L.K.J.K.K.J.M.M.M.M.M.L.M.M.M.M.M.M.M.M.L.J.J.K.J.K.K.L.M.J.L.L.K.K.K.K.J.K.J.L.I.N.G.G.w.k.gQtQt.c.b.b.E.F.G.G.H.I.J.J.K.L.L.L.L.K.J.K.K.J.M.M.M.M.M.L.M.M.M.M.M.M.M.M.L.J.J.K.J.K.K.L.M.J.L.L.K.K.K.K.J.K.J.L.I.N.G.G.w.k.gQtQt",
".c.c.b.E.F.G.O.H.I.J.K.K.K.K.J.J.L.K.K.K.K.K.M.M.M.M.M.M.M.M.M.M.M.M.M.M.K.K.K.K.K.K.K.K.K.K.K.K.K.M.M.K.K.K.K.I.P.O.O.Q.Q.Q.Q.Q.c.c.R.R.R.R.O.H.I.J.K.K.K.K.J.J.L.K.K.K.K.K.M.M.M.M.M.M.M.M.M.M.M.M.M.M.K.K.K.K.K.K.K.K.K.K.K.K.K.M.M.K.K.K.K.I.P.O.O.w.kQtQt.h",
".a.a.a.S.T.H.H.N.U.V.V.V.V.V.V.V.W.X.U.X.W.I.W.I.X.X.X.X.X.X.X.X.X.X.X.X.X.I.X.I.I.W.I.W.I.I.I.W.X.X.X.W.I.I.W.U.N.Q.R.R.R.R.R.R.R.Q.R.Q.Q.Q.R.N.U.V.V.V.V.V.V.V.W.X.U.X.W.I.W.I.X.X.X.X.X.X.X.X.X.X.X.X.X.I.X.I.I.W.I.W.I.I.I.W.X.X.X.W.I.I.W.U.N.N.H.x.k.g.gQt",
".d.d.d.m.y.I.I.U.G.Y.Y.Y.Y.Y.Y.Y.Z.Z.Y.G.0.H.H.P.1.Z.Z.Z.Z.Z.Z.Z.Z.Z.Y.G.H.H.H.H.H.H.H.H.H.H.H.2.1.Z.Z.1.G.H.H.H.Q.R.R.3.3.R.3.3.R.3.3.R.y.I.Q.U.G.Y.Y.Y.Y.Y.Y.Y.Z.Z.Y.G.0.H.H.P.1.Z.Z.Z.Z.Z.Z.Z.Z.Z.Y.G.H.H.H.H.H.H.H.H.H.H.H.2.1.Z.Z.1.G.H.H.H.X.M.I.y.k.g.g.f",
"Qt.4.5.l.z.J.K.V.Z.6.6.6.6.6.6.6.6.6.6.7.Z.G.G.x.7.6.7.6.7.6.7.6.6.6.6.7.x.1.G.Y.G.1.1.1.1.1.1.Z.7.6.6.7.Z.1.G.Q.R.R.3.3.R.3.8.8.3.8.8.3.R.J.K.V.Z.6.6.6.6.6.6.6.6.6.6.7.Z.G.G.x.7.6.7.6.7.6.7.6.6.6.6.7.x.1.G.Y.G.1.1.1.1.1.1.Z.7.6.6.7.Z.1.G.H.X.M.K.B.l.g.e.e",
"QtQt.5.l.z.J.K.V.Y.6.6.6.6.6.6.6.6.6.9.7.1.G.1.Z.7.6.9.6.6.6.6.6.6.6.6.7#..G.1.1.1.1.1.1.1.1.G.x.7###a#a.1.1.Q.R.R.3.3.R.8.8.8.8.8.3.8.8.3.R.K.V.Y.6.6.6.6.6.6.6.6.6.9.7.1.G.1.Z.7.6.9.6.6.6.6.6.6.6.6.7#..G.1.1.1.1.1.1.1.1.G.x.7.6.9.7.1.1.Y.H#b.K.J.B.l.e.e.e",
"Qt.5Qt.l.B.J.K.V.Y.6.6.6.7.6.6.7.7.F.7.F#..1.1#..7.6.7.6.6.7.6.7.7.7.7.F.1.1.G.1.1.1.G.1.1.1.G.1.F###c#d#a.1.Q.R.Q.3.3.8.8.3#e.8.8#e.8.3.R.3.R.V.Y.6.6.6.7.6.6.7.7.F.7.F#..1.1#..7.6.7.6.6.7.6.7.7.7.7.F.1.1.G.1.1.1.G.1.1.1.G.1.F.7.7.F.1.1.G.2.I.J.K.B.l.e.e.h",
"Qt.5.5.l.z.K.K.V.Y.6.6.7.6.6.6.F#..Z.1#..F.F.7.7.7.7.6.6.6.7.6.7.Z.1.x.Y.G.G.G.1.1.G.1.1#f.1.1.1.Y###g#d#a.Q.R.Q.3.3.3.8.3.8#e.3.8#e.8.8.3.Q.Q.Q.Y.6.6.7.6.6.6.F#..Z.1#..F.F.7.7.7.7.6.6.6.7.6.7.Z.1.x.Y.G.G.G.1.1.G.1.1#f.1.1.1.Y.Z.1.1.1.1.1.H.I.K.L.z.l.g.gQt",
"QtQt.5.l.z.J.K.V.Y.6.6.6.6.7.6.F.1.G.G.1.7.6.6.7.6.6.6.7.6.6.6.7.Z.G.G.1.1.G.1.1.1.1.G.1.1#f#f.1.G###c#c##.Q.Q.R.3.R.8.8.8#e.3.R#e#e.8#e.8.3.K.V.Y.6.6.6.6.7.6.F.1.G.G.1.7.6.6.7.6.6.6.7.6.6.6.7.Z.G.G.1.1.G.1.1.1.1.G.1.1#f#f.1.G.G.1.1.G.1.1.H.W.K.L.z.l.g.gQt",
"Qt.5.5.l.z.K.K.W.Y.6.6.6.6.6.6.F.1.G.G.Y.F.6.6.6.6.6.6.6.6.7.6.7.1.G.G.1.G.1.1.1.1.1.1.1.1#f.1#f.1.1#d#d.Q.Q.Q.R.R.Q.8.3.8.R#h#i#e.3.8#e.8.3.R.W.Y.6.6.6.6.6.6.F.1.G.G.Y.F.6.6.6.6.6.6.6.6.7.6.7.1.G.G.1.G.1.1.1.1.1.1.1.1#f.1#f.1.1.G.1.1.1.G.H.I.K.L.z.l.e.g.f",
"QtQt.5.l.z.K.K.W.Y.6.6.6.7.F.7.F.Z.Z.1.Z.7.6.6.7.6.7.6.7.7.F.7#..Z.Z.1.1.1.1.1.G.G.1.G.1#f.1#f.1.1.G.1#d##.Q.R.R.Q.R.8.R#j#d#d#k.8.R.3#e.8.R.3.R.Y.6.6.6.7.F.7.F.Z.Z.1.Z.7.6.6.7.6.7.6.7.7.F.7#..Z.Z.1.1.1.1.1.G.G.1.G.1#f.1#f.1.1.G.1.1.1.G.1.H.W.K.L.y.l.e.e.e",
"Qt.gQt.m.y.L.L.W.Y.6.6.7#..Y.1#..F#l.7.7.7.6.7.6.9.6.7.7#..1.1#..F.F.F.F.x#m.1#f.1#f.1#f#f.1.1#f.G.1.0.1#d.Q.R.Q.R#h.3#d#n#o#d#i.3#h.Q#e.3.R.L.W.Y.6.6.7#..Y.1#..F#l.7.7.7.6.7.6.9.6.7.7#..1.1#..F.F.F.F.x#m.1#f.1#f.1#f#f.1.1#f.G.1.0.1.1.1.1.H.W.M.L.z.l.g.gQt",
"QtQtQt.l.z.L.K.W.Y.6.6.F.Y.G.G.Y.F.6.7.6.6.6.7.6.7.6.6.7.Z.G.G.Z.7.6.9.F.1#m#m.1#f.1#f.1.1.1#f.1.1.1.1#f#d.Q##.Q.R#h.3#p#i#q#r#s#i#i.Q.8.3.L.K.W.Y.6.6.F.Y.G.G.Y.F.6.7.6.6.6.7.6.7.6.6.7.Z.G.G.Z.7.6.9.F.1#m#m.1#f.1#f.1.1.1#f.1.1.1.1#f.1.1.1.H.I.M.M.z.l.gQtQt",
"Qt.g.g.l.z.K.K.W.Y.6.6.F.1.G.G.1.7.6.6.6.6.7.6.6.7.6.6.7.1.0.0.1.7.6.6#l.Y.0.1#f.1#f#f.1#f.1.1#f.1#f.1.0.G#d##.Q.R.Q.R#p#h#s#s#s#s#i.Q.8.R.K.K.W.Y.6.6.F.1.G.G.1.7.6.6.6.6.7.6.6.7.6.6.7.1.0.0.1.7.6.6#l.Y.0.1#f.1#f#f.1#f.1.1#f.1#f.1.0.G.1.1.H.W.M.M.z.m.g.gQt",
"Qt.g.g.k.z.K.K.W.Y.7.7.F.Z.Y.1#..7.6.7.6.6.6.6.7.7.7.7#..Z.Z.1.Z.F.7#l.F.1.1#f.1.1.1.1#f.1#f#f.1.1.1#f.1.1#d#d#c.Q.Q.Q#p#k#i#s#s#s#h.Q.3.z.K.K.W.Y.7.7.F.Z.Y.1#..7.6.7.6.6.6.6.7.7.7.7#..Z.Z.1.Z.F.7#l.F.1.1#f.1.1.1.1#f.1#f#f.1.1.1#f.1.1.1.1.H#t.M.M.z.l.gQtQt",
"QtQtQt.l.z.K.K.I.0.Y.Y.Y.F.F.7.F.6.7.6.7.7.6.6.F#..1.Z#..F.7.7.F.Y.Y.Y.Y.1#f.1#f#f.1#f.1#f.1#f#f.0.1#f#d#d###d#c###u.Q#v#p#k#h#i#h#pQt.R.z.K.K.I.0.Y.Y.Y.F.F.7.F.6.7.6.7.7.6.6.F#..1.Z#..F.7.7.F.Y.Y.Y.Y.1#f.1#f#f.1#f.1#f.1#f#f.0.1#f.1#f.1.G.H.I.K.J.z.l.g.gQt",
"QtQtQt.l.z.K.K.W.H.G.0.1.7.6.6.6.6.6.6.6.6.6.6#l.1.G.G.1.7.6.6.F.Y.G.0.0.1#f#f.1.1#f.1#f.1#f.1.1.1#f.1#d#w###a###x#u#u#y#v#p#p#p#z#p#p.l.z.K.K.W.H.G.0.1.7.6.6.6.6.6.6.6.6.6.6#l.1.G.G.1.7.6.6.F.Y.G.0.0.1#f#f.1.1#f.1#f.1#f.1.1.1#f.1#f#f.1.Y.H.I.K.J.z.l.e.g.h",
"QtQt.5.k.z.K.K.I.H.G.G.Y.7.6.6.6.7.6.7.6.6.6.6.F.Y.G.G.1.F.9.6.7.Y.1.G.G.1.1.1#f.1#f#f.1#f.1.1#f.1#f.1#d#d###a#x#A#B#z#z#z#y#v#C#C#z#u.k.z.K.K.I.H.G.G.Y.7.6.6.6.7.6.7.6.6.6.6.F.Y.G.G.1.F.9.6.7.Y.1.G.G.1.1.1#f.1#f#f.1#f.1.1#f.1#f.1.1.1#f.1.H.V.K.J.z.l.g.g.h",
"Qt.5Qt.l.z.K.K.W.P.Y.Y.Z.F.7#l.F.7.6.6.6.7.F.7.F.Z.1.Z.Z.F.7.7#l.1.G.1.G#f.1#f.1#f.1#f.1.1#f.1.1.0.1#f#d#w###a#B#B#z#z#C#D#y#E#F#F#G#B.l.z.K.K.W.P.Y.Y.Z.F.7#l.F.7.6.6.6.7.F.7.F.Z.1.Z.Z.F.7.7#l.1.G.1.G#f.1#f.1#f.1#f.1.1#f.1.1.0.1#f.1.1.1.1.B.I.K.J.z.m.d.d.d",
"QtQt.5.k.z.J.J.W.O.7.7.F.Y.Y.O.Y.F.6.6.F#..Y.1.Z#..F.7.F.Z.1.Y.1.1.1.1.1.1.1.1.1.1#f.1.1#f.1.1#f#f.1.1#d#d#d#a#B#z#H#z#C#D#y#z#C#z#z#C#B.z.J.J.W.O.7.7.F.Y.Y.O.Y.F.6.6.F#..Y.1.Z#..F.7.F.Z.1.Y.1.1.1.1.1.1.1.1.1.1#f.1.1#f.1.1#f#f.1.1.1.1.1.1.H.W.K.K.B.n.a.a.t",
"Qt.4Qt.l.z.L.K.V.Y.6.6.7.Y.0.G.Y.7.6.6.F.1.G.G.Z.7.6.6.7.Z.G.G.G.1.1.G.1.2.1.G.1#f.1.1#f.1#f#f.1.1.1#f.G#d#I#a#z#z#z#J#C#z#y#J#K#C#z#L#B.z.L.K.V.Y.6.6.7.Y.0.G.Y.7.6.6.F.1.G.G.Z.7.6.6.7.Z.G.G.G.1.1.G.1.2.1.G.1#f.1.1#f.1#f#f.1.1.1#f.G.G.1.1.H.W.K.K.C.p.c#M.b",
"Qt.4.4.l.y.L.L.W#N.6.6.7.O.0.0.Y.F.6.6.7.1.G.G.Y.F.6.6.7.x.G#f#f.G.1.1.1.1.1.1.1.1#f.1.1#f.1.1#f#f.1.1.1#d#O#d#z#D#D#C#z#C#z#C#L#P#z#D#B.y.L.L.W#N.6.6.7.O.0.0.Y.F.6.6.7.1.G.G.Y.F.6.6.7.x.G#f#f.G.1.1.1.1.1.1.1.1#f.1.1#f.1.1#f#f.1.1.1.1.1.1.H.I.K.K.H.p#M.b.b",
".d.d.d.m.z.K.L.W.Y.7.7.F.Y.Y.Y#Q.7.6.6.7.Z.Y.Y.Z.F.7.7#..1#f.1.1.1.1.G.1.G.1.G.1#f.1#f#f.1#f#f.1.1#f.1.G.1#d#z#D#L#C#C#z#x#u#D#D#C#z#L#B.z.K.L.W.Y.7.7.F.Y.Y.Y#Q.7.6.6.7.Z.Y.Y.Z.F.7.7#..1#f.1.1.1.1.G.1.G.1.G.1#f.1#f#f.1#f#f.1.1#f.1.G.1.1.1.H.I.K.K.B.p.b.b.b",
".a.a.a.n.B.J.L.W.P.Y.Y.Y.F.F.F.7.6.6.6.7.F.7.F.F#..Y.1.1.1.1.1#f#m.1.1#f.1.G.1.1#f.1#f.1#f.1#f.1#f.1.1#f.1#d#k#z#z#D#D#z#u#y#D#L#P#z#D#B.B.J.L.W.P.Y.Y.Y.F.F.F.7.6.6.6.7.F.7.F.F#..Y.1.1.1.1.1#f#m.1.1#f.1.G.1.1#f.1#f.1#f.1#f.1#f.1.1#f.1.1.1.H.I.M.M.C.p.b.b.b",
".b.b#M.p#R.K.L.W#S.0.0.Y.F.6.6.7.6.7.6.7.6.6.6.7.1.G.G.1.1.1.G.1#m.1#f.1.1.1.1#f.1#f.1#f.1#f.1#f.1#f#f.1.1.1#k#h#T#k#z#z#z#u#y#D#B#B#B.p#R.K.L.W#S.0.0.Y.F.6.6.7.6.7.6.7.6.6.6.7.1.G.G.1.1.1.G.1#m.1#f.1.1.1.1#f.1#f.1#f.1#f.1#f.1#f#f.1.1.1.1.H.W.M.M.C.p.b.b.b",
".b.b.b.p#R.K.K.I.H.0.O.Y#l.6.6.6.6.6.7.6.6.6.6.F.Z.1.1.1.1.1.1.0#m#f.1#f.1.1#f.1.1.1.1#f.1#f#f.1.1#f.1#f.1#k#h#T#s#T#k#x#x#u#u#B#U#C#z.p#R.K.K.I.H.0.O.Y#l.6.6.6.6.6.7.6.6.6.6.F.Z.1.1.1.1.1.1.0#m#f.1#f.1.1#f.1.1.1.1#f.1#f#f.1.1#f.1#f.1.1.G.H.I.M.M.C.q.b.b.b",
".c.b.b.p#R.K.K.W.H.O.G.Y.F.6.6.6.7.6.6.6.6.7.6.F.1.G.G.1.1.1.1.1#f.1#f.1#f#f.1#f#f.1#f.1#f.1.1.1#f.1#f.1.G#k#P#V#V#P#k#u#u#x#x#x#z#W#W.p#R.K.K.W.H.O.G.Y.F.6.6.6.7.6.6.6.6.7.6.F.1.G.G.1.1.1.1.1#f.1#f.1#f#f.1#f#f.1#f.1#f.1.1.1#f.1#f.1.G.1.1.H.W.M.M.C.o#M.b.b",
".b.b.b.p.B.K.K.I.H.1.G.Y.7.7.6.7.6.7.7.6.6.6.6.7.1#f#f#f.G.1.1.0.1#f.1#f.1.1#m#m.1#f.1#f.1.1.1#f.1#f.1#f.1#P#P#K#C#z#y#x#X#y#y#u#z#D#z#L.B.K.K.I.H.1.G.Y.7.7.6.7.6.7.7.6.6.6.6.7.1#f#f#f.G.1.1.0.1#f.1#f.1.1#m#m.1#f.1#f.1.1.1#f.1#f.1#f.1.1.1.H.W.M.M.C.o.b.b.b",
".c.b#M.p.N.K.K.W.H.1.G.Z.7.6.6.6.6.6.6.6.7.6.7.7.x#f.1.1.1.0.1.1#f.1#f#m#f.1#m#m#f.1#f.1.1#f#f.1#f.1.1.1.G#L#K#V#V#P#x#x#x#x#x#x#z#C#C#z.N.K.K.W.H.1.G.Z.7.6.6.6.6.6.6.6.7.6.7.7.x#f.1.1.1.0.1.1#f.1#f#m#f.1#m#m#f.1#f.1.1#f#f.1#f.1.1.1.G.1.1.H.W.M.K.C.o.b.b.b",
".c#M.b.p.C.K.K.I.H.G.G.1.F.6.6.6.7.6.6.7.6.6.6.F.Z.G#f.1#f.1.1.1.1.1#m#m#m#m#m#m.1#f#f.1#f.1#f.1#f.1#f.1.1#z#P#K#C#h#T#x#x#u#u#D#z#z#L#z#k.K.K.I.H.G.G.1.F.6.6.6.7.6.6.7.6.6.6.F.Z.G#f.1#f.1.1.1.1.1#m#m#m#m#m#m.1#f#f.1#f.1#f.1#f.1#f.1.1.1.1.H#t.M.M.C.p.b.b.c",
".a.a.a.n.B.K.K.X.2.Z.Y.Z.7.6.7.6.6.6.6.7.7.7.7#..Y.G#f.1#f.1.G.1#f.1#m#m#m#m#m#m.1#f.1#f.1#f.1#f.1#f.1#f#u#x#C#V#P#k#k#T#x#y#u#L#z#B#P#L#z#k.K.X.2.Z.Y.Z.7.6.7.6.6.6.6.7.7.7.7#..Y.G#f.1#f.1.G.1#f.1#m#m#m#m#m#m.1#f.1#f.1#f.1#f.1#f.1#f.1.G.1.H#t.M.M.z.n.a.a.a",
".d.d.e.r.z.J.J.I.Y.7.F.7.7.6.6.6.7.6.7.7#..x.Y.Y.G.G.1.1.1.1.G.1.G.1.1.1#m.1#f.1.1.1#f.1.1.1.1.1#f.1#f#u#x#x#L#k#h#T#s#k#x#y#u#L#P#B#B#P#z#h#k.I.Y.7.F.7.7.6.6.6.7.6.7.7#..x.Y.Y.G.G.1.1.1.1.G.1.G.1.1.1#m.1#f.1.1.1#f.1.1.1.1.1#f.1#f.1.1.1.G.H.I.K.J.z.m.d.d.d",
"Qt.g#Y.l.z.L.K.U.Z.6.6.6.6.7.6.7.6.6.6.7.1.G.G.G.1.1.1.G.1.G.1.1.1.1.G.1#m#f#m.1#f.1.1#f.1.G.1.1#f.1#u#x#x#x#p#k#k#T#h#k#u#y#u#z#P#B#Z#B#z#h#k.U.Z.6.6.6.6.7.6.7.6.6.6.7.1.G.G.G.1.1.1.G.1.G.1.1.1.1.G.1#m#f#m.1#f.1.1#f.1.G.1.1#f.1.1#f#m#m.Y.H.W.K.K.z.lQtQtQt",
"Qt.g#Y.l.z.L.M.W.Z.6.6.7.6.6.6.7.6.6.6.7#..G.1.G.G.G.1.G.1.1.1.1.1.0.G.G#m#m#m#m.1#f.1.G.1.G.1.2#y#u#u#u#x#x#p#k#k#T#s#T#y#X#u#B#B#Z#0#B#B#k.M.W.Z.6.6.7.6.6.6.7.6.6.6.7#..G.1.G.G.G.1.G.1.1.1.1.1.0.G.G#m#m#m#m.1#f.1.G.1.G.1.2.1#f.1.1#m.G.1.H.I.K.L.z.l.5QtQt",
".d.d.e.m.z.L.M.W.Z.6.6.6.7.6.6.6.7.F.7#..1.G.1.G.Y.Z.x.1.1.1.G.G.1.1.x.1.1#m#m#m.G.1.1.1.1.1.1#y#u#u#u#x#u#u#u#p#k#T#s#T#y#X#Z#Z#1#1#Z#x#u.L.M.W.Z.6.6.6.7.6.6.6.7.F.7#..1.G.1.G.Y.Z.x.1.1.1.G.G.1.1.x.1.1#m#m#m.G.1.1.1.1.1.1#f#f.1#f.1.1.x.Y.2.W.K.M.y.l.5QtQt",
".t.a.a.n.B.K.K.U.Z.7.6.6.6.7.7.7.Z.Y.1.x.G.1.1.Z#..7.7#..1.G.G.1#l#l.F.F.Y.G.1.1.1.1.1.1.1#X#X#y#u#u#x#x#u#u#u#x#x#x#x#y#X#X#1#1#2#2#Z#x#u.K.K.U.Z.7.6.6.6.7.7.7.Z.Y.1.x.G.1.1.Z#..7.7#..1.G.G.1#l#l.F.F.Y.G.1.1.1.1.1.1.1.1.G.1.G.1.G.O.F.F.F.Y.W.K.J.z.lQtQtQt",
".b.b#M.p#R.J.J.U.Z.6.6.7.6.6.6.7.1.G.1.1.G.G.G.Y.7.6.6.7.Z.G.G.Z#l.6.6.F.Y.G.G.1.1.G#F#F#X#y#x#x#x.G#Z#x#u#u#u#u#u#y#y#X#X#y#1#1#G#G#2#x#y#u.J.U.Z.6.6.7.6.6.6.7.1.G.1.1.G.G.G.Y.7.6.6.7.Z.G.G.Z#l.6.6.F.Y.G.G.1.1.G.1.G.1.G.1.1.1.G.G.Y.F.6.6.Y.V.K.L.z.lQtQtQt",
".c.b#M.p.C.M.J.V.Z.7.6.6.6.7.9.7.Z.G.1.G.G.G.G.1.7.9.7.7.x.G.G.O.6.6.6.7.x.G.1#f.1#F#F#y#x#y#y#u.1#Z#Z#2#x#x#u#u#y#y#y#X#X#y#1#G#F#F#2#x#y#u.J.V.Z.7.6.6.6.7.9.7.Z.G.1.G.G.G.G.1.7.9.7.7.x.G.G.O.6.6.6.7.x.G.1#f.1#f.1#f.1.1.1.1.1.G.G.Y.F.6.6.Y.V.K.K.z.k.g.4Qt",
".b.b.b.p.C.K.K.V.Z.6.6.7.7.7.7#..1.G.1.1.1.Z.1#..F.7.7#..Z.O.Z.Z.F.F#l.F.1#f#f.1.1#F#y#Z#Z#u#x.1.Y#Z#2#Z#2#a#2#u#y#y#X#X#X#y#2#G#F#F#G#2#u#Z.K.V.Z.6.6.7.7.7.7#..1.G.1.1.1.Z.1#..F.7.7#..Z.O.Z.Z.F.F#l.F.1#f#f.1.1.1#f.1.1.1.1.1.Y.Y.Y.F.6.p.o#..V.K.K.y.l.g.gQt",
".b.b.b.o.C.M.M.X.Z.7.6.7.Z.Z.1.Z.1.1.G.1#..7.7.F#..Y.1.Z.F.7.7#..Y.Y.Y.1.1.1.1#f#F#G#G#y#u#x.G.1#..F#Z#2#Z#Z#Z#F#2#2#X#X#X#Z#2#2#G#G#G#3#a#2.M.X.Z.7.6.7.Z.Z.1.Z.1.1.G.1#..7.7.F#..Y.1.Z.F.7.7#..Y.Y.Y.1.1.1.1#f#f.1#f.1#f.1.G.1#..F.F.9.E#4#4.9.C.J.J.z.mQtQtQt",
".b.b.b.o.C.K.M.X.Z.6.6.7.1.1.G.1.1.1.G.Z.7.9.6.7.1.1.G.Z.F.6.6.7.Y.G.G.1.1.1.G.1.1#f.1#2#x#x.G.Y#l.6.6#Z#Z#2#a#Z#Z#F#F#2#2#Z#1#2#G#G#3#0#Z#Z.M.X.Z.6.6.7.1.1.G.1.1.1.G.Z.7.9.6.7.1.1.G.Z.F.6.6.7.Y.G.G.1.1.1.G.1.1#f.1.1#f#m.G.Y#l.6.6#5#4.b.b.q.C.K.J.z.l.hQtQt",
".b.b.b.o.C.M.M.X.Z.6.9.7.Z.G.G.1.G.1.G.1.7.6.6.7.1.G.G.1.7.6.9.7.Y.G.1.1.1.1.1.1#f.1#f#2#3#2.G.1.F.6.6.9#4#Z#Z#a#a#Z#Z#F#F#6#0#0#0#0#P.o#F#a.M.X.Z.6.9.7.Z.G.G.1.G.1.G.1.7.6.6.7.1.G.G.1.7.6.9.7.Y.G.1.1.1.1.1.1#f.1#f#f#f.G.G.1.F.6.6.9#4.b.b.o.C.K.K.z.k.5.4Qt",
".a.a.a.r.C.M.M.W.1.7.7#..1.G.G.G.x.1.Z.Z#..7.7#.#..1.Z.Z.F.7.7.F.G.G.G.1.G.1.G.1.1#f.1#2#2.x.Y#..F.6.6#7#4.b.b#0#Z#a#a#Z#Z#A#6#8#L#P#0.r.C.M.M.W.1.7.7#..1.G.G.G.x.1.Z.Z#..7.7#.#..1.Z.Z.F.7.7.F.G.G.G.1.G.1.G.1.1#f.1.1.1.x.Y#..F.6.6#7#4.b.b.o.C.K.J.z.l.5QtQt",
".d.d.e.r.z.J.K.W.P.Z.Z.1.1.1.1.1.F.7.7.F#..Y.1#..F.F.7.F.Z.1.Y.1.1.1#f.1.1.1.1.1.G.1#2#2.F.F.F.F.6.7.6.9#9#9#9#9#A#Z#0#a#a#6#A#0#0#0#P#9#9#9#9#9.P.Z.Z.1.1.1.1.1.F.7.7.F#..Y.1#..F.F.7.F.Z.1.Y.1.1.1#f.1.1.1.1.1.G.1.G.G.F.F.F.F.6.7.6.9#4.b.b.n.C.J.J.B.l.g.gQt",
"Qt.g#Y.l.z.J.K.I.H.G.1.G.1.G.G.Z.F.6.6.F.Y.G.1.1.7.9.6.7.Z.G.G.G#f#f.1#f#f.G.1.1.1.1#2.Y.7.6.6.6#9#9#9#9#9#9#9#6#6#A#A#A#A#A#6#8#L#P#A#9#9#9#9#9#9#9#9#9.1.G.G.Z.F.6.6.F.Y.G.1.1.7.9.6.7.Z.G.G.G#f#f.1#f#f.G.1.1.1.1.G.Y.7.6.6.6.6.6.6#7#4.b.b.q.C.J.J.z.l.gQtQt",
"Qt.g#Y.l.z.M.M.W.H.G.G.1.G.G.G.1.7.6.6.7.Y.G.G.Y.F.6.6.7.x.G#f#f.1.1#f.1.1#f.1.G.1.G.G.Y.F.6#9#9#9#9#9#9#9#9#A#0#0#8#8#A#A#A#A#0a.#3#A#9#9#9#9#9#9#9#9#9#9#9.G.1.7.6.6.7.Y.G.G.Y.F.6.6.7.x.G#f#f.1.1#f.1.1#f.1.G.1.G.G.Y.F.6.6.6.6.6.6a#aa.b.b.n.C.J.J.z.l.g.gQt",
".d.d.e.m.z.M.M.I.H.O.Y.G.Y.Y.x#..F.6.6.F.Y.G.G.1.F.7.7#..1#f.1.1.1#f.1.1#f.1.1.1.Y.x.Y.Z.7#9#9#9#9#9#9#9#9#9#A#0#0#0#0#A#A#6#Aa.#3#8#A#9#9#9#9#9#9#9#9#9#9#9#9#..F.6.6.F.Y.G.G.1.F.7.7#..1#f.1.1.1#f.1.1#f.1.1.1.Y.x.Y.Z.7.6.6.6.F.F.F.6.q#4#4.9.C.J.K.B.m.d.d.d",
".t.aab.n.C.K.M.I.H.1.G.Y#..F.7.7.7.6.6.F.Y.G.G.Y.Y.Y.1.1.1.1.1#f#f.1#f.1.1.G.1.1#Q.7.7.7#9#9#9#9#9#9#9#9#9#9#d#A#0#0#A#A#A#A#6#8#8#0#3#a#3#9#9#9#9#9#9#9#9#9#9#9.7.6.6.F.Y.G.G.Y.Y.Y.1.1.1.1.1#f#f.1#f.1.1.G.1.1#Q.7.7.7.7.6.6.F#Q.Y.1#..9.o#7.F.V.K.K.B.n.a.a.a",
".b.b#M.p.C.K.M.I.H.1.G.1.7.6.6.6.6.6.6.F.1.1.G.1.G.G#f.1.1.1.1#f#f.1#f#f.1.G.G.Z.F.6.6#9#9#9#9#9#9#9#9#9#9#9#9#9#d#A#A#A#A#A#A#0#1#3#a#a#a#3#9#9#9#9#9#9#9#9#9#9#9.6.6.F.1.1.G.1.G.G#f.1.1.1.1#f#f.1#f#f.1.G.G.Z.F.6.6.6.6.6.6.F.Y.G.G.Y.F.6.6.Y.V.K.K.C.p.b.c.c",
".c.c#M.p.C.M.M#t.H.1.G.Y.7.6.6.7.6.6.6#l.T.G.1.G.G.1.G.G.1.1.1.1.G.G.1#f.G.G.G.Y.F.6.6#9#9#9#9#9#9#9#9#9#9#9#9#9#9#9#9#9#9#d#A#0a.#3#a#a#3#0#9#9#9#9#9#9#9#9#9#9#9.6.6#l.T.G.1.G.G.1.G.G.1.1.1.1.G.G.1#f.G.G.G.Y.F.6.6.6.6.6.6.F.Y.G.G.1.F.6.6.Y.V.K.K.C.p#M#M.c",
".a.a.a.n.H.I.I.C.0.Z.Y.Z.7.7.6.6.7.7.F#..Y.1.G.O.1.1.1.1.1.1#f.1.Y.Y.x.1.O.Y.Y.Z.F.6.6#9#9#9#9#9#9#9#9#9#9#9#9#9#9#9#9#9#9#d#A#A#A#A#A#A#A#d#9#9#9#9#9#9#9#9#9#9#9.7.F#..Y.1.G.O.1.1.1.1.1.1#f.1.Y.Y.x.1.O.Y.Y.Z.F.6.6.7.7.7.F.F.Y.O.Y#..6#7#7.F#R.I.I.2ac.a.a.t",
".#.d.ead.x.H.H.G.Z.F.7.7.7.7.6.7.Z.Y.O.Y.G.G.G.G.1.1.1.1.1.G.G.O#..7.F.F.7.F.F.7.6.6.7#9#9#9#9#9#9#9#9#9#9#9#9#9#9#9#9#9#9#9#9#9#9#9#9#9#9#9#9#9#9#9#9#9#9#9#9#9#9.Y.O.Y.G.G.G.G.1.1.1.1.1.G.G.O#..7.F.F.7.F.F.7.6.6.7.7#Q.O.Y.Z.F.F.F.9.E#4ae.p.Y#R#R.Tadaf.d.d",
".e.g.g.kag.G.G.1.7.7.6.7.6.6.7.7.Y.G.G.G.G.G.G.O.G.G.G.G.G.G.G.Y.F.6.6.6.6.6.6.6.7.6.6.F#9#9#9#9#9#9#9#9#9#9#9#9#9#9#9#9#9#9#9#9#9#9#9#9#9#9#9#9#9#9#9#9#9#9#9#9.Y.G.G.G.G.G.G.O.G.G.G.G.G.G.G.Y.F.6.6.6.6.6.6.6.7.6.6.F.O.O.G.O.F.6.6a#ae.b#Mah.F.G.O.w.k.4QtQt",
".e.e.e.kai.G.G.Z.7.7.6.6.6.7.6.7.O.G.G.G.1.G.G.G.G.G.G.G.1.G.G.Y.7.6.6.7.6.7.7.6.7.6.6.F.O#9#9#9#9#9#9#9#9#9#9#9#9#9#9#9#9#9#9#9#9#9#9#9#9#9#9#9#9#9#9#9#9#9#9.7.O.G.G.G.1.G.G.G.G.G.G.G.1.G.G.Y.7.6.6.7.6.7.7.6.7.6.6.F.O.G.G.Y.7.7.6.9ae.b.bah.F.0.0.w.k.4QtQt",
".e.f.daj.v#..7.7.v.n.oak#7.6#5#5.vagai.w.w.F#l.w.wai.w.w.F.w.F.7.9#5#5#5#7#7#7#7#7#7#7.9.7ai#9#9#9#9#9#9#9#9#9#9#9#9#9#9#9#9#9#9#9#9#9#9#9#9#9#9#9#9#9#9#9#9#5#5.vagai.w.w.F#l.w.wai.w.w.F.w.F.7.9#5#5#5#7#7#7#7#7#7#7.9.7aiag.v.v.oalac#4.a.a.Sam.F.T.van.4QtQt",
".t.a.a.tao.E.E.Sapaqajar#4aoao.uad.k.jad.S.E.E.Sad.k.k.j.Saa.q.Saaaaaaaaaaaaaaaaaaaaaa.uad.k.k.j#9#9#9#9#9#9#9#9#9#9#9#9#9#9#9#9#9#9#9#9#9#9#9#9#9#9#9#9#4aoao.uad.k.jad.S.E.E.Sad.k.k.j.Saa.q.Saaaaaaaaaaaaaaaaaaaaaa.uad.k.k.j.jajaj.i.i.d.d.#.u.E.q.u.fQtQtQt",
".b.c.c.c.b.b.bab.e.e.e.e.a.b.c.a.dQt#Yaf.a.b.b.a.d#Y.g.d.a.b.b.b.c.c.t.b.c.b.b.c.b.b.c.a.d.g.g.g.gQtQtQt#9#9#9#9#9#9#9#9#9#9#9#9#9#9#9#9#9#9#9#9.e.e.e.e.a.b.c.a.dQt#Yaf.a.b.b.a.d#Y.g.d.a.b.b.b.c.c.t.b.c.b.b.c.b.b.c.a.d.g.g.g.gQtQtQt.h.h.h.d.a.b.b.a.dQtQtQt",
".c.c.c.c.b.c.b.t.#.e.e.f.a.c.c.a.dQtQt.d.a#M.b.a.d.hQt.d.a.c.b.b.b.c.b.b.b.b.c.b.b.b.b.a.d.g.gQtQtQtQtQtQt.h.h.d.a.c.b.a.d.h.hQt.c.c.c.c.b.c.b.t.#.e.e.f.a.c.c.a.dQtQt.d.a#M.b.a.d.hQt.d.a.c.b.b.b.c.b.b.b.b.c.b.b.b.b.a.d.g.gQtQtQtQtQtQt.h.h.d.a.c.b.a.d.h.hQt",
".b.b.c.b.b.c.b.t.e.e.g.e.t.c.c.a.dQtQt.d.a.c.b.a.d.hQt.d.a.c.c.c.c.b.c.b.c.c.b.c.c.b.b.t.dQtQtQtQtQtQtQtQtQt.h.d.a.c.c.a.dQtQtQt.b.b.c.b.b.c.b.t.e.e.g.e.t.c.c.a.dQtQt.d.a.c.b.a.d.hQt.d.a.c.c.c.c.b.c.b.c.c.b.c.c.b.b.t.dQtQtQtQtQtQtQtQtQt.h.d.a.c.c.a.dQtQtQt"};
