/* XPM */
static char *dummy[]={
"64 128 139 2",
"ad c #000000",
"#u c #001111",
"#v c #002b2b",
"#T c #005477",
"#B c #005e7f",
"#y c #007faa",
"#1 c #00e200",
"#p c #080808",
"ab c #0f0e11",
"#S c #190000",
"a. c #190700",
"#z c #1e424f",
"#7 c #212828",
"af c #260c0c",
"ah c #26252c",
"ae c #35353a",
"ai c #35383f",
".2 c #383f4a",
".g c #383f4b",
"#i c #383f4c",
".1 c #38404c",
".e c #393f4b",
"Qt c #3a404b",
".h c #3a404c",
"#H c #3d4046",
".d c #3d4047",
"#C c #3d5358",
".f c #3f4148",
".i c #404248",
"#W c #424349",
".# c #434245",
"#Z c #43434a",
"#Q c #44434a",
"#l c #444448",
".j c #44444b",
"#A c #46413d",
".a c #46413e",
"#L c #470000",
".s c #474242",
"#Y c #474548",
".k c #47464d",
"#E c #494649",
"#K c #4a2121",
"#a c #4a4138",
".b c #4a423a",
".t c #4a433e",
"#0 c #4b4440",
".l c #4b4951",
".c c #4c423a",
".m c #4d484c",
".u c #4e4541",
"#o c #4f443c",
"#G c #50443c",
"#x c #50453d",
"#X c #51453d",
".Q c #514743",
"#5 c #51545b",
"#N c #53463f",
"#8 c #535353",
".E c #54473f",
"#D c #544845",
".n c #544946",
".q c #554840",
".r c #554a47",
"ac c #562f1d",
".p c #584a43",
".o c #584a44",
"#U c #584a47",
".D c #584d4d",
".v c #5a4d4b",
"#q c #5b4b44",
"#R c #5b4c48",
"#s c #5c4b43",
"#w c #5d4b43",
".5 c #5e4d45",
"#V c #5e4d48",
"#O c #5f4f4d",
".3 c #614d45",
".w c #61514f",
".9 c #635049",
"#3 c #637a82",
".4 c #644f48",
"#I c #645352",
".x c #655451",
".F c #66514a",
".6 c #67524b",
".R c #67544f",
"#c c #68524b",
".X c #68534c",
"#b c #69534d",
".W c #69544d",
".O c #6c564f",
".Z c #6c5650",
".y c #6c5959",
"#f c #6d3300",
"#. c #6d5650",
".8 c #6e5651",
".Y c #6e5751",
".G c #6f5750",
".0 c #6f5a56",
".P c #705853",
".A c #705c5c",
".z c #705c5d",
".B c #715c5b",
"#6 c #72472d",
".H c #725a55",
"#e c #735a54",
".N c #745b56",
".C c #745d59",
"#2 c #750000",
"#d c #755c57",
".S c #785e5a",
"#r c #797a7c",
".V c #7a5f5b",
".T c #7a605b",
".U c #7a605c",
".7 c #7c615d",
"## c #7d625e",
".I c #7e625e",
".M c #826663",
".K c #836663",
".L c #836764",
"ag c #838384",
"#F c #84393a",
".J c #846763",
"a# c #870000",
"#g c #996314",
"#n c #9e99a6",
"aa c #adb2af",
"#4 c #af001c",
"#J c #c46555",
"#M c #c91c23",
"#m c #ccd3d6",
"#h c #d19e30",
"#t c #e5f4ff",
"#9 c #ef0c23",
"#P c #f78c6b",
"#k c #f9edd6",
"#j c #fcd670",
"QtQtQtQtQtQtQtQtQtQtQtQtQtQtQtQtQtQtQt.#.a.b.b.b.b.b.b.c.b.b.b.b.b.b.b.a.d.e.f.g.f.e.h.hQtQt.f.gQt.f.e.h.f.gQtQtQtQt.f.d.a.c.c.b",
"QtQtQtQtQtQtQt.gQt.gQt.g.gQt.g.g.g.g.g.d.a.b.b.b.b.b.b.b.b.b.b.b.b.b.b.a.e.e.g.g.g.g.e.gQt.g.g.g.g.g.e.e.g.g.g.g.gQt.g.d.a.c.c.c",
".h.hQtQtQt.g.gQt.gQtQt.g.g.g.g.g.g.g.g.d.a.b.b.b.b.b.b.b.b.b.b.b.b.b.b.a.e.g.g.g.g.g.g.g.g.g.g.g.g.g.e.e.g.g.g.g.g.g.g.d.a.c.c.c",
".d.d.d.i.j.j.k.k.k.l.l.l.m.l.l.m.l.l.l.m.n.o.p.o.o.o.q.p.o.o.o.o.o.o.p.n.r.l.l.l.l.l.l.l.l.l.l.l.l.l.l.l.l.l.l.l.k.k.k.j.s.a.t.a",
".t.a.a.u.v.w.w.x.y.z.z.z.y.z.z.z.z.A.A.B.B.C.C.C.C.C.C.C.C.C.C.C.C.C.C.C.z.A.A.A.y.z.z.z.z.z.z.y.A.A.z.z.z.z.z.y.x.w.w.D.j.d.d.d",
".c.b.b.E.F.G.G.H.I.J.J.K.L.L.L.L.K.J.K.K.J.M.M.M.M.M.L.M.M.M.M.M.M.M.M.L.J.J.K.J.K.K.L.M.J.L.L.K.K.K.K.J.K.J.L.I.N.G.G.w.k.gQtQt",
".c.c.b.E.F.G.O.H.I.J.K.K.K.K.J.J.L.K.K.K.K.K.M.M.M.M.M.M.M.M.M.M.M.M.M.M.K.K.K.K.K.K.K.K.K.K.K.K.K.M.M.K.K.K.K.I.P.O.O.w.kQtQt.h",
".a.a.a.Q.R.H.H.N.S.T.T.T.T.T.T.T.U.V.S.V.U.I.U.I.V.V.V.V.V.V.V.V.V.V.V.V.V.I.V.I.I.U.I.U.I.I.I.U.V.V.V.U.I.I.U.S.N.N.H.x.k.g.gQt",
".d.d.d.m.y.I.I.S.G.W.W.W.W.W.W.W.X.X.W.G.Y.H.H.P.Z.X.X.X.X.X.X.X.X.X.W.G.H.H.H.H.H.H.H.H.H.H.H.0.Z.X.X.Z.G.H.H.H.V.M.I.y.k.g.g.f",
"Qt.1.2.l.z.J.K.T.X.3.3.3.3.3.3.3.3.3.3.4.X.G.G.x.4.3.4.3.4.3.4.3.3.3.3.4.x.Z.G.W.G.Z.Z.Z.Z.Z.Z.X.4.3.3.4.X.Z.G.H.V.M.K.B.l.g.e.e",
"QtQt.2.l.z.J.K.T.W.3.3.3.3.3.3.3.3.3.5.4.Z.G.Z.X.4.3.5.3.3.3.3.3.3.3.3.4.6.G.Z.Z.Z.Z.Z.Z.Z.Z.G.x.4.3.5.4.Z.Z.W.H.7.K.J.B.l.e.e.e",
"Qt.2Qt.l.B.J.K.T.W.3.3.3.4.3.3.4.4.F.4.F.6.Z.Z.6.4.3.4.3.3.4.3.4.4.4.4.F.Z.Z.G.Z.Z.Z.G.Z.Z.Z.G.Z.F.4.4.F.Z.Z.G.0.I.J.K.B.l.e.e.h",
"Qt.2.2.l.z.K.K.T.W.3.3.4.3.3.3.F.6.X.Z.6.F.F.4.4.4.4.3.3.3.4.3.4.X.Z.x.W.G.G.G.Z.Z.G.Z.Z.8.Z.Z.Z.W.X.Z.Z.Z.Z.Z.H.I.K.L.z.l.g.gQt",
"QtQt.2.l.z.J.K.T.W.3.3.3.3.4.3.F.Z.G.G.Z.4.3.3.4.3.3.3.4.3.3.3.4.X.G.G.Z.Z.G.Z.Z.Z.Z.G.Z.Z.8.8.Z.G.G.Z.Z.G.Z.Z.H.U.K.L.z.l.g.gQt",
"Qt.2.2.l.z.K.K.U.W.3.3.3.3.3.3.F.Z.G.G.W.F.3.3.3.3.3.3.3.3.4.3.4.Z.G.G.Z.G.Z.Z.Z.Z.Z.Z.Z.Z.8.Z.8.Z.Z.G.Z.Z.Z.G.H.I.K.L.z.l.e.g.f",
"QtQt.2.l.z.K.K.U.W.3.3.3.4.F.4.F.X.X.Z.X.4.3.3.4.3.4.3.4.4.F.4.6.X.X.Z.Z.Z.Z.Z.G.G.Z.G.Z.8.Z.8.Z.Z.G.Z.Z.Z.G.Z.H.U.K.L.y.l.e.e.e",
"Qt.gQt.m.y.L.L.U.W.3.3.4.6.W.Z.6.F.9.4.4.4.3.4.3.5.3.4.4.6.Z.Z.6.F.F.F.F.x#..Z.8.Z.8.Z.8.8.Z.Z.8.G.Z.Y.Z.Z.Z.Z.H.U.M.L.z.l.g.gQt",
"QtQtQt.l.z.L.K.U.W.3.3.F.W.G.G.W.F.3.4.3.3.3.4.3.4.3.3.4.X.G.G.X.4.3.5.F.Z#.#..Z.8.Z.8.Z.Z.Z.8.Z.Z.Z.Z.8.Z.Z.Z.H.I.M.M.z.l.gQtQt",
"Qt.g.g.l.z.K.K.U.W.3.3.F.Z.G.G.Z.4.3.3.3.3.4.3.3.4.3.3.4.Z.Y.Y.Z.4.3.3.9.W.Y.Z.8.Z.8.8.Z.8.Z.Z.8.Z.8.Z.Y.G.Z.Z.H.U.M.M.z.m.g.gQt",
"Qt.g.g.k.z.K.K.U.W.4.4.F.X.W.Z.6.4.3.4.3.3.3.3.4.4.4.4.6.X.X.Z.X.F.4.9.F.Z.Z.8.Z.Z.Z.Z.8.Z.8.8.Z.Z.Z.8.Z.Z.Z.Z.H##.M.M.z.l.gQtQt",
"QtQtQt.l.z.K.K.I.Y.W.W.W.F.F.4.F.3.4.3.4.4.3.3.F.6.Z.X.6.F.4.4.F.W.W.W.W.Z.8.Z.8.8.Z.8.Z.8.Z.8.8.Y.Z.8.Z.8.Z.G.H.I.K.J.z.l.g.gQt",
"QtQtQt.l.z.K.K.U.H.G.Y.Z.4.3.3.3.3.3.3.3.3.3.3.9.Z.G.G.Z.4.3.3.F.W.G.Y.Y.Z.8.8.Z.Z.8.Z.8.Z.8.Z.Z.Z.8.Z.8.8.Z.W.H.I.K.J.z.l.e.g.h",
"QtQt.2.k.z.K.K.I.H.G.G.W.4.3.3.3.4.3.4.3.3.3.3.F.W.G.G.Z.F.5.3.4.W.Z.G.G.Z.Z.Z.8.Z.8.8.Z.8.Z.Z.8.Z.8.Z.Z.Z.8.Z.H.T.K.J.z.l.g.g.h",
"Qt.2Qt.l.z.K.K.U.P.W.W.X.F.4.9.F.4.3.3.3.4.F.4.F.X.Z.X.X.F.4.4.9.Z.G.Z.G.8.Z.8.Z.8.Z.8.Z.Z.8.Z.Z.Y.Z.8.Z.Z.Z.Z.B.I.K.J.z.m.d.d.d",
"QtQt.2.k.z.J.J.U.O.4.4.F.W.W.O.W.F.3.3.F.6.W.Z.X.6.F.4.F.X.Z.W.Z.Z.Z.Z.Z.Z.Z.Z.Z.Z.8.Z.Z.8.Z.Z.8.8.Z.Z.Z.Z.Z.Z.H.U.K.K.B.n.a.a.t",
"Qt.1Qt.l.z.L.K.T.W.3.3.4.W.Y.G.W.4.3.3.F.Z.G.G.X.4.3.3.4.X.G.G.G.Z.Z.G.Z.0.Z.G.Z.8.Z.Z.8.Z.8.8.Z.Z.Z.8.G.G.Z.Z.H.U.K.K.C.p.c#a.b",
"Qt.1.1.l.y.L.L.U#b.3.3.4.O.Y.Y.W.F.3.3.4.Z.G.G.W.F.3.3.4.x.G.8.8.G.Z.Z.Z.Z.Z.Z.Z.Z.8.Z.Z.8.Z.Z.8.8.Z.Z.Z.Z.Z.Z.H.I.K.K.H.p#a.b.b",
".d.d.d.m.z.K.L.U.W.4.4.F.W.W.W#c.4.3.3.4.X.W.W.X.F.4.4.6.Z.8.Z.Z.Z.Z.G.Z.G.Z.G.Z.8.Z.8.8.Z.8.8.Z.Z.8.Z.G.Z.Z.Z.H.I.K.K.B.p.b.b.b",
".a.a.a.n.B.J.L.U.P.W.W.W.F.F.F.4.3.3.3.4.F.4.F.F.6.W.Z.Z.Z.Z.Z.8#..Z.Z.8.Z.G.Z.Z.8.Z.8.Z.8.Z.8.Z.8.Z.Z.8.Z.Z.Z.H.I.M.M.C.p.b.b.b",
".b.b#a.p#d.K.L.U#e.Y.Y.W.F.3.3.4.3.4.3.4.3.3.3.4.Z.G.G.Z.Z.Z.G.Z#..Z.8.Z.Z.Z.Z.8.Z.8.Z.8.Z.8.Z.8.Z.8.8.Z.Z.Z.Z.H.U.M.M.C.p.b.b.b",
".b.b.b.p#d.K.K.I.H.Y.O.W.9.3.3.3.3.3.4.3.3.3.3.F.X.Z.Z.Z.Z.Z.Z.Y#..8.Z.8.Z.Z.8.Z.Z.Z.Z.8.Z.8.8.Z.Z.8.Z.8.Z.Z.G.H.I.M.M.C.q.b.b.b",
".c.b.b.p#d.K.K.U.H.O.G.W.F.3.3.3.4.3.3.3.3.4.3.F.Z.G.G.Z.Z.Z.Z.Z.8.Z.8.Z.8.8.Z.8.8.Z.8.Z.8.Z.Z.Z.8.Z.8.Z.G.Z.Z.H.U.M.M.C.o#a.b.b",
".b.b.b.p.B.K.K.I.H.Z.G.W.4.4.3.4.3.4.4.3.3.3.3.4.Z.8.8.8.G.Z.Z.Y.Z.8.Z.8.Z.Z#.#..Z.8.Z.8.Z.Z.Z.8.Z.8.Z.8.Z.Z.Z.H.U.M.M.C.o.b.b.b",
".c.b#a.p.N.K.K.U.H.Z.G.X.4.3.3.3.3.3.3.3.4.3.4.4.x.8.Z.Z.Z.Y.Z.Z.8.Z.8#..8.Z#.#..8.Z.8.Z.Z.8.8.Z.8.Z.Z.Z.G.Z.Z.H.U.M.K.C.o.b.b.b",
".c#a.b.p.C.K.K.I.H.G.G.Z.F.3.3.3.4.3.3.4.3.3.3.F.X.G.8.Z.8.Z.Z.Z.Z.Z#.#.#.#.#.#..Z.8.8.Z.8.Z.8.Z.8.Z.8.Z.Z.Z.Z.H##.M.M.C.p.b.b.c",
".a.a.a.n.B.K.K.V.0.X.W.X.4.3.4.3.3.3.3.4.4.4.4.6.W.G.8.Z.8#f#f#g#g#g#g#.#g#h#h#g.Z.8.Z.8.Z.8.Z.8.Z.8.Z.8.Z.G.Z.H##.M.M.z.n.a.a.a",
".d.d.e.r.z.J.J.I.W.4.F.4.4.3.3.3.4.3.4.4.6.x.W.W.G.G.Z#f#g#g#g#g#g#g#g#g#g.Z.8.Z#g.Z.8.Z.Z.Z.Z.Z.8.Z.8.Z.Z.Z.G.H.I.K.J.z.m.d.d.d",
"Qt.g#i.l.z.L.K.S.X.3.3.3.3.4.3.4.3.3.3.4.Z.G.G.G.Z.Z#f#g#g#h#h#g#g#h#h#h#h#g#..Z.8.Z.Z.8.Z.G.Z.Z.8.Z.Z.8#.#..W.H.U.K.K.z.lQtQtQt",
"Qt.g#i.l.z.L.M.U.X.3.3.4.3.3.3.4.3.3.3.4.6.G.Z.G.G#f#g#g#h#h#g#h#h#j#h#j#j#h#g#..Z.8.Z.G.Z.G.Z.0.Z.8.Z.Z#..G.Z.H.I.K.L.z.l.2QtQt",
".d.d.e.m.z.L.M.U.X.3.3.3.4.3.3.3.4.F.4.6.Z.G.Z.G#f#g#g#h#h#j#k#j#j#j#k#h#j#j#h#g.G.Z.Z.Z.Z.Z.Z.8.8.Z.8.Z.Z.x.W.0.U.K.M.y.l.2QtQt",
".t.a.a.n.B.K.K.S.X.4.3.3.3.4.4.4.X.W.Z.x.G.Z.Z.X#f#g#f#h#j#k#j#h#h#j#k#k#k#h#g#g#g.Z.Z.Z.Z.Z.G.Z.G.Z.G.O.F.F.F.W.U.K.J.z.lQtQtQt",
".b.b#a.p#d.J.J.S.X.3.3.4.3.3.3.4.Z.G.Z.Z.G.G.G#f#g#f#g#h#k#k#h#k#k#j#k#j#k#j#h#g#g.G.Z.G.Z.G.Z.Z.Z.G.G.W.F.3.3.W.T.K.L.z.lQtQtQt",
".c.b#a.p.C.M.J.T.X.4.3.3.3.4.5.4.X.G.Z.G.G.G.G#f#f#f#h#j#k#h#k#k#j#k#k#h#k#h#j#h#g.8.Z.8.Z.Z.Z.Z.Z.G.G.W.F.3.3.W.T.K.K.z.k.g.1Qt",
".b.b.b.p.C.K.K.T.X.3.3.4.4.4.4.6.Z.G.Z.Z.Z.X#f#f#f#g#h#h#k#h#k#j#j#k#j#j#h#h#j#h#g.Z.8.Z.Z.Z.Z.Z#l#l#l.F.3.p.o.6.T.K.K.y.l.g.gQt",
".b.b.b.o.C.M.M.V.X.4.3.4.X.X.Z.X.Z.Z.G.Z.6.4.4.F#g#h#f#g#j#h#j#j#j#k#j#j#h#g#j#h#f.Z.8.Z.8.Z.G#l#m#n#l.5.E#o#o.5.C.J.J.z.mQtQtQt",
".b.b.b.o.C.K.M.V.X.3.3.4.Z.Z.G.Z.Z.Z.G.X.4.5.3.4#f#f#g#g#h#h#j#j#h#j#j#j#h#g#h#h#f.8.Z.Z.8#.#p#m#p#m#l#q#o.b.b.q.C.K.J.z.l.hQtQt",
".b.b.b.o.C.M.M.V.X.3.5.4.X.G.G.Z.G.Z.G.Z.4.3.3#f#f#g#g#g#h#g#h#j#h#j#j#h#g#g#h#l#l#l#p.8.8#p#l#n#m#l.3.5#o.b.b.o.C.K.K.z.k.2.1Qt",
".a.a.a.r.C.M.M.U.Z.4.4.6.Z.G.G.G.x.Z.X.X.6.4.4.6.6#f#g#g#g#g#h#j#h#h#h#l#l#n#m#l#p.8.Z.Z#p#n#r#p.F.3.3#s#o.b.b.o.C.K.J.z.l.2QtQt",
".d.d.e.r.z.J.K.U.P.X.X.Z.Z.Z.Z.Z.F.4.4.F.6.W.Z.6.F.F#g#f#g#g#f#h#h#h#l#l#n#t#l#p.G.Z.G#p#l#l#p.F.3.4.3.5#o.b.b.n.C.J.J.B.l.g.gQt",
"Qt.g#i.l.z.J.K.I.H.G.Z.G.Z.G.G.X.F.3.3.F.W.G.Z.Z.4#u#f#g#f#g#f#g#h#l#r#m#t#m#p.Z.Z.Z#p#l#n#p.3.3.3.3.3#s#o.b.b.q.C.J.J.z.l.gQtQt",
"Qt.g#i.l.z.M.M.U.H.G.G.Z.G.G.G.Z.4.3.3.4.W.G.G.W#u#v#u#v#f#f#g#f#l#r#m#t#m#l#v#v.Z#l#l#n#l.3.3.3.3.3.3#w#x.b.b.n.C.J.J.z.l.g.gQt",
".d.d.e.m.z.M.M.I.H.O.W.G.W.W.x.6.F.3.3.F.W.G.G#y#z#v#u#v#v#f#f#l#l#m#t#t#r#p#p#p#r#n#l#l#p.3.3.3.F.F.F.3.q#o#o.5.C.J.K.B.m.d.d.d",
".t.a#A.n.C.K.M.I.H.Z.G.W.6.F.4.4.4.3.3.F.W.G.G#v#B#z#u#v#z#z#f#l#n#t#t#r#l#r#r#r#l#r#n#p.4.3.3.F#c.W.Z.6.5.o#s.F.T.K.K.B.n.a.a.a",
".b.b#a.p.C.K.M.I.H.Z.G.Z.4.3.3.3.3.3.3.F.Z.Z.G#v#z#z#v#u#v#z#z#n#t#t#m#l#m#n#l#l#r#n#n#p.3.3.3.F.W.G.G.W.F.3.3.W.T.K.K.C.p.b.c.c",
".c.c#a.p.C.M.M##.H.Z.G.W.4.3.3.4.3.3.3.9.R.G#v#z#v#u#u#u#v#z#l#t#t#t#r#t#n#p#p#p#l#m#r.3.3.3.3.F.W.G.G.Z.F.3.3.W.T.K.K.C.p#a#a.c",
".a.a.a.n.H.I.I.C.Y.X.W.X.4.4.3.3.4.4.F.6.W.Z#v#C#C#z#u#u#v#l#m#t#n#n#t#p#p#p#p#p#t#n#p.4.4.4.F.F.W.O.W.6.3#s#s.F#d.I.I.0#D.a.a.t",
".#.d.e#E.x.H.H.G.X.F.4.4.4.4.3.4.X.W.O.W.G.G#F#v#v#v#u#u#l#n#t#m#r#m#r#p#p#p#p#n#m#r#p#p#p.O.W.X.F.F.F.5.E#o#G.p.W#d#d.R#E#H.d.d",
".e.g.g.k#I.G.G.Z.4.4.3.4.3.3.4.4.W.G.G.G.G.G#F#J#K#v#L#L#r#t#t#n#l#m#n#p#p#p#n#t#p#p#l#p#M.O.G.O.F.3.3#w#G.b#a#N.F.G.O.w.k.1QtQt",
".e.e.e.k#O.G.G.X.4.4.3.3.3.4.3.4.O.G.G.G.Z#F#J#P#F#K#L#l#n#t#t#l#t#n#p#n#r#t#m#l#l#r#l#p#p.G.G.W.4.4.3.5#G.b.b#N.F.Y.Y.w.k.1QtQt",
".e.f.d#Q.v.6.4.4.v.n.o#R#s.3#q#q.v#I#O.w.w#F#P#P#F#S#S#r#m#t#r#t#t#p#m#n#m#n#r#l#p#T#l#M#p#O#I.v.v.o#U#D#o.a.a.Q#V.F.R.v#W.1QtQt",
".t.a.a.t#X.E.E.Q#Y#Z#Q#0#o#X#X.u#E.k.j#E.Q#K#J#F#S#L#l#r#m#l#l#t#p#t#t#n#l#p#l#p#T#1#r#p#E.k.k.j.j#Q#Q.i.i.d.d.#.u.E.q.u.fQtQtQt",
".b.c.c.c.b.b.b#A.e.e.e.e.a.b.c.a.dQt#i#H.a#K#K#S#L#2#l#r#l#r#t#p#t#t#n#l#p#p#l#p#r#r#p#3.d.g.g.g.gQtQtQt.h.h.h.d.a.b.b.a.dQtQtQt",
".c.c.c.c.b.c.b.t.#.e.e.f.a.c.c.a.dQtQt.d.a#K#L#L#2#l#r#n#t#t#p#t#l#L#4#4#p#r#r#5#p#v#6#L.d.g.gQtQtQtQtQtQt.h.h.d.a.c.b.a.d.h.hQt",
".b.b.c.b.b.c.b.t.e.e.g.e.t.c.c.a.dQtQt.d.a#L#L#2#l#n#m#t#t#p#t#l#4#L#L#p#l#l#p#L#L#L#L.t.dQtQtQtQtQtQtQtQtQt.h.d.a.c.c.a.dQtQtQt",
"QtQtQtQtQtQtQtQtQtQtQtQtQtQtQtQtQtQtQt.##L#L#2#l#n#t#t#t#p#t#t#4#2#L#L#L#4#4#2#2#L#L#7.hQtQt.f.gQt.f.e.h.f.gQtQtQtQt.f.d.a.c.c.b",
"QtQtQtQtQtQtQt.gQt.gQt.g.gQt.g.g.g.g.g#7#L#l#n#m#t#t#t#p#t#t#l#4#2#4#L#L#L#L#2#2#L#7#8#7Qt.g.g.g.g.g.e.e.g.g.g.g.gQt.g.d.a.c.c.c",
".h.hQtQtQt.g.gQt.gQtQt.g.g.g.g.g.g.g#8#7#r#t#t#t#m#l#p#t#t#n#9#4#2#4#4#L#L#L#L#L#L#7#8#7.g.g.g.g.g.g.e.e.g.g.g.g.g.g.g.d.a.c.c.c",
".d.d.d.i.j.j.k.k.k.l.l.l.m.l.l.m.l.l#8#n#t#t#n#p#p#p#l#t#m#l#9#4#2#2#4#9#2#2#2#L#L#L#L#L.l.l.l.l.l.l.l.l.l.l.l.l.k.k.k.j.s.a.t.a",
".t.a.a.u.v.w.w.x.y.z.z.z.y.z.z.z.z.A#r#t#t#n#p#pa.#p#m#m#l#9#9#4#2#2#4#4#L#2#4#4#L#L#L#L#L#L.z.y.A.A.z.z.z.z.z.y.x.w.w.D.j.d.d.d",
".c.b.b.E.F.G.G.H.I.J.J.K.L.L.L.L.K#l#m#t#n#p#p#2#p#p#t#n#9#9#9#4#2#2#4#4#9#L#2#4#4#L#L#L#L#L#L.K.K.K.K.J.K.J.L.I.N.G.G.w.k.gQtQt",
".c.c.b.E.F.G.O.H.I.J.K.K.K.K.J.J.L#m#t#n#p#p#p#p#n#t#n#4#9#9#9#4#2a##4#4#9#9#L#2#4#4#9#L#L#L#L#L.K.M.M.K.K.K.K.I.P.O.O.w.kQtQt.h",
".a.a.a.Q.R.H.H.N.S.T.T.T.T.T.T.T.U#t#m#r#p#p#p#n#t#m#l#4#9#9#9#4#2#2#2#4#4#9aa#L#2#4#4#9.I#L#L#L#L.V.V.U.I.I.U.S.N.N.H.x.k.g.gQt",
".d.d.d.m.y.I.I.S.G.W.W.W.W.W.W.W#l#t#m#r#r#n#t#t#m#l#r#r#9#9#9#4#2#2#2#raaaa#8#8#L#2#L#4#9.H#L#L#L.X.X.Z.G.H.H.H.V.M.I.y.k.g.g.f",
"Qt.1.2.l.z.J.K.T.X.3.3.3.3.3.3.3#r#t#m#m#m#t#t#n#l#7#7#7aaaa#r#8#8#r#r#8#8#8aaaaaa#L#2#L#4#9.Z#L#L#8.3.4.X.Z.G.H.V.M.K.B.l.g.e.e",
"QtQt.2.l.z.J.K.T.W.3.3.3.3.3.3#l#n#t#t#t#t#n#l#l#r#r#r#r#7#7#7#7#7#7#7#raaaa.Z.Z.Z.Z#L#2#4#4aa#L#L#L#8.4.Z.Z.W.H.7.K.J.B.l.e.e.e",
"Qt.2Qt.l.B.J.K.T.W.3.3.3.4.3.3#l#m#t#m#m#r#l.Z.6.4abac#6aaaa#r#8#8#r#rababab.G.Z.Z.Z.G#L#7.Zaa#8#L.4#8.F.Z.Z.G.0.I.J.K.B.l.e.e.h",
"Qt.2.2.l.z.K.K.T.W.3.3.4.3.3#l#r#m#n#r#l.F.Fadadadababae#5ababadafac#6#6acabadadadad.Z#8#L#7agaa#8#5#8.Z.Z.Z.Z.H.I.K.L.z.l.g.gQt",
"QtQt.2.l.z.J.K.T.W.3.3.3.3.4#l#n#r#ladadadadadadadabacababacabadabahahahahabadadadadadad#8agagaa.G#8#8.Z.G.Z.Z.H.U.K.L.z.l.g.gQt",
"Qt.2.2.l.z.K.K.U.W.3.3.3.3.3.3.Fadadadadadadadadadabab#6#6abahad#pabababab#padadadadadadad#8agaa.Z.Z.G.Z.Z.Z.G.H.I.K.L.z.l.e.g.f",
"QtQt.2.l.z.K.K.U.W.3.3.3.4.F.4adadadadadadadadadadabacaeaeacahadababababababadadadadadadadadadadad.G.Z.Z.Z.G.Z.H.U.K.L.y.l.e.e.e",
"Qt.gQt.m.y.L.L.U.W.3.3.4.6.Wadadadadadadadadadadababae#6#6aiahahabahaeaeahabadadadadadadadadadadadad.Y.Z.Z.Z.Z.H.U.M.L.z.l.g.gQt",
"QtQtQt.l.z.L.K.U.W.3.3.F.Wadadadadadadadadadadadababahae#8aeahahabahaeaeaeabadadadadadadadadadadadadad.8.Z.Z.Z.H.I.M.M.z.l.gQtQt",
"Qt.g.g.l.z.K.K.U.W.3.3.F.Zadadadadadadadadadadadabahae#5ag#5aeahad#pabab#padadadadadadadadadadadadadad.Y.G.Z.Z.H.U.M.M.z.m.g.gQt",
"Qt.g.g.k.z.K.K.U.W.4.4.F.Xadadadadadadadadadadad#pah#5agagag#5ahadadadadadadadadadadadadadadadadadadad.Z.Z.Z.Z.H##.M.M.z.l.gQtQt",
"QtQtQt.l.z.K.K.I.Y.W.W.W.Fadadadadadadadadadadadadabae#5#5#5ahadadadadadadadadadadadadadadadadadadadad.Z.8.Z.G.H.I.K.J.z.l.g.gQt",
"QtQtQt.l.z.K.K.U.H.G.Y.Z.4.3adadadadadadadadadadadadadadadadadadadadadadadadadadadadadadadadadadadad.Z.8.8.Z.W.H.I.K.J.z.l.e.g.h",
"QtQt.2.k.z.K.K.I.H.G.G.W.4.3.3adadadadadadadadadadadadadadadadadadadadadadadadadadadadadadadadadad.8.Z.Z.Z.8.Z.H.T.K.J.z.l.g.g.h",
"Qt.2Qt.l.z.K.K.U.P.W.W.X.F.4.9.Fadadadadadadadadadadadadadadadadadadadadadadadadadadadadadadadad.Y.Z.8.Z.Z.Z.Z.B.I.K.J.z.m.d.d.d",
"QtQt.2.k.z.J.J.U.O.4.4.F.W.W.O.W.F.3adadadadadadadadadadadadadadadadadadadadadadadadadadadad.Z.8.8.Z.Z.Z.Z.Z.Z.H.U.K.K.B.n.a.a.t",
"Qt.1Qt.l.z.L.K.T.W.3.3.4.W.Y.G.W.4.3.3.F.Z.Gadadadadadadadadadadadadadadadadadadadad.Z.8.Z.8.8.Z.Z.Z.8.G.G.Z.Z.H.U.K.K.C.p.c#a.b",
"Qt.1.1.l.y.L.L.U#b.3.3.4.O.Y.Y.W.F.3.3.4.Z.G.G.W.F.3.3.4.x.G.8.8.G.Z.Z.Z.Z.Z.Z.Z.Z.8.Z.Z.8.Z.Z.8.8.Z.Z.Z.Z.Z.Z.H.I.K.K.H.p#a.b.b",
".d.d.d.m.z.K.L.U.W.4.4.F.W.W.W#c.4.3.3.4.X.W.W.X.F.4.4.6.Z.8.Z.Z.Z.Z.G.Z.G.Z.G.Z.8.Z.8.8.Z.8.8.Z.Z.8.Z.G.Z.Z.Z.H.I.K.K.B.p.b.b.b",
".a.a.a.n.B.J.L.U.P.W.W.W.F.F.F.4.3.3.3.4.F.4.F.F.6.W.Z.Z.Z.Z.Z.8#..Z.Z.8.Z.G.Z.Z.8.Z.8.Z.8.Z.8.Z.8.Z.Z.8.Z.Z.Z.H.I.M.M.C.p.b.b.b",
".b.b#a.p#d.K.L.U#e.Y.Y.W.F.3.3.4.3.4.3.4.3.3.3.4.Z.G.G.Z.Z.Z.G.Z#..Z.8.Z.Z.Z.Z.8.Z.8.Z.8.Z.8.Z.8.Z.8.8.Z.Z.Z.Z.H.U.M.M.C.p.b.b.b",
".b.b.b.p#d.K.K.I.H.Y.O.W.9.3.3.3.3.3.4.3.3.3.3.F.X.Z.Z.Z.Z.Z.Z.Y#..8.Z.8.Z.Z.8.Z.Z.Z.Z.8.Z.8.8.Z.Z.8.Z.8.Z.Z.G.H.I.M.M.C.q.b.b.b",
".c.b.b.p#d.K.K.U.H.O.G.W.F.3.3.3.4.3.3.3.3.4.3.F.Z.G.G.Z.Z.Z.Z.Z.8.Z.8.Z.8.8.Z.8.8.Z.8.Z.8.Z.Z.Z.8.Z.8.Z.G.Z.Z.H.U.M.M.C.o#a.b.b",
".b.b.b.p.B.K.K.I.H.Z.G.W.4.4.3.4.3.4.4.3.3.3.3.4.Z.8.8.8.G.Z.Z.Y.Z.8.Z.8.Z.Z#.#..Z.8.Z.8.Z.Z.Z.8.Z.8.Z.8.Z.Z.Z.H.U.M.M.C.o.b.b.b",
".c.b#a.p.N.K.K.U.H.Z.G.X.4.3.3.3.3.3.3.3.4.3.4.4.x.8.Z.Z.Z.Y.Z.Z.8.Z.8#..8.Z#.#..8.Z.8.Z.Z.8.8.Z.8.Z.Z.Z.G.Z.Z.H.U.M.K.C.o.b.b.b",
".c#a.b.p.C.K.K.I.H.G.G.Z.F.3.3.3.4.3.3.4.3.3.3.F.X.G.8.Z.8.Z.Z.Z.Z.Z#.#.#.#.#.#..Z.8.8.Z.8.Z.8.Z.8.Z.8.Z.Z.Z.Z.H##.M.M.C.p.b.b.c",
".a.a.a.n.B.K.K.V.0.X.W.X.4.3.4.3.3.3.3.4.4.4.4.6.W.G.8.Z.8.Z.G.Z.8.Z#.#.#.#.#.#..Z.8.Z.8.Z.8.Z.8.Z.8.Z.8.Z.G.Z.H##.M.M.z.n.a.a.a",
".d.d.e.r.z.J.J.I.W.4.F.4.4.3.3.3.4.3.4.4.6.x.W.W.G.G.Z.Z.Z.Z.G.Z.G.Z.Z.Z#..Z.8.Z.Z.Z.8.Z.Z.Z.Z.Z.8.Z.8.Z.Z.Z.G.H.I.K.J.z.m.d.d.d",
"Qt.g#i.l.z.L.K.S.X.3.3.3.3.4.3.4.3.3.3.4.Z.G.G.G.Z.Z.Z.G.Z.G.Z.Z.Z.Z.G.Z#..8#..Z.8.Z.Z.8.Z.G.Z.Z.8.Z.Z.8#.#..W.H.U.K.K.z.lQtQtQt",
"Qt.g#i.l.z.L.M.U.X.3.3.4.3.3.3.4.3.3.3.4.6.G.Z.G.G.G.Z.G.Z.Z.Z.Z.Z.Y.G.G#.#.#.#..Z.8.Z.G.Z.G.Z.0.Z.8.Z.Z#..G.Z.H.I.K.L.z.l.2QtQt",
".d.d.e.m.z.L.M.U.X.3.3.3.4.3.3.3.4.F.4.6.Z.G.Z.G.W.X.x.Z.Z.Z.G.G.Z.Z.x.Z.Z#.#.#..G.Z.Z.Z.Z.Z.Z.8.8.Z.8.Z.Z.x.W.0.U.K.M.y.l.2QtQt",
".t.a.a.n.B.K.K.S.X.4.3.3.3.4.4.4.X.W.Z.x.G.Z.Z.X.6.4.4.6.Z.G.G.Z.9.9.F.F.W.G.Z.Z.Z.Z.Z.Z.Z.Z.G.Z.G.Z.G.O.F.F.F.W.U.K.J.z.lQtQtQt",
".b.b#a.p#d.J.J.S.X.3.3.4.3.3.3.4.Z.G.Z.Z.G.G.G.W.4.3.3.4.X.G.G.X.9.3.3.F.W.G.G.Z.Z.G.Z.G.Z.G.Z.Z.Z.G.G.W.F.3.3.W.T.K.L.z.lQtQtQt",
".c.b#a.p.C.M.J.T.X.4.3.3.3.4.5.4.X.G.Z.G.G.G.G.Z.4.5.4.4.x.G.G.O.3.3.3.4.x.G.Z.8.Z.8.Z.8.Z.Z.Z.Z.Z.G.G.W.F.3.3.W.T.K.K.z.k.g.1Qt",
".b.b.b.p.C.K.K.T.X.3.3.4.4.4.4.6.Z.G.Z.Z.Z.X.Z.6.F.4.4.6.X.O.X.X.F.F.9.F.Z.8.8.Z.Z.Z.8.Z.Z.Z.Z.Z.W.W.W.F.3.p.o.6.T.K.K.y.l.g.gQt",
".b.b.b.o.C.M.M.V.X.4.3.4.X.X.Z.X.Z.Z.G.Z.6.4.4.F.6.W.Z.X.F.4.4.6.W.W.W.Z.Z.Z.Z.8.8.Z.8.Z.8.Z.G.Z.6.F.F.5.E#o#o.5.C.J.J.z.mQtQtQt",
".b.b.b.o.C.K.M.V.X.3.3.4.Z.Z.G.Z.Z.Z.G.X.4.5.3.4.Z.Z.G.X.F.3.3.4.W.G.G.Z.Z.Z.G.Z.Z.8.Z.Z.8#..G.W.9.3.3#q#o.b.b.q.C.K.J.z.l.hQtQt",
".b.b.b.o.C.M.M.V.X.3.5.4.X.G.G.Z.G.Z.G.Z.4.3.3.4.Z.G.G.Z.4.3.5.4.W.G.Z.Z.Z.Z.Z.Z.8.Z.8.8.8.G.G.Z.F.3.3.5#o.b.b.o.C.K.K.z.k.2.1Qt",
".a.a.a.r.C.M.M.U.Z.4.4.6.Z.G.G.G.x.Z.X.X.6.4.4.6.6.Z.X.X.F.4.4.F.G.G.G.Z.G.Z.G.Z.Z.8.Z.Z.Z.x.W.6.F.3.3#s#o.b.b.o.C.K.J.z.l.2QtQt",
".d.d.e.r.z.J.K.U.P.X.X.Z.Z.Z.Z.Z.F.4.4.F.6.W.Z.6.F.F.4.F.X.Z.W.Z.Z.Z.8.Z.Z.Z.Z.Z.G.Z.G.G.F.F.F.F.3.4.3.5#o.b.b.n.C.J.J.B.l.g.gQt",
"Qt.g#i.l.z.J.K.I.H.G.Z.G.Z.G.G.X.F.3.3.F.W.G.Z.Z.4.5.3.4.X.G.G.G.8.8.Z.8.8.G.Z.Z.Z.Z.G.W.4.3.3.3.3.3.3#s#o.b.b.q.C.J.J.z.l.gQtQt",
"Qt.g#i.l.z.M.M.U.H.G.G.Z.G.G.G.Z.4.3.3.4.W.G.G.W.F.3.3.4.x.G.8.8.Z.Z.8.Z.Z.8.Z.G.Z.G.G.W.F.3.3.3.3.3.3#w#x.b.b.n.C.J.J.z.l.g.gQt",
".d.d.e.m.z.M.M.I.H.O.W.G.W.W.x.6.F.3.3.F.W.G.G.Z.F.4.4.6.Z.8.Z.Z.Z.8.Z.Z.8.Z.Z.Z.W.x.W.X.4.3.3.3.F.F.F.3.q#o#o.5.C.J.K.B.m.d.d.d",
".t.a#A.n.C.K.M.I.H.Z.G.W.6.F.4.4.4.3.3.F.W.G.G.W.W.W.Z.Z.Z.Z.Z.8.8.Z.8.Z.Z.G.Z.Z#c.4.4.4.4.3.3.F#c.W.Z.6.5.o#s.F.T.K.K.B.n.a.a.a",
".b.b#a.p.C.K.M.I.H.Z.G.Z.4.3.3.3.3.3.3.F.Z.Z.G.Z.G.G.8.Z.Z.Z.Z.8.8.Z.8.8.Z.G.G.X.F.3.3.3.3.3.3.F.W.G.G.W.F.3.3.W.T.K.K.C.p.b.c.c",
".c.c#a.p.C.M.M##.H.Z.G.W.4.3.3.4.3.3.3.9.R.G.Z.G.G.Z.G.G.Z.Z.Z.Z.G.G.Z.8.G.G.G.W.F.3.3.3.3.3.3.F.W.G.G.Z.F.3.3.W.T.K.K.C.p#a#a.c",
".a.a.a.n.H.I.I.C.Y.X.W.X.4.4.3.3.4.4.F.6.W.Z.G.O.Z.Z.Z.Z.Z.Z.8.Z.W.W.x.Z.O.W.W.X.F.3.3.4.4.4.F.F.W.O.W.6.3#s#s.F#d.I.I.0#D.a.a.t",
".#.d.e#E.x.H.H.G.X.F.4.4.4.4.3.4.X.W.O.W.G.G.G.G.Z.Z.Z.Z.Z.G.G.O.6.4.F.F.4.F.F.4.3.3.4.4#c.O.W.X.F.F.F.5.E#o#G.p.W#d#d.R#E#H.d.d",
".e.g.g.k#I.G.G.Z.4.4.3.4.3.3.4.4.W.G.G.G.G.G.G.O.G.G.G.G.G.G.G.W.F.3.3.3.3.3.3.3.4.3.3.F.O.O.G.O.F.3.3#w#G.b#a#N.F.G.O.w.k.1QtQt",
".e.e.e.k#O.G.G.X.4.4.3.3.3.4.3.4.O.G.G.G.Z.G.G.G.G.G.G.G.Z.G.G.W.4.3.3.4.3.4.4.3.4.3.3.F.O.G.G.W.4.4.3.5#G.b.b#N.F.Y.Y.w.k.1QtQt",
".e.f.d#Q.v.6.4.4.v.n.o#R#s.3#q#q.v#I#O.w.w.F.9.w.w#O.w.w.F.w.F.4.5#q#q#q#s#s#s#s#s#s#s.5.4#O#I.v.v.o#U#D#o.a.a.Q#V.F.R.v#W.1QtQt",
".t.a.a.t#X.E.E.Q#Y#Z#Q#0#o#X#X.u#E.k.j#E.Q.E.E.Q#E.k.k.j.Q#x.q.Q#x#x#x#x#x#x#x#x#x#x#x.u#E.k.k.j.j#Q#Q.i.i.d.d.#.u.E.q.u.fQtQtQt",
".b.c.c.c.b.b.b#A.e.e.e.e.a.b.c.a.dQt#i#H.a.b.b.a.d#i.g.d.a.b.b.b.c.c.t.b.c.b.b.c.b.b.c.a.d.g.g.g.gQtQtQt.h.h.h.d.a.b.b.a.dQtQtQt",
".c.c.c.c.b.c.b.t.#.e.e.f.a.c.c.a.dQtQt.d.a#a.b.a.d.hQt.d.a.c.b.b.b.c.b.b.b.b.c.b.b.b.b.a.d.g.gQtQtQtQtQtQt.h.h.d.a.c.b.a.d.h.hQt",
".b.b.c.b.b.c.b.t.e.e.g.e.t.c.c.a.dQtQt.d.a.c.b.a.d.hQt.d.a.c.c.c.c.b.c.b.c.c.b.c.c.b.b.t.dQtQtQtQtQtQtQtQtQt.h.d.a.c.c.a.dQtQtQt"};
