/* XPM */
static char *dummy[]={
"64 128 135 2",
"ae c #000000",
"#0 c #000003",
"#t c #00000f",
"a. c #00070c",
"#I c #07050d",
"#3 c #141d32",
"#E c #1baba8",
"#8 c #1e232c",
"#z c #25424b",
"#R c #280500",
"#V c #2b2c38",
"#2 c #303a55",
"a# c #362700",
".2 c #383f4a",
".g c #383f4b",
"#f c #383f4c",
".1 c #38404c",
".e c #393f4b",
"Qt c #3a404b",
".h c #3a404c",
"#w c #3d4046",
".d c #3d4047",
".f c #3f4148",
"aa c #3f4449",
".i c #404248",
"#L c #424349",
".# c #434245",
"#O c #43434a",
"#G c #44434a",
".j c #44444b",
"#p c #46413d",
".a c #46413e",
".s c #474242",
"#N c #474548",
".k c #47464d",
"#s c #494649",
"#a c #4a4138",
".b c #4a423a",
".t c #4a433e",
"#P c #4b4440",
".l c #4b4951",
"#7 c #4b5e7f",
".c c #4c423a",
".m c #4d484c",
".u c #4e4541",
"#S c #4f211e",
"#g c #4f443c",
"#Q c #4f5463",
"#v c #50443c",
"#o c #50453d",
"#M c #51453d",
".Q c #514743",
"#l c #52300c",
"#A c #53463f",
".E c #54473f",
"#r c #544845",
".n c #544946",
".q c #554840",
".r c #554a47",
".p c #584a43",
".o c #584a44",
"#J c #584a47",
".D c #584d4d",
".v c #5a4d4b",
"#W c #5b0a00",
"#h c #5b4b44",
"#H c #5b4c48",
"#k c #5c4b43",
"#n c #5d4b43",
".5 c #5e4d45",
"#K c #5e4d48",
"#B c #5f4f4d",
".3 c #614d45",
".w c #61514f",
".9 c #635049",
".4 c #644f48",
"#x c #645352",
".x c #655451",
".F c #66514a",
".6 c #67524b",
".R c #67544f",
"#4 c #684700",
"#c c #68524b",
".X c #68534c",
"#b c #69534d",
".W c #69544d",
".O c #6c564f",
".Z c #6c5650",
".y c #6c5959",
"ab c #6c7273",
"#. c #6d5650",
".8 c #6e5651",
".Y c #6e5751",
".G c #6f5750",
".0 c #6f5a56",
".P c #705853",
".A c #705c5c",
".z c #705c5d",
"#9 c #708ea7",
".B c #715c5b",
".H c #725a55",
"#e c #735a54",
".N c #745b56",
".C c #745d59",
"#d c #755c57",
"#U c #757c87",
".S c #785e5a",
".V c #7a5f5b",
".T c #7a605b",
".U c #7a605c",
".7 c #7c615d",
"## c #7d625e",
".I c #7e625e",
".M c #826663",
".K c #836663",
".L c #836764",
"#Y c #841914",
".J c #846763",
"#C c #8b4435",
"#i c #946230",
"ac c #99a09e",
"#6 c #9e7b10",
"#X c #b1b5be",
"#y c #b5bfce",
"#T c #c26552",
"#1 c #c91b26",
"#j c #d1a049",
"#5 c #dfba18",
"ad c #e2e5e5",
"#m c #f0e883",
"#D c #f2ffff",
"#Z c #f4fffe",
"#u c #fd9370",
"#F c #ffe5ba",
"#q c #fffffa",
"QtQtQtQtQtQtQtQtQtQtQtQtQtQtQtQtQtQtQt.#.a.b.b.b.b.b.b.c.b.b.b.b.b.b.b.a.d.e.f.g.f.e.h.hQtQt.f.gQt.f.e.h.f.gQtQtQtQt.f.d.a.c.c.b",
"QtQtQtQtQtQtQt.gQt.gQt.g.gQt.g.g.g.g.g.d.a.b.b.b.b.b.b.b.b.b.b.b.b.b.b.a.e.e.g.g.g.g.e.gQt.g.g.g.g.g.e.e.g.g.g.g.gQt.g.d.a.c.c.c",
".h.hQtQtQt.g.gQt.gQtQt.g.g.g.g.g.g.g.g.d.a.b.b.b.b.b.b.b.b.b.b.b.b.b.b.a.e.g.g.g.g.g.g.g.g.g.g.g.g.g.e.e.g.g.g.g.g.g.g.d.a.c.c.c",
".d.d.d.i.j.j.k.k.k.l.l.l.m.l.l.m.l.l.l.m.n.o.p.o.o.o.q.p.o.o.o.o.o.o.p.n.r.l.l.l.l.l.l.l.l.l.l.l.l.l.l.l.l.l.l.l.k.k.k.j.s.a.t.a",
".t.a.a.u.v.w.w.x.y.z.z.z.y.z.z.z.z.A.A.B.B.C.C.C.C.C.C.C.C.C.C.C.C.C.C.C.z.A.A.A.y.z.z.z.z.z.z.y.A.A.z.z.z.z.z.y.x.w.w.D.j.d.d.d",
".c.b.b.E.F.G.G.H.I.J.J.K.L.L.L.L.K.J.K.K.J.M.M.M.M.M.L.M.M.M.M.M.M.M.M.L.J.J.K.J.K.K.L.M.J.L.L.K.K.K.K.J.K.J.L.I.N.G.G.w.k.gQtQt",
".c.c.b.E.F.G.O.H.I.J.K.K.K.K.J.J.L.K.K.K.K.K.M.M.M.M.M.M.M.M.M.M.M.M.M.M.K.K.K.K.K.K.K.K.K.K.K.K.K.M.M.K.K.K.K.I.P.O.O.w.kQtQt.h",
".a.a.a.Q.R.H.H.N.S.T.T.T.T.T.T.T.U.V.S.V.U.I.U.I.V.V.V.V.V.V.V.V.V.V.V.V.V.I.V.I.I.U.I.U.I.I.I.U.V.V.V.U.I.I.U.S.N.N.H.x.k.g.gQt",
".d.d.d.m.y.I.I.S.G.W.W.W.W.W.W.W.X.X.W.G.Y.H.H.P.Z.X.X.X.X.X.X.X.X.X.W.G.H.H.H.H.H.H.H.H.H.H.H.0.Z.X.X.Z.G.H.H.H.V.M.I.y.k.g.g.f",
"Qt.1.2.l.z.J.K.T.X.3.3.3.3.3.3.3.3.3.3.4.X.G.G.x.4.3.4.3.4.3.4.3.3.3.3.4.x.Z.G.W.G.Z.Z.Z.Z.Z.Z.X.4.3.3.4.X.Z.G.H.V.M.K.B.l.g.e.e",
"QtQt.2.l.z.J.K.T.W.3.3.3.3.3.3.3.3.3.5.4.Z.G.Z.X.4.3.5.3.3.3.3.3.3.3.3.4.6.G.Z.Z.Z.Z.Z.Z.Z.Z.G.x.4.3.5.4.Z.Z.W.H.7.K.J.B.l.e.e.e",
"Qt.2Qt.l.B.J.K.T.W.3.3.3.4.3.3.4.4.F.4.F.6.Z.Z.6.4.3.4.3.3.4.3.4.4.4.4.F.Z.Z.G.Z.Z.Z.G.Z.Z.Z.G.Z.F.4.4.F.Z.Z.G.0.I.J.K.B.l.e.e.h",
"Qt.2.2.l.z.K.K.T.W.3.3.4.3.3.3.F.6.X.Z.6.F.F.4.4.4.4.3.3.3.4.3.4.X.Z.x.W.G.G.G.Z.Z.G.Z.Z.8.Z.Z.Z.W.X.Z.Z.Z.Z.Z.H.I.K.L.z.l.g.gQt",
"QtQt.2.l.z.J.K.T.W.3.3.3.3.4.3.F.Z.G.G.Z.4.3.3.4.3.3.3.4.3.3.3.4.X.G.G.Z.Z.G.Z.Z.Z.Z.G.Z.Z.8.8.Z.G.G.Z.Z.G.Z.Z.H.U.K.L.z.l.g.gQt",
"Qt.2.2.l.z.K.K.U.W.3.3.3.3.3.3.F.Z.G.G.W.F.3.3.3.3.3.3.3.3.4.3.4.Z.G.G.Z.G.Z.Z.Z.Z.Z.Z.Z.Z.8.Z.8.Z.Z.G.Z.Z.Z.G.H.I.K.L.z.l.e.g.f",
"QtQt.2.l.z.K.K.U.W.3.3.3.4.F.4.F.X.X.Z.X.4.3.3.4.3.4.3.4.4.F.4.6.X.X.Z.Z.Z.Z.Z.G.G.Z.G.Z.8.Z.8.Z.Z.G.Z.Z.Z.G.Z.H.U.K.L.y.l.e.e.e",
"Qt.gQt.m.y.L.L.U.W.3.3.4.6.W.Z.6.F.9.4.4.4.3.4.3.5.3.4.4.6.Z.Z.6.F.F.F.F.x#..Z.8.Z.8.Z.8.8.Z.Z.8.G.Z.Y.Z.Z.Z.Z.H.U.M.L.z.l.g.gQt",
"QtQtQt.l.z.L.K.U.W.3.3.F.W.G.G.W.F.3.4.3.3.3.4.3.4.3.3.4.X.G.G.X.4.3.5.F.Z#.#..Z.8.Z.8.Z.Z.Z.8.Z.Z.Z.Z.8.Z.Z.Z.H.I.M.M.z.l.gQtQt",
"Qt.g.g.l.z.K.K.U.W.3.3.F.Z.G.G.Z.4.3.3.3.3.4.3.3.4.3.3.4.Z.Y.Y.Z.4.3.3.9.W.Y.Z.8.Z.8.8.Z.8.Z.Z.8.Z.8.Z.Y.G.Z.Z.H.U.M.M.z.m.g.gQt",
"Qt.g.g.k.z.K.K.U.W.4.4.F.X.W.Z.6.4.3.4.3.3.3.3.4.4.4.4.6.X.X.Z.X.F.4.9.F.Z.Z.8.Z.Z.Z.Z.8.Z.8.8.Z.Z.Z.8.Z.Z.Z.Z.H##.M.M.z.l.gQtQt",
"QtQtQt.l.z.K.K.I.Y.W.W.W.F.F.4.F.3.4.3.4.4.3.3.F.6.Z.X.6.F.4.4.F.W.W.W.W.Z.8.Z.8.8.Z.8.Z.8.Z.8.8.Y.Z.8.Z.8.Z.G.H.I.K.J.z.l.g.gQt",
"QtQtQt.l.z.K.K.U.H.G.Y.Z.4.3.3.3.3.3.3.3.3.3.3.9.Z.G.G.Z.4.3.3.F.W.G.Y.Y.Z.8.8.Z.Z.8.Z.8.Z.8.Z.Z.Z.8.Z.8.8.Z.W.H.I.K.J.z.l.e.g.h",
"QtQt.2.k.z.K.K.I.H.G.G.W.4.3.3.3.4.3.4.3.3.3.3.F.W.G.G.Z.F.5.3.4.W.Z.G.G.Z.Z.Z.8.Z.8.8.Z.8.Z.Z.8.Z.8.Z.Z.Z.8.Z.H.T.K.J.z.l.g.g.h",
"Qt.2Qt.l.z.K.K.U.P.W.W.X.F.4.9.F.4.3.3.3.4.F.4.F.X.Z.X.X.F.4.4.9.Z.G.Z.G.8.Z.8.Z.8.Z.8.Z.Z.8.Z.Z.Y.Z.8.Z.Z.Z.Z.B.I.K.J.z.m.d.d.d",
"QtQt.2.k.z.J.J.U.O.4.4.F.W.W.O.W.F.3.3.F.6.W.Z.X.6.F.4.F.X.Z.W.Z.Z.Z.Z.Z.Z.Z.Z.Z.Z.8.Z.Z.8.Z.Z.8.8.Z.Z.Z.Z.Z.Z.H.U.K.K.B.n.a.a.t",
"Qt.1Qt.l.z.L.K.T.W.3.3.4.W.Y.G.W.4.3.3.F.Z.G.G.X.4.3.3.4.X.G.G.G.Z.Z.G.Z.0.Z.G.Z.8.Z.Z.8.Z.8.8.Z.Z.Z.8.G.G.Z.Z.H.U.K.K.C.p.c#a.b",
"Qt.1.1.l.y.L.L.U#b.3.3.4.O.Y.Y.W.F.3.3.4.Z.G.G.W.F.3.3.4.x.G.8.8.G.Z.Z.Z.Z.Z.Z.Z.Z.8.Z.Z.8.Z.Z.8.8.Z.Z.Z.Z.Z.Z.H.I.K.K.H.p#a.b.b",
".d.d.d.m.z.K.L.U.W.4.4.F.W.W.W#c.4.3.3.4.X.W.W.X.F.4.4.6.Z.8.Z.Z.Z.Z.G.Z.G.Z.G.Z.8.Z.8.8.Z.8.8.Z.Z.8.Z.G.Z.Z.Z.H.I.K.K.B.p.b.b.b",
".a.a.a.n.B.J.L.U.P.W.W.W.F.F.F.4.3.3.3.4.F.4.F.F.6.W.Z.Z.Z.Z.Z.8#..Z.Z.8.Z.G.Z.Z.8.Z.8.Z.8.Z.8.Z.8.Z.Z.8.Z.Z.Z.H.I.M.M.C.p.b.b.b",
".b.b#a.p#d.K.L.U#e.Y.Y.W.F.3.3.4.3.4.3.4.3.3.3.4.Z.G.G.Z.Z.Z.G.Z#..Z.8.Z.Z.Z.Z.8.Z.8.Z.8.Z.8.Z.8.Z.8.8.Z.Z.Z.Z.H.U.M.M.C.p.b.b.b",
".b.b.b.p#d.K.K.I.H.Y.O.W.9.3.3.3.3.3.4.3.3.3.3.F.X.Z.Z.Z.Z.Z.Z.Y#..8.Z.8.Z.Z.8.Z.Z.Z.Z.8.Z.8.8.Z.Z.8.Z.8.Z.Z.G.H.I.M.M.C.q.b.b.b",
".c.b.b.p#d.K.K.U.H.O.G.W.F.3.3.3.4.3.3.3.3.4.3.F.Z.G.G.Z.Z.Z.Z.Z.8.Z.8.Z.8.8.Z.8.8.Z.8.Z.8.Z.Z.Z.8.Z.8.Z.G.Z.Z.H.U.M.M.C.o#a.b.b",
".b.b.b.p.B.K.K.I.H.Z.G.W.4.4.3.4.3.4.4.3.3.3.3.4.Z.8.8.8.G.Z.Z.Y.Z.8.Z.8.Z.Z#.#..Z.8.Z.8.Z.Z.Z.8.Z.8.Z.8.Z.Z.Z.H.U.M.M.C.o.b.b.b",
".c.b#a.p.N.K.K.U.H.Z.G.X.4.3.3.3.3.3.3.3.4.3.4.4.x.8.Z.Z.Z.Y.Z.Z.8.Z.8#..8.Z#.#..8.Z.8.Z.Z.8.8.Z.8.Z.Z.Z.G.Z.Z.H.U.M.K.C.o.b.b.b",
".c#a.b.p.C.K.K.I.H.G.G.Z.F.3.3.3.4.3.3.4.3.3.3.F.X.G.8.Z.8.Z.Z.Z.Z.Z#.#.#.#.#.#..Z.8.8.Z.8.Z.8.Z.8.Z.8.Z.Z.Z.Z.H##.M.M.C.p.b.b.c",
".a.a.a.n.B.K.K.V.0.X.W.X.4.3.4.3.3.3.3.4.4.4.4.6.W.G.8.Z.8.Z.G.Z.8.Z#.#.#.#.#.#..Z.8.Z.8.Z.8.Z.8.Z.8.Z.8.Z.G.Z.H##.M.M.z.n.a.a.a",
".d.d.e.r.z.J.J.I.W.4.F.4.4.3.3.3.4.3.4.4.6.x.W.W.G.G.Z.Z.Z.Z.G.Z.G.Z.Z.Z#..Z.8.Z.Z.Z.8.Z.Z.Z.Z.Z.8.Z.8.Z.Z.Z.G.H.I.K.J.z.m.d.d.d",
"Qt.g#f.l.z.L.K.S.X.3.3.3.3.4.3.4.3.3.3.4.Z.G.G.G.Z.Z.Z.G.Z.G.Z.Z.Z.Z.G.Z#..8#..Z.8.Z.Z.8.Z.G.Z.Z.8.Z.Z.8#.#..W.H.U.K.K.z.lQtQtQt",
"Qt.g#f.l.z.L.M.U.X.3.3.4.3.3.3.4.3.3.3.4.6.G.Z.G.G.G.Z.G.Z.Z.Z.Z.Z.Y.G.G#.#.#.#..Z.8.Z.G.Z.G.Z.0.Z.8.Z.Z#..G.Z.H.I.K.L.z.l.2QtQt",
".d.d.e.m.z.L.M.U.X.3.3.3.4.3.3.3.4.F.4.6.Z.G.Z.G.W.X.x.Z.Z.Z.G.G.Z.Z.x.Z.Z#.#.#..G.Z.Z.Z.Z.Z.Z.8.8.Z.8.Z.Z.x.W.0.U.K.M.y.l.2QtQt",
".t.a.a.n.B.K.K.S.X.4.3.3.3.4.4.4.X.W.Z.x.G.Z.Z.X.6.4.4.6.Z.G.G.Z.9.9.F.F.W.G.Z.Z.Z.Z.Z.Z.Z.Z.G.Z.G.Z.G.O.F.F.F.W.U.K.J.z.lQtQtQt",
".b.b#a.p#d.J.J.S.X.3.3.4.3.3.3.4.Z.G.Z.Z.G.G.G.W.4.3.3.4.X.G.G.X.9.3.3.F.W.G.G.Z.Z.G.Z.G.Z.G.Z.Z.Z.G.G.W.F.3.3.W.T.K.L.z.lQtQtQt",
".c.b#a.p.C.M.J.T.X.4.3.3.3.4.5.4.X.G.Z.G.G.G.G.Z.4.5.4.4.x.G.G.O.3.3.3.4.x.G.Z.8.Z.8.Z.8.Z.Z.Z.Z.Z.G.G.W.F.3.3.W.T.K.K.z.k.g.1Qt",
".b.b.b.p.C.K.K.T.X.3.3.4.4.4.4.6.Z.G.Z.Z.Z.X.Z.6.F.4.4.6.X.O.X.X.F.F.9.F.Z.8.8.Z.Z.Z.8.Z.Z.Z.Z.Z.W.W.W.F.3.p.o.6.T.K.K.y.l.g.gQt",
".b.b.b.o.C.M.M.V.X.4.3.4.X.X.Z.X.Z.Z.G.Z.6.4.4.F.6.W.Z.X.F.4.4.6.W.W.W.Z.Z.Z.Z.8.8.Z.8.Z.8.Z.G.Z.6.F.F.5.E#g#g.5.C.J.J.z.mQtQtQt",
".b.b.b.o.C.K.M.V.X.3.3.4.Z.Z.G.Z.Z.Z.G.X.4.5.3.4.Z.Z.G.X.F.3.3.4.W.G.G.Z.Z.Z.G.Z.Z.8.Z.Z.8#..G.W.9.3.3#h#g.b.b.q.C.K.J.z.l.hQtQt",
".b.b.b.o.C.M.M.V.X.3.5.4.X.G.G.Z.G.Z.G.Z.4.3.3.4.Z.G.G.Z#i#j#i.4.W.G.Z.Z.Z.Z.Z.Z.8.Z.8.8.8.G.G.Z.F.3.3.5#g.b.b.o.C.K.K.z.k.2.1Qt",
".a.a.a.r.C.M.M.U.Z.4.4.6.Z.G.G.G.x.Z.X.X.6.4.4.6.6.Z.X.X#i#j#i#i#i#i.G.Z.G.Z.G.Z.Z.8.Z.Z.Z.x.W.6.F.3.3#k#g.b.b.o.C.K.J.z.l.2QtQt",
".d.d.e.r.z.J.K.U.P.X.X.Z.Z.Z.Z.Z.F.4.4.F.6.W.Z.6.F.F#i#i#l#l#j#i#i#i#j#i.Z.Z.Z.Z.G.Z.G.G.F.F.F.F.3.4.3.5#g.b.b.n.C.J.J.B.l.g.gQt",
"Qt.g#f.l.z.J.K.I.H.G.Z.G.Z.G.G.X.F.3.3.F.W.G.Z.Z.4#l#i#i#j#i#l#j#i#j#j#i#l.G.Z.Z.Z.Z.G.W.4.3.3.3.3.3.3#k#g.b.b.q.C.J.J.z.l.gQtQt",
"Qt.g#f.l.z.M.M.U.H.G.G.Z.G.G.G.Z.4.3.3.4.W.G.G.W#l#l#i#j#m#j#i#j#j#m#j#j#l#l.Z.G.Z.G.G.W.F.3.3.3.3.3.3#n#o.b.b.n.C.J.J.z.l.g.gQt",
".d.d.e.m.z.M.M.I.H.O.W.G.W.W.x.6.F.3.3.F.W.G.G#i#l#i#m#m#j#m#j#m#m#j#m#j#i#l.Z.Z.W.x.W.X.4.3.3.3.F.F.F.3.q#g#g.5.C.J.K.B.m.d.d.d",
".t.a#p.n.C.K.M.I.H.Z.G.W.6.F.4.4.4.3.3.F.W.G.G#i#i#j#m#j#q#j#m#m#j#q#j#i#j#i#i.Z#c.4.4.4.4.3.3.F#c.W.Z.6.5.o#k.F.T.K.K.B.n.a.a.a",
".b.b#a.p.C.K.M.I.H.Z.G.Z.4.3.3.3.3.3.3.F.Z.Z.G.Z#l#l#j#q#m#j#q#m#j#m#q#j#i#j#i#i.F.3.3.3.3.3.3.F.W.G.G.W.F.3.3.W.T.K.K.C.p.b.c.c",
".c.c#a.p.C.M.M##.H.Z.G.W.4.3.3.4.3.3.3.9.R.G.Z#j#i#j#m#m#j#i#q#q#i#j#m#j#l#i#j#i.F.3.3.3.3.3.3.F.W.G.G.Z.F.3.3.W.T.K.K.C.p#a#a.c",
".a.a.a.n.H.I.I.C.Y.X.W.X.4.4.3.3.4.4.F.6.W.Z.G#j#j#m#i#j#i#l#j#q#l#i#j#m#l#l#l.X.F.3.3.4.4.4.F.F.W.O.W.6.3#k#k.F#d.I.I.0#r.a.a.t",
".#.d.e#s.x.H.H.G.X.F.4.4.4.4.3.4.X.W.O.W.G.G.G#l#l#l#j#j#t#t#i#m#u#t#t#j#l#j#l.4.3.3.4.4#c.O.W.X.F.F.F.5.E#g#v.p.W#d#d.R#s#w.d.d",
".e.g.g.k#x.G.G.Z.4.4.3.4.3.3.4.4.W.G.G.G.G.G.G.O.G#l#j#i#y#z#i#j#t#z#y#i#u#i#l.3.4.3.3.F.O.O.G.O.F.3.3#n#v.b#a#A.F.G.O.w.k.1QtQt",
".e.e.e.k#B.G.G.X.4.4.3.3.3.4.3.4.O.G.G.G.Z.G.G.G.G#i#j#C#D#E#F#i#F#E#D#l#u#l#i.3.4.3.3.F.O.G.G.W.4.4.3.5#v.b.b#A.F.Y.Y.w.k.1QtQt",
".e.f.d#G.v.6.4.4.v.n.o#H#k.3#h#h.v#x#B.w.w.F.9.w#I#i#l#C#u#F#F#F#F#F#C#C#l#I#k#k#k#k#k.5.4#B#x.v.v.o#J#r#g.a.a.Q#K.F.R.v#L.1QtQt",
".t.a.a.t#M.E.E.Q#N#O#G#P#g#M#M.u#s.k.j#s.Q.E.E#I#I#Q#R#S#T#F#F#F#F#F#T#S#Q#I#I#o#o#o#o.u#s.k.k.j.j#G#G.i.i.d.d.#.u.E.q.u.fQtQtQt",
".b.c.c.c.b.b.b#p.e.e.e.e.a.b.c.a.dQt#f#w.a.b#I#I#U#V#W#R#S#T#u#u#u#T#S#R#W#U#I.c.b.b.c.a.d.g.g.g.gQtQtQt.h.h.h.d.a.b.b.a.dQtQtQt",
".c.c.c.c.b.c.b.t.#.e.e.f.a.c.c.a.dQtQt.d.a#a#I#X#V#W#Y#R#V#S#C#C#C#S#V#W#Y#W#U#I.b.b.b.a.d.g.gQtQtQtQtQtQt.h.h.d.a.c.b.a.d.h.hQt",
".b.b.c.b.b.c.b.t.e.e.g.e.t.c.c.a.dQtQt.d.a.c#I#Q#Z#W#Y#R#V#0#I#0#V#U#R#1#1#U#X#I#2.b.b.t.dQtQtQtQtQtQtQtQtQt.h.d.a.c.c.a.dQtQtQt",
"QtQtQtQtQtQtQtQtQtQtQtQtQtQtQtQtQtQtQt.#.a.b#3#I#Q#Z#1#W#Q#0#0#Q#Q#U#Y#1#Z#X#Q#I#2#2.h.hQtQt.f.gQt.f.e.h.f.gQtQtQtQt.f.d.a.c.c.b",
"QtQtQtQtQtQtQt.gQt.gQt.g.gQt.g.g.g.g.g.d.a.b#4#0#I#U#1#Y#U#0#Q#X#X#V#1#Z#Q#0#3#2#5#2.e.gQt.g.g.g.g.g.e.e.g.g.g.g.gQt.g.d.a.c.c.c",
".h.hQtQtQt.g.gQt.gQtQt.g.g.g.g.g.g.g.g.d.a.b#0#3#0#Q#Z#1#R#Q#X#V#0#Y#1#X#0#3#2#2#5#6.g.g.g.g.g.g.g.g.e.e.g.g.g.g.g.g.g.d.a.c.c.c",
".d.d.d.i.j.j.k.k.k.l.l.l.m.l.l.m.l.l.l.m.n.o#0#3#0#I#X#1#R#X#3#V#R#Y#Z#Q#0#3#2#7#2#6.l.l.l.l.l.l.l.l.l.l.l.l.l.l.k.k.k.j.s.a.t.a",
".t.a.a.u.v.w.w.x.y.z.z.z.y.z.z.z.z.A.A.B.B#0#3#8#3#I#U#Y#R#V#Q#V#R#Y#Z#0#I#3#2#7#7#2.z.z.z.z.z.y.A.A.z.z.z.z.z.y.x.w.w.D.j.d.d.d",
".c.b.b.E.F.G.G.H.I.J.J.K.L.L.L.L.K.J.K.K.J#0#8#2#3#0#Q#U#3#5#Q#6#3#Y#X#0#0#0#2#7#9#7#3.M.J.L.L.K.K.K.K.J.K.J.L.I.N.G.G.w.k.gQtQt",
".c.c.b.E.F.G.O.H.I.J.K.K.K.K.J.J.L.K.K.K#V#0#2#2#3#I#I#Z#3#Q#Q#V#3#U#Q#3#0#0#3#7#9#9#3.K.K.K.K.K.K.M.M.K.K.K.K.I.P.O.O.w.kQtQt.h",
".a.a.a.Q.R.H.H.N.S.T.T.T.T.T.T.T.U.V.S.V#V#0#2#3#3#0#I#X#Q#6#Q#4#3#X#3#3#0.I#3#2#9#9#2#3.I.I.I.U.V.V.V.U.I.I.U.S.N.N.H.x.k.g.gQt",
".d.d.d.m.y.I.I.S.G.W.W.W.W.W.W.W.X.X.W.Ga.#Q#U#Q#Va.#I#Q#U#3#Q#Q#V#X#3#3#0.H#0#2#7#9#7#3.H.H.H.0.Z.X.X.Z.G.H.H.H.V.M.I.y.k.g.g.f",
"Qt.1.2.l.z.J.K.T.X.3.3.3.3.3.3.3.3.3.3.4#Va.a.a.a.#V#I#0#X#0#5#6#4#X#3#0#0.Z#0#3#X#Z#X#3.Z.Z.Z.X.4.3.3.4.X.Z.G.H.V.M.K.B.l.g.e.e",
"QtQt.2.l.z.J.K.T.W.3.3.3.3.3.3.3.3.3.5.4#0#V#Q#V#Ia.#I#0#X#0#4a#a##U#3#0#V.G#I#Q#2#7#2#U.Z.Z.G.x.4.3.5.4.Z.Z.W.H.7.K.J.B.l.e.e.e",
"Qt.2Qt.l.B.J.K.T.W.3.3.3.4.3.3.4.4.F.4.F#8#8a.a.a.#I#V#0#U#3#3#3#V#U#0#Q#0#I#I#U#X#Z#Z#3.Z.Z.G.Z.F.4.4.F.Z.Z.G.0.I.J.K.B.l.e.e.h",
"Qt.2.2.l.z.K.K.T.W.3.3.4.3.3.3.F.6.X.Z.6a.#8a.#8#Ia.#0#Q#U#6#6#4#3#U#Q#0#I#0#Q#0#0#3#0#X.8.Z.Z.Z.W.X.Z.Z.Z.Z.Z.H.I.K.L.z.l.g.gQt",
"QtQt.2.l.z.J.K.T.W.3.3.3.3.4.3.F.Z.G.G.Z.4a.a.a.#0#3#0#U#3#3#3#3#3#U#Q#0#3#I#0#8#8aa#8#0.Z.8.8.Z.G.G.Z.Z.G.Z.Z.H.U.K.L.z.l.g.gQt",
"Qt.2.2.l.z.K.K.U.W.3.3.3.3.3.3.F.Z.G.G.W.F.3.3.3#0#3#3#Ua##3#3#3#4#Q#U#0#3#0#0abaaabaa#0.Z.8.Z.8.Z.Z.G.Z.Z.Z.G.H.I.K.L.z.l.e.g.f",
"QtQt.2.l.z.K.K.U.W.3.3.3.4.F.4.F.X.X.Z.X.4.3.3.4#0#2#3#X#I#4#4#6#I#I#U#0#3#3#0ac#0acab#8.8.Z.8.Z.Z.G.Z.Z.Z.G.Z.H.U.K.L.y.l.e.e.e",
"Qt.gQt.m.y.L.L.U.W.3.3.4.6.W.Z.6.F.9.4.4.4.3.4#0#3#2#0#X#3#I#I#3#3#I#X#0#3#3#0aa#0acab#0.8.Z.Z.8.G.Z.Y.Z.Z.Z.Z.H.U.M.L.z.l.g.gQt",
"QtQtQt.l.z.L.K.U.W.3.3.F.W.G.G.W.F.3.4.3.3.3.4#0#3#3#0#X#Q#U#U#U#Q#I#X#0#3#3#0#0#8#8#0.Z.Z.Z.8.Z.Z.Z.Z.8.Z.Z.Z.H.I.M.M.z.l.gQtQt",
"Qt.g.g.l.z.K.K.U.W.3.3.F.Z.G.G.Z.4.3.3.3.3.4#0#8#2#3#U#U#I#I#I#I#I#3#Z#0#3#8#3.8.Z.8.8.Z.8.Z.Z.8.Z.8.Z.Y.G.Z.Z.H.U.M.M.z.m.g.gQt",
"Qt.g.g.k.z.K.K.U.W.4.4.F.X.W.Z.6.4.3.4.3.3#0#0#2#2#3#X#Q#3#8#3#I#I#0#Z#0#3#2#3#0.Z.Z.Z.8.Z.8.8.Z.Z.Z.8.Z.Z.Z.Z.H##.M.M.z.l.gQtQt",
"QtQtQt.l.z.K.K.I.Y.W.W.W.F.F.4.F.3.4.3.4.4#0#3#2#2#0#Xa.#3#2#3a.#I#3#Z#0#8#2#8#0.8.Z.8.Z.8.Z.8.8.Y.Z.8.Z.8.Z.G.H.I.K.J.z.l.g.gQt",
"QtQtQt.l.z.K.K.U.H.G.Y.Z.4.3.3.3.3.3.3.3#0#3#3#7#3#0#Xa.#8#0#3#I#I#8#X#0#3#7#3#0.Z.8.Z.8.Z.8.Z.Z.Z.8.Z.8.8.Z.W.H.I.K.J.z.l.e.g.h",
"QtQt.2.k.z.K.K.I.H.G.G.W.4.3.3.3.4.3.4#V#0#3#2#7#3#U#U#8aaab#0#0#I#8#U#U#3#7#2#3#0.8.8.Z.8.Z.Z.8.Z.8.Z.Z.Z.8.Z.H.T.K.J.z.l.g.g.h",
"Qt.2Qt.l.z.K.K.U.P.W.W.X.F.4.9.F.4.3.3#V#0#2#7#2#0#X#8#8adaaab#8#0a.a.#X#0#7#2#3#0#0.8.Z.Z.8.Z.Z.Y.Z.8.Z.Z.Z.Z.B.I.K.J.z.m.d.d.d",
"QtQt.2.k.z.J.J.U.O.4.4.F.W.W.O.W.F.3.3#Q#0#2#7#3#U#U#8aaadac#8aaa.a.#8#Z#0#2#7#2#3#0#Q.Z.8.Z.Z.8.8.Z.Z.Z.Z.Z.Z.H.U.K.K.B.n.a.a.t",
"Qt.1Qt.l.z.L.K.T.W.3.3.4.W.Y.G.W.4.3.3#Q#U#3#2#0#Xa.#8aaacabaa#8a.a.#8#Z#0#3#7#7#2#3#Q.8.Z.8.8.Z.Z.Z.8.G.G.Z.Z.H.U.K.K.C.p.c#a.b",
"Qt.1.1.l.y.L.L.U#b.3.3.4.O.Y.Y.W.F.3.3#V#U#0#3#U#Ua.a.aaabaa#8a.a.a.a.#X#0#3#7#2#2#0#Q.Z.8.Z.Z.8.8.Z.Z.Z.Z.Z.Z.H.I.K.K.H.p#a.b.b",
".d.d.d.m.z.K.L.U.W.4.4.F.W.W.W#c.4.3.3#I#Q#X#0#Z#Iae#Ia.#8#Va.a.a.a.a.#U#U#3#2#2#3#Q#V.8.Z.8.8.Z.Z.8.Z.G.Z.Z.Z.H.I.K.K.B.p.b.b.b",
".a.a.a.n.B.J.L.U.P.W.W.W.F.F.F.4.3aeaeae#V#U#X#Xaeae#8#8aaaa#8#8a.a.#8#8#X#U#U#U#Q#V#Vaeae.Z.8.Z.8.Z.Z.8.Z.Z.Z.H.I.M.M.C.p.b.b.b",
".b.b#a.p#d.K.L.U#e.Y.Y.W.F.3.3aeaeaeaeae#I#U#Z#Iaeaeaaababacaaa.a.a.#8#8#Z#X#Q#V#8#V#Iaeaeaeae.8.Z.8.8.Z.Z.Z.Z.H.U.M.M.C.p.b.b.b",
".b.b.b.p#d.K.K.I.H.Y.O.W.9.3aeaeaeaeaeaeae#I#Xaeaeaeae#8aa#8#8a.a.a.#0a.#Z#X#Q#V#V#Iaeaeaeaeaeae.Z.8.Z.8.Z.Z.G.H.I.M.M.C.q.b.b.b",
".c.b.b.p#d.K.K.U.H.O.G.W.Faeaeaeaeaeaeaeaeae#Iaeaeaea.aaabacaaa.aeaeaeae#Z#U#V#Iaeaeaeaeaeaeaeaeae.Z.8.Z.G.Z.Z.H.U.M.M.C.o#a.b.b",
".b.b.b.p.B.K.K.I.H.Z.G.Waeaeaeaeaeaeaeaeaeaeaeaeaeaea.#8aaaa#8a.aeaeaeaeaeaeaeaeaeaeaeaeaeaeaeaeaeae.Z.8.Z.Z.Z.H.U.M.M.C.o.b.b.b",
".c.b#a.p.N.K.K.U.H.Z.G.Xaeaeaeaeaeaeaeaeaeaeaeaeaea.a.#8#8#8aaa.aeaeaeaeaeaeaeaeaeaeaeaeaeaeaeaeaeae.Z.Z.G.Z.Z.H.U.M.K.C.o.b.b.b",
".c#a.b.p.C.K.K.I.H.G.G.Zaeaeaeaeaeaeaeaeaeaeaeaeaea.abacacacaba.aeaeaeaeaeaeaeaeaeaeaeaeaeaeaeaeaeae.8.Z.Z.Z.Z.H##.M.M.C.p.b.b.c",
".a.a.a.n.B.K.K.V.0.X.W.Xaeaeaeaeaeaeaeaeaeaeaeaeae#8aaabababaaa.aeaeaeaeaeaeaeaeaeaeaeaeaeaeaeaeaeae.Z.8.Z.G.Z.H##.M.M.z.n.a.a.a",
".d.d.e.r.z.J.J.I.W.4.F.4.4aeaeaeaeaeaeaeaeaeaeaeae#8#8a.a.a.#8#Iaeaeaeaeaeaeaeaeaeaeaeaeaeaeaeaeae.Z.8.Z.Z.Z.G.H.I.K.J.z.m.d.d.d",
"Qt.g#f.l.z.L.K.S.X.3.3.3.3.4aeaeaeaeaeaeaeaeaeaeaeae#0#0a.#0#0aeaeaeaeaeaeaeaeaeaeaeaeaeaeaeaeae.8.Z.Z.8#.#..W.H.U.K.K.z.lQtQtQt",
"Qt.g#f.l.z.L.M.U.X.3.3.4.3.3.3aeaeaeaeaeaeaeaeaeaeaeaeaeaeaeaeaeaeaeaeaeaeaeaeaeaeaeaeaeaeaeae.0.Z.8.Z.Z#..G.Z.H.I.K.L.z.l.2QtQt",
".d.d.e.m.z.L.M.U.X.3.3.3.4.3.3.3.4aeaeaeaeaeaeaeaeaeaeaeaeaeaeaeaeaeaeaeaeaeaeaeaeaeaeaeae.Z.Z.8.8.Z.8.Z.Z.x.W.0.U.K.M.y.l.2QtQt",
".t.a.a.n.B.K.K.S.X.4.3.3.3.4.4.4.X.W.Z.x.Gaeaeaeaeaeaeaeaeaeaeaeaeaeaeaeaeaeaeaeae.Z.Z.Z.Z.Z.G.Z.G.Z.G.O.F.F.F.W.U.K.J.z.lQtQtQt",
".b.b#a.p#d.J.J.S.X.3.3.4.3.3.3.4.Z.G.Z.Z.G.G.G.W.4.3.3.4.X.G.G.X.9.3.3.F.W.G.G.Z.Z.G.Z.G.Z.G.Z.Z.Z.G.G.W.F.3.3.W.T.K.L.z.lQtQtQt",
".c.b#a.p.C.M.J.T.X.4.3.3.3.4.5.4.X.G.Z.G.G.G.G.Z.4.5.4.4.x.G.G.O.3.3.3.4.x.G.Z.8.Z.8.Z.8.Z.Z.Z.Z.Z.G.G.W.F.3.3.W.T.K.K.z.k.g.1Qt",
".b.b.b.p.C.K.K.T.X.3.3.4.4.4.4.6.Z.G.Z.Z.Z.X.Z.6.F.4.4.6.X.O.X.X.F.F.9.F.Z.8.8.Z.Z.Z.8.Z.Z.Z.Z.Z.W.W.W.F.3.p.o.6.T.K.K.y.l.g.gQt",
".b.b.b.o.C.M.M.V.X.4.3.4.X.X.Z.X.Z.Z.G.Z.6.4.4.F.6.W.Z.X.F.4.4.6.W.W.W.Z.Z.Z.Z.8.8.Z.8.Z.8.Z.G.Z.6.F.F.5.E#g#g.5.C.J.J.z.mQtQtQt",
".b.b.b.o.C.K.M.V.X.3.3.4.Z.Z.G.Z.Z.Z.G.X.4.5.3.4.Z.Z.G.X.F.3.3.4.W.G.G.Z.Z.Z.G.Z.Z.8.Z.Z.8#..G.W.9.3.3#h#g.b.b.q.C.K.J.z.l.hQtQt",
".b.b.b.o.C.M.M.V.X.3.5.4.X.G.G.Z.G.Z.G.Z.4.3.3.4.Z.G.G.Z.4.3.5.4.W.G.Z.Z.Z.Z.Z.Z.8.Z.8.8.8.G.G.Z.F.3.3.5#g.b.b.o.C.K.K.z.k.2.1Qt",
".a.a.a.r.C.M.M.U.Z.4.4.6.Z.G.G.G.x.Z.X.X.6.4.4.6.6.Z.X.X.F.4.4.F.G.G.G.Z.G.Z.G.Z.Z.8.Z.Z.Z.x.W.6.F.3.3#k#g.b.b.o.C.K.J.z.l.2QtQt",
".d.d.e.r.z.J.K.U.P.X.X.Z.Z.Z.Z.Z.F.4.4.F.6.W.Z.6.F.F.4.F.X.Z.W.Z.Z.Z.8.Z.Z.Z.Z.Z.G.Z.G.G.F.F.F.F.3.4.3.5#g.b.b.n.C.J.J.B.l.g.gQt",
"Qt.g#f.l.z.J.K.I.H.G.Z.G.Z.G.G.X.F.3.3.F.W.G.Z.Z.4.5.3.4.X.G.G.G.8.8.Z.8.8.G.Z.Z.Z.Z.G.W.4.3.3.3.3.3.3#k#g.b.b.q.C.J.J.z.l.gQtQt",
"Qt.g#f.l.z.M.M.U.H.G.G.Z.G.G.G.Z.4.3.3.4.W.G.G.W.F.3.3.4.x.G.8.8.Z.Z.8.Z.Z.8.Z.G.Z.G.G.W.F.3.3.3.3.3.3#n#o.b.b.n.C.J.J.z.l.g.gQt",
".d.d.e.m.z.M.M.I.H.O.W.G.W.W.x.6.F.3.3.F.W.G.G.Z.F.4.4.6.Z.8.Z.Z.Z.8.Z.Z.8.Z.Z.Z.W.x.W.X.4.3.3.3.F.F.F.3.q#g#g.5.C.J.K.B.m.d.d.d",
".t.a#p.n.C.K.M.I.H.Z.G.W.6.F.4.4.4.3.3.F.W.G.G.W.W.W.Z.Z.Z.Z.Z.8.8.Z.8.Z.Z.G.Z.Z#c.4.4.4.4.3.3.F#c.W.Z.6.5.o#k.F.T.K.K.B.n.a.a.a",
".b.b#a.p.C.K.M.I.H.Z.G.Z.4.3.3.3.3.3.3.F.Z.Z.G.Z.G.G.8.Z.Z.Z.Z.8.8.Z.8.8.Z.G.G.X.F.3.3.3.3.3.3.F.W.G.G.W.F.3.3.W.T.K.K.C.p.b.c.c",
".c.c#a.p.C.M.M##.H.Z.G.W.4.3.3.4.3.3.3.9.R.G.Z.G.G.Z.G.G.Z.Z.Z.Z.G.G.Z.8.G.G.G.W.F.3.3.3.3.3.3.F.W.G.G.Z.F.3.3.W.T.K.K.C.p#a#a.c",
".a.a.a.n.H.I.I.C.Y.X.W.X.4.4.3.3.4.4.F.6.W.Z.G.O.Z.Z.Z.Z.Z.Z.8.Z.W.W.x.Z.O.W.W.X.F.3.3.4.4.4.F.F.W.O.W.6.3#k#k.F#d.I.I.0#r.a.a.t",
".#.d.e#s.x.H.H.G.X.F.4.4.4.4.3.4.X.W.O.W.G.G.G.G.Z.Z.Z.Z.Z.G.G.O.6.4.F.F.4.F.F.4.3.3.4.4#c.O.W.X.F.F.F.5.E#g#v.p.W#d#d.R#s#w.d.d",
".e.g.g.k#x.G.G.Z.4.4.3.4.3.3.4.4.W.G.G.G.G.G.G.O.G.G.G.G.G.G.G.W.F.3.3.3.3.3.3.3.4.3.3.F.O.O.G.O.F.3.3#n#v.b#a#A.F.G.O.w.k.1QtQt",
".e.e.e.k#B.G.G.X.4.4.3.3.3.4.3.4.O.G.G.G.Z.G.G.G.G.G.G.G.Z.G.G.W.4.3.3.4.3.4.4.3.4.3.3.F.O.G.G.W.4.4.3.5#v.b.b#A.F.Y.Y.w.k.1QtQt",
".e.f.d#G.v.6.4.4.v.n.o#H#k.3#h#h.v#x#B.w.w.F.9.w.w#B.w.w.F.w.F.4.5#h#h#h#k#k#k#k#k#k#k.5.4#B#x.v.v.o#J#r#g.a.a.Q#K.F.R.v#L.1QtQt",
".t.a.a.t#M.E.E.Q#N#O#G#P#g#M#M.u#s.k.j#s.Q.E.E.Q#s.k.k.j.Q#o.q.Q#o#o#o#o#o#o#o#o#o#o#o.u#s.k.k.j.j#G#G.i.i.d.d.#.u.E.q.u.fQtQtQt",
".b.c.c.c.b.b.b#p.e.e.e.e.a.b.c.a.dQt#f#w.a.b.b.a.d#f.g.d.a.b.b.b.c.c.t.b.c.b.b.c.b.b.c.a.d.g.g.g.gQtQtQt.h.h.h.d.a.b.b.a.dQtQtQt",
".c.c.c.c.b.c.b.t.#.e.e.f.a.c.c.a.dQtQt.d.a#a.b.a.d.hQt.d.a.c.b.b.b.c.b.b.b.b.c.b.b.b.b.a.d.g.gQtQtQtQtQtQt.h.h.d.a.c.b.a.d.h.hQt",
".b.b.c.b.b.c.b.t.e.e.g.e.t.c.c.a.dQtQt.d.a.c.b.a.d.hQt.d.a.c.c.c.c.b.c.b.c.c.b.c.c.b.b.t.dQtQtQtQtQtQtQtQtQt.h.d.a.c.c.a.dQtQtQt"};
