/* XPM */
static char *dummy[]={
"64 64 143 2",
"Qt c None",
"#. c #000000",
"## c #000000",
"#a c #000000",
"#V c #000000",
"#r c #000000",
"#L c #000000",
"#b c #000000",
"#c c #000000",
"#i c #000000",
"#d c #000000",
"ak c #000000",
"al c #000000",
"am c #000000",
"#e c #000000",
"#B c #000000",
"#s c #000000",
"#Z c #000000",
"#j c #000000",
"#f c #000000",
"#M c #000000",
"#T c #000000",
"#g c #000000",
"#k c #000000",
"#h c #000000",
"#t c #000000",
"#A c #000000",
"ae c #000000",
"#l c #000000",
"af c #000000",
"#C c #000000",
"ag c #000000",
"ah c #000000",
"ai c #000000",
"aj c #000000",
"#m c #000000",
"#q c #000000",
"#u c #000000",
"#0 c #000000",
"#n c #000000",
"#p c #000000",
"#N c #000000",
"#U c #000000",
"#9 c #000000",
"#v c #000000",
"#D c #000000",
"a. c #000000",
"a# c #000000",
"#w c #000000",
"#1 c #000000",
"aa c #000000",
"ab c #000000",
"#E c #000000",
"#o c #000000",
"ac c #000000",
"#O c #000000",
"ad c #000000",
"#x c #000000",
"#F c #000000",
"#2 c #000000",
"#3 c #000000",
"#4 c #000000",
"#P c #000000",
"#G c #000000",
"#5 c #000000",
"#6 c #000000",
"#7 c #000000",
"#H c #000000",
"#8 c #000000",
"#z c #000000",
"#y c #000000",
"#I c #000000",
"#W c #000000",
"#X c #000000",
"#Q c #000000",
"#Y c #000000",
"#R c #000000",
"#K c #000000",
"#J c #000000",
"#S c #000000",
".2 c #000008",
".U c #005477",
".8 c #020101",
".g c #060808",
".D c #061e11",
".Y c #080014",
".r c #080808",
".b c #0c1211",
".5 c #0f0e11",
".c c #131314",
".u c #140500",
".# c #1a2520",
".B c #1e194b",
".f c #212828",
".n c #26252c",
".3 c #282829",
".d c #2b3932",
".H c #313539",
".N c #35353a",
".T c #382966",
".a c #3a4a42",
".i c #3d3d3d",
".p c #444448",
".l c #463626",
".F c #47474e",
".A c #490008",
".0 c #4a2121",
".M c #51545b",
".Z c #525351",
".4 c #535353",
".Q c #554783",
".R c #562f1d",
".W c #563521",
".e c #585c5e",
".6 c #655324",
".X c #665e9a",
".q c #6d2029",
".z c #6e0023",
".L c #6f6f76",
".S c #72472d",
".x c #7291ea",
".o c #797a7c",
".h c #798487",
".7 c #7a603f",
".P c #822d1e",
".V c #838384",
".9 c #8b682a",
".O c #946c45",
".s c #9e99a6",
".1 c #a3a3aa",
".K c #ad473d",
".v c #adb2af",
".C c #b00a35",
".t c #b14432",
".w c #ccd3d6",
".j c #e49e87",
".y c #e5f4ff",
".k c #e67160",
".I c #e87252",
".m c #f7e0d0",
".E c #ff2f58",
".G c #ffbf75",
".J c #ffef7c",
"QtQtQtQtQtQtQtQtQtQtQtQtQtQtQtQtQtQtQtQtQtQtQtQtQtQtQtQtQtQtQtQtQtQtQtQtQtQtQtQtQtQtQtQtQtQtQtQtQtQtQtQtQtQtQtQtQtQtQtQtQtQtQtQt",
"QtQtQtQtQtQtQtQtQtQtQtQtQtQtQtQtQtQtQtQtQtQtQtQtQtQtQtQtQtQtQtQtQtQtQtQtQtQt.#.#.aQtQtQtQtQtQtQtQtQtQtQtQtQtQtQtQtQtQtQtQtQtQtQt",
"QtQtQtQtQtQtQtQtQtQtQtQtQtQtQtQtQtQtQtQtQtQtQtQtQtQtQtQtQt.b.b.b.c.bQtQtQt.#.d.a.e.aQtQtQtQtQtQtQtQtQtQtQtQtQtQtQtQtQtQtQtQtQtQt",
"QtQtQtQtQtQtQtQtQtQtQtQtQtQtQtQtQtQtQtQtQtQtQtQtQtQtQtQt.#.a.a.#.f.#.c.g.h.e.#.d.e.h.eQtQtQtQtQtQtQtQtQtQtQtQtQtQtQtQtQtQtQtQtQt",
"QtQtQtQtQtQtQtQtQtQtQtQtQtQtQtQtQtQtQtQtQtQtQtQtQtQtQt.d.e.d.#.i.d.#.f.b.g.h.d.#.a.e.hQtQtQtQtQtQtQtQtQtQtQtQtQtQtQtQtQtQtQtQtQt",
"QtQtQtQtQtQtQtQtQtQtQtQtQtQtQtQtQtQtQtQtQtQtQtQt.bQt.d.h.d.#.d.e.a.a.d.#.b.g.b.#.a.d.h.#QtQtQtQtQtQtQtQtQtQtQtQtQtQtQtQtQtQtQtQt",
"QtQtQtQtQtQtQtQtQtQtQtQtQtQtQtQtQtQtQtQtQtQtQtQtQt.#.d.h.d.d.h.#.#.#.b.d.#.b.b.b.a.d.e.#QtQtQtQtQtQtQtQtQtQtQtQtQtQtQtQtQtQtQtQt",
"QtQtQtQtQtQtQtQtQtQtQtQtQtQtQtQtQtQtQtQtQtQtQtQtQtQt.#.e.d.e.#.h.e.a.#.b.#.#.b.b.a.#.e.dQtQtQtQtQtQtQtQtQtQtQtQtQtQtQtQtQtQtQtQt",
"QtQtQtQtQtQtQtQtQtQtQtQtQtQtQtQtQtQtQtQtQtQtQtQtQt.b.#.j.j.k.e.#.d.f.d.#.b.l.bQt.d.#.a.dQtQtQtQtQtQtQtQtQtQtQtQtQtQtQtQtQtQtQtQt",
"QtQtQtQtQtQtQtQtQtQtQtQtQtQtQtQtQtQtQtQtQtQtQtQt.bQt.#.m.m.m.j.d.n.b.#.d.b.bQtQt.#.o.o.pQtQtQtQtQtQtQtQtQtQtQtQtQtQtQtQtQtQtQtQt",
"QtQtQtQtQtQtQtQtQtQtQtQtQtQtQtQtQtQtQtQtQtQtQtQt.bQt.b.m.m.k.q.q.d.b.b.#.#.c.bQt.o.r.s.pQtQtQtQtQtQtQtQtQtQtQtQtQtQtQtQtQtQtQtQt",
"QtQtQtQtQtQtQtQtQtQtQtQtQtQtQtQtQtQtQtQtQtQtQtQtQtQt.k.j.t.u.v.r.d.b.j.b.#.b.bQt.o.r.w.pQtQtQtQtQtQtQtQtQtQtQtQtQtQtQtQtQtQtQtQt",
"QtQtQtQtQtQtQtQtQtQtQtQtQtQtQtQtQtQtQtQtQtQtQtQtQtQt.k.j.j.x.y.r.a.b.k.#.b.#Qt.r.p.s.s.pQtQtQtQtQtQtQtQtQtQtQtQtQtQtQtQtQtQtQtQt",
"QtQtQtQtQtQtQtQtQtQtQtQtQtQtQtQtQtQtQtQtQtQtQtQtQtQt.t.m.m.m.m.j.a.b.g.b.#QtQt.r.o.r.r.a.#QtQtQtQtQtQtQtQtQtQtQtQtQtQtQtQtQtQtQt",
"QtQtQtQtQtQtQtQtQtQtQtQtQtQtQtQtQtQtQtQtQtQtQtQtQtQt.t.j.m.m.m.j.a.b.z.A.bQt.r.p.p.r.b.a.dQtQtQtQtQtQtQtQtQtQtQtQtQtQtQtQtQtQtQt",
"QtQtQtQtQtQtQtQtQtQtQtQtQtQtQtQtQtQtQtQtQtQtQtQtQtQt.b.t.j.m.j.a.b.B.C.z.g.r.r.o.r.d.b.d.aQtQtQtQtQtQtQtQtQtQtQtQtQtQtQtQtQtQtQt",
"QtQtQtQtQtQtQtQtQtQtQtQtQtQtQtQtQtQtQtQtQtQtQtQtQtQt.b.D.t.j.k.d.b.C.E.z.A.r.p.o.r.#.#.d.FQtQtQtQtQtQtQtQtQtQtQtQtQtQtQtQtQtQtQt",
"QtQtQtQtQtQtQtQtQtQtQtQtQtQtQtQtQtQtQtQtQtQtQtQtQt.b.g.F.q.B.a.#.F.G.E.G.z.A.p.rQt.#.d.#.e.#QtQtQtQtQtQtQtQtQtQtQtQtQtQtQtQtQtQt",
"QtQtQtQtQtQtQtQtQtQtQtQtQtQtQtQtQtQtQtQtQtQtQtQtQt.b.F.H.t.B.d.I.C.J.E.G.z.A.K.rQt.b.d.#.e.dQtQtQtQtQtQtQtQtQtQtQtQtQtQtQtQtQtQt",
"QtQtQtQtQtQtQtQtQtQtQtQtQtQtQtQtQtQtQtQtQtQtQtQtQt.g.H.D.F.a.b.I.z.G.C.I.A.A.K.p.r.r.#.b.e.aQtQtQtQtQtQtQtQtQtQtQtQtQtQtQtQtQtQt",
"QtQtQtQtQtQtQtQtQtQtQtQtQtQtQtQtQtQtQtQtQtQtQtQtQt.p.D.F.L.M.B.B.J.z.C.A.A.I.o.p.q.r.#.b.e.a.#QtQtQtQtQtQtQtQtQtQtQtQtQtQtQtQtQt",
"QtQtQtQtQtQtQtQtQtQtQtQtQtQtQtQtQtQtQtQtQtQtQtQtQt.H.D.F.N.#.O.B.I.G.z.A.K.P.o.F.r.c.b.f.a.d.#QtQtQtQtQtQtQtQtQtQtQtQtQtQtQtQtQt",
"QtQtQtQtQtQtQtQtQtQtQtQtQtQtQtQtQtQtQtQtQtQtQtQtQt.D.D.D.L.b.Q.B.G.C.G.K.A.K.o.p.q.r.c.f.a.#.dQtQtQtQtQtQtQtQtQtQtQtQtQtQtQtQtQt",
"QtQtQtQtQtQtQtQtQtQtQtQtQtQtQtQtQtQtQtQtQtQtQtQtQt.R.S.S.L.Q.Q.T.B.G.z.A.K.B.o.r.r.b.#.#.d.#.FQtQtQtQtQtQtQtQtQtQtQtQtQtQtQtQtQt",
"QtQtQtQtQtQtQtQtQtQtQtQtQtQtQtQtQtQtQtQtQtQtQtQtQt.D.H.H.L.Q.T.T.B.B.I.K.B.r.oQt.r.c.#.b.d.b.FQtQtQtQtQtQtQtQtQtQtQtQtQtQtQtQtQt",
"QtQtQtQtQtQtQtQtQtQtQtQtQtQtQtQtQtQtQtQtQtQtQtQtQt.D.H.D.F.Q.T.T.B.Q.B.B.T.#.r.U.r.b.#.b.d.b.aQtQtQtQtQtQtQtQtQtQtQtQtQtQtQtQtQt",
"QtQtQtQtQtQtQtQtQtQtQtQtQtQtQtQtQtQtQtQtQtQtQtQtQt.V.v.S.F.R.W.W.S.Q.X.X.T.#.p.rQt.b.b.c.#.b.FQtQtQtQtQtQtQtQtQtQtQtQtQtQtQtQtQt",
"QtQtQtQtQtQtQtQtQtQtQtQtQtQtQtQtQtQtQtQtQtQtQtQtQt.R.S.O.O.R.S.W.Y.Q.X.Q.B.n.p.rQtQt.b.c.#.b.aQtQtQtQtQtQtQtQtQtQtQtQtQtQtQtQtQt",
"QtQtQtQtQtQtQtQtQtQtQtQtQtQtQtQtQtQtQtQtQtQtQtQt.Z.D.0.D.F.R.S.S.R.Q.Q.Q.B.b.#QtQtQt.b.c.#.b.a.#QtQtQtQtQtQtQtQtQtQtQtQtQtQtQtQt",
"QtQtQtQtQtQtQtQtQtQtQtQtQtQtQtQtQtQtQtQtQtQtQtQt.F.H.D.0.F.H.O.S.Q.Q.Q.Q.B.b.#QtQtQt.b.c.#.b.d.#QtQtQtQtQtQtQtQtQtQtQtQtQtQtQtQt",
"QtQtQtQtQtQtQtQtQtQtQtQtQtQtQtQtQtQtQtQtQtQtQtQt.H.R.D.R.0.0.R.R.Q.Q.Q.T.b.d.#QtQtQt.b.b.b.c.#.dQtQtQtQtQtQtQtQtQtQtQtQtQtQtQtQt",
"QtQtQtQtQtQtQtQtQtQtQtQtQtQtQtQtQtQtQtQtQtQtQtQt.R.S.D.S.F.N.T.T.L.1.1.T.Y.b.b.#QtQtQt.b.b.b.b.dQtQtQtQtQtQtQtQtQtQtQtQtQtQtQtQt",
"QtQtQtQtQtQtQtQtQtQtQtQtQtQtQtQtQtQtQtQtQtQtQtQt.D.R.2.O.d.H.T.t.3.3.T.F.Y.c.d.#QtQtQt.b.b.bQt.#.dQtQtQtQtQtQtQtQtQtQtQtQtQtQtQt",
"QtQtQtQtQtQtQtQtQtQtQtQtQtQtQtQtQtQtQtQtQtQtQtQt.2.D.2.D.L.H.k.j.Z.4.3.f.Y.Y.d.#QtQtQt.b.b.bQtQt.#QtQtQtQtQtQtQtQtQtQtQtQtQtQtQt",
"QtQtQtQtQtQtQtQtQtQtQtQtQtQtQtQtQtQtQtQtQtQtQt.Y.g.D.Y.2.L.H.j.3.e.M.3.f.b.Y.5.b.#QtQt.b.bQtQtQtQtQtQtQtQtQtQtQtQtQtQtQtQtQtQtQt",
"QtQtQtQtQtQtQtQtQtQtQtQtQtQtQtQtQtQtQtQtQtQtQt.Y.g.b.#.2.L.H.3.e.i.Z.n.c.D.Y.Y.d.#QtQtQt.bQtQtQtQtQtQtQtQtQtQtQtQtQtQtQtQtQtQtQt",
"QtQtQtQtQtQtQtQtQtQtQtQtQtQtQtQtQtQtQtQtQtQtQt.Y.g.D.F.D.2.F.t.j.k.3.c.B.B.D.Y.d.b.#QtQtQtQtQtQtQtQtQtQtQtQtQtQtQtQtQtQtQtQtQtQt",
"QtQtQtQtQtQtQtQtQtQtQtQtQtQtQtQtQtQtQtQtQtQtQt.Y.Y.D.F.H.D.F.6.q.t.q.T.B.B.D.Y.d.d.#QtQtQtQtQtQtQtQtQtQtQtQtQtQtQtQtQtQtQtQtQtQt",
"QtQtQtQtQtQtQtQtQtQtQtQtQtQtQtQtQtQtQtQtQtQtQt.Y.5.2.H.H.D.L.6.Q.T.T.T.T.B.B.D.Y.d.bQtQtQtQtQtQtQtQtQtQtQtQtQtQtQtQtQtQtQtQtQtQt",
"QtQtQtQtQtQtQtQtQtQtQtQtQtQtQtQtQtQtQtQtQtQtQt.Y.Y.4.3.D.D.L.6.Q.T.T.T.T.B.B.D.Y.V.H.#QtQtQtQtQtQtQtQtQtQtQtQtQtQtQtQtQtQtQtQtQt",
"QtQtQtQtQtQtQtQtQtQtQtQtQtQtQtQtQtQtQtQtQtQt.Y.Y.Y.M.V.3.D.L.6.Q.T.T.Q.T.T.B.D.Y.Y.H.#QtQtQtQtQtQtQtQtQtQtQtQtQtQtQtQtQtQtQtQtQt",
"QtQtQtQtQtQtQtQtQtQtQtQtQtQtQtQtQtQtQtQtQtQt.Y.Y.Y.4.V.V.3.1.6.Q.Q.T.T.T.T.B.B.D.Y.V.W.#QtQtQtQtQtQtQtQtQtQtQtQtQtQtQtQtQtQtQtQt",
"QtQtQtQtQtQtQtQtQtQtQtQtQtQtQtQtQtQtQtQtQtQt.Y.Y.Y.3.4.4.4.1.6.Q.Q.T.T.Q.T.B.B.D.Y.v.7.#QtQtQtQtQtQtQtQtQtQtQtQtQtQtQtQtQtQtQtQt",
"QtQtQtQtQtQtQtQtQtQtQtQtQtQtQtQtQtQtQtQtQtQt.Y.Y.Y.r.3.4.3.1.6.X.Q.T.T.Q.T.T.B.D.Y.Y.N.#QtQtQtQtQtQtQtQtQtQtQtQtQtQtQtQtQtQtQtQt",
"QtQtQtQtQtQtQtQtQtQtQtQtQtQtQtQtQtQtQtQtQtQt.Y.Y.Y.Y.r.8.8.8.L.X.Q.Q.T.Q.Q.T.B.B.D.Y.v.d.4QtQtQtQtQtQtQtQtQtQtQtQtQtQtQtQtQtQtQt",
"QtQtQtQtQtQtQtQtQtQtQtQtQtQtQtQtQtQtQtQtQtQt.Y.Y.Y.Y.c.c.c.c.L.9.Q.Q.T.T.Q.T.B.B.D.YQt.V.4QtQtQtQtQtQtQtQtQtQtQtQtQtQtQtQtQtQtQt",
"QtQtQtQtQtQtQtQtQtQtQtQtQtQtQtQtQtQtQtQtQtQt.Y.Y.Y.Y.M.V.M.3.1.9.X.Q.T.T.Q.T.T.B.DQtQt.v.VQtQtQtQtQtQtQtQtQtQtQtQtQtQtQtQtQtQtQt",
"QtQtQtQtQtQtQtQtQtQtQtQtQtQtQtQtQtQtQtQtQtQt.Y.Y.YQt.8.3.3.c.1.9.X.Q.Q.T.Q.Q.T.BQtQtQtQt.vQtQtQtQtQtQtQtQtQtQtQtQtQtQtQtQtQtQtQt",
"QtQtQtQtQtQtQtQtQtQtQtQtQtQtQtQtQtQtQtQtQt#..Y.2#.#..c.Z.M.c.1.9.X.Q.Q.T.Q.Q.T.8#.QtQtQtQtQtQtQtQtQtQtQtQtQtQtQtQtQtQtQtQtQtQtQt",
"QtQtQtQtQtQtQtQtQtQtQtQtQtQtQtQtQt#.#.#.###a.8#b#c.8.M.V.M.3.1.9.X.X.Q.T.Q.M.c.8#a###.#.#.QtQtQtQtQtQtQtQtQtQtQtQtQtQtQtQtQtQtQt",
"QtQtQtQtQtQtQtQtQtQtQtQtQtQtQt#.#.#a#b#d#e#f#g#h.8.c.3.3.#.8.1.9.X.X.Q.8.c.n.3.r#f#e#d#b#a#.#.QtQtQtQtQtQtQtQtQtQtQtQtQtQtQtQtQt",
"QtQtQtQtQtQtQtQtQtQtQtQtQtQt#.#a#i#j#k#l#m#n.r.3.M.o.o.3.3.c.1.9.X#o.c.M.M.c.5.r#p#q#l#k#j#i#a#.QtQtQtQtQtQtQtQtQtQtQtQtQtQtQtQt",
"QtQtQtQtQtQtQtQtQtQtQtQtQt#.#r#s#t#u#v#w#o#x.8.5.3.3.3.c.r.c.8#y#z.M.v.v.4.3.c.r#x#o#w#v#u#A#s#r#.QtQtQtQtQtQtQtQtQtQtQtQtQtQtQt",
"QtQtQtQtQtQtQtQtQtQtQtQt#.#a#B#C#D#E#F#G#H#I.8.8.8.8.8.8.8.8#J#J#K.c.3.3.3.3.c.r#I#H#G#F#E#D#C#B#a#.QtQtQtQtQtQtQtQtQtQtQtQtQtQt",
"QtQtQtQtQtQtQtQtQtQtQtQt#.#L#M#N#O#P#I#Q#R#J#J#J#J#J#S#S#S#S#S#S.8.M.o.o.M.3.c.8#J#R#Q#I#P#O#N#M#L#.QtQtQtQtQtQtQtQtQtQtQtQtQtQt",
"QtQtQtQtQtQtQtQtQtQtQtQt#.#L#T#N#O#G#I#Q#R#J#J#J#J#J#S#S#S#S#S#S.8.3.3.3.c.c.8.8#J#R#Q#I#G#O#U#T#L#.QtQtQtQtQtQtQtQtQtQtQtQtQtQt",
"QtQtQtQtQtQtQtQtQtQtQtQt#.#V#B#C#D#E#F#G#H#I#W#X#Q#Y#Y#R#K#K#J#J.8.8.8.8.8.8#X#W#I#H#G#F#E#D#C#B#V#.QtQtQtQtQtQtQtQtQtQtQtQtQtQt",
"QtQtQtQtQtQtQtQtQtQtQtQtQt#.#r#Z#A#0#D#1#o#x#2#3#4#5#6#7#8#y#y#y#y#8#7#6#5#4#3#2#x#o#1#D#0#A#Z#r#.QtQtQtQtQtQtQtQtQtQtQtQtQtQtQt",
"QtQtQtQtQtQtQtQtQtQtQtQtQtQt#.#V#d#j#k#l#q#p#9a.a#aaab#Eac#Oadad#Oac#Eabaaa#a.#9#p#q#l#k#j#d#V#.QtQtQtQtQtQtQtQtQtQtQtQtQtQtQtQt",
"QtQtQtQtQtQtQtQtQtQtQtQtQtQtQt#.#.#a#b#d#e#f#g#haeafagahaiaj#m#majaiahagafae#h#g#f#B#d#b#a#.#.QtQtQtQtQtQtQtQtQtQtQtQtQtQtQtQtQt",
"QtQtQtQtQtQtQtQtQtQtQtQtQtQtQtQtQt#.#.#.###a#r#b#c#dakalalalamamalalalak#d#c#b#r#a###.#.#.QtQtQtQtQtQtQtQtQtQtQtQtQtQtQtQtQtQtQt",
"QtQtQtQtQtQtQtQtQtQtQtQtQtQtQtQtQtQtQtQtQt#.#.#.#.#.#.#.#.#.#.#.#.#.#.#.#.#.#.#.#.QtQtQtQtQtQtQtQtQtQtQtQtQtQtQtQtQtQtQtQtQtQtQt",
"QtQtQtQtQtQtQtQtQtQtQtQtQtQtQtQtQtQtQtQtQtQtQtQtQtQtQtQtQtQtQtQtQtQtQtQtQtQtQtQtQtQtQtQtQtQtQtQtQtQtQtQtQtQtQtQtQtQtQtQtQtQtQtQt",
"QtQtQtQtQtQtQtQtQtQtQtQtQtQtQtQtQtQtQtQtQtQtQtQtQtQtQtQtQtQtQtQtQtQtQtQtQtQtQtQtQtQtQtQtQtQtQtQtQtQtQtQtQtQtQtQtQtQtQtQtQtQtQtQt"};
