/* XPM */
static char *dummy[]={
"64 64 142 2",
"Qt c None",
"#. c #000000",
"## c #000000",
"#a c #000000",
"#X c #000000",
"#b c #000000",
"#N c #000000",
"#c c #000000",
"ai c #000000",
"#h c #000000",
"#d c #000000",
"aj c #000000",
"ak c #000000",
"al c #000000",
"#e c #000000",
"#C c #000000",
"#r c #000000",
"#0 c #000000",
"#i c #000000",
"#f c #000000",
"#O c #000000",
"#V c #000000",
"#g c #000000",
"#j c #000000",
"ab c #000000",
"#s c #000000",
"#B c #000000",
"ac c #000000",
"#k c #000000",
"ad c #000000",
"#D c #000000",
"ae c #000000",
"af c #000000",
"ag c #000000",
"ah c #000000",
"#l c #000000",
"#q c #000000",
"#t c #000000",
"#1 c #000000",
"#m c #000000",
"#p c #000000",
"#P c #000000",
"#W c #000000",
"#n c #000000",
"#u c #000000",
"#E c #000000",
"#o c #000000",
"#8 c #000000",
"#v c #000000",
"#2 c #000000",
"#9 c #000000",
"a. c #000000",
"#F c #000000",
"#w c #000000",
"a# c #000000",
"#Q c #000000",
"aa c #000000",
"#x c #000000",
"#G c #000000",
"#y c #000000",
"#A c #000000",
"#z c #000000",
"#R c #000000",
"#H c #000000",
"#3 c #000000",
"#4 c #000000",
"#5 c #000000",
"#I c #000000",
"#6 c #000000",
"#7 c #000000",
"#M c #000000",
"#L c #000000",
"#K c #000000",
"#J c #000000",
"#Z c #000000",
"#U c #000000",
"#Y c #000000",
"#T c #000000",
"#S c #000000",
".3 c #000008",
".X c #005477",
".0 c #020101",
".g c #060808",
".A c #061e11",
".V c #080014",
".r c #080808",
".b c #0c1211",
".z c #0f0e11",
".c c #131314",
".u c #140500",
".# c #1a2520",
".H c #1e194b",
".f c #212828",
".n c #26252c",
".2 c #282829",
".d c #2b3932",
".B c #313539",
".O c #35353a",
".U c #382966",
".a c #3a4a42",
".i c #3d3d3d",
".p c #444448",
".l c #463626",
".E c #47474e",
".D c #490008",
".Z c #4a2121",
".N c #51545b",
".4 c #525351",
".8 c #535353",
".Q c #554783",
".S c #562f1d",
".Y c #563521",
".e c #585c5e",
".6 c #655324",
".W c #665e9a",
".q c #6d2029",
".C c #6e0023",
".M c #6f6f76",
".T c #72472d",
".x c #7291ea",
".o c #797a7c",
".h c #798487",
".7 c #7a603f",
".R c #822d1e",
".5 c #838384",
".9 c #8b682a",
".P c #946c45",
".s c #9e99a6",
".1 c #a3a3aa",
".L c #ad473d",
".v c #adb2af",
".F c #b00a35",
".t c #b14432",
".w c #ccd3d6",
".j c #e49e87",
".y c #e5f4ff",
".k c #e67160",
".J c #e87252",
".m c #f7e0d0",
".G c #ff2f58",
".I c #ffbf75",
".K c #ffef7c",
"QtQtQtQtQtQtQtQtQtQtQtQtQtQtQtQtQtQtQtQtQtQtQtQtQtQtQtQtQtQtQtQtQtQtQtQtQtQtQtQtQtQtQtQtQtQtQtQtQtQtQtQtQtQtQtQtQtQtQtQtQtQtQtQt",
"QtQtQtQtQtQtQtQtQtQtQtQtQtQtQtQtQtQtQtQtQtQtQtQtQtQtQtQtQtQtQtQtQtQtQtQtQtQtQtQtQtQtQtQtQtQtQtQtQtQtQtQtQtQtQtQtQtQtQtQtQtQtQtQt",
"QtQtQtQtQtQtQtQtQtQtQtQtQtQtQtQtQtQtQtQtQtQtQtQtQtQtQtQtQtQtQtQtQtQtQtQtQtQt.#.#.aQtQtQtQtQtQtQtQtQtQtQtQtQtQtQtQtQtQtQtQtQtQtQt",
"QtQtQtQtQtQtQtQtQtQtQtQtQtQtQtQtQtQtQtQtQtQtQtQtQtQtQtQtQt.b.b.b.c.bQtQtQt.#.d.a.e.aQtQtQtQtQtQtQtQtQtQtQtQtQtQtQtQtQtQtQtQtQtQt",
"QtQtQtQtQtQtQtQtQtQtQtQtQtQtQtQtQtQtQtQtQtQtQtQtQtQtQtQt.#.a.a.#.f.#.c.g.h.e.#.d.e.h.eQtQtQtQtQtQtQtQtQtQtQtQtQtQtQtQtQtQtQtQtQt",
"QtQtQtQtQtQtQtQtQtQtQtQtQtQtQtQtQtQtQtQtQtQtQtQtQtQtQt.d.e.d.#.d.i.#.f.b.g.h.d.#.a.e.hQtQtQtQtQtQtQtQtQtQtQtQtQtQtQtQtQtQtQtQtQt",
"QtQtQtQtQtQtQtQtQtQtQtQtQtQtQtQtQtQtQtQtQtQtQtQt.bQt.d.h.d.#.d.e.a.a.d.#.b.g.b.f.a.d.h.#QtQtQtQtQtQtQtQtQtQtQtQtQtQtQtQtQtQtQtQt",
"QtQtQtQtQtQtQtQtQtQtQtQtQtQtQtQtQtQtQtQtQtQtQtQtQt.#.d.h.d.d.h.#.#.#.b.d.#.b.b.b.a.d.e.#QtQtQtQtQtQtQtQtQtQtQtQtQtQtQtQtQtQtQtQt",
"QtQtQtQtQtQtQtQtQtQtQtQtQtQtQtQtQtQtQtQtQtQtQtQtQtQt.#.e.d.e.#.h.e.a.#.b.#.#.b.b.a.#.e.dQtQtQtQtQtQtQtQtQtQtQtQtQtQtQtQtQtQtQtQt",
"QtQtQtQtQtQtQtQtQtQtQtQtQtQtQtQtQtQtQtQtQtQtQtQtQt.b.#.j.j.k.e.#.d.f.d.#.b.l.bQt.d.#.a.dQtQtQtQtQtQtQtQtQtQtQtQtQtQtQtQtQtQtQtQt",
"QtQtQtQtQtQtQtQtQtQtQtQtQtQtQtQtQtQtQtQtQtQtQtQt.bQt.#.m.m.m.j.d.n.b.#.d.b.bQtQt.#.o.o.pQtQtQtQtQtQtQtQtQtQtQtQtQtQtQtQtQtQtQtQt",
"QtQtQtQtQtQtQtQtQtQtQtQtQtQtQtQtQtQtQtQtQtQtQtQt.bQt.b.m.m.k.q.q.d.b.b.#.#.c.bQt.o.r.s.pQtQtQtQtQtQtQtQtQtQtQtQtQtQtQtQtQtQtQtQt",
"QtQtQtQtQtQtQtQtQtQtQtQtQtQtQtQtQtQtQtQtQtQtQtQtQtQt.k.j.t.u.v.r.d.b.j.b.#.b.bQt.o.r.w.pQtQtQtQtQtQtQtQtQtQtQtQtQtQtQtQtQtQtQtQt",
"QtQtQtQtQtQtQtQtQtQtQtQtQtQtQtQtQtQtQtQtQtQtQtQtQtQt.k.j.j.x.y.r.a.b.k.#.b.#Qt.r.p.s.s.pQtQtQtQtQtQtQtQtQtQtQtQtQtQtQtQtQtQtQtQt",
"QtQtQtQtQtQtQtQtQtQtQtQtQtQtQtQtQtQtQtQtQtQtQtQtQtQt.t.m.m.m.m.j.a.b.z.b.#QtQt.r.o.r.r.a.#QtQtQtQtQtQtQtQtQtQtQtQtQtQtQtQtQtQtQt",
"QtQtQtQtQtQtQtQtQtQtQtQtQtQtQtQtQtQtQtQtQtQtQtQtQtQt.t.j.m.m.m.j.a.b.g.g.bQt.r.p.p.r.b.a.dQtQtQtQtQtQtQtQtQtQtQtQtQtQtQtQtQtQtQt",
"QtQtQtQtQtQtQtQtQtQtQtQtQtQtQtQtQtQtQtQtQtQtQtQtQtQt.b.t.j.m.j.a.b.A.B.C.D.r.r.o.r.d.b.d.aQtQtQtQtQtQtQtQtQtQtQtQtQtQtQtQtQtQtQt",
"QtQtQtQtQtQtQtQtQtQtQtQtQtQtQtQtQtQtQtQtQtQtQtQtQtQt.b.A.t.j.k.d.b.E.E.F.C.r.p.o.r.#.#.d.aQtQtQtQtQtQtQtQtQtQtQtQtQtQtQtQtQtQtQt",
"QtQtQtQtQtQtQtQtQtQtQtQtQtQtQtQtQtQtQtQtQtQtQtQtQt.b.g.E.q.t.a.#.E.E.F.G.C.D.p.r.#.d.#.e.#QtQtQtQtQtQtQtQtQtQtQtQtQtQtQtQtQtQtQt",
"QtQtQtQtQtQtQtQtQtQtQtQtQtQtQtQtQtQtQtQtQtQtQtQtQt.b.E.B.t.B.d.b.E.H.I.G.I.C.D.r.b.d.#.e.dQtQtQtQtQtQtQtQtQtQtQtQtQtQtQtQtQtQtQt",
"QtQtQtQtQtQtQtQtQtQtQtQtQtQtQtQtQtQtQtQtQtQtQtQtQt.g.B.A.E.p.b.E.J.F.K.G.I.C.D.L.r.z.b.e.aQtQtQtQtQtQtQtQtQtQtQtQtQtQtQtQtQtQtQt",
"QtQtQtQtQtQtQtQtQtQtQtQtQtQtQtQtQtQtQtQtQtQtQtQtQt.p.A.E.M.N.E.H.J.C.I.F.J.D.D.L.q.r.b.e.a.#QtQtQtQtQtQtQtQtQtQtQtQtQtQtQtQtQtQt",
"QtQtQtQtQtQtQtQtQtQtQtQtQtQtQtQtQtQtQtQtQtQtQtQtQt.B.A.E.O.#.P.H.J.K.C.F.D.D.J.p.r.r.f.a.d.#QtQtQtQtQtQtQtQtQtQtQtQtQtQtQtQtQtQt",
"QtQtQtQtQtQtQtQtQtQtQtQtQtQtQtQtQtQtQtQtQtQtQtQtQt.A.A.A.M.b.Q.Q.H.J.I.C.D.L.R.p.q.r.#.a.#.dQtQtQtQtQtQtQtQtQtQtQtQtQtQtQtQtQtQt",
"QtQtQtQtQtQtQtQtQtQtQtQtQtQtQtQtQtQtQtQtQtQtQtQtQt.S.T.T.M.Q.Q.U.H.I.F.I.L.D.L.r.r.b.#.d.#.aQtQtQtQtQtQtQtQtQtQtQtQtQtQtQtQtQtQt",
"QtQtQtQtQtQtQtQtQtQtQtQtQtQtQtQtQtQtQtQtQtQtQtQtQtQt.B.B.M.Q.U.U.U.H.I.C.D.L.VQt.r.c.#.b.d.b.EQtQtQtQtQtQtQtQtQtQtQtQtQtQtQtQtQt",
"QtQtQtQtQtQtQtQtQtQtQtQtQtQtQtQtQtQtQtQtQtQtQtQtQtQt.B.A.E.Q.U.U.U.H.W.J.L.H.V.X.r.b.#.b.d.b.aQtQtQtQtQtQtQtQtQtQtQtQtQtQtQtQtQt",
"QtQtQtQtQtQtQtQtQtQtQtQtQtQtQtQtQtQtQtQtQtQtQtQtQtQt.v.T.E.S.Y.Y.H.H.W.Q.U.U.H.rQt.b.b.c.#.b.EQtQtQtQtQtQtQtQtQtQtQtQtQtQtQtQtQt",
"QtQtQtQtQtQtQtQtQtQtQtQtQtQtQtQtQtQtQtQtQtQtQtQtQtQt.T.P.P.S.T.S.V.H.Q.Q.U.U.H.rQtQt.b.c.#.b.aQtQtQtQtQtQtQtQtQtQtQtQtQtQtQtQtQt",
"QtQtQtQtQtQtQtQtQtQtQtQtQtQtQtQtQtQtQtQtQtQtQtQtQtQt.Z.A.B.S.H.H.U.H.Q.Q.Q.U.HQtQtQt.b.c.#.b.a.#QtQtQtQtQtQtQtQtQtQtQtQtQtQtQtQt",
"QtQtQtQtQtQtQtQtQtQtQtQtQtQtQtQtQtQtQtQtQtQtQtQtQt.0.A.Z.O.B.H.H.U.H.U.Q.Q.U.HQtQtQt.b.c.#.b.d.#QtQtQtQtQtQtQtQtQtQtQtQtQtQtQtQt",
"QtQtQtQtQtQtQtQtQtQtQtQtQtQtQtQtQtQtQtQtQtQtQtQtQt.S.A.S.B.B.H.H.U.H.U.Q.Q.U.HQtQtQt.b.b.b.b.#.iQtQtQtQtQtQtQtQtQtQtQtQtQtQtQtQt",
"QtQtQtQtQtQtQtQtQtQtQtQtQtQtQtQtQtQtQtQtQtQtQtQt.0.T.A.P.B.O.H.H.H.H.M.1.M.E.H.#QtQtQt.b.b.b.b.d.dQtQtQtQtQtQtQtQtQtQtQtQtQtQtQt",
"QtQtQtQtQtQtQtQtQtQtQtQtQtQtQtQtQtQtQtQtQtQtQtQt.2.S.3.P.E.l.U.H.U.H.U.U.H.H.V.#QtQtQt.b.b.bQt.#.dQtQtQtQtQtQtQtQtQtQtQtQtQtQtQt",
"QtQtQtQtQtQtQtQtQtQtQtQtQtQtQtQtQtQtQtQtQtQtQtQt.0.A.g.V.E.l.U.H.U.H.0.2.2.0.V.fQtQtQt.b.b.bQtQt.#QtQtQtQtQtQtQtQtQtQtQtQtQtQtQt",
"QtQtQtQtQtQtQtQtQtQtQtQtQtQtQtQtQtQtQtQtQtQtQtQtQt.A.V.V.E.l.Q.H.U.0.2.p.4.2.0.c.#QtQtQt.b.bQtQtQtQtQtQtQtQtQtQtQtQtQtQtQtQtQtQt",
"QtQtQtQtQtQtQtQtQtQtQtQtQtQtQtQtQtQtQtQtQtQtQtQtQtQt.A.V.E.l.Q.H.0.k.i.2.h.N.0.d.#QtQtQt.b.bQtQtQtQtQtQtQtQtQtQtQtQtQtQtQtQtQtQt",
"QtQtQtQtQtQtQtQtQtQtQtQtQtQtQtQtQtQtQtQtQtQtQtQtQtQt.A.E.M.l.Q.H.2.j.t.t.2.4.0.d.b.#QtQtQt.bQtQtQtQtQtQtQtQtQtQtQtQtQtQtQtQtQtQt",
"QtQtQtQtQtQtQtQtQtQtQtQtQtQtQtQtQtQtQtQtQtQtQtQtQtQt.0.E.M.l.Q.U.H.2.k.k.t.2.0.5.d.#QtQtQtQtQtQtQtQtQtQtQtQtQtQtQtQtQtQtQtQtQtQt",
"QtQtQtQtQtQtQtQtQtQtQtQtQtQtQtQtQtQtQtQtQtQtQtQtQtQt.0.B.M.6.Q.U.H.Q.U.t.k.0.H.v.d.bQtQtQtQtQtQtQtQtQtQtQtQtQtQtQtQtQtQtQtQtQtQt",
"QtQtQtQtQtQtQtQtQtQtQtQtQtQtQtQtQtQtQtQtQtQtQtQtQt.v.5.5.1.6.Q.U.H.U.Q.U.U.H.H.V.5.d.#QtQtQtQtQtQtQtQtQtQtQtQtQtQtQtQtQtQtQtQtQt",
"QtQtQtQtQtQtQtQtQtQtQtQtQtQtQtQtQtQtQtQtQtQtQtQt.v.y.w.M.1.6.Q.U.H.U.Q.U.U.H.H.V.v.d.#QtQtQtQtQtQtQtQtQtQtQtQtQtQtQtQtQtQtQtQtQt",
"QtQtQtQtQtQtQtQtQtQtQtQtQtQtQtQtQtQtQtQtQtQtQtQt.w.w.w.M.1.6.Q.U.U.H.Q.U.H.U.H.H.V.5.Y.#QtQtQtQtQtQtQtQtQtQtQtQtQtQtQtQtQtQtQtQt",
"QtQtQtQtQtQtQtQtQtQtQtQtQtQtQtQtQtQtQtQtQtQtQtQt.5.5.5.1.1.6.W.U.U.H.Q.Q.U.U.H.H.V.v.7.#QtQtQtQtQtQtQtQtQtQtQtQtQtQtQtQtQtQtQtQt",
"QtQtQtQtQtQtQtQtQtQtQtQtQtQtQtQtQtQtQtQtQtQtQtQt.8.5.5.1.1.9.W.U.U.H.U.Q.U.H.U.H.H.V.d.#QtQtQtQtQtQtQtQtQtQtQtQtQtQtQtQtQtQtQtQt",
"QtQtQtQtQtQtQtQtQtQtQtQtQtQtQtQtQtQtQtQtQtQtQtQtQt.8.5.1.1.9.W.U.U.H.U.Q.U.U.U.H.H.H.v.d.8QtQtQtQtQtQtQtQtQtQtQtQtQtQtQtQtQtQtQt",
"QtQtQtQtQtQtQtQtQtQtQtQtQtQtQtQtQtQtQtQtQtQtQtQtQt.0.c.1.M.9.W.Q.U.H.U.Q.Q.U.U.H.H.H.V.5.8QtQtQtQtQtQtQtQtQtQtQtQtQtQtQtQtQtQtQt",
"QtQtQtQtQtQtQtQtQtQtQtQtQtQtQtQtQtQtQtQtQtQtQtQtQt.0.2.1.M.9.W.Q.U.H.U.Q.Q.U.H.U.H.H.V.v.5QtQtQtQtQtQtQtQtQtQtQtQtQtQtQtQtQtQtQt",
"QtQtQtQtQtQtQtQtQtQtQtQtQtQtQtQtQtQtQtQtQtQt#.#.#..o.o.1.M.9.W.Q.U.H.H.U.Q.U.U.U.H.H.HQt.vQtQtQtQtQtQtQtQtQtQtQtQtQtQtQtQtQtQtQt",
"QtQtQtQtQtQtQtQtQtQtQtQtQtQtQtQtQtQt#.#.#.###a#b.0.c.2.1.M.9.W.Q.U.H.U.U.Q.Q.U.U.H.H.H#.#.#.QtQtQtQtQtQtQtQtQtQtQtQtQtQtQtQtQtQt",
"QtQtQtQtQtQtQtQtQtQtQtQtQtQtQtQt#.#.#a#c#d#e#f#g.0.2.2.1.M.9.W.Q.U.H.H.U.Q.Q.U.H.U#f#e#d#c#a#.#.QtQtQtQtQtQtQtQtQtQtQtQtQtQtQtQt",
"QtQtQtQtQtQtQtQtQtQtQtQtQtQtQt#.#a#h#i#j#k#l#m#n.0.o.o.1.M.6.W.Q.U.H.H.U.Q.Q.U#o#n#p#q#k#j#i#h#a#.QtQtQtQtQtQtQtQtQtQtQtQtQtQtQt",
"QtQtQtQtQtQtQtQtQtQtQtQtQtQt#.#b#r#s#t#u#v#w#x#y.c.2.2.1.M.6.W.Q.U.N.c.z.z.r#z#A#y#x#w#v#u#t#B#r#b#.QtQtQtQtQtQtQtQtQtQtQtQtQtQt",
"QtQtQtQtQtQtQtQtQtQtQtQtQt#.#a#C#D#E#F#G#H#I.c.c.v.N.2.n.c.0.r.N.c.c.z.r.g.r#J#K#L#M#I#H#G#F#E#D#C#a#.QtQtQtQtQtQtQtQtQtQtQtQtQt",
"QtQtQtQtQtQtQtQtQtQtQtQtQt#.#N#O#P#Q#R#M#J.c.2.o.2.o.N.c.z.0.r.0.g.0.g.r#S#T#T#T#T#T#U#J#M#R#Q#P#O#N#.QtQtQtQtQtQtQtQtQtQtQtQtQt",
"QtQtQtQtQtQtQtQtQtQtQtQtQt#.#N#V#P#Q#H#M#J.z.2.N.2.2.2.c.c.0#S#S#S#S#S#S#S#T#T#T#T#T#U#J#M#H#Q#W#V#N#.QtQtQtQtQtQtQtQtQtQtQtQtQt",
"QtQtQtQtQtQtQtQtQtQtQtQtQt#.#X#C#D#E#F#G#H.0.0.0.0.0.0.0.0.0#Y#T#T#Y#Y#U#Z#Z#J#K#L#M#I#H#G#F#E#D#C#X#.QtQtQtQtQtQtQtQtQtQtQtQtQt",
"QtQtQtQtQtQtQtQtQtQtQtQtQtQt#.#b#0#B#1#E#2#w#x#y#A#z#3#4#5#6#7#7#7#7#6#5#4#3#z#A#y#x#w#2#E#1#B#0#b#.QtQtQtQtQtQtQtQtQtQtQtQtQtQt",
"QtQtQtQtQtQtQtQtQtQtQtQtQtQtQt#.#X#d#i#j#k#q#p#n#o#8#9a.#Fa##Qaaaa#Qa##Fa.#9#8#o#n#p#q#k#j#i#d#X#.QtQtQtQtQtQtQtQtQtQtQtQtQtQtQt",
"QtQtQtQtQtQtQtQtQtQtQtQtQtQtQtQt#.#.#a#c#d#e#f#gabacadaeafagah#l#lahagafaeadacab#g#f#C#d#c#a#.#.QtQtQtQtQtQtQtQtQtQtQtQtQtQtQtQt",
"QtQtQtQtQtQtQtQtQtQtQtQtQtQtQtQtQtQt#.#.#.###a#b#cai#dajakakakalalakakakaj#dai#c#b#a###.#.#.QtQtQtQtQtQtQtQtQtQtQtQtQtQtQtQtQtQt",
"QtQtQtQtQtQtQtQtQtQtQtQtQtQtQtQtQtQtQtQtQtQt#.#.#.#.#.#.#.#.#.#.#.#.#.#.#.#.#.#.#.#.QtQtQtQtQtQtQtQtQtQtQtQtQtQtQtQtQtQtQtQtQtQt",
"QtQtQtQtQtQtQtQtQtQtQtQtQtQtQtQtQtQtQtQtQtQtQtQtQtQtQtQtQtQtQtQtQtQtQtQtQtQtQtQtQtQtQtQtQtQtQtQtQtQtQtQtQtQtQtQtQtQtQtQtQtQtQtQt",
"QtQtQtQtQtQtQtQtQtQtQtQtQtQtQtQtQtQtQtQtQtQtQtQtQtQtQtQtQtQtQtQtQtQtQtQtQtQtQtQtQtQtQtQtQtQtQtQtQtQtQtQtQtQtQtQtQtQtQtQtQtQtQtQt"};
