/* XPM */
static char *dummy[]={
"64 64 139 2",
"Qt c None",
".7 c #000000",
".8 c #000000",
".9 c #000000",
"#T c #000000",
"#k c #000000",
"#K c #000000",
"#. c #000000",
"af c #000000",
"#d c #000000",
"## c #000000",
"ag c #000000",
"ah c #000000",
"ai c #000000",
"#a c #000000",
"#y c #000000",
"#l c #000000",
"#W c #000000",
"#e c #000000",
"#c c #000000",
"#L c #000000",
"#R c #000000",
"#b c #000000",
"#f c #000000",
"a. c #000000",
"#m c #000000",
"#x c #000000",
"a# c #000000",
"#g c #000000",
"aa c #000000",
"#z c #000000",
"ab c #000000",
"ac c #000000",
"ad c #000000",
"ae c #000000",
"#h c #000000",
"#j c #000000",
"#n c #000000",
"#X c #000000",
"#i c #000000",
"#M c #000000",
"#S c #000000",
"#3 c #000000",
"#w c #000000",
"#A c #000000",
"#4 c #000000",
"#5 c #000000",
"#v c #000000",
"#Y c #000000",
"#6 c #000000",
"#7 c #000000",
"#J c #000000",
"#u c #000000",
"#8 c #000000",
"#N c #000000",
"#9 c #000000",
"#t c #000000",
"#I c #000000",
"#Z c #000000",
"#0 c #000000",
"#1 c #000000",
"#Q c #000000",
"#H c #000000",
"#2 c #000000",
"#o c #000000",
"#p c #000000",
"#G c #000000",
"#q c #000000",
"#r c #000000",
"#s c #000000",
"#F c #000000",
"#V c #000000",
"#U c #000000",
"#P c #000000",
"#B c #000000",
"#C c #000000",
"#D c #000000",
"#E c #000000",
"#O c #000000",
".2 c #020101",
".g c #060808",
".z c #061e11",
".T c #080014",
".r c #080808",
".b c #0c1211",
".Z c #0f0e11",
".c c #131314",
".u c #140500",
".# c #1a2520",
".J c #1e194b",
".f c #212828",
".n c #26252c",
".0 c #282829",
".d c #2b3932",
".H c #313539",
".I c #382966",
".a c #3a4a42",
".i c #3d3d3d",
".p c #444448",
".l c #463626",
".C c #47474e",
".E c #490008",
".Y c #4a2121",
".N c #51545b",
".4 c #525351",
".X c #535353",
".O c #554783",
".R c #562f1d",
".W c #563521",
".e c #585c5e",
".3 c #655324",
".U c #665e9a",
".q c #6d2029",
".B c #6e0023",
".M c #6f6f76",
".S c #72472d",
".x c #7291ea",
".o c #797a7c",
".h c #798487",
".6 c #7a603f",
".Q c #822d1e",
".V c #838384",
".5 c #8b682a",
".P c #946c45",
".s c #9e99a6",
".1 c #a3a3aa",
".L c #ad473d",
".v c #adb2af",
".A c #b00a35",
".t c #b14432",
".w c #ccd3d6",
".j c #e49e87",
".y c #e5f4ff",
".k c #e67160",
".G c #e87252",
".m c #f7e0d0",
".D c #ff2f58",
".F c #ffbf75",
".K c #ffef7c",
"QtQtQtQtQtQtQtQtQtQtQtQtQtQtQtQtQtQtQtQtQtQtQtQtQtQtQtQtQtQtQtQtQtQtQtQtQtQtQtQtQtQtQtQtQtQtQtQtQtQtQtQtQtQtQtQtQtQtQtQtQtQtQtQt",
"QtQtQtQtQtQtQtQtQtQtQtQtQtQtQtQtQtQtQtQtQtQtQtQtQtQtQtQtQtQtQtQtQtQtQtQtQtQtQtQtQtQtQtQtQtQtQtQtQtQtQtQtQtQtQtQtQtQtQtQtQtQtQtQt",
"QtQtQtQtQtQtQtQtQtQtQtQtQtQtQtQtQtQtQtQtQtQtQtQtQtQtQtQtQtQtQtQtQtQtQtQtQtQtQtQtQtQtQtQtQtQtQtQtQtQtQtQtQtQtQtQtQtQtQtQtQtQtQtQt",
"QtQtQtQtQtQtQtQtQtQtQtQtQtQtQtQtQtQtQtQtQtQtQtQtQtQtQtQtQtQtQtQtQtQtQtQtQtQt.#.#.aQtQtQtQtQtQtQtQtQtQtQtQtQtQtQtQtQtQtQtQtQtQtQt",
"QtQtQtQtQtQtQtQtQtQtQtQtQtQtQtQtQtQtQtQtQtQtQtQtQtQtQtQtQt.b.b.b.c.bQtQtQt.#.d.a.e.aQtQtQtQtQtQtQtQtQtQtQtQtQtQtQtQtQtQtQtQtQtQt",
"QtQtQtQtQtQtQtQtQtQtQtQtQtQtQtQtQtQtQtQtQtQtQtQtQtQtQtQt.#.a.a.#.f.#.c.g.h.e.#.d.e.h.eQtQtQtQtQtQtQtQtQtQtQtQtQtQtQtQtQtQtQtQtQt",
"QtQtQtQtQtQtQtQtQtQtQtQtQtQtQtQtQtQtQtQtQtQtQtQtQtQtQt.d.e.d.#.i.d.#.f.b.g.h.d.#.a.e.hQtQtQtQtQtQtQtQtQtQtQtQtQtQtQtQtQtQtQtQtQt",
"QtQtQtQtQtQtQtQtQtQtQtQtQtQtQtQtQtQtQtQtQtQtQtQt.bQt.d.h.d.#.d.e.a.a.d.#.b.g.c.#.a.d.h.#QtQtQtQtQtQtQtQtQtQtQtQtQtQtQtQtQtQtQtQt",
"QtQtQtQtQtQtQtQtQtQtQtQtQtQtQtQtQtQtQtQtQtQtQtQtQt.#.d.h.d.d.h.#.#.#.b.d.#.b.b.b.a.d.e.#QtQtQtQtQtQtQtQtQtQtQtQtQtQtQtQtQtQtQtQt",
"QtQtQtQtQtQtQtQtQtQtQtQtQtQtQtQtQtQtQtQtQtQtQtQtQtQt.#.e.d.e.#.h.e.a.#.b.#.#.b.b.a.#.e.dQtQtQtQtQtQtQtQtQtQtQtQtQtQtQtQtQtQtQtQt",
"QtQtQtQtQtQtQtQtQtQtQtQtQtQtQtQtQtQtQtQtQtQtQtQtQt.b.#.j.j.k.e.#.d.f.d.#.b.l.bQt.d.#.a.dQtQtQtQtQtQtQtQtQtQtQtQtQtQtQtQtQtQtQtQt",
"QtQtQtQtQtQtQtQtQtQtQtQtQtQtQtQtQtQtQtQtQtQtQtQt.bQt.#.m.m.m.j.d.n.b.#.d.b.bQtQt.#.o.o.pQtQtQtQtQtQtQtQtQtQtQtQtQtQtQtQtQtQtQtQt",
"QtQtQtQtQtQtQtQtQtQtQtQtQtQtQtQtQtQtQtQtQtQtQtQt.bQt.b.m.m.k.q.q.d.b.b.#.#.c.bQt.o.r.s.pQtQtQtQtQtQtQtQtQtQtQtQtQtQtQtQtQtQtQtQt",
"QtQtQtQtQtQtQtQtQtQtQtQtQtQtQtQtQtQtQtQtQtQtQtQtQtQt.k.j.t.u.v.r.d.b.j.b.#.b.bQt.o.r.w.p.#QtQtQtQtQtQtQtQtQtQtQtQtQtQtQtQtQtQtQt",
"QtQtQtQtQtQtQtQtQtQtQtQtQtQtQtQtQtQtQtQtQtQtQtQtQtQt.k.j.j.x.y.r.a.b.k.#.b.#Qt.r.p.s.s.p.#QtQtQtQtQtQtQtQtQtQtQtQtQtQtQtQtQtQtQt",
"QtQtQtQtQtQtQtQtQtQtQtQtQtQtQtQtQtQtQtQtQtQtQtQtQtQt.t.m.m.m.m.j.a.b.g.b.#QtQt.r.o.r.r.b.aQtQtQtQtQtQtQtQtQtQtQtQtQtQtQtQtQtQtQt",
"QtQtQtQtQtQtQtQtQtQtQtQtQtQtQtQtQtQtQtQtQtQtQtQtQtQt.t.j.m.m.m.j.a.b.g.g.bQt.r.p.p.r.d.b.a.dQtQtQtQtQtQtQtQtQtQtQtQtQtQtQtQtQtQt",
"QtQtQtQtQtQtQtQtQtQtQtQtQtQtQtQtQtQtQtQtQtQtQtQtQtQt.b.t.j.m.j.a.b.z.z.A.B.B.r.o.r.c.d.b.d.dQtQtQtQtQtQtQtQtQtQtQtQtQtQtQtQtQtQt",
"QtQtQtQtQtQtQtQtQtQtQtQtQtQtQtQtQtQtQtQtQtQtQtQtQtQt.b.z.t.j.k.d.b.C.B.D.A.B.E.o.r.b.#.#.e.aQtQtQtQtQtQtQtQtQtQtQtQtQtQtQtQtQtQt",
"QtQtQtQtQtQtQtQtQtQtQtQtQtQtQtQtQtQtQtQtQtQtQtQtQt.b.g.C.q.t.a.#.C.C.A.F.D.G.B.EQt.#.d.#.e.#QtQtQtQtQtQtQtQtQtQtQtQtQtQtQtQtQtQt",
"QtQtQtQtQtQtQtQtQtQtQtQtQtQtQtQtQtQtQtQtQtQtQtQtQt.b.C.H.t.H.d.b.I.J.A.K.D.F.B.E.L.b.d.#.e.dQtQtQtQtQtQtQtQtQtQtQtQtQtQtQtQtQtQt",
"QtQtQtQtQtQtQtQtQtQtQtQtQtQtQtQtQtQtQtQtQtQtQtQtQt.g.H.z.C.p.b.I.J.G.A.F.A.G.E.E.L.r.#.b.e.aQtQtQtQtQtQtQtQtQtQtQtQtQtQtQtQtQtQt",
"QtQtQtQtQtQtQtQtQtQtQtQtQtQtQtQtQtQtQtQtQtQtQtQtQt.p.z.C.M.N.p.O.I.G.B.B.A.E.E.G.q.r.#.b.a.a.#QtQtQtQtQtQtQtQtQtQtQtQtQtQtQtQtQt",
"QtQtQtQtQtQtQtQtQtQtQtQtQtQtQtQtQtQtQtQtQtQtQtQtQt.H.z.C.H.#.#.P.I.Q.K.F.B.E.L.Q.r.c.b.f.a.d.#QtQtQtQtQtQtQtQtQtQtQtQtQtQtQtQtQt",
"QtQtQtQtQtQtQtQtQtQtQtQtQtQtQtQtQtQtQtQtQtQtQtQtQt.z.z.z.z.b.I.O.J.J.G.A.F.L.E.L.q.r.c.f.a.#.dQtQtQtQtQtQtQtQtQtQtQtQtQtQtQtQtQt",
"QtQtQtQtQtQtQtQtQtQtQtQtQtQtQtQtQtQtQtQtQtQtQtQtQt.z.R.S.S.M.O.I.J.J.J.F.B.E.E.L.r.r.f.#.d.#.aQtQtQtQtQtQtQtQtQtQtQtQtQtQtQtQtQt",
"QtQtQtQtQtQtQtQtQtQtQtQtQtQtQtQtQtQtQtQtQtQtQtQtQtQt.H.H.H.M.O.I.J.J.J.O.G.G.L.J.TQt.b.#.b.d.b.CQtQtQtQtQtQtQtQtQtQtQtQtQtQtQtQt",
"QtQtQtQtQtQtQtQtQtQtQtQtQtQtQtQtQtQtQtQtQtQtQtQtQtQt.H.z.p.I.I.J.J.T.J.J.U.O.O.I.J.T.b.#.b.d.b.aQtQtQtQtQtQtQtQtQtQtQtQtQtQtQtQt",
"QtQtQtQtQtQtQtQtQtQtQtQtQtQtQtQtQtQtQtQtQtQtQtQtQt.J.V.v.C.R.W.W.S.J.T.T.J.O.O.I.J.T.b.b.c.#.b.CQtQtQtQtQtQtQtQtQtQtQtQtQtQtQtQt",
"QtQtQtQtQtQtQtQtQtQtQtQtQtQtQtQtQtQtQtQtQtQtQtQt.J.C.S.S.P.R.S.W.T.J.T.X.J.I.O.O.I.TQt.b.c.#.b.aQtQtQtQtQtQtQtQtQtQtQtQtQtQtQtQt",
"QtQtQtQtQtQtQtQtQtQtQtQtQtQtQtQtQtQtQtQtQtQtQt.r.r.O.Y.z.C.R.S.S.R.J.J.T.d.I.O.O.I.J.T.Z.b.#.b.a.#QtQtQtQtQtQtQtQtQtQtQtQtQtQtQt",
"QtQtQtQtQtQtQtQtQtQtQtQtQtQtQtQtQtQtQtQtQtQt.r.r.0.H.z.Y.C.H.P.S.I.J.J.T.X.J.I.O.O.J.T.Z.c.#.b.d.#QtQtQtQtQtQtQtQtQtQtQtQtQtQtQt",
"QtQtQtQtQtQtQtQtQtQtQtQtQtQtQtQtQtQtQtQtQt.r.0.r.N.R.z.R.C.l.I.I.I.J.J.J.T.J.I.1.M.C.T.b.b.b.c.f.dQtQtQtQtQtQtQtQtQtQtQtQtQtQtQt",
"QtQtQtQtQtQtQtQtQtQtQtQtQtQtQtQtQtQtQtQtQt.r.r.n.c.S.z.P.C.l.O.I.J.I.J.J.T.C.M.I.J.J.TQt.b.b.b.d.dQtQtQtQtQtQtQtQtQtQtQtQtQtQtQt",
"QtQtQtQtQtQtQtQtQtQtQtQtQtQtQtQtQtQtQtQtQtQt.c.c.h.R.z.p.C.l.O.I.I.I.J.J.J.J.2.0.0.2.TQt.b.b.b.#.#.dQtQtQtQtQtQtQtQtQtQtQtQtQtQt",
"QtQtQtQtQtQtQtQtQtQtQtQtQtQtQtQtQtQtQtQtQtQtQt.r.0.N.H.M.C.3.O.I.I.I.J.J.J.2.0.p.4.0.2Qt.b.b.bQtQt.#QtQtQtQtQtQtQtQtQtQtQtQtQtQt",
"QtQtQtQtQtQtQtQtQtQtQtQtQtQtQtQtQtQtQtQtQtQtQtQt.r.z.C.M.M.3.O.I.I.J.I.J.2.k.i.0.h.N.2Qt.b.bQtQtQtQtQtQtQtQtQtQtQtQtQtQtQtQtQtQt",
"QtQtQtQtQtQtQtQtQtQtQtQtQtQtQtQtQtQtQtQtQtQtQtQtQt.H.C.M.l.U.O.I.I.I.J.J.0.j.t.t.0.4.2Qt.b.bQtQtQtQtQtQtQtQtQtQtQtQtQtQtQtQtQtQt",
"QtQtQtQtQtQtQtQtQtQtQtQtQtQtQtQtQtQtQtQtQtQtQtQt.z.C.C.M.l.U.O.I.J.I.J.I.J.0.k.k.t.0.2QtQt.bQtQtQtQtQtQtQtQtQtQtQtQtQtQtQtQtQtQt",
"QtQtQtQtQtQtQtQtQtQtQtQtQtQtQtQtQtQtQtQtQtQtQtQt.z.C.C.M.l.U.I.I.J.I.I.I.J.J.J.t.k.2QtQtQtQtQtQtQtQtQtQtQtQtQtQtQtQtQtQtQtQtQtQt",
"QtQtQtQtQtQtQtQtQtQtQtQtQtQtQtQtQtQtQtQtQtQtQtQt.v.V.M.M.3.O.I.I.J.O.I.I.J.J.J.T.H.bQtQtQtQtQtQtQtQtQtQtQtQtQtQtQtQtQtQtQtQtQtQt",
"QtQtQtQtQtQtQtQtQtQtQtQtQtQtQtQtQtQtQtQtQtQtQt.v.y.w.1.M.3.O.I.I.J.O.I.I.I.J.J.J.V.H.#QtQtQtQtQtQtQtQtQtQtQtQtQtQtQtQtQtQtQtQtQt",
"QtQtQtQtQtQtQtQtQtQtQtQtQtQtQtQtQtQtQtQtQtQtQt.w.w.w.1.M.3.O.I.I.J.O.I.I.I.J.J.J.T.d.#QtQtQtQtQtQtQtQtQtQtQtQtQtQtQtQtQtQtQtQtQt",
"QtQtQtQtQtQtQtQtQtQtQtQtQtQtQtQtQtQtQtQtQtQtQt.X.V.V.1.3.U.O.I.J.J.O.O.I.I.J.J.J.J.V.W.#QtQtQtQtQtQtQtQtQtQtQtQtQtQtQtQtQtQtQtQt",
"QtQtQtQtQtQtQtQtQtQtQtQtQtQtQtQtQtQtQtQtQtQtQt.V.V.V.1.5.U.I.I.J.J.O.O.I.I.I.I.J.J.T.6.#QtQtQtQtQtQtQtQtQtQtQtQtQtQtQtQtQtQtQtQt",
"QtQtQtQtQtQtQtQtQtQtQtQtQtQtQtQtQtQtQtQtQtQtQt.X.V.1.M.5.U.I.I.J.J.O.O.I.I.I.I.J.J.J.d.#QtQtQtQtQtQtQtQtQtQtQtQtQtQtQtQtQtQtQtQt",
"QtQtQtQtQtQtQtQtQtQtQtQtQtQtQtQtQtQtQtQtQtQtQt.2.0.1.M.3.O.I.I.J.I.I.O.O.I.I.I.J.J.J.v.d.XQtQtQtQtQtQtQtQtQtQtQtQtQtQtQtQtQtQtQt",
"QtQtQtQtQtQtQtQtQtQtQtQtQtQtQtQtQtQtQtQtQtQtQt.o.o.1.3.U.O.I.I.J.J.I.O.O.I.I.J.I.J.J.T.V.XQtQtQtQtQtQtQtQtQtQtQtQtQtQtQtQtQtQtQt",
"QtQtQtQtQtQtQtQtQtQtQtQtQtQtQtQtQtQtQtQtQtQt.7.2.0.1.3.U.O.I.I.J.I.I.O.O.I.I.I.I.J.J.J.v.VQtQtQtQtQtQtQtQtQtQtQtQtQtQtQtQtQtQtQt",
"QtQtQtQtQtQtQtQtQtQtQtQtQtQtQtQtQtQt.7.7.7.8.c.2.1.M.5.U.O.I.I.J.J.I.O.O.O.I.I.I.J.J.J.7.v.7QtQtQtQtQtQtQtQtQtQtQtQtQtQtQtQtQtQt",
"QtQtQtQtQtQtQtQtQtQtQtQtQtQtQtQt.7.7.9#.###a.c.o.1.M.5.U.O.I.J.J.J.I.O.O.O.I.I.r#b#c#a###..9.7.7QtQtQtQtQtQtQtQtQtQtQtQtQtQtQtQt",
"QtQtQtQtQtQtQtQtQtQtQtQtQtQtQt.7.9#d#e#f#g#h.c.0.1.M.5.U.O.I.J.J.J.I.O.O.c.c.c.Z.r#i#j#g#f#e#d.9.7QtQtQtQtQtQtQtQtQtQtQtQtQtQtQt",
"QtQtQtQtQtQtQtQtQtQtQtQtQtQt.7#k#l#m#n.c.c.c.v.N.0.c.r#o#p#q#r#s.2.r.Z.c.N.c.c.Z.r#t#u#v#w#n#x#l#k.7QtQtQtQtQtQtQtQtQtQtQtQtQtQt",
"QtQtQtQtQtQtQtQtQtQtQtQtQt.7.9#y#z#A.c.0.o.0.0.o.N.c.r#B#C#D#D#E.g.c.c.c.c.c.r.r.r#F#G#H#I#J#A#z#y.9.7QtQtQtQtQtQtQtQtQtQtQtQtQt",
"QtQtQtQtQtQtQtQtQtQtQtQtQt.7#K#L#M#N.Z.0.n.N.0.0.N.c.r#O#O#O#O#O.2.r.2.g.2.g.r#E#E#E#C#P#F#Q#N#M#L#K.7QtQtQtQtQtQtQtQtQtQtQtQtQt",
"QtQtQtQtQtQtQtQtQtQtQtQtQt.7#K#R#M#N.2.2.2.0.0.0.c.c.2#O#O#O#O#O#O#O#O#O#O#E#E#E#E#E#C#P#F#H#N#S#R#K.7QtQtQtQtQtQtQtQtQtQtQtQtQt",
"QtQtQtQtQtQtQtQtQtQtQtQtQt.7#T#y#z#A#J#I#H.2.2.2.2.2.2#B#C#D#D#E#E#D#D#C#B#B#P#U#V#F#G#H#I#J#A#z#y#T.7QtQtQtQtQtQtQtQtQtQtQtQtQt",
"QtQtQtQtQtQtQtQtQtQtQtQtQtQt.7#k#W#x#X#A#Y#u#t#Z#0#1#2#o#p#q#s#s#s#s#q#p#o#2#1#0#Z#t#u#Y#A#X#x#W#k.7QtQtQtQtQtQtQtQtQtQtQtQtQtQt",
"QtQtQtQtQtQtQtQtQtQtQtQtQtQtQt.7#T###e#f#g#j#i#3#4#5#6#7#J#8#N#9#9#N#8#J#7#6#5#4#3#i#j#g#f#e###T.7QtQtQtQtQtQtQtQtQtQtQtQtQtQtQt",
"QtQtQtQtQtQtQtQtQtQtQtQtQtQtQtQt.7.7.9#.###a#c#ba.a#aaabacadae#h#haeadacabaaa#a.#b#c#y###..9.7.7QtQtQtQtQtQtQtQtQtQtQtQtQtQtQtQt",
"QtQtQtQtQtQtQtQtQtQtQtQtQtQtQtQtQtQt.7.7.7.8.9#k#.af##agahahahaiaiahahahag##af#.#k.9.8.7.7.7QtQtQtQtQtQtQtQtQtQtQtQtQtQtQtQtQtQt",
"QtQtQtQtQtQtQtQtQtQtQtQtQtQtQtQtQtQtQtQtQtQt.7.7.7.7.7.7.7.7.7.7.7.7.7.7.7.7.7.7.7.7QtQtQtQtQtQtQtQtQtQtQtQtQtQtQtQtQtQtQtQtQtQt",
"QtQtQtQtQtQtQtQtQtQtQtQtQtQtQtQtQtQtQtQtQtQtQtQtQtQtQtQtQtQtQtQtQtQtQtQtQtQtQtQtQtQtQtQtQtQtQtQtQtQtQtQtQtQtQtQtQtQtQtQtQtQtQtQt",
"QtQtQtQtQtQtQtQtQtQtQtQtQtQtQtQtQtQtQtQtQtQtQtQtQtQtQtQtQtQtQtQtQtQtQtQtQtQtQtQtQtQtQtQtQtQtQtQtQtQtQtQtQtQtQtQtQtQtQtQtQtQtQtQt"};
