/* XPM */
static char *dummy[]={
"64 64 140 2",
"Qt c None",
".9 c #000000",
"#. c #000000",
"## c #000000",
"#V c #000000",
"#a c #000000",
"#L c #000000",
"#b c #000000",
"ag c #000000",
"#g c #000000",
"#c c #000000",
"ah c #000000",
"ai c #000000",
"aj c #000000",
"#d c #000000",
"#B c #000000",
"#p c #000000",
"#X c #000000",
"#h c #000000",
"#e c #000000",
"#M c #000000",
"#S c #000000",
"#f c #000000",
"#i c #000000",
"a# c #000000",
"#q c #000000",
"#A c #000000",
"aa c #000000",
"#j c #000000",
"ab c #000000",
"#C c #000000",
"ac c #000000",
"ad c #000000",
"ae c #000000",
"af c #000000",
"#k c #000000",
"#o c #000000",
"#r c #000000",
"#Y c #000000",
"#n c #000000",
"#N c #000000",
"#U c #000000",
"#5 c #000000",
"#s c #000000",
"#D c #000000",
"#6 c #000000",
"#7 c #000000",
"#t c #000000",
"#Z c #000000",
"#8 c #000000",
"#9 c #000000",
"#E c #000000",
"#z c #000000",
"a. c #000000",
"#l c #000000",
"#m c #000000",
"#y c #000000",
"#F c #000000",
"#x c #000000",
"#w c #000000",
"#0 c #000000",
"#O c #000000",
"#G c #000000",
"#1 c #000000",
"#2 c #000000",
"#3 c #000000",
"#K c #000000",
"#4 c #000000",
"#u c #000000",
"#v c #000000",
"#J c #000000",
"#I c #000000",
"#H c #000000",
"#P c #000000",
"#W c #000000",
"#R c #000000",
"#Q c #000000",
"#T c #000000",
".Z c #000008",
".W c #005477",
".1 c #020101",
".g c #060808",
".D c #061e11",
".V c #080014",
".r c #080808",
".b c #0c1211",
".z c #0f0e11",
".c c #131314",
".u c #140500",
".# c #1a2520",
".T c #1e194b",
".f c #212828",
".o c #26252c",
".2 c #282829",
".d c #2b3932",
".C c #313539",
".M c #35353a",
".O c #382966",
".a c #3a4a42",
".i c #3d3d3d",
".m c #444448",
".l c #463626",
".F c #47474e",
".B c #490008",
".Y c #4a2121",
".N c #51545b",
".3 c #525351",
".4 c #535353",
".S c #554783",
".Q c #562f1d",
".7 c #563521",
".e c #585c5e",
".6 c #655324",
".U c #665e9a",
".q c #6d2029",
".A c #6e0023",
".I c #6f6f76",
".R c #72472d",
".x c #7291ea",
".p c #797a7c",
".h c #798487",
".8 c #7a603f",
".P c #822d1e",
".5 c #838384",
".X c #946c45",
".s c #9e99a6",
".0 c #a3a3aa",
".L c #ad473d",
".v c #adb2af",
".E c #b00a35",
".t c #b14432",
".w c #ccd3d6",
".j c #e49e87",
".y c #e5f4ff",
".k c #e67160",
".J c #e87252",
".n c #f7e0d0",
".G c #ff2f58",
".H c #ffbf75",
".K c #ffef7c",
"QtQtQtQtQtQtQtQtQtQtQtQtQtQtQtQtQtQtQtQtQtQtQtQtQtQtQtQtQtQtQtQtQtQtQtQtQtQtQtQtQtQtQtQtQtQtQtQtQtQtQtQtQtQtQtQtQtQtQtQtQtQtQtQt",
"QtQtQtQtQtQtQtQtQtQtQtQtQtQtQtQtQtQtQtQtQtQtQtQtQtQtQtQtQtQtQtQtQtQtQtQtQtQtQtQtQtQtQtQtQtQtQtQtQtQtQtQtQtQtQtQtQtQtQtQtQtQtQtQt",
"QtQtQtQtQtQtQtQtQtQtQtQtQtQtQtQtQtQtQtQtQtQtQtQtQtQtQtQtQtQtQtQtQtQtQtQtQtQt.#.#.aQtQtQtQtQtQtQtQtQtQtQtQtQtQtQtQtQtQtQtQtQtQtQt",
"QtQtQtQtQtQtQtQtQtQtQtQtQtQtQtQtQtQtQtQtQtQtQtQtQtQtQtQtQt.b.b.b.c.bQtQtQt.#.d.a.e.aQtQtQtQtQtQtQtQtQtQtQtQtQtQtQtQtQtQtQtQtQtQt",
"QtQtQtQtQtQtQtQtQtQtQtQtQtQtQtQtQtQtQtQtQtQtQtQtQtQtQtQt.#.a.a.#.f.#.c.g.h.e.#.d.e.h.eQtQtQtQtQtQtQtQtQtQtQtQtQtQtQtQtQtQtQtQtQt",
"QtQtQtQtQtQtQtQtQtQtQtQtQtQtQtQtQtQtQtQtQtQtQtQtQtQtQt.d.e.d.#.d.i.#.f.b.g.h.d.#.a.e.hQtQtQtQtQtQtQtQtQtQtQtQtQtQtQtQtQtQtQtQtQt",
"QtQtQtQtQtQtQtQtQtQtQtQtQtQtQtQtQtQtQtQtQtQtQtQt.bQt.d.h.d.#.d.e.a.a.d.#.b.g.b.f.a.d.h.#QtQtQtQtQtQtQtQtQtQtQtQtQtQtQtQtQtQtQtQt",
"QtQtQtQtQtQtQtQtQtQtQtQtQtQtQtQtQtQtQtQtQtQtQtQtQt.#.d.h.d.d.h.#.#.#.b.d.#.b.b.b.a.d.e.#QtQtQtQtQtQtQtQtQtQtQtQtQtQtQtQtQtQtQtQt",
"QtQtQtQtQtQtQtQtQtQtQtQtQtQtQtQtQtQtQtQtQtQtQtQtQtQt.#.e.d.e.#.h.e.a.#.b.#.#.b.b.a.#.e.dQtQtQtQtQtQtQtQtQtQtQtQtQtQtQtQtQtQtQtQt",
"QtQtQtQtQtQtQtQtQtQtQtQtQtQtQtQtQtQtQtQtQtQtQtQtQt.b.#.j.j.k.e.#.d.f.d.#.b.l.b.d.#.m.d.dQtQtQtQtQtQtQtQtQtQtQtQtQtQtQtQtQtQtQtQt",
"QtQtQtQtQtQtQtQtQtQtQtQtQtQtQtQtQtQtQtQtQtQtQtQt.bQt.#.n.n.n.j.d.o.b.#.d.b.bQt.#.b.p.p.m.#QtQtQtQtQtQtQtQtQtQtQtQtQtQtQtQtQtQtQt",
"QtQtQtQtQtQtQtQtQtQtQtQtQtQtQtQtQtQtQtQtQtQtQtQt.bQt.b.n.n.k.q.q.d.b.b.#.#.c.b.#.p.r.s.m.#QtQtQtQtQtQtQtQtQtQtQtQtQtQtQtQtQtQtQt",
"QtQtQtQtQtQtQtQtQtQtQtQtQtQtQtQtQtQtQtQtQtQtQtQtQtQt.k.j.t.u.v.r.d.b.j.b.#.b.bQt.p.r.w.m.#QtQtQtQtQtQtQtQtQtQtQtQtQtQtQtQtQtQtQt",
"QtQtQtQtQtQtQtQtQtQtQtQtQtQtQtQtQtQtQtQtQtQtQtQtQtQt.k.j.j.x.y.r.a.b.k.#.b.#Qt.r.m.s.s.i.dQtQtQtQtQtQtQtQtQtQtQtQtQtQtQtQtQtQtQt",
"QtQtQtQtQtQtQtQtQtQtQtQtQtQtQtQtQtQtQtQtQtQtQtQtQtQt.t.n.n.n.n.j.a.b.z.b.#QtQt.r.p.r.b.b.a.#QtQtQtQtQtQtQtQtQtQtQtQtQtQtQtQtQtQt",
"QtQtQtQtQtQtQtQtQtQtQtQtQtQtQtQtQtQtQtQtQtQtQtQtQtQt.t.j.n.n.n.j.a.b.g.g.bQt.r.m.m.r.#.b.a.#QtQtQtQtQtQtQtQtQtQtQtQtQtQtQtQtQtQt",
"QtQtQtQtQtQtQtQtQtQtQtQtQtQtQtQtQtQtQtQtQtQtQtQtQtQt.b.t.j.n.j.a.b.A.B.C.g.b.r.p.r.c.#.d.#.#QtQtQtQtQtQtQtQtQtQtQtQtQtQtQtQtQtQt",
"QtQtQtQtQtQtQtQtQtQtQtQtQtQtQtQtQtQtQtQtQtQtQtQtQtQt.b.D.t.j.k.d.b.E.A.C.D.r.m.p.r.b.f.d.#.aQtQtQtQtQtQtQtQtQtQtQtQtQtQtQtQtQtQt",
"QtQtQtQtQtQtQtQtQtQtQtQtQtQtQtQtQtQtQtQtQtQtQtQtQt.b.g.F.q.t.a.#.E.G.A.B.D.s.m.rQt.#.#.d.#.eQtQtQtQtQtQtQtQtQtQtQtQtQtQtQtQtQtQt",
"QtQtQtQtQtQtQtQtQtQtQtQtQtQtQtQtQtQtQtQtQtQtQtQtQt.b.F.C.F.F.d.E.H.G.H.A.B.s.r.rQt.f.b.d.#.e.dQtQtQtQtQtQtQtQtQtQtQtQtQtQtQtQtQt",
"QtQtQtQtQtQtQtQtQtQtQtQtQtQtQtQtQtQtQtQtQtQtQtQtQt.g.D.I.I.a.J.E.K.G.H.A.B.L.r.m.r.z.b.#.d.e.dQtQtQtQtQtQtQtQtQtQtQtQtQtQtQtQtQt",
"QtQtQtQtQtQtQtQtQtQtQtQtQtQtQtQtQtQtQtQtQtQtQtQtQt.F.I.m.M.N.J.A.H.E.J.B.B.L.p.m.q.r.b.b.a.a.#QtQtQtQtQtQtQtQtQtQtQtQtQtQtQtQtQt",
"QtQtQtQtQtQtQtQtQtQtQtQtQtQtQtQtQtQtQtQtQtQtQtQtQt.C.F.M.#.o.O.K.A.E.B.B.J.L.p.F.r.r.c.#.e.d.#QtQtQtQtQtQtQtQtQtQtQtQtQtQtQtQtQt",
"QtQtQtQtQtQtQtQtQtQtQtQtQtQtQtQtQtQtQtQtQtQtQtQtQt.D.D.I.#.b.O.J.H.A.L.L.P.s.p.m.q.r.#.#.a.#.dQtQtQtQtQtQtQtQtQtQtQtQtQtQtQtQtQt",
"QtQtQtQtQtQtQtQtQtQtQtQtQtQtQtQtQtQtQtQtQtQtQtQtQt.Q.R.I.S.O.O.H.E.H.B.B.L.s.p.r.r.r.d.#.d.#.FQtQtQtQtQtQtQtQtQtQtQtQtQtQtQtQtQt",
"QtQtQtQtQtQtQtQtQtQtQtQtQtQtQtQtQtQtQtQtQtQtQtQtQt.D.C.I.S.O.T.H.A.B.B.L.T.r.pQt.r.c.d.b.d.b.FQtQtQtQtQtQtQtQtQtQtQtQtQtQtQtQtQt",
"QtQtQtQtQtQtQtQtQtQtQtQtQtQtQtQtQtQtQtQtQtQtQtQtQtQt.D.F.S.O.O.U.J.L.L.V.T.#.r.W.r.b.#.b.d.b.aQtQtQtQtQtQtQtQtQtQtQtQtQtQtQtQtQt",
"QtQtQtQtQtQtQtQtQtQtQtQtQtQtQtQtQtQtQtQtQtQtQtQtQtQt.R.F.T.T.S.S.S.S.T.S.T.#.m.rQt.b.#.b.#.b.FQtQtQtQtQtQtQtQtQtQtQtQtQtQtQtQtQt",
"QtQtQtQtQtQtQtQtQtQtQtQtQtQtQtQtQtQtQtQtQtQtQtQtQt.Q.R.X.X.T.U.U.S.O.V.S.V.#.m.r.b.c.#.c.b.a.#QtQtQtQtQtQtQtQtQtQtQtQtQtQtQtQtQt",
"QtQtQtQtQtQtQtQtQtQtQtQtQtQtQtQtQtQtQtQtQtQtQtQtQt.D.Y.D.Y.O.U.U.S.T.V.S.V.b.#Qt.b.c.#.#.b.a.#QtQtQtQtQtQtQtQtQtQtQtQtQtQtQtQtQt",
"QtQtQtQtQtQtQtQtQtQtQtQtQtQtQtQtQtQtQtQtQtQtQtQtQt.Q.Z.D.O.U.U.S.O.T.V.I.F.b.#Qt.b.#.b.#.b.d.#QtQtQtQtQtQtQtQtQtQtQtQtQtQtQtQtQt",
"QtQtQtQtQtQtQtQtQtQtQtQtQtQtQtQtQtQtQtQtQtQtQtQtQt.R.Z.O.S.I.0.S.O.T.T.V.V.d.#Qt.b.#.b.#.b.#.dQtQtQtQtQtQtQtQtQtQtQtQtQtQtQtQtQt",
"QtQtQtQtQtQtQtQtQtQtQtQtQtQtQtQtQtQtQtQtQtQtQtQtQt.Q.Z.1.S.S.O.I.O.T.O.T.V.d.b.#.b.#.b.#.b.b.dQtQtQtQtQtQtQtQtQtQtQtQtQtQtQtQtQt",
"QtQtQtQtQtQtQtQtQtQtQtQtQtQtQtQtQtQtQtQtQtQtQtQtQtQt.1.1.i.2.S.O.F.V.O.T.T.V.d.#.b.#.c.b.bQt.#QtQtQtQtQtQtQtQtQtQtQtQtQtQtQtQtQt",
"QtQtQtQtQtQtQtQtQtQtQtQtQtQtQtQtQtQtQtQtQtQtQtQtQt.1.j.1.i.3.1.1.#.O.T.O.T.V.d.#.b.#.b.bQt.#QtQtQtQtQtQtQtQtQtQtQtQtQtQtQtQtQtQt",
"QtQtQtQtQtQtQtQtQtQtQtQtQtQtQtQtQtQtQtQtQtQtQtQtQt.1.j.t.2.2.N.1.1.O.O.O.T.T.V.c.#.b.bQtQtQtQtQtQtQtQtQtQtQtQtQtQtQtQtQtQtQtQtQt",
"QtQtQtQtQtQtQtQtQtQtQtQtQtQtQtQtQtQtQtQtQtQtQtQtQt.Z.t.k.k.2.2.2.1.O.O.O.T.T.V.d.#.bQtQtQtQtQtQtQtQtQtQtQtQtQtQtQtQtQtQtQtQtQtQt",
"QtQtQtQtQtQtQtQtQtQtQtQtQtQtQtQtQtQtQtQtQtQtQtQtQt.Z.D.q.q.t.q.1.S.O.O.T.O.T.T.d.b.#QtQtQtQtQtQtQtQtQtQtQtQtQtQtQtQtQtQtQtQtQtQt",
"QtQtQtQtQtQtQtQtQtQtQtQtQtQtQtQtQtQtQtQtQtQtQtQtQt.Z.D.D.q.q.q.I.l.S.O.O.O.T.T.V.d.#QtQtQtQtQtQtQtQtQtQtQtQtQtQtQtQtQtQtQtQtQtQt",
"QtQtQtQtQtQtQtQtQtQtQtQtQtQtQtQtQtQtQtQtQtQtQtQt.4.4.f.D.D.C.0.I.l.S.O.O.O.O.T.T.d.bQtQtQtQtQtQtQtQtQtQtQtQtQtQtQtQtQtQtQtQtQtQt",
"QtQtQtQtQtQtQtQtQtQtQtQtQtQtQtQtQtQtQtQtQtQtQt.4.v.5.4.f.D.v.w.0.6.S.O.O.O.O.T.T.V.d.#QtQtQtQtQtQtQtQtQtQtQtQtQtQtQtQtQtQtQtQtQt",
"QtQtQtQtQtQtQtQtQtQtQtQtQtQtQtQtQtQtQtQtQtQtQt.5.5.5.N.4.5.y.w.0.6.U.S.O.O.O.O.T.T.d.#QtQtQtQtQtQtQtQtQtQtQtQtQtQtQtQtQtQtQtQtQt",
"QtQtQtQtQtQtQtQtQtQtQtQtQtQtQtQtQtQtQtQtQtQtQt.4.4.4.4.f.v.w.w.0.I.U.S.O.S.O.O.T.T.V.7.#QtQtQtQtQtQtQtQtQtQtQtQtQtQtQtQtQtQtQtQt",
"QtQtQtQtQtQtQtQtQtQtQtQtQtQtQtQtQtQtQtQtQtQtQt.4.4.4.#.r.4.5.5.0.0.l.S.O.O.O.O.O.T.T.8.#QtQtQtQtQtQtQtQtQtQtQtQtQtQtQtQtQtQtQtQt",
"QtQtQtQtQtQtQtQtQtQtQtQtQtQtQtQtQtQtQtQtQtQtQtQt.f.f.r.z.c.4.5.0.0.l.U.O.O.S.O.O.T.T.T.#QtQtQtQtQtQtQtQtQtQtQtQtQtQtQtQtQtQtQtQt",
"QtQtQtQtQtQtQtQtQtQtQtQtQtQtQtQtQtQtQtQtQtQtQtQt.1.r.z.c.z.r.4.4.0.6.U.S.O.S.O.O.O.T.T.V.4QtQtQtQtQtQtQtQtQtQtQtQtQtQtQtQtQtQtQt",
"QtQtQtQtQtQtQtQtQtQtQtQtQtQtQtQtQtQtQtQtQtQtQtQt.1.c.c.c.c.r.r.1.0.I.U.S.O.O.S.O.O.T.T.T.4QtQtQtQtQtQtQtQtQtQtQtQtQtQtQtQtQtQtQt",
"QtQtQtQtQtQtQtQtQtQtQtQtQtQtQtQtQtQtQtQtQtQtQtQt.N.N.N.#.c.z.r.1.0.I.l.S.O.O.S.O.O.O.T.T.VQtQtQtQtQtQtQtQtQtQtQtQtQtQtQtQtQtQtQt",
"QtQtQtQtQtQtQtQtQtQtQtQtQtQtQtQtQtQtQtQtQtQt.9.9.1.c.c.c.z.r.r.c.0.0.l.U.O.O.S.O.O.O.T.T.TQtQtQtQtQtQtQtQtQtQtQtQtQtQtQtQtQtQtQt",
"QtQtQtQtQtQtQtQtQtQtQtQtQtQtQtQtQtQt.9.9.9#.###a.r.c.c.c.c.r.r.c.0.0.6.U.S.O.O.S.O.O.O.T.9.9QtQtQtQtQtQtQtQtQtQtQtQtQtQtQtQtQtQt",
"QtQtQtQtQtQtQtQtQtQtQtQtQtQtQtQt.9.9###b#c#d#e#f.N.N.N.c.z.r.Z.V.c.0.6.U.S.O.O.S.O.O.O#c#b##.9.9QtQtQtQtQtQtQtQtQtQtQtQtQtQtQtQt",
"QtQtQtQtQtQtQtQtQtQtQtQtQtQtQt.9###g#h#i#j#k.1.1.N.r.c.c.z.r#l#m.v.0.I.6.U.S.O.S.O#n#o#j#i#h#g##.9QtQtQtQtQtQtQtQtQtQtQtQtQtQtQt",
"QtQtQtQtQtQtQtQtQtQtQtQtQtQt.9#a#p#q#r#s#t.1.N.c.c.N.c.c.z.r#u#v.1.0.I.6.U.S.1#w#x#y#z#t#s#r#A#p#a.9QtQtQtQtQtQtQtQtQtQtQtQtQtQt",
"QtQtQtQtQtQtQtQtQtQtQtQtQt.9###B#C#D#E#F#G.1.c.N.c.r.z.r.c.r.1.1.v.p.2.2.c.z.r#H#I#J#K#G#F#E#D#C#B##.9QtQtQtQtQtQtQtQtQtQtQtQtQt",
"QtQtQtQtQtQtQtQtQtQtQtQtQt.9#L#M#N#l#O#J#P.1.1.1.1.1.1.1.1.1.2.p.2.2.N.N.c.z.r#Q#Q#Q#R#P#J#O#l#N#M#L.9QtQtQtQtQtQtQtQtQtQtQtQtQt",
"QtQtQtQtQtQtQtQtQtQtQtQtQt.9#L#S#N#l#G#J#P#R#Q#Q#Q#Q#Q#T#T.r.2.#.N.#.2.2.c.r.r#Q#Q#Q#R#P#J#G#l#U#S#L.9QtQtQtQtQtQtQtQtQtQtQtQtQt",
"QtQtQtQtQtQtQtQtQtQtQtQtQt.9#V#B#C#D#E#F#G#K#J#I#H#P#W#W#R.r.1.g.1.g.1.g.r#W#P#H#I#J#K#G#F#E#D#C#B#V.9QtQtQtQtQtQtQtQtQtQtQtQtQt",
"QtQtQtQtQtQtQtQtQtQtQtQtQtQt.9#a#X#A#Y#D#Z#z#y#x#w#0#1#2#3#4#v#v#v#v#4#3#2#1#0#w#x#y#z#Z#D#Y#A#X#a.9QtQtQtQtQtQtQtQtQtQtQtQtQtQt",
"QtQtQtQtQtQtQtQtQtQtQtQtQtQtQt.9#V#c#h#i#j#o#n#5#6#7#8#9#Ea.#l#m#m#la.#E#9#8#7#6#5#n#o#j#i#h#c#V.9QtQtQtQtQtQtQtQtQtQtQtQtQtQtQt",
"QtQtQtQtQtQtQtQtQtQtQtQtQtQtQtQt.9.9###b#c#d#e#fa#aaabacadaeaf#k#kafaeadacabaaa##f#e#B#c#b##.9.9QtQtQtQtQtQtQtQtQtQtQtQtQtQtQtQt",
"QtQtQtQtQtQtQtQtQtQtQtQtQtQtQtQtQtQt.9.9.9#.###a#bag#cahaiaiaiajajaiaiaiah#cag#b#a###..9.9.9QtQtQtQtQtQtQtQtQtQtQtQtQtQtQtQtQtQt",
"QtQtQtQtQtQtQtQtQtQtQtQtQtQtQtQtQtQtQtQtQtQt.9.9.9.9.9.9.9.9.9.9.9.9.9.9.9.9.9.9.9.9QtQtQtQtQtQtQtQtQtQtQtQtQtQtQtQtQtQtQtQtQtQt",
"QtQtQtQtQtQtQtQtQtQtQtQtQtQtQtQtQtQtQtQtQtQtQtQtQtQtQtQtQtQtQtQtQtQtQtQtQtQtQtQtQtQtQtQtQtQtQtQtQtQtQtQtQtQtQtQtQtQtQtQtQtQtQtQt",
"QtQtQtQtQtQtQtQtQtQtQtQtQtQtQtQtQtQtQtQtQtQtQtQtQtQtQtQtQtQtQtQtQtQtQtQtQtQtQtQtQtQtQtQtQtQtQtQtQtQtQtQtQtQtQtQtQtQtQtQtQtQtQtQt"};
