/* XPM */
static char *dummy[]={
"64 64 142 2",
"Qt c None",
"#. c #000000",
"## c #000000",
"#a c #000000",
"#X c #000000",
"#b c #000000",
"#N c #000000",
"#c c #000000",
"ai c #000000",
"#h c #000000",
"#d c #000000",
"aj c #000000",
"ak c #000000",
"al c #000000",
"#e c #000000",
"#C c #000000",
"#r c #000000",
"#0 c #000000",
"#i c #000000",
"#f c #000000",
"#O c #000000",
"#V c #000000",
"#g c #000000",
"#j c #000000",
"ab c #000000",
"#s c #000000",
"#B c #000000",
"ac c #000000",
"#k c #000000",
"ad c #000000",
"#D c #000000",
"ae c #000000",
"af c #000000",
"ag c #000000",
"ah c #000000",
"#l c #000000",
"#q c #000000",
"#t c #000000",
"#1 c #000000",
"#m c #000000",
"#p c #000000",
"#P c #000000",
"#W c #000000",
"#n c #000000",
"#u c #000000",
"#E c #000000",
"#o c #000000",
"#8 c #000000",
"#v c #000000",
"#2 c #000000",
"#9 c #000000",
"a. c #000000",
"#F c #000000",
"#w c #000000",
"a# c #000000",
"#Q c #000000",
"aa c #000000",
"#x c #000000",
"#G c #000000",
"#y c #000000",
"#A c #000000",
"#z c #000000",
"#R c #000000",
"#H c #000000",
"#3 c #000000",
"#4 c #000000",
"#5 c #000000",
"#I c #000000",
"#6 c #000000",
"#7 c #000000",
"#M c #000000",
"#L c #000000",
"#K c #000000",
"#J c #000000",
"#Z c #000000",
"#U c #000000",
"#Y c #000000",
"#T c #000000",
"#S c #000000",
".3 c #000008",
".W c #005477",
".0 c #020101",
".g c #060808",
".B c #061e11",
".V c #080014",
".r c #080808",
".b c #0c1211",
".A c #0f0e11",
".c c #131314",
".v c #140500",
".# c #1a2520",
".P c #1e194b",
".f c #212828",
".o c #26252c",
".2 c #282829",
".d c #2b3932",
".G c #313539",
".N c #35353a",
".U c #382966",
".a c #3a4a42",
".i c #3d3d3d",
".t c #444448",
".l c #463626",
".m c #47474e",
".D c #490008",
".Z c #4a2121",
".M c #51545b",
".4 c #525351",
".8 c #535353",
".Q c #554783",
".S c #562f1d",
".X c #563521",
".e c #585c5e",
".6 c #655324",
".Y c #665e9a",
".q c #6d2029",
".C c #6e0023",
".L c #6f6f76",
".T c #72472d",
".y c #7291ea",
".p c #797a7c",
".h c #798487",
".7 c #7a603f",
".R c #822d1e",
".5 c #838384",
".9 c #8b682a",
".O c #946c45",
".s c #9e99a6",
".1 c #a3a3aa",
".K c #ad473d",
".w c #adb2af",
".E c #b00a35",
".u c #b14432",
".x c #ccd3d6",
".j c #e49e87",
".z c #e5f4ff",
".k c #e67160",
".I c #e87252",
".n c #f7e0d0",
".F c #ff2f58",
".H c #ffbf75",
".J c #ffef7c",
"QtQtQtQtQtQtQtQtQtQtQtQtQtQtQtQtQtQtQtQtQtQtQtQtQtQtQtQtQtQtQtQtQtQtQtQtQtQtQtQtQtQtQtQtQtQtQtQtQtQtQtQtQtQtQtQtQtQtQtQtQtQtQtQt",
"QtQtQtQtQtQtQtQtQtQtQtQtQtQtQtQtQtQtQtQtQtQtQtQtQtQtQtQtQtQtQtQtQtQtQtQtQtQtQtQtQtQtQtQtQtQtQtQtQtQtQtQtQtQtQtQtQtQtQtQtQtQtQtQt",
"QtQtQtQtQtQtQtQtQtQtQtQtQtQtQtQtQtQtQtQtQtQtQtQtQtQtQtQtQtQtQtQtQtQtQtQtQtQt.#.#.aQtQtQtQtQtQtQtQtQtQtQtQtQtQtQtQtQtQtQtQtQtQtQt",
"QtQtQtQtQtQtQtQtQtQtQtQtQtQtQtQtQtQtQtQtQtQtQtQtQtQtQtQtQt.b.b.b.c.bQtQtQt.#.d.a.e.aQtQtQtQtQtQtQtQtQtQtQtQtQtQtQtQtQtQtQtQtQtQt",
"QtQtQtQtQtQtQtQtQtQtQtQtQtQtQtQtQtQtQtQtQtQtQtQtQtQtQtQt.#.a.a.#.f.#.c.g.h.e.#.d.e.h.eQtQtQtQtQtQtQtQtQtQtQtQtQtQtQtQtQtQtQtQtQt",
"QtQtQtQtQtQtQtQtQtQtQtQtQtQtQtQtQtQtQtQtQtQtQtQtQtQtQt.d.e.d.#.d.i.#.f.b.g.h.d.#.a.e.hQtQtQtQtQtQtQtQtQtQtQtQtQtQtQtQtQtQtQtQtQt",
"QtQtQtQtQtQtQtQtQtQtQtQtQtQtQtQtQtQtQtQtQtQtQtQt.bQt.d.h.d.#.d.e.a.a.d.#.b.g.b.f.a.d.h.#QtQtQtQtQtQtQtQtQtQtQtQtQtQtQtQtQtQtQtQt",
"QtQtQtQtQtQtQtQtQtQtQtQtQtQtQtQtQtQtQtQtQtQtQtQtQt.#.d.h.d.d.h.#.#.#.b.d.#.b.b.b.a.d.e.#QtQtQtQtQtQtQtQtQtQtQtQtQtQtQtQtQtQtQtQt",
"QtQtQtQtQtQtQtQtQtQtQtQtQtQtQtQtQtQtQtQtQtQtQtQtQtQt.#.e.d.e.#.h.e.a.#.b.#.#.b.b.a.#.e.dQtQtQtQtQtQtQtQtQtQtQtQtQtQtQtQtQtQtQtQt",
"QtQtQtQtQtQtQtQtQtQtQtQtQtQtQtQtQtQtQtQtQtQtQtQtQt.b.#.j.j.k.e.#.d.f.d.#.b.l.b.d.#.m.d.dQtQtQtQtQtQtQtQtQtQtQtQtQtQtQtQtQtQtQtQt",
"QtQtQtQtQtQtQtQtQtQtQtQtQtQtQtQtQtQtQtQtQtQtQtQt.bQt.#.n.n.n.j.d.o.b.#.d.b.bQt.#.#.p.p.m.bQtQtQtQtQtQtQtQtQtQtQtQtQtQtQtQtQtQtQt",
"QtQtQtQtQtQtQtQtQtQtQtQtQtQtQtQtQtQtQtQtQtQtQtQt.bQt.b.n.n.k.q.q.d.b.b.#.#.c.bQt.p.r.s.t.bQtQtQtQtQtQtQtQtQtQtQtQtQtQtQtQtQtQtQt",
"QtQtQtQtQtQtQtQtQtQtQtQtQtQtQtQtQtQtQtQtQtQtQtQtQtQt.k.j.u.v.w.r.d.b.j.b.#.b.bQt.p.r.x.t.#QtQtQtQtQtQtQtQtQtQtQtQtQtQtQtQtQtQtQt",
"QtQtQtQtQtQtQtQtQtQtQtQtQtQtQtQtQtQtQtQtQtQtQtQtQtQt.k.j.j.y.z.r.a.b.k.#.b.#Qt.r.t.s.s.i.d.bQtQtQtQtQtQtQtQtQtQtQtQtQtQtQtQtQtQt",
"QtQtQtQtQtQtQtQtQtQtQtQtQtQtQtQtQtQtQtQtQtQtQtQtQtQt.u.n.n.n.n.j.a.b.A.b.#QtQt.r.p.r.b.b.a.bQtQtQtQtQtQtQtQtQtQtQtQtQtQtQtQtQtQt",
"QtQtQtQtQtQtQtQtQtQtQtQtQtQtQtQtQtQtQtQtQtQtQtQtQtQt.u.j.n.n.n.j.a.b.g.g.bQt.r.t.t.r.c.#.d.bQtQtQtQtQtQtQtQtQtQtQtQtQtQtQtQtQtQt",
"QtQtQtQtQtQtQtQtQtQtQtQtQtQtQtQtQtQtQtQtQtQtQtQtQtQt.b.u.j.n.j.a.b.B.C.D.g.b.r.p.r.A.c.f.d.bQtQtQtQtQtQtQtQtQtQtQtQtQtQtQtQtQtQt",
"QtQtQtQtQtQtQtQtQtQtQtQtQtQtQtQtQtQtQtQtQtQtQtQtQtQt.b.B.u.j.k.d.b.m.E.C.B.r.m.p.r.b.b.d.d.a.bQtQtQtQtQtQtQtQtQtQtQtQtQtQtQtQtQt",
"QtQtQtQtQtQtQtQtQtQtQtQtQtQtQtQtQtQtQtQtQtQtQtQtQt.b.g.m.q.u.a.#.m.E.F.C.D.s.t.rQt.b.b.d.d.e.bQtQtQtQtQtQtQtQtQtQtQtQtQtQtQtQtQt",
"QtQtQtQtQtQtQtQtQtQtQtQtQtQtQtQtQtQtQtQtQtQtQtQtQt.b.m.G.u.G.d.b.m.H.F.H.C.D.r.rQt.b.c.f.i.e.#QtQtQtQtQtQtQtQtQtQtQtQtQtQtQtQtQt",
"QtQtQtQtQtQtQtQtQtQtQtQtQtQtQtQtQtQtQtQtQtQtQtQtQt.g.G.B.m.t.b.I.E.J.F.H.C.D.K.t.r.A.b.#.a.e.#QtQtQtQtQtQtQtQtQtQtQtQtQtQtQtQtQt",
"QtQtQtQtQtQtQtQtQtQtQtQtQtQtQtQtQtQtQtQtQtQtQtQtQt.t.B.m.L.M.m.I.C.H.E.I.D.D.K.t.q.r.b.b.a.a.#QtQtQtQtQtQtQtQtQtQtQtQtQtQtQtQtQt",
"QtQtQtQtQtQtQtQtQtQtQtQtQtQtQtQtQtQtQtQtQtQtQtQtQt.G.B.m.N.#.O.P.J.C.E.D.D.I.p.m.r.r.c.#.e.d.#QtQtQtQtQtQtQtQtQtQtQtQtQtQtQtQtQt",
"QtQtQtQtQtQtQtQtQtQtQtQtQtQtQtQtQtQtQtQtQtQtQtQtQt.B.B.B.L.b.Q.Q.I.H.C.D.K.R.p.t.q.r.#.#.a.#.aQtQtQtQtQtQtQtQtQtQtQtQtQtQtQtQtQt",
"QtQtQtQtQtQtQtQtQtQtQtQtQtQtQtQtQtQtQtQtQtQtQtQtQt.S.T.T.L.Q.Q.U.H.E.H.K.D.K.p.r.r.r.d.#.d.#.mQtQtQtQtQtQtQtQtQtQtQtQtQtQtQtQtQt",
"QtQtQtQtQtQtQtQtQtQtQtQtQtQtQtQtQtQtQtQtQtQtQtQtQtQt.G.G.L.Q.U.U.U.H.C.D.K.P.VQt.rQt.d.b.d.b.aQtQtQtQtQtQtQtQtQtQtQtQtQtQtQtQtQt",
"QtQtQtQtQtQtQtQtQtQtQtQtQtQtQtQtQtQtQtQtQtQtQtQtQtQt.G.B.m.Q.U.U.U.P.I.K.U.P.V.W.rQt.#.b.d.b.mQtQtQtQtQtQtQtQtQtQtQtQtQtQtQtQtQt",
"QtQtQtQtQtQtQtQtQtQtQtQtQtQtQtQtQtQtQtQtQtQtQtQtQtQt.w.T.m.S.X.X.P.P.Y.Q.U.U.P.rQtQt.#.b.#.b.iQtQtQtQtQtQtQtQtQtQtQtQtQtQtQtQtQt",
"QtQtQtQtQtQtQtQtQtQtQtQtQtQtQtQtQtQtQtQtQtQtQtQtQtQt.T.O.O.S.T.S.V.P.Q.Q.U.U.P.rQtQt.b.#.c.b.a.aQtQtQtQtQtQtQtQtQtQtQtQtQtQtQtQt",
"QtQtQtQtQtQtQtQtQtQtQtQtQtQtQtQtQtQtQtQtQtQtQtQtQtQt.Z.B.G.S.P.P.U.P.Q.Q.Q.U.PQtQtQt.b.B.#.b.a.#QtQtQtQtQtQtQtQtQtQtQtQtQtQtQtQt",
"QtQtQtQtQtQtQtQtQtQtQtQtQtQtQtQtQtQtQtQtQtQtQtQtQt.0.B.Z.N.G.P.P.U.P.U.Q.Q.U.PQtQtQt.b.#.#.b.d.#QtQtQtQtQtQtQtQtQtQtQtQtQtQtQtQt",
"QtQtQtQtQtQtQtQtQtQtQtQtQtQtQtQtQtQtQtQtQtQtQtQtQt.S.B.S.G.G.P.P.U.P.U.Q.Q.U.PQtQtQt.b.#.c.b.#.dQtQtQtQtQtQtQtQtQtQtQtQtQtQtQtQt",
"QtQtQtQtQtQtQtQtQtQtQtQtQtQtQtQtQtQtQtQtQtQtQtQt.0.T.B.O.G.N.P.P.P.P.L.1.L.m.P.#QtQt.b.#.b.b.b.dQtQtQtQtQtQtQtQtQtQtQtQtQtQtQtQt",
"QtQtQtQtQtQtQtQtQtQtQtQtQtQtQtQtQtQtQtQtQtQtQtQt.2.S.3.O.m.l.U.P.U.P.U.U.P.P.V.#QtQt.#.c.b.bQt.#QtQtQtQtQtQtQtQtQtQtQtQtQtQtQtQt",
"QtQtQtQtQtQtQtQtQtQtQtQtQtQtQtQtQtQtQtQtQtQtQtQt.0.B.g.V.m.l.U.P.U.P.0.2.2.0.V.fQtQt.b.b.bQtQt.#QtQtQtQtQtQtQtQtQtQtQtQtQtQtQtQt",
"QtQtQtQtQtQtQtQtQtQtQtQtQtQtQtQtQtQtQtQtQtQtQtQtQt.B.V.V.m.l.Q.P.U.0.2.t.4.2.0.c.#Qt.b.bQtQtQtQtQtQtQtQtQtQtQtQtQtQtQtQtQtQtQtQt",
"QtQtQtQtQtQtQtQtQtQtQtQtQtQtQtQtQtQtQtQtQtQtQtQtQtQt.B.V.m.l.Q.P.0.k.i.2.h.M.0.d.#Qt.b.bQtQtQtQtQtQtQtQtQtQtQtQtQtQtQtQtQtQtQtQt",
"QtQtQtQtQtQtQtQtQtQtQtQtQtQtQtQtQtQtQtQtQtQtQtQtQtQt.B.m.L.l.Q.P.2.j.u.u.2.4.0.d.b.#.bQtQtQtQtQtQtQtQtQtQtQtQtQtQtQtQtQtQtQtQtQt",
"QtQtQtQtQtQtQtQtQtQtQtQtQtQtQtQtQtQtQtQtQtQtQtQtQtQt.0.m.L.l.Q.U.P.2.k.k.u.2.0.5.d.#QtQtQtQtQtQtQtQtQtQtQtQtQtQtQtQtQtQtQtQtQtQt",
"QtQtQtQtQtQtQtQtQtQtQtQtQtQtQtQtQtQtQtQtQtQtQtQtQtQt.0.G.L.6.Q.U.P.Q.U.u.k.0.P.w.d.bQtQtQtQtQtQtQtQtQtQtQtQtQtQtQtQtQtQtQtQtQtQt",
"QtQtQtQtQtQtQtQtQtQtQtQtQtQtQtQtQtQtQtQtQtQtQtQtQt.w.5.5.1.6.Q.U.P.U.Q.U.U.P.P.V.5.d.#QtQtQtQtQtQtQtQtQtQtQtQtQtQtQtQtQtQtQtQtQt",
"QtQtQtQtQtQtQtQtQtQtQtQtQtQtQtQtQtQtQtQtQtQtQtQt.w.z.x.L.1.6.Q.U.P.U.Q.U.U.P.P.V.w.d.#QtQtQtQtQtQtQtQtQtQtQtQtQtQtQtQtQtQtQtQtQt",
"QtQtQtQtQtQtQtQtQtQtQtQtQtQtQtQtQtQtQtQtQtQtQtQt.x.x.x.L.1.6.Q.U.U.P.Q.U.P.U.P.P.V.5.X.#QtQtQtQtQtQtQtQtQtQtQtQtQtQtQtQtQtQtQtQt",
"QtQtQtQtQtQtQtQtQtQtQtQtQtQtQtQtQtQtQtQtQtQtQtQt.5.5.5.1.1.6.Y.U.U.P.Q.Q.U.U.P.P.V.w.7.#QtQtQtQtQtQtQtQtQtQtQtQtQtQtQtQtQtQtQtQt",
"QtQtQtQtQtQtQtQtQtQtQtQtQtQtQtQtQtQtQtQtQtQtQtQt.8.5.5.1.1.9.Y.U.U.P.U.Q.U.P.U.P.P.V.d.#QtQtQtQtQtQtQtQtQtQtQtQtQtQtQtQtQtQtQtQt",
"QtQtQtQtQtQtQtQtQtQtQtQtQtQtQtQtQtQtQtQtQtQtQtQtQt.8.5.1.1.9.Y.U.U.P.U.Q.U.U.U.P.P.P.w.d.8QtQtQtQtQtQtQtQtQtQtQtQtQtQtQtQtQtQtQt",
"QtQtQtQtQtQtQtQtQtQtQtQtQtQtQtQtQtQtQtQtQtQtQtQtQt.0.c.1.L.9.Y.Q.U.P.U.Q.Q.U.U.P.P.P.V.5.8QtQtQtQtQtQtQtQtQtQtQtQtQtQtQtQtQtQtQt",
"QtQtQtQtQtQtQtQtQtQtQtQtQtQtQtQtQtQtQtQtQtQtQtQtQt.0.2.1.L.9.Y.Q.U.P.U.Q.Q.U.P.U.P.P.V.w.5QtQtQtQtQtQtQtQtQtQtQtQtQtQtQtQtQtQtQt",
"QtQtQtQtQtQtQtQtQtQtQtQtQtQtQtQtQtQtQtQtQtQt#.#.#..p.p.1.L.9.Y.Q.U.P.P.U.Q.U.U.U.P.P.PQt.wQtQtQtQtQtQtQtQtQtQtQtQtQtQtQtQtQtQtQt",
"QtQtQtQtQtQtQtQtQtQtQtQtQtQtQtQtQtQt#.#.#.###a#b.0.c.2.1.L.9.Y.Q.U.P.U.U.Q.Q.U.U.P.P.P#.#.#.QtQtQtQtQtQtQtQtQtQtQtQtQtQtQtQtQtQt",
"QtQtQtQtQtQtQtQtQtQtQtQtQtQtQtQt#.#.#a#c#d#e#f#g.0.2.2.1.L.9.Y.Q.U.P.P.U.Q.Q.U.P.U#f#e#d#c#a#.#.QtQtQtQtQtQtQtQtQtQtQtQtQtQtQtQt",
"QtQtQtQtQtQtQtQtQtQtQtQtQtQtQt#.#a#h#i#j#k#l#m#n.0.p.p.1.L.6.Y.Q.U.P.P.U.Q.Q.U#o#n#p#q#k#j#i#h#a#.QtQtQtQtQtQtQtQtQtQtQtQtQtQtQt",
"QtQtQtQtQtQtQtQtQtQtQtQtQtQt#.#b#r#s#t#u#v#w#x#y.c.2.2.1.L.6.Y.Q.U.M.c.A.A.r#z#A#y#x#w#v#u#t#B#r#b#.QtQtQtQtQtQtQtQtQtQtQtQtQtQt",
"QtQtQtQtQtQtQtQtQtQtQtQtQt#.#a#C#D#E#F#G#H#I.c.c.w.M.2.o.c.0.r.M.c.c.A.r.g.r#J#K#L#M#I#H#G#F#E#D#C#a#.QtQtQtQtQtQtQtQtQtQtQtQtQt",
"QtQtQtQtQtQtQtQtQtQtQtQtQt#.#N#O#P#Q#R#M#J.c.2.p.2.p.M.c.A.0.r.0.g.0.g.r#S#T#T#T#T#T#U#J#M#R#Q#P#O#N#.QtQtQtQtQtQtQtQtQtQtQtQtQt",
"QtQtQtQtQtQtQtQtQtQtQtQtQt#.#N#V#P#Q#H#M#J.A.2.M.2.2.2.c.c.0#S#S#S#S#S#S#S#T#T#T#T#T#U#J#M#H#Q#W#V#N#.QtQtQtQtQtQtQtQtQtQtQtQtQt",
"QtQtQtQtQtQtQtQtQtQtQtQtQt#.#X#C#D#E#F#G#H.0.0.0.0.0.0.0.0.0#Y#T#T#Y#Y#U#Z#Z#J#K#L#M#I#H#G#F#E#D#C#X#.QtQtQtQtQtQtQtQtQtQtQtQtQt",
"QtQtQtQtQtQtQtQtQtQtQtQtQtQt#.#b#0#B#1#E#2#w#x#y#A#z#3#4#5#6#7#7#7#7#6#5#4#3#z#A#y#x#w#2#E#1#B#0#b#.QtQtQtQtQtQtQtQtQtQtQtQtQtQt",
"QtQtQtQtQtQtQtQtQtQtQtQtQtQtQt#.#X#d#i#j#k#q#p#n#o#8#9a.#Fa##Qaaaa#Qa##Fa.#9#8#o#n#p#q#k#j#i#d#X#.QtQtQtQtQtQtQtQtQtQtQtQtQtQtQt",
"QtQtQtQtQtQtQtQtQtQtQtQtQtQtQtQt#.#.#a#c#d#e#f#gabacadaeafagah#l#lahagafaeadacab#g#f#C#d#c#a#.#.QtQtQtQtQtQtQtQtQtQtQtQtQtQtQtQt",
"QtQtQtQtQtQtQtQtQtQtQtQtQtQtQtQtQtQt#.#.#.###a#b#cai#dajakakakalalakakakaj#dai#c#b#a###.#.#.QtQtQtQtQtQtQtQtQtQtQtQtQtQtQtQtQtQt",
"QtQtQtQtQtQtQtQtQtQtQtQtQtQtQtQtQtQtQtQtQtQt#.#.#.#.#.#.#.#.#.#.#.#.#.#.#.#.#.#.#.#.QtQtQtQtQtQtQtQtQtQtQtQtQtQtQtQtQtQtQtQtQtQt",
"QtQtQtQtQtQtQtQtQtQtQtQtQtQtQtQtQtQtQtQtQtQtQtQtQtQtQtQtQtQtQtQtQtQtQtQtQtQtQtQtQtQtQtQtQtQtQtQtQtQtQtQtQtQtQtQtQtQtQtQtQtQtQtQt",
"QtQtQtQtQtQtQtQtQtQtQtQtQtQtQtQtQtQtQtQtQtQtQtQtQtQtQtQtQtQtQtQtQtQtQtQtQtQtQtQtQtQtQtQtQtQtQtQtQtQtQtQtQtQtQtQtQtQtQtQtQtQtQtQt"};
