/* XPM */
static char *dummy[]={
"64 64 112 2",
"Qt c None",
".J c #000000",
".M c #000000",
".L c #000000",
"#v c #000000",
".K c #000000",
"#n c #000000",
".N c #000000",
"#Q c #000000",
".T c #000000",
".O c #000000",
"#R c #000000",
"#S c #000000",
"#T c #000000",
".S c #000000",
"#c c #000000",
".3 c #000000",
"#x c #000000",
".U c #000000",
".R c #000000",
"#o c #000000",
"#t c #000000",
".Q c #000000",
".V c #000000",
"#K c #000000",
".4 c #000000",
"#b c #000000",
"#L c #000000",
".W c #000000",
"#M c #000000",
"#d c #000000",
"#N c #000000",
"#O c #000000",
"#P c #000000",
".P c #000000",
".X c #000000",
".2 c #000000",
".5 c #000000",
"#y c #000000",
".1 c #000000",
"#p c #000000",
"#u c #000000",
".0 c #000000",
".6 c #000000",
"#e c #000000",
"#F c #000000",
"#G c #000000",
".7 c #000000",
"#z c #000000",
"#H c #000000",
"#I c #000000",
"#f c #000000",
".8 c #000000",
"#J c #000000",
".Z c #000000",
".Y c #000000",
".9 c #000000",
"#g c #000000",
"#. c #000000",
"#A c #000000",
"#B c #000000",
"#q c #000000",
"#h c #000000",
"#C c #000000",
"#D c #000000",
"#E c #000000",
"#i c #000000",
"#a c #000000",
"## c #000000",
"#j c #000000",
"#k c #000000",
"#l c #000000",
"#m c #000000",
"#w c #000000",
"#r c #000000",
"#s c #000000",
".l c #000003",
".F c #00070c",
".t c #00ff00",
".o c #07050d",
".q c #141d32",
".j c #1baba8",
".f c #1c0000",
".v c #1e232c",
".h c #25424b",
".r c #2b2c38",
".z c #303a55",
".H c #3f4449",
".C c #4b5e7f",
".n c #4f211e",
".s c #4f5463",
".b c #52300c",
".u c #5b0a00",
".D c #684700",
".G c #6c7273",
".E c #708ea7",
".w c #757c87",
".m c #8b4435",
".# c #946230",
".I c #99a09e",
".A c #9e7b10",
".x c #b1b5be",
".g c #b5bfce",
".p c #c26552",
".a c #d1a049",
".B c #dfba18",
".c c #f0e883",
".i c #f2ffff",
".y c #f4fffe",
".e c #fd9370",
".k c #ffe5ba",
".d c #fffffa",
"QtQtQtQtQtQtQtQtQtQtQtQtQtQtQtQtQtQtQtQtQtQtQtQtQtQtQtQtQtQtQtQtQtQtQtQtQtQtQtQtQtQtQtQtQtQtQtQtQtQtQtQtQtQtQtQtQtQtQtQtQtQtQtQt",
"QtQtQtQtQtQtQtQtQtQtQtQtQtQtQtQtQtQtQtQtQtQtQtQtQtQtQtQtQtQtQtQtQtQtQtQtQtQtQtQtQtQtQtQtQtQtQtQtQtQtQtQtQtQtQtQtQtQtQtQtQtQtQtQt",
"QtQtQtQtQtQtQtQtQtQtQtQtQtQtQtQtQtQtQtQtQtQtQtQtQtQtQtQtQtQtQtQtQt.#.aQtQtQtQtQtQtQtQtQtQtQtQtQtQtQtQtQtQtQtQtQtQtQtQtQtQtQtQtQt",
"QtQtQtQtQtQtQtQtQtQtQtQtQtQtQtQtQtQtQtQtQtQtQtQtQtQtQtQtQtQt.#.#.#.#.a.bQtQtQtQtQtQtQtQtQtQtQtQtQtQtQtQtQtQtQtQtQtQtQtQtQtQtQtQt",
"QtQtQtQtQtQtQtQtQtQtQtQtQtQtQtQtQtQtQtQtQtQtQtQtQtQtQtQt.#.a.#.#.#.a.b.b.#.bQtQtQtQtQtQtQtQtQtQtQtQtQtQtQtQtQtQtQtQtQtQtQtQtQtQt",
"QtQtQtQtQtQtQtQtQtQtQtQtQtQtQtQtQtQtQtQtQtQtQtQtQtQtQt.#.#.a.a.a.#.#.a.#.#.b.bQtQtQtQtQtQtQtQtQtQtQtQtQtQtQtQtQtQtQtQtQtQtQtQtQt",
"QtQtQtQtQtQtQtQtQtQtQtQtQtQtQtQtQtQtQtQtQtQtQtQtQtQt.#.#.a.c.a.c.a.a.a.c.a.#.bQtQtQtQtQtQtQtQtQtQtQtQtQtQtQtQtQtQtQtQtQtQtQtQtQt",
"QtQtQtQtQtQtQtQtQtQtQtQtQtQtQtQtQtQtQtQtQtQtQtQtQtQt.#.c.c.a.c.c.a.c.a.c.c.d.a.#QtQtQtQtQtQtQtQtQtQtQtQtQtQtQtQtQtQtQtQtQtQtQtQt",
"QtQtQtQtQtQtQtQtQtQtQtQtQtQtQtQtQtQtQtQtQtQtQtQtQt.b.a.c.a.a.c.a.c.c.a.c.a.c.d.#QtQtQtQtQtQtQtQtQtQtQtQtQtQtQtQtQtQtQtQtQtQtQtQt",
"QtQtQtQtQtQtQtQtQtQtQtQtQtQtQtQtQtQtQtQtQtQtQtQtQt.b.a.#.#.a.#.c.d.a.#.c.d.a.a.c.aQtQtQtQtQtQtQtQtQtQtQtQtQtQtQtQtQtQtQtQtQtQtQt",
"QtQtQtQtQtQtQtQtQtQtQtQtQtQtQtQtQtQtQtQtQtQtQtQt.#.a.#.b.a.a.#.d.c.#.b.#.c.d.#.a.aQtQtQtQtQtQtQtQtQtQtQtQtQtQtQtQtQtQtQtQtQtQtQt",
"QtQtQtQtQtQtQtQtQtQtQtQtQtQtQtQtQtQtQtQtQtQtQtQt.#.b.b.#.a.#.a.c.a.#.e.b.a.d.b.bQtQtQtQtQtQtQtQtQtQtQtQtQtQtQtQtQtQtQtQtQtQtQtQt",
"QtQtQtQtQtQtQtQtQtQtQtQtQtQtQtQtQtQtQtQtQtQtQtQt.#.#.#.b.#.b.a.a.b.f.f.e.#.c.bQtQtQtQtQtQtQtQtQtQtQtQtQtQtQtQtQtQtQtQtQtQtQtQtQt",
"QtQtQtQtQtQtQtQtQtQtQtQtQtQtQtQtQtQtQtQtQtQtQtQt.#.b.b.b.#.e.#.a.b.g.h.f.b.a.bQtQtQtQtQtQtQtQtQtQtQtQtQtQtQtQtQtQtQtQtQtQtQtQtQt",
"QtQtQtQtQtQtQtQtQtQtQtQtQtQtQtQtQtQtQtQtQtQtQtQtQtQt.b.b.#.e.b.#.e.i.j.k.e.bQtQtQtQtQtQtQtQtQtQtQtQtQtQtQtQtQtQtQtQtQtQtQtQtQtQt",
"QtQtQtQtQtQtQtQtQtQtQtQtQtQtQtQtQtQtQtQtQtQtQtQtQt.l.l.b.b.m.m.b.k.k.k.k.k.nQtQtQtQtQtQtQtQtQtQtQtQtQtQtQtQtQtQtQtQtQtQtQtQtQtQt",
"QtQtQtQtQtQtQtQtQtQtQtQtQtQtQtQtQtQtQtQtQtQtQtQtQt.l.o.l.b.b.m.p.k.k.k.k.p.nQtQtQtQtQtQtQtQtQtQtQtQtQtQtQtQtQtQtQtQtQtQtQtQtQtQt",
"QtQtQtQtQtQtQtQtQtQtQtQtQtQtQtQtQtQtQtQtQtQtQtQtQt.l.q.l.l.l.b.m.p.e.e.p.n.rQtQtQtQtQtQtQtQtQtQtQtQtQtQtQtQtQtQtQtQtQtQtQtQtQtQt",
"QtQtQtQtQtQtQtQtQtQtQtQtQtQtQtQtQtQtQtQtQtQtQtQtQt.l.q.s.q.l.l.t.n.m.m.n.u.sQtQtQtQtQtQtQtQtQtQtQtQtQtQtQtQtQtQtQtQtQtQtQtQtQtQt",
"QtQtQtQtQtQtQtQtQtQtQtQtQtQtQtQtQtQtQtQtQtQtQtQtQtQt.q.v.s.w.x.y.w.r.l.w.u.oQtQtQtQtQtQtQtQtQtQtQtQtQtQtQtQtQtQtQtQtQtQtQtQtQtQt",
"QtQtQtQtQtQtQtQtQtQtQtQtQtQtQtQtQtQtQtQtQtQtQtQtQtQt.l.q.q.q.q.q.y.w.l.x.s.oQtQtQtQtQtQtQtQtQtQtQtQtQtQtQtQtQtQtQtQtQtQtQtQtQtQt",
"QtQtQtQtQtQtQtQtQtQtQtQtQtQtQtQtQtQtQtQtQtQtQtQtQtQt.l.q.z.z.z.q.q.y.r.x.o.rQtQtQtQtQtQtQtQtQtQtQtQtQtQtQtQtQtQtQtQtQtQtQtQtQtQt",
"QtQtQtQtQtQtQtQtQtQtQtQtQtQtQtQtQtQtQtQtQtQtQtQtQtQt.l.q.A.B.z.z.l.y.r.r.o.sQtQtQtQtQtQtQtQtQtQtQtQtQtQtQtQtQtQtQtQtQtQtQtQtQtQt",
"QtQtQtQtQtQtQtQtQtQtQtQtQtQtQtQtQtQtQtQtQtQtQtQtQtQt.l.z.B.B.A.C.q.y.r.r.r.wQtQtQtQtQtQtQtQtQtQtQtQtQtQtQtQtQtQtQtQtQtQtQtQtQtQt",
"QtQtQtQtQtQtQtQtQtQtQtQtQtQtQtQtQtQtQtQtQtQtQtQtQtQt.l.q.A.B.B.C.z.x.s.s.D.sQtQtQtQtQtQtQtQtQtQtQtQtQtQtQtQtQtQtQtQtQtQtQtQtQtQt",
"QtQtQtQtQtQtQtQtQtQtQtQtQtQtQtQtQtQtQtQtQtQtQtQtQtQtQt.q.z.C.C.C.z.x.r.D.r.sQtQtQtQtQtQtQtQtQtQtQtQtQtQtQtQtQtQtQtQtQtQtQtQtQtQt",
"QtQtQtQtQtQtQtQtQtQtQtQtQtQtQtQtQtQtQtQtQtQtQtQtQtQt.l.l.z.z.C.z.q.w.s.s.D.rQtQtQtQtQtQtQtQtQtQtQtQtQtQtQtQtQtQtQtQtQtQtQtQtQtQt",
"QtQtQtQtQtQtQtQtQtQtQtQtQtQtQtQtQtQtQtQtQtQtQtQtQtQt.l.o.q.z.z.z.q.w.r.D.oQtQtQtQtQtQtQtQtQtQtQtQtQtQtQtQtQtQtQtQtQtQtQtQtQtQtQt",
"QtQtQtQtQtQtQtQtQtQtQtQtQtQtQtQtQtQtQtQtQtQtQtQtQtQt.l.o.q.z.z.C.z.q.r.o.oQtQtQtQtQtQtQtQtQtQtQtQtQtQtQtQtQtQtQtQtQtQtQtQtQtQtQt",
"QtQtQtQtQtQtQtQtQtQtQtQtQtQtQtQtQtQtQtQtQtQtQtQtQtQt.l.l.l.z.z.E.C.q.o.D.AQtQtQtQtQtQtQtQtQtQtQtQtQtQtQtQtQtQtQtQtQtQtQtQtQtQtQt",
"QtQtQtQtQtQtQtQtQtQtQtQtQtQtQtQtQtQtQtQtQtQtQtQtQtQt.l.s.l.q.C.E.E.z.w.D.A.DQtQtQtQtQtQtQtQtQtQtQtQtQtQtQtQtQtQtQtQtQtQtQtQtQtQt",
"QtQtQtQtQtQtQtQtQtQtQtQtQtQtQtQtQtQtQtQtQtQtQtQtQtQt.l.l.s.q.C.C.C.y.x.r.D.DQtQtQtQtQtQtQtQtQtQtQtQtQtQtQtQtQtQtQtQtQtQtQtQtQtQt",
"QtQtQtQtQtQtQtQtQtQtQtQtQtQtQtQtQtQtQtQtQtQtQtQtQt.l.l.o.q.s.w.x.y.z.q.D.A.oQtQtQtQtQtQtQtQtQtQtQtQtQtQtQtQtQtQtQtQtQtQtQtQtQtQt",
"QtQtQtQtQtQtQtQtQtQtQtQtQtQtQtQtQtQtQtQtQtQtQtQt.l.o.F.o.o.l.q.z.z.x.w.r.s.DQtQtQtQtQtQtQtQtQtQtQtQtQtQtQtQtQtQtQtQtQtQtQtQtQtQt",
"QtQtQtQtQtQtQtQtQtQtQtQtQtQtQtQtQtQtQtQtQtQtQtQt.l.q.q.l.q.r.s.w.x.r.F.F.D.oQtQtQtQtQtQtQtQtQtQtQtQtQtQtQtQtQtQtQtQtQtQtQtQtQtQt",
"QtQtQtQtQtQtQtQtQtQtQtQtQtQtQtQtQtQtQtQtQtQtQt.l.l.q.q.l.q.z.F.F.F.v.F.G.F.rQtQtQtQtQtQtQtQtQtQtQtQtQtQtQtQtQtQtQtQtQtQtQtQtQtQt",
"QtQtQtQtQtQtQtQtQtQtQtQtQtQtQtQtQtQtQtQtQtQtQt.l.q.z.q.q.z.z.F.v.H.H.v.I.FQtQtQtQtQtQtQtQtQtQtQtQtQtQtQtQtQtQtQtQtQtQtQtQtQtQtQt",
"QtQtQtQtQtQtQtQtQtQtQtQtQtQtQtQtQtQtQtQtQtQt.l.q.z.z.q.z.z.z.q.F.G.G.H.o.l.lQtQtQtQtQtQtQtQtQtQtQtQtQtQtQtQtQtQtQtQtQtQtQtQtQtQt",
"QtQtQtQtQtQtQtQtQtQtQtQtQtQtQtQtQtQtQtQtQtQt.l.q.z.q.q.z.z.z.q.w.F.F.F.l.o.lQtQtQtQtQtQtQtQtQtQtQtQtQtQtQtQtQtQtQtQtQtQtQtQtQtQt",
"QtQtQtQtQtQtQtQtQtQtQtQtQtQtQtQtQtQtQtQtQt.l.q.z.z.q.z.z.C.z.q.w.l.q.q.q.q.lQtQtQtQtQtQtQtQtQtQtQtQtQtQtQtQtQtQtQtQtQtQtQtQtQtQt",
"QtQtQtQtQtQtQtQtQtQtQtQtQtQtQtQtQtQtQtQtQt.l.z.C.q.z.z.C.C.z.q.x.q.q.z.l.q.l.lQtQtQtQtQtQtQtQtQtQtQtQtQtQtQtQtQtQtQtQtQtQtQtQtQt",
"QtQtQtQtQtQtQtQtQtQtQtQtQtQtQtQtQtQtQtQt.l.q.C.z.z.z.C.C.C.z.q.x.q.z.C.l.q.q.lQtQtQtQtQtQtQtQtQtQtQtQtQtQtQtQtQtQtQtQtQtQtQtQtQt",
"QtQtQtQtQtQtQtQtQtQtQtQtQtQtQtQtQtQtQt.l.l.z.z.q.z.z.C.C.C.z.w.w.z.z.z.l.q.q.lQtQtQtQtQtQtQtQtQtQtQtQtQtQtQtQtQtQtQtQtQtQtQtQtQt",
"QtQtQtQtQtQtQtQtQtQtQtQtQtQtQtQtQtQt.o.l.q.z.q.z.z.C.C.E.C.z.x.r.q.z.q.F.q.q.lQtQtQtQtQtQtQtQtQtQtQtQtQtQtQtQtQtQtQtQtQtQtQtQtQt",
"QtQtQtQtQtQtQtQtQtQtQtQtQtQtQtQtQtQt.o.q.v.q.z.z.C.C.E.E.C.C.x.l.G.l.l.o.l.q.G.GQtQtQtQtQtQtQtQtQtQtQtQtQtQtQtQtQtQtQtQtQtQtQtQt",
"QtQtQtQtQtQtQtQtQtQtQtQtQtQtQtQtQtQt.o.r.q.z.z.z.C.C.E.E.E.C.y.H.v.G.l.l.v.G.H.GQtQtQtQtQtQtQtQtQtQtQtQtQtQtQtQtQtQtQtQtQtQtQtQt",
"QtQtQtQtQtQtQtQtQtQtQtQtQtQtQtQtQtQt.o.r.r.q.z.C.C.E.E.E.E.C.y.G.G.v.l.v.H.v.G.GQtQtQtQtQtQtQtQtQtQtQtQtQtQtQtQtQtQtQtQtQtQtQtQt",
"QtQtQtQtQtQtQtQtQtQtQtQtQtQtQtQtQtQt.o.r.r.s.q.z.z.C.C.z.z.z.y.H.G.l.F.o.q.H.H.vQtQtQtQtQtQtQtQtQtQtQtQtQtQtQtQtQtQtQtQtQtQtQtQt",
"QtQtQtQtQtQtQtQtQtQtQtQtQtQtQtQtQtQtQt.o.r.r.w.x.x.w.G.w.x.x.y.l.l.l.F.F.v.F.v.J.JQtQtQtQtQtQtQtQtQtQtQtQtQtQtQtQtQtQtQtQtQtQtQt",
"QtQtQtQtQtQtQtQtQtQtQtQtQtQtQtQtQt.J.J.o.r.r.r.s.s.s.w.w.w.x.y.l.o.l.F.F.F.F.F.K.L.M.J.J.JQtQtQtQtQtQtQtQtQtQtQtQtQtQtQtQtQtQtQt",
"QtQtQtQtQtQtQtQtQtQtQtQtQtQtQt.J.J.L.N.O.o.r.r.s.s.s.s.w.w.w.y.v.P.F.F.F.F.v.o.Q.R.S.O.N.L.J.JQtQtQtQtQtQtQtQtQtQtQtQtQtQtQtQtQt",
"QtQtQtQtQtQtQtQtQtQtQtQtQtQt.J.L.T.U.V.W.X.o.o.r.r.s.s.w.w.w.x.Y.Z.l.l.F.F.F.F.0.1.2.W.V.U.T.L.JQtQtQtQtQtQtQtQtQtQtQtQtQtQtQtQt",
"QtQtQtQtQtQtQtQtQtQtQtQtQt.J.K.3.4.5.6.7.8.9#..o.l.o.o.o.o.o.v###a.F.F.F.F.v.v.F.9.8.7.6.5#b.3.K.JQtQtQtQtQtQtQtQtQtQtQtQtQtQtQt",
"QtQtQtQtQtQtQtQtQtQtQtQt.J.L#c#d#e#f#g#h#i#j#k#l#m.o.v.H.H.G.H.r.v.F.F.F.F.F.F.F.H.v#h#g#f#e#d#c.L.JQtQtQtQtQtQtQtQtQtQtQtQtQtQt",
"QtQtQtQtQtQtQtQtQtQtQtQt.J#n#o#p.Z#q#j#m#r#s#s#s#s.l.o.l.l.v.v.v.v.F.F.F.F.v.v.H.H.v#m#j#q.Z#p#o#n.JQtQtQtQtQtQtQtQtQtQtQtQtQtQt",
"QtQtQtQtQtQtQtQtQtQtQtQt.J#n#t#p.Z#h#j#m#r#s#s#s#s.o.v.v.H.H.H.G.G.H.F.F.F.F.F.v.v.v#m#j#h.Z#u#t#n.JQtQtQtQtQtQtQtQtQtQtQtQtQtQt",
"QtQtQtQtQtQtQtQtQtQtQtQt.J#v#c#d#e#f#g#h#i#j#k#l#m.l.l.o.v.o.l.H.H.H#r#w.l.l.F.l.l.l#h#g#f#e#d#c#v.JQtQtQtQtQtQtQtQtQtQtQtQtQtQt",
"QtQtQtQtQtQtQtQtQtQtQtQtQt.J.K#x#b#y#e#z.8.9#.#A#B#C#D.l.l.l.o.v.v.v#E#D#C#B#A#..9.8#z#e#y#b#x.K.JQtQtQtQtQtQtQtQtQtQtQtQtQtQtQt",
"QtQtQtQtQtQtQtQtQtQtQtQtQtQt.J#v.O.U.V.W.2.1.0#F#G#H#I#f#J.Z.Y.Y.Z#J#f#I#H#G#F.0.1.2.W.V.U.O#v.JQtQtQtQtQtQtQtQtQtQtQtQtQtQtQtQt",
"QtQtQtQtQtQtQtQtQtQtQtQtQtQtQt.J.J.L.N.O.S.R.Q#K#L#M#N#O#P.P.X.X.P#P#O#N#M#L#K.Q.R#c.O.N.L.J.JQtQtQtQtQtQtQtQtQtQtQtQtQtQtQtQtQt",
"QtQtQtQtQtQtQtQtQtQtQtQtQtQtQtQtQt.J.J.J.M.L.K.N#Q.O#R#S#S#S#T#T#S#S#S#R.O#Q.N.K.L.M.J.J.JQtQtQtQtQtQtQtQtQtQtQtQtQtQtQtQtQtQtQt",
"QtQtQtQtQtQtQtQtQtQtQtQtQtQtQtQtQtQtQtQtQt.J.J.J.J.J.J.J.J.J.J.J.J.J.J.J.J.J.J.J.JQtQtQtQtQtQtQtQtQtQtQtQtQtQtQtQtQtQtQtQtQtQtQt",
"QtQtQtQtQtQtQtQtQtQtQtQtQtQtQtQtQtQtQtQtQtQtQtQtQtQtQtQtQtQtQtQtQtQtQtQtQtQtQtQtQtQtQtQtQtQtQtQtQtQtQtQtQtQtQtQtQtQtQtQtQtQtQtQt",
"QtQtQtQtQtQtQtQtQtQtQtQtQtQtQtQtQtQtQtQtQtQtQtQtQtQtQtQtQtQtQtQtQtQtQtQtQtQtQtQtQtQtQtQtQtQtQtQtQtQtQtQtQtQtQtQtQtQtQtQtQtQtQtQt"};
