/* XPM */
static char *dummy[]={
"64 64 140 2",
"Qt c None",
".7 c #000000",
"#. c #000000",
".9 c #000000",
"#V c #000000",
".8 c #000000",
"#L c #000000",
"## c #000000",
"ag c #000000",
"#e c #000000",
"#a c #000000",
"ah c #000000",
"ai c #000000",
"aj c #000000",
"#b c #000000",
"#A c #000000",
"#o c #000000",
"#Y c #000000",
"#f c #000000",
"#c c #000000",
"#M c #000000",
"#T c #000000",
"#d c #000000",
"#g c #000000",
"a# c #000000",
"#p c #000000",
"#z c #000000",
"aa c #000000",
"#h c #000000",
"ab c #000000",
"#B c #000000",
"ac c #000000",
"ad c #000000",
"ae c #000000",
"af c #000000",
"#i c #000000",
"#n c #000000",
"#q c #000000",
"#Z c #000000",
"#j c #000000",
"#m c #000000",
"#N c #000000",
"#U c #000000",
"#k c #000000",
"#r c #000000",
"#C c #000000",
"#l c #000000",
"#6 c #000000",
"#s c #000000",
"#0 c #000000",
"#7 c #000000",
"#8 c #000000",
"#D c #000000",
"#t c #000000",
"#9 c #000000",
"#O c #000000",
"a. c #000000",
"#u c #000000",
"#E c #000000",
"#v c #000000",
"#w c #000000",
"#x c #000000",
"#P c #000000",
"#F c #000000",
"#1 c #000000",
"#2 c #000000",
"#3 c #000000",
"#G c #000000",
"#4 c #000000",
"#5 c #000000",
"#H c #000000",
"#I c #000000",
"#J c #000000",
"#K c #000000",
"#W c #000000",
"#Q c #000000",
"#X c #000000",
"#R c #000000",
"#S c #000000",
".2 c #000008",
".s c #00b39e",
".0 c #020101",
".g c #060808",
".A c #061e11",
".r c #06eba8",
".J c #080014",
".u c #080808",
".d c #0c1211",
"#y c #0f0e11",
".e c #131314",
".q c #137177",
".v c #140500",
".a c #1a2520",
".K c #1e194b",
".h c #212828",
".o c #26252c",
".3 c #282829",
".c c #2b3932",
".C c #313539",
".H c #35353a",
".L c #382966",
".# c #3a4a42",
".i c #3d3d3d",
".D c #444448",
".j c #463626",
".E c #47474e",
".Y c #4a2121",
".R c #51545b",
".B c #525351",
".x c #535353",
".M c #554783",
".W c #562f1d",
".I c #563521",
".b c #585c5e",
".4 c #655324",
".Q c #665e9a",
".t c #6d2029",
".S c #6f6f76",
".V c #72472d",
".z c #7291ea",
".X c #797a7c",
".f c #798487",
".G c #7a603f",
".m c #838384",
".6 c #8b682a",
".U c #946c45",
".F c #9e7e55",
".Z c #9e99a6",
".1 c #a3a3aa",
".N c #ad473d",
".n c #adb2af",
".w c #b14432",
".5 c #ccd3d6",
".l c #e49e87",
".y c #e5f4ff",
".k c #e67160",
".O c #e87252",
".p c #f7e0d0",
".P c #ffbf75",
".T c #ffef7c",
"QtQtQtQtQtQtQtQtQtQtQtQtQtQtQtQtQtQtQtQtQtQtQtQtQtQtQtQtQtQtQtQtQtQtQtQtQtQtQtQtQtQtQtQtQtQtQtQtQtQtQtQtQtQtQtQtQtQtQtQtQtQtQtQt",
"QtQtQtQtQtQtQtQtQtQtQtQtQtQtQtQtQtQtQtQtQtQtQtQtQtQtQtQtQtQtQtQtQtQtQtQtQtQtQtQtQtQtQtQtQtQtQtQtQtQtQtQtQtQtQtQtQtQtQtQtQtQtQtQt",
"QtQtQtQtQtQtQtQtQtQtQtQtQtQtQtQtQtQtQtQtQtQtQt.#.a.aQtQtQtQtQtQtQtQtQtQtQtQtQtQtQtQtQtQtQtQtQtQtQtQtQtQtQtQtQtQtQtQtQtQtQtQtQtQt",
"QtQtQtQtQtQtQtQtQtQtQtQtQtQtQtQtQtQtQtQtQtQt.#.b.#.c.aQtQtQt.d.e.d.d.dQtQtQtQtQtQtQtQtQtQtQtQtQtQtQtQtQtQtQtQtQtQtQtQtQtQtQtQtQt",
"QtQtQtQtQtQtQtQtQtQtQtQtQtQtQtQtQtQtQtQtQt.b.f.b.c.a.b.f.g.e.a.h.a.#.#.aQtQtQtQtQtQtQtQtQtQtQtQtQtQtQtQtQtQtQtQtQtQtQtQtQtQtQtQt",
"QtQtQtQtQtQtQtQtQtQtQtQtQtQtQtQtQtQtQtQtQt.f.b.#.a.c.f.g.d.h.a.c.i.a.c.b.cQtQtQtQtQtQtQtQtQtQtQtQtQtQtQtQtQtQtQtQtQtQtQtQtQtQtQt",
"QtQtQtQtQtQtQtQtQtQtQtQtQtQtQtQtQtQtQtQt.a.f.c.#.a.e.g.d.a.c.#.#.b.c.a.c.f.cQt.dQtQtQtQtQtQtQtQtQtQtQtQtQtQtQtQtQtQtQtQtQtQtQtQt",
"QtQtQtQtQtQtQtQtQtQtQtQtQtQtQtQtQtQtQtQt.a.b.c.#.d.d.d.a.c.d.a.a.a.f.c.c.f.c.aQtQtQtQtQtQtQtQtQtQtQtQtQtQtQtQtQtQtQtQtQtQtQtQtQt",
"QtQtQtQtQtQtQtQtQtQtQtQtQtQtQtQtQtQtQtQt.c.b.a.#.d.d.a.a.d.a.#.b.f.a.b.c.b.aQtQtQtQtQtQtQtQtQtQtQtQtQtQtQtQtQtQtQtQtQtQtQtQtQtQt",
"QtQtQtQtQtQtQtQtQtQtQtQtQtQtQtQtQtQtQtQt.c.#.a.cQt.d.j.d.a.c.h.c.a.b.k.l.l.a.dQtQtQtQtQtQtQtQtQtQtQtQtQtQtQtQtQtQtQtQtQtQtQtQtQt",
"QtQtQtQtQtQtQtQtQtQtQtQtQtQtQtQtQtQtQtQt.a.m.n.aQtQt.d.d.c.a.d.o.c.l.p.p.p.aQt.dQtQtQtQtQtQtQtQtQtQtQtQtQtQtQtQtQtQtQtQtQtQtQtQt",
"QtQtQtQtQtQtQtQtQtQtQtQtQtQtQtQtQtQtQtQt.a.q.r.sQt.d.e.a.a.d.d.c.t.t.k.p.p.dQt.dQtQtQtQtQtQtQtQtQtQtQtQtQtQtQtQtQtQtQtQtQtQtQtQt",
"QtQtQtQtQtQtQtQtQtQtQtQtQtQtQtQtQtQtQtQt.a.m.n.mQt.d.d.a.d.l.d.c.u.n.v.w.l.kQtQtQtQtQtQtQtQtQtQtQtQtQtQtQtQtQtQtQtQtQtQtQtQtQtQt",
"QtQtQtQtQtQtQtQtQtQtQtQtQtQtQtQtQtQtQtQt.c.x.s.rQtQt.a.d.a.k.d.#.u.y.z.l.l.kQtQtQtQtQtQtQtQtQtQtQtQtQtQtQtQtQtQtQtQtQtQtQtQtQtQt",
"QtQtQtQtQtQtQtQtQtQtQtQtQtQtQtQtQtQtQt.a.#.d.q.n.mQtQt.a.d.g.d.#.l.p.p.p.p.wQtQtQtQtQtQtQtQtQtQtQtQtQtQtQtQtQtQtQtQtQtQtQtQtQtQt",
"QtQtQtQtQtQtQtQtQtQtQtQtQtQtQtQtQtQtQt.c.#.d.c.n.mQtQt.d.g.g.d.#.l.p.p.p.l.wQtQtQtQtQtQtQtQtQtQtQtQtQtQtQtQtQtQtQtQtQtQtQtQtQtQt",
"QtQtQtQtQtQtQtQtQtQtQtQtQtQtQtQtQtQtQt.#.c.d.c.m.n.xQt.g.A.c.A.d.#.l.p.l.w.dQtQtQtQtQtQtQtQtQtQtQtQtQtQtQtQtQtQtQtQtQtQtQtQtQtQt",
"QtQtQtQtQtQtQtQtQtQtQtQtQtQtQtQtQtQtQt.#.c.a.a.B.m.mQt.C.C.D.E.d.c.k.l.w.A.dQtQtQtQtQtQtQtQtQtQtQtQtQtQtQtQtQtQtQtQtQtQtQtQtQtQt",
"QtQtQtQtQtQtQtQtQtQtQtQtQtQtQtQtQtQtQt.a.b.a.c.x.B.F.G.H.E.E.E.E.a.#.w.t.E.g.dQtQtQtQtQtQtQtQtQtQtQtQtQtQtQtQtQtQtQtQtQtQtQtQtQt",
"QtQtQtQtQtQtQtQtQtQtQtQtQtQtQtQtQtQtQt.c.b.a.c.d.I.s.q.A.J.K.K.E.d.c.C.w.C.E.dQtQtQtQtQtQtQtQtQtQtQtQtQtQtQtQtQtQtQtQtQtQtQtQtQt",
"QtQtQtQtQtQtQtQtQtQtQtQtQtQtQtQtQtQtQt.#.b.d.a.d.q.F.m.J.K.L.M.K.E.d.D.E.A.C.gQtQtQtQtQtQtQtQtQtQtQtQtQtQtQtQtQtQtQtQtQtQtQtQtQt",
"QtQtQtQtQtQtQtQtQtQtQtQtQtQtQtQtQtQt.a.#.b.d.a.dQt.x.m.N.O.P.Q.M.K.E.R.S.E.A.DQtQtQtQtQtQtQtQtQtQtQtQtQtQtQtQtQtQtQtQtQtQtQtQtQt",
"QtQtQtQtQtQtQtQtQtQtQtQtQtQtQtQtQtQt.a.c.#.h.e.dQtQt.J.K.L.M.T.O.K.U.a.H.E.A.CQtQtQtQtQtQtQtQtQtQtQtQtQtQtQtQtQtQtQtQtQtQtQtQtQt",
"QtQtQtQtQtQtQtQtQtQtQtQtQtQtQtQtQtQt.c.a.#.h.d.dQtQt.J.L.M.Q.M.K.M.M.d.S.A.A.AQtQtQtQtQtQtQtQtQtQtQtQtQtQtQtQtQtQtQtQtQtQtQtQtQt",
"QtQtQtQtQtQtQtQtQtQtQtQtQtQtQtQtQtQt.#.a.c.a.a.dQtQt.K.L.M.Q.M.K.L.M.M.S.V.V.WQtQtQtQtQtQtQtQtQtQtQtQtQtQtQtQtQtQtQtQtQtQtQtQtQt",
"QtQtQtQtQtQtQtQtQtQtQtQtQtQtQtQtQt.E.d.c.d.a.dQtQt.J.K.L.Q.Q.K.L.L.L.M.S.C.CQtQtQtQtQtQtQtQtQtQtQtQtQtQtQtQtQtQtQtQtQtQtQtQtQtQt",
"QtQtQtQtQtQtQtQtQtQtQtQtQtQtQtQtQt.#.d.c.d.a.dQtQt.J.K.L.Q.Q.K.L.L.L.M.E.A.CQtQtQtQtQtQtQtQtQtQtQtQtQtQtQtQtQtQtQtQtQtQtQtQtQtQt",
"QtQtQtQtQtQtQtQtQtQtQtQtQtQtQtQtQt.E.d.a.e.d.dQt.D.K.L.L.M.Q.K.K.I.I.W.E.V.nQtQtQtQtQtQtQtQtQtQtQtQtQtQtQtQtQtQtQtQtQtQtQtQtQtQt",
"QtQtQtQtQtQtQtQtQtQtQtQtQtQtQtQtQt.#.d.a.e.dQtQt.X.K.L.L.M.M.K.J.W.V.W.U.U.VQtQtQtQtQtQtQtQtQtQtQtQtQtQtQtQtQtQtQtQtQtQtQtQtQtQt",
"QtQtQtQtQtQtQtQtQtQtQtQtQtQtQtQt.a.#.d.a.e.dQtQt.X.K.L.M.M.M.K.L.K.K.W.C.A.YQtQtQtQtQtQtQtQtQtQtQtQtQtQtQtQtQtQtQtQtQtQtQtQtQtQt",
"QtQtQtQtQtQtQtQtQtQtQtQtQtQtQtQt.a.c.d.a.e.dQt.D.Z.K.L.M.M.L.K.L.K.K.C.H.Y.A.0QtQtQtQtQtQtQtQtQtQtQtQtQtQtQtQtQtQtQtQtQtQtQtQtQt",
"QtQtQtQtQtQtQtQtQtQtQtQtQtQtQtQt.H.a.e.d.d.dQt.D.Z.K.L.M.M.L.K.L.K.K.C.C.W.A.WQtQtQtQtQtQtQtQtQtQtQtQtQtQtQtQtQtQtQtQtQtQtQtQtQt",
"QtQtQtQtQtQtQtQtQtQtQtQtQtQtQt.c.c.d.d.d.dQt.D.X.Z.K.E.S.1.S.K.K.K.K.H.C.U.A.V.0QtQtQtQtQtQtQtQtQtQtQtQtQtQtQtQtQtQtQtQtQtQtQtQt",
"QtQtQtQtQtQtQtQtQtQtQtQtQtQtQt.c.aQt.d.d.dQt.D.Z.i.J.K.o.L.L.K.L.K.L.j.E.U.2.W.3QtQtQtQtQtQtQtQtQtQtQtQtQtQtQtQtQtQtQtQtQtQtQtQt",
"QtQtQtQtQtQtQtQtQtQtQtQtQtQtQt.aQtQt.d.d.d.D.Z.Z.u.u.0.3.3.0.K.L.K.L.j.E.J.g.A.0QtQtQtQtQtQtQtQtQtQtQtQtQtQtQtQtQtQtQtQtQtQtQtQt",
"QtQtQtQtQtQtQtQtQtQtQtQtQtQtQtQtQtQt.d.dQt.D.Z.X.u.0.3.B.D.3.0.L.K.M.j.E.J.J.AQtQtQtQtQtQtQtQtQtQtQtQtQtQtQtQtQtQtQtQtQtQtQtQtQt",
"QtQtQtQtQtQtQtQtQtQtQtQtQtQtQtQtQtQt.d.d.D.Z.Z.D.X.0.R.f.3.i.k.0.K.M.j.E.J.AQtQtQtQtQtQtQtQtQtQtQtQtQtQtQtQtQtQtQtQtQtQtQtQtQtQt",
"QtQtQtQtQtQtQtQtQtQtQtQtQtQtQtQtQtQt.dQt.Z.Z.Z.D.X.0.B.3.w.w.l.3.K.M.j.S.E.AQtQtQtQtQtQtQtQtQtQtQtQtQtQtQtQtQtQtQtQtQtQtQtQtQtQt",
"QtQtQtQtQtQtQtQtQtQtQtQtQtQtQtQtQtQt.D.X.Z.D.u.X.D.0.3.w.k.k.3.K.L.M.j.S.E.0QtQtQtQtQtQtQtQtQtQtQtQtQtQtQtQtQtQtQtQtQtQtQtQtQtQt",
"QtQtQtQtQtQtQtQtQtQtQtQtQtQtQtQtQtQt.X.Z.D.u.D.X.D.K.0.k.w.L.M.K.L.M.4.S.C.0QtQtQtQtQtQtQtQtQtQtQtQtQtQtQtQtQtQtQtQtQtQtQtQtQtQt",
"QtQtQtQtQtQtQtQtQtQtQtQtQtQtQtQtQt.D.Z.Z.u.u.D.X.J.K.K.L.L.M.L.K.L.M.4.1.m.m.nQtQtQtQtQtQtQtQtQtQtQtQtQtQtQtQtQtQtQtQtQtQtQtQtQt",
"QtQtQtQtQtQtQtQtQtQtQtQtQtQtQtQtQt.D.Z.X.u.u.X.X.J.K.K.L.L.M.L.K.L.M.4.1.S.5.y.nQtQtQtQtQtQtQtQtQtQtQtQtQtQtQtQtQtQtQtQtQtQtQtQt",
"QtQtQtQtQtQtQtQtQtQtQtQtQtQtQtQtQt.D.Z.D.u.D.X.J.K.K.L.K.L.M.K.L.L.M.4.1.S.5.5.5QtQtQtQtQtQtQtQtQtQtQtQtQtQtQtQtQtQtQtQtQtQtQtQt",
"QtQtQtQtQtQtQtQtQtQtQtQtQtQtQtQtQt.D.X.D.D.X.X.J.K.K.L.L.M.M.K.L.L.Q.4.1.1.m.m.mQtQtQtQtQtQtQtQtQtQtQtQtQtQtQtQtQtQtQtQtQtQtQtQt",
"QtQtQtQtQtQtQtQtQtQtQtQtQtQtQtQtQt.D.X.D.X.X.J.K.K.L.K.L.M.L.K.L.L.Q.6.1.1.m.m.xQtQtQtQtQtQtQtQtQtQtQtQtQtQtQtQtQtQtQtQtQtQtQtQt",
"QtQtQtQtQtQtQtQtQtQtQtQtQtQtQtQtQt.D.X.X.X.D.K.K.K.L.L.L.M.L.K.L.L.Q.6.1.1.m.xQtQtQtQtQtQtQtQtQtQtQtQtQtQtQtQtQtQtQtQtQtQtQtQtQt",
"QtQtQtQtQtQtQtQtQtQtQtQtQtQtQtQtQt.D.X.X.D.J.K.K.K.L.L.M.M.L.K.L.M.Q.6.S.1.e.0QtQtQtQtQtQtQtQtQtQtQtQtQtQtQtQtQtQtQtQtQtQtQtQtQt",
"QtQtQtQtQtQtQtQtQtQtQtQtQtQtQtQtQt.D.X.DQt.J.K.K.L.K.L.M.M.L.K.L.M.Q.6.S.1.3.0QtQtQtQtQtQtQtQtQtQtQtQtQtQtQtQtQtQtQtQtQtQtQtQtQt",
"QtQtQtQtQtQtQtQtQtQtQtQtQtQtQtQtQt.D.uQtQt.K.K.K.L.L.L.M.L.K.K.L.M.Q.6.S.1.X.X.7.7.7QtQtQtQtQtQtQtQtQtQtQtQtQtQtQtQtQtQtQtQtQtQt",
"QtQtQtQtQtQtQtQtQtQtQtQtQtQtQtQtQt.u.7.7.7.K.K.K.L.L.M.M.L.L.K.L.M.Q.6.S.1.3.e.0.8.9#..7.7.7QtQtQtQtQtQtQtQtQtQtQtQtQtQtQtQtQtQt",
"QtQtQtQtQtQtQtQtQtQtQtQtQtQtQtQt.7.7.9###a#b#c.L.K.L.M.M.L.K.K.L.M.Q.6.S.1.3.3.0#d#c#b#a##.9.7.7QtQtQtQtQtQtQtQtQtQtQtQtQtQtQtQt",
"QtQtQtQtQtQtQtQtQtQtQtQtQtQtQt.7.9#e#f#g#h#i#j#k#l.L.M.M.L.K.K.L.M.Q.4.S.1.X.X.0#k#m#n#h#g#f#e.9.7QtQtQtQtQtQtQtQtQtQtQtQtQtQtQt",
"QtQtQtQtQtQtQtQtQtQtQtQtQtQt.7.8#o#p#q#r#s#t#u#v#w#x.u#y#y.e.R.L.M.Q.4.S.1.3.3.e#v#u#t#s#r#q#z#o.8.7QtQtQtQtQtQtQtQtQtQtQtQtQtQt",
"QtQtQtQtQtQtQtQtQtQtQtQtQt.7.9#A#B#C#D#E#F#G#H#I#J#K.u.g.u#y.e.e.R.u.0#y.o.3.R.n.e.e#G#F#E#D#C#B#A.9.7QtQtQtQtQtQtQtQtQtQtQtQtQt",
"QtQtQtQtQtQtQtQtQtQtQtQtQt.7#L#M#N#O#P#H#K#Q#R#R#R#R#R#S.u.0.g.0.g.u.0#y.e.R.X.3.X.3.e#K#H#P#O#N#M#L.7QtQtQtQtQtQtQtQtQtQtQtQtQt",
"QtQtQtQtQtQtQtQtQtQtQtQtQt.7#L#T#N#O#F#H#K#Q#R#R#R#R#R#S#S#S#S#S#S#S.0.e.e.3.3.3.R.3#y#K#H#F#O#U#T#L.7QtQtQtQtQtQtQtQtQtQtQtQtQt",
"QtQtQtQtQtQtQtQtQtQtQtQtQt.7#V#A#B#C#D#E#F#G#H#I#J#K#W#W#Q#X#X#R#R#X.0.0.0.0.0.0.0.0.0#F#E#D#C#B#A#V.7QtQtQtQtQtQtQtQtQtQtQtQtQt",
"QtQtQtQtQtQtQtQtQtQtQtQtQtQt.7.8#Y#z#Z#C#0#t#u#v#w#x#1#2#3#4#5#5#5#5#4#3#2#1#x#w#v#u#t#0#C#Z#z#Y.8.7QtQtQtQtQtQtQtQtQtQtQtQtQtQt",
"QtQtQtQtQtQtQtQtQtQtQtQtQtQtQt.7#V#a#f#g#h#n#m#k#l#6#7#8#D#9#Oa.a.#O#9#D#8#7#6#l#k#m#n#h#g#f#a#V.7QtQtQtQtQtQtQtQtQtQtQtQtQtQtQt",
"QtQtQtQtQtQtQtQtQtQtQtQtQtQtQtQt.7.7.9###a#b#c#da#aaabacadaeaf#i#iafaeadacabaaa##d#c#A#a##.9.7.7QtQtQtQtQtQtQtQtQtQtQtQtQtQtQtQt",
"QtQtQtQtQtQtQtQtQtQtQtQtQtQtQtQtQtQt.7.7.7#..9.8##ag#aahaiaiaiajajaiaiaiah#aag##.8.9#..7.7.7QtQtQtQtQtQtQtQtQtQtQtQtQtQtQtQtQtQt",
"QtQtQtQtQtQtQtQtQtQtQtQtQtQtQtQtQtQtQtQtQtQt.7.7.7.7.7.7.7.7.7.7.7.7.7.7.7.7.7.7.7.7QtQtQtQtQtQtQtQtQtQtQtQtQtQtQtQtQtQtQtQtQtQt",
"QtQtQtQtQtQtQtQtQtQtQtQtQtQtQtQtQtQtQtQtQtQtQtQtQtQtQtQtQtQtQtQtQtQtQtQtQtQtQtQtQtQtQtQtQtQtQtQtQtQtQtQtQtQtQtQtQtQtQtQtQtQtQtQt",
"QtQtQtQtQtQtQtQtQtQtQtQtQtQtQtQtQtQtQtQtQtQtQtQtQtQtQtQtQtQtQtQtQtQtQtQtQtQtQtQtQtQtQtQtQtQtQtQtQtQtQtQtQtQtQtQtQtQtQtQtQtQtQtQt"};
