/* XPM */
static char *dummy[]={
"64 64 138 2",
"Qt c None",
".4 c #000000",
"ad c #000000",
".6 c #000000",
"#T c #000000",
"#n c #000000",
"#K c #000000",
".7 c #000000",
"ae c #000000",
"#c c #000000",
".8 c #000000",
"af c #000000",
"ag c #000000",
"ah c #000000",
"#9 c #000000",
"#A c #000000",
"#o c #000000",
"#W c #000000",
"#d c #000000",
"a. c #000000",
"#L c #000000",
"#R c #000000",
"a# c #000000",
"#e c #000000",
"aa c #000000",
"#p c #000000",
"#X c #000000",
"ab c #000000",
"#f c #000000",
"ac c #000000",
"#B c #000000",
"#b c #000000",
"#a c #000000",
"## c #000000",
".9 c #000000",
"#. c #000000",
"#3 c #000000",
"#q c #000000",
"#Y c #000000",
"#g c #000000",
"#4 c #000000",
"#M c #000000",
"#S c #000000",
"#5 c #000000",
"#r c #000000",
"#C c #000000",
"#6 c #000000",
"#7 c #000000",
"#s c #000000",
"#Z c #000000",
"#m c #000000",
"#l c #000000",
"#k c #000000",
"#j c #000000",
"#8 c #000000",
"#h c #000000",
"#i c #000000",
"#t c #000000",
"#D c #000000",
"#0 c #000000",
"#1 c #000000",
"#2 c #000000",
"#N c #000000",
"#E c #000000",
"#z c #000000",
"#y c #000000",
"#x c #000000",
"#F c #000000",
"#u c #000000",
"#v c #000000",
"#w c #000000",
"#O c #000000",
"#U c #000000",
"#V c #000000",
"#P c #000000",
"#J c #000000",
"#I c #000000",
"#G c #000000",
"#H c #000000",
"#Q c #000000",
".5 c #000008",
".s c #00b39e",
".X c #020101",
".g c #060808",
".A c #061e11",
".r c #06eba8",
".I c #080014",
".u c #080808",
".d c #0c1211",
".W c #0f0e11",
".e c #131314",
".q c #137177",
".v c #140500",
".a c #1a2520",
".D c #1e194b",
".h c #212828",
".o c #26252c",
".Y c #282829",
".c c #2b3932",
".B c #313539",
".K c #35353a",
".Q c #382966",
".# c #3a4a42",
".i c #3d3d3d",
".M c #444448",
".j c #463626",
".G c #47474e",
".P c #51545b",
".C c #525351",
".x c #535353",
".J c #554783",
".U c #562f1d",
".H c #563521",
".b c #585c5e",
".1 c #655324",
".S c #665e9a",
".t c #6d2029",
".L c #6f6f76",
".T c #72472d",
".z c #7291ea",
".0 c #797a7c",
".f c #798487",
".F c #7a603f",
".m c #838384",
".3 c #8b682a",
".E c #9e7e55",
".Z c #9e99a6",
".V c #a3a3aa",
".n c #adb2af",
".w c #b14432",
".2 c #ccd3d6",
".l c #e49e87",
".y c #e5f4ff",
".k c #e67160",
".R c #e87252",
".p c #f7e0d0",
".O c #ffbf75",
".N c #ffef7c",
"QtQtQtQtQtQtQtQtQtQtQtQtQtQtQtQtQtQtQtQtQtQtQtQtQtQtQtQtQtQtQtQtQtQtQtQtQtQtQtQtQtQtQtQtQtQtQtQtQtQtQtQtQtQtQtQtQtQtQtQtQtQtQtQt",
"QtQtQtQtQtQtQtQtQtQtQtQtQtQtQtQtQtQtQtQtQtQtQtQtQtQtQtQtQtQtQtQtQtQtQtQtQtQtQtQtQtQtQtQtQtQtQtQtQtQtQtQtQtQtQtQtQtQtQtQtQtQtQtQt",
"QtQtQtQtQtQtQtQtQtQtQtQtQtQtQtQtQtQtQtQtQtQtQtQtQtQtQtQtQtQtQtQtQtQtQtQtQtQtQtQtQtQtQtQtQtQtQtQtQtQtQtQtQtQtQtQtQtQtQtQtQtQtQtQt",
"QtQtQtQtQtQtQtQtQtQtQtQtQtQtQtQtQtQtQtQtQtQtQt.#.a.aQtQtQtQtQtQtQtQtQtQtQtQtQtQtQtQtQtQtQtQtQtQtQtQtQtQtQtQtQtQtQtQtQtQtQtQtQtQt",
"QtQtQtQtQtQtQtQtQtQtQtQtQtQtQtQtQtQtQtQtQtQt.#.b.#.c.aQtQtQt.d.e.d.d.dQtQtQtQtQtQtQtQtQtQtQtQtQtQtQtQtQtQtQtQtQtQtQtQtQtQtQtQtQt",
"QtQtQtQtQtQtQtQtQtQtQtQtQtQtQtQtQtQtQtQtQt.b.f.b.c.a.b.f.g.e.a.h.a.#.#.aQtQtQtQtQtQtQtQtQtQtQtQtQtQtQtQtQtQtQtQtQtQtQtQtQtQtQtQt",
"QtQtQtQtQtQtQtQtQtQtQtQtQtQtQtQtQtQtQtQtQt.f.b.#.a.c.f.g.d.h.a.i.c.a.c.b.cQtQtQtQtQtQtQtQtQtQtQtQtQtQtQtQtQtQtQtQtQtQtQtQtQtQtQt",
"QtQtQtQtQtQtQtQtQtQtQtQtQtQtQtQtQtQtQtQt.a.f.c.#.h.d.g.d.a.c.#.#.b.c.a.c.f.cQt.dQtQtQtQtQtQtQtQtQtQtQtQtQtQtQtQtQtQtQtQtQtQtQtQt",
"QtQtQtQtQtQtQtQtQtQtQtQtQtQtQtQtQtQtQtQt.a.b.c.#.d.d.d.a.c.d.a.a.a.f.c.c.f.c.aQtQtQtQtQtQtQtQtQtQtQtQtQtQtQtQtQtQtQtQtQtQtQtQtQt",
"QtQtQtQtQtQtQtQtQtQtQtQtQtQtQtQtQtQtQtQt.c.b.a.#.d.d.a.a.d.a.#.b.f.a.b.c.b.aQtQtQtQtQtQtQtQtQtQtQtQtQtQtQtQtQtQtQtQtQtQtQtQtQtQt",
"QtQtQtQtQtQtQtQtQtQtQtQtQtQtQtQtQtQtQtQt.c.#.a.c.a.d.j.d.a.c.h.c.a.b.k.l.l.a.dQtQtQtQtQtQtQtQtQtQtQtQtQtQtQtQtQtQtQtQtQtQtQtQtQt",
"QtQtQtQtQtQtQtQtQtQtQtQtQtQtQtQtQtQtQtQt.a.m.n.a.aQt.d.d.c.a.d.o.c.l.p.p.p.aQt.dQtQtQtQtQtQtQtQtQtQtQtQtQtQtQtQtQtQtQtQtQtQtQtQt",
"QtQtQtQtQtQtQtQtQtQtQtQtQtQtQtQtQtQtQtQt.a.q.r.sQt.d.e.a.a.d.d.c.t.t.k.p.p.dQt.dQtQtQtQtQtQtQtQtQtQtQtQtQtQtQtQtQtQtQtQtQtQtQtQt",
"QtQtQtQtQtQtQtQtQtQtQtQtQtQtQtQtQtQtQtQt.a.m.n.mQt.d.d.a.d.l.d.c.u.n.v.w.l.kQtQtQtQtQtQtQtQtQtQtQtQtQtQtQtQtQtQtQtQtQtQtQtQtQtQt",
"QtQtQtQtQtQtQtQtQtQtQtQtQtQtQtQtQtQtQtQt.c.x.s.rQtQt.a.d.a.k.d.#.u.y.z.l.l.kQtQtQtQtQtQtQtQtQtQtQtQtQtQtQtQtQtQtQtQtQtQtQtQtQtQt",
"QtQtQtQtQtQtQtQtQtQtQtQtQtQtQtQtQtQtQt.a.#.d.q.n.mQtQt.a.d.g.d.#.l.p.p.p.p.wQtQtQtQtQtQtQtQtQtQtQtQtQtQtQtQtQtQtQtQtQtQtQtQtQtQt",
"QtQtQtQtQtQtQtQtQtQtQtQtQtQtQtQtQtQtQt.c.#.d.c.n.mQtQt.d.d.d.d.#.l.p.p.p.l.wQtQtQtQtQtQtQtQtQtQtQtQtQtQtQtQtQtQtQtQtQtQtQtQtQtQt",
"QtQtQtQtQtQtQtQtQtQtQtQtQtQtQtQtQtQtQt.#.c.d.c.m.n.xQt.g.A.A.A.d.#.l.p.l.w.dQtQtQtQtQtQtQtQtQtQtQtQtQtQtQtQtQtQtQtQtQtQtQtQtQtQt",
"QtQtQtQtQtQtQtQtQtQtQtQtQtQtQtQtQtQtQt.#.c.a.B.C.m.mQt.A.B.B.D.d.c.k.l.w.A.dQtQtQtQtQtQtQtQtQtQtQtQtQtQtQtQtQtQtQtQtQtQtQtQtQtQt",
"QtQtQtQtQtQtQtQtQtQtQtQtQtQtQtQtQtQtQt.a.b.d.a.x.C.E.F.A.B.B.D.D.a.#.w.t.G.g.dQtQtQtQtQtQtQtQtQtQtQtQtQtQtQtQtQtQtQtQtQtQtQtQtQt",
"QtQtQtQtQtQtQtQtQtQtQtQtQtQtQtQtQtQtQt.c.b.d.a.d.H.s.q.A.I.d.D.J.d.K.L.B.L.G.dQtQtQtQtQtQtQtQtQtQtQtQtQtQtQtQtQtQtQtQtQtQtQtQtQt",
"QtQtQtQtQtQtQtQtQtQtQtQtQtQtQtQtQtQtQt.c.b.#.a.d.q.E.m.A.e.D.J.J.J.d.M.A.G.L.gQtQtQtQtQtQtQtQtQtQtQtQtQtQtQtQtQtQtQtQtQtQtQtQtQt",
"QtQtQtQtQtQtQtQtQtQtQtQtQtQtQtQtQtQtQt.a.c.#.d.dQt.x.m.I.d.D.J.J.N.O.P.Q.A.G.LQtQtQtQtQtQtQtQtQtQtQtQtQtQtQtQtQtQtQtQtQtQtQtQtQt",
"QtQtQtQtQtQtQtQtQtQtQtQtQtQtQtQtQtQtQt.a.c.b.a.dQtQt.I.Q.d.D.O.N.J.J.a.J.Q.A.BQtQtQtQtQtQtQtQtQtQtQtQtQtQtQtQtQtQtQtQtQtQtQtQtQt",
"QtQtQtQtQtQtQtQtQtQtQtQtQtQtQtQtQtQtQt.c.a.#.a.a.dQt.D.J.I.R.Q.J.J.S.d.J.J.A.AQtQtQtQtQtQtQtQtQtQtQtQtQtQtQtQtQtQtQtQtQtQtQtQtQt",
"QtQtQtQtQtQtQtQtQtQtQtQtQtQtQtQtQtQtQt.G.a.c.a.a.e.I.Q.J.I.d.Q.J.S.S.Q.J.J.T.UQtQtQtQtQtQtQtQtQtQtQtQtQtQtQtQtQtQtQtQtQtQtQtQtQt",
"QtQtQtQtQtQtQtQtQtQtQtQtQtQtQtQtQtQtQt.G.d.c.d.a.I.D.J.J.I.d.D.Q.S.S.J.J.J.B.AQtQtQtQtQtQtQtQtQtQtQtQtQtQtQtQtQtQtQtQtQtQtQtQtQt",
"QtQtQtQtQtQtQtQtQtQtQtQtQtQtQtQtQtQtQt.#.d.c.d.a.I.Q.J.S.S.I.d.Q.J.J.J.D.D.BQtQtQtQtQtQtQtQtQtQtQtQtQtQtQtQtQtQtQtQtQtQtQtQtQtQt",
"QtQtQtQtQtQtQtQtQtQtQtQtQtQtQtQtQtQtQt.G.d.a.d.I.D.J.S.S.S.I.d.D.J.J.S.J.G.mQtQtQtQtQtQtQtQtQtQtQtQtQtQtQtQtQtQtQtQtQtQtQtQtQtQt",
"QtQtQtQtQtQtQtQtQtQtQtQtQtQtQtQtQtQtQt.#.d.a.d.I.Q.J.S.S.J.I.T.d.Q.J.S.S.D.TQtQtQtQtQtQtQtQtQtQtQtQtQtQtQtQtQtQtQtQtQtQtQtQtQtQt",
"QtQtQtQtQtQtQtQtQtQtQtQtQtQtQtQtQtQt.a.#.d.a.d.G.G.L.V.L.I.Q.T.d.Q.Q.J.S.S.Q.AQtQtQtQtQtQtQtQtQtQtQtQtQtQtQtQtQtQtQtQtQtQtQtQtQt",
"QtQtQtQtQtQtQtQtQtQtQtQtQtQtQtQtQtQt.a.c.d.a.d.W.D.D.Q.I.D.Q.D.D.D.Q.Q.J.V.G.QQtQtQtQtQtQtQtQtQtQtQtQtQtQtQtQtQtQtQtQtQtQtQtQtQt",
"QtQtQtQtQtQtQtQtQtQtQtQtQtQtQtQtQtQt.c.a.d.a.d.I.X.Y.Y.D.D.Q.D.D.d.D.Q.L.Q.J.Y.uQtQtQtQtQtQtQtQtQtQtQtQtQtQtQtQtQtQtQtQtQtQtQtQt",
"QtQtQtQtQtQtQtQtQtQtQtQtQtQtQtQtQtQt.c.d.d.h.M.X.X.Y.I.D.Q.D.D.D.A.I.G.Q.J.Y.P.u.uQtQtQtQtQtQtQtQtQtQtQtQtQtQtQtQtQtQtQtQtQtQtQt",
"QtQtQtQtQtQtQtQtQtQtQtQtQtQtQtQtQtQt.aQt.d.d.M.X.Y.C.D.D.Q.D.D.Q.j.I.D.Q.u.P.f.w.p.tQtQtQtQtQtQtQtQtQtQtQtQtQtQtQtQtQtQtQtQtQtQt",
"QtQtQtQtQtQtQtQtQtQtQtQtQtQtQtQtQtQt.aQt.d.M.Z.X.X.I.D.D.Q.D.Q.Q.j.B.u.u.P.P.t.w.k.tQtQtQtQtQtQtQtQtQtQtQtQtQtQtQtQtQtQtQtQtQtQt",
"QtQtQtQtQtQtQtQtQtQtQtQtQtQtQtQtQtQtQtQtQt.M.Z.X.Y.D.D.Q.D.Q.Q.Q.M.i.u.Y.P.w.k.k.t.tQtQtQtQtQtQtQtQtQtQtQtQtQtQtQtQtQtQtQtQtQtQt",
"QtQtQtQtQtQtQtQtQtQtQtQtQtQtQtQtQtQtQtQt.M.Z.Z.M.I.D.D.Q.D.Q.J.j.L.B.G.u.Y.k.w.t.tQtQtQtQtQtQtQtQtQtQtQtQtQtQtQtQtQtQtQtQtQtQtQt",
"QtQtQtQtQtQtQtQtQtQtQtQtQtQtQtQtQtQtQtQt.Z.Z.Z.M.D.D.Q.D.Q.Q.J.j.L.B.G.X.u.t.t.X.b.xQtQtQtQtQtQtQtQtQtQtQtQtQtQtQtQtQtQtQtQtQtQt",
"QtQtQtQtQtQtQtQtQtQtQtQtQtQtQtQtQtQt.M.0.Z.M.u.I.D.Q.D.D.Q.Q.J.1.L.G.B.X.d.A.A.C.m.n.xQtQtQtQtQtQtQtQtQtQtQtQtQtQtQtQtQtQtQtQtQt",
"QtQtQtQtQtQtQtQtQtQtQtQtQtQtQtQtQtQt.0.Z.M.u.I.D.D.Q.D.Q.Q.J.1.G.L.B.X.u.A.A.A.b.m.m.mQtQtQtQtQtQtQtQtQtQtQtQtQtQtQtQtQtQtQtQtQt",
"QtQtQtQtQtQtQtQtQtQtQtQtQtQtQtQtQt.M.Z.Z.u.I.D.D.Q.D.D.Q.Q.J.1.L.L.2.m.u.d.a.A.m.m.m.xQtQtQtQtQtQtQtQtQtQtQtQtQtQtQtQtQtQtQtQtQt",
"QtQtQtQtQtQtQtQtQtQtQtQtQtQtQtQtQt.M.Z.0.I.D.D.Q.D.D.Q.Q.Q.J.3.V.L.2.m.u.A.A.x.x.x.b.xQtQtQtQtQtQtQtQtQtQtQtQtQtQtQtQtQtQtQtQtQt",
"QtQtQtQtQtQtQtQtQtQtQtQtQtQtQtQtQt.M.Z.I.D.D.Q.D.D.Q.Q.Q.J.J.3.V.n.2.m.u.u.W.u.Y.x.xQtQtQtQtQtQtQtQtQtQtQtQtQtQtQtQtQtQtQtQtQtQt",
"QtQtQtQtQtQtQtQtQtQtQtQtQtQtQtQtQt.M.0.I.D.D.Q.D.Q.Q.Q.Q.J.1.G.V.n.m.I.I.W.u.a.h.h.XQtQtQtQtQtQtQtQtQtQtQtQtQtQtQtQtQtQtQtQtQtQt",
"QtQtQtQtQtQtQtQtQtQtQtQtQtQtQtQtQt.M.I.D.D.Q.D.D.Q.J.Q.Q.J.1.L.V.m.I.I.I.W.h.h.Y.h.PQtQtQtQtQtQtQtQtQtQtQtQtQtQtQtQtQtQtQtQtQtQt",
"QtQtQtQtQtQtQtQtQtQtQtQtQtQtQtQtQt.I.D.D.Q.D.D.Q.Q.J.Q.J.J.3.V.L.x.I.I.I.e.h.Y.h.P.XQtQtQtQtQtQtQtQtQtQtQtQtQtQtQtQtQtQtQtQtQtQt",
"QtQtQtQtQtQtQtQtQtQtQtQtQtQtQtQtQt.M.D.D.Q.D.Q.Q.J.Q.Q.J.1.G.V.X.I.I.I.I.u.h.Y.P.Y.X.XQtQtQtQtQtQtQtQtQtQtQtQtQtQtQtQtQtQtQtQtQt",
"QtQtQtQtQtQtQtQtQtQtQtQtQtQtQtQtQt.M.0.D.D.Q.Q.J.Q.Q.Q.J.3.L.V.I.I.I.I.I.I.X.h.h.Y.h.PQtQtQtQtQtQtQtQtQtQtQtQtQtQtQtQtQtQtQtQtQt",
"QtQtQtQtQtQtQtQtQtQtQtQtQtQtQtQtQt.M.u.4.Q.Q.Q.J.Q.Q.J.J.L.V.L.I.5.5.I.5.5.X.h.Y.h.P.X.4.4.4QtQtQtQtQtQtQtQtQtQtQtQtQtQtQtQtQtQt",
"QtQtQtQtQtQtQtQtQtQtQtQtQtQtQtQt.4.u.6.7.8.Q.J.Q.Q.Q.J.1.L.V.9#.#..9###a#b.X.h.Y.P.h.h.0.X.X.4.4QtQtQtQtQtQtQtQtQtQtQtQtQtQtQtQt",
"QtQtQtQtQtQtQtQtQtQtQtQtQtQtQt.4.6#c#d#e#f#.#g.Q.Q.Q.J.3.V.L#h#i#i#h#j#k#l#m.W.h.Y.h.P.h.P.Y.W.6.4QtQtQtQtQtQtQtQtQtQtQtQtQtQtQt",
"QtQtQtQtQtQtQtQtQtQtQtQtQtQt.4#n#o#p#q#r#s#j#t.W.e.Q.J.L.V#u#v#w#w#v#u#x#y#z.W.h.h.P.h.Y.P.h.X#o#n.4QtQtQtQtQtQtQtQtQtQtQtQtQtQt",
"QtQtQtQtQtQtQtQtQtQtQtQtQt.4.6#A#B#C#k#D#E#F.u.e.e.Y.P.V.V.X#G#H#H#G#G#I#J#J.X.h.h.h.h.h.X.X.X#B#A.6.4QtQtQtQtQtQtQtQtQtQtQtQtQt",
"QtQtQtQtQtQtQtQtQtQtQtQtQt.4#K#L#M#h#N#O#P#I.u.e.Y.P.Y.Y.0.Y.X#Q#Q#Q#Q#Q#Q#H.X.X.X.X.X.X#O#N#h#M#L#K.4QtQtQtQtQtQtQtQtQtQtQtQtQt",
"QtQtQtQtQtQtQtQtQtQtQtQtQt.4#K#R#M#h#E#O#P#I.u.W.Y.Y.a.P.a.Y.X#Q#Q#Q#Q#Q#Q#H#H#H#H#H#I#P#O#E#h#S#R#K.4QtQtQtQtQtQtQtQtQtQtQtQtQt",
"QtQtQtQtQtQtQtQtQtQtQtQtQt.4#T#A#B#C#k#D#E#F#O#U.u.X.g.X.g.u.X#H#H#G#G#I#J#J#P#V#U#O#F#E#D#k#C#B#A#T.4QtQtQtQtQtQtQtQtQtQtQtQtQt",
"QtQtQtQtQtQtQtQtQtQtQtQtQtQt.4#n#W#X#Y#C#Z#j#t#0#1#2#z#y#x#u#w#w#w#w#u#x#y#z#2#1#0#t#j#Z#C#Y#X#W#n.4QtQtQtQtQtQtQtQtQtQtQtQtQtQt",
"QtQtQtQtQtQtQtQtQtQtQtQtQtQtQt.4#T.8#d#e#f#3#4#5#6#7#m#l#k#8#h#i#i#h#8#k#l#m#7#6#5#4#3#f#e#d.8#T.4QtQtQtQtQtQtQtQtQtQtQtQtQtQtQt",
"QtQtQtQtQtQtQtQtQtQtQtQtQtQtQtQt.4.4.6.7.8#9a.a#aaabac#b#a##.9#.#..9###a#bacabaaa#a.#A.8.7.6.4.4QtQtQtQtQtQtQtQtQtQtQtQtQtQtQtQt",
"QtQtQtQtQtQtQtQtQtQtQtQtQtQtQtQtQtQt.4.4.4ad.6#n.7ae.8afagagagahahagagagaf.8ae.7#n.6ad.4.4.4QtQtQtQtQtQtQtQtQtQtQtQtQtQtQtQtQtQt",
"QtQtQtQtQtQtQtQtQtQtQtQtQtQtQtQtQtQtQtQtQtQt.4.4.4.4.4.4.4.4.4.4.4.4.4.4.4.4.4.4.4.4QtQtQtQtQtQtQtQtQtQtQtQtQtQtQtQtQtQtQtQtQtQt",
"QtQtQtQtQtQtQtQtQtQtQtQtQtQtQtQtQtQtQtQtQtQtQtQtQtQtQtQtQtQtQtQtQtQtQtQtQtQtQtQtQtQtQtQtQtQtQtQtQtQtQtQtQtQtQtQtQtQtQtQtQtQtQtQt",
"QtQtQtQtQtQtQtQtQtQtQtQtQtQtQtQtQtQtQtQtQtQtQtQtQtQtQtQtQtQtQtQtQtQtQtQtQtQtQtQtQtQtQtQtQtQtQtQtQtQtQtQtQtQtQtQtQtQtQtQtQtQtQtQt"};
