/* XPM */
static char *dummy[]={
"64 64 139 2",
"Qt c None",
".7 c #000000",
"#. c #000000",
".9 c #000000",
"#T c #000000",
".8 c #000000",
"#J c #000000",
"## c #000000",
"af c #000000",
"#e c #000000",
"#a c #000000",
"ag c #000000",
"ah c #000000",
"ai c #000000",
"#d c #000000",
"#z c #000000",
"#n c #000000",
"#V c #000000",
"#f c #000000",
"#c c #000000",
"#K c #000000",
"#Q c #000000",
"#b c #000000",
"#g c #000000",
"a. c #000000",
"#o c #000000",
"#y c #000000",
"a# c #000000",
"#h c #000000",
"aa c #000000",
"#A c #000000",
"ab c #000000",
"ac c #000000",
"ad c #000000",
"ae c #000000",
"#i c #000000",
"#m c #000000",
"#p c #000000",
"#W c #000000",
"#j c #000000",
"#3 c #000000",
"#L c #000000",
"#S c #000000",
"#4 c #000000",
"#q c #000000",
"#B c #000000",
"#5 c #000000",
"#6 c #000000",
"#r c #000000",
"#X c #000000",
"#7 c #000000",
"#8 c #000000",
"#C c #000000",
"#s c #000000",
"#9 c #000000",
"#l c #000000",
"#k c #000000",
"#t c #000000",
"#D c #000000",
"#u c #000000",
"#v c #000000",
"#Y c #000000",
"#M c #000000",
"#E c #000000",
"#Z c #000000",
"#0 c #000000",
"#1 c #000000",
"#F c #000000",
"#2 c #000000",
"#x c #000000",
"#w c #000000",
"#G c #000000",
"#H c #000000",
"#I c #000000",
"#N c #000000",
"#U c #000000",
"#O c #000000",
"#P c #000000",
"#R c #000000",
".0 c #000008",
".s c #00b39e",
".3 c #020101",
".g c #060808",
".A c #061e11",
".r c #06eba8",
".G c #080014",
".u c #080808",
".d c #0c1211",
".6 c #0f0e11",
".e c #131314",
".q c #137177",
".v c #140500",
".a c #1a2520",
".H c #1e194b",
".h c #212828",
".o c #26252c",
".4 c #282829",
".c c #2b3932",
".B c #313539",
".1 c #35353a",
".I c #382966",
".# c #3a4a42",
".i c #3d3d3d",
".K c #444448",
".j c #463626",
".C c #47474e",
".Z c #4a2121",
".O c #51545b",
".M c #525351",
".x c #535353",
".J c #554783",
".V c #562f1d",
".F c #563521",
".b c #585c5e",
".5 c #655324",
".N c #665e9a",
".t c #6d2029",
".L c #6f6f76",
".U c #72472d",
".z c #7291ea",
".X c #797a7c",
".f c #798487",
".E c #7a603f",
".m c #838384",
".Y c #946c45",
".D c #9e7e55",
".W c #9e99a6",
".2 c #a3a3aa",
".T c #ad473d",
".n c #adb2af",
".w c #b14432",
".S c #ccd3d6",
".l c #e49e87",
".y c #e5f4ff",
".k c #e67160",
".R c #e87252",
".p c #f7e0d0",
".Q c #ffbf75",
".P c #ffef7c",
"QtQtQtQtQtQtQtQtQtQtQtQtQtQtQtQtQtQtQtQtQtQtQtQtQtQtQtQtQtQtQtQtQtQtQtQtQtQtQtQtQtQtQtQtQtQtQtQtQtQtQtQtQtQtQtQtQtQtQtQtQtQtQtQt",
"QtQtQtQtQtQtQtQtQtQtQtQtQtQtQtQtQtQtQtQtQtQtQtQtQtQtQtQtQtQtQtQtQtQtQtQtQtQtQtQtQtQtQtQtQtQtQtQtQtQtQtQtQtQtQtQtQtQtQtQtQtQtQtQt",
"QtQtQtQtQtQtQtQtQtQtQtQtQtQtQtQtQtQtQtQtQtQtQt.#.a.aQtQtQtQtQtQtQtQtQtQtQtQtQtQtQtQtQtQtQtQtQtQtQtQtQtQtQtQtQtQtQtQtQtQtQtQtQtQt",
"QtQtQtQtQtQtQtQtQtQtQtQtQtQtQtQtQtQtQtQtQtQt.#.b.#.c.aQtQtQt.d.e.d.d.dQtQtQtQtQtQtQtQtQtQtQtQtQtQtQtQtQtQtQtQtQtQtQtQtQtQtQtQtQt",
"QtQtQtQtQtQtQtQtQtQtQtQtQtQtQtQtQtQtQtQtQt.b.f.b.c.a.b.f.g.e.a.h.a.#.#.aQtQtQtQtQtQtQtQtQtQtQtQtQtQtQtQtQtQtQtQtQtQtQtQtQtQtQtQt",
"QtQtQtQtQtQtQtQtQtQtQtQtQtQtQtQtQtQtQtQtQt.f.b.#.a.c.f.g.d.h.a.c.i.a.c.b.cQtQtQtQtQtQtQtQtQtQtQtQtQtQtQtQtQtQtQtQtQtQtQtQtQtQtQt",
"QtQtQtQtQtQtQtQtQtQtQtQtQtQtQtQtQtQtQtQt.a.f.c.#.a.e.g.d.a.c.#.#.b.c.a.c.f.cQt.dQtQtQtQtQtQtQtQtQtQtQtQtQtQtQtQtQtQtQtQtQtQtQtQt",
"QtQtQtQtQtQtQtQtQtQtQtQtQtQtQtQtQtQtQtQt.a.b.c.#.d.d.d.a.c.d.a.a.a.f.c.c.f.c.aQtQtQtQtQtQtQtQtQtQtQtQtQtQtQtQtQtQtQtQtQtQtQtQtQt",
"QtQtQtQtQtQtQtQtQtQtQtQtQtQtQtQtQtQtQtQt.c.b.a.#.d.d.a.a.d.a.#.b.f.a.b.c.b.aQtQtQtQtQtQtQtQtQtQtQtQtQtQtQtQtQtQtQtQtQtQtQtQtQtQt",
"QtQtQtQtQtQtQtQtQtQtQtQtQtQtQtQtQtQtQtQt.c.#.a.cQt.d.j.d.a.c.h.c.a.b.k.l.l.a.dQtQtQtQtQtQtQtQtQtQtQtQtQtQtQtQtQtQtQtQtQtQtQtQtQt",
"QtQtQtQtQtQtQtQtQtQtQtQtQtQtQtQtQtQtQtQt.a.m.n.aQtQt.d.d.c.a.d.o.c.l.p.p.p.aQt.dQtQtQtQtQtQtQtQtQtQtQtQtQtQtQtQtQtQtQtQtQtQtQtQt",
"QtQtQtQtQtQtQtQtQtQtQtQtQtQtQtQtQtQtQtQt.a.q.r.sQt.d.e.a.a.d.d.c.t.t.k.p.p.dQt.dQtQtQtQtQtQtQtQtQtQtQtQtQtQtQtQtQtQtQtQtQtQtQtQt",
"QtQtQtQtQtQtQtQtQtQtQtQtQtQtQtQtQtQtQtQt.a.m.n.mQt.d.d.a.d.l.d.c.u.n.v.w.l.kQtQtQtQtQtQtQtQtQtQtQtQtQtQtQtQtQtQtQtQtQtQtQtQtQtQt",
"QtQtQtQtQtQtQtQtQtQtQtQtQtQtQtQtQtQtQtQt.c.x.s.rQtQt.a.d.a.k.d.#.u.y.z.l.l.kQtQtQtQtQtQtQtQtQtQtQtQtQtQtQtQtQtQtQtQtQtQtQtQtQtQt",
"QtQtQtQtQtQtQtQtQtQtQtQtQtQtQtQtQtQtQtQt.a.#.q.n.mQtQt.a.d.g.d.#.l.p.p.p.p.wQtQtQtQtQtQtQtQtQtQtQtQtQtQtQtQtQtQtQtQtQtQtQtQtQtQt",
"QtQtQtQtQtQtQtQtQtQtQtQtQtQtQtQtQtQtQtQt.c.#.d.n.mQtQt.d.g.g.d.#.l.p.p.p.l.wQtQtQtQtQtQtQtQtQtQtQtQtQtQtQtQtQtQtQtQtQtQtQtQtQtQt",
"QtQtQtQtQtQtQtQtQtQtQtQtQtQtQtQtQtQtQtQt.#.c.d.m.n.xQt.g.A.B.B.d.#.l.p.l.w.dQtQtQtQtQtQtQtQtQtQtQtQtQtQtQtQtQtQtQtQtQtQtQtQtQtQt",
"QtQtQtQtQtQtQtQtQtQtQtQtQtQtQtQtQtQtQtQt.#.c.a.x.m.mQt.A.B.C.C.d.c.k.l.w.A.dQtQtQtQtQtQtQtQtQtQtQtQtQtQtQtQtQtQtQtQtQtQtQtQtQtQt",
"QtQtQtQtQtQtQtQtQtQtQtQtQtQtQtQtQtQtQtQt.a.b.a.x.x.D.E.d.B.C.C.C.a.#.w.t.C.g.dQtQtQtQtQtQtQtQtQtQtQtQtQtQtQtQtQtQtQtQtQtQtQtQtQt",
"QtQtQtQtQtQtQtQtQtQtQtQtQtQtQtQtQtQtQtQt.c.b.a.c.F.s.q.d.G.d.H.H.d.c.C.C.B.C.dQtQtQtQtQtQtQtQtQtQtQtQtQtQtQtQtQtQtQtQtQtQtQtQtQt",
"QtQtQtQtQtQtQtQtQtQtQtQtQtQtQtQtQtQtQtQt.#.b.d.a.q.D.m.d.d.I.J.I.I.d.K.L.L.A.gQtQtQtQtQtQtQtQtQtQtQtQtQtQtQtQtQtQtQtQtQtQtQtQtQt",
"QtQtQtQtQtQtQtQtQtQtQtQtQtQtQtQtQtQtQt.a.#.b.d.a.d.M.m.d.H.J.J.N.H.I.O.B.K.L.CQtQtQtQtQtQtQtQtQtQtQtQtQtQtQtQtQtQtQtQtQtQtQtQtQt",
"QtQtQtQtQtQtQtQtQtQtQtQtQtQtQtQtQtQtQt.a.c.#.h.e.dQt.x.d.H.I.P.Q.H.I.a.B.B.C.BQtQtQtQtQtQtQtQtQtQtQtQtQtQtQtQtQtQtQtQtQtQtQtQtQt",
"QtQtQtQtQtQtQtQtQtQtQtQtQtQtQtQtQtQtQt.c.a.#.h.d.dQt.x.d.H.R.I.J.I.I.d.B.L.A.AQtQtQtQtQtQtQtQtQtQtQtQtQtQtQtQtQtQtQtQtQtQtQtQtQt",
"QtQtQtQtQtQtQtQtQtQtQtQtQtQtQtQtQtQtQt.C.a.c.a.a.dQt.S.G.T.I.J.N.J.I.I.J.L.U.VQtQtQtQtQtQtQtQtQtQtQtQtQtQtQtQtQtQtQtQtQtQtQtQtQt",
"QtQtQtQtQtQtQtQtQtQtQtQtQtQtQtQtQtQtQt.C.d.c.d.a.d.K.S.H.G.H.J.N.N.H.I.J.L.B.AQtQtQtQtQtQtQtQtQtQtQtQtQtQtQtQtQtQtQtQtQtQtQtQtQt",
"QtQtQtQtQtQtQtQtQtQtQtQtQtQtQtQtQtQtQt.#.d.c.d.a.d.W.S.H.G.H.J.J.N.I.I.J.C.AQtQtQtQtQtQtQtQtQtQtQtQtQtQtQtQtQtQtQtQtQtQtQtQtQtQt",
"QtQtQtQtQtQtQtQtQtQtQtQtQtQtQtQtQtQtQt.C.d.a.e.d.K.S.W.H.J.H.J.J.J.J.H.H.C.UQtQtQtQtQtQtQtQtQtQtQtQtQtQtQtQtQtQtQtQtQtQtQtQtQtQt",
"QtQtQtQtQtQtQtQtQtQtQtQtQtQtQtQtQtQtQt.#.d.a.e.d.X.S.X.G.J.G.I.J.N.N.H.Y.Y.U.VQtQtQtQtQtQtQtQtQtQtQtQtQtQtQtQtQtQtQtQtQtQtQtQtQt",
"QtQtQtQtQtQtQtQtQtQtQtQtQtQtQtQtQtQt.a.#.d.a.d.d.X.S.X.G.J.G.H.J.N.N.I.Z.A.Z.AQtQtQtQtQtQtQtQtQtQtQtQtQtQtQtQtQtQtQtQtQtQtQtQtQt",
"QtQtQtQtQtQtQtQtQtQtQtQtQtQtQtQtQtQt.a.c.d.a.d.K.W.W.X.K.L.G.H.I.J.N.N.I.A.0.VQtQtQtQtQtQtQtQtQtQtQtQtQtQtQtQtQtQtQtQtQtQtQtQtQt",
"QtQtQtQtQtQtQtQtQtQtQtQtQtQtQtQtQtQt.1.a.e.e.d.K.W.X.K.G.G.H.H.I.J.2.L.J.I.0.UQtQtQtQtQtQtQtQtQtQtQtQtQtQtQtQtQtQtQtQtQtQtQtQtQt",
"QtQtQtQtQtQtQtQtQtQtQtQtQtQtQtQtQt.c.c.d.d.d.C.X.W.K.u.G.H.I.H.I.L.I.J.J.3.0.VQtQtQtQtQtQtQtQtQtQtQtQtQtQtQtQtQtQtQtQtQtQtQtQtQt",
"QtQtQtQtQtQtQtQtQtQtQtQtQtQtQtQtQt.c.aQt.d.d.K.W.K.W.G.H.H.I.G.C.I.J.4.i.3.3QtQtQtQtQtQtQtQtQtQtQtQtQtQtQtQtQtQtQtQtQtQtQtQtQtQt",
"QtQtQtQtQtQtQtQtQtQtQtQtQtQtQtQtQt.aQtQt.d.K.W.W.u.W.G.H.I.H.I.a.3.3.M.i.3.l.3QtQtQtQtQtQtQtQtQtQtQtQtQtQtQtQtQtQtQtQtQtQtQtQtQt",
"QtQtQtQtQtQtQtQtQtQtQtQtQtQtQtQtQtQtQtQt.d.K.W.X.u.G.H.H.I.I.I.3.3.O.4.4.w.l.3QtQtQtQtQtQtQtQtQtQtQtQtQtQtQtQtQtQtQtQtQtQtQtQtQt",
"QtQtQtQtQtQtQtQtQtQtQtQtQtQtQtQtQtQtQtQt.K.W.W.K.X.G.H.H.I.I.I.3.4.4.4.k.k.w.0QtQtQtQtQtQtQtQtQtQtQtQtQtQtQtQtQtQtQtQtQtQtQtQtQt",
"QtQtQtQtQtQtQtQtQtQtQtQtQtQtQtQtQtQtQtQt.W.W.W.K.X.H.H.I.H.I.I.J.3.t.w.t.t.A.0QtQtQtQtQtQtQtQtQtQtQtQtQtQtQtQtQtQtQtQtQtQtQtQtQt",
"QtQtQtQtQtQtQtQtQtQtQtQtQtQtQtQtQtQt.K.X.W.K.u.X.G.H.H.I.I.I.J.j.L.t.t.t.A.A.0QtQtQtQtQtQtQtQtQtQtQtQtQtQtQtQtQtQtQtQtQtQtQtQtQt",
"QtQtQtQtQtQtQtQtQtQtQtQtQtQtQtQtQtQt.X.W.K.u.K.X.H.H.I.I.I.I.J.j.L.2.B.A.A.h.x.xQtQtQtQtQtQtQtQtQtQtQtQtQtQtQtQtQtQtQtQtQtQtQtQt",
"QtQtQtQtQtQtQtQtQtQtQtQtQtQtQtQtQt.K.W.W.u.u.K.G.H.H.I.I.I.I.J.5.2.S.n.A.h.x.m.n.xQtQtQtQtQtQtQtQtQtQtQtQtQtQtQtQtQtQtQtQtQtQtQt",
"QtQtQtQtQtQtQtQtQtQtQtQtQtQtQtQtQt.K.W.X.u.u.X.H.H.I.I.I.I.J.N.5.2.S.y.m.x.O.m.m.mQtQtQtQtQtQtQtQtQtQtQtQtQtQtQtQtQtQtQtQtQtQtQt",
"QtQtQtQtQtQtQtQtQtQtQtQtQtQtQtQtQt.K.W.K.u.K.G.H.H.I.I.J.I.J.N.L.2.S.S.n.h.x.x.x.xQtQtQtQtQtQtQtQtQtQtQtQtQtQtQtQtQtQtQtQtQtQtQt",
"QtQtQtQtQtQtQtQtQtQtQtQtQtQtQtQtQt.K.X.K.K.X.H.H.I.I.I.I.I.J.j.2.2.m.m.x.u.a.x.x.xQtQtQtQtQtQtQtQtQtQtQtQtQtQtQtQtQtQtQtQtQtQtQt",
"QtQtQtQtQtQtQtQtQtQtQtQtQtQtQtQtQt.K.X.K.X.H.H.H.I.I.J.I.I.N.j.2.2.m.x.e.6.u.h.hQtQtQtQtQtQtQtQtQtQtQtQtQtQtQtQtQtQtQtQtQtQtQtQt",
"QtQtQtQtQtQtQtQtQtQtQtQtQtQtQtQtQt.K.X.X.G.H.H.I.I.I.J.I.J.N.5.2.x.x.u.6.e.6.u.3QtQtQtQtQtQtQtQtQtQtQtQtQtQtQtQtQtQtQtQtQtQtQtQt",
"QtQtQtQtQtQtQtQtQtQtQtQtQtQtQtQtQt.K.X.X.H.H.H.I.I.J.I.I.J.N.L.2.3.g.u.e.e.e.e.3QtQtQtQtQtQtQtQtQtQtQtQtQtQtQtQtQtQtQtQtQtQtQtQt",
"QtQtQtQtQtQtQtQtQtQtQtQtQtQtQtQtQt.K.X.G.H.H.I.I.I.J.I.I.J.j.L.2.3.u.u.e.a.O.O.OQtQtQtQtQtQtQtQtQtQtQtQtQtQtQtQtQtQtQtQtQtQtQtQt",
"QtQtQtQtQtQtQtQtQtQtQtQtQtQtQtQtQt.K.u.H.H.H.I.I.I.J.I.I.N.j.2.2.e.u.6.6.e.e.e.3.7.7QtQtQtQtQtQtQtQtQtQtQtQtQtQtQtQtQtQtQtQtQtQt",
"QtQtQtQtQtQtQtQtQtQtQtQtQtQtQtQtQt.u.7.7.H.I.I.I.J.I.I.J.N.5.2.2.e.G.u.e.e.e.e.u.8.9#..7.7.7QtQtQtQtQtQtQtQtQtQtQtQtQtQtQtQtQtQt",
"QtQtQtQtQtQtQtQtQtQtQtQtQtQtQtQt.7.7.9###a.I.I.I.J.I.I.J.N.5.2.e.G.0.u.6.e.O.O.O#b#c#d#a##.9.7.7QtQtQtQtQtQtQtQtQtQtQtQtQtQtQtQt",
"QtQtQtQtQtQtQtQtQtQtQtQtQtQtQt.7.9#e#f#g#h#i#j.I.J.I.J.N.5.L.2.n#k#l.g.6.e.e.u.O.3.3#m#h#g#f#e.9.7QtQtQtQtQtQtQtQtQtQtQtQtQtQtQt",
"QtQtQtQtQtQtQtQtQtQtQtQtQtQt.7.8#n#o#p#q#r#s#t#u#v.3.J.N.5.L.2.3#w#x.u.6.e.e.O.e.e.O.3#r#q#p#y#n.8.7QtQtQtQtQtQtQtQtQtQtQtQtQtQt",
"QtQtQtQtQtQtQtQtQtQtQtQtQt.7.9#z#A#B#C#D#E#F#G#H#I.u.6.e.4.4.X.n.3.3.u.e.6.u.6.e.O.e.3#E#D#C#B#A#z.9.7QtQtQtQtQtQtQtQtQtQtQtQtQt",
"QtQtQtQtQtQtQtQtQtQtQtQtQt.7#J#K#L#l#M#G#N#O#P#P#P.u.6.e.O.O.4.4.X.4.3.3.3.3.3.3.3.3.3#N#G#M#l#L#K#J.7QtQtQtQtQtQtQtQtQtQtQtQtQt",
"QtQtQtQtQtQtQtQtQtQtQtQtQt.7#J#Q#L#l#E#G#N#O#P#P#P.u.u.e.4.4.a.O.a.4.u#R#R#P#P#P#P#P#O#N#G#E#l#S#Q#J.7QtQtQtQtQtQtQtQtQtQtQtQtQt",
"QtQtQtQtQtQtQtQtQtQtQtQtQt.7#T#z#A#B#C#D#E#F#G#H#I#N#U.u.3.g.3.g.3.g.u#O#U#U#N#I#H#G#F#E#D#C#B#A#z#T.7QtQtQtQtQtQtQtQtQtQtQtQtQt",
"QtQtQtQtQtQtQtQtQtQtQtQtQtQt.7.8#V#y#W#B#X#s#t#u#v#Y#Z#0#1#2#w#w#w#w#2#1#0#Z#Y#v#u#t#s#X#B#W#y#V.8.7QtQtQtQtQtQtQtQtQtQtQtQtQtQt",
"QtQtQtQtQtQtQtQtQtQtQtQtQtQtQt.7#T#a#f#g#h#m#3#4#5#6#7#8#C#9#l#k#k#l#9#C#8#7#6#5#4#3#m#h#g#f#a#T.7QtQtQtQtQtQtQtQtQtQtQtQtQtQtQt",
"QtQtQtQtQtQtQtQtQtQtQtQtQtQtQtQt.7.7.9###a#d#c#ba.a#aaabacadae#i#iaeadacabaaa#a.#b#c#z#a##.9.7.7QtQtQtQtQtQtQtQtQtQtQtQtQtQtQtQt",
"QtQtQtQtQtQtQtQtQtQtQtQtQtQtQtQtQtQt.7.7.7#..9.8##af#aagahahahaiaiahahahag#aaf##.8.9#..7.7.7QtQtQtQtQtQtQtQtQtQtQtQtQtQtQtQtQtQt",
"QtQtQtQtQtQtQtQtQtQtQtQtQtQtQtQtQtQtQtQtQtQt.7.7.7.7.7.7.7.7.7.7.7.7.7.7.7.7.7.7.7.7QtQtQtQtQtQtQtQtQtQtQtQtQtQtQtQtQtQtQtQtQtQt",
"QtQtQtQtQtQtQtQtQtQtQtQtQtQtQtQtQtQtQtQtQtQtQtQtQtQtQtQtQtQtQtQtQtQtQtQtQtQtQtQtQtQtQtQtQtQtQtQtQtQtQtQtQtQtQtQtQtQtQtQtQtQtQtQt",
"QtQtQtQtQtQtQtQtQtQtQtQtQtQtQtQtQtQtQtQtQtQtQtQtQtQtQtQtQtQtQtQtQtQtQtQtQtQtQtQtQtQtQtQtQtQtQtQtQtQtQtQtQtQtQtQtQtQtQtQtQtQtQtQt"};
