/* XPM */
static char *dummy[]={
"64 64 140 2",
"Qt c None",
".7 c #000000",
"#. c #000000",
".9 c #000000",
"#V c #000000",
".8 c #000000",
"#L c #000000",
"## c #000000",
"ag c #000000",
"#e c #000000",
"#a c #000000",
"ah c #000000",
"ai c #000000",
"aj c #000000",
"#b c #000000",
"#A c #000000",
"#o c #000000",
"#Y c #000000",
"#f c #000000",
"#c c #000000",
"#M c #000000",
"#T c #000000",
"#d c #000000",
"#g c #000000",
"a# c #000000",
"#p c #000000",
"#z c #000000",
"aa c #000000",
"#h c #000000",
"ab c #000000",
"#B c #000000",
"ac c #000000",
"ad c #000000",
"ae c #000000",
"af c #000000",
"#i c #000000",
"#n c #000000",
"#q c #000000",
"#Z c #000000",
"#j c #000000",
"#m c #000000",
"#N c #000000",
"#U c #000000",
"#k c #000000",
"#r c #000000",
"#C c #000000",
"#l c #000000",
"#6 c #000000",
"#s c #000000",
"#0 c #000000",
"#7 c #000000",
"#8 c #000000",
"#D c #000000",
"#t c #000000",
"#9 c #000000",
"#O c #000000",
"a. c #000000",
"#u c #000000",
"#E c #000000",
"#v c #000000",
"#w c #000000",
"#x c #000000",
"#P c #000000",
"#F c #000000",
"#1 c #000000",
"#2 c #000000",
"#3 c #000000",
"#G c #000000",
"#4 c #000000",
"#5 c #000000",
"#H c #000000",
"#I c #000000",
"#J c #000000",
"#K c #000000",
"#W c #000000",
"#Q c #000000",
"#X c #000000",
"#R c #000000",
"#S c #000000",
".1 c #000008",
".s c #00b39e",
".Z c #020101",
".g c #060808",
".A c #061e11",
".r c #06eba8",
".F c #080014",
".u c #080808",
".d c #0c1211",
"#y c #0f0e11",
".e c #131314",
".q c #137177",
".v c #140500",
".a c #1a2520",
".G c #1e194b",
".h c #212828",
".o c #26252c",
".2 c #282829",
".c c #2b3932",
".H c #313539",
".T c #35353a",
".I c #382966",
".# c #3a4a42",
".i c #3d3d3d",
".K c #444448",
".j c #463626",
".B c #47474e",
".X c #4a2121",
".P c #51545b",
".3 c #525351",
".x c #535353",
".J c #554783",
".V c #562f1d",
".E c #563521",
".b c #585c5e",
".4 c #655324",
".O c #665e9a",
".t c #6d2029",
".Q c #6f6f76",
".U c #72472d",
".z c #7291ea",
".W c #797a7c",
".f c #798487",
".D c #7a603f",
".m c #838384",
".6 c #8b682a",
".S c #946c45",
".C c #9e7e55",
".Y c #9e99a6",
".0 c #a3a3aa",
".L c #ad473d",
".n c #adb2af",
".w c #b14432",
".5 c #ccd3d6",
".l c #e49e87",
".y c #e5f4ff",
".k c #e67160",
".M c #e87252",
".p c #f7e0d0",
".N c #ffbf75",
".R c #ffef7c",
"QtQtQtQtQtQtQtQtQtQtQtQtQtQtQtQtQtQtQtQtQtQtQtQtQtQtQtQtQtQtQtQtQtQtQtQtQtQtQtQtQtQtQtQtQtQtQtQtQtQtQtQtQtQtQtQtQtQtQtQtQtQtQtQt",
"QtQtQtQtQtQtQtQtQtQtQtQtQtQtQtQtQtQtQtQtQtQtQtQtQtQtQtQtQtQtQtQtQtQtQtQtQtQtQtQtQtQtQtQtQtQtQtQtQtQtQtQtQtQtQtQtQtQtQtQtQtQtQtQt",
"QtQtQtQtQtQtQtQtQtQtQtQtQtQtQtQtQtQtQtQtQtQtQt.#.a.aQtQtQtQtQtQtQtQtQtQtQtQtQtQtQtQtQtQtQtQtQtQtQtQtQtQtQtQtQtQtQtQtQtQtQtQtQtQt",
"QtQtQtQtQtQtQtQtQtQtQtQtQtQtQtQtQtQtQtQtQtQt.#.b.#.c.aQtQtQt.d.e.d.d.dQtQtQtQtQtQtQtQtQtQtQtQtQtQtQtQtQtQtQtQtQtQtQtQtQtQtQtQtQt",
"QtQtQtQtQtQtQtQtQtQtQtQtQtQtQtQtQtQtQtQtQt.b.f.b.c.a.b.f.g.e.a.h.a.#.#.aQtQtQtQtQtQtQtQtQtQtQtQtQtQtQtQtQtQtQtQtQtQtQtQtQtQtQtQt",
"QtQtQtQtQtQtQtQtQtQtQtQtQtQtQtQtQtQtQtQtQt.f.b.#.a.c.f.g.d.h.a.c.i.a.c.b.cQtQtQtQtQtQtQtQtQtQtQtQtQtQtQtQtQtQtQtQtQtQtQtQtQtQtQt",
"QtQtQtQtQtQtQtQtQtQtQtQtQtQtQtQtQtQtQtQt.a.f.c.#.a.e.g.d.a.c.#.#.b.c.a.c.f.cQt.dQtQtQtQtQtQtQtQtQtQtQtQtQtQtQtQtQtQtQtQtQtQtQtQt",
"QtQtQtQtQtQtQtQtQtQtQtQtQtQtQtQtQtQtQtQt.a.b.c.#.d.d.d.a.c.d.a.a.a.f.c.c.f.c.aQtQtQtQtQtQtQtQtQtQtQtQtQtQtQtQtQtQtQtQtQtQtQtQtQt",
"QtQtQtQtQtQtQtQtQtQtQtQtQtQtQtQtQtQtQtQt.c.b.a.#.d.d.a.a.d.a.#.b.f.a.b.c.b.aQtQtQtQtQtQtQtQtQtQtQtQtQtQtQtQtQtQtQtQtQtQtQtQtQtQt",
"QtQtQtQtQtQtQtQtQtQtQtQtQtQtQtQtQtQtQtQt.c.c.#.a.c.d.j.d.a.c.h.c.a.b.k.l.l.a.dQtQtQtQtQtQtQtQtQtQtQtQtQtQtQtQtQtQtQtQtQtQtQtQtQt",
"QtQtQtQtQtQtQtQtQtQtQtQtQtQtQtQtQtQtQt.d.a.m.n.a.aQt.d.d.c.a.d.o.c.l.p.p.p.aQt.dQtQtQtQtQtQtQtQtQtQtQtQtQtQtQtQtQtQtQtQtQtQtQtQt",
"QtQtQtQtQtQtQtQtQtQtQtQtQtQtQtQtQtQtQt.d.c.q.r.sQt.d.e.a.a.d.d.c.t.t.k.p.p.dQt.dQtQtQtQtQtQtQtQtQtQtQtQtQtQtQtQtQtQtQtQtQtQtQtQt",
"QtQtQtQtQtQtQtQtQtQtQtQtQtQtQtQtQtQtQt.a.c.m.n.mQt.d.d.a.d.l.d.c.u.n.v.w.l.kQtQtQtQtQtQtQtQtQtQtQtQtQtQtQtQtQtQtQtQtQtQtQtQtQtQt",
"QtQtQtQtQtQtQtQtQtQtQtQtQtQtQtQtQtQt.d.c.a.x.s.rQtQt.a.d.a.k.d.#.u.y.z.l.l.kQtQtQtQtQtQtQtQtQtQtQtQtQtQtQtQtQtQtQtQtQtQtQtQtQtQt",
"QtQtQtQtQtQtQtQtQtQtQtQtQtQtQtQtQtQt.d.#.d.c.q.n.mQtQt.a.d.g.d.#.l.p.p.p.p.wQtQtQtQtQtQtQtQtQtQtQtQtQtQtQtQtQtQtQtQtQtQtQtQtQtQt",
"QtQtQtQtQtQtQtQtQtQtQtQtQtQtQtQtQtQt.d.c.a.e.d.n.mQtQt.d.d.d.d.#.l.p.p.p.l.wQtQtQtQtQtQtQtQtQtQtQtQtQtQtQtQtQtQtQtQtQtQtQtQtQtQt",
"QtQtQtQtQtQtQtQtQtQtQtQtQtQtQtQtQtQt.d.c.h.e.d.m.n.xQt.g.A.A.A.d.#.l.p.l.w.dQtQtQtQtQtQtQtQtQtQtQtQtQtQtQtQtQtQtQtQtQtQtQtQtQtQt",
"QtQtQtQtQtQtQtQtQtQtQtQtQtQtQtQtQt.d.#.c.c.d.d.x.m.mQt.A.A.A.B.d.c.k.l.w.A.dQtQtQtQtQtQtQtQtQtQtQtQtQtQtQtQtQtQtQtQtQtQtQtQtQtQt",
"QtQtQtQtQtQtQtQtQtQtQtQtQtQtQtQtQt.d.b.c.c.d.d.x.x.C.D.A.A.B.B.B.a.#.w.t.B.g.dQtQtQtQtQtQtQtQtQtQtQtQtQtQtQtQtQtQtQtQtQtQtQtQtQt",
"QtQtQtQtQtQtQtQtQtQtQtQtQtQtQtQtQt.a.b.#.h.d.dQt.E.s.q.A.F.G.G.B.d.c.H.w.H.B.dQtQtQtQtQtQtQtQtQtQtQtQtQtQtQtQtQtQtQtQtQtQtQtQtQt",
"QtQtQtQtQtQtQtQtQtQtQtQtQtQtQtQtQt.a.b.#.a.dQtQt.q.C.m.F.G.I.J.G.B.d.K.B.A.H.gQtQtQtQtQtQtQtQtQtQtQtQtQtQtQtQtQtQtQtQtQtQtQtQtQt",
"QtQtQtQtQtQtQtQtQtQtQtQtQtQtQtQtQt.a.#.#.d.dQtQtQt.x.m.L.M.N.O.J.G.B.P.Q.B.A.KQtQtQtQtQtQtQtQtQtQtQtQtQtQtQtQtQtQtQtQtQtQtQtQtQt",
"QtQtQtQtQtQtQtQtQtQtQtQtQtQtQtQtQt.a.c.b.a.dQtQtQtQt.F.G.I.J.R.M.G.S.a.T.B.A.HQtQtQtQtQtQtQtQtQtQtQtQtQtQtQtQtQtQtQtQtQtQtQtQtQt",
"QtQtQtQtQtQtQtQtQtQtQtQtQtQtQtQtQt.#.a.#.a.aQtQtQtQt.F.I.J.O.J.G.J.J.d.Q.A.A.AQtQtQtQtQtQtQtQtQtQtQtQtQtQtQtQtQtQtQtQtQtQtQtQtQt",
"QtQtQtQtQtQtQtQtQtQtQtQtQtQtQtQtQt.B.a.c.a.cQtQtQtQt.G.I.J.O.J.G.I.J.J.Q.U.U.VQtQtQtQtQtQtQtQtQtQtQtQtQtQtQtQtQtQtQtQtQtQtQtQtQt",
"QtQtQtQtQtQtQtQtQtQtQtQtQtQtQtQtQt.#.d.c.d.cQtQtQt.F.G.I.O.O.G.I.I.I.J.Q.H.HQtQtQtQtQtQtQtQtQtQtQtQtQtQtQtQtQtQtQtQtQtQtQtQtQtQt",
"QtQtQtQtQtQtQtQtQtQtQtQtQtQtQtQtQt.B.d.c.d.aQtQtQt.F.G.I.O.O.G.I.I.I.J.B.A.HQtQtQtQtQtQtQtQtQtQtQtQtQtQtQtQtQtQtQtQtQtQtQtQtQtQt",
"QtQtQtQtQtQtQtQtQtQtQtQtQtQtQtQtQt.i.d.a.d.aQtQt.K.G.I.I.J.O.G.G.E.E.V.B.U.nQtQtQtQtQtQtQtQtQtQtQtQtQtQtQtQtQtQtQtQtQtQtQtQtQtQt",
"QtQtQtQtQtQtQtQtQtQtQtQtQtQtQtQt.#.#.d.a.e.dQtQt.W.G.I.I.J.J.G.F.V.U.V.S.S.UQtQtQtQtQtQtQtQtQtQtQtQtQtQtQtQtQtQtQtQtQtQtQtQtQtQt",
"QtQtQtQtQtQtQtQtQtQtQtQtQtQtQtQt.a.#.d.A.a.dQtQt.W.G.I.J.J.J.G.I.G.G.V.H.A.XQtQtQtQtQtQtQtQtQtQtQtQtQtQtQtQtQtQtQtQtQtQtQtQtQtQt",
"QtQtQtQtQtQtQtQtQtQtQtQtQtQtQtQt.a.c.d.a.a.dQt.K.Y.G.I.J.J.I.G.I.G.G.H.T.X.A.ZQtQtQtQtQtQtQtQtQtQtQtQtQtQtQtQtQtQtQtQtQtQtQtQtQt",
"QtQtQtQtQtQtQtQtQtQtQtQtQtQtQtQt.c.a.d.e.a.dQt.K.Y.G.I.J.J.I.G.I.G.G.H.H.V.A.VQtQtQtQtQtQtQtQtQtQtQtQtQtQtQtQtQtQtQtQtQtQtQtQtQt",
"QtQtQtQtQtQtQtQtQtQtQtQtQtQtQtQt.c.d.d.e.a.d.K.W.Y.G.B.Q.0.Q.G.G.G.G.T.H.S.A.U.ZQtQtQtQtQtQtQtQtQtQtQtQtQtQtQtQtQtQtQtQtQtQtQtQt",
"QtQtQtQtQtQtQtQtQtQtQtQtQtQtQtQt.aQt.d.d.d.a.K.Y.i.F.G.o.I.I.G.I.G.I.j.B.S.1.V.2QtQtQtQtQtQtQtQtQtQtQtQtQtQtQtQtQtQtQtQtQtQtQtQt",
"QtQtQtQtQtQtQtQtQtQtQtQtQtQtQtQt.aQtQt.d.d.K.Y.Y.u.u.Z.2.2.Z.G.I.G.I.j.B.F.g.A.ZQtQtQtQtQtQtQtQtQtQtQtQtQtQtQtQtQtQtQtQtQtQtQtQt",
"QtQtQtQtQtQtQtQtQtQtQtQtQtQtQtQtQtQtQtQt.d.K.Y.W.u.Z.2.3.K.2.Z.I.G.J.j.B.F.F.AQtQtQtQtQtQtQtQtQtQtQtQtQtQtQtQtQtQtQtQtQtQtQtQtQt",
"QtQtQtQtQtQtQtQtQtQtQtQtQtQtQtQtQtQtQtQt.K.Y.Y.K.W.Z.P.f.2.i.k.Z.G.J.j.B.F.AQtQtQtQtQtQtQtQtQtQtQtQtQtQtQtQtQtQtQtQtQtQtQtQtQtQt",
"QtQtQtQtQtQtQtQtQtQtQtQtQtQtQtQtQtQtQtQt.Y.Y.Y.K.W.Z.3.2.w.w.l.2.G.J.j.Q.B.AQtQtQtQtQtQtQtQtQtQtQtQtQtQtQtQtQtQtQtQtQtQtQtQtQtQt",
"QtQtQtQtQtQtQtQtQtQtQtQtQtQtQtQtQtQt.K.W.Y.K.u.W.K.Z.2.w.k.k.2.G.I.J.j.Q.B.ZQtQtQtQtQtQtQtQtQtQtQtQtQtQtQtQtQtQtQtQtQtQtQtQtQtQt",
"QtQtQtQtQtQtQtQtQtQtQtQtQtQtQtQtQtQt.W.Y.K.u.K.W.K.G.Z.k.w.I.J.G.I.J.4.Q.H.ZQtQtQtQtQtQtQtQtQtQtQtQtQtQtQtQtQtQtQtQtQtQtQtQtQtQt",
"QtQtQtQtQtQtQtQtQtQtQtQtQtQtQtQtQt.K.Y.Y.u.u.K.W.F.G.G.I.I.J.I.G.I.J.4.0.m.m.nQtQtQtQtQtQtQtQtQtQtQtQtQtQtQtQtQtQtQtQtQtQtQtQtQt",
"QtQtQtQtQtQtQtQtQtQtQtQtQtQtQtQtQt.K.Y.W.u.u.W.W.F.G.G.I.I.J.I.G.I.J.4.0.Q.5.y.nQtQtQtQtQtQtQtQtQtQtQtQtQtQtQtQtQtQtQtQtQtQtQtQt",
"QtQtQtQtQtQtQtQtQtQtQtQtQtQtQtQtQt.K.Y.K.u.K.W.F.G.G.I.G.I.J.G.I.I.J.4.0.Q.5.5.5QtQtQtQtQtQtQtQtQtQtQtQtQtQtQtQtQtQtQtQtQtQtQtQt",
"QtQtQtQtQtQtQtQtQtQtQtQtQtQtQtQtQt.K.W.K.K.W.W.F.G.G.I.I.J.J.G.I.I.O.4.0.0.m.m.mQtQtQtQtQtQtQtQtQtQtQtQtQtQtQtQtQtQtQtQtQtQtQtQt",
"QtQtQtQtQtQtQtQtQtQtQtQtQtQtQtQtQt.K.W.K.W.W.F.G.G.I.G.I.J.I.G.I.I.O.6.0.0.m.m.xQtQtQtQtQtQtQtQtQtQtQtQtQtQtQtQtQtQtQtQtQtQtQtQt",
"QtQtQtQtQtQtQtQtQtQtQtQtQtQtQtQtQt.K.W.W.W.K.G.G.G.I.I.I.J.I.G.I.I.O.6.0.0.m.xQtQtQtQtQtQtQtQtQtQtQtQtQtQtQtQtQtQtQtQtQtQtQtQtQt",
"QtQtQtQtQtQtQtQtQtQtQtQtQtQtQtQtQt.K.W.W.K.F.G.G.G.I.I.J.J.I.G.I.J.O.6.Q.0.e.ZQtQtQtQtQtQtQtQtQtQtQtQtQtQtQtQtQtQtQtQtQtQtQtQtQt",
"QtQtQtQtQtQtQtQtQtQtQtQtQtQtQtQtQt.K.W.KQt.F.G.G.I.G.I.J.J.I.G.I.J.O.6.Q.0.2.ZQtQtQtQtQtQtQtQtQtQtQtQtQtQtQtQtQtQtQtQtQtQtQtQtQt",
"QtQtQtQtQtQtQtQtQtQtQtQtQtQtQtQtQt.K.uQtQt.G.G.G.I.I.I.J.I.G.G.I.J.O.6.Q.0.W.W.7.7.7QtQtQtQtQtQtQtQtQtQtQtQtQtQtQtQtQtQtQtQtQtQt",
"QtQtQtQtQtQtQtQtQtQtQtQtQtQtQtQtQt.u.7.7.7.G.G.G.I.I.J.J.I.I.G.I.J.O.6.Q.0.2.e.Z.8.9#..7.7.7QtQtQtQtQtQtQtQtQtQtQtQtQtQtQtQtQtQt",
"QtQtQtQtQtQtQtQtQtQtQtQtQtQtQtQt.7.7.9###a#b#c.I.G.I.J.J.I.G.G.I.J.O.6.Q.0.2.2.Z#d#c#b#a##.9.7.7QtQtQtQtQtQtQtQtQtQtQtQtQtQtQtQt",
"QtQtQtQtQtQtQtQtQtQtQtQtQtQtQt.7.9#e#f#g#h#i#j#k#l.I.J.J.I.G.G.I.J.O.4.Q.0.W.W.Z#k#m#n#h#g#f#e.9.7QtQtQtQtQtQtQtQtQtQtQtQtQtQtQt",
"QtQtQtQtQtQtQtQtQtQtQtQtQtQt.7.8#o#p#q#r#s#t#u#v#w#x.u#y#y.e.P.I.J.O.4.Q.0.2.2.e#v#u#t#s#r#q#z#o.8.7QtQtQtQtQtQtQtQtQtQtQtQtQtQt",
"QtQtQtQtQtQtQtQtQtQtQtQtQt.7.9#A#B#C#D#E#F#G#H#I#J#K.u.g.u#y.e.e.P.u.Z#y.o.2.P.n.e.e#G#F#E#D#C#B#A.9.7QtQtQtQtQtQtQtQtQtQtQtQtQt",
"QtQtQtQtQtQtQtQtQtQtQtQtQt.7#L#M#N#O#P#H#K#Q#R#R#R#R#R#S.u.Z.g.Z.g.u.Z#y.e.P.W.2.W.2.e#K#H#P#O#N#M#L.7QtQtQtQtQtQtQtQtQtQtQtQtQt",
"QtQtQtQtQtQtQtQtQtQtQtQtQt.7#L#T#N#O#F#H#K#Q#R#R#R#R#R#S#S#S#S#S#S#S.Z.e.e.2.2.2.P.2#y#K#H#F#O#U#T#L.7QtQtQtQtQtQtQtQtQtQtQtQtQt",
"QtQtQtQtQtQtQtQtQtQtQtQtQt.7#V#A#B#C#D#E#F#G#H#I#J#K#W#W#Q#X#X#R#R#X.Z.Z.Z.Z.Z.Z.Z.Z.Z#F#E#D#C#B#A#V.7QtQtQtQtQtQtQtQtQtQtQtQtQt",
"QtQtQtQtQtQtQtQtQtQtQtQtQtQt.7.8#Y#z#Z#C#0#t#u#v#w#x#1#2#3#4#5#5#5#5#4#3#2#1#x#w#v#u#t#0#C#Z#z#Y.8.7QtQtQtQtQtQtQtQtQtQtQtQtQtQt",
"QtQtQtQtQtQtQtQtQtQtQtQtQtQtQt.7#V#a#f#g#h#n#m#k#l#6#7#8#D#9#Oa.a.#O#9#D#8#7#6#l#k#m#n#h#g#f#a#V.7QtQtQtQtQtQtQtQtQtQtQtQtQtQtQt",
"QtQtQtQtQtQtQtQtQtQtQtQtQtQtQtQt.7.7.9###a#b#c#da#aaabacadaeaf#i#iafaeadacabaaa##d#c#A#a##.9.7.7QtQtQtQtQtQtQtQtQtQtQtQtQtQtQtQt",
"QtQtQtQtQtQtQtQtQtQtQtQtQtQtQtQtQtQt.7.7.7#..9.8##ag#aahaiaiaiajajaiaiaiah#aag##.8.9#..7.7.7QtQtQtQtQtQtQtQtQtQtQtQtQtQtQtQtQtQt",
"QtQtQtQtQtQtQtQtQtQtQtQtQtQtQtQtQtQtQtQtQtQt.7.7.7.7.7.7.7.7.7.7.7.7.7.7.7.7.7.7.7.7QtQtQtQtQtQtQtQtQtQtQtQtQtQtQtQtQtQtQtQtQtQt",
"QtQtQtQtQtQtQtQtQtQtQtQtQtQtQtQtQtQtQtQtQtQtQtQtQtQtQtQtQtQtQtQtQtQtQtQtQtQtQtQtQtQtQtQtQtQtQtQtQtQtQtQtQtQtQtQtQtQtQtQtQtQtQtQt",
"QtQtQtQtQtQtQtQtQtQtQtQtQtQtQtQtQtQtQtQtQtQtQtQtQtQtQtQtQtQtQtQtQtQtQtQtQtQtQtQtQtQtQtQtQtQtQtQtQtQtQtQtQtQtQtQtQtQtQtQtQtQtQtQt"};
