/* XPM */
static char *dummy[]={
"128 64 131 2",
"#Q c #000000",
"#l c #000003",
"#K c #00070c",
"#o c #07050d",
"#r c #141d32",
"#h c #1baba8",
"#d c #1c0000",
"#q c #1e232c",
"#f c #25424b",
"#S c #280500",
"#s c #2b2c38",
"#z c #303a55",
".7 c #383f4a",
".g c #383f4b",
"#O c #383f4c",
".6 c #38404c",
".e c #393f4b",
"Qt c #3a404b",
".h c #3a404c",
"#0 c #3d4046",
".d c #3d4047",
".f c #3f4148",
"#M c #3f4449",
".i c #404248",
"#8 c #424349",
".# c #434245",
"a# c #43434a",
"#4 c #44434a",
".j c #44444b",
"#W c #46413d",
".a c #46413e",
".s c #474242",
"a. c #474548",
".k c #47464d",
"#Y c #494649",
"#D c #4a4138",
".b c #4a423a",
".t c #4a433e",
"aa c #4b4440",
".l c #4b4951",
"#C c #4b5e7f",
".c c #4c423a",
".m c #4d484c",
".w c #4e4541",
"#n c #4f211e",
"#P c #4f443c",
"#u c #4f5463",
"#Z c #50443c",
"#V c #50453d",
"#9 c #51453d",
".T c #514743",
".G c #52300c",
"#2 c #53463f",
".H c #54473f",
"#X c #544845",
".n c #544946",
".q c #554840",
".r c #554a47",
".p c #584a43",
".o c #584a44",
"#6 c #584a47",
".F c #584d4d",
".x c #5a4d4b",
"#y c #5b0a00",
"#R c #5b4b44",
"#5 c #5b4c48",
"#T c #5c4b43",
"#U c #5d4b43",
"#. c #5e4d45",
"#7 c #5e4d48",
"#3 c #5f4f4d",
".8 c #614d45",
".y c #61514f",
"#j c #635049",
".9 c #644f48",
"#1 c #645352",
".z c #655451",
".I c #66514a",
"## c #67524b",
".U c #67544f",
"#E c #684700",
"#G c #68524b",
".1 c #68534c",
"#F c #69534d",
".0 c #69544d",
".R c #6c564f",
".3 c #6c5650",
".A c #6c5959",
"#L c #6c7273",
"#k c #6d5650",
"#b c #6e5651",
".2 c #6e5751",
".J c #6f5750",
".4 c #6f5a56",
".S c #705853",
".C c #705c5c",
".B c #705c5d",
"#J c #708ea7",
".D c #715c5b",
".K c #725a55",
"#I c #735a54",
".Q c #745b56",
".E c #745d59",
"#H c #755c57",
"#v c #757c87",
".V c #785e5a",
".Y c #7a5f5b",
".W c #7a605b",
".X c #7a605c",
"#a c #7c615d",
"#t c #7d625e",
".L c #7e625e",
".P c #826663",
".N c #836663",
".O c #836764",
".M c #846763",
"#m c #8b4435",
".u c #946230",
"#N c #99a09e",
"#A c #9e7b10",
"#w c #b1b5be",
"#e c #b5bfce",
"#p c #c26552",
".v c #d1a049",
"#B c #dfba18",
".Z c #f0e883",
"#g c #f2ffff",
"#x c #f4fffe",
"#c c #fd9370",
"#i c #ffe5ba",
".5 c #fffffa",
"QtQtQtQtQtQtQtQtQtQtQtQtQtQtQtQtQtQtQt.#.a.b.b.b.b.b.b.c.b.b.b.b.b.b.b.a.d.e.f.g.f.e.h.hQtQt.f.gQt.f.e.h.f.gQtQtQtQt.f.d.a.c.c.bQtQtQtQtQtQtQtQtQtQtQtQtQtQtQtQtQtQtQt.#.a.b.b.b.b.b.b.c.b.b.b.b.b.b.b.a.d.e.f.g.f.e.h.hQtQt.f.gQt.f.e.h.f.gQtQtQtQt.f.d.a.c.c.b",
"QtQtQtQtQtQtQt.gQt.gQt.g.gQt.g.g.g.g.g.d.a.b.b.b.b.b.b.b.b.b.b.b.b.b.b.a.e.e.g.g.g.g.e.gQt.g.g.g.g.g.e.e.g.g.g.g.gQt.g.d.a.c.c.cQtQtQtQtQtQtQt.gQt.gQt.g.gQt.g.g.g.g.g.d.a.b.b.b.b.b.b.b.b.b.b.b.b.b.b.a.e.e.g.g.g.g.e.gQt.g.g.g.g.g.e.e.g.g.g.g.gQt.g.d.a.c.c.c",
".h.hQtQtQt.g.gQt.gQtQt.g.g.g.g.g.g.g.g.d.a.b.b.b.b.b.b.b.b.b.b.b.b.b.b.a.e.g.g.g.g.g.g.g.g.g.g.g.g.g.e.e.g.g.g.g.g.g.g.d.a.c.c.c.h.hQtQtQt.g.gQt.gQtQt.g.g.g.g.g.g.g.g.d.a.b.b.b.b.b.b.b.b.b.b.b.b.b.b.a.e.g.g.g.g.g.g.g.g.g.g.g.g.g.e.e.g.g.g.g.g.g.g.d.a.c.c.c",
".d.d.d.i.j.j.k.k.k.l.l.l.m.l.l.m.l.l.l.m.n.o.p.o.o.o.q.p.o.o.o.o.o.o.p.n.r.l.l.l.l.l.l.l.l.l.l.l.l.l.l.l.l.l.l.l.k.k.k.j.s.a.t.a.d.d.d.i.j.j.k.k.k.l.l.l.m.u.v.m.l.l.l.m.n.o.p.o.o.o.q.p.o.o.o.o.o.o.p.n.r.l.l.l.l.l.l.l.l.l.l.l.l.l.l.l.l.l.l.l.k.k.k.j.s.a.t.a",
".t.a.a.w.x.y.y.z.A.B.B.B.A.B.B.B.B.C.C.D.D.E.E.E.E.E.E.E.E.E.E.E.E.E.E.E.B.C.C.C.A.B.B.B.B.B.B.A.C.C.B.B.B.B.B.A.z.y.y.F.j.d.d.d.t.a.a.w.x.y.y.z.A.B.u.u.u.u.v.G.B.C.C.D.D.E.E.E.E.E.E.E.E.E.E.E.E.E.E.E.B.C.C.C.A.B.B.B.B.B.B.A.C.C.B.B.B.B.B.A.z.y.y.F.j.d.d.d",
".c.b.b.H.I.J.J.K.L.M.M.N.O.O.O.O.N.M.N.N.M.P.P.P.P.P.O.P.P.P.P.P.P.P.P.O.M.M.N.M.N.N.O.P.M.O.O.N.N.N.N.M.N.M.O.L.Q.J.J.y.k.gQtQt.c.b.b.H.I.J.J.K.u.v.u.u.u.v.G.G.u.G.N.N.M.P.P.P.P.P.O.P.P.P.P.P.P.P.P.O.M.M.N.M.N.N.O.P.M.O.O.N.N.N.N.M.N.M.O.L.Q.J.J.y.k.gQtQt",
".c.c.b.H.I.J.R.K.L.M.N.N.N.N.M.M.O.N.N.N.N.N.P.P.P.P.P.P.P.P.P.P.P.P.P.P.N.N.N.N.N.N.N.N.N.N.N.N.N.P.P.N.N.N.N.L.S.R.R.y.kQtQt.h.c.c.b.H.I.J.R.u.u.v.v.v.u.u.v.u.u.G.G.N.N.N.P.P.P.P.P.P.P.P.P.P.P.P.P.P.N.N.N.N.N.N.N.N.N.N.N.N.N.P.P.N.N.N.N.L.S.R.R.y.kQtQt.h",
".a.a.a.T.U.K.K.Q.V.W.W.W.W.W.W.W.X.Y.V.Y.X.L.X.L.Y.Y.Y.Y.Y.Y.Y.Y.Y.Y.Y.Y.Y.L.Y.L.L.X.L.X.L.L.L.X.Y.Y.Y.X.L.L.X.V.Q.Q.K.z.k.g.gQt.a.a.a.T.U.K.u.u.v.Z.v.Z.v.v.v.Z.v.u.G.Y.X.L.X.L.Y.Y.Y.Y.Y.Y.Y.Y.Y.Y.Y.Y.Y.L.Y.L.L.X.L.X.L.L.L.X.Y.Y.Y.X.L.L.X.V.Q.Q.K.z.k.g.gQt",
".d.d.d.m.A.L.L.V.J.0.0.0.0.0.0.0.1.1.0.J.2.K.K.S.3.1.1.1.1.1.1.1.1.1.0.J.K.K.K.K.K.K.K.K.K.K.K.4.3.1.1.3.J.K.K.K.Y.P.L.A.k.g.g.f.d.d.d.m.A.L.u.Z.Z.v.Z.Z.v.Z.v.Z.Z.5.v.u.2.K.K.S.3.1.1.1.1.1.1.1.1.1.0.J.K.K.K.K.K.K.K.K.K.K.K.4.3.1.1.3.J.K.K.K.Y.P.L.A.k.g.g.f",
"Qt.6.7.l.B.M.N.W.1.8.8.8.8.8.8.8.8.8.8.9.1.J.J.z.9.8.9.8.9.8.9.8.8.8.8.9.z.3.J.0.J.3.3.3.3.3.3.1.9.8.8.9.1.3.J.K.Y.P.N.D.l.g.e.eQt.6.7.l.B.G.v.Z.v.v.Z.v.Z.Z.v.Z.v.Z.5.u.1.J.J.z.9.8.9.8.9.8.9.8.8.8.8.9.z.3.J.0.J.3.3.3.3.3.3.1.9.8.8.9.1.3.J.K.Y.P.N.D.l.g.e.e",
"QtQt.7.l.B.M.N.W.0.8.8.8.8.8.8.8.8.8#..9.3.J.3.1.9.8#..8.8.8.8.8.8.8.8.9##.J.3.3.3.3.3.3.3.3.J.z.9.8#..9.3.3.0.K#a.N.M.D.l.e.e.eQtQt.7.l.B.G.v.u.u.v.u.Z.5.v.u.Z.5.v.v.Z.v.J.3.1.9.8#..8.8.8.8.8.8.8.8.9##.J.3.3.3.3.3.3.3.3.J.z.9.8#..9.3.3.0.K#a.N.M.D.l.e.e.e",
"Qt.7Qt.l.D.M.N.W.0.8.8.8.9.8.8.9.9.I.9.I##.3.3##.9.8.9.8.8.9.8.9.9.9.9.I.3.3.J.3.3.3.J.3.3.3.J.3.I.9.9.I.3.3.J.4.L.M.N.D.l.e.e.hQt.7Qt.l.u.v.u.G.v.v.u.5.Z.u.G.u.Z.5.u.v.v.3.3##.9.8.9.8.8.9.8.9.9.9.9.I.3.3.J.3.3.3.J.3.3.3.J.3.I.9.9.I.3.3.J.4.L.M.N.D.l.e.e.h",
"Qt.7.7.l.B.N.N.W.0.8.8.9.8.8.8.I##.1.3##.I.I.9.9.9.9.8.8.8.9.8.9.1.3.z.0.J.J.J.3.3.J.3.3#b.3.3.3.0.1.3.3.3.3.3.K.L.N.O.B.l.g.gQtQt.7.7.l.u.G.G.u.v.u.v.Z.v.u#c.G.v.5.G.G.I.I.9.9.9.9.8.8.8.9.8.9.1.3.z.0.J.J.J.3.3.J.3.3#b.3.3.3.0.1.3.3.3.3.3.K.L.N.O.B.l.g.gQt",
"QtQt.7.l.B.M.N.W.0.8.8.8.8.9.8.I.3.J.J.3.9.8.8.9.8.8.8.9.8.8.8.9.1.J.J.3.3.J.3.3.3.3.J.3.3#b#b.3.J.J.3.3.J.3.3.K.X.N.O.B.l.g.gQtQtQt.7.l.u.u.u.G.u.G.v.v.G#d#d#c.u.Z.G.3.9.8.8.9.8.8.8.9.8.8.8.9.1.J.J.3.3.J.3.3.3.3.J.3.3#b#b.3.J.J.3.3.J.3.3.K.X.N.O.B.l.g.gQt",
"Qt.7.7.l.B.N.N.X.0.8.8.8.8.8.8.I.3.J.J.0.I.8.8.8.8.8.8.8.8.9.8.9.3.J.J.3.J.3.3.3.3.3.3.3.3#b.3#b.3.3.J.3.3.3.J.K.L.N.O.B.l.e.g.fQt.7.7.l.u.G.G.G.u#c.u.v.G#e#f#d.G.v.G.0.I.8.8.8.8.8.8.8.8.9.8.9.3.J.J.3.J.3.3.3.3.3.3.3.3#b.3#b.3.3.J.3.3.3.J.K.L.N.O.B.l.e.g.f",
"QtQt.7.l.B.N.N.X.0.8.8.8.9.I.9.I.1.1.3.1.9.8.8.9.8.9.8.9.9.I.9##.1.1.3.3.3.3.3.J.J.3.J.3#b.3#b.3.3.J.3.3.3.J.3.K.X.N.O.A.l.e.e.eQtQt.7.l.B.N.G.G.u#c.G.u#c#g#h#i#c.G.3.1.9.8.8.9.8.9.8.9.9.I.9##.1.1.3.3.3.3.3.J.J.3.J.3#b.3#b.3.3.J.3.3.3.J.3.K.X.N.O.A.l.e.e.e",
"Qt.gQt.m.A.O.O.X.0.8.8.9##.0.3##.I#j.9.9.9.8.9.8#..8.9.9##.3.3##.I.I.I.I.z#k.3#b.3#b.3#b#b.3.3#b.J.3.2.3.3.3.3.K.X.P.O.B.l.g.gQtQt.gQt.m.A#l#l.G.G#m#m.G#i#i#i#i#i#n.9.9.9.8.9.8#..8.9.9##.3.3##.I.I.I.I.z#k.3#b.3#b.3#b#b.3.3#b.J.3.2.3.3.3.3.K.X.P.O.B.l.g.gQt",
"QtQtQt.l.B.O.N.X.0.8.8.I.0.J.J.0.I.8.9.8.8.8.9.8.9.8.8.9.1.J.J.1.9.8#..I.3#k#k.3#b.3#b.3.3.3#b.3.3.3.3#b.3.3.3.K.L.P.P.B.l.gQtQtQtQtQt.l.B#l#o#l.G.G#m#p#i#i#i#i#p#n.9.8.8.8.9.8.9.8.8.9.1.J.J.1.9.8#..I.3#k#k.3#b.3#b.3.3.3#b.3.3.3.3#b.3.3.3.K.L.P.P.B.l.gQtQt",
"Qt.g.g.l.B.N.N.X.0.8.8.I.3.J.J.3.9.8.8.8.8.9.8.8.9.8.8.9.3.2.2.3.9.8.8#j.0.2.3#b.3#b#b.3#b.3.3#b.3#b.3.2.J.3.3.K.X.P.P.B.m.g.gQtQt.g.g.l.B#l#q#r#l#l.G#m#p#c#c#p#n#s.8.8.8.9.8.8.9.8.8.9.3.2.2.3.9.8.8#j.0.2.3#b.3#b#b.3#b.3.3#b.3#b.3.2.J.3.3.K.X.P.P.B.m.g.gQt",
"Qt.g.g.k.B.N.N.X.0.9.9.I.1.0.3##.9.8.9.8.8.8.8.9.9.9.9##.1.1.3.1.I.9#j.I.3.3#b.3.3.3.3#b.3#b#b.3.3.3#b.3.3.3.3.K#t.P.P.B.l.gQtQtQt.g.g.k.B.N#l#r#u#u#v#w#x#v#m#n#y#s.9.8.8.8.8.9.9.9.9##.1.1.3.1.I.9#j.I.3.3#b.3.3.3.3#b.3#b#b.3.3.3#b.3.3.3.3.K#t.P.P.B.l.gQtQt",
"QtQtQt.l.B.N.N.L.2.0.0.0.I.I.9.I.8.9.8.9.9.8.8.I##.3.1##.I.9.9.I.0.0.0.0.3#b.3#b#b.3#b.3#b.3#b#b.2.3#b.3#b.3.J.K.L.N.M.B.l.g.gQtQtQtQt.l.B.N#l#o#l#l#r#r#r#x#v#s#u#o.8.9.9.8.8.I##.3.1##.I.9.9.I.0.0.0.0.3#b.3#b#b.3#b.3#b.3#b#b.2.3#b.3#b.3.J.K.L.N.M.B.l.g.gQt",
"QtQtQt.l.B.N.N.X.K.J.2.3.9.8.8.8.8.8.8.8.8.8.8#j.3.J.J.3.9.8.8.I.0.J.2.2.3#b#b.3.3#b.3#b.3#b.3.3.3#b.3#b#b.3.0.K.L.N.M.B.l.e.g.hQtQtQt.l.B.N#l#r#r#r#z#z#r#v#w#u#s#o.8.8.8.8.8#j.3.J.J.3.9.8.8.I.0.J.2.2.3#b#b.3.3#b.3#b.3#b.3.3.3#b.3#b#b.3.0.K.L.N.M.B.l.e.g.h",
"QtQt.7.k.B.N.N.L.K.J.J.0.9.8.8.8.9.8.9.8.8.8.8.I.0.J.J.3.I#..8.9.0.3.J.J.3.3.3#b.3#b#b.3#b.3.3#b.3#b.3.3.3#b.3.K.W.N.M.B.l.g.g.hQtQt.7.k.B.N#l#r#r#A#B#A#r#l#x#v#o#o.9.8.8.8.8.I.0.J.J.3.I#..8.9.0.3.J.J.3.3.3#b.3#b#b.3#b.3.3#b.3#b.3.3.3#b.3.K.W.N.M.B.l.g.g.h",
"Qt.7Qt.l.B.N.N.X.S.0.0.1.I.9#j.I.9.8.8.8.9.I.9.I.1.3.1.1.I.9.9#j.3.J.3.J#b.3#b.3#b.3#b.3.3#b.3.3.2.3#b.3.3.3.3.D.L.N.M.B.m.d.d.dQt.7Qt.l.B.N#l#r#r#A#B#B#C#l#x#u#o#s.8.8.9.I.9.I.1.3.1.1.I.9.9#j.3.J.3.J#b.3#b.3#b.3#b.3.3#b.3.3.2.3#b.3.3.3.3.D.L.N.M.B.m.d.d.d",
"QtQt.7.k.B.M.M.X.R.9.9.I.0.0.R.0.I.8.8.I##.0.3.1##.I.9.I.1.3.0.3.3.3.3.3.3.3.3.3.3#b.3.3#b.3.3#b#b.3.3.3.3.3.3.K.X.N.N.D.n.a.a.tQtQt.7.k.B.M#l#r#r#z#A#B#C#r#x#s#s#u.8.I##.0.3.1##.I.9.I.1.3.0.3.3.3.3.3.3.3.3.3.3#b.3.3#b.3.3#b#b.3.3.3.3.3.3.K.X.N.N.D.n.a.a.t",
"Qt.6Qt.l.B.O.N.W.0.8.8.9.0.2.J.0.9.8.8.I.3.J.J.1.9.8.8.9.1.J.J.J.3.3.J.3.4.3.J.3#b.3.3#b.3#b#b.3.3.3#b.J.J.3.3.K.X.N.N.E.p.c#D.bQt.6Qt.l.B.O#l#l#l#z#C#C#C#z#w#s#E#u.8.I.3.J.J.1.9.8.8.9.1.J.J.J.3.3.J.3.4.3.J.3#b.3.3#b.3#b#b.3.3.3#b.J.J.3.3.K.X.N.N.E.p.c#D.b",
"Qt.6.6.l.A.O.O.X#F.8.8.9.R.2.2.0.I.8.8.9.3.J.J.0.I.8.8.9.z.J#b#b.J.3.3.3.3.3.3.3.3#b.3.3#b.3.3#b#b.3.3.3.3.3.3.K.L.N.N.K.p#D.b.bQt.6.6.l.A.O.O#l#l#z#z#z#C#z#r#E#s#s.8.9.3.J.J.0.I.8.8.9.z.J#b#b.J.3.3.3.3.3.3.3.3#b.3.3#b.3.3#b#b.3.3.3.3.3.3.K.L.N.N.K.p#D.b.b",
".d.d.d.m.B.N.O.X.0.9.9.I.0.0.0#G.9.8.8.9.1.0.0.1.I.9.9##.3#b.3.3.3.3.J.3.J.3.J.3#b.3#b#b.3#b#b.3.3#b.3.J.3.3.3.K.L.N.N.D.p.b.b.b.d.d.d.m.B.N#l#l#r#r#z#z#z#z#v#u#E.8.8.9.1.0.0.1.I.9.9##.3#b.3.3.3.3.J.3.J.3.J.3#b.3#b#b.3#b#b.3.3#b.3.J.3.3.3.K.L.N.N.D.p.b.b.b",
".a.a.a.n.D.M.O.X.S.0.0.0.I.I.I.9.8.8.8.9.I.9.I.I##.0.3.3.3.3.3#b#k.3.3#b.3.J.3.3#b.3#b.3#b.3#b.3#b.3.3#b.3.3.3.K.L.P.P.E.p.b.b.b.a.a.a.n.D.M#l#r#r#o#r#z#z#z#C#r#o.8.8.9.I.9.I.I##.0.3.3.3.3.3#b#k.3.3#b.3.J.3.3#b.3#b.3#b.3#b.3#b.3.3#b.3.3.3.K.L.P.P.E.p.b.b.b",
".b.b#D.p#H.N.O.X#I.2.2.0.I.8.8.9.8.9.8.9.8.8.8.9.3.J.J.3.3.3.J.3#k.3#b.3.3.3.3#b.3#b.3#b.3#b.3#b.3#b#b.3.3.3.3.K.X.P.P.E.p.b.b.b.b.b#D.p#H.N#l#l#l#l#l#r#z#C#J#C#r#v.8.9.8.8.8.9.3.J.J.3.3.3.J.3#k.3#b.3.3.3.3#b.3#b.3#b.3#b.3#b.3#b#b.3.3.3.3.K.X.P.P.E.p.b.b.b",
".b.b.b.p#H.N.N.L.K.2.R.0#j.8.8.8.8.8.9.8.8.8.8.I.1.3.3.3.3.3.3.2#k#b.3#b.3.3#b.3.3.3.3#b.3#b#b.3.3#b.3#b.3.3.J.K.L.P.P.E.q.b.b.b.b.b.b.p#H.N#l#l#l#o#l#l#z#C#J#J#z#v.9.8.8.8.8.I.1.3.3.3.3.3.3.2#k#b.3#b.3.3#b.3.3.3.3#b.3#b#b.3.3#b.3#b.3.3.J.K.L.P.P.E.q.b.b.b",
".c.b.b.p#H.N.N.X.K.R.J.0.I.8.8.8.9.8.8.8.8.9.8.I.3.J.J.3.3.3.3.3#b.3#b.3#b#b.3#b#b.3#b.3#b.3.3.3#b.3#b.3.J.3.3.K.X.P.P.E.o#D.b.b.c.b.b.p#H.N#l#u#u#l#l#l#r#z#C#C#w#z#u.8.8.9.8.I.3.J.J.3.3.3.3.3#b.3#b.3#b#b.3#b#b.3#b.3#b.3.3.3#b.3#b.3.J.3.3.K.X.P.P.E.o#D.b.b",
".b.b.b.p.D.N.N.L.K.3.J.0.9.9.8.9.8.9.9.8.8.8.8.9.3#b#b#b.J.3.3.2.3#b.3#b.3.3#k#k.3#b.3#b.3.3.3#b.3#b.3#b.3.3.3.K.X.P.P.E.o.b.b.b.b.b.b.p.D.N#l#l#u#u#u#u#u#v#w#x#z#v#u.8.8.8.8.9.3#b#b#b.J.3.3.2.3#b.3#b.3.3#k#k.3#b.3#b.3.3.3#b.3#b.3#b.3.3.3.K.X.P.P.E.o.b.b.b",
".c.b#D.p.Q.N.N.X.K.3.J.1.9.8.8.8.8.8.8.8.9.8.9.9.z#b.3.3.3.2.3.3#b.3#b#k#b.3#k#k#b.3#b.3.3#b#b.3#b.3.3.3.J.3.3.K.X.P.N.E.o.b.b.b.c.b#D.p.Q#l#l#o#r#r#o#l#l#l#r#z#w#u#K.8.9.8.9.9.z#b.3.3.3.2.3.3#b.3#b#k#b.3#k#k#b.3#b.3.3#b#b.3#b.3.3.3.J.3.3.K.X.P.N.E.o.b.b.b",
".c#D.b.p.E.N.N.L.K.J.J.3.I.8.8.8.9.8.8.9.8.8.8.I.1.J#b.3#b.3.3.3.3.3#k#k#k#k#k#k.3#b#b.3#b.3#b.3#b.3#b.3.3.3.3.K#t.P.P.E.p.b.b.c.c#D.b.p.E#l#o#K#o#l#l#r#u#u#v#w#K#q#s#K.8.8.8.I.1.J#b.3#b.3.3.3.3.3#k#k#k#k#k#k.3#b#b.3#b.3#b.3#b.3#b.3.3.3.3.K#t.P.P.E.p.b.b.c",
".a.a.a.n.D.N.N.Y.4.1.0.1.9.8.9.8.8.8.8.9.9.9.9##.0.J#b.3#b.3.J.3#b.3#k#k#k#k#k#k.3#b.3#b.3#b.3#b.3#b.3#b.3.J.3.K#t.P.P.B.n.a.a.a.a.a.a.n.D#l#r#l#r#q#r#r#v#K#K#K#q#q#L#K.9.9.9##.0.J#b.3#b.3.J.3#b.3#k#k#k#k#k#k.3#b.3#b.3#b.3#b.3#b.3#b.3.J.3.K#t.P.P.B.n.a.a.a",
".d.d.e.r.B.M.M.L.0.9.I.9.9.8.8.8.9.8.9.9##.z.0.0.J.J.3.3.3.3.J.3.J.3.3.3#k.3#b.3.3.3#b.3.3.3.3.3#b.3#b.3.3.3.J.K.L.N.M.B.m.d.d.d.d.d.e.r#l#r#r#l#r#z#r#r#v#K#q#M#M#q#N#K##.z.0.0.J.J.3.3.3.3.J.3.J.3.3.3#k.3#b.3.3.3#b.3.3.3.3.3#b.3#b.3.3.3.J.K.L.N.M.B.m.d.d.d",
"Qt.g#O.l.B.O.N.V.1.8.8.8.8.9.8.9.8.8.8.9.3.J.J.J.3.3.3.J.3.J.3.3.3.3.J.3#k#b#k.3#b.3.3#b.3.J.3.3#b.3.3#b#k#k.0.K.X.N.N.B.lQtQtQtQt.g#O.l#l#r#r#r#z#z#r#r#v#o#K#L#L#M#K.9.3.J.J.J.3.3.3.J.3.J.3.3.3.3.J.3#k#b#k.3#b.3.3#b.3.J.3.3#b.3.3#b#k#k.0.K.X.N.N.B.lQtQtQt",
"Qt.g#O.l.B.O.P.X.1.8.8.9.8.8.8.9.8.8.8.9##.J.3.J.J.J.3.J.3.3.3.3.3.2.J.J#k#k#k#k.3#b.3.J.3.J.3.4.3#b.3.3#k.J.3.K.L.N.O.B.l.7QtQtQt.g#O#l#r#r#r#z#z#z#z#r#w#o#s#o#K#K#l.9##.J.3.J.J.J.3.J.3.3.3.3.3.2.J.J#k#k#k#k.3#b.3.J.3.J.3.4.3#b.3.3#k.J.3.K.L.N.O.B.l.7QtQt",
".d.d.e.m.B.O.P.X.1.8.8.8.9.8.8.8.9.I.9##.3.J.3.J.0.1.z.3.3.3.J.J.3.3.z.3.3#k#k#k.J.3.3.3.3.3.3#b#b.3#b.3.3.z.0.4.X.N.P.A.l.7QtQt.d.d.e#l#q#z#r#z#C#z#z#r#w#s#l#K#o#r#l#l.3.J.3.J.0.1.z.3.3.3.J.J.3.3.z.3.3#k#k#k.J.3.3.3.3.3.3#b#b.3#b.3.3.z.0.4.X.N.P.A.l.7QtQt",
".t.a.a.n.D.N.N.V.1.9.8.8.8.9.9.9.1.0.3.z.J.3.3.1##.9.9##.3.J.J.3#j#j.I.I.0.J.3.3.3.3.3.3.3.3.J.3.J.3.J.R.I.I.I.0.X.N.M.B.lQtQtQt.t.a#l#r#z#r#z#C#C#z#z#r#w#z#r#o#l#r#r#l.J.3.3.1##.9.9##.3.J.J.3#j#j.I.I.0.J.3.3.3.3.3.3.3.3.J.3.J.3.J.R.I.I.I.0.X.N.M.B.lQtQtQt",
".b.b#D.p#H.M.M.V.1.8.8.9.8.8.8.9.3.J.3.3.J.J.J.0.9.8.8.9.1.J.J.1#j.8.8.I.0.J.J.3.3.J.3.J.3.J.3.3.3.J.J.0.I.8.8.0.W.N.O.B.lQtQtQt.b#l#l#z#r#z#z#C#C#C#z#v#v#z#l#o#r#r#r#l.J.J.J.0.9.8.8.9.1.J.J.1#j.8.8.I.0.J.J.3.3.J.3.J.3.J.3.3.3.J.J.0.I.8.8.0.W.N.O.B.lQtQtQt",
".c.b#D.p.E.P.M.W.1.9.8.8.8.9#..9.1.J.3.J.J.J.J.3.9#..9.9.z.J.J.R.8.8.8.9.z.J.3#b.3#b.3#b.3.3.3.3.3.J.J.0.I.8.8.0.W.N.N.B.k.g.6Qt.c#l#r#C#z#z#C#C#C#C#z#w#z#r#o#K#r#r#r#l#l.J.J.3.9#..9.9.z.J.J.R.8.8.8.9.z.J.3#b.3#b.3#b.3.3.3.3.3.J.J.0.I.8.8.0.W.N.N.B.k.g.6Qt",
".b.b.b.p.E.N.N.W.1.8.8.9.9.9.9##.3.J.3.3.3.1.3##.I.9.9##.1.R.1.1.I.I#j.I.3#b#b.3.3.3#b.3.3.3.3.3.0.0.0.I.8.p.o##.W.N.N.A.l.g.gQt#l#q#C#z#z#z#C#C#C#C#z#x#z#o#l#o#r#r#r#r#l.1.3##.I.9.9##.1.R.1.1.I.I#j.I.3#b#b.3.3.3#b.3.3.3.3.3.0.0.0.I.8.p.o##.W.N.N.A.l.g.gQt",
".b.b.b.o.E.P.P.Y.1.9.8.9.1.1.3.1.3.3.J.3##.9.9.I##.0.3.1.I.9.9##.0.0.0.3.3.3.3#b#b.3#b.3#b.3.J.3##.I.I#..H#P#P#..E.M.M.B.mQtQt#l#l#q#z#r#z#C#J#C#C#C#v#w#l#o#Q#l#o#r#r#l#L#L.9.I##.0.3.1.I.9.9##.0.0.0.3.3.3.3#b#b.3#b.3#b.3.J.3##.I.I#..H#P#P#..E.M.M.B.mQtQtQt",
".b.b.b.o.E.N.P.Y.1.8.8.9.3.3.J.3.3.3.J.1.9#..8.9.3.3.J.1.I.8.8.9.0.J.J.3.3.3.J.3.3#b.3.3#b#k.J.0#j.8.8#R#P.b.b.q.E.N.M.B.l.hQt#l#r#z#r#z#C#C#J#J#C#z#x#L#M#S#o#l#o#l#q#N#M#L.8.9.3.3.J.1.I.8.8.9.0.J.J.3.3.3.J.3.3#b.3.3#b#k.J.0#j.8.8#R#P.b.b.q.E.N.M.B.l.hQtQt",
".b.b.b.o.E.P.P.Y.1.8#..9.1.J.J.3.J.3.J.3.9.8.8.9.3.J.J.3.9.8#..9.0.J.3.3.3.3.3.3#b.3#b#b#b.J.J.3.I.8.8#.#P.b.b.o.E.N.N.B.k.7.6#s#r#r#r#C#C#J#J#J#C#z#x#M#S#d#o#o#l#s#M#q#N#L.8.9.3.J.J.3.9.8#..9.0.J.3.3.3.3.3.3#b.3#b#b#b.J.J.3.I.8.8#.#P.b.b.o.E.N.N.B.k.7.6Qt",
".a.a.a.r.E.P.P.X.3.9.9##.3.J.J.J.z.3.1.1##.9.9####.3.1.1.I.9.9.I.J.J.J.3.J.3.J.3.3#b.3.3.3.z.0##.I.8.8#T#P.b.b.o.E.N.M.B.l.7Qt#o#u#r#z#C#J#J#J#C#C#v#w#l#d#d#l#q#q#M#q#M#L#M.9####.3.1.1.I.9.9.I.J.J.J.3.J.3.J.3.3#b.3.3.3.z.0##.I.8.8#T#P.b.b.o.E.N.M.B.l.7QtQt",
".d.d.e.r.B.M.N.X.S.1.1.3.3.3.3.3.I.9.9.I##.0.3##.I.I.9.I.1.3.0.3.3.3#b.3.3.3.3.3.J.3.J.J.I.I.I.I.8.9.8#.#P.b.b.n.E.M.M.D.l.g.g#o#s#v#r#z#C#C#C#C#z#x#v#S#S#S#d#o#Q#K#K#K#q#K.3##.I.I.9.I.1.3.0.3.3.3#b.3.3.3.3.3.J.3.J.J.I.I.I.I.8.9.8#.#P.b.b.n.E.M.M.D.l.g.gQt",
"Qt.g#O.l.B.M.N.L.K.J.3.J.3.J.J.1.I.8.8.I.0.J.3.3.9#..8.9.1.J.J.J#b#b.3#b#b.J.3.3.3.3.J.0.9.8.8.8.8.8.8#T#P.b.b.q.E.M.M.B.l#Q#Q#o#s#u#v#w#v#v#v#w#w#x#Q#Q#S#S#S#Q#K#K#q#M#M#K#Q#Q#Q#..8.9.1.J.J.J#b#b.3#b#b.J.3.3.3.3.J.0.9.8.8.8.8.8.8#T#P.b.b.q.E.M.M.B.l.gQtQt",
"Qt.g#O.l.B.P.P.X.K.J.J.3.J.J.J.3.9.8.8.9.0.J.J.0.I.8.8.9.z.J#b#b.3.3#b.3.3#b.3.J.3.J.J.0.I.8.8.8.8.8.8#U#V.b.b.n.E.M.M#Q#Q#Q#Q#Q#o#u#u#u#v#v#v#v#w#x#Q#Q#Q#Q#Q#Q#K#K#K#K#q#K#K#Q#Q#Q#Q.9.z.J#b#b.3.3#b.3.3#b.3.J.3.J.J.0.I.8.8.8.8.8.8#U#V.b.b.n.E.M.M.B.l.g.gQt",
".d.d.e.m.B.P.P.L.K.R.0.J.0.0.z##.I.8.8.I.0.J.J.3.I.9.9##.3#b.3.3.3#b.3.3#b.3.3.3.0.z.0.1.9.8.8.8.I.I.I.8.q#P#P#..E.M#Q#Q#Q#Q#Q#Q#o#s#u#u#u#v#v#v#v#x#Q#Q#Q#Q#Q#Q#K#K#K#q#M#M#K#q#q#o#Q#Q.3#b.3.3.3#b.3.3#b.3.3.3.0.z.0.1.9.8.8.8.I.I.I.8.q#P#P#..E.M.N.D.m.d.d.d",
".t.a#W.n.E.N.P.L.K.3.J.0##.I.9.9.9.8.8.I.0.J.J.0.0.0.3.3.3.3.3#b#b.3#b.3.3.J.3.3#G.9.9.9.9.8.8.I#G.0.3###..o#T.I.W#Q#Q#Q#Q#Q#Q#Q#Q#o#s#s#s#s#u#u#u#v#Q#Q#Q#Q#Q#Q#l#K#K#K#K#K#K#q#q#K#Q#Q#Q.3.3#b#b.3#b.3.3.J.3.3#G.9.9.9.9.8.8.I#G.0.3###..o#T.I.W.N.N.D.n.a.a.a",
".b.b#D.p.E.N.P.L.K.3.J.3.9.8.8.8.8.8.8.I.3.3.J.3.J.J#b.3.3.3.3#b#b.3#b#b.3.J.J.1.I.8.8.8.8.8.8.I.0.J.J.0.I.8.8.0#Q#Q#Q#Q#Q#Q#Q#Q#Q#l#K#o#o#o#o#o#o#Q#Q#Q#Q#Q#Q#Q#Q#K#K#q#q#s#M#M#M#K#Q#Q#Q#Q.3#b#b.3#b#b.3.J.J.1.I.8.8.8.8.8.8.I.0.J.J.0.I.8.8.0.W.N.N.E.p.b.c.c",
".c.c#D.p.E.P.P#t.K.3.J.0.9.8.8.9.8.8.8#j.U.J.3.J.J.3.J.J.3.3.3.3.J.J.3#b.J.J.J.0.I.8.8.8.8.8.8.I.0.J.J.3.I.8.8.0#Q#Q#Q#Q#Q#Q#Q#Q#Q#K#K#K#K#K#K#q#q#l#Q#Q#Q#Q#Q#Q#Q#K#K#q#q#q#q#q#q#o#Q#Q#Q#Q.3.3.J.J.3#b.J.J.J.0.I.8.8.8.8.8.8.I.0.J.J.3.I.8.8.0.W.N.N.E.p#D#D.c",
".a.a.a.n.K.L.L.E.2.1.0.1.9.9.8.8.9.9.I##.0.3.J.R.3.3.3.3.3.3#b.3.0.0.z.3.R.0.0.1.I.8.8.9.9.9.I.I.0.R.0##.8#T#T.I#Q#Q#Q#Q#Q#Q#Q#Q#Q#K#K#K#q#q#M#M#M#l#Q#Q#Q#Q#Q#Q#Q#K#K#K#K#q#K#l#l#Q#Q#Q#Q#Q#b.3.0.0.z.3.R.0.0.1.I.8.8.9.9.9.I.I.0.R.0##.8#T#T.I#H.L.L.4#X.a.a.t",
".#.d.e#Y.z.K.K.J.1.I.9.9.9.9.8.9.1.0.R.0.J.J.J.J.3.3.3.3.3.J.J.R##.9.I.I.9.I.I.9.8.8.9.9#G.R.0.1.I.I.I#..H#P#Z.p#Q#Q#Q#Q#Q#Q#Q#Q#Q#l#K#K#K#K#q#q#M#l#Q#Q#Q#Q#Q#Q#Q#l#l#K#l#l#Q#Q#Q#Q#Q#Q#Q#Q.J.R##.9.I.I.9.I.I.9.8.8.9.9#G.R.0.1.I.I.I#..H#P#Z.p.0#H#H.U#Y#0.d.d",
".e.g.g.k#1.J.J.3.9.9.8.9.8.8.9.9.0.J.J.J.J.J.J.R.J.J.J.J.J.J.J.0.I.8.8.8.8.8.8.8.9.8.8.I.R.R.J.R.I.8.8#U#Z.b#D#2.I#Q#Q#Q#Q#Q#Q#Q#Q#Q#Q#l#K#l#K#o#q#q#Q#Q#Q#Q#Q#Q#Q#Q#Q#Q#Q#Q#Q#Q#Q#Q#Q#Q#Q.J.J.0.I.8.8.8.8.8.8.8.9.8.8.I.R.R.J.R.I.8.8#U#Z.b#D#2.I.J.R.y.k.6QtQt",
".e.e.e.k#3.J.J.1.9.9.8.8.8.9.8.9.R.J.J.J.3.J.J.J.J.J.J.J.3.J.J.0.9.8.8.9.8.9.9.8.9.8.8.I.R.J.J.0.9.9.8#.#Z.b.b#2.I.2#Q#Q#Q#Q#Q#Q#Q#Q#Q#Q#Q#Q#Q#Q#Q#Q#Q#Q#Q#Q#Q#Q#Q#Q#Q#Q#Q#Q#Q#Q#Q#Q#Q#Q.3.J.J.0.9.8.8.9.8.9.9.8.9.8.8.I.R.J.J.0.9.9.8#.#Z.b.b#2.I.2.2.y.k.6QtQt",
".e.f.d#4.x##.9.9.x.n.o#5#T.8#R#R.x#1#3.y.y.I#j.y.y#3.y.y.I.y.I.9#.#R#R#R#T#T#T#T#T#T#T#..9#3#1.x.x.o#6#X#P.a.a.T#7.I.U#Q#Q#Q#Q#Q#Q#Q#Q#Q#Q#Q#Q#Q#Q#Q#Q#Q#Q#Q#Q#Q#Q#Q#Q#Q#Q#Q#Q#Q#Q#Q#Q.y.I.y.I.9#.#R#R#R#T#T#T#T#T#T#T#..9#3#1.x.x.o#6#X#P.a.a.T#7.I.U.x#8.6QtQt",
".t.a.a.t#9.H.H.Ta.a##4aa#P#9#9.w#Y.k.j#Y.T.H.H.T#Y.k.k.j.T#V.q.T#V#V#V#V#V#V#V#V#V#V#V.w#Y.k.k.j.j#4#4.i.i.d.d.#.w.H.q.w.f#Q#Q#Q#Q#Q#Q#Q#Q#Q#Q#Q#Q#Q#Q#Q#Q#Q#Q#Q#Q#Q#Q#Q#Q#Q#Q#Q#Q.k.k.j.T#V.q.T#V#V#V#V#V#V#V#V#V#V#V.w#Y.k.k.j.j#4#4.i.i.d.d.#.w.H.q.w.fQtQtQt",
".b.c.c.c.b.b.b#W.e.e.e.e.a.b.c.a.dQt#O#0.a.b.b.a.d#O.g.d.a.b.b.b.c.c.t.b.c.b.b.c.b.b.c.a.d.g.g.g.gQtQtQt.h.h.h.d.a.b.b.a.dQtQtQt.b#Q#Q#Q#Q#Q#Q#Q#Q#Q#Q#Q#Q#Q#Q#Q#Q#Q#Q#Q#Q.b.b.a.d#O.g.d.a.b.b.b.c.c.t.b.c.b.b.c.b.b.c.a.d.g.g.g.gQtQtQt.h.h.h.d.a.b.b.a.dQtQtQt",
".c.c.c.c.b.c.b.t.#.e.e.f.a.c.c.a.dQtQt.d.a#D.b.a.d.hQt.d.a.c.b.b.b.c.b.b.b.b.c.b.b.b.b.a.d.g.gQtQtQtQtQtQt.h.h.d.a.c.b.a.d.h.hQt.c.c.c.c.b.c.b.t.#.e.e.f.a.c.c.a.dQtQt.d.a#D.b.a.d.hQt.d.a.c.b.b.b.c.b.b.b.b.c.b.b.b.b.a.d.g.gQtQtQtQtQtQt.h.h.d.a.c.b.a.d.h.hQt",
".b.b.c.b.b.c.b.t.e.e.g.e.t.c.c.a.dQtQt.d.a.c.b.a.d.hQt.d.a.c.c.c.c.b.c.b.c.c.b.c.c.b.b.t.dQtQtQtQtQtQtQtQtQt.h.d.a.c.c.a.dQtQtQt.b.b.c.b.b.c.b.t.e.e.g.e.t.c.c.a.dQtQt.d.a.c.b.a.d.hQt.d.a.c.c.c.c.b.c.b.c.c.b.c.c.b.b.t.dQtQtQtQtQtQtQtQtQt.h.d.a.c.c.a.dQtQtQt"};
