/* XPM */
static char *dummy[]={
"128 64 131 2",
"#T c #000000",
"#j c #000003",
"#L c #00070c",
"#t c #00ff00",
"#o c #07050d",
"#q c #141d32",
"#h c #1baba8",
"#d c #1c0000",
"#w c #1e232c",
"#f c #25424b",
"#r c #2b2c38",
"#A c #303a55",
".7 c #383f4a",
".g c #383f4b",
"#P c #383f4c",
".6 c #38404c",
".e c #393f4b",
"Qt c #3a404b",
".h c #3a404c",
"#0 c #3d4046",
".d c #3d4047",
".f c #3f4148",
"#N c #3f4449",
".k c #404248",
"#8 c #424349",
".# c #434245",
"a# c #43434a",
"#4 c #44434a",
".l c #44444b",
"#W c #46413d",
".a c #46413e",
".u c #474242",
"a. c #474548",
".m c #47464d",
"#Y c #494649",
"#F c #4a4138",
".b c #4a423a",
".v c #4a433e",
"aa c #4b4440",
".n c #4b4951",
"#D c #4b5e7f",
".c c #4c423a",
".o c #4d484c",
".x c #4e4541",
"#l c #4f211e",
"#Q c #4f443c",
"#s c #4f5463",
"#Z c #50443c",
"#V c #50453d",
"#9 c #51453d",
".U c #514743",
".w c #52300c",
"#2 c #53463f",
".H c #54473f",
"#X c #544845",
".p c #544946",
".s c #554840",
".t c #554a47",
".r c #584a43",
".q c #584a44",
"#6 c #584a47",
".G c #584d4d",
".y c #5a4d4b",
"#u c #5b0a00",
"#R c #5b4b44",
"#5 c #5b4c48",
"#S c #5c4b43",
"#U c #5d4b43",
"#. c #5e4d45",
"#7 c #5e4d48",
"#3 c #5f4f4d",
".8 c #614d45",
".z c #61514f",
"#m c #635049",
".9 c #644f48",
"#1 c #645352",
".A c #655451",
".I c #66514a",
"## c #67524b",
".V c #67544f",
"#E c #684700",
"#H c #68524b",
".2 c #68534c",
"#G c #69534d",
".1 c #69544d",
".R c #6c564f",
".4 c #6c5650",
".B c #6c5959",
"#M c #6c7273",
"#n c #6d5650",
"#c c #6e5651",
".3 c #6e5751",
".J c #6f5750",
".5 c #6f5a56",
".S c #705853",
".D c #705c5c",
".C c #705c5d",
"#K c #708ea7",
".E c #715c5b",
".K c #725a55",
"#J c #735a54",
".Q c #745b56",
".F c #745d59",
"#I c #755c57",
"#x c #757c87",
".W c #785e5a",
".Z c #7a5f5b",
".X c #7a605b",
".Y c #7a605c",
"#a c #7c615d",
"#v c #7d625e",
".L c #7e625e",
".P c #826663",
".N c #836663",
".O c #836764",
".M c #846763",
"#k c #8b4435",
".i c #946230",
"#O c #99a09e",
"#B c #9e7b10",
"#y c #b1b5be",
"#e c #b5bfce",
"#p c #c26552",
".j c #d1a049",
"#C c #dfba18",
".T c #f0e883",
"#g c #f2ffff",
"#z c #f4fffe",
"#b c #fd9370",
"#i c #ffe5ba",
".0 c #fffffa",
"QtQtQtQtQtQtQtQtQtQtQtQtQtQtQtQtQtQtQt.#.a.b.b.b.b.b.b.c.b.b.b.b.b.b.b.a.d.e.f.g.f.e.h.hQtQt.f.gQt.f.e.h.f.gQtQtQtQt.f.d.a.c.c.bQtQtQtQtQtQtQtQtQtQtQtQtQtQtQtQtQtQtQt.#.a.b.b.b.b.b.b.c.b.b.b.b.b.b.b.a.d.e.f.g.f.e.h.hQtQt.f.gQt.f.e.h.f.gQtQtQtQt.f.d.a.c.c.b",
"QtQtQtQtQtQtQt.gQt.gQt.g.gQt.g.g.g.g.g.d.a.b.b.b.b.b.b.b.b.b.b.b.b.b.b.a.e.e.g.g.g.g.e.gQt.g.g.g.g.g.e.e.g.g.g.g.gQt.g.d.a.c.c.cQtQtQtQtQtQtQt.gQt.gQt.g.gQt.g.g.g.g.g.d.a.b.b.b.b.b.b.b.b.b.b.b.b.b.b.a.e.e.g.g.g.g.e.gQt.g.g.g.g.g.e.e.g.g.g.g.gQt.g.d.a.c.c.c",
".h.hQtQtQt.g.gQt.gQtQt.g.g.g.g.g.g.g.g.d.a.b.b.b.b.b.b.b.b.b.b.b.b.b.b.a.e.g.g.g.g.g.g.g.g.g.g.g.g.g.e.e.g.g.g.g.g.g.g.d.a.c.c.c.h.h.i.jQt.g.gQt.gQtQt.g.g.g.g.g.g.g.g.d.a.b.b.b.b.b.b.b.b.b.b.b.b.b.b.a.e.g.g.g.g.g.g.g.g.g.g.g.g.g.e.e.g.g.g.g.g.g.g.d.a.c.c.c",
".d.d.d.k.l.l.m.m.m.n.n.n.o.n.n.o.n.n.n.o.p.q.r.q.q.q.s.r.q.q.q.q.q.q.r.p.t.n.n.n.n.n.n.n.n.n.n.n.n.n.n.n.n.n.n.n.m.m.m.l.u.a.v.i.i.i.i.j.w.l.m.m.m.n.n.n.o.n.n.o.n.n.n.o.p.q.r.q.q.q.s.r.q.q.q.q.q.q.r.p.t.n.n.n.n.n.n.n.n.n.n.n.n.n.n.n.n.n.n.n.m.m.m.l.u.a.v.a",
".v.a.a.x.y.z.z.A.B.C.C.C.B.C.C.C.C.D.D.E.E.F.F.F.F.F.F.F.F.F.F.F.F.F.F.F.C.D.D.D.B.C.C.C.C.C.C.B.D.D.C.C.C.C.C.B.A.z.z.G.l.i.j.i.i.i.j.w.w.i.w.A.B.C.C.C.B.C.C.C.C.D.D.E.E.F.F.F.F.F.F.F.F.F.F.F.F.F.F.F.C.D.D.D.B.C.C.C.C.C.C.B.D.D.C.C.C.C.C.B.A.z.z.G.l.d.d.d",
".c.b.b.H.I.J.J.K.L.M.M.N.O.O.O.O.N.M.N.N.M.P.P.P.P.P.O.P.P.P.P.P.P.P.P.O.M.M.N.M.N.N.O.P.M.O.O.N.N.N.N.M.N.M.O.L.Q.J.J.z.i.i.j.j.j.i.i.j.i.i.w.w.L.M.M.N.O.O.O.O.N.M.N.N.M.P.P.P.P.P.O.P.P.P.P.P.P.P.P.O.M.M.N.M.N.N.O.P.M.O.O.N.N.N.N.M.N.M.O.L.Q.J.J.z.m.gQtQt",
".c.c.b.H.I.J.R.K.L.M.N.N.N.N.M.M.O.N.N.N.N.N.P.P.P.P.P.P.P.P.P.P.P.P.P.P.N.N.N.N.N.N.N.N.N.N.N.N.N.P.P.N.N.N.N.L.S.R.R.i.i.j.T.j.T.j.j.j.T.j.i.w.L.M.N.N.N.N.M.M.O.N.N.N.N.N.P.P.P.P.P.P.P.P.P.P.P.P.P.P.N.N.N.N.N.N.N.N.N.N.N.N.N.P.P.N.N.N.N.L.S.R.R.z.mQtQt.h",
".a.a.a.U.V.K.K.Q.W.X.X.X.X.X.X.X.Y.Z.W.Z.Y.L.Y.L.Z.Z.Z.Z.Z.Z.Z.Z.Z.Z.Z.Z.Z.L.Z.L.L.Y.L.Y.L.L.L.Y.Z.Z.Z.Y.L.L.Y.W.Q.Q.K.i.T.T.j.T.T.j.T.j.T.T.0.j.i.X.X.X.X.X.X.X.Y.Z.W.Z.Y.L.Y.L.Z.Z.Z.Z.Z.Z.Z.Z.Z.Z.Z.Z.Z.L.Z.L.L.Y.L.Y.L.L.L.Y.Z.Z.Z.Y.L.L.Y.W.Q.Q.K.A.m.g.gQt",
".d.d.d.o.B.L.L.W.J.1.1.1.1.1.1.1.2.2.1.J.3.K.K.S.4.2.2.2.2.2.2.2.2.2.1.J.K.K.K.K.K.K.K.K.K.K.K.5.4.2.2.4.J.K.K.K.Z.P.w.j.T.j.j.T.j.T.T.j.T.j.T.0.i.1.1.1.1.1.1.1.2.2.1.J.3.K.K.S.4.2.2.2.2.2.2.2.2.2.1.J.K.K.K.K.K.K.K.K.K.K.K.5.4.2.2.4.J.K.K.K.Z.P.L.B.m.g.g.f",
"Qt.6.7.n.C.M.N.X.2.8.8.8.8.8.8.8.8.8.8.9.2.J.J.A.9.8.9.8.9.8.9.8.8.8.8.9.A.4.J.1.J.4.4.4.4.4.4.2.9.8.8.9.2.4.J.K.Z.P.w.j.i.i.j.i.T.0.j.i.T.0.j.j.T.j.8.8.8.8.8.8.8.8.8.9.2.J.J.A.9.8.9.8.9.8.9.8.8.8.8.9.A.4.J.1.J.4.4.4.4.4.4.2.9.8.8.9.2.4.J.K.Z.P.N.E.n.g.e.e",
"QtQt.7.n.C.M.N.X.1.8.8.8.8.8.8.8.8.8#..9.4.J.4.2.9.8#..8.8.8.8.8.8.8.8.9##.J.4.4.4.4.4.4.4.4.J.A.9.8#..9.4.4.1.K#a.i.j.i.w.j.j.i.0.T.i.w.i.T.0.i.j.j.8.8.8.8.8.8.8.8#..9.4.J.4.2.9.8#..8.8.8.8.8.8.8.8.9##.J.4.4.4.4.4.4.4.4.J.A.9.8#..9.4.4.1.K#a.N.M.E.n.e.e.e",
"Qt.7Qt.n.E.M.N.X.1.8.8.8.9.8.8.9.9.I.9.I##.4.4##.9.8.9.8.8.9.8.9.9.9.9.I.4.4.J.4.4.4.J.4.4.4.J.4.I.9.9.I.4.4.J.5.L.i.w.w.i.j.i.j.T.j.i#b.w.j.0.w.w.8.8.8.9.8.8.9.9.I.9.I##.4.4##.9.8.9.8.8.9.8.9.9.9.9.I.4.4.J.4.4.4.J.4.4.4.J.4.I.9.9.I.4.4.J.5.L.M.N.E.n.e.e.h",
"Qt.7.7.n.C.N.N.X.1.8.8.9.8.8.8.I##.2.4##.I.I.9.9.9.9.8.8.8.9.8.9.2.4.A.1.J.J.J.4.4.J.4.4#c.4.4.4.1.2.4.4.4.4.4.K.L.i.i.i.w.i.w.j.j.w#d#d#b.i.T.w.1.8.8.9.8.8.8.I##.2.4##.I.I.9.9.9.9.8.8.8.9.8.9.2.4.A.1.J.J.J.4.4.J.4.4#c.4.4.4.1.2.4.4.4.4.4.K.L.N.O.C.n.g.gQt",
"QtQt.7.n.C.M.N.X.1.8.8.8.8.9.8.I.4.J.J.4.9.8.8.9.8.8.8.9.8.8.8.9.2.J.J.4.4.J.4.4.4.4.J.4.4#c#c.4.J.J.4.4.J.4.4.K.Y.i.w.w.w.i#b.i.j.w#e#f#d.w.j.w.1.8.8.8.8.9.8.I.4.J.J.4.9.8.8.9.8.8.8.9.8.8.8.9.2.J.J.4.4.J.4.4.4.4.J.4.4#c#c.4.J.J.4.4.J.4.4.K.Y.N.O.C.n.g.gQt",
"Qt.7.7.n.C.N.N.Y.1.8.8.8.8.8.8.I.4.J.J.1.I.8.8.8.8.8.8.8.8.9.8.9.4.J.J.4.J.4.4.4.4.4.4.4.4#c.4#c.4.4.J.4.4.4.J.K.L.N.O.w.w.i#b.w.i#b#g#h#i#b.w.Y.1.8.8.8.8.8.8.I.4.J.J.1.I.8.8.8.8.8.8.8.8.9.8.9.4.J.J.4.J.4.4.4.4.4.4.4.4#c.4#c.4.4.J.4.4.4.J.K.L.N.O.C.n.e.g.f",
"QtQt.7.n.C.N.N.Y.1.8.8.8.9.I.9.I.2.2.4.2.9.8.8.9.8.9.8.9.9.I.9##.2.2.4.4.4.4.4.J.J.4.J.4#c.4#c.4.4.J.4.4.4.J.4.K.Y.N#j#j.w.w#k#k.w#i#i#i#i#i#l.Y.1.8.8.8.9.I.9.I.2.2.4.2.9.8.8.9.8.9.8.9.9.I.9##.2.2.4.4.4.4.4.J.J.4.J.4#c.4#c.4.4.J.4.4.4.J.4.K.Y.N.O.B.n.e.e.e",
"Qt.gQt.o.B.O.O.Y.1.8.8.9##.1.4##.I#m.9.9.9.8.9.8#..8.9.9##.4.4##.I.I.I.I.A#n.4#c.4#c.4#c#c.4.4#c.J.4.3.4.4.4.4.K.Y.P#j#o#j.w.w#k#p#i#i#i#i#p#l.Y.1.8.8.9##.1.4##.I#m.9.9.9.8.9.8#..8.9.9##.4.4##.I.I.I.I.A#n.4#c.4#c.4#c#c.4.4#c.J.4.3.4.4.4.4.K.Y.P.O.C.n.g.gQt",
"QtQtQt.n.C.O.N.Y.1.8.8.I.1.J.J.1.I.8.9.8.8.8.9.8.9.8.8.9.2.J.J.2.9.8#..I.4#n#n.4#c.4#c.4.4.4#c.4.4.4.4#c.4.4.4.K.L.P#j#q#j#j#j.w#k#p#b#b#p#l#r.Y.1.8.8.I.1.J.J.1.I.8.9.8.8.8.9.8.9.8.8.9.2.J.J.2.9.8#..I.4#n#n.4#c.4#c.4.4.4#c.4.4.4.4#c.4.4.4.K.L.P.P.C.n.gQtQt",
"Qt.g.g.n.C.N.N.Y.1.8.8.I.4.J.J.4.9.8.8.8.8.9.8.8.9.8.8.9.4.3.3.4.9.8.8#m.1.3.4#c.4#c#c.4#c.4.4#c.4#c.4.3.J.4.4.K.Y.P#j#q#s#q#j#j#t#l#k#k#l#u#s.Y.1.8.8.I.4.J.J.4.9.8.8.8.8.9.8.8.9.8.8.9.4.3.3.4.9.8.8#m.1.3.4#c.4#c#c.4#c.4.4#c.4#c.4.3.J.4.4.K.Y.P.P.C.o.g.gQt",
"Qt.g.g.m.C.N.N.Y.1.9.9.I.2.1.4##.9.8.9.8.8.8.8.9.9.9.9##.2.2.4.2.I.9#m.I.4.4#c.4.4.4.4#c.4#c#c.4.4.4#c.4.4.4.4.K#v.P.P#q#w#s#x#y#z#x#r#j#x#u#o.Y.1.9.9.I.2.1.4##.9.8.9.8.8.8.8.9.9.9.9##.2.2.4.2.I.9#m.I.4.4#c.4.4.4.4#c.4#c#c.4.4.4#c.4.4.4.4.K#v.P.P.C.n.gQtQt",
"QtQtQt.n.C.N.N.L.3.1.1.1.I.I.9.I.8.9.8.9.9.8.8.I##.4.2##.I.9.9.I.1.1.1.1.4#c.4#c#c.4#c.4#c.4#c#c.3.4#c.4#c.4.J.K.L.N.M#j#q#q#q#q#q#z#x#j#y#s#o.L.3.1.1.1.I.I.9.I.8.9.8.9.9.8.8.I##.4.2##.I.9.9.I.1.1.1.1.4#c.4#c#c.4#c.4#c.4#c#c.3.4#c.4#c.4.J.K.L.N.M.C.n.g.gQt",
"QtQtQt.n.C.N.N.Y.K.J.3.4.9.8.8.8.8.8.8.8.8.8.8#m.4.J.J.4.9.8.8.I.1.J.3.3.4#c#c.4.4#c.4#c.4#c.4.4.4#c.4#c#c.4.1.K.L.N.M#j#q#A#A#A#q#q#z#r#y#o#r.Y.K.J.3.4.9.8.8.8.8.8.8.8.8.8.8#m.4.J.J.4.9.8.8.I.1.J.3.3.4#c#c.4.4#c.4#c.4#c.4.4.4#c.4#c#c.4.1.K.L.N.M.C.n.e.g.h",
"QtQt.7.m.C.N.N.L.K.J.J.1.9.8.8.8.9.8.9.8.8.8.8.I.1.J.J.4.I#..8.9.1.4.J.J.4.4.4#c.4#c#c.4#c.4.4#c.4#c.4.4.4#c.4.K.X.N.M#j#q#B#C#A#A#j#z#r#r#o#s.L.K.J.J.1.9.8.8.8.9.8.9.8.8.8.8.I.1.J.J.4.I#..8.9.1.4.J.J.4.4.4#c.4#c#c.4#c.4.4#c.4#c.4.4.4#c.4.K.X.N.M.C.n.g.g.h",
"Qt.7Qt.n.C.N.N.Y.S.1.1.2.I.9#m.I.9.8.8.8.9.I.9.I.2.4.2.2.I.9.9#m.4.J.4.J#c.4#c.4#c.4#c.4.4#c.4.4.3.4#c.4.4.4.4.E.L.N.M#j#A#C#C#B#D#q#z#r#r#r#x.Y.S.1.1.2.I.9#m.I.9.8.8.8.9.I.9.I.2.4.2.2.I.9.9#m.4.J.4.J#c.4#c.4#c.4#c.4.4#c.4.4.3.4#c.4.4.4.4.E.L.N.M.C.o.d.d.d",
"QtQt.7.m.C.M.M.Y.R.9.9.I.1.1.R.1.I.8.8.I##.1.4.2##.I.9.I.2.4.1.4.4.4.4.4.4.4.4.4.4#c.4.4#c.4.4#c#c.4.4.4.4.4.4.K.Y.N.N#j#q#B#C#C#D#A#y#s#s#E#s.Y.R.9.9.I.1.1.R.1.I.8.8.I##.1.4.2##.I.9.I.2.4.1.4.4.4.4.4.4.4.4.4.4#c.4.4#c.4.4#c#c.4.4.4.4.4.4.K.Y.N.N.E.p.a.a.v",
"Qt.6Qt.n.C.O.N.X.1.8.8.9.1.3.J.1.9.8.8.I.4.J.J.2.9.8.8.9.2.J.J.J.4.4.J.4.5.4.J.4#c.4.4#c.4#c#c.4.4.4#c.J.J.4.4.K.Y.N.N.F#q#A#D#D#D#A#y#r#E#r#s.X.1.8.8.9.1.3.J.1.9.8.8.I.4.J.J.2.9.8.8.9.2.J.J.J.4.4.J.4.5.4.J.4#c.4.4#c.4#c#c.4.4.4#c.J.J.4.4.K.Y.N.N.F.r.c#F.b",
"Qt.6.6.n.B.O.O.Y#G.8.8.9.R.3.3.1.I.8.8.9.4.J.J.1.I.8.8.9.A.J#c#c.J.4.4.4.4.4.4.4.4#c.4.4#c.4.4#c#c.4.4.4.4.4.4.K.L.N.N#j#j#A#A#D#A#q#x#s#s#E#r.Y#G.8.8.9.R.3.3.1.I.8.8.9.4.J.J.1.I.8.8.9.A.J#c#c.J.4.4.4.4.4.4.4.4#c.4.4#c.4.4#c#c.4.4.4.4.4.4.K.L.N.N.K.r#F.b.b",
".d.d.d.o.C.N.O.Y.1.9.9.I.1.1.1#H.9.8.8.9.2.1.1.2.I.9.9##.4#c.4.4.4.4.J.4.J.4.J.4#c.4#c#c.4#c#c.4.4#c.4.J.4.4.4.K.L.N.N#j#o#q#A#A#A#q#x#r#E#o.O.Y.1.9.9.I.1.1.1#H.9.8.8.9.2.1.1.2.I.9.9##.4#c.4.4.4.4.J.4.J.4.J.4#c.4#c#c.4#c#c.4.4#c.4.J.4.4.4.K.L.N.N.E.r.b.b.b",
".a.a.a.p.E.M.O.Y.S.1.1.1.I.I.I.9.8.8.8.9.I.9.I.I##.1.4.4.4.4.4#c#n.4.4#c.4.J.4.4#c.4#c.4#c.4#c.4#c.4.4#c.4.4.4.K.L.P.P#j#o#q#A#A#D#A#q#r#o#o.O.Y.S.1.1.1.I.I.I.9.8.8.8.9.I.9.I.I##.1.4.4.4.4.4#c#n.4.4#c.4.J.4.4#c.4#c.4#c.4#c.4#c.4.4#c.4.4.4.K.L.P.P.F.r.b.b.b",
".b.b#F.r#I.N.O.Y#J.3.3.1.I.8.8.9.8.9.8.9.8.8.8.9.4.J.J.4.4.4.J.4#n.4#c.4.4.4.4#c.4#c.4#c.4#c.4#c.4#c#c.4.4.4.4.K.Y.P.P#j#j#j#A#A#K#D#q#o#E#B.O.Y#J.3.3.1.I.8.8.9.8.9.8.9.8.8.8.9.4.J.J.4.4.4.J.4#n.4#c.4.4.4.4#c.4#c.4#c.4#c.4#c.4#c#c.4.4.4.4.K.Y.P.P.F.r.b.b.b",
".b.b.b.r#I.N.N.L.K.3.R.1#m.8.8.8.8.8.9.8.8.8.8.I.2.4.4.4.4.4.4.3#n#c.4#c.4.4#c.4.4.4.4#c.4#c#c.4.4#c.4#c.4.4.J.K.L.P.P#j#s#j#q#D#K#K#A#x#E#B#E.L.K.3.R.1#m.8.8.8.8.8.9.8.8.8.8.I.2.4.4.4.4.4.4.3#n#c.4#c.4.4#c.4.4.4.4#c.4#c#c.4.4#c.4#c.4.4.J.K.L.P.P.F.s.b.b.b",
".c.b.b.r#I.N.N.Y.K.R.J.1.I.8.8.8.9.8.8.8.8.9.8.I.4.J.J.4.4.4.4.4#c.4#c.4#c#c.4#c#c.4#c.4#c.4.4.4#c.4#c.4.J.4.4.K.Y.P.P#j#j#s#q#D#D#D#z#y#r#E#E.Y.K.R.J.1.I.8.8.8.9.8.8.8.8.9.8.I.4.J.J.4.4.4.4.4#c.4#c.4#c#c.4#c#c.4#c.4#c.4.4.4#c.4#c.4.J.4.4.K.Y.P.P.F.q#F.b.b",
".b.b.b.r.E.N.N.L.K.4.J.1.9.9.8.9.8.9.9.8.8.8.8.9.4#c#c#c.J.4.4.3.4#c.4#c.4.4#n#n.4#c.4#c.4.4.4#c.4#c.4#c.4.4.4.K.Y.P#j#j#o#q#s#x#y#z#A#q#E#B#o.L.K.4.J.1.9.9.8.9.8.9.9.8.8.8.8.9.4#c#c#c.J.4.4.3.4#c.4#c.4.4#n#n.4#c.4#c.4.4.4#c.4#c.4#c.4.4.4.K.Y.P.P.F.q.b.b.b",
".c.b#F.r.Q.N.N.Y.K.4.J.2.9.8.8.8.8.8.8.8.9.8.9.9.A#c.4.4.4.3.4.4#c.4#c#n#c.4#n#n#c.4#c.4.4#c#c.4#c.4.4.4.J.4.4.K.Y#j#o#L#o#o#j#q#A#A#y#x#r#s#E.Y.K.4.J.2.9.8.8.8.8.8.8.8.9.8.9.9.A#c.4.4.4.3.4.4#c.4#c#n#c.4#n#n#c.4#c.4.4#c#c.4#c.4.4.4.J.4.4.K.Y.P.N.F.q.b.b.b",
".c#F.b.r.F.N.N.L.K.J.J.4.I.8.8.8.9.8.8.9.8.8.8.I.2.J#c.4#c.4.4.4.4.4#n#n#n#n#n#n.4#c#c.4#c.4#c.4#c.4#c.4.4.4.4.K#v#j#q#q#j#q#r#s#x#y#r#L#L#E#o.L.K.J.J.4.I.8.8.8.9.8.8.9.8.8.8.I.2.J#c.4#c.4.4.4.4.4#n#n#n#n#n#n.4#c#c.4#c.4#c.4#c.4#c.4.4.4.4.K#v.P.P.F.r.b.b.c",
".a.a.a.p.E.N.N.Z.5.2.1.2.9.8.9.8.8.8.8.9.9.9.9##.1.J#c.4#c.4.J.4#c.4#n#n#n#n#n#n.4#c.4#c.4#c.4#c.4#c.4#c.4.J.4.K#j#j#q#q#j#q#A#L#L#L#w#L#M#L#r.Z.5.2.1.2.9.8.9.8.8.8.8.9.9.9.9##.1.J#c.4#c.4.J.4#c.4#n#n#n#n#n#n.4#c.4#c.4#c.4#c.4#c.4#c.4.J.4.K#v.P.P.C.p.a.a.a",
".d.d.e.t.C.M.M.L.1.9.I.9.9.8.8.8.9.8.9.9##.A.1.1.J.J.4.4.4.4.J.4.J.4.4.4#n.4#c.4.4.4#c.4.4.4.4.4#c.4#c.4.4.4.J.K#j#q#A#q#q#A#A#L#w#N#N#w#O#L.M.L.1.9.I.9.9.8.8.8.9.8.9.9##.A.1.1.J.J.4.4.4.4.J.4.J.4.4.4#n.4#c.4.4.4#c.4.4.4.4.4#c.4#c.4.4.4.J.K.L.N.M.C.o.d.d.d",
"Qt.g#P.n.C.O.N.W.2.8.8.8.8.9.8.9.8.8.8.9.4.J.J.J.4.4.4.J.4.J.4.4.4.4.J.4#n#c#n.4#c.4.4#c.4.J.4.4#c.4.4#c#n#n.1#j#q#A#A#q#A#A#A#q#L#M#M#N#o#j#j.W.2.8.8.8.8.9.8.9.8.8.8.9.4.J.J.J.4.4.4.J.4.J.4.4.4.4.J.4#n#c#n.4#c.4.4#c.4.J.4.4#c.4.4#c#n#n.1.K.Y.N.N.C.nQtQtQt",
"Qt.g#P.n.C.O.P.Y.2.8.8.9.8.8.8.9.8.8.8.9##.J.4.J.J.J.4.J.4.4.4.4.4.3.J.J#n#n#n#n.4#c.4.J.4.J.4.5.4#c.4.4#n.J.4#j#q#A#q#q#A#A#A#q#x#L#L#L#j#o#j.Y.2.8.8.9.8.8.8.9.8.8.8.9##.J.4.J.J.J.4.J.4.4.4.4.4.3.J.J#n#n#n#n.4#c.4.J.4.J.4.5.4#c.4.4#n.J.4.K.L.N.O.C.n.7QtQt",
".d.d.e.o.C.O.P.Y.2.8.8.8.9.8.8.8.9.I.9##.4.J.4.J.1.2.A.4.4.4.J.J.4.4.A.4.4#n#n#n.J.4.4.4.4.4.4#c#c.4#c.4.4.A#j#q#A#A#q#A#A#D#A#q#x#j#q#q#q#q#j.Y.2.8.8.8.9.8.8.8.9.I.9##.4.J.4.J.1.2.A.4.4.4.J.J.4.4.A.4.4#n#n#n.J.4.4.4.4.4.4#c#c.4#c.4.4.A.1.5.Y.N.P.B.n.7QtQt",
".v.a.a.p.E.N.N.W.2.9.8.8.8.9.9.9.2.1.4.A.J.4.4.2##.9.9##.4.J.J.4#m#m.I.I.1.J.4.4.4.4.4.4.4.4.J.4.J.4.J.R.I.I#j#A#D#q#A#A#D#D#A#q#y#q#q#A#j#q#j#j.2.9.8.8.8.9.9.9.2.1.4.A.J.4.4.2##.9.9##.4.J.J.4#m#m.I.I.1.J.4.4.4.4.4.4.4.4.J.4.J.4.J.R.I.I.I.1.Y.N.M.C.nQtQtQt",
".b.b#F.r#I.M.M.W.2.8.8.9.8.8.8.9.4.J.4.4.J.J.J.1.9.8.8.9.2.J.J.2#m.8.8.I.1.J.J.4.4.J.4.J.4.J.4.4.4.J.J.1.I#j#q#D#A#A#A#D#D#D#A#q#y#q#A#D#j#q#q#j.2.8.8.9.8.8.8.9.4.J.4.4.J.J.J.1.9.8.8.9.2.J.J.2#m.8.8.I.1.J.J.4.4.J.4.J.4.J.4.4.4.J.J.1.I.8.8.1.X.N.O.C.nQtQtQt",
".c.b#F.r.F.P.M.X.2.9.8.8.8.9#..9.2.J.4.J.J.J.J.4.9#..9.9.A.J.J.R.8.8.8.9.A.J.4#c.4#c.4#c.4.4.4.4.4.J.J.1#j#j#A#A#q#A#A#D#D#D#A#x#x#A#A#A#j#q#q#j.2.9.8.8.8.9#..9.2.J.4.J.J.J.J.4.9#..9.9.A.J.J.R.8.8.8.9.A.J.4#c.4#c.4#c.4.4.4.4.4.J.J.1.I.8.8.1.X.N.N.C.m.g.6Qt",
".b.b.b.r.F.N.N.X.2.8.8.9.9.9.9##.4.J.4.4.4.2.4##.I.9.9##.2.R.2.2.I.I#m.I.4#c#c.4.4.4#c.4.4.4.4.4.1.1.1#o#j#q#A#q#A#A#D#D#K#D#A#y#r#q#A#q#L#q#q#j.2.8.8.9.9.9.9##.4.J.4.4.4.2.4##.I.9.9##.2.R.2.2.I.I#m.I.4#c#c.4.4.4#c.4.4.4.4.4.1.1.1.I.8.r.q##.X.N.N.B.n.g.gQt",
".b.b.b.q.F.P.P.Z.2.9.8.9.2.2.4.2.4.4.J.4##.9.9.I##.1.4.2.I.9.9##.1.1.1.4.4.4.4#c#c.4#c.4#c.4.J.4##.I.I#o#q#w#q#A#A#D#D#K#K#D#D#y#j#M#j#j#o#j#q#M#M.9.8.9.2.2.4.2.4.4.J.4##.9.9.I##.1.4.2.I.9.9##.1.1.1.4.4.4.4#c#c.4#c.4#c.4.J.4##.I.I#..H#Q#Q#..F.M.M.C.oQtQtQt",
".b.b.b.q.F.N.P.Z.2.8.8.9.4.4.J.4.4.4.J.2.9#..8.9.4.4.J.2.I.8.8.9.1.J.J.4.4.4.J.4.4#c.4.4#c#n.J.1#m.8.8#o#r#q#A#A#A#D#D#K#K#K#D#z#N#w#M#j#j#w#M#N#M.8.8.9.4.4.J.4.4.4.J.2.9#..8.9.4.4.J.2.I.8.8.9.1.J.J.4.4.4.J.4.4#c.4.4#c#n.J.1#m.8.8#R#Q.b.b.s.F.N.M.C.n.hQtQt",
".b.b.b.q.F.P.P.Z.2.8#..9.2.J.J.4.J.4.J.4.9.8.8.9.4.J.J.4.9.8#..9.1.J.4.4.4.4.4.4#c.4#c#c#c.J.J.4.I.8.8#o#r#r#q#A#D#D#K#K#K#K#D#z#M#M#w#j#w#N#w#M#M.8#..9.2.J.J.4.J.4.J.4.9.8.8.9.4.J.J.4.9.8#..9.1.J.4.4.4.4.4.4#c.4#c#c#c.J.J.4.I.8.8#.#Q.b.b.q.F.N.N.C.m.7.6Qt",
".a.a.a.t.F.P.P.Y.4.9.9##.4.J.J.J.A.4.2.2##.9.9####.4.2.2.I.9.9.I.J.J.J.4.J.4.J.4.4#c.4.4.4.A.1##.I.8.8#o#r#r#s#q#A#A#D#D#A#A#A#z#N#M#j#L#o#q#N#N#w.9.9##.4.J.J.J.A.4.2.2##.9.9####.4.2.2.I.9.9.I.J.J.J.4.J.4.J.4.4#c.4.4.4.A.1##.I.8.8#S#Q.b.b.q.F.N.M.C.n.7QtQt",
".d.d.e.t.C.M.N.Y.S.2.2.4.4.4.4.4.I.9.9.I##.1.4##.I.I.9.I.2.4.1.4.4.4#c.4.4.4.4.4.J.4.J.J.I.I.I.I.8.9.8#.#o#r#r#x#y#y#x#M#x#y#y#z#j#j#j#L#L#w#L#w#T#T.2.4.4.4.4.4.I.9.9.I##.1.4##.I.I.9.I.2.4.1.4.4.4#c.4.4.4.4.4.J.4.J.J.I.I.I.I.8.9.8#.#Q.b.b.p.F.M.M.E.n.g.gQt",
"Qt.g#P.n.C.M.N.L.K.J.4.J.4.J.J.2.I.8.8.I.1.J.4.4.9#..8.9.2.J.J.J#c#c.4#c#c.J.4.4.4.4.J.1.9.8.8.8.8.8#T#T#o#r#r#r#s#s#s#x#x#x#y#z#j#o#j#L#L#L#L#L#T#T#T#T#T#T.J.2.I.8.8.I.1.J.4.4.9#..8.9.2.J.J.J#c#c.4#c#c.J.4.4.4.4.J.1.9.8.8.8.8.8.8#S#Q.b.b.s.F.M.M.C.n.gQtQt",
"Qt.g#P.n.C.P.P.Y.K.J.J.4.J.J.J.4.9.8.8.9.1.J.J.1.I.8.8.9.A.J#c#c.4.4#c.4.4#c.4.J.4.J.J.1.I.8.8.8#T#T#T#T#T#o#r#r#s#s#s#s#x#x#x#z#w#T#L#L#L#L#w#o#T#T#T#T#T#T#T#T.9.8.8.9.1.J.J.1.I.8.8.9.A.J#c#c.4.4#c.4.4#c.4.J.4.J.J.1.I.8.8.8.8.8.8#U#V.b.b.p.F.M.M.C.n.g.gQt",
".d.d.e.o.C.P.P.L.K.R.1.J.1.1.A##.I.8.8.I.1.J.J.4.I.9.9##.4#c.4.4.4#c.4.4#c.4.4.4.1.A.1.2.9.8.8#T#T#T#T#T#T#T#o#o#r#r#s#s#x#x#x#y#T#T#j#j#L#L#L#L#T#T#T#T#T#T#T#T#T.8.8.I.1.J.J.4.I.9.9##.4#c.4.4.4#c.4.4#c.4.4.4.1.A.1.2.9.8.8.8.I.I.I.8.s#Q#Q#..F.M.N.E.o.d.d.d",
".v.a#W.p.F.N.P.L.K.4.J.1##.I.9.9.9.8.8.I.1.J.J.1.1.1.4.4.4.4.4#c#c.4#c.4.4.J.4.4#H.9.9.9.9.8#T#T#T#T#T#T#T#T#T#T#o#j#o#o#o#o#o#w#T#T#L#L#L#L#w#w#L#T#T#T#T#T#T#T#T#T.8.I.1.J.J.1.1.1.4.4.4.4.4#c#c.4#c.4.4.J.4.4#H.9.9.9.9.8.8.I#H.1.4###..q#S.I.X.N.N.E.p.a.a.a",
".b.b#F.r.F.N.P.L.K.4.J.4.9.8.8.8.8.8.8.I.4.4.J.4.J.J#c.4.4.4.4#c#c.4#c#c.4.J.J.2.I.8.8.8.8#T#T#T#T#T#T#T#T#T#T#T#T#T#o#w#N#N#M#N#r#w#L#L#L#L#L#L#L#N#w#T#T#T#T#T#T#T#T.I.4.4.J.4.J.J#c.4.4.4.4#c#c.4#c#c.4.J.J.2.I.8.8.8.8.8.8.I.1.J.J.1.I.8.8.1.X.N.N.F.r.b.c.c",
".c.c#F.r.F.P.P#v.K.4.J.1.9.8.8.9.8.8.8#m.V.J.4.J.J.4.J.J.4.4.4.4.J.J.4#c.J.J.J.1.I.8.8.8.8#T#T#T#T#T#T#T#T#T#T#T#T#T#j#o#j#j#w#w#w#w#L#L#L#L#w#w#N#N#w#T#T#T#T#T#T#T#T#m.V.J.4.J.J.4.J.J.4.4.4.4.J.J.4#c.J.J.J.1.I.8.8.8.8.8.8.I.1.J.J.4.I.8.8.1.X.N.N.F.r#F#F.c",
".a.a.a.p.K.L.L.F.3.2.1.2.9.9.8.8.9.9.I##.1.4.J.R.4.4.4.4.4.4#c.4.1.1.A.4.R.1.1.2.I.8.8.9.9#T#T#T#T#T#T#T#T#T#T#T#T#T#o#w#w#N#N#N#M#M#N#L#L#L#L#L#w#w#w#T#T#T#T#T#T#T#T##.1.4.J.R.4.4.4.4.4.4#c.4.1.1.A.4.R.1.1.2.I.8.8.9.9.9.I.I.1.R.1##.8#S#S.I#I.L.L.5#X.a.a.v",
".#.d.e#Y.A.K.K.J.2.I.9.9.9.9.8.9.2.1.R.1.J.J.J.J.4.4.4.4.4.J.J.R##.9.I.I.9.I.I.9.8.8.9.9#H#T#T#T#T#T#T#T#T#T#T#T#T#T#j#j#o#w#o#j#N#N#N#T#T#j#j#L#j#j#j#T#T#T#T#T#T#T#T.1.J.J.J.J.4.4.4.4.4.J.J.R##.9.I.I.9.I.I.9.8.8.9.9#H.R.1.2.I.I.I#..H#Q#Z.r.1#I#I.V#Y#0.d.d",
".e.g.g.m#1.J.J.4.9.9.8.9.8.8.9.9.1.J.J.J.J.J.J.R.J.J.J.J.J.J.J.1.I.8.8.8.8.8.8.8.9.8.8.I.R.R#T#T#T#T#T#T#T#T#T#T#T#T#T#T#j#j#j#o#w#w#w#T#T#T#T#T#T#T#T#T#T#T#T#T#T#T.J.J.J.J.J.R.J.J.J.J.J.J.J.1.I.8.8.8.8.8.8.8.9.8.8.I.R.R.J.R.I.8.8#U#Z.b#F#2.I.J.R.z.m.6QtQt",
".e.e.e.m#3.J.J.2.9.9.8.8.8.9.8.9.R.J.J.J.4.J.J.J.J.J.J.J.4.J.J.1.9.8.8.9.8.9.9.8.9.8.8.I.R.J.J#T#T#T#T#T#T#T#T#T#T#T#T#T#T#T#T#T#T#T#T#T#T#T#T#T#T#T#T#T#T#T#T#T#T.J.J.J.4.J.J.J.J.J.J.J.4.J.J.1.9.8.8.9.8.9.9.8.9.8.8.I.R.J.J.1.9.9.8#.#Z.b.b#2.I.3.3.z.m.6QtQt",
".e.f.d#4.y##.9.9.y.p.q#5#S.8#R#R.y#1#3.z.z.I#m.z.z#3.z.z.I.z.I.9#.#R#R#R#S#S#S#S#S#S#S#..9#3#1.y#T#T#T#T#T#T#T#T#T#T#T#T#T#T#T#T#T#T#T#T#T#T#T#T#T#T#T#T#T#T#T#T.y#1#3.z.z.I#m.z.z#3.z.z.I.z.I.9#.#R#R#R#S#S#S#S#S#S#S#..9#3#1.y.y.q#6#X#Q.a.a.U#7.I.V.y#8.6QtQt",
".v.a.a.v#9.H.H.Ua.a##4aa#Q#9#9.x#Y.m.l#Y.U.H.H.U#Y.m.m.l.U#V.s.U#V#V#V#V#V#V#V#V#V#V#V.x#Y.m.m.l.l#4#T#T#T#T#T#T#T#T#T#T#T#T#T#T#T#T#T#T#T#T#T#T#T#T#T#T#T#T#9.x#Y.m.l#Y.U.H.H.U#Y.m.m.l.U#V.s.U#V#V#V#V#V#V#V#V#V#V#V.x#Y.m.m.l.l#4#4.k.k.d.d.#.x.H.s.x.fQtQtQt",
".b.c.c.c.b.b.b#W.e.e.e.e.a.b.c.a.dQt#P#0.a.b.b.a.d#P.g.d.a.b.b.b.c.c.v.b.c.b.b.c.b.b.c.a.d.g.g.g.gQtQtQt.h.h#T#T#T#T#T#T#T#T#T#T#T#T#T#T#T#T#T#T#T#T.e.e.a.b.c.a.dQt#P#0.a.b.b.a.d#P.g.d.a.b.b.b.c.c.v.b.c.b.b.c.b.b.c.a.d.g.g.g.gQtQtQt.h.h.h.d.a.b.b.a.dQtQtQt",
".c.c.c.c.b.c.b.v.#.e.e.f.a.c.c.a.dQtQt.d.a#F.b.a.d.hQt.d.a.c.b.b.b.c.b.b.b.b.c.b.b.b.b.a.d.g.gQtQtQtQtQtQt.h.h.d.a.c.b.a.d.h.hQt.c.c.c.c.b.c.b.v.#.e.e.f.a.c.c.a.dQtQt.d.a#F.b.a.d.hQt.d.a.c.b.b.b.c.b.b.b.b.c.b.b.b.b.a.d.g.gQtQtQtQtQtQt.h.h.d.a.c.b.a.d.h.hQt",
".b.b.c.b.b.c.b.v.e.e.g.e.v.c.c.a.dQtQt.d.a.c.b.a.d.hQt.d.a.c.c.c.c.b.c.b.c.c.b.c.c.b.b.v.dQtQtQtQtQtQtQtQtQt.h.d.a.c.c.a.dQtQtQt.b.b.c.b.b.c.b.v.e.e.g.e.v.c.c.a.dQtQt.d.a.c.b.a.d.hQt.d.a.c.c.c.c.b.c.b.c.c.b.c.c.b.b.v.dQtQtQtQtQtQtQtQtQt.h.d.a.c.c.a.dQtQtQt"};
