/* XPM */
static char *dummy[]={
"128 64 132 2",
"#U c #000000",
"#j c #000003",
"#L c #00070c",
"#o c #07050d",
"#q c #141d32",
"#h c #1baba8",
"#c c #1c0000",
"#D c #1e232c",
"#f c #25424b",
"#v c #2b2c38",
"#z c #303a55",
".7 c #383f4a",
".g c #383f4b",
"#O c #383f4c",
".6 c #38404c",
".e c #393f4b",
"Qt c #3a404b",
".h c #3a404c",
"#1 c #3d4046",
".d c #3d4047",
".f c #3f4148",
"#M c #3f4449",
".k c #404248",
"#9 c #424349",
".# c #434245",
"aa c #43434a",
"#5 c #44434a",
".l c #44444b",
"#X c #46413d",
".a c #46413e",
".v c #474242",
"a# c #474548",
".m c #47464d",
"#Z c #494649",
"#F c #4a4138",
".b c #4a423a",
".w c #4a433e",
"ab c #4b4440",
".n c #4b4951",
"#A c #4b5e7f",
".c c #4c423a",
".o c #4d484c",
".x c #4e4541",
"#l c #4f211e",
"#R c #4f443c",
"#s c #4f5463",
"#0 c #50443c",
"#W c #50453d",
"a. c #51453d",
".U c #514743",
".u c #52300c",
"#3 c #53463f",
".H c #54473f",
"#Y c #544845",
".p c #544946",
".s c #554840",
".t c #554a47",
".r c #584a43",
".q c #584a44",
"#7 c #584a47",
".G c #584d4d",
".y c #5a4d4b",
"#w c #5b0a00",
"#S c #5b4b44",
"#6 c #5b4c48",
"#T c #5c4b43",
"#V c #5d4b43",
"#. c #5e4d45",
"#8 c #5e4d48",
"#4 c #5f4f4d",
".8 c #614d45",
".z c #61514f",
"#m c #635049",
".9 c #644f48",
"#2 c #645352",
".A c #655451",
".I c #66514a",
"## c #67524b",
".V c #67544f",
"#E c #684700",
"#H c #68524b",
".2 c #68534c",
"#G c #69534d",
".1 c #69544d",
".R c #6c564f",
".4 c #6c5650",
".B c #6c5959",
"#N c #6c7273",
"#n c #6d5650",
"#d c #6e5651",
".3 c #6e5751",
".J c #6f5750",
".5 c #6f5a56",
".T c #705853",
".D c #705c5c",
".C c #705c5d",
"#K c #708ea7",
".E c #715c5b",
".K c #725a55",
"#J c #735a54",
".Q c #745b56",
".F c #745d59",
"#I c #755c57",
"#r c #757c87",
".W c #785e5a",
".Z c #7a5f5b",
".X c #7a605b",
".Y c #7a605c",
"#a c #7c615d",
"#x c #7d625e",
".L c #7e625e",
".P c #826663",
".N c #836663",
".O c #836764",
"#t c #841914",
".M c #846763",
"#k c #8b4435",
".i c #946230",
"#P c #99a09e",
"#B c #9e7b10",
"#u c #b1b5be",
"#e c #b5bfce",
"#p c #c26552",
".j c #d1a049",
"#C c #dfba18",
"#Q c #e2e5e5",
".S c #f0e883",
"#g c #f2ffff",
"#y c #f4fffe",
"#b c #fd9370",
"#i c #ffe5ba",
".0 c #fffffa",
"QtQtQtQtQtQtQtQtQtQtQtQtQtQtQtQtQtQtQt.#.a.b.b.b.b.b.b.c.b.b.b.b.b.b.b.a.d.e.f.g.f.e.h.hQtQt.f.gQt.f.e.h.f.gQtQtQtQt.f.d.a.c.c.bQtQtQtQtQtQtQtQtQtQtQtQtQtQtQtQtQtQtQt.#.a.b.b.b.b.b.b.c.b.b.b.b.b.b.b.a.d.e.f.g.f.e.h.hQtQt.f.gQt.f.e.h.f.gQtQtQtQt.f.d.a.c.c.b",
"QtQtQtQtQtQtQt.gQt.gQt.g.gQt.g.g.g.g.g.d.a.b.b.b.b.b.b.b.b.b.b.b.b.b.b.a.e.e.g.g.g.g.e.gQt.g.g.g.g.g.e.e.g.g.g.g.gQt.g.d.a.c.c.cQtQtQtQtQtQtQt.gQt.gQt.g.gQt.g.g.g.g.g.d.a.b.b.b.b.b.b.b.b.b.b.b.b.b.b.a.e.e.g.g.g.g.e.gQt.g.g.g.g.g.e.e.g.g.g.g.gQt.g.d.a.c.c.c",
".h.hQtQtQt.g.gQt.gQtQt.g.g.g.g.g.g.g.g.d.a.b.b.b.b.b.b.b.b.b.b.b.b.b.b.a.e.g.g.g.g.g.g.g.g.g.g.g.g.g.e.e.g.i.j.g.g.g.g.d.a.c.c.c.h.hQtQtQt.g.gQt.gQtQt.g.g.g.g.g.g.g.g.d.a.b.b.b.b.b.b.b.b.b.b.b.b.b.b.a.e.g.g.g.g.g.g.g.g.g.g.g.g.g.e.e.g.g.g.g.g.g.g.d.a.c.c.c",
".d.d.d.k.l.l.m.m.m.n.n.n.o.n.n.o.n.n.n.o.p.q.r.q.q.q.s.r.q.q.q.q.q.q.r.p.t.n.n.n.n.n.n.n.n.n.n.n.n.n.i.i.i.i.j.u.m.m.m.l.v.a.w.a.d.d.d.k.l.l.m.m.m.n.n.n.o.n.n.o.n.n.n.o.p.q.r.q.q.q.s.r.q.q.q.q.q.q.r.p.t.n.n.n.n.n.n.n.n.n.n.n.n.n.n.n.n.n.n.n.m.m.m.l.v.a.w.a",
".w.a.a.x.y.z.z.A.B.C.C.C.B.C.C.C.C.D.D.E.E.F.F.F.F.F.F.F.F.F.F.F.F.F.F.F.C.D.D.D.B.C.C.C.C.C.C.B.i.j.i.i.i.j.u.u.i.u.z.G.l.d.d.d.w.a.a.x.y.z.z.A.B.C.C.C.B.C.C.C.C.D.D.E.E.F.F.F.F.F.F.F.F.F.F.F.F.F.F.F.C.D.D.D.B.C.C.C.C.C.C.B.D.D.C.C.C.C.C.B.A.z.z.G.l.d.d.d",
".c.b.b.H.I.J.J.K.L.M.M.N.O.O.O.O.N.M.N.N.M.P.P.P.P.P.O.P.P.P.P.P.P.P.P.O.M.M.N.M.N.N.O.P.M.O.O.i.i.j.j.j.i.i.j.i.i.u.u.z.m.gQtQt.c.b.b.H.I.J.J.K.L.M.M.N.O.O.O.O.N.M.N.N.M.P.P.P.P.P.O.P.P.P.P.P.P.P.P.O.M.M.N.M.N.N.O.P.M.O.O.N.N.N.N.M.N.M.O.L.Q.J.J.z.m.gQtQt",
".c.c.b.H.I.J.R.K.L.M.N.N.N.N.M.M.O.N.N.N.N.N.P.P.P.P.P.P.P.P.P.P.P.P.P.P.N.N.N.N.N.N.N.N.N.N.i.i.j.S.j.S.j.j.j.S.j.i.u.z.mQtQt.h.c.c.b.H.I.J.R.K.L.M.N.N.N.N.M.M.O.N.N.N.N.N.P.P.P.P.P.P.P.P.P.P.P.P.P.P.N.N.N.N.N.N.N.N.N.N.N.N.N.P.P.N.N.N.N.L.T.R.R.z.mQtQt.h",
".a.a.a.U.V.K.K.Q.W.X.X.X.X.X.X.X.Y.Z.W.Z.Y.L.Y.L.Z.Z.Z.Z.Z.Z.Z.Z.Z.Z.Z.Z.Z.L.Z.L.L.Y.L.Y.L.L.i.S.S.j.S.S.j.S.j.S.S.0.j.i.m.g.gQt.a.a.a.U.V.K.K.Q.W.X.X.X.X.X.X.X.Y.Z.W.Z.Y.L.Y.L.Z.Z.Z.Z.Z.Z.Z.Z.Z.Z.Z.Z.Z.L.Z.L.L.Y.L.Y.L.L.L.Y.Z.Z.Z.Y.L.L.Y.W.Q.Q.K.A.m.g.gQt",
".d.d.d.o.B.L.L.W.J.1.1.1.1.1.1.1.2.2.1.J.3.K.K.T.4.2.2.2.2.2.2.2.2.2.1.J.K.K.K.K.K.K.K.K.K.u.j.S.j.j.S.j.S.S.j.S.j.S.0.i.m.g.g.f.d.d.d.o.B.L.L.W.J.1.1.1.1.1.1.1.2.2.1.J.3.K.K.T.4.2.2.2.2.2.2.2.2.2.1.J.K.K.K.K.K.K.K.K.K.K.K.5.4.2.2.4.J.K.K.K.Z.P.L.B.m.g.g.f",
"Qt.6.7.n.C.M.N.X.2.8.8.8.8.8.8.8.8.8.8.9.2.J.J.A.9.8.9.8.9.8.9.8.8.8.8.9.A.4.J.1.J.4.4.4.4.u.j.i.i.j.i.S.0.j.i.S.0.j.j.S.j.g.e.eQt.6.7.n.C.M.N.X.2.8.8.8.8.8.8.8.8.8.8.9.2.J.J.A.9.8.9.8.9.8.9.8.8.8.8.9.A.4.J.1.J.4.4.4.4.4.4.2.9.8.8.9.2.4.J.K.Z.P.N.E.n.g.e.e",
"QtQt.7.n.C.M.N.X.1.8.8.8.8.8.8.8.8.8#..9.4.J.4.2.9.8#..8.8.8.8.8.8.8.8.9##.J.4.4.4.4.4.4.i.j.i.u.j.j.i.0.S.i.u.i.S.0.i.j.j.e.e.eQtQt.7.n.C.M.N.X.1.8.8.8.8.8.8.8.8.8#..9.4.J.4.2.9.8#..8.8.8.8.8.8.8.8.9##.J.4.4.4.4.4.4.4.4.J.A.9.8#..9.4.4.1.K#a.N.M.E.n.e.e.e",
"Qt.7Qt.n.E.M.N.X.1.8.8.8.9.8.8.9.9.I.9.I##.4.4##.9.8.9.8.8.9.8.9.9.9.9.I.4.4.J.4.4.4.J.4.i.u.u.i.j.i.j.S.j.i#b.u.j.0.u.u.n.e.e.hQt.7Qt.n.E.M.N.X.1.8.8.8.9.8.8.9.9.I.9.I##.4.4##.9.8.9.8.8.9.8.9.9.9.9.I.4.4.J.4.4.4.J.4.4.4.J.4.I.9.9.I.4.4.J.5.L.M.N.E.n.e.e.h",
"Qt.7.7.n.C.N.N.X.1.8.8.9.8.8.8.I##.2.4##.I.I.9.9.9.9.8.8.8.9.8.9.2.4.A.1.J.J.J.4.4.J.4.4.i.i.i.u.i.u.j.j.u#c#c#b.i.S.u.C.n.g.gQtQt.7.7.n.C.N.N.X.1.8.8.9.8.8.8.I##.2.4##.I.I.9.9.9.9.8.8.8.9.8.9.2.4.A.1.J.J.J.4.4.J.4.4#d.4.4.4.1.2.4.4.4.4.4.K.L.N.O.C.n.g.gQt",
"QtQt.7.n.C.M.N.X.1.8.8.8.8.9.8.I.4.J.J.4.9.8.8.9.8.8.8.9.8.8.8.9.2.J.J.4.4.J.4.4.4.4.J.4.i.u.u.u.i#b.i.j.u#e#f#c.u.j.u.C.n.g.gQtQtQt.7.n.C.M.N.X.1.8.8.8.8.9.8.I.4.J.J.4.9.8.8.9.8.8.8.9.8.8.8.9.2.J.J.4.4.J.4.4.4.4.J.4.4#d#d.4.J.J.4.4.J.4.4.K.Y.N.O.C.n.g.gQt",
"Qt.7.7.n.C.N.N.Y.1.8.8.8.8.8.8.I.4.J.J.1.I.8.8.8.8.8.8.8.8.9.8.9.4.J.J.4.J.4.4.4.4.4.4.4.4#d.u.u.i#b.u.i#b#g#h#i#b.u.O.C.n.e.g.fQt.7.7.n.C.N.N.Y.1.8.8.8.8.8.8.I.4.J.J.1.I.8.8.8.8.8.8.8.8.9.8.9.4.J.J.4.J.4.4.4.4.4.4.4.4#d.4#d.4.4.J.4.4.4.J.K.L.N.O.C.n.e.g.f",
"QtQt.7.n.C.N.N.Y.1.8.8.8.9.I.9.I.2.2.4.2.9.8.8.9.8.9.8.9.9.I.9##.2.2.4.4.4.4.4.J.J.4.J.4#d#j#j.u.u#k#k.u#i#i#i#i#i#l.O.B.n.e.e.eQtQt.7.n.C.N.N.Y.1.8.8.8.9.I.9.I.2.2.4.2.9.8.8.9.8.9.8.9.9.I.9##.2.2.4.4.4.4.4.J.J.4.J.4#d.4#d.4.4.J.4.4.4.J.4.K.Y.N.O.B.n.e.e.e",
"Qt.gQt.o.B.O.O.Y.1.8.8.9##.1.4##.I#m.9.9.9.8.9.8#..8.9.9##.4.4##.I.I.I.I.A#n.4#d.4#d.4#d#d#j#o#j.u.u#k#p#i#i#i#i#p#l.O.C.n.g.gQtQt.gQt.o.B.O.O.Y.1.8.8.9##.1.4##.I#m.9.9.9.8.9.8#..8.9.9##.4.4##.I.I.I.I.A#n.4#d.4#d.4#d#d.4.4#d.J.4.3.4.4.4.4.K.Y.P.O.C.n.g.gQt",
"QtQtQt.n.C.O.N.Y.1.8.8.I.1.J.J.1.I.8.9.8.8.8.9.8.9.8.8.9.2.J.J.2.9.8#..I.4#n#n.4#d.4#d.4.4#j#q#j#q#j.u#k#p#b#b#p#l#r.P.C.n.gQtQtQtQtQt.n.C.O.N.Y.1.8.8.I.1.J.J.1.I.8.9.8.8.8.9.8.9.8.8.9.2.J.J.2.9.8#..I.4#n#n.4#d.4#d.4.4.4#d.4.4.4.4#d.4.4.4.K.L.P.P.C.n.gQtQt",
"Qt.g.g.n.C.N.N.Y.1.8.8.I.4.J.J.4.9.8.8.8.8.9.8.8.9.8.8.9.4.3.3.4.9.8.8#m.1.3.4#d.4#d#d.4#d#j#q#s#q#j#q#j#l#k#k#l#t#s.P.C.o.g.gQtQt.g.g.n.C.N.N.Y.1.8.8.I.4.J.J.4.9.8.8.8.8.9.8.8.9.8.8.9.4.3.3.4.9.8.8#m.1.3.4#d.4#d#d.4#d.4.4#d.4#d.4.3.J.4.4.K.Y.P.P.C.o.g.gQt",
"Qt.g.g.m.C.N.N.Y.1.9.9.I.2.1.4##.9.8.9.8.8.8.8.9.9.9.9##.2.2.4.2.I.9#m.I.4.4#d.4.4.4.4#d.4#d#j#q#s#r#u#r#j#v#j#r#w#o.P.C.n.gQtQtQt.g.g.m.C.N.N.Y.1.9.9.I.2.1.4##.9.8.9.8.8.8.8.9.9.9.9##.2.2.4.2.I.9#m.I.4.4#d.4.4.4.4#d.4#d#d.4.4.4#d.4.4.4.4.K#x.P.P.C.n.gQtQt",
"QtQtQt.n.C.N.N.L.3.1.1.1.I.I.9.I.8.9.8.9.9.8.8.I##.4.2##.I.9.9.I.1.1.1.1.4#d.4#d#d.4#d.4#d#q#j#j#j#q#q#y#r#v#j#u#s#o.M.C.n.g.gQtQtQtQt.n.C.N.N.L.3.1.1.1.I.I.9.I.8.9.8.9.9.8.8.I##.4.2##.I.9.9.I.1.1.1.1.4#d.4#d#d.4#d.4#d.4#d#d.3.4#d.4#d.4.J.K.L.N.M.C.n.g.gQt",
"QtQtQt.n.C.N.N.Y.K.J.3.4.9.8.8.8.8.8.8.8.8.8.8#m.4.J.J.4.9.8.8.I.1.J.3.3.4#d#d.4.4#d.4#d.4#q#z#z#z#q#q#q#y#j#v#u#o#A.M.C.n.e.g.hQtQtQt.n.C.N.N.Y.K.J.3.4.9.8.8.8.8.8.8.8.8.8.8#m.4.J.J.4.9.8.8.I.1.J.3.3.4#d#d.4.4#d.4#d.4#d.4.4.4#d.4#d#d.4.1.K.L.N.M.C.n.e.g.h",
"QtQt.7.m.C.N.N.L.K.J.J.1.9.8.8.8.9.8.9.8.8.8.8.I.1.J.J.4.I#..8.9.1.4.J.J.4.4.4#d.4#d#d.4#d#z#B#C#B#A#q#j#u#u#v#v#o#r.M.C.n.g.g.hQtQt.7.m.C.N.N.L.K.J.J.1.9.8.8.8.9.8.9.8.8.8.8.I.1.J.J.4.I#..8.9.1.4.J.J.4.4.4#d.4#d#d.4#d.4.4#d.4#d.4.4.4#d.4.K.X.N.M.C.n.g.g.h",
"Qt.7Qt.n.C.N.N.Y.T.1.1.2.I.9#m.I.9.8.8.8.9.I.9.I.2.4.2.2.I.9.9#m.4.J.4.J#d.4#d.4#d.4#d.4#q#z#C#C#C#A#D#o#j#y#v#v#v#r.M.C.o.d.d.dQt.7Qt.n.C.N.N.Y.T.1.1.2.I.9#m.I.9.8.8.8.9.I.9.I.2.4.2.2.I.9.9#m.4.J.4.J#d.4#d.4#d.4#d.4.4#d.4.4.3.4#d.4.4.4.4.E.L.N.M.C.o.d.d.d",
"QtQt.7.m.C.M.M.Y.R.9.9.I.1.1.R.1.I.8.8.I##.1.4.2##.I.9.I.2.4.1.4.4.4.4.4.4.4.4.4.4#d.4.4#q#z#C#C#B#z#q#o#j#y#s#s#E#r.N.E.p.a.a.wQtQt.7.m.C.M.M.Y.R.9.9.I.1.1.R.1.I.8.8.I##.1.4.2##.I.9.I.2.4.1.4.4.4.4.4.4.4.4.4.4#d.4.4#d.4.4#d#d.4.4.4.4.4.4.K.Y.N.N.E.p.a.a.w",
"Qt.6Qt.n.C.O.N.X.1.8.8.9.1.3.J.1.9.8.8.I.4.J.J.2.9.8.8.9.2.J.J.J.4.4.J.4.5.4.J.4#d.4.4#d#q#z#A#A#A#z#j#j#j#y#v#B#v#s.N.F.r.c#F.bQt.6Qt.n.C.O.N.X.1.8.8.9.1.3.J.1.9.8.8.I.4.J.J.2.9.8.8.9.2.J.J.J.4.4.J.4.5.4.J.4#d.4.4#d.4#d#d.4.4.4#d.J.J.4.4.K.Y.N.N.F.r.c#F.b",
"Qt.6.6.n.B.O.O.Y#G.8.8.9.R.3.3.1.I.8.8.9.4.J.J.1.I.8.8.9.A.J#d#d.J.4.4.4.4.4.4.4.4#d.4.4#q#z#z#A#z#D#q#o#j#u#s#s#E#s.N.K.r#F.b.bQt.6.6.n.B.O.O.Y#G.8.8.9.R.3.3.1.I.8.8.9.4.J.J.1.I.8.8.9.A.J#d#d.J.4.4.4.4.4.4.4.4#d.4.4#d.4.4#d#d.4.4.4.4.4.4.K.L.N.N.K.r#F.b.b",
".d.d.d.o.C.N.O.Y.1.9.9.I.1.1.1#H.9.8.8.9.2.1.1.2.I.9.9##.4#d.4.4.4.4.J.4.J.4.J.4#d.4#d#d#j#z#z#z#z#q#o#o#j#r#v#B#o#z#j.E.r.b.b.b.d.d.d.o.C.N.O.Y.1.9.9.I.1.1.1#H.9.8.8.9.2.1.1.2.I.9.9##.4#d.4.4.4.4.J.4.J.4.J.4#d.4#d#d.4#d#d.4.4#d.4.J.4.4.4.K.L.N.N.E.r.b.b.b",
".a.a.a.p.E.M.O.Y.T.1.1.1.I.I.I.9.8.8.8.9.I.9.I.I##.1.4.4.4.4.4#d#n.4.4#d.4.J.4.4#d.4#d.4#j#q#z#z#z#q#j#j#s#r#v#o#o#z#j.F.r.b.b.b.a.a.a.p.E.M.O.Y.T.1.1.1.I.I.I.9.8.8.8.9.I.9.I.I##.1.4.4.4.4.4#d#n.4.4#d.4.J.4.4#d.4#d.4#d.4#d.4#d.4.4#d.4.4.4.K.L.P.P.F.r.b.b.b",
".b.b#F.r#I.N.O.Y#J.3.3.1.I.8.8.9.8.9.8.9.8.8.8.9.4.J.J.4.4.4.J.4#n.4#d.4.4.4.4#d.4#d.4#d.4#q#z#z#A#z#j#j#v#u#o#B#C#z#j.F.r.b.b.b.b.b#F.r#I.N.O.Y#J.3.3.1.I.8.8.9.8.9.8.9.8.8.8.9.4.J.J.4.4.4.J.4#n.4#d.4.4.4.4#d.4#d.4#d.4#d.4#d.4#d#d.4.4.4.4.K.Y.P.P.F.r.b.b.b",
".b.b.b.r#I.N.N.L.K.3.R.1#m.8.8.8.8.8.9.8.8.8.8.I.2.4.4.4.4.4.4.3#n#d.4#d.4.4#d.4.4.4.4#d.4#j#z#z#K#A#q#j#u#o#o#E#B#q#q#L.s.b.b.b.b.b.b.r#I.N.N.L.K.3.R.1#m.8.8.8.8.8.9.8.8.8.8.I.2.4.4.4.4.4.4.3#n#d.4#d.4.4#d.4.4.4.4#d.4#d#d.4.4#d.4#d.4.4.J.K.L.P.P.F.s.b.b.b",
".c.b.b.r#I.N.N.Y.K.R.J.1.I.8.8.8.9.8.8.8.8.9.8.I.4.J.J.4.4.4.4.4#d.4#d.4#d#d.4#d#d.4#d.4#d#j#z#A#K#K#z#r#r#o#v#v#E#E#j#L.q#F.b.b.c.b.b.r#I.N.N.Y.K.R.J.1.I.8.8.8.9.8.8.8.8.9.8.I.4.J.J.4.4.4.4.4#d.4#d.4#d#d.4#d#d.4#d.4#d.4.4.4#d.4#d.4.J.4.4.K.Y.P.P.F.q#F.b.b",
".b.b.b.r.E.N.N.L.K.4.J.1.9.9.8.9.8.9.9.8.8.8.8.9.4#d#d#d.J.4.4.3.4#d.4#d.4.4#n#n.4#d.4#d.4.4#q#A#A#A#y#u#r#o#E#B#C#o#D#L.q.b.b.b.b.b.b.r.E.N.N.L.K.4.J.1.9.9.8.9.8.9.9.8.8.8.8.9.4#d#d#d.J.4.4.3.4#d.4#d.4.4#n#n.4#d.4#d.4.4.4#d.4#d.4#d.4.4.4.K.Y.P.P.F.q.b.b.b",
".c.b#F.r.Q.N.N.Y.K.4.J.2.9.8.8.8.8.8.8.8.9.8.9.9.A#d.4.4.4.3.4.4#d.4#d#n#d.4#n#n#d.4#d.4.4#d#r#u#y#y#z#q#r#v#s#s#s#E#D#L.q.b.b.b.c.b#F.r.Q.N.N.Y.K.4.J.2.9.8.8.8.8.8.8.8.9.8.9.9.A#d.4.4.4.3.4.4#d.4#d#n#d.4#n#n#d.4#d.4.4#d#d.4#d.4.4.4.J.4.4.K.Y.P.N.F.q.b.b.b",
".c#F.b.r.F.N.N.L.K.J.J.4.I.8.8.8.9.8.8.9.8.8.8.I.2.J#d.4#d.4.4.4.4.4#n#n#n#n#n#n.4#d#d.4#d#j#j#q#z#z#u#r#u#o#E#B#E#o#M#L.r.b.b.c.c#F.b.r.F.N.N.L.K.J.J.4.I.8.8.8.9.8.8.9.8.8.8.I.2.J#d.4#d.4.4.4.4.4#n#n#n#n#n#n.4#d#d.4#d.4#d.4#d.4#d.4.4.4.4.K#x.P.P.F.r.b.b.c",
".a.a.a.p.E.N.N.Z.5.2.1.2.9.8.9.8.8.8.8.9.9.9.9##.1.J#d.4#d.4.J.4#d.4#n#n#n#n#n#n.4#d.4#d.4#j#s#s#r#u#L#L#u#o#s#s#u#v#L.C.p.a.a.a.a.a.a.p.E.N.N.Z.5.2.1.2.9.8.9.8.8.8.8.9.9.9.9##.1.J#d.4#d.4.J.4#d.4#n#n#n#n#n#n.4#d.4#d.4#d.4#d.4#d.4#d.4.J.4.K#x.P.P.C.p.a.a.a",
".d.d.e.t.C.M.M.L.1.9.I.9.9.8.8.8.9.8.9.9##.A.1.1.J.J.4.4.4.4.J.4.J.4.4.4#n.4#d.4.4.4#d.4#j#q#L#L#L#D#L#N#L#o#r#u#v#j.M.C.o.d.d.d.d.d.e.t.C.M.M.L.1.9.I.9.9.8.8.8.9.8.9.9##.A.1.1.J.J.4.4.4.4.J.4.J.4.4.4#n.4#d.4.4.4#d.4.4.4.4.4#d.4#d.4.4.4.J.K.L.N.M.C.o.d.d.d",
"Qt.g#O.n.C.O.N.W.2.8.8.8.8.9.8.9.8.8.8.9.4.J.J.J.4.4.4.J.4.J.4.4.4.4.J.4#n#d#n.4#d.4.4#d#j#q#L#D#M#M#D#P#L#o#v#v#j#j.N.C.nQtQtQtQt.g#O.n.C.O.N.W.2.8.8.8.8.9.8.9.8.8.8.9.4.J.J.J.4.4.4.J.4.J.4.4.4.4.J.4#n#d#n.4#d.4.4#d.4.J.4.4#d.4.4#d#n#n.1.K.Y.N.N.C.nQtQtQt",
"Qt.g#O.n.C.O.P.Y.2.8.8.9.8.8.8.9.8.8.8.9##.J.4.J.J.J.4.J.4.4.4.4.4.3.J.J#n#n#n#n.4#d.4#j#q#z#z#L#N#N#M#L#r#j#j#j#q#j.O.C.n.7QtQtQt.g#O.n.C.O.P.Y.2.8.8.9.8.8.8.9.8.8.8.9##.J.4.J.J.J.4.J.4.4.4.4.4.3.J.J#n#n#n#n.4#d.4.J.4.J.4.5.4#d.4.4#n.J.4.K.L.N.O.C.n.7QtQt",
".d.d.e.o.C.O.P.Y.2.8.8.8.9.8.8.8.9.I.9##.4.J.4.J.1.2.A.4.4.4.J.J.4.4.A.4.4#n#n#n.J.4.4#j#q#z#z#z#L#L#L#q#r#j#j#q#z#j.P.B.n.7QtQt.d.d.e.o.C.O.P.Y.2.8.8.8.9.8.8.8.9.I.9##.4.J.4.J.1.2.A.4.4.4.J.J.4.4.A.4.4#n#n#n.J.4.4.4.4.4.4#d#d.4#d.4.4.A.1.5.Y.N.P.B.n.7QtQt",
".w.a.a.p.E.N.N.W.2.9.8.8.8.9.9.9.2.1.4.A.J.4.4.2##.9.9##.4.J.J.4#m#m.I.I.1.J.4.4.4.4#j#q#z#A#q#z#A#A#A#q#u#j#D#z#A#q.M.C.nQtQtQt.w.a.a.p.E.N.N.W.2.9.8.8.8.9.9.9.2.1.4.A.J.4.4.2##.9.9##.4.J.J.4#m#m.I.I.1.J.4.4.4.4.4.4.4.4.J.4.J.4.J.R.I.I.I.1.Y.N.M.C.nQtQtQt",
".b.b#F.r#I.M.M.W.2.8.8.9.8.8.8.9.4.J.4.4.J.J.J.1.9.8.8.9.2.J.J.2#m.8.8.I.1.J.J.4.4#j#j#z#A#z#q#A#A#K#A#z#u#j#q#A#A#q.O.C.nQtQtQt.b.b#F.r#I.M.M.W.2.8.8.9.8.8.8.9.4.J.4.4.J.J.J.1.9.8.8.9.2.J.J.2#m.8.8.I.1.J.J.4.4.J.4.J.4.J.4.4.4.J.J.1.I.8.8.1.X.N.O.C.nQtQtQt",
".c.b#F.r.F.P.M.X.2.9.8.8.8.9#..9.2.J.4.J.J.J.J.4.9#..9.9.A.J.J.R.8.8.8.9.A.J.4#d#j#j#q#A#A#z#z#A#A#K#A#z#y#q#q#A#z#q.N.C.m.g.6Qt.c.b#F.r.F.P.M.X.2.9.8.8.8.9#..9.2.J.4.J.J.J.J.4.9#..9.9.A.J.J.R.8.8.8.9.A.J.4#d.4#d.4#d.4.4.4.4.4.J.J.1.I.8.8.1.X.N.N.C.m.g.6Qt",
".b.b.b.r.F.N.N.X.2.8.8.9.9.9.9##.4.J.4.4.4.2.4##.I.9.9##.2.R.2.2.I.I#m.I.4#d#d#o#j#D#z#A#z#z#A#A#K#K#A#z#y#q#q#z#q#q.N.B.n.g.gQt.b.b.b.r.F.N.N.X.2.8.8.9.9.9.9##.4.J.4.4.4.2.4##.I.9.9##.2.R.2.2.I.I#m.I.4#d#d.4.4.4#d.4.4.4.4.4.1.1.1.I.8.r.q##.X.N.N.B.n.g.gQt",
".b.b.b.q.F.P.P.Z.2.9.8.9.2.2.4.2.4.4.J.4##.9.9.I##.1.4.2.I.9.9##.1.1.1.4.4.4.4#o#j#z#z#z#q#z#A#A#K#K#A#z#y#j#z#z#Q#M#D.C.oQtQtQt.b.b.b.q.F.P.P.Z.2.9.8.9.2.2.4.2.4.4.J.4##.9.9.I##.1.4.2.I.9.9##.1.1.1.4.4.4.4#d#d.4#d.4#d.4.J.4##.I.I#..H#R#R#..F.M.M.C.oQtQtQt",
".b.b.b.q.F.N.P.Z.2.8.8.9.4.4.J.4.4.4.J.2.9#..8.9.4.4.J.2.I.8.8.9.1.J.J.4.4.4.J#o#v#z#z#q#q#A#A#K#K#K#A#u#u#M#j#P#M#P#D.C.n.hQtQt.b.b.b.q.F.N.P.Z.2.8.8.9.4.4.J.4.4.4.J.2.9#..8.9.4.4.J.2.I.8.8.9.1.J.J.4.4.4.J.4.4#d.4.4#d#n.J.1#m.8.8#S#R.b.b.s.F.N.M.C.n.hQtQt",
".b.b.b.q.F.P.P.Z.2.8#..9.2.J.J.4.J.4.J.4.9.8.8.9.4.J.J.4.9.8#..9.1.J.4.4.4.4.4#o#v#v#q#q#z#A#K#K#K#A#A#y#j#j#D#N#P#Q#M.C.m.7.6Qt.b.b.b.q.F.P.P.Z.2.8#..9.2.J.J.4.J.4.J.4.9.8.8.9.4.J.J.4.9.8#..9.1.J.4.4.4.4.4.4#d.4#d#d#d.J.J.4.I.8.8#.#R.b.b.q.F.N.N.C.m.7.6Qt",
".a.a.a.t.F.P.P.Y.4.9.9##.4.J.J.J.A.4.2.2##.9.9####.4.2.2.I.9.9.I.J.J.J.4.J.4.J#o#v#v#v#q#z#z#A#A#A#A#z#y#M#M#D#D#N#P#D.C.n.7QtQt.a.a.a.t.F.P.P.Y.4.9.9##.4.J.J.J.A.4.2.2##.9.9####.4.2.2.I.9.9.I.J.J.J.4.J.4.J.4.4#d.4.4.4.A.1##.I.8.8#T#R.b.b.q.F.N.M.C.n.7QtQt",
".d.d.e.t.C.M.N.Y.T.2.2.4.4.4.4.4.I.9.9.I##.1.4##.I.I.9.I.2.4.1.4.4.4#d.4.4.4.4.4#v#v#v#v#s#r#u#u#u#u#u#y#j#j#M#L#D#M#D#U#U.g.gQt.d.d.e.t.C.M.N.Y.T.2.2.4.4.4.4.4.I.9.9.I##.1.4##.I.I.9.I.2.4.1.4.4.4#d.4.4.4.4.4.J.4.J.J.I.I.I.I.8.9.8#.#R.b.b.p.F.M.M.E.n.g.gQt",
"Qt.g#O.n.C.M.N.L.K.J.4.J.4.J.J.2.I.8.8.I.1.J.4.4.9#..8.9.2.J.J.J#d#d.4#d#d#U#U#U#o#v#v#v#v#s#s#r#r#r#r#y#D#q#j#q#L#D#U#U#U#U#U#U#U.g#O.n.C.M.N.L.K.J.4.J.4.J.J.2.I.8.8.I.1.J.4.4.9#..8.9.2.J.J.J#d#d.4#d#d.J.4.4.4.4.J.1.9.8.8.8.8.8.8#T#R.b.b.s.F.M.M.C.n.gQtQt",
"Qt.g#O.n.C.P.P.Y.K.J.J.4.J.J.J.4.9.8.8.9.1.J.J.1.I.8.8.9.A.J#d#d.4.4#d#U#U#U#U#U#U#o#v#v#v#s#s#r#r#r#r#y#D#D#D#M#D#U#U#U#U#U#U#U#U#U#U.n.C.P.P.Y.K.J.J.4.J.J.J.4.9.8.8.9.1.J.J.1.I.8.8.9.A.J#d#d.4.4#d.4.4#d.4.J.4.J.J.1.I.8.8.8.8.8.8#V#W.b.b.p.F.M.M.C.n.g.gQt",
".d.d.e.o.C.P.P.L.K.R.1.J.1.1.A##.I.8.8.I.1.J.J.4.I.9.9##.4#d.4.4.4#d#U#U#U#U#U#U#U#U#o#o#v#v#s#s#r#r#r#u#j#D#M#N#P#U#U#U#U#U#U#U#U#U#U#U.C.P.P.L.K.R.1.J.1.1.A##.I.8.8.I.1.J.J.4.I.9.9##.4#d.4.4.4#d.4.4#d.4.4.4.1.A.1.2.9.8.8.8.I.I.I.8.s#R#R#..F.M.N.E.o.d.d.d",
".w.a#X.p.F.N.P.L.K.4.J.1##.I.9.9.9.8.8.I.1.J.J.1.1.1.4.4.4.4.4#d#d#U#U#U#U#U#U#U#U#U#U#U#j#L#o#o#o#o#o#o#j#q#D#M#D#N#U#U#U#U#U#U#U#U#U#U#U.N.P.L.K.4.J.1##.I.9.9.9.8.8.I.1.J.J.1.1.1.4.4.4.4.4#d#d.4#d.4.4.J.4.4#H.9.9.9.9.8.8.I#H.1.4###..q#T.I.X.N.N.E.p.a.a.a",
".b.b#F.r.F.N.P.L.K.4.J.4.9.8.8.8.8.8.8.I.4.4.J.4.J.J#d.4.4.4.4#d#U#U#U#U#U#U#U#U#U#U#U#U#L#L#L#L#L#L#L#D#j#D#M#N#P#N#D#D#U#U#U#U#U#U#U#U#U#U.P.L.K.4.J.4.9.8.8.8.8.8.8.I.4.4.J.4.J.J#d.4.4.4.4#d#d.4#d#d.4.J.J.2.I.8.8.8.8.8.8.I.1.J.J.1.I.8.8.1.X.N.N.F.r.b.c.c",
".c.c#F.r.F.P.P#x.K.4.J.1.9.8.8.9.8.8.8#m.V.J.4.J.J.4.J.J.4.4.4.4#U#U#U#U#U#U#U#U#U#U#U#U#j#L#L#L#D#D#D#D#j#D#M#D#D#D#D#D#M#U#U#U#U#U#U#U#U#U.P#x.K.4.J.1.9.8.8.9.8.8.8#m.V.J.4.J.J.4.J.J.4.4.4.4.J.J.4#d.J.J.J.1.I.8.8.8.8.8.8.I.1.J.J.4.I.8.8.1.X.N.N.F.r#F#F.c",
".a.a.a.p.K.L.L.F.3.2.1.2.9.9.8.8.9.9.I##.1.4.J.R.4.4.4.4.4.4#d.4#U#U#U#U#U#U#U#U#U#U#U#U#U#U#j#L#L#L#L#D#j#D#v#M#M#N#N#P#M#U#U#U#U#U#U#U#U#U.L.F.3.2.1.2.9.9.8.8.9.9.I##.1.4.J.R.4.4.4.4.4.4#d.4.1.1.A.4.R.1.1.2.I.8.8.9.9.9.I.I.1.R.1##.8#T#T.I#I.L.L.5#Y.a.a.w",
".#.d.e#Z.A.K.K.J.2.I.9.9.9.9.8.9.2.1.R.1.J.J.J.J.4.4.4.4.4.J.J.R#U#U#U#U#U#U#U#U#U#U#U#U#U#U#U#U#j#j#L#j#o#D#D#D#o#j#N#M#M#U#U#U#U#U#U#U#U#U.K.J.2.I.9.9.9.9.8.9.2.1.R.1.J.J.J.J.4.4.4.4.4.J.J.R##.9.I.I.9.I.I.9.8.8.9.9#H.R.1.2.I.I.I#..H#R#0.r.1#I#I.V#Z#1.d.d",
".e.g.g.m#2.J.J.4.9.9.8.9.8.8.9.9.1.J.J.J.J.J.J.R.J.J.J.J.J.J.J.1.I#U#U#U#U#U#U#U#U#U#U#U#U#U#U#U#U#U#U#U#j#j#j#j#j#o#D#D#D#U#U#U#U#U#U#U#U.J.J.4.9.9.8.9.8.8.9.9.1.J.J.J.J.J.J.R.J.J.J.J.J.J.J.1.I.8.8.8.8.8.8.8.9.8.8.I.R.R.J.R.I.8.8#V#0.b#F#3.I.J.R.z.m.6QtQt",
".e.e.e.m#4.J.J.2.9.9.8.8.8.9.8.9.R.J.J.J.4.J.J.J.J.J.J.J.4.J.J.1.9.8#U#U#U#U#U#U#U#U#U#U#U#U#U#U#U#U#U#U#U#U#U#U#U#U#U#U#U#U#U#U#U#U#U#U#4.J.J.2.9.9.8.8.8.9.8.9.R.J.J.J.4.J.J.J.J.J.J.J.4.J.J.1.9.8.8.9.8.9.9.8.9.8.8.I.R.J.J.1.9.9.8#.#0.b.b#3.I.3.3.z.m.6QtQt",
".e.f.d#5.y##.9.9.y.p.q#6#T.8#S#S.y#2#4.z.z.I#m.z.z#4.z.z.I.z.I.9#.#S#S#U#U#U#U#U#U#U#U#U#U#U#U#U#U#U#U#U#U#U#U#U#U#U#U#U#U#U#U#U#U#U#U#5.y##.9.9.y.p.q#6#T.8#S#S.y#2#4.z.z.I#m.z.z#4.z.z.I.z.I.9#.#S#S#S#T#T#T#T#T#T#T#..9#4#2.y.y.q#7#Y#R.a.a.U#8.I.V.y#9.6QtQt",
".w.a.a.wa..H.H.Ua#aa#5ab#Ra.a..x#Z.m.l#Z.U.H.H.U#Z.m.m.l.U#W.s.U#W#W#W#W#W#U#U#U#U#U#U#U#U#U#U#U#U#U#U#U#U#U#U#U#U#U#U#U#U#U#U#U#U.a.a.wa..H.H.Ua#aa#5ab#Ra.a..x#Z.m.l#Z.U.H.H.U#Z.m.m.l.U#W.s.U#W#W#W#W#W#W#W#W#W#W#W.x#Z.m.m.l.l#5#5.k.k.d.d.#.x.H.s.x.fQtQtQt",
".b.c.c.c.b.b.b#X.e.e.e.e.a.b.c.a.dQt#O#1.a.b.b.a.d#O.g.d.a.b.b.b.c.c.w.b.c.b.b.c.b#U#U#U#U#U#U#U#U#U#U#U#U#U#U#U#U#U#U#U#UQtQtQt.b.c.c.c.b.b.b#X.e.e.e.e.a.b.c.a.dQt#O#1.a.b.b.a.d#O.g.d.a.b.b.b.c.c.w.b.c.b.b.c.b.b.c.a.d.g.g.g.gQtQtQt.h.h.h.d.a.b.b.a.dQtQtQt",
".c.c.c.c.b.c.b.w.#.e.e.f.a.c.c.a.dQtQt.d.a#F.b.a.d.hQt.d.a.c.b.b.b.c.b.b.b.b.c.b.b.b.b.a.d.g.gQtQtQtQtQtQt.h.h.d.a.c.b.a.d.h.hQt.c.c.c.c.b.c.b.w.#.e.e.f.a.c.c.a.dQtQt.d.a#F.b.a.d.hQt.d.a.c.b.b.b.c.b.b.b.b.c.b.b.b.b.a.d.g.gQtQtQtQtQtQt.h.h.d.a.c.b.a.d.h.hQt",
".b.b.c.b.b.c.b.w.e.e.g.e.w.c.c.a.dQtQt.d.a.c.b.a.d.hQt.d.a.c.c.c.c.b.c.b.c.c.b.c.c.b.b.w.dQtQtQtQtQtQtQtQtQt.h.d.a.c.c.a.dQtQtQt.b.b.c.b.b.c.b.w.e.e.g.e.w.c.c.a.dQtQt.d.a.c.b.a.d.hQt.d.a.c.c.c.c.b.c.b.c.c.b.c.c.b.b.w.dQtQtQtQtQtQtQtQtQt.h.d.a.c.c.a.dQtQtQt"};
