/* XPM */
static char *dummy[]={
"64 64 129 2",
"Qt c None",
".V c #000000",
".X c #000000",
".2 c #000000",
"#S c #000000",
".1 c #000000",
"#J c #000000",
".Y c #000000",
".0 c #000000",
"#. c #000000",
".3 c #000000",
"#9 c #000000",
"a. c #000000",
".Z c #000000",
".4 c #000000",
"#w c #000000",
"#j c #000000",
"#U c #000000",
"## c #000000",
".5 c #000000",
"#K c #000000",
"#Q c #000000",
".6 c #000000",
"#a c #000000",
".7 c #000000",
"#k c #000000",
"#v c #000000",
".9 c #000000",
"#b c #000000",
"#4 c #000000",
"#x c #000000",
"#5 c #000000",
"#6 c #000000",
"#7 c #000000",
"#8 c #000000",
".8 c #000000",
"#i c #000000",
"#l c #000000",
"#V c #000000",
"#c c #000000",
"#h c #000000",
"#L c #000000",
"#R c #000000",
"#d c #000000",
"#m c #000000",
"#y c #000000",
"#e c #000000",
"#g c #000000",
"#n c #000000",
"#W c #000000",
"#1 c #000000",
"#2 c #000000",
"#z c #000000",
"#o c #000000",
"#3 c #000000",
"#M c #000000",
"#f c #000000",
"#p c #000000",
"#A c #000000",
"#q c #000000",
"#r c #000000",
"#u c #000000",
"#N c #000000",
"#B c #000000",
"#X c #000000",
"#Y c #000000",
"#Z c #000000",
"#C c #000000",
"#0 c #000000",
"#s c #000000",
"#D c #000000",
"#E c #000000",
"#F c #000000",
"#G c #000000",
"#T c #000000",
"#O c #000000",
"#H c #000000",
"#I c #000000",
"#P c #000000",
".E c #001111",
".q c #002b2b",
".z c #005477",
".A c #005e7f",
".G c #007faa",
".g c #080808",
".Q c #0f0e11",
".U c #190000",
".u c #1e424f",
".y c #212828",
".r c #260c0c",
".S c #26252c",
".T c #35353a",
"#t c #35383f",
".B c #3d5358",
".# c #444448",
".K c #470000",
".m c #494482",
".t c #4a2121",
".L c #51545b",
".R c #535353",
".W c #562f1d",
".J c #637a82",
".d c #6d3300",
".F c #72472d",
".v c #750000",
".h c #797a7c",
".C c #838384",
".n c #84393a",
".s c #870000",
".x c #871e38",
".N c #8e3314",
".I c #946c45",
".o c #96b2ff",
".c c #996314",
".e c #9e99a6",
".D c #adb2af",
".H c #af001c",
".M c #c09d7b",
".P c #c1bfbc",
".p c #c46555",
".f c #ccd3d6",
".a c #d19e30",
".l c #e5f4ff",
".O c #ef0c23",
".k c #f78c6b",
".i c #f9edd6",
".b c #fcd670",
".w c #ff7084",
".j c #ffd8ce",
"QtQtQtQtQtQtQtQtQtQtQtQtQtQtQtQtQtQtQtQtQtQtQtQtQtQtQtQtQtQtQtQtQtQtQtQtQtQtQtQtQtQtQtQtQtQtQtQtQtQtQtQtQtQtQtQtQtQtQtQtQtQtQtQt",
"QtQtQtQtQtQtQtQtQtQtQtQtQtQtQtQtQtQtQtQtQtQtQtQtQtQtQtQtQtQtQtQtQtQtQtQtQtQtQtQtQtQtQtQtQtQtQtQtQtQtQtQtQtQtQtQtQtQtQtQtQtQtQtQt",
"QtQtQtQtQtQtQtQtQtQtQtQtQtQtQtQtQtQtQtQtQtQtQtQtQtQtQtQtQtQtQtQtQtQtQtQtQtQtQtQtQtQtQtQtQtQtQtQtQtQtQtQtQtQtQtQtQtQtQtQtQtQtQtQt",
"QtQtQtQtQtQtQtQtQtQtQtQtQtQtQtQtQtQtQtQtQtQtQtQtQtQtQtQtQtQtQtQtQtQtQtQtQtQtQtQtQtQtQtQtQtQtQtQtQtQtQtQtQtQtQtQtQtQtQtQtQtQtQtQt",
"QtQtQtQtQtQtQtQtQtQtQtQtQtQtQtQtQtQtQtQtQtQtQtQtQtQtQtQtQtQtQtQtQtQtQtQtQtQtQtQtQtQtQtQtQtQtQtQtQtQtQtQtQtQtQtQtQtQtQtQtQtQtQtQt",
"QtQtQtQtQtQtQtQtQtQtQtQtQtQtQtQtQtQtQtQtQtQtQtQtQtQtQtQtQtQtQtQtQtQtQtQtQtQtQtQtQtQtQtQtQtQtQtQtQtQtQtQtQtQtQtQtQtQtQtQtQtQtQtQt",
"QtQtQtQtQtQtQtQtQtQtQtQtQtQtQtQtQtQtQtQtQtQtQtQtQtQtQtQtQtQtQtQtQtQtQtQtQtQtQtQtQtQtQtQtQtQtQtQtQtQtQtQtQtQtQtQtQtQtQtQtQtQtQtQt",
"QtQtQtQtQtQtQtQtQtQtQtQtQtQtQtQtQtQtQtQtQtQtQtQtQtQtQtQtQtQtQtQtQtQtQtQtQtQtQtQtQtQtQtQtQtQtQtQtQtQtQtQtQtQtQtQtQtQtQtQtQtQtQtQt",
"QtQtQtQtQtQtQtQtQtQtQtQtQt.#.#.#QtQtQtQtQtQtQtQtQtQt.a.b.a.c.c.c.c.d.dQtQtQtQtQtQtQtQtQtQtQtQtQtQtQtQtQtQtQtQtQtQtQtQtQtQtQtQtQt",
"QtQtQtQtQtQtQtQtQtQtQtQtQt.#.e.f.#QtQtQtQtQtQtQtQt.aQt.c.c.a.c.c.c.c.c.c.dQtQtQtQtQtQtQtQtQtQtQtQtQtQtQtQtQtQtQtQtQtQtQtQtQtQtQt",
"QtQtQtQtQtQtQtQtQtQtQtQtQt.#.f.g.f.#QtQtQtQtQtQtQtQt.c.a.a.a.a.c.c.a.a.c.c.dQtQtQtQtQtQtQtQtQtQtQtQtQtQtQtQtQtQtQtQtQtQtQtQtQtQt",
"QtQtQtQtQtQtQtQtQtQtQtQtQtQt.#.f.e.h.#QtQt.g.#.#.#.c.a.b.b.a.b.a.a.c.a.a.c.c.dQtQtQtQtQtQtQtQtQtQtQtQtQtQtQtQtQtQtQtQtQtQtQtQtQt",
"QtQtQtQtQtQtQtQtQtQtQtQtQtQtQt.g.#.e.h.gQtQtQt.g.c.a.b.a.a.b.b.b.b.i.b.a.a.c.c.dQtQtQtQtQtQtQtQtQtQtQtQtQtQtQtQtQtQtQtQtQtQtQtQt",
"QtQtQtQtQtQtQtQtQtQtQtQtQtQtQtQtQt.g.h.#.gQtQt.c.a.c.a.i.i.i.b.a.a.b.i.b.a.d.c.dQtQtQtQtQtQtQtQtQtQtQtQtQtQtQtQtQtQtQtQtQtQtQtQt",
"QtQtQtQtQtQtQtQtQtQtQtQtQtQtQtQtQtQt.g.e.#.g.c.a.c.a.b.i.b.i.b.i.i.a.i.i.a.c.d.c.dQtQtQtQtQtQtQtQtQtQtQtQtQtQtQtQtQtQtQtQtQtQtQt",
"QtQtQtQtQtQtQtQtQtQtQtQtQtQtQtQtQtQtQt.#.h.#.#.c.a.a.a.i.a.i.i.b.i.i.a.i.b.a.d.d.dQtQtQtQtQtQtQtQtQtQtQtQtQtQtQtQtQtQtQtQtQtQtQt",
"QtQtQtQtQtQtQtQtQtQtQtQtQtQtQtQtQtQtQt.g.#.#.e.a.c.b.a.b.c.b.i.c.j.i.a.i.d.a.c.d.d.dQtQtQtQtQtQtQtQtQtQtQtQtQtQtQtQtQtQtQtQtQtQt",
"QtQtQtQtQtQtQtQtQtQtQtQtQtQtQtQtQtQtQtQt.g.h.c.a.c.b.c.b.g.g.i.k.c.g.g.b.c.d.a.cQtQtQtQtQtQtQtQtQtQtQtQtQtQtQtQtQtQtQtQtQtQtQtQt",
"QtQtQtQtQtQtQtQtQtQtQtQtQtQtQtQtQtQtQtQt.g.h.e.h.d.a.c.a.l.m.k.k.j.m.l.a.n.c.d.dQtQtQtQtQtQtQtQtQtQtQtQtQtQtQtQtQtQtQtQtQtQtQtQt",
"QtQtQtQtQtQtQtQtQtQtQtQtQtQtQtQtQtQtQtQtQt.h.f.#.d.a.d.d.j.o.j.k.j.o.j.p.n.c.d.d.dQtQtQtQtQtQtQtQtQtQtQtQtQtQtQtQtQtQtQtQtQtQtQt",
"QtQtQtQtQtQtQtQtQtQtQtQtQtQtQtQtQtQtQtQtQt.g.e.l.q.c.d.n.k.j.j.j.j.j.k.n.d.c.dQtQtQtQtQtQtQtQtQtQtQtQtQtQtQtQtQtQtQtQtQtQtQtQtQt",
"QtQtQtQtQtQtQtQtQtQtQtQtQtQtQtQtQtQtQt.g.g.g.h.f.q.d.d.r.p.k.j.j.j.k.p.r.d.dQtQtQtQtQtQtQtQtQtQtQtQtQtQtQtQtQtQtQtQtQtQtQtQtQtQt",
"QtQtQtQtQtQtQtQtQtQtQtQtQtQtQtQtQtQtQt.s.g.#.g.g.l.q.d.q.t.n.p.p.p.n.t.u.q.d.qQtQtQtQtQtQtQtQtQtQtQtQtQtQtQtQtQtQtQtQtQtQtQtQtQt",
"QtQtQtQtQtQtQtQtQtQtQtQtQtQtQtQtQtQtQt.g.g.#.h.#.q.q.d.u.v.r.r.r.r.r.w.x.y.u.qQtQtQtQtQtQtQtQtQtQtQtQtQtQtQtQtQtQtQtQtQtQtQtQtQt",
"QtQtQtQtQtQtQtQtQtQtQtQtQtQtQtQtQtQtQt.g.s.#.z.q.A.q.B.u.v.v.B.C.D.D.u.u.E.u.u.qQtQtQtQtQtQtQtQtQtQtQtQtQtQtQtQtQtQtQtQtQtQtQtQt",
"QtQtQtQtQtQtQtQtQtQtQtQtQtQtQtQtQtQtQtQt.g.h.q.F.q.G.B.q.H.u.u.B.q.B.G.A.E.u.I.qQtQtQtQtQtQtQtQtQtQtQtQtQtQtQtQtQtQtQtQtQtQtQtQt",
"QtQtQtQtQtQtQtQtQtQtQtQtQtQtQtQtQtQtQtQtQt.q.u.u.B.q.B.q.H.u.F.I.q.I.q.q.B.J.B.FQtQtQtQtQtQtQtQtQtQtQtQtQtQtQtQtQtQtQtQtQtQtQtQt",
"QtQtQtQtQtQtQtQtQtQtQtQtQtQtQtQtQtQtQtQtQt.q.u.B.B.B.q.K.H.u.u.u.q.u.q.E.q.B.n.n.qQtQtQtQtQtQtQtQtQtQtQtQtQtQtQtQtQtQtQtQtQtQtQt",
"QtQtQtQtQtQtQtQtQtQtQtQtQtQtQtQtQtQtQtQtQt.n.q.q.u.u.q.K.v.H.F.I.q.I.q.E.q.n.p.n.qQtQtQtQtQtQtQtQtQtQtQtQtQtQtQtQtQtQtQtQtQtQtQt",
"QtQtQtQtQtQtQtQtQtQtQtQtQtQtQtQtQtQtQtQt.n.p.k.n.q.q.q.K.v.v.u.u.q.u.q.E.e.n.p.p.n.LQtQtQtQtQtQtQtQtQtQtQtQtQtQtQtQtQtQtQtQtQtQt",
"QtQtQtQtQtQtQtQtQtQtQtQtQtQtQtQtQtQtQtQt.p.k.j.k.nQt.K.K.K.v.v.E.E.E.E.E.E.n.p.k.n.h.LQtQtQtQtQtQtQtQtQtQtQtQtQtQtQtQtQtQtQtQtQt",
"QtQtQtQtQtQtQtQtQtQtQtQtQtQtQtQtQtQtQtQt.I.M.M.I.nQt.K.v.H.N.N.E.v.v.H.v.E.g.n.k.n.h.h.LQtQtQtQtQtQtQtQtQtQtQtQtQtQtQtQtQtQtQtQt",
"QtQtQtQtQtQtQtQtQtQtQtQtQtQtQtQtQtQtQtQt.I.J.J.B.q.K.v.O.H.q.q.E.q.v.H.H.H.K.v.p.n.h.h.h.LQtQtQtQtQtQtQtQtQtQtQtQtQtQtQtQtQtQtQt",
"QtQtQtQtQtQtQtQtQtQtQtQtQtQtQtQtQtQtQtQt.q.J.M.I.n.K.O.H.q.u.B.E.u.q.E.K.v.H.v.K.n.#.h.h.h.#QtQtQtQtQtQtQtQtQtQtQtQtQtQtQtQtQtQt",
"QtQtQtQtQtQtQtQtQtQtQtQtQtQtQtQtQtQtQt.K.q.I.B.I.n.v.K.u.q.u.B.q.B.u.q.v.v.K.v.K.K.y.#.e.e.h.#QtQtQtQtQtQtQtQtQtQtQtQtQtQtQtQtQt",
"QtQtQtQtQtQtQtQtQtQtQtQtQtQtQtQtQtQt.K.K.q.J.M.B.K.v.H.B.q.F.F.q.B.B.q.q.H.v.K.K.K.v.y.h.e.e.LQtQtQtQtQtQtQtQtQtQtQtQtQtQtQtQtQt",
"QtQtQtQtQtQtQtQtQtQtQtQtQtQtQtQtQt.K.K.K.q.M.B.B.n.K.F.I.q.I.I.E.q.F.q.u.H.H.v.v.v.v.y.#.P.e.hQtQtQtQtQtQtQtQtQtQtQtQtQtQtQtQtQt",
"QtQtQtQtQtQtQtQtQtQtQtQtQtQtQt.C.D.K.K.K.q.B.k.n.k.n.K.I.E.E.Q.Q.y.I.E.F.q.H.H.H.v.v.R.y.P.P.e.#QtQtQtQtQtQtQtQtQtQtQtQtQtQtQtQt",
"QtQtQtQtQtQtQtQtQtQtQtQtQtQtQtQt.K.K.K.K.H.n.k.j.n.k.K.Q.Q.Q.Q.Q.y.y.y.I.q.H.H.O.H.v.R.y.P.P.P.LQtQtQtQtQtQtQtQtQtQtQtQtQtQtQtQt",
"QtQtQtQtQtQtQtQtQtQtQtQtQtQtQtQt.K.K.K.v.K.n.k.p.p.K.E.y.y.Q.Q.Q.y.y.y.y.y.C.H.O.H.v.y.L.e.P.P.h.#QtQtQtQtQtQtQtQtQtQtQtQtQtQtQt",
"QtQtQtQtQtQtQtQtQtQtQtQtQtQtQtQt.K.K.K.y.K.n.k.j.k.K.S.y.y.y.Q.Q.R.R.C.C.T.C.H.O.O.h.y.h.#.h.h.h.#QtQtQtQtQtQtQtQtQtQtQtQtQtQtQt",
"QtQtQtQtQtQtQtQtQtQtQtQtQtQtQt.K.K.K.R.y.v.K.p.k.p.y.y.R.R.y.y.y.R.C.C.C.R.y.K.H.O.D.y.DQt.#.#.#.#QtQtQtQtQtQtQtQtQtQtQtQtQtQtQt",
"QtQtQtQtQtQtQtQtQtQtQtQtQtQtQt.K.K.K.h.y.v.H.O.O.v.R.R.R.R.R.y.y.C.C.D.C.C.T.yQt.h.y.D.hQtQtQtQtQtQtQtQtQtQtQtQtQtQtQtQtQtQtQtQt",
"QtQtQtQtQtQtQtQtQtQtQtQtQtQtQt.RQt.K.h.y.R.H.O.O.Q.U.R.R.R.R.y.y.C.D.D.D.C.L.yQt.y.DQtQtQtQtQtQtQtQtQtQtQtQtQtQtQtQtQtQtQtQtQtQt",
"QtQtQtQtQtQtQtQtQtQtQtQtQtQtQt.R.L.R.R.y.R.O.O.H.Q.R.y.R.R.y.y.y.C.D.D.D.C.R.TQt.DQtQtQtQtQtQtQtQtQtQtQtQtQtQtQtQtQtQtQtQtQtQtQt",
"QtQtQtQtQtQtQtQtQtQtQtQtQtQtQt.R.RQt.R.h.y.D.O.v.Q.S.y.y.y.y.y.y.R.C.C.C.L.R.yQtQtQtQtQtQtQtQtQtQtQtQtQtQtQtQtQtQtQtQtQtQtQtQtQt",
"QtQtQtQtQtQtQtQtQtQtQtQtQtQtQtQt.RQtQt.R.h.y.D.v.K.Q.C.y.y.y.Q.S.R.R.R.R.R.T.yQtQtQtQtQtQtQtQtQtQtQtQtQtQtQtQtQtQtQtQtQtQtQtQtQt",
"QtQtQtQtQtQtQtQtQtQtQtQtQtQtQtQtQtQtQtQt.D.h.R.D.K.Q.Q.y.Q.Q.Q.y.T.Q.Q.Q.Q.y.KQtQtQtQtQtQtQtQtQtQtQtQtQtQtQtQtQtQtQtQtQtQtQtQtQt",
"QtQtQtQtQtQtQtQtQtQtQtQtQtQtQtQtQtQtQtQtQt.D.h.h.V.Q.S.D.S.S.Q.V.Q.F.I.F.W.Q.V.V.V.VQtQtQtQtQtQtQtQtQtQtQtQtQtQtQtQtQtQtQtQtQtQt",
"QtQtQtQtQtQtQtQtQtQtQtQtQtQtQtQtQtQt.V.V.V.X.D.D.Y.Q.Q.S.S.Q.Q.Z.Q.T.L.T.S.Q.0.Y.1.2.X.V.V.VQtQtQtQtQtQtQtQtQtQtQtQtQtQtQtQtQtQt",
"QtQtQtQtQtQtQtQtQtQtQtQtQtQtQtQt.V.V.2.Y.3.4.5.6.7.Q.Q.Q.Q.Q.Q.8.Q.Q.Q.Q.Q.Q.9.7.6.5.4.3.Y.2.V.VQtQtQtQtQtQtQtQtQtQtQtQtQtQtQtQt",
"QtQtQtQtQtQtQtQtQtQtQtQtQtQtQt.V.2#.###a#b.8#c#d#e.Q.S.S.S.S.Q#f.S.F.I.F.W.r#g#e#d#h#i#b#a###..2.VQtQtQtQtQtQtQtQtQtQtQtQtQtQtQt",
"QtQtQtQtQtQtQtQtQtQtQtQtQtQt.V.1#j#k#l#m#n#o#p#q#r.Q.S.S.S.S.Q#s.S.T.L#t.S.Q#u#r#q#p#o#n#m#l#v#j.1.VQtQtQtQtQtQtQtQtQtQtQtQtQtQt",
"QtQtQtQtQtQtQtQtQtQtQtQtQt.V.2#w#x#y#z#A#B#C#D#E#F#G.g.Q.Q.g#H#I.S.F.R.S.W.Q#G#F#E#D#C#B#A#z#y#x#w.2.VQtQtQtQtQtQtQtQtQtQtQtQtQt",
"QtQtQtQtQtQtQtQtQtQtQtQtQt.V#J#K#L#M#N#D#G#O#I#I#I#I#I#P#P#P#P.T.L.L.h.L.S.Q.Q#I#I#I#O#G#D#N#M#L#K#J.VQtQtQtQtQtQtQtQtQtQtQtQtQt",
"QtQtQtQtQtQtQtQtQtQtQtQtQt.V#J#Q#L#M#B#D#G#O#I#I#I#I#I#P#P#P#P.S.L.h.h.h.L.S.Q#I#I#I#O#G#D#B#M#R#Q#J.VQtQtQtQtQtQtQtQtQtQtQtQtQt",
"QtQtQtQtQtQtQtQtQtQtQtQtQt.V#S#w#x#y#z#A#B#C#D#E#F#G#T#T#O#H#H.S.Q.Q.Q.Q.Q.S.Q#F#E#D#C#B#A#z#y#x#w#S.VQtQtQtQtQtQtQtQtQtQtQtQtQt",
"QtQtQtQtQtQtQtQtQtQtQtQtQtQt.V.1#U#v#V#y#W#o#p#q#r#u#X#Y#Z#0#s#s.g.Q.Q.Q.Q.g#u#r#q#p#o#W#y#V#v#U.1.VQtQtQtQtQtQtQtQtQtQtQtQtQtQt",
"QtQtQtQtQtQtQtQtQtQtQtQtQtQtQt.V#S.3###a#b#i#h#d#e#g#1#2#z#3#M#f#f#M#3#z#2#1#g#e#d#h#i#b#a##.3#S.VQtQtQtQtQtQtQtQtQtQtQtQtQtQtQt",
"QtQtQtQtQtQtQtQtQtQtQtQtQtQtQtQt.V.V.2.Y.3.4.5.6.7.9#4#5#6#7#8.8.8#8#7#6#5#4.9.7.6.5#w.3.Y.2.V.VQtQtQtQtQtQtQtQtQtQtQtQtQtQtQtQt",
"QtQtQtQtQtQtQtQtQtQtQtQtQtQtQtQtQtQt.V.V.V.X.2.1.Y.0.3#9a.a.a..Z.Za.a.a.#9.3.0.Y.1.2.X.V.V.VQtQtQtQtQtQtQtQtQtQtQtQtQtQtQtQtQtQt",
"QtQtQtQtQtQtQtQtQtQtQtQtQtQtQtQtQtQtQtQtQtQt.V.V.V.V.V.V.V.V.V.V.V.V.V.V.V.V.V.V.V.VQtQtQtQtQtQtQtQtQtQtQtQtQtQtQtQtQtQtQtQtQtQt",
"QtQtQtQtQtQtQtQtQtQtQtQtQtQtQtQtQtQtQtQtQtQtQtQtQtQtQtQtQtQtQtQtQtQtQtQtQtQtQtQtQtQtQtQtQtQtQtQtQtQtQtQtQtQtQtQtQtQtQtQtQtQtQtQt",
"QtQtQtQtQtQtQtQtQtQtQtQtQtQtQtQtQtQtQtQtQtQtQtQtQtQtQtQtQtQtQtQtQtQtQtQtQtQtQtQtQtQtQtQtQtQtQtQtQtQtQtQtQtQtQtQtQtQtQtQtQtQtQtQt"};
