/* XPM */
static char *dummy[]={
"64 64 127 2",
"Qt c None",
".U c #000000",
".V c #000000",
".W c #000000",
"#N c #000000",
".X c #000000",
"#C c #000000",
".Y c #000000",
".0 c #000000",
".8 c #000000",
".1 c #000000",
"#7 c #000000",
"#8 c #000000",
".Z c #000000",
".2 c #000000",
"#s c #000000",
"#h c #000000",
"#Q c #000000",
".9 c #000000",
".3 c #000000",
"#D c #000000",
"#L c #000000",
".4 c #000000",
"#. c #000000",
".5 c #000000",
"#i c #000000",
"#r c #000000",
".7 c #000000",
"## c #000000",
"#2 c #000000",
"#t c #000000",
"#3 c #000000",
"#4 c #000000",
"#5 c #000000",
"#6 c #000000",
".6 c #000000",
"#g c #000000",
"#j c #000000",
"#R c #000000",
"#a c #000000",
"#f c #000000",
"#E c #000000",
"#M c #000000",
"#b c #000000",
"#k c #000000",
"#u c #000000",
"#c c #000000",
"#e c #000000",
"#l c #000000",
"#S c #000000",
"#Z c #000000",
"#0 c #000000",
"#v c #000000",
"#m c #000000",
"#1 c #000000",
"#F c #000000",
"#d c #000000",
"#n c #000000",
"#w c #000000",
"#o c #000000",
"#p c #000000",
"#T c #000000",
"#G c #000000",
"#x c #000000",
"#U c #000000",
"#V c #000000",
"#W c #000000",
"#y c #000000",
"#X c #000000",
"#Y c #000000",
"#z c #000000",
"#A c #000000",
"#B c #000000",
"#H c #000000",
"#O c #000000",
"#I c #000000",
"#P c #000000",
"#J c #000000",
"#K c #000000",
".v c #001111",
".q c #002b2b",
".y c #005477",
".z c #005e7f",
".E c #007faa",
".g c #080808",
".O c #0f0e11",
".x c #1e424f",
".R c #212828",
".r c #260c0c",
".T c #26252c",
".S c #35353a",
"#q c #35383f",
".A c #3d5358",
".# c #444448",
".J c #470000",
".m c #494482",
".u c #4a2121",
".K c #51545b",
".Q c #535353",
".H c #562f1d",
".I c #637a82",
".d c #6d3300",
".D c #72472d",
".t c #750000",
".h c #797a7c",
".C c #838384",
".n c #84393a",
".s c #870000",
".w c #871e38",
".L c #8e3314",
".G c #946c45",
".o c #96b2ff",
".c c #996314",
".e c #9e99a6",
".B c #adb2af",
".F c #af001c",
".M c #c09d7b",
".N c #c1bfbc",
".p c #c46555",
".f c #ccd3d6",
".a c #d19e30",
".l c #e5f4ff",
".P c #ef0c23",
".k c #f78c6b",
".i c #f9edd6",
".b c #fcd670",
".j c #ffd8ce",
"QtQtQtQtQtQtQtQtQtQtQtQtQtQtQtQtQtQtQtQtQtQtQtQtQtQtQtQtQtQtQtQtQtQtQtQtQtQtQtQtQtQtQtQtQtQtQtQtQtQtQtQtQtQtQtQtQtQtQtQtQtQtQtQt",
"QtQtQtQtQtQtQtQtQtQtQtQtQtQtQtQtQtQtQtQtQtQtQtQtQtQtQtQtQtQtQtQtQtQtQtQtQtQtQtQtQtQtQtQtQtQtQtQtQtQtQtQtQtQtQtQtQtQtQtQtQtQtQtQt",
"QtQtQtQtQtQtQtQtQtQtQtQtQtQtQtQtQtQtQtQtQtQtQtQtQtQtQtQtQtQtQtQtQtQtQtQtQtQtQtQtQtQtQtQtQtQtQtQtQtQtQtQtQtQtQtQtQtQtQtQtQtQtQtQt",
"QtQtQtQtQtQtQtQtQtQtQtQtQtQtQtQtQtQtQtQtQtQtQtQtQtQtQtQtQtQtQtQtQtQtQtQtQtQtQtQtQtQtQtQtQtQtQtQtQtQtQtQtQtQtQtQtQtQtQtQtQtQtQtQt",
"QtQtQtQtQtQtQtQtQtQtQtQtQtQtQtQtQtQtQtQtQtQtQtQtQtQtQtQtQtQtQtQtQtQtQtQtQtQtQtQtQtQtQtQtQtQtQtQtQtQtQtQtQtQtQtQtQtQtQtQtQtQtQtQt",
"QtQtQtQtQtQtQtQtQtQtQtQtQtQtQtQtQtQtQtQtQtQtQtQtQtQtQtQtQtQtQtQtQtQtQtQtQtQtQtQtQtQtQtQtQtQtQtQtQtQtQtQtQtQtQtQtQtQtQtQtQtQtQtQt",
"QtQtQtQtQtQtQtQtQtQtQtQtQtQtQtQtQtQtQtQtQtQtQtQtQtQtQtQtQtQtQtQtQtQtQtQtQtQtQtQtQtQtQtQtQtQtQtQtQtQtQtQtQtQtQtQtQtQtQtQtQtQtQtQt",
"QtQtQtQtQtQtQtQtQtQtQtQtQt.#.#.#QtQtQtQtQtQtQtQtQtQt.a.b.a.c.c.c.c.d.dQtQtQtQtQtQtQtQtQtQtQtQtQtQtQtQtQtQtQtQtQtQtQtQtQtQtQtQtQt",
"QtQtQtQtQtQtQtQtQtQtQtQtQt.#.e.f.#QtQtQtQtQtQtQtQt.aQt.c.c.a.c.c.c.c.c.c.dQtQtQtQtQtQtQtQtQtQtQtQtQtQtQtQtQtQtQtQtQtQtQtQtQtQtQt",
"QtQtQtQtQtQtQtQtQtQtQtQtQt.#.f.g.f.#QtQtQtQtQtQtQtQt.c.a.a.a.a.c.c.a.a.c.c.dQtQtQtQtQtQtQtQtQtQtQtQtQtQtQtQtQtQtQtQtQtQtQtQtQtQt",
"QtQtQtQtQtQtQtQtQtQtQtQtQtQt.#.f.e.h.#QtQt.g.#.#.#.c.a.b.b.a.b.a.a.c.a.a.c.c.dQtQtQtQtQtQtQtQtQtQtQtQtQtQtQtQtQtQtQtQtQtQtQtQtQt",
"QtQtQtQtQtQtQtQtQtQtQtQtQtQtQt.g.#.e.h.gQtQtQt.g.c.a.b.a.a.b.b.b.b.i.b.a.a.c.c.dQtQtQtQtQtQtQtQtQtQtQtQtQtQtQtQtQtQtQtQtQtQtQtQt",
"QtQtQtQtQtQtQtQtQtQtQtQtQtQtQtQtQt.g.h.#.gQtQt.c.a.c.a.i.i.i.b.a.a.b.i.b.a.d.c.dQtQtQtQtQtQtQtQtQtQtQtQtQtQtQtQtQtQtQtQtQtQtQtQt",
"QtQtQtQtQtQtQtQtQtQtQtQtQtQtQtQtQtQt.g.e.#.g.c.a.c.a.b.i.b.i.b.i.i.a.i.i.a.c.d.c.dQtQtQtQtQtQtQtQtQtQtQtQtQtQtQtQtQtQtQtQtQtQtQt",
"QtQtQtQtQtQtQtQtQtQtQtQtQtQtQtQtQtQtQt.#.h.#.#.c.a.a.a.i.a.i.i.b.i.i.a.i.b.a.d.d.dQtQtQtQtQtQtQtQtQtQtQtQtQtQtQtQtQtQtQtQtQtQtQt",
"QtQtQtQtQtQtQtQtQtQtQtQtQtQtQtQtQtQtQt.g.#.#.e.a.c.b.a.b.c.b.i.c.j.i.a.i.d.a.c.d.d.dQtQtQtQtQtQtQtQtQtQtQtQtQtQtQtQtQtQtQtQtQtQt",
"QtQtQtQtQtQtQtQtQtQtQtQtQtQtQtQtQtQtQtQt.g.h.c.a.c.b.c.b.g.g.i.k.c.g.g.b.c.d.a.cQtQtQtQtQtQtQtQtQtQtQtQtQtQtQtQtQtQtQtQtQtQtQtQt",
"QtQtQtQtQtQtQtQtQtQtQtQtQtQtQtQtQtQtQtQt.g.h.e.h.d.a.c.a.l.m.k.k.j.m.l.a.n.c.d.dQtQtQtQtQtQtQtQtQtQtQtQtQtQtQtQtQtQtQtQtQtQtQtQt",
"QtQtQtQtQtQtQtQtQtQtQtQtQtQtQtQtQtQtQtQtQt.h.f.#.d.a.d.d.j.o.j.k.j.o.j.p.n.c.d.d.dQtQtQtQtQtQtQtQtQtQtQtQtQtQtQtQtQtQtQtQtQtQtQt",
"QtQtQtQtQtQtQtQtQtQtQtQtQtQtQtQtQtQtQtQtQt.g.e.l.q.c.d.n.k.j.j.j.j.j.k.n.d.c.dQtQtQtQtQtQtQtQtQtQtQtQtQtQtQtQtQtQtQtQtQtQtQtQtQt",
"QtQtQtQtQtQtQtQtQtQtQtQtQtQtQtQtQtQtQt.g.g.g.h.f.q.d.d.r.p.k.j.j.j.k.p.r.d.dQtQtQtQtQtQtQtQtQtQtQtQtQtQtQtQtQtQtQtQtQtQtQtQtQtQt",
"QtQtQtQtQtQtQtQtQtQtQtQtQtQtQtQtQtQtQt.s.g.#.g.g.l.q.d.t.u.n.p.p.p.n.u.q.v.dQtQtQtQtQtQtQtQtQtQtQtQtQtQtQtQtQtQtQtQtQtQtQtQtQtQt",
"QtQtQtQtQtQtQtQtQtQtQtQtQtQtQtQtQtQtQt.g.g.#.h.#.q.q.d.w.t.r.r.r.r.r.t.q.v.x.qQtQtQtQtQtQtQtQtQtQtQtQtQtQtQtQtQtQtQtQtQtQtQtQtQt",
"QtQtQtQtQtQtQtQtQtQtQtQtQtQtQtQtQtQtQt.g.s.#.y.q.z.q.A.t.q.q.A.B.B.C.x.q.v.x.x.qQtQtQtQtQtQtQtQtQtQtQtQtQtQtQtQtQtQtQtQtQtQtQtQt",
"QtQtQtQtQtQtQtQtQtQtQtQtQtQtQtQtQtQtQtQt.g.h.q.D.q.x.x.t.x.x.x.q.x.E.z.q.v.x.q.nQtQtQtQtQtQtQtQtQtQtQtQtQtQtQtQtQtQtQtQtQtQtQtQt",
"QtQtQtQtQtQtQtQtQtQtQtQtQtQtQtQtQtQtQtQtQt.q.x.A.A.x.q.F.A.A.G.H.x.D.q.v.A.I.A.G.qQtQtQtQtQtQtQtQtQtQtQtQtQtQtQtQtQtQtQtQtQtQtQt",
"QtQtQtQtQtQtQtQtQtQtQtQtQtQtQtQtQtQtQtQtQt.u.q.x.A.x.q.F.q.x.x.q.x.q.q.v.q.D.G.G.qQtQtQtQtQtQtQtQtQtQtQtQtQtQtQtQtQtQtQtQtQtQtQt",
"QtQtQtQtQtQtQtQtQtQtQtQtQtQtQtQtQtQtQtQtQt.u.n.q.x.q.#.F.t.x.G.H.x.D.q.v.n.A.I.A.DQtQtQtQtQtQtQtQtQtQtQtQtQtQtQtQtQtQtQtQtQtQtQt",
"QtQtQtQtQtQtQtQtQtQtQtQtQtQtQtQtQtQtQtQtQt.p.p.n.uQt.J.t.F.x.x.q.x.q.q.v.e.q.A.n.n.qQtQtQtQtQtQtQtQtQtQtQtQtQtQtQtQtQtQtQtQtQtQt",
"QtQtQtQtQtQtQtQtQtQtQtQtQtQtQtQtQtQtQtQt.n.k.p.n.uQt.J.t.F.v.v.v.v.v.v.v.v.q.n.p.n.q.KQtQtQtQtQtQtQtQtQtQtQtQtQtQtQtQtQtQtQtQtQt",
"QtQtQtQtQtQtQtQtQtQtQtQtQtQtQtQtQtQtQtQt.q.A.I.p.nQt.J.J.t.L.L.v.q.v.v.q.v.g.n.k.p.n.h.KQtQtQtQtQtQtQtQtQtQtQtQtQtQtQtQtQtQtQtQt",
"QtQtQtQtQtQtQtQtQtQtQtQtQtQtQtQtQtQtQtQt.q.G.A.G.q.v.q.t.t.q.v.v.x.t.t.J.q.v.n.k.k.n.h.h.KQtQtQtQtQtQtQtQtQtQtQtQtQtQtQtQtQtQtQt",
"QtQtQtQtQtQtQtQtQtQtQtQtQtQtQtQtQtQtQt.J.q.I.M.A.q.q.J.F.F.v.q.v.q.t.F.F.t.J.k.n.k.n.h.h.h.#QtQtQtQtQtQtQtQtQtQtQtQtQtQtQtQtQtQt",
"QtQtQtQtQtQtQtQtQtQtQtQtQtQtQtQtQt.J.J.q.A.M.A.A.q.q.J.F.v.q.x.q.x.q.J.t.F.t.J.n.p.n.#.e.e.h.#QtQtQtQtQtQtQtQtQtQtQtQtQtQtQtQtQt",
"QtQtQtQtQtQtQtQtQtQtQtQtQtQtQtQt.J.J.J.q.p.k.A.J.J.J.J.F.v.x.A.q.A.x.J.J.t.F.t.t.k.n.g.h.e.e.KQtQtQtQtQtQtQtQtQtQtQtQtQtQtQtQtQt",
"QtQtQtQtQtQtQtQtQtQtQtQtQtQtQt.J.J.J.J.n.k.n.k.n.J.J.F.G.q.D.D.v.A.A.q.J.J.J.J.J.t.t.g.#.N.e.hQtQtQtQtQtQtQtQtQtQtQtQtQtQtQtQtQt",
"QtQtQtQtQtQtQtQtQtQtQtQtQtQt.J.J.J.J.F.n.k.j.n.k.J.F.t.G.v.D.G.O.q.D.q.J.J.F.P.P.F.t.t.#.N.N.e.#QtQtQtQtQtQtQtQtQtQtQtQtQtQtQtQt",
"QtQtQtQtQtQtQtQtQtQtQtQtQt.Q.J.J.J.t.t.n.k.p.p.J.P.F.G.O.O.O.O.O.v.D.q.D.t.J.P.F.F.F.t.R.N.N.N.KQtQtQtQtQtQtQtQtQtQtQtQtQtQtQtQt",
"QtQtQtQtQtQtQtQtQtQtQtQtQt.Q.Q.J.J.R.t.J.p.k.p.P.P.t.v.R.R.O.O.O.R.v.v.D.t.F.t.P.F.F.t.R.Q.N.N.h.#QtQtQtQtQtQtQtQtQtQtQtQtQtQtQt",
"QtQtQtQtQtQtQtQtQtQtQtQtQt.QQt.J.Q.t.Q.R.t.F.F.F.P.t.R.R.R.R.O.O.R.S.R.R.q.F.t.P.P.F.t.R.Q.h.h.h.#QtQtQtQtQtQtQtQtQtQtQtQtQtQtQt",
"QtQtQtQtQtQtQtQtQtQtQtQtQt.Q.QQtQtQt.h.R.t.F.F.P.F.R.R.Q.R.R.R.R.S.Q.C.Q.R.F.F.t.P.F.Q.R.Q.#.#.#.#QtQtQtQtQtQtQtQtQtQtQtQtQtQtQt",
"QtQtQtQtQtQtQtQtQtQtQtQtQt.Q.QQtQtQt.h.R.t.F.P.P.t.R.Q.Q.R.R.R.R.Q.C.C.C.Q.t.F.t.P.P.Q.RQtQtQtQtQtQtQtQtQtQtQtQtQtQtQtQtQtQtQtQt",
"QtQtQtQtQtQtQtQtQtQtQtQtQt.QQtQtQtQt.Q.R.Q.F.P.P.Q.R.Q.Q.Q.R.R.R.Q.C.C.C.Q.S.F.F.P.B.R.QQtQtQtQtQtQtQtQtQtQtQtQtQtQtQtQtQtQtQtQt",
"QtQtQtQtQtQtQtQtQtQtQtQtQtQtQtQtQtQtQt.R.Q.P.P.F.O.C.Q.Q.Q.Q.R.R.Q.B.B.B.Q.S.t.F.B.R.h.QQtQtQtQtQtQtQtQtQtQtQtQtQtQtQtQtQtQtQtQt",
"QtQtQtQtQtQtQtQtQtQtQtQtQtQtQtQtQtQtQt.Q.R.B.P.F.O.R.R.K.Q.Q.R.R.Q.C.B.C.Q.R.R.h.Q.h.BQtQtQtQtQtQtQtQtQtQtQtQtQtQtQtQtQtQtQtQtQt",
"QtQtQtQtQtQtQtQtQtQtQtQtQtQtQtQtQtQtQtQt.h.R.B.hQt.O.B.Q.Q.R.R.O.T.Q.C.Q.S.R.R.Q.h.BQtQtQtQtQtQtQtQtQtQtQtQtQtQtQtQtQtQtQtQtQtQt",
"QtQtQtQtQtQtQtQtQtQtQtQtQtQtQtQtQtQtQtQt.B.h.Q.QQt.O.R.R.R.R.T.O.O.R.R.R.R.OQt.h.BQtQtQtQtQtQtQtQtQtQtQtQtQtQtQtQtQtQtQtQtQtQtQt",
"QtQtQtQtQtQtQtQtQtQtQtQtQtQtQtQtQtQtQtQtQt.B.B.hQt.O.O.O.O.O.OQt.O.H.D.D.H.OQtQtQtQtQtQtQtQtQtQtQtQtQtQtQtQtQtQtQtQtQtQtQtQtQtQt",
"QtQtQtQtQtQtQtQtQtQtQtQtQtQtQtQtQtQtQtQtQtQt.U.U.U.r.H.D.D.H.O.U.O.O.K.S.O.O.U.U.U.UQtQtQtQtQtQtQtQtQtQtQtQtQtQtQtQtQtQtQtQtQtQt",
"QtQtQtQtQtQtQtQtQtQtQtQtQtQtQtQtQtQt.U.U.U.V.W.X.Y.O.T.T.T.T.O.Z.O.H.O.O.H.O.0.Y.X.W.V.U.U.UQtQtQtQtQtQtQtQtQtQtQtQtQtQtQtQtQtQt",
"QtQtQtQtQtQtQtQtQtQtQtQtQtQtQtQt.U.U.W.Y.1.2.3.4.5.O.O.O.O.O.g.6.T.O.D.D.O.O.7.5.4.3.2.1.Y.W.U.UQtQtQtQtQtQtQtQtQtQtQtQtQtQtQtQt",
"QtQtQtQtQtQtQtQtQtQtQtQtQtQtQt.U.W.8.9#.##.6#a#b#c.O.O.O.O.O.O#d.T.H.S.S.H.O#e#c#b#f#g###..9.8.W.UQtQtQtQtQtQtQtQtQtQtQtQtQtQtQt",
"QtQtQtQtQtQtQtQtQtQtQtQtQtQt.U.X#h#i#j#k#l#m#n#o#p.O.T.S.S.T.O.T.T#q.D.D.S.O.g#p#o#n#m#l#k#j#r#h.X.UQtQtQtQtQtQtQtQtQtQtQtQtQtQt",
"QtQtQtQtQtQtQtQtQtQtQtQtQt.U.W#s#t#u#v#w#x#y#z#A#B.O.S.S.S.T.O.T.T.S.Q.S.T.O.O#B#A#z#y#x#w#v#u#t#s.W.UQtQtQtQtQtQtQtQtQtQtQtQtQt",
"QtQtQtQtQtQtQtQtQtQtQtQtQt.U#C#D#E#F#G#z#H#I#J#J#J#J.g.O.O.g#K.T.S.K.C.K.S.T.O#J#J#J#I#H#z#G#F#E#D#C.UQtQtQtQtQtQtQtQtQtQtQtQtQt",
"QtQtQtQtQtQtQtQtQtQtQtQtQt.U#C#L#E#F#x#z#H#I#J#J#J#J#J#K#K#K#K.T.K.C.C.C.K.T.O#J#J#J#I#H#z#x#F#M#L#C.UQtQtQtQtQtQtQtQtQtQtQtQtQt",
"QtQtQtQtQtQtQtQtQtQtQtQtQt.U#N#s#t#u#v#w#x#y#z#A#B#H#O#O#I#P#P#J.T.K.K.K.S.O#H#B#A#z#y#x#w#v#u#t#s#N.UQtQtQtQtQtQtQtQtQtQtQtQtQt",
"QtQtQtQtQtQtQtQtQtQtQtQtQtQt.U.X#Q#r#R#u#S#m#n#o#p#T#U#V#W#X#Y#Y#Y#Y#X#W#V#U#T#p#o#n#m#S#u#R#r#Q.X.UQtQtQtQtQtQtQtQtQtQtQtQtQtQt",
"QtQtQtQtQtQtQtQtQtQtQtQtQtQtQt.U#N.1.9#.###g#f#b#c#e#Z#0#v#1#F#d#d#F#1#v#0#Z#e#c#b#f#g###..9.1#N.UQtQtQtQtQtQtQtQtQtQtQtQtQtQtQt",
"QtQtQtQtQtQtQtQtQtQtQtQtQtQtQtQt.U.U.W.Y.1.2.3.4.5.7#2#3#4#5#6.6.6#6#5#4#3#2.7.5.4.3#s.1.Y.W.U.UQtQtQtQtQtQtQtQtQtQtQtQtQtQtQtQt",
"QtQtQtQtQtQtQtQtQtQtQtQtQtQtQtQtQtQt.U.U.U.V.W.X.Y.0.1#7#8#8#8.Z.Z#8#8#8#7.1.0.Y.X.W.V.U.U.UQtQtQtQtQtQtQtQtQtQtQtQtQtQtQtQtQtQt",
"QtQtQtQtQtQtQtQtQtQtQtQtQtQtQtQtQtQtQtQtQtQt.U.U.U.U.U.U.U.U.U.U.U.U.U.U.U.U.U.U.U.UQtQtQtQtQtQtQtQtQtQtQtQtQtQtQtQtQtQtQtQtQtQt",
"QtQtQtQtQtQtQtQtQtQtQtQtQtQtQtQtQtQtQtQtQtQtQtQtQtQtQtQtQtQtQtQtQtQtQtQtQtQtQtQtQtQtQtQtQtQtQtQtQtQtQtQtQtQtQtQtQtQtQtQtQtQtQtQt",
"QtQtQtQtQtQtQtQtQtQtQtQtQtQtQtQtQtQtQtQtQtQtQtQtQtQtQtQtQtQtQtQtQtQtQtQtQtQtQtQtQtQtQtQtQtQtQtQtQtQtQtQtQtQtQtQtQtQtQtQtQtQtQtQt"};
