/* XPM */
static char *dummy[]={
"64 128 143 2",
"al c #000000",
"#L c #001111",
"#F c #002b2b",
"#M c #005477",
"#Q c #005e7f",
"#U c #007faa",
"#T c #009900",
"#n c #080808",
"ah c #0f0e11",
"#J c #1e424f",
"ai c #212828",
"#D c #260c0c",
"ak c #26252c",
"aj c #35353a",
"am c #35383f",
".2 c #383f4a",
".g c #383f4b",
"#f c #383f4c",
".1 c #38404c",
".e c #393f4b",
"Qt c #3a404b",
".h c #3a404c",
"#X c #3d4046",
".d c #3d4047",
"#I c #3d5358",
".f c #3f4148",
".i c #404248",
"#9 c #424349",
".# c #434245",
"aa c #43434a",
"#5 c #44434a",
"#g c #444448",
".j c #44444b",
"#C c #46413d",
".a c #46413e",
"#N c #470000",
".s c #474242",
"a# c #474548",
".k c #47464d",
"#w c #494482",
"#S c #494649",
"#H c #4a2121",
"#a c #4a4138",
".b c #4a423a",
".t c #4a433e",
"ab c #4b4440",
".l c #4b4951",
".c c #4c423a",
".m c #4d484c",
".u c #4e4541",
"#q c #4f443c",
"#W c #50443c",
"#B c #50453d",
"a. c #51453d",
".Q c #514743",
"ad c #51545b",
"#3 c #53463f",
"#K c #535353",
".E c #54473f",
"#R c #544845",
".n c #544946",
".q c #554840",
".r c #554a47",
"#2 c #562f1d",
".p c #584a43",
".o c #584a44",
"#7 c #584a47",
".D c #584d4d",
".v c #5a4d4b",
"#r c #5b4b44",
"#6 c #5b4c48",
"#t c #5c4b43",
"#A c #5d4b43",
".5 c #5e4d45",
"#8 c #5e4d48",
"#4 c #5f4f4d",
".3 c #614d45",
".w c #61514f",
".9 c #635049",
"#0 c #637a82",
".4 c #644f48",
"#Y c #645352",
".x c #655451",
".F c #66514a",
".6 c #67524b",
".R c #67544f",
"#c c #68524b",
".X c #68534c",
"#b c #69534d",
".W c #69544d",
".O c #6c564f",
".Z c #6c5650",
".y c #6c5959",
"#k c #6d3300",
"#. c #6d5650",
".8 c #6e5651",
".Y c #6e5751",
".G c #6f5750",
".0 c #6f5a56",
".P c #705853",
".A c #705c5c",
".z c #705c5d",
".B c #715c5b",
"#V c #72472d",
".H c #725a55",
"#e c #735a54",
".N c #745b56",
".C c #745d59",
"#G c #750000",
"#d c #755c57",
".S c #785e5a",
"#o c #797a7c",
".V c #7a5f5b",
".T c #7a605b",
".U c #7a605c",
".7 c #7c615d",
"## c #7d625e",
".I c #7e625e",
".M c #826663",
".K c #836663",
".L c #836764",
"#O c #838384",
"#x c #84393a",
".J c #846763",
"#E c #870000",
"ac c #8e3314",
"#Z c #946c45",
"#y c #96b2ff",
"#j c #996314",
"#l c #9e99a6",
"#P c #adb2af",
"#1 c #af001c",
"ae c #c09d7b",
"af c #c1bfbc",
"#z c #c46555",
"#m c #ccd3d6",
"#h c #d19e30",
"#v c #e5f4ff",
"ag c #ef0c23",
"#u c #f78c6b",
"#p c #f9edd6",
"#i c #fcd670",
"#s c #ffd8ce",
"QtQtQtQtQtQtQtQtQtQtQtQtQtQtQtQtQtQtQt.#.a.b.b.b.b.b.b.c.b.b.b.b.b.b.b.a.d.e.f.g.f.e.h.hQtQt.f.gQt.f.e.h.f.gQtQtQtQt.f.d.a.c.c.b",
"QtQtQtQtQtQtQt.gQt.gQt.g.gQt.g.g.g.g.g.d.a.b.b.b.b.b.b.b.b.b.b.b.b.b.b.a.e.e.g.g.g.g.e.gQt.g.g.g.g.g.e.e.g.g.g.g.gQt.g.d.a.c.c.c",
".h.hQtQtQt.g.gQt.gQtQt.g.g.g.g.g.g.g.g.d.a.b.b.b.b.b.b.b.b.b.b.b.b.b.b.a.e.g.g.g.g.g.g.g.g.g.g.g.g.g.e.e.g.g.g.g.g.g.g.d.a.c.c.c",
".d.d.d.i.j.j.k.k.k.l.l.l.m.l.l.m.l.l.l.m.n.o.p.o.o.o.q.p.o.o.o.o.o.o.p.n.r.l.l.l.l.l.l.l.l.l.l.l.l.l.l.l.l.l.l.l.k.k.k.j.s.a.t.a",
".t.a.a.u.v.w.w.x.y.z.z.z.y.z.z.z.z.A.A.B.B.C.C.C.C.C.C.C.C.C.C.C.C.C.C.C.z.A.A.A.y.z.z.z.z.z.z.y.A.A.z.z.z.z.z.y.x.w.w.D.j.d.d.d",
".c.b.b.E.F.G.G.H.I.J.J.K.L.L.L.L.K.J.K.K.J.M.M.M.M.M.L.M.M.M.M.M.M.M.M.L.J.J.K.J.K.K.L.M.J.L.L.K.K.K.K.J.K.J.L.I.N.G.G.w.k.gQtQt",
".c.c.b.E.F.G.O.H.I.J.K.K.K.K.J.J.L.K.K.K.K.K.M.M.M.M.M.M.M.M.M.M.M.M.M.M.K.K.K.K.K.K.K.K.K.K.K.K.K.M.M.K.K.K.K.I.P.O.O.w.kQtQt.h",
".a.a.a.Q.R.H.H.N.S.T.T.T.T.T.T.T.U.V.S.V.U.I.U.I.V.V.V.V.V.V.V.V.V.V.V.V.V.I.V.I.I.U.I.U.I.I.I.U.V.V.V.U.I.I.U.S.N.N.H.x.k.g.gQt",
".d.d.d.m.y.I.I.S.G.W.W.W.W.W.W.W.X.X.W.G.Y.H.H.P.Z.X.X.X.X.X.X.X.X.X.W.G.H.H.H.H.H.H.H.H.H.H.H.0.Z.X.X.Z.G.H.H.H.V.M.I.y.k.g.g.f",
"Qt.1.2.l.z.J.K.T.X.3.3.3.3.3.3.3.3.3.3.4.X.G.G.x.4.3.4.3.4.3.4.3.3.3.3.4.x.Z.G.W.G.Z.Z.Z.Z.Z.Z.X.4.3.3.4.X.Z.G.H.V.M.K.B.l.g.e.e",
"QtQt.2.l.z.J.K.T.W.3.3.3.3.3.3.3.3.3.5.4.Z.G.Z.X.4.3.5.3.3.3.3.3.3.3.3.4.6.G.Z.Z.Z.Z.Z.Z.Z.Z.G.x.4.3.5.4.Z.Z.W.H.7.K.J.B.l.e.e.e",
"Qt.2Qt.l.B.J.K.T.W.3.3.3.4.3.3.4.4.F.4.F.6.Z.Z.6.4.3.4.3.3.4.3.4.4.4.4.F.Z.Z.G.Z.Z.Z.G.Z.Z.Z.G.Z.F.4.4.F.Z.Z.G.0.I.J.K.B.l.e.e.h",
"Qt.2.2.l.z.K.K.T.W.3.3.4.3.3.3.F.6.X.Z.6.F.F.4.4.4.4.3.3.3.4.3.4.X.Z.x.W.G.G.G.Z.Z.G.Z.Z.8.Z.Z.Z.W.X.Z.Z.Z.Z.Z.H.I.K.L.z.l.g.gQt",
"QtQt.2.l.z.J.K.T.W.3.3.3.3.4.3.F.Z.G.G.Z.4.3.3.4.3.3.3.4.3.3.3.4.X.G.G.Z.Z.G.Z.Z.Z.Z.G.Z.Z.8.8.Z.G.G.Z.Z.G.Z.Z.H.U.K.L.z.l.g.gQt",
"Qt.2.2.l.z.K.K.U.W.3.3.3.3.3.3.F.Z.G.G.W.F.3.3.3.3.3.3.3.3.4.3.4.Z.G.G.Z.G.Z.Z.Z.Z.Z.Z.Z.Z.8.Z.8.Z.Z.G.Z.Z.Z.G.H.I.K.L.z.l.e.g.f",
"QtQt.2.l.z.K.K.U.W.3.3.3.4.F.4.F.X.X.Z.X.4.3.3.4.3.4.3.4.4.F.4.6.X.X.Z.Z.Z.Z.Z.G.G.Z.G.Z.8.Z.8.Z.Z.G.Z.Z.Z.G.Z.H.U.K.L.y.l.e.e.e",
"Qt.gQt.m.y.L.L.U.W.3.3.4.6.W.Z.6.F.9.4.4.4.3.4.3.5.3.4.4.6.Z.Z.6.F.F.F.F.x#..Z.8.Z.8.Z.8.8.Z.Z.8.G.Z.Y.Z.Z.Z.Z.H.U.M.L.z.l.g.gQt",
"QtQtQt.l.z.L.K.U.W.3.3.F.W.G.G.W.F.3.4.3.3.3.4.3.4.3.3.4.X.G.G.X.4.3.5.F.Z#.#..Z.8.Z.8.Z.Z.Z.8.Z.Z.Z.Z.8.Z.Z.Z.H.I.M.M.z.l.gQtQt",
"Qt.g.g.l.z.K.K.U.W.3.3.F.Z.G.G.Z.4.3.3.3.3.4.3.3.4.3.3.4.Z.Y.Y.Z.4.3.3.9.W.Y.Z.8.Z.8.8.Z.8.Z.Z.8.Z.8.Z.Y.G.Z.Z.H.U.M.M.z.m.g.gQt",
"Qt.g.g.k.z.K.K.U.W.4.4.F.X.W.Z.6.4.3.4.3.3.3.3.4.4.4.4.6.X.X.Z.X.F.4.9.F.Z.Z.8.Z.Z.Z.Z.8.Z.8.8.Z.Z.Z.8.Z.Z.Z.Z.H##.M.M.z.l.gQtQt",
"QtQtQt.l.z.K.K.I.Y.W.W.W.F.F.4.F.3.4.3.4.4.3.3.F.6.Z.X.6.F.4.4.F.W.W.W.W.Z.8.Z.8.8.Z.8.Z.8.Z.8.8.Y.Z.8.Z.8.Z.G.H.I.K.J.z.l.g.gQt",
"QtQtQt.l.z.K.K.U.H.G.Y.Z.4.3.3.3.3.3.3.3.3.3.3.9.Z.G.G.Z.4.3.3.F.W.G.Y.Y.Z.8.8.Z.Z.8.Z.8.Z.8.Z.Z.Z.8.Z.8.8.Z.W.H.I.K.J.z.l.e.g.h",
"QtQt.2.k.z.K.K.I.H.G.G.W.4.3.3.3.4.3.4.3.3.3.3.F.W.G.G.Z.F.5.3.4.W.Z.G.G.Z.Z.Z.8.Z.8.8.Z.8.Z.Z.8.Z.8.Z.Z.Z.8.Z.H.T.K.J.z.l.g.g.h",
"Qt.2Qt.l.z.K.K.U.P.W.W.X.F.4.9.F.4.3.3.3.4.F.4.F.X.Z.X.X.F.4.4.9.Z.G.Z.G.8.Z.8.Z.8.Z.8.Z.Z.8.Z.Z.Y.Z.8.Z.Z.Z.Z.B.I.K.J.z.m.d.d.d",
"QtQt.2.k.z.J.J.U.O.4.4.F.W.W.O.W.F.3.3.F.6.W.Z.X.6.F.4.F.X.Z.W.Z.Z.Z.Z.Z.Z.Z.Z.Z.Z.8.Z.Z.8.Z.Z.8.8.Z.Z.Z.Z.Z.Z.H.U.K.K.B.n.a.a.t",
"Qt.1Qt.l.z.L.K.T.W.3.3.4.W.Y.G.W.4.3.3.F.Z.G.G.X.4.3.3.4.X.G.G.G.Z.Z.G.Z.0.Z.G.Z.8.Z.Z.8.Z.8.8.Z.Z.Z.8.G.G.Z.Z.H.U.K.K.C.p.c#a.b",
"Qt.1.1.l.y.L.L.U#b.3.3.4.O.Y.Y.W.F.3.3.4.Z.G.G.W.F.3.3.4.x.G.8.8.G.Z.Z.Z.Z.Z.Z.Z.Z.8.Z.Z.8.Z.Z.8.8.Z.Z.Z.Z.Z.Z.H.I.K.K.H.p#a.b.b",
".d.d.d.m.z.K.L.U.W.4.4.F.W.W.W#c.4.3.3.4.X.W.W.X.F.4.4.6.Z.8.Z.Z.Z.Z.G.Z.G.Z.G.Z.8.Z.8.8.Z.8.8.Z.Z.8.Z.G.Z.Z.Z.H.I.K.K.B.p.b.b.b",
".a.a.a.n.B.J.L.U.P.W.W.W.F.F.F.4.3.3.3.4.F.4.F.F.6.W.Z.Z.Z.Z.Z.8#..Z.Z.8.Z.G.Z.Z.8.Z.8.Z.8.Z.8.Z.8.Z.Z.8.Z.Z.Z.H.I.M.M.C.p.b.b.b",
".b.b#a.p#d.K.L.U#e.Y.Y.W.F.3.3.4.3.4.3.4.3.3.3.4.Z.G.G.Z.Z.Z.G.Z#..Z.8.Z.Z.Z.Z.8.Z.8.Z.8.Z.8.Z.8.Z.8.8.Z.Z.Z.Z.H.U.M.M.C.p.b.b.b",
".b.b.b.p#d.K.K.I.H.Y.O.W.9.3.3.3.3.3.4.3.3.3.3.F.X.Z.Z.Z.Z.Z.Z.Y#..8.Z.8.Z.Z.8.Z.Z.Z.Z.8.Z.8.8.Z.Z.8.Z.8.Z.Z.G.H.I.M.M.C.q.b.b.b",
".c.b.b.p#d.K.K.U.H.O.G.W.F.3.3.3.4.3.3.3.3.4.3.F.Z.G.G.Z.Z.Z.Z.Z.8.Z.8.Z.8.8.Z.8.8.Z.8.Z.8.Z.Z.Z.8.Z.8.Z.G.Z.Z.H.U.M.M.C.o#a.b.b",
".b.b.b.p.B.K.K.I.H.Z.G.W.4.4.3.4.3.4.4.3.3.3.3.4.Z.8.8.8.G.Z.Z.Y.Z.8.Z.8.Z.Z#.#..Z.8.Z.8.Z.Z.Z.8.Z.8.Z.8.Z.Z.Z.H.U.M.M.C.o.b.b.b",
".c.b#a.p.N.K.K.U.H.Z.G.X.4.3.3.3.3.3.3.3.4.3.4.4.x.8.Z.Z.Z.Y.Z.Z.8.Z.8#..8.Z#.#..8.Z.8.Z.Z.8.8.Z.8.Z.Z.Z.G.Z.Z.H.U.M.K.C.o.b.b.b",
".c#a.b.p.C.K.K.I.H.G.G.Z.F.3.3.3.4.3.3.4.3.3.3.F.X.G.8.Z.8.Z.Z.Z.Z.Z#.#.#.#.#.#..Z.8.8.Z.8.Z.8.Z.8.Z.8.Z.Z.Z.Z.H##.M.M.C.p.b.b.c",
".a.a.a.n.B.K.K.V.0.X.W.X.4.3.4.3.3.3.3.4.4.4.4.6.W.G.8.Z.8.Z.G.Z.8.Z#.#.#.#.#.#..Z.8.Z.8.Z.8.Z.8.Z.8.Z.8.Z.G.Z.H##.M.M.z.n.a.a.a",
".d.d.e.r.z.J.J.I.W.4.F.4.4.3.3.3.4.3.4.4.6.x.W.W.G.G.Z.Z.Z.Z.G.Z.G.Z.Z.Z#..Z.8.Z.Z.Z.8.Z.Z.Z.Z.Z.8.Z.8.Z.Z.Z.G.H.I.K.J.z.m.d.d.d",
"Qt.g#f.l.z.L.K.S.X.3.3.3.3.4.3.4.3.3.3.4.Z.G.G.G.Z.Z.Z.G.Z.G.Z.Z.Z.Z.G.Z#..8#..Z.8.Z.Z.8.Z.G.Z.Z.8.Z.Z.8#.#..W.H.U.K.K.z.lQtQtQt",
"Qt.g#f.l.z.L.M.U.X.3.3.4.3.3.3.4.3.3.3.4.6.G.Z.G.G.G.Z.G.Z.Z.Z.Z.Z.Y.G.G#.#.#.#..Z.8.Z.G.Z.G.Z.0.Z.8.Z.Z#..G.Z.H.I.K.L.z.l.2QtQt",
".d.d.e.m.z.L.M.U.X.3.3.3.4#g#g#g.4.F.4.6.Z.G.Z.G.W.X#h#i#h#j#j#j#j#k#k.Z.Z#.#.#..G.Z.Z.Z.Z.Z.Z.8.8.Z.8.Z.Z.x.W.0.U.K.M.y.l.2QtQt",
".t.a.a.n.B.K.K.S.X.4.3.3.3#g#l#m#g.W.Z.x.G.Z.Z.X.6#h.4#j#j#h#j#j#j#j#j#j#k.G.Z.Z.Z.Z.Z.Z.Z.Z.G.Z.G.Z.G.O.F.F.F.W.U.K.J.z.lQtQtQt",
".b.b#a.p#d.J.J.S.X.3.3.4.3#g#m#n#m#g.Z.Z.G.G.G.W.4.3#j#h#h#h#h#j#j#h#h#j#j#k.G.Z.Z.G.Z.G.Z.G.Z.Z.Z.G.G.W.F.3.3.W.T.K.L.z.lQtQtQt",
".c.b#a.p.C.M.J.T.X.4.3.3.3.4#g#m#l#o#g.G.G#n#g#g#g#j#h#i#i#h#i#h#h#j#h#h#j#j#k.8.Z.8.Z.8.Z.Z.Z.Z.Z.G.G.W.F.3.3.W.T.K.K.z.k.g.1Qt",
".b.b.b.p.C.K.K.T.X.3.3.4.4.4.4#n#g#l#o#n.Z.X.Z#n#j#h#i#h#h#i#i#i#i#p#i#h#h#j#j#k.Z.Z.8.Z.Z.Z.Z.Z.W.W.W.F.3.p.o.6.T.K.K.y.l.g.gQt",
".b.b.b.o.C.M.M.V.X.4.3.4.X.X.Z.X.Z#n#o#g#n.4.4#j#h#j#h#p#p#p#i#h#h#i#p#i#h#k#j#k.8.Z.8.Z.8.Z.G.Z.6.F.F.5.E#q#q.5.C.J.J.z.mQtQtQt",
".b.b.b.o.C.K.M.V.X.3.3.4.Z.Z.G.Z.Z.Z#n#l#g#n#j#h#j#h#i#p#i#p#i#p#p#h#p#p#h#j#k#j#k.8.Z.Z.8#..G.W.9.3.3#r#q.b.b.q.C.K.J.z.l.hQtQt",
".b.b.b.o.C.M.M.V.X.3.5.4.X.G.G.Z.G.Z.G#g#o#g#g#j#h#h#h#p#h#p#p#i#p#p#h#p#i#h#k#k#k.Z.8.8.8.G.G.Z.F.3.3.5#q.b.b.o.C.K.K.z.k.2.1Qt",
".a.a.a.r.C.M.M.U.Z.4.4.6.Z.G.G.G.x.Z.X#n#g#g#l#h#j#i#h#i#j#i#p#j#s#p#h#p#k#h#j#k#k#k.Z.Z.Z.x.W.6.F.3.3#t#q.b.b.o.C.K.J.z.l.2QtQt",
".d.d.e.r.z.J.K.U.P.X.X.Z.Z.Z.Z.Z.F.4.4.F#n#o#j#h#j#i#j#i#n#n#p#u#j#n#n#i#j#k#h#j.G.Z.G.G.F.F.F.F.3.4.3.5#q.b.b.n.C.J.J.B.l.g.gQt",
"Qt.g#f.l.z.J.K.I.H.G.Z.G.Z.G.G.X.F.3.3.F#n#o#l#o#k#h#j#h#v#w#u#u#s#w#v#h#x#j#k#k.Z.Z.G.W.4.3.3.3.3.3.3#t#q.b.b.q.C.J.J.z.l.gQtQt",
"Qt.g#f.l.z.M.M.U.H.G.G.Z.G.G.G.Z.4.3.3.4.W#o#m#g#k#h#k#k#s#y#s#u#s#y#s#z#x#j#k#k#k.G.G.W.F.3.3.3.3.3.3#A#B.b.b.n.C.J.J.z.l.g.gQt",
".d.d.e.m.z.M.M.I.H.O.W.G.W.W.x.6.F.3.3.F.W#n#l#v#n#j#k#x#u#s#s#s#s#s#u#x#k#j#k.Z.W.x.W.X.4.3.3.3.F.F.F.3.q#q#q.5.C.J.K.B.m.d.d.d",
".t.a#C.n.C.K.M.I.H.Z.G.W.6.F.4.4.4.3.3#n#n#n#o#m#l#k#k#D#z#u#s#s#s#u#z#D#k#k.Z.Z#c.4.4.4.4.3.3.F#c.W.Z.6.5.o#t.F.T.K.K.B.n.a.a.a",
".b.b#a.p.C.K.M.I.H.Z.G.Z.4.3.3.3.3.3.3#E#n#g#n#n#v#F#k#G#H#x#z#z#z#x#H#I#F#k.G.X.F.3.3.3.3.3.3.F.W.G.G.W.F.3.3.W.T.K.K.C.p.b.c.c",
".c.c#a.p.C.M.M##.H.Z.G.W.4.3.3.4.3.3.3#n#n#g#o#g#F#J#k#G#K#D#D#D#D#D#F#L#I#F#F.W.F.3.3.3.3.3.3.F.W.G.G.Z.F.3.3.W.T.K.K.C.p#a#a.c",
".a.a.a.n.H.I.I.C.Y.X.W.X.4.4.3.3.4.4.F#n#E#g#M#F#J#J#N#G#J#O#P#O#I#J#F#L#I#F#Q#F.F.3.3.4.4.4.F.F.W.O.W.6.3#t#t.F#d.I.I.0#R.a.a.t",
".#.d.e#S.x.H.H.G.X.F.4.4.4.4.3.4.X.W.O.W#n#o#T#x#F#J#N#G#F#J#J#F#J#U#Q#L#J#J#F#V#F.3.4.4#c.O.W.X.F.F.F.5.E#q#W.p.W#d#d.R#S#X.d.d",
".e.g.g.k#Y.G.G.Z.4.4.3.4.3.3.4.4.W.G.G.G.G#n#F#Z#I#0#N#1#F#V#J#2#Z#J#F#L#F#J#I#I#J#F.3.F.O.O.G.O.F.3.3#A#W.b#a#3.F.G.O.w.k.1QtQt",
".e.e.e.k#4.G.G.X.4.4.3.3.3.4.3.4.O.G.G.G.Z.G#F#Z#Z#V#G#1#F#F#J#F#J#J#F#L#F#J#I#J#F#H.3.F.O.G.G.W.4.4.3.5#W.b.b#3.F.Y.Y.w.k.1QtQt",
".e.f.d#5.v.6.4.4.v.n.o#6#t.3#r#r.v#Y#4.w.w.F#V#I#0#I#G#1#F#V#J#2#Z#J#F#L#l#F#J#F#x#H#t.5.4#4#Y.v.v.o#7#R#q.a.a.Q#8.F.R.v#9.1QtQt",
".t.a.a.ta..E.E.Qa#aa#5ab#qa.a..u#S.k.j#S.Q#F#x#x#I#F#G#1#G#F#J#F#J#J#F#L#L#l#H#x#z#z#B.u#S.k.k.j.j#5#5.i.i.d.d.#.u.E.q.u.fQtQtQt",
".b.c.c.c.b.b.b#C.e.e.e.e.a.b.c.a.dQt#f#X.a#F#x#z#x#F#N#G#G#L#L#L#L#L#L#L#L#o#H#x#z#u#x.a.d.g.g.g.gQtQtQt.h.h.h.d.a.b.b.a.dQtQtQt",
".c.c.c.c.b.c.b.t.#.e.e.f.a.c.c.a.dQtQt.d.a#x#z#u#x.h#N#N#Nacac#L#F#L#L#F#L#n#x#z#0#I#Fad.d.g.gQtQtQtQtQtQt.h.h.d.a.c.b.a.d.h.hQt",
".b.b.c.b.b.c.b.t.e.e.g.e.t.c.c.a.dQtQt.d.a#x#u#u#x#L#F#N#G#G#J#L#L#F#G#G#F#L#F#Z#I#Z#F#oadQtQtQtQtQtQtQtQtQt.h.d.a.c.c.a.dQtQtQt",
"QtQtQtQtQtQtQtQtQtQtQtQtQtQtQtQtQtQt#N#N#N#x#u#x#u#N#G#1#1#G#F#L#F#L#1#1#N#F#F#Iae#0#F#o#o#g.f.gQt.f.e.h.f.gQtQtQtQt.f.d.a.c.c.b",
"QtQtQtQtQtQtQt.gQt.gQt.g.gQt.g.g#N#N#N#N#N#x#z#x#N#G#1#G#N#F#J#F#J#F#L#1#N#F#F#I#Iae#I#F#l#o#g.g.g.g.e.e.g.g.g.g.gQt.g.d.a.c.c.c",
".h.hQtQtQt.g.gQt.gQtQt.g.g.g#N#N#N#N#N#N#N#x#u#G#G#1#G#N#N#J#I#F#I#J#L#1#N#N#N#N#I#u#z#F#l#lad.g.g.g.e.e.g.g.g.g.g.g.g.d.a.c.c.c",
".d.d.d.i.j.j.k.k.k.l.l.l.m#N#N#N#N#N.l.m.n#G#G#N#N#N#N#N#F#I#I#L#V#V#F#Z#1#N#N#x#u#x#u#xaf#l#o.l.l.l.l.l.l.l.l.l.k.k.k.j.s.a.t.a",
".t.a.a.u.v.w.w.x.y.z.z.z#K#K#K#N.z.A.A#1#G#G#1agag#1#N#N#F#V#Fah#Z#V#L#Z#G#1#N#u#x#s#u#xafaf#l#g.A.A.z.z.z.z.z.y.x.w.w.D.j.d.d.d",
".c.b.b.E.F.G.G.H.I.J.J#K#K.L#K#K#O#1#1ai#G#1#1#1ag#N#G#V#F#V#Lahahahahah#Z#1ag#N#z#z#u#xafafafad.K.K.K.J.K.J.L.I.N.G.G.w.k.gQtQt",
".c.c.b.E.F.G.O.H.I.J.K#K#K#K.J#P#N.K#Kai#G#1#1ag#G#1#G#V#L#Laiahahahaiai#L#Gagag#z#u#z#N#lafaf#o#g.M.M.K.K.K.K.I.P.O.O.w.kQtQt.h",
".a.a.a.Q.R.H.H.N.S.T.T.T.T.T.T#O#K#N#Kai#G#1agag#G#1#Faiaiajaiahahaiaiaiai#Gag#1#1#1#Gai#K#o#o#o#g.V.V.U.I.I.U.S.N.N.H.x.k.g.gQt",
".d.d.d.m.y.I.I.S.G.W.W.W.W.W#P#O#O#K#Kai#K#1ag#G#1#1ai#K#O#Kajaiaiaiai#Kaiai#1ag#1#1#Gai#o#g#g#g#g.X.X.Z.G.H.H.H.V.M.I.y.k.g.g.f",
"Qt.1.2.l.z.J.K.T.X.3.3.3.3.3#O#K#K.3.3ai#Kagag#G#1#G#K#O#O#O#Kaiaiaiai#K#Kai#Gagag#1#Gai#o.Z.Z.X.4.3.3.4.X.Z.G.H.V.M.K.B.l.g.e.e",
"QtQt.2.l.z.J.K.T.W.3.3.3.3.3.3.3.3.3.5#Kai#Pag#1#1ai#K#O#O#O#Kaiaiai#K#K#Kaiahagag#1#Kai#K.Z.G.x.4.3.5.4.Z.Z.W.H.7.K.J.B.l.e.e.e",
"Qt.2Qt.l.B.J.K.T.W.3.3.3.4.3.3.4.4.F.4#K#oai#P#1#G#O#K#P#P#P#Kaiai#K#K#K#Kaiah#1agag#Kai.Z.Z.G.Z.F.4.4.F.Z.Z.G.0.I.J.K.B.l.e.e.h",
"Qt.2.2.l.z.K.K.T.W.3.3.4.3.3.3.F.6.X.Z.6#P#o#K#oaiaiad#O#P#O#Kaiai#K#K#K#Kaiah#1ag#Pai#K.8.Z.Z.Z.W.X.Z.Z.Z.Z.Z.H.I.K.L.z.l.g.gQt",
"QtQt.2.l.z.J.K.T.W.3.3.3.3.4.3.F.Z.G.G.Z.4#P#o#Kai#Pai#K#O#Kakahaiai#K#Kaiah.Z#o#Pai#o.Z.Z.8.8.Z.G.G.Z.Z.G.Z.Z.H.U.K.L.z.l.g.gQt",
"Qt.2.2.l.z.K.K.U.W.3.3.3.3.3.3.F.Z.G.G.W.F.3#P#o.3ahaiaiaiaiahahakaiaiaiaiah.Z#K#K#o#P.Z.Z.8.Z.8.Z.Z.G.Z.Z.Z.G.H.I.K.L.z.l.e.g.f",
"QtQt.2.l.z.K.K.U.W.3.3.3.4.F.4.F.X.X.Z.X.4.3.3.4.3ah#2#V#V#2ah.6ahahahahahah.Z#o#P#P.G.Z.8.Z.8.Z.Z.G.Z.Z.Z.G.Z.H.U.K.L.y.l.e.e.e",
"Qt.gQt.m.y.L.L.U.W.3.3.4.6.W.Z.6.F.9.4.4.4.3alalalahahajadahahal#D#2#V#V#2ahalalalal.Z.8.8.Z.Z.8.G.Z.Y.Z.Z.Z.Z.H.U.M.L.z.l.g.gQt",
"QtQtQt.l.z.L.K.U.W.3.3.F.W.G.G.W.F.3alalalalalalalah#2ahah#2ahalahakakakakahalalalalalalalal.8.Z.Z.Z.Z.8.Z.Z.Z.H.I.M.M.z.l.gQtQt",
"Qt.g.g.l.z.K.K.U.W.3.3.F.Z.G.G.Zalalalalalalalalalahah#V#Vahakal#nahahahah#nalalalalalalalalalal.Z.8.Z.Y.G.Z.Z.H.U.M.M.z.m.g.gQt",
"Qt.g.g.k.z.K.K.U.W.4.4.F.X.W.Zalalalalalalalalalalah#2ajaj#2akalahahahahahahalalalalalalalalalalal.Z.8.Z.Z.Z.Z.H##.M.M.z.l.gQtQt",
"QtQtQt.l.z.K.K.I.Y.W.W.W.F.Falalalalalalalalalalahahaj#V#Vamakakahakajajakahalalalalalalalalalalalal.8.Z.8.Z.G.H.I.K.J.z.l.g.gQt",
"QtQtQt.l.z.K.K.U.H.G.Y.Z.4alalalalalalalalalalalahahakaj#Kajakakahakajajajahalalalalalalalalalalalalal.8.8.Z.W.H.I.K.J.z.l.e.g.h",
"QtQt.2.k.z.K.K.I.H.G.G.W.4alalalalalalalalalalalahakajad#Oadajakal#nahah#nalalalalalalalalalalalalalal.Z.Z.8.Z.H.T.K.J.z.l.g.g.h",
"Qt.2Qt.l.z.K.K.U.P.W.W.X.Falalalalalalalalalalal#nakad#O#O#Oadakalalalalalalalalalalalalalalalalalalal.Z.Z.Z.Z.B.I.K.J.z.m.d.d.d",
"QtQt.2.k.z.J.J.U.O.4.4.F.Walalalalalalalalalalalalahajadadadakalalalalalalalalalalalalalalalalalalalal.Z.Z.Z.Z.H.U.K.K.B.n.a.a.t",
"Qt.1Qt.l.z.L.K.T.W.3.3.4.W.Yalalalalalalalalalalalalalalalalalalalalalalalalalalalalalalalalalalalal.8.G.G.Z.Z.H.U.K.K.C.p.c#a.b",
"Qt.1.1.l.y.L.L.U#b.3.3.4.O.Y.Yalalalalalalalalalalalalalalalalalalalalalalalalalalalalalalalalalal.Z.Z.Z.Z.Z.Z.H.I.K.K.H.p#a.b.b",
".d.d.d.m.z.K.L.U.W.4.4.F.W.W.W#calalalalalalalalalalalalalalalalalalalalalalalalalalalalalalalal.Z.8.Z.G.Z.Z.Z.H.I.K.K.B.p.b.b.b",
".a.a.a.n.B.J.L.U.P.W.W.W.F.F.F.4.3.3alalalalalalalalalalalalalalalalalalalalalalalalalalalal.8.Z.8.Z.Z.8.Z.Z.Z.H.I.M.M.C.p.b.b.b",
".b.b#a.p#d.K.L.U#e.Y.Y.W.F.3.3.4.3.4.3.4.3.3alalalalalalalalalalalalalalalalalalalal.Z.8.Z.8.Z.8.Z.8.8.Z.Z.Z.Z.H.U.M.M.C.p.b.b.b",
".b.b.b.p#d.K.K.I.H.Y.O.W.9.3.3.3.3.3.4.3.3.3.3.F.X.Z.Z.Z.Z.Z.Z.Y#..8.Z.8.Z.Z.8.Z.Z.Z.Z.8.Z.8.8.Z.Z.8.Z.8.Z.Z.G.H.I.M.M.C.q.b.b.b",
".c.b.b.p#d.K.K.U.H.O.G.W.F.3.3.3.4.3.3.3.3.4.3.F.Z.G.G.Z.Z.Z.Z.Z.8.Z.8.Z.8.8.Z.8.8.Z.8.Z.8.Z.Z.Z.8.Z.8.Z.G.Z.Z.H.U.M.M.C.o#a.b.b",
".b.b.b.p.B.K.K.I.H.Z.G.W.4.4.3.4.3.4.4.3.3.3.3.4.Z.8.8.8.G.Z.Z.Y.Z.8.Z.8.Z.Z#.#..Z.8.Z.8.Z.Z.Z.8.Z.8.Z.8.Z.Z.Z.H.U.M.M.C.o.b.b.b",
".c.b#a.p.N.K.K.U.H.Z.G.X.4.3.3.3.3.3.3.3.4.3.4.4.x.8.Z.Z.Z.Y.Z.Z.8.Z.8#..8.Z#.#..8.Z.8.Z.Z.8.8.Z.8.Z.Z.Z.G.Z.Z.H.U.M.K.C.o.b.b.b",
".c#a.b.p.C.K.K.I.H.G.G.Z.F.3.3.3.4.3.3.4.3.3.3.F.X.G.8.Z.8.Z.Z.Z.Z.Z#.#.#.#.#.#..Z.8.8.Z.8.Z.8.Z.8.Z.8.Z.Z.Z.Z.H##.M.M.C.p.b.b.c",
".a.a.a.n.B.K.K.V.0.X.W.X.4.3.4.3.3.3.3.4.4.4.4.6.W.G.8.Z.8.Z.G.Z.8.Z#.#.#.#.#.#..Z.8.Z.8.Z.8.Z.8.Z.8.Z.8.Z.G.Z.H##.M.M.z.n.a.a.a",
".d.d.e.r.z.J.J.I.W.4.F.4.4.3.3.3.4.3.4.4.6.x.W.W.G.G.Z.Z.Z.Z.G.Z.G.Z.Z.Z#..Z.8.Z.Z.Z.8.Z.Z.Z.Z.Z.8.Z.8.Z.Z.Z.G.H.I.K.J.z.m.d.d.d",
"Qt.g#f.l.z.L.K.S.X.3.3.3.3.4.3.4.3.3.3.4.Z.G.G.G.Z.Z.Z.G.Z.G.Z.Z.Z.Z.G.Z#..8#..Z.8.Z.Z.8.Z.G.Z.Z.8.Z.Z.8#.#..W.H.U.K.K.z.lQtQtQt",
"Qt.g#f.l.z.L.M.U.X.3.3.4.3.3.3.4.3.3.3.4.6.G.Z.G.G.G.Z.G.Z.Z.Z.Z.Z.Y.G.G#.#.#.#..Z.8.Z.G.Z.G.Z.0.Z.8.Z.Z#..G.Z.H.I.K.L.z.l.2QtQt",
".d.d.e.m.z.L.M.U.X.3.3.3.4.3.3.3.4.F.4.6.Z.G.Z.G.W.X.x.Z.Z.Z.G.G.Z.Z.x.Z.Z#.#.#..G.Z.Z.Z.Z.Z.Z.8.8.Z.8.Z.Z.x.W.0.U.K.M.y.l.2QtQt",
".t.a.a.n.B.K.K.S.X.4.3.3.3.4.4.4.X.W.Z.x.G.Z.Z.X.6.4.4.6.Z.G.G.Z.9.9.F.F.W.G.Z.Z.Z.Z.Z.Z.Z.Z.G.Z.G.Z.G.O.F.F.F.W.U.K.J.z.lQtQtQt",
".b.b#a.p#d.J.J.S.X.3.3.4.3.3.3.4.Z.G.Z.Z.G.G.G.W.4.3.3.4.X.G.G.X.9.3.3.F.W.G.G.Z.Z.G.Z.G.Z.G.Z.Z.Z.G.G.W.F.3.3.W.T.K.L.z.lQtQtQt",
".c.b#a.p.C.M.J.T.X.4.3.3.3.4.5.4.X.G.Z.G.G.G.G.Z.4.5.4.4.x.G.G.O.3.3.3.4.x.G.Z.8.Z.8.Z.8.Z.Z.Z.Z.Z.G.G.W.F.3.3.W.T.K.K.z.k.g.1Qt",
".b.b.b.p.C.K.K.T.X.3.3.4.4.4.4.6.Z.G.Z.Z.Z.X.Z.6.F.4.4.6.X.O.X.X.F.F.9.F.Z.8.8.Z.Z.Z.8.Z.Z.Z.Z.Z.W.W.W.F.3.p.o.6.T.K.K.y.l.g.gQt",
".b.b.b.o.C.M.M.V.X.4.3.4.X.X.Z.X.Z.Z.G.Z.6.4.4.F.6.W.Z.X.F.4.4.6.W.W.W.Z.Z.Z.Z.8.8.Z.8.Z.8.Z.G.Z.6.F.F.5.E#q#q.5.C.J.J.z.mQtQtQt",
".b.b.b.o.C.K.M.V.X.3.3.4.Z.Z.G.Z.Z.Z.G.X.4.5.3.4.Z.Z.G.X.F.3.3.4.W.G.G.Z.Z.Z.G.Z.Z.8.Z.Z.8#..G.W.9.3.3#r#q.b.b.q.C.K.J.z.l.hQtQt",
".b.b.b.o.C.M.M.V.X.3.5.4.X.G.G.Z.G.Z.G.Z.4.3.3.4.Z.G.G.Z.4.3.5.4.W.G.Z.Z.Z.Z.Z.Z.8.Z.8.8.8.G.G.Z.F.3.3.5#q.b.b.o.C.K.K.z.k.2.1Qt",
".a.a.a.r.C.M.M.U.Z.4.4.6.Z.G.G.G.x.Z.X.X.6.4.4.6.6.Z.X.X.F.4.4.F.G.G.G.Z.G.Z.G.Z.Z.8.Z.Z.Z.x.W.6.F.3.3#t#q.b.b.o.C.K.J.z.l.2QtQt",
".d.d.e.r.z.J.K.U.P.X.X.Z.Z.Z.Z.Z.F.4.4.F.6.W.Z.6.F.F.4.F.X.Z.W.Z.Z.Z.8.Z.Z.Z.Z.Z.G.Z.G.G.F.F.F.F.3.4.3.5#q.b.b.n.C.J.J.B.l.g.gQt",
"Qt.g#f.l.z.J.K.I.H.G.Z.G.Z.G.G.X.F.3.3.F.W.G.Z.Z.4.5.3.4.X.G.G.G.8.8.Z.8.8.G.Z.Z.Z.Z.G.W.4.3.3.3.3.3.3#t#q.b.b.q.C.J.J.z.l.gQtQt",
"Qt.g#f.l.z.M.M.U.H.G.G.Z.G.G.G.Z.4.3.3.4.W.G.G.W.F.3.3.4.x.G.8.8.Z.Z.8.Z.Z.8.Z.G.Z.G.G.W.F.3.3.3.3.3.3#A#B.b.b.n.C.J.J.z.l.g.gQt",
".d.d.e.m.z.M.M.I.H.O.W.G.W.W.x.6.F.3.3.F.W.G.G.Z.F.4.4.6.Z.8.Z.Z.Z.8.Z.Z.8.Z.Z.Z.W.x.W.X.4.3.3.3.F.F.F.3.q#q#q.5.C.J.K.B.m.d.d.d",
".t.a#C.n.C.K.M.I.H.Z.G.W.6.F.4.4.4.3.3.F.W.G.G.W.W.W.Z.Z.Z.Z.Z.8.8.Z.8.Z.Z.G.Z.Z#c.4.4.4.4.3.3.F#c.W.Z.6.5.o#t.F.T.K.K.B.n.a.a.a",
".b.b#a.p.C.K.M.I.H.Z.G.Z.4.3.3.3.3.3.3.F.Z.Z.G.Z.G.G.8.Z.Z.Z.Z.8.8.Z.8.8.Z.G.G.X.F.3.3.3.3.3.3.F.W.G.G.W.F.3.3.W.T.K.K.C.p.b.c.c",
".c.c#a.p.C.M.M##.H.Z.G.W.4.3.3.4.3.3.3.9.R.G.Z.G.G.Z.G.G.Z.Z.Z.Z.G.G.Z.8.G.G.G.W.F.3.3.3.3.3.3.F.W.G.G.Z.F.3.3.W.T.K.K.C.p#a#a.c",
".a.a.a.n.H.I.I.C.Y.X.W.X.4.4.3.3.4.4.F.6.W.Z.G.O.Z.Z.Z.Z.Z.Z.8.Z.W.W.x.Z.O.W.W.X.F.3.3.4.4.4.F.F.W.O.W.6.3#t#t.F#d.I.I.0#R.a.a.t",
".#.d.e#S.x.H.H.G.X.F.4.4.4.4.3.4.X.W.O.W.G.G.G.G.Z.Z.Z.Z.Z.G.G.O.6.4.F.F.4.F.F.4.3.3.4.4#c.O.W.X.F.F.F.5.E#q#W.p.W#d#d.R#S#X.d.d",
".e.g.g.k#Y.G.G.Z.4.4.3.4.3.3.4.4.W.G.G.G.G.G.G.O.G.G.G.G.G.G.G.W.F.3.3.3.3.3.3.3.4.3.3.F.O.O.G.O.F.3.3#A#W.b#a#3.F.G.O.w.k.1QtQt",
".e.e.e.k#4.G.G.X.4.4.3.3.3.4.3.4.O.G.G.G.Z.G.G.G.G.G.G.G.Z.G.G.W.4.3.3.4.3.4.4.3.4.3.3.F.O.G.G.W.4.4.3.5#W.b.b#3.F.Y.Y.w.k.1QtQt",
".e.f.d#5.v.6.4.4.v.n.o#6#t.3#r#r.v#Y#4.w.w.F.9.w.w#4.w.w.F.w.F.4.5#r#r#r#t#t#t#t#t#t#t.5.4#4#Y.v.v.o#7#R#q.a.a.Q#8.F.R.v#9.1QtQt",
".t.a.a.ta..E.E.Qa#aa#5ab#qa.a..u#S.k.j#S.Q.E.E.Q#S.k.k.j.Q#B.q.Q#B#B#B#B#B#B#B#B#B#B#B.u#S.k.k.j.j#5#5.i.i.d.d.#.u.E.q.u.fQtQtQt",
".b.c.c.c.b.b.b#C.e.e.e.e.a.b.c.a.dQt#f#X.a.b.b.a.d#f.g.d.a.b.b.b.c.c.t.b.c.b.b.c.b.b.c.a.d.g.g.g.gQtQtQt.h.h.h.d.a.b.b.a.dQtQtQt",
".c.c.c.c.b.c.b.t.#.e.e.f.a.c.c.a.dQtQt.d.a#a.b.a.d.hQt.d.a.c.b.b.b.c.b.b.b.b.c.b.b.b.b.a.d.g.gQtQtQtQtQtQt.h.h.d.a.c.b.a.d.h.hQt",
".b.b.c.b.b.c.b.t.e.e.g.e.t.c.c.a.dQtQt.d.a.c.b.a.d.hQt.d.a.c.c.c.c.b.c.b.c.c.b.c.c.b.b.t.dQtQtQtQtQtQtQtQtQt.h.d.a.c.c.a.dQtQtQt"};
