/* XPM */
static char *dummy[]={
"64 64 126 2",
"Qt c None",
".T c #000000",
".V c #000000",
".W c #000000",
"#P c #000000",
".X c #000000",
"#G c #000000",
".Y c #000000",
".0 c #000000",
".8 c #000000",
".1 c #000000",
"#6 c #000000",
"#7 c #000000",
".Z c #000000",
".2 c #000000",
"#t c #000000",
"#h c #000000",
"#R c #000000",
".9 c #000000",
".3 c #000000",
"#H c #000000",
"#N c #000000",
".4 c #000000",
"#. c #000000",
".5 c #000000",
"#i c #000000",
"#s c #000000",
".7 c #000000",
"## c #000000",
"#1 c #000000",
"#u c #000000",
"#2 c #000000",
"#3 c #000000",
"#4 c #000000",
"#5 c #000000",
".6 c #000000",
"#g c #000000",
"#j c #000000",
"#S c #000000",
"#a c #000000",
"#f c #000000",
"#I c #000000",
"#O c #000000",
"#b c #000000",
"#k c #000000",
"#v c #000000",
"#c c #000000",
"#e c #000000",
"#l c #000000",
"#T c #000000",
"#Y c #000000",
"#Z c #000000",
"#w c #000000",
"#m c #000000",
"#0 c #000000",
"#J c #000000",
"#d c #000000",
"#n c #000000",
"#x c #000000",
"#o c #000000",
"#p c #000000",
"#r c #000000",
"#K c #000000",
"#y c #000000",
"#X c #000000",
"#W c #000000",
"#V c #000000",
"#z c #000000",
"#U c #000000",
"#q c #000000",
"#A c #000000",
"#B c #000000",
"#C c #000000",
"#F c #000000",
"#E c #000000",
"#L c #000000",
"#Q c #000000",
"#D c #000000",
"#M c #000000",
".I c #001111",
".s c #002b2b",
".y c #005477",
".B c #005e7f",
".F c #007faa",
".C c #009900",
".g c #080808",
".K c #0f0e11",
".v c #1e424f",
".O c #212828",
".q c #260c0c",
".R c #26252c",
".Q c #35353a",
".S c #35383f",
".x c #3d5358",
".# c #444448",
".J c #470000",
".m c #494482",
".u c #4a2121",
".M c #51545b",
".w c #535353",
".U c #562f1d",
".H c #637a82",
".d c #6d3300",
".G c #72472d",
".t c #750000",
".h c #797a7c",
".z c #838384",
".n c #84393a",
".r c #870000",
".D c #946c45",
".o c #96b2ff",
".c c #996314",
".e c #9e99a6",
".A c #adb2af",
".E c #af001c",
".L c #c09d7b",
".P c #c1bfbc",
".p c #c46555",
".f c #ccd3d6",
".a c #d19e30",
".l c #e5f4ff",
".N c #ef0c23",
".k c #f78c6b",
".i c #f9edd6",
".b c #fcd670",
".j c #ffd8ce",
"QtQtQtQtQtQtQtQtQtQtQtQtQtQtQtQtQtQtQtQtQtQtQtQtQtQtQtQtQtQtQtQtQtQtQtQtQtQtQtQtQtQtQtQtQtQtQtQtQtQtQtQtQtQtQtQtQtQtQtQtQtQtQtQt",
"QtQtQtQtQtQtQtQtQtQtQtQtQtQtQtQtQtQtQtQtQtQtQtQtQtQtQtQtQtQtQtQtQtQtQtQtQtQtQtQtQtQtQtQtQtQtQtQtQtQtQtQtQtQtQtQtQtQtQtQtQtQtQtQt",
"QtQtQtQtQtQtQtQtQtQtQtQtQtQtQtQtQtQtQtQtQtQtQtQtQtQtQtQtQtQtQtQtQtQtQtQtQtQtQtQtQtQtQtQtQtQtQtQtQtQtQtQtQtQtQtQtQtQtQtQtQtQtQtQt",
"QtQtQtQtQtQtQtQtQtQtQtQtQtQtQtQtQtQtQtQtQtQtQtQtQtQtQtQtQtQtQtQtQtQtQtQtQtQtQtQtQtQtQtQtQtQtQtQtQtQtQtQtQtQtQtQtQtQtQtQtQtQtQtQt",
"QtQtQtQtQtQtQtQtQtQtQtQtQtQtQtQtQtQtQtQtQtQtQtQtQtQtQtQtQtQtQtQtQtQtQtQtQtQtQtQtQtQtQtQtQtQtQtQtQtQtQtQtQtQtQtQtQtQtQtQtQtQtQtQt",
"QtQtQtQtQtQtQtQtQtQtQtQtQtQtQtQtQtQtQtQtQtQtQtQtQtQtQtQtQtQtQtQtQtQtQtQtQtQtQtQtQtQtQtQtQtQtQtQtQtQtQtQtQtQtQtQtQtQtQtQtQtQtQtQt",
"QtQtQtQtQtQtQtQtQtQtQtQtQtQtQtQtQtQtQtQtQtQtQtQtQtQtQtQtQtQtQtQtQtQtQtQtQtQtQtQtQtQtQtQtQtQtQtQtQtQtQtQtQtQtQtQtQtQtQtQtQtQtQtQt",
"QtQtQtQtQtQtQtQtQtQtQtQtQtQtQtQtQtQtQtQtQtQtQtQtQtQtQtQtQtQtQtQtQtQtQtQtQtQtQtQtQtQtQtQtQtQtQtQtQtQtQtQtQtQtQtQtQtQtQtQtQtQtQtQt",
"QtQtQtQtQtQtQtQtQtQtQtQtQt.#.#.#QtQtQtQtQtQtQtQtQtQt.a.b.a.c.c.c.c.d.dQtQtQtQtQtQtQtQtQtQtQtQtQtQtQtQtQtQtQtQtQtQtQtQtQtQtQtQtQt",
"QtQtQtQtQtQtQtQtQtQtQtQtQt.#.e.f.#QtQtQtQtQtQtQtQt.aQt.c.c.a.c.c.c.c.c.c.dQtQtQtQtQtQtQtQtQtQtQtQtQtQtQtQtQtQtQtQtQtQtQtQtQtQtQt",
"QtQtQtQtQtQtQtQtQtQtQtQtQt.#.f.g.f.#QtQtQtQtQtQtQtQt.c.a.a.a.a.c.c.a.a.c.c.dQtQtQtQtQtQtQtQtQtQtQtQtQtQtQtQtQtQtQtQtQtQtQtQtQtQt",
"QtQtQtQtQtQtQtQtQtQtQtQtQtQt.#.f.e.h.#QtQt.g.#.#.#.c.a.b.b.a.b.a.a.c.a.a.c.c.dQtQtQtQtQtQtQtQtQtQtQtQtQtQtQtQtQtQtQtQtQtQtQtQtQt",
"QtQtQtQtQtQtQtQtQtQtQtQtQtQtQt.g.#.e.h.gQtQtQt.g.c.a.b.a.a.b.b.b.b.i.b.a.a.c.c.dQtQtQtQtQtQtQtQtQtQtQtQtQtQtQtQtQtQtQtQtQtQtQtQt",
"QtQtQtQtQtQtQtQtQtQtQtQtQtQtQtQtQt.g.h.#.gQtQt.c.a.c.a.i.i.i.b.a.a.b.i.b.a.d.c.dQtQtQtQtQtQtQtQtQtQtQtQtQtQtQtQtQtQtQtQtQtQtQtQt",
"QtQtQtQtQtQtQtQtQtQtQtQtQtQtQtQtQtQt.g.e.#.g.c.a.c.a.b.i.b.i.b.i.i.a.i.i.a.c.d.c.dQtQtQtQtQtQtQtQtQtQtQtQtQtQtQtQtQtQtQtQtQtQtQt",
"QtQtQtQtQtQtQtQtQtQtQtQtQtQtQtQtQtQtQt.#.h.#.#.c.a.a.a.i.a.i.i.b.i.i.a.i.b.a.d.d.dQtQtQtQtQtQtQtQtQtQtQtQtQtQtQtQtQtQtQtQtQtQtQt",
"QtQtQtQtQtQtQtQtQtQtQtQtQtQtQtQtQtQtQt.g.#.#.e.a.c.b.a.b.c.b.i.c.j.i.a.i.d.a.c.d.d.dQtQtQtQtQtQtQtQtQtQtQtQtQtQtQtQtQtQtQtQtQtQt",
"QtQtQtQtQtQtQtQtQtQtQtQtQtQtQtQtQtQtQtQt.g.h.c.a.c.b.c.b.g.g.i.k.c.g.g.b.c.d.a.cQtQtQtQtQtQtQtQtQtQtQtQtQtQtQtQtQtQtQtQtQtQtQtQt",
"QtQtQtQtQtQtQtQtQtQtQtQtQtQtQtQtQtQtQtQt.g.h.e.h.d.a.c.a.l.m.k.k.j.m.l.a.n.c.d.dQtQtQtQtQtQtQtQtQtQtQtQtQtQtQtQtQtQtQtQtQtQtQtQt",
"QtQtQtQtQtQtQtQtQtQtQtQtQtQtQtQtQtQtQtQtQt.h.f.#.d.a.d.d.j.o.j.k.j.o.j.p.n.c.d.d.dQtQtQtQtQtQtQtQtQtQtQtQtQtQtQtQtQtQtQtQtQtQtQt",
"QtQtQtQtQtQtQtQtQtQtQtQtQtQtQtQtQtQtQtQtQt.g.e.l.g.c.d.n.k.j.j.j.j.j.k.n.d.c.dQtQtQtQtQtQtQtQtQtQtQtQtQtQtQtQtQtQtQtQtQtQtQtQtQt",
"QtQtQtQtQtQtQtQtQtQtQtQtQtQtQtQtQtQtQt.g.g.g.h.f.e.d.d.q.p.k.j.j.j.k.p.q.d.dQtQtQtQtQtQtQtQtQtQtQtQtQtQtQtQtQtQtQtQtQtQtQtQtQtQt",
"QtQtQtQtQtQtQtQtQtQtQtQtQtQtQtQtQtQtQt.r.g.#.g.g.s.t.d.t.u.n.p.p.p.n.u.s.s.dQtQtQtQtQtQtQtQtQtQtQtQtQtQtQtQtQtQtQtQtQtQtQtQtQtQt",
"QtQtQtQtQtQtQtQtQtQtQtQtQtQtQtQtQtQtQt.g.g.#.h.#.s.v.d.t.w.q.q.q.q.q.s.v.x.s.sQtQtQtQtQtQtQtQtQtQtQtQtQtQtQtQtQtQtQtQtQtQtQtQtQt",
"QtQtQtQtQtQtQtQtQtQtQtQtQtQtQtQtQtQtQt.g.r.#.y.s.v.v.t.t.v.z.A.A.z.s.s.v.x.s.B.sQtQtQtQtQtQtQtQtQtQtQtQtQtQtQtQtQtQtQtQtQtQtQtQt",
"QtQtQtQtQtQtQtQtQtQtQtQtQtQtQtQtQtQtQtQt.g.h.C.s.D.v.t.E.v.x.s.x.v.F.s.s.x.F.s.G.sQtQtQtQtQtQtQtQtQtQtQtQtQtQtQtQtQtQtQtQtQtQtQt",
"QtQtQtQtQtQtQtQtQtQtQtQtQtQtQtQtQtQtQtQtQt.g.h.G.x.H.x.E.s.D.s.D.G.v.s.s.x.s.x.v.v.sQtQtQtQtQtQtQtQtQtQtQtQtQtQtQtQtQtQtQtQtQtQt",
"QtQtQtQtQtQtQtQtQtQtQtQtQtQtQtQtQtQtQtQtQtQt.s.n.n.x.s.E.s.v.s.v.v.v.s.I.s.x.x.x.v.sQtQtQtQtQtQtQtQtQtQtQtQtQtQtQtQtQtQtQtQtQtQt",
"QtQtQtQtQtQtQtQtQtQtQtQtQtQtQtQtQtQtQtQtQtQt.s.n.p.n.s.t.s.D.s.D.G.v.s.I.s.v.v.s.s.nQtQtQtQtQtQtQtQtQtQtQtQtQtQtQtQtQtQtQtQtQtQt",
"QtQtQtQtQtQtQtQtQtQtQtQtQtQtQtQtQtQtQtQtQtQt.n.p.p.nQt.t.t.v.s.v.v.s.s.I.s.s.s.n.k.p.nQtQtQtQtQtQtQtQtQtQtQtQtQtQtQtQtQtQtQtQtQt",
"QtQtQtQtQtQtQtQtQtQtQtQtQtQtQtQtQtQtQtQtQtQt.n.k.p.n.J.J.t.I.I.K.I.I.I.I.I.h.n.k.j.k.pQtQtQtQtQtQtQtQtQtQtQtQtQtQtQtQtQtQtQtQtQt",
"QtQtQtQtQtQtQtQtQtQtQtQtQtQtQtQtQtQtQtQtQtQt.n.k.n.J.J.t.E.t.J.I.s.I.E.t.J.g.n.D.L.L.D.MQtQtQtQtQtQtQtQtQtQtQtQtQtQtQtQtQtQtQtQt",
"QtQtQtQtQtQtQtQtQtQtQtQtQtQtQtQtQtQtQt.J.J.J.n.p.t.E.N.J.J.I.s.I.v.s.t.E.t.J.s.x.H.H.D.h.MQtQtQtQtQtQtQtQtQtQtQtQtQtQtQtQtQtQtQt",
"QtQtQtQtQtQtQtQtQtQtQtQtQtQtQtQtQt.J.J.J.J.J.n.J.t.E.t.t.I.s.v.s.x.v.t.N.E.J.n.D.L.H.s.h.h.#QtQtQtQtQtQtQtQtQtQtQtQtQtQtQtQtQtQt",
"QtQtQtQtQtQtQtQtQtQtQtQt.w.w.w.J.J.J.J.J.J.O.J.J.t.J.t.t.s.x.x.s.x.v.s.t.J.t.n.D.x.D.s.e.e.h.#QtQtQtQtQtQtQtQtQtQtQtQtQtQtQtQtQt",
"QtQtQtQtQtQtQtQtQtQtQt.wQt.w.J.J.J.J.JQt.O.t.J.J.J.t.E.s.s.x.x.s.G.G.s.t.E.t.J.x.L.H.s.h.e.e.MQtQtQtQtQtQtQtQtQtQtQtQtQtQtQtQtQt",
"QtQtQtQtQtQtQtQtQtQt.w.M.w.w.J.JQtQtQtQt.O.t.t.t.t.E.E.v.s.G.s.I.D.D.s.D.G.J.n.x.x.L.s.#.P.e.hQtQtQtQtQtQtQtQtQtQtQtQtQtQtQtQtQt",
"QtQtQtQtQtQtQtQtQtQt.w.wQtQtQtQtQtQtQt.O.w.t.t.E.E.E.s.G.I.D.O.K.I.K.I.D.J.n.k.n.k.x.s.#.P.P.e.#QtQtQtQtQtQtQtQtQtQtQtQtQtQtQtQt",
"QtQtQtQtQtQtQtQtQtQtQtQtQtQtQtQtQtQt.E.O.w.t.E.N.E.E.s.D.O.O.O.K.K.K.K.K.J.k.n.j.k.n.h.e.P.P.P.MQtQtQtQtQtQtQtQtQtQtQtQtQtQtQtQt",
"QtQtQtQtQtQtQtQtQtQtQtQtQtQtQtQtQtQt.t.w.O.t.E.N.E.z.O.O.O.O.O.K.K.K.O.O.I.J.p.p.k.n.J.e.e.P.P.h.#QtQtQtQtQtQtQtQtQtQtQtQtQtQtQt",
"QtQtQtQtQtQtQtQtQtQtQtQtQtQtQtQtQt.z.O.h.O.h.N.N.E.z.Q.z.z.w.w.K.K.O.O.O.R.J.k.j.k.n.J.O.#.h.h.h.#QtQtQtQtQtQtQtQtQtQtQtQtQtQtQt",
"QtQtQtQtQtQtQtQtQtQtQtQtQtQtQtQtQt.AQt.A.O.A.N.EQt.O.w.z.z.z.w.O.O.O.w.w.O.O.p.k.p.J.t.O.M.#.#.#.#QtQtQtQtQtQtQtQtQtQtQtQtQtQtQt",
"QtQtQtQtQtQtQtQtQtQtQtQtQtQtQtQtQt.A.w.h.A.O.h.w.O.Q.z.z.A.z.z.O.O.w.w.w.w.O.t.N.N.E.t.O.hQtQtQtQtQtQtQtQtQtQtQtQtQtQtQtQtQtQtQt",
"QtQtQtQtQtQtQtQtQtQtQtQtQtQtQtQtQt.z.w.wQt.A.OQt.z.w.z.A.A.A.z.O.O.w.w.w.w.O.K.N.N.E.w.O.hQtQtQtQtQtQtQtQtQtQtQtQtQtQtQtQtQtQtQt",
"QtQtQtQtQtQtQtQtQtQtQtQtQtQtQtQtQtQt.wQtQtQt.AQt.O.w.z.A.A.A.z.O.O.O.w.w.O.O.K.E.N.N.w.O.wQtQtQtQtQtQtQtQtQtQtQtQtQtQtQtQtQtQtQt",
"QtQtQtQtQtQtQtQtQtQtQtQtQtQtQtQtQtQtQtQtQtQtQtQt.A.w.M.z.z.z.w.O.O.O.O.O.O.O.K.t.N.A.O.h.wQtQtQtQtQtQtQtQtQtQtQtQtQtQtQtQtQtQtQt",
"QtQtQtQtQtQtQtQtQtQtQtQtQtQtQtQtQtQtQtQtQtQtQtQt.O.S.w.w.w.w.w.R.K.O.O.O.O.KQt.t.A.O.h.wQtQtQtQtQtQtQtQtQtQtQtQtQtQtQtQtQtQtQtQt",
"QtQtQtQtQtQtQtQtQtQtQtQtQtQtQtQtQtQtQtQtQtQtQtQtQt.O.K.K.K.K.Q.O.K.K.K.K.K.KQt.A.w.h.AQtQtQtQtQtQtQtQtQtQtQtQtQtQtQtQtQtQtQtQtQt",
"QtQtQtQtQtQtQtQtQtQtQtQtQtQtQtQtQtQtQtQtQtQt.T.T.T.q.U.G.D.G.K.T.K.R.R.R.R.K.T.h.h.AQtQtQtQtQtQtQtQtQtQtQtQtQtQtQtQtQtQtQtQtQtQt",
"QtQtQtQtQtQtQtQtQtQtQtQtQtQtQtQtQtQt.T.T.T.V.W.X.Y.K.R.Q.M.Q.K.Z.K.K.R.R.K.g.0.A.A.W.V.T.T.TQtQtQtQtQtQtQtQtQtQtQtQtQtQtQtQtQtQt",
"QtQtQtQtQtQtQtQtQtQtQtQtQtQtQtQt.T.T.W.Y.1.2.3.4.5.K.K.K.K.K.K.6.K.K.K.K.K.K.7.5.4.3.2.1.Y.W.T.TQtQtQtQtQtQtQtQtQtQtQtQtQtQtQtQt",
"QtQtQtQtQtQtQtQtQtQtQtQtQtQtQt.T.W.8.9#.##.6#a#b#c.q.U.G.D.G.R#d.K.R.R.R.R.K#e#c#b#f#g###..9.8.W.TQtQtQtQtQtQtQtQtQtQtQtQtQtQtQt",
"QtQtQtQtQtQtQtQtQtQtQtQtQtQt.T.X#h#i#j#k#l#m#n#o#p.K.R.S.M.Q.R#q.K.R.R.R.R.K#r#p#o#n#m#l#k#j#s#h.X.TQtQtQtQtQtQtQtQtQtQtQtQtQtQt",
"QtQtQtQtQtQtQtQtQtQtQtQtQt.T.W#t#u#v#w#x#y#z#A#B#C.K.U.R.w.G.R#D#D.g.K.K.g#E#F#C#B#A#z#y#x#w#v#u#t.W.TQtQtQtQtQtQtQtQtQtQtQtQtQt",
"QtQtQtQtQtQtQtQtQtQtQtQtQt.T#G#H#I#J#K#A#F#L#D#D.K.K.R.M.h.M.M.R#M#M#M#M#M#D#D#D#D#D#L#F#A#K#J#I#H#G.TQtQtQtQtQtQtQtQtQtQtQtQtQt",
"QtQtQtQtQtQtQtQtQtQtQtQtQt.T#G#N#I#J#y#A#F#L#D#D.K.R.M.h.h.h.M.R#M#M#M#M#M#D#D#D#D#D#L#F#A#y#J#O#N#G.TQtQtQtQtQtQtQtQtQtQtQtQtQt",
"QtQtQtQtQtQtQtQtQtQtQtQtQt.T#P#t#u#v#w#x#y#z#A#B.K.R.K.K.K.K.K.R#D#Q#Q#L#E#E#F#C#B#A#z#y#x#w#v#u#t#P.TQtQtQtQtQtQtQtQtQtQtQtQtQt",
"QtQtQtQtQtQtQtQtQtQtQtQtQtQt.T.X#R#s#S#v#T#m#n#o#p.g.K.K.K.K.g#q#q#q#U#V#W#X#r#p#o#n#m#T#v#S#s#R.X.TQtQtQtQtQtQtQtQtQtQtQtQtQtQt",
"QtQtQtQtQtQtQtQtQtQtQtQtQtQtQt.T#P.1.9#.###g#f#b#c#e#Y#Z#w#0#J#d#d#J#0#w#Z#Y#e#c#b#f#g###..9.1#P.TQtQtQtQtQtQtQtQtQtQtQtQtQtQtQt",
"QtQtQtQtQtQtQtQtQtQtQtQtQtQtQtQt.T.T.W.Y.1.2.3.4.5.7#1#2#3#4#5.6.6#5#4#3#2#1.7.5.4.3#t.1.Y.W.T.TQtQtQtQtQtQtQtQtQtQtQtQtQtQtQtQt",
"QtQtQtQtQtQtQtQtQtQtQtQtQtQtQtQtQtQt.T.T.T.V.W.X.Y.0.1#6#7#7#7.Z.Z#7#7#7#6.1.0.Y.X.W.V.T.T.TQtQtQtQtQtQtQtQtQtQtQtQtQtQtQtQtQtQt",
"QtQtQtQtQtQtQtQtQtQtQtQtQtQtQtQtQtQtQtQtQtQt.T.T.T.T.T.T.T.T.T.T.T.T.T.T.T.T.T.T.T.TQtQtQtQtQtQtQtQtQtQtQtQtQtQtQtQtQtQtQtQtQtQt",
"QtQtQtQtQtQtQtQtQtQtQtQtQtQtQtQtQtQtQtQtQtQtQtQtQtQtQtQtQtQtQtQtQtQtQtQtQtQtQtQtQtQtQtQtQtQtQtQtQtQtQtQtQtQtQtQtQtQtQtQtQtQtQtQt",
"QtQtQtQtQtQtQtQtQtQtQtQtQtQtQtQtQtQtQtQtQtQtQtQtQtQtQtQtQtQtQtQtQtQtQtQtQtQtQtQtQtQtQtQtQtQtQtQtQtQtQtQtQtQtQtQtQtQtQtQtQtQtQtQt"};
