/* XPM */
static char *dummy[]={
"64 128 143 2",
"al c #000000",
"#B c #001111",
"#w c #002b2b",
"#E c #005477",
"#F c #005e7f",
"#K c #007faa",
"#j c #080808",
"#1 c #0f0e11",
"#D c #1e424f",
"#6 c #212828",
"#x c #260c0c",
"ak c #26252c",
"aa c #35353a",
"am c #35383f",
".2 c #383f4a",
".g c #383f4b",
"#t c #383f4c",
".1 c #38404c",
".e c #393f4b",
"Qt c #3a404b",
".h c #3a404c",
"#8 c #3d4046",
".d c #3d4047",
"#G c #3d5358",
".f c #3f4148",
".i c #404248",
"af c #424349",
".# c #434245",
"ai c #43434a",
"ab c #44434a",
"#c c #444448",
".j c #44444b",
"#Y c #46413d",
".a c #46413e",
"#R c #470000",
".s c #474242",
"ah c #474548",
".k c #47464d",
"#r c #494482",
"#4 c #494649",
"#A c #4a2121",
"#a c #4a4138",
".b c #4a423a",
".t c #4a433e",
"aj c #4b4440",
".l c #4b4951",
".c c #4c423a",
".m c #4d484c",
".u c #4e4541",
"#P c #4f443c",
"#7 c #50443c",
"#W c #50453d",
"ag c #51453d",
".Q c #514743",
"#T c #51545b",
"a. c #53463f",
"#5 c #535353",
".E c #54473f",
"#3 c #544845",
".n c #544946",
".q c #554840",
".r c #554a47",
"#N c #562f1d",
".p c #584a43",
".o c #584a44",
"ad c #584a47",
".D c #584d4d",
".v c #5a4d4b",
"#Q c #5b4b44",
"ac c #5b4c48",
"#S c #5c4b43",
"#V c #5d4b43",
".5 c #5e4d45",
"ae c #5e4d48",
"a# c #5f4f4d",
".3 c #614d45",
".w c #61514f",
".9 c #635049",
"#O c #637a82",
".4 c #644f48",
"#9 c #645352",
".x c #655451",
".F c #66514a",
".6 c #67524b",
".R c #67544f",
"#Z c #68524b",
".X c #68534c",
"#b c #69534d",
".W c #69544d",
".O c #6c564f",
".Z c #6c5650",
".y c #6c5959",
"#g c #6d3300",
"#. c #6d5650",
".8 c #6e5651",
".Y c #6e5751",
".G c #6f5750",
".0 c #6f5a56",
".P c #705853",
".A c #705c5c",
".z c #705c5d",
".B c #715c5b",
"#J c #72472d",
".H c #725a55",
"#l c #735a54",
".N c #745b56",
".C c #745d59",
"#z c #750000",
"#k c #755c57",
".S c #785e5a",
"#m c #797a7c",
".V c #7a5f5b",
".T c #7a605b",
".U c #7a605c",
".7 c #7c615d",
"## c #7d625e",
".I c #7e625e",
".M c #826663",
".K c #836663",
".L c #836764",
"#I c #838384",
"#s c #84393a",
".J c #846763",
"#y c #870000",
"#C c #871e38",
"#U c #8e3314",
"#M c #946c45",
"#u c #96b2ff",
"#f c #996314",
"#h c #9e99a6",
"#H c #adb2af",
"#L c #af001c",
"#X c #c09d7b",
"#0 c #c1bfbc",
"#v c #c46555",
"#i c #ccd3d6",
"#d c #d19e30",
"#q c #e5f4ff",
"#2 c #ef0c23",
"#p c #f78c6b",
"#n c #f9edd6",
"#e c #fcd670",
"#o c #ffd8ce",
"QtQtQtQtQtQtQtQtQtQtQtQtQtQtQtQtQtQtQt.#.a.b.b.b.b.b.b.c.b.b.b.b.b.b.b.a.d.e.f.g.f.e.h.hQtQt.f.gQt.f.e.h.f.gQtQtQtQt.f.d.a.c.c.b",
"QtQtQtQtQtQtQt.gQt.gQt.g.gQt.g.g.g.g.g.d.a.b.b.b.b.b.b.b.b.b.b.b.b.b.b.a.e.e.g.g.g.g.e.gQt.g.g.g.g.g.e.e.g.g.g.g.gQt.g.d.a.c.c.c",
".h.hQtQtQt.g.gQt.gQtQt.g.g.g.g.g.g.g.g.d.a.b.b.b.b.b.b.b.b.b.b.b.b.b.b.a.e.g.g.g.g.g.g.g.g.g.g.g.g.g.e.e.g.g.g.g.g.g.g.d.a.c.c.c",
".d.d.d.i.j.j.k.k.k.l.l.l.m.l.l.m.l.l.l.m.n.o.p.o.o.o.q.p.o.o.o.o.o.o.p.n.r.l.l.l.l.l.l.l.l.l.l.l.l.l.l.l.l.l.l.l.k.k.k.j.s.a.t.a",
".t.a.a.u.v.w.w.x.y.z.z.z.y.z.z.z.z.A.A.B.B.C.C.C.C.C.C.C.C.C.C.C.C.C.C.C.z.A.A.A.y.z.z.z.z.z.z.y.A.A.z.z.z.z.z.y.x.w.w.D.j.d.d.d",
".c.b.b.E.F.G.G.H.I.J.J.K.L.L.L.L.K.J.K.K.J.M.M.M.M.M.L.M.M.M.M.M.M.M.M.L.J.J.K.J.K.K.L.M.J.L.L.K.K.K.K.J.K.J.L.I.N.G.G.w.k.gQtQt",
".c.c.b.E.F.G.O.H.I.J.K.K.K.K.J.J.L.K.K.K.K.K.M.M.M.M.M.M.M.M.M.M.M.M.M.M.K.K.K.K.K.K.K.K.K.K.K.K.K.M.M.K.K.K.K.I.P.O.O.w.kQtQt.h",
".a.a.a.Q.R.H.H.N.S.T.T.T.T.T.T.T.U.V.S.V.U.I.U.I.V.V.V.V.V.V.V.V.V.V.V.V.V.I.V.I.I.U.I.U.I.I.I.U.V.V.V.U.I.I.U.S.N.N.H.x.k.g.gQt",
".d.d.d.m.y.I.I.S.G.W.W.W.W.W.W.W.X.X.W.G.Y.H.H.P.Z.X.X.X.X.X.X.X.X.X.W.G.H.H.H.H.H.H.H.H.H.H.H.0.Z.X.X.Z.G.H.H.H.V.M.I.y.k.g.g.f",
"Qt.1.2.l.z.J.K.T.X.3.3.3.3.3.3.3.3.3.3.4.X.G.G.x.4.3.4.3.4.3.4.3.3.3.3.4.x.Z.G.W.G.Z.Z.Z.Z.Z.Z.X.4.3.3.4.X.Z.G.H.V.M.K.B.l.g.e.e",
"QtQt.2.l.z.J.K.T.W.3.3.3.3.3.3.3.3.3.5.4.Z.G.Z.X.4.3.5.3.3.3.3.3.3.3.3.4.6.G.Z.Z.Z.Z.Z.Z.Z.Z.G.x.4.3.5.4.Z.Z.W.H.7.K.J.B.l.e.e.e",
"Qt.2Qt.l.B.J.K.T.W.3.3.3.4.3.3.4.4.F.4.F.6.Z.Z.6.4.3.4.3.3.4.3.4.4.4.4.F.Z.Z.G.Z.Z.Z.G.Z.Z.Z.G.Z.F.4.4.F.Z.Z.G.0.I.J.K.B.l.e.e.h",
"Qt.2.2.l.z.K.K.T.W.3.3.4.3.3.3.F.6.X.Z.6.F.F.4.4.4.4.3.3.3.4.3.4.X.Z.x.W.G.G.G.Z.Z.G.Z.Z.8.Z.Z.Z.W.X.Z.Z.Z.Z.Z.H.I.K.L.z.l.g.gQt",
"QtQt.2.l.z.J.K.T.W.3.3.3.3.4.3.F.Z.G.G.Z.4.3.3.4.3.3.3.4.3.3.3.4.X.G.G.Z.Z.G.Z.Z.Z.Z.G.Z.Z.8.8.Z.G.G.Z.Z.G.Z.Z.H.U.K.L.z.l.g.gQt",
"Qt.2.2.l.z.K.K.U.W.3.3.3.3.3.3.F.Z.G.G.W.F.3.3.3.3.3.3.3.3.4.3.4.Z.G.G.Z.G.Z.Z.Z.Z.Z.Z.Z.Z.8.Z.8.Z.Z.G.Z.Z.Z.G.H.I.K.L.z.l.e.g.f",
"QtQt.2.l.z.K.K.U.W.3.3.3.4.F.4.F.X.X.Z.X.4.3.3.4.3.4.3.4.4.F.4.6.X.X.Z.Z.Z.Z.Z.G.G.Z.G.Z.8.Z.8.Z.Z.G.Z.Z.Z.G.Z.H.U.K.L.y.l.e.e.e",
"Qt.gQt.m.y.L.L.U.W.3.3.4.6.W.Z.6.F.9.4.4.4.3.4.3.5.3.4.4.6.Z.Z.6.F.F.F.F.x#..Z.8.Z.8.Z.8.8.Z.Z.8.G.Z.Y.Z.Z.Z.Z.H.U.M.L.z.l.g.gQt",
"QtQtQt.l.z.L.K.U.W.3.3.F.W.G.G.W.F.3.4.3.3.3.4.3.4.3.3.4.X.G.G.X.4.3.5.F.Z#.#..Z.8.Z.8.Z.Z.Z.8.Z.Z.Z.Z.8.Z.Z.Z.H.I.M.M.z.l.gQtQt",
"Qt.g.g.l.z.K.K.U.W.3.3.F.Z.G.G.Z.4.3.3.3.3.4.3.3.4.3.3.4.Z.Y.Y.Z.4.3.3.9.W.Y.Z.8.Z.8.8.Z.8.Z.Z.8.Z.8.Z.Y.G.Z.Z.H.U.M.M.z.m.g.gQt",
"Qt.g.g.k.z.K.K.U.W.4.4.F.X.W.Z.6.4.3.4.3.3.3.3.4.4.4.4.6.X.X.Z.X.F.4.9.F.Z.Z.8.Z.Z.Z.Z.8.Z.8.8.Z.Z.Z.8.Z.Z.Z.Z.H##.M.M.z.l.gQtQt",
"QtQtQt.l.z.K.K.I.Y.W.W.W.F.F.4.F.3.4.3.4.4.3.3.F.6.Z.X.6.F.4.4.F.W.W.W.W.Z.8.Z.8.8.Z.8.Z.8.Z.8.8.Y.Z.8.Z.8.Z.G.H.I.K.J.z.l.g.gQt",
"QtQtQt.l.z.K.K.U.H.G.Y.Z.4.3.3.3.3.3.3.3.3.3.3.9.Z.G.G.Z.4.3.3.F.W.G.Y.Y.Z.8.8.Z.Z.8.Z.8.Z.8.Z.Z.Z.8.Z.8.8.Z.W.H.I.K.J.z.l.e.g.h",
"QtQt.2.k.z.K.K.I.H.G.G.W.4.3.3.3.4.3.4.3.3.3.3.F.W.G.G.Z.F.5.3.4.W.Z.G.G.Z.Z.Z.8.Z.8.8.Z.8.Z.Z.8.Z.8.Z.Z.Z.8.Z.H.T.K.J.z.l.g.g.h",
"Qt.2Qt.l.z.K.K.U.P.W.W.X.F.4.9.F.4.3.3.3.4.F.4.F.X.Z.X.X.F.4.4.9.Z.G.Z.G.8.Z.8.Z.8.Z.8.Z.Z.8.Z.Z.Y.Z.8.Z.Z.Z.Z.B.I.K.J.z.m.d.d.d",
"QtQt.2.k.z.J.J.U.O.4.4.F.W.W.O.W.F.3.3.F.6.W.Z.X.6.F.4.F.X.Z.W.Z.Z.Z.Z.Z.Z.Z.Z.Z.Z.8.Z.Z.8.Z.Z.8.8.Z.Z.Z.Z.Z.Z.H.U.K.K.B.n.a.a.t",
"Qt.1Qt.l.z.L.K.T.W.3.3.4.W.Y.G.W.4.3.3.F.Z.G.G.X.4.3.3.4.X.G.G.G.Z.Z.G.Z.0.Z.G.Z.8.Z.Z.8.Z.8.8.Z.Z.Z.8.G.G.Z.Z.H.U.K.K.C.p.c#a.b",
"Qt.1.1.l.y.L.L.U#b.3.3.4.O#c#c#c.F.3.3.4.Z.G.G.W.F.3#d#e#d#f#f#f#f#g#g.Z.Z.Z.Z.Z.Z.8.Z.Z.8.Z.Z.8.8.Z.Z.Z.Z.Z.Z.H.I.K.K.H.p#a.b.b",
".d.d.d.m.z.K.L.U.W.4.4.F.W#c#h#i#c.3.3.4.X.W.W.X.F#d.4#f#f#d#f#f#f#f#f#f#g.Z.G.Z.8.Z.8.8.Z.8.8.Z.Z.8.Z.G.Z.Z.Z.H.I.K.K.B.p.b.b.b",
".a.a.a.n.B.J.L.U.P.W.W.W.F#c#i#j#i#c.3.4.F.4.F.F.6.W#f#d#d#d#d#f#f#d#d#f#f#g.Z.Z.8.Z.8.Z.8.Z.8.Z.8.Z.Z.8.Z.Z.Z.H.I.M.M.C.p.b.b.b",
".b.b#a.p#k.K.L.U#l.Y.Y.W.F.3#c#i#h#m#c.4.3#j#c#c#c#f#d#e#e#d#e#d#d#f#d#d#f#f#g.8.Z.8.Z.8.Z.8.Z.8.Z.8.8.Z.Z.Z.Z.H.U.M.M.C.p.b.b.b",
".b.b.b.p#k.K.K.I.H.Y.O.W.9.3.3#j#c#h#m#j.3.3.3#j#f#d#e#d#d#e#e#e#e#n#e#d#d#f#f#g.Z.Z.Z.8.Z.8.8.Z.Z.8.Z.8.Z.Z.G.H.I.M.M.C.q.b.b.b",
".c.b.b.p#k.K.K.U.H.O.G.W.F.3.3.3.4#j#m#c#j.4.3#f#d#f#d#n#n#n#e#d#d#e#n#e#d#g#f#g.8.Z.8.Z.8.Z.Z.Z.8.Z.8.Z.G.Z.Z.H.U.M.M.C.o#a.b.b",
".b.b.b.p.B.K.K.I.H.Z.G.W.4.4.3.4.3.4#j#h#c#j#f#d#f#d#e#n#e#n#e#n#n#d#n#n#d#f#g#f#g.8.Z.8.Z.Z.Z.8.Z.8.Z.8.Z.Z.Z.H.U.M.M.C.o.b.b.b",
".c.b#a.p.N.K.K.U.H.Z.G.X.4.3.3.3.3.3.3#c#m#c#c#f#d#d#d#n#d#n#n#e#n#n#d#n#e#d#g#g#g.Z.8.Z.Z.8.8.Z.8.Z.Z.Z.G.Z.Z.H.U.M.K.C.o.b.b.b",
".c#a.b.p.C.K.K.I.H.G.G.Z.F.3.3.3.4.3.3#j#c#c#h#d#f#e#d#e#f#e#n#f#o#n#d#n#g#d#f#g#g#g.8.Z.8.Z.8.Z.8.Z.8.Z.Z.Z.Z.H##.M.M.C.p.b.b.c",
".a.a.a.n.B.K.K.V.0.X.W.X.4.3.4.3.3.3.3.4#j#m#f#d#f#e#f#e#j#j#n#p#f#j#j#e#f#g#d#f.Z.8.Z.8.Z.8.Z.8.Z.8.Z.8.Z.G.Z.H##.M.M.z.n.a.a.a",
".d.d.e.r.z.J.J.I.W.4.F.4.4.3.3.3.4.3.4.4#j#m#h#m#g#d#f#d#q#r#p#p#o#r#q#d#s#f#g#g.Z.Z.8.Z.Z.Z.Z.Z.8.Z.8.Z.Z.Z.G.H.I.K.J.z.m.d.d.d",
"Qt.g#t.l.z.L.K.S.X.3.3.3.3.4.3.4.3.3.3.4.Z#m#i#c#g#d#g#g#o#u#o#p#o#u#o#v#s#f#g#g#g.Z.Z.8.Z.G.Z.Z.8.Z.Z.8#.#..W.H.U.K.K.z.lQtQtQt",
"Qt.g#t.l.z.L.M.U.X.3.3.4.3.3.3.4.3.3.3.4.6#j#h#q#w#f#g#s#p#o#o#o#o#o#p#s#g#f#g#..Z.8.Z.G.Z.G.Z.0.Z.8.Z.Z#..G.Z.H.I.K.L.z.l.2QtQt",
".d.d.e.m.z.L.M.U.X.3.3.3.4.3.3.3.4.F.4#j#j#j#m#i#w#g#g#x#v#p#o#o#o#p#v#x#g#g#.#..G.Z.Z.Z.Z.Z.Z.8.8.Z.8.Z.Z.x.W.0.U.K.M.y.l.2QtQt",
".t.a.a.n.B.K.K.S.X.4.3.3.3.4.4.4.X.W.Z#y#j#c#j#j#q#w#g#z#A#s#v#v#v#s#A#w#B#g.Z.Z.Z.Z.Z.Z.Z.Z.G.Z.G.Z.G.O.F.F.F.W.U.K.J.z.lQtQtQt",
".b.b#a.p#k.J.J.S.X.3.3.4.3.3.3.4.Z.G.Z#j#j#c#m#c#w#w#g#C#z#x#x#x#x#x#z#w#B#D#w.Z.Z.G.Z.G.Z.G.Z.Z.Z.G.G.W.F.3.3.W.T.K.L.z.lQtQtQt",
".c.b#a.p.C.M.J.T.X.4.3.3.3.4.5.4.X.G.Z#j#y#c#E#w#F#w#G#z#w#w#G#H#H#I#D#w#B#D#D#w.Z.8.Z.8.Z.Z.Z.Z.Z.G.G.W.F.3.3.W.T.K.K.z.k.g.1Qt",
".b.b.b.p.C.K.K.T.X.3.3.4.4.4.4.6.Z.G.Z.Z#j#m#w#J#w#D#D#z#D#D#D#w#D#K#F#w#B#D#w#s.Z.Z.8.Z.Z.Z.Z.Z.W.W.W.F.3.p.o.6.T.K.K.y.l.g.gQt",
".b.b.b.o.C.M.M.V.X.4.3.4.X.X.Z.X.Z.Z.G.Z.6#w#D#G#G#D#w#L#G#G#M#N#D#J#w#B#G#O#G#M#w.Z.8.Z.8.Z.G.Z.6.F.F.5.E#P#P.5.C.J.J.z.mQtQtQt",
".b.b.b.o.C.K.M.V.X.3.3.4.Z.Z.G.Z.Z.Z.G.X.4#A#w#D#G#D#w#L#w#D#D#w#D#w#w#B#w#J#M#M#w.8.Z.Z.8#..G.W.9.3.3#Q#P.b.b.q.C.K.J.z.l.hQtQt",
".b.b.b.o.C.M.M.V.X.3.5.4.X.G.G.Z.G.Z.G.Z.4#A#s#w#D#w#c#L#z#D#M#N#D#J#w#B#s#G#O#G#J.Z.8.8.8.G.G.Z.F.3.3.5#P.b.b.o.C.K.K.z.k.2.1Qt",
".a.a.a.r.C.M.M.U.Z.4.4.6.Z.G.G.G.x.Z.X.X.6#v#v#s#A.Z#R#z#L#D#D#w#D#w#w#B#h#w#G#s#s#w.Z.Z.Z.x.W.6.F.3.3#S#P.b.b.o.C.K.J.z.l.2QtQt",
".d.d.e.r.z.J.K.U.P.X.X.Z.Z.Z.Z.Z.F.4.4.F#s#p#v#s#A.F#R#z#L#B#B#B#B#B#B#B#B#w#s#v#s#w#T.G.F.F.F.F.3.4.3.5#P.b.b.n.C.J.J.B.l.g.gQt",
"Qt.g#t.l.z.J.K.I.H.G.Z.G.Z.G.G.X.F.3.3.F#w#G#O#v#s.5#R#R#z#U#U#B#w#B#B#w#B#j#s#p#v#s#m#T.4.3.3.3.3.3.3#S#P.b.b.q.C.J.J.z.l.gQtQt",
"Qt.g#t.l.z.M.M.U.H.G.G.Z.G.G.G.Z.4.3.3.4#w#M#G#M#w#B#w#z#z#w#B#B#D#z#z#R#w#B#s#p#p#s#m#m#T.3.3.3.3.3.3#V#W.b.b.n.C.J.J.z.l.g.gQt",
".d.d.e.m.z.M.M.I.H.O.W.G.W.W.x.6.F.3.3#R#w#O#X#G#w#w#R#L#L#B#w#B#w#z#L#L#z#R#p#s#p#s#m#m#m#c.3.3.F.F.F.3.q#P#P.5.C.J.K.B.m.d.d.d",
".t.a#Y.n.C.K.M.I.H.Z.G.W.6.F.4.4.4#R#R#w#G#X#G#G#w#w#R#L#B#w#D#w#D#w#R#z#L#z#R#s#v#s#c#h#h#m#c.F#Z.W.Z.6.5.o#S.F.T.K.K.B.n.a.a.a",
".b.b#a.p.C.K.M.I.H.Z.G.Z.4.3.3.3#R#R#R#w#v#p#G#R#R#R#R#L#B#D#G#w#G#D#R#R#z#L#z#z#p#s#j#m#h#h#T.F.W.G.G.W.F.3.3.W.T.K.K.C.p.b.c.c",
".c.c#a.p.C.M.M##.H.Z.G.W.4.3.3#R#R#R#R#s#p#s#p#s#R#R#L#M#w#J#J#B#G#G#w#R#R#R#R#R#z#z#j#c#0#h#m.F.W.G.G.Z.F.3.3.W.T.K.K.C.p#a#a.c",
".a.a.a.n.H.I.I.C.Y.X.W.X.4.4#R#R#R#R#L#s#p#o#s#p#R#L#z#M#B#J#M#1#w#J#w#R#R#L#2#2#L#z#z#c#0#0#h#c.W.O.W.6.3#S#S.F#k.I.I.0#3.a.a.t",
".#.d.e#4.x.H.H.G.X.F.4.4.4#5#R#R#R#z#z#s#p#v#v#R#2#L#M#1#1#1#1#1#B#J#w#J#z#R#2#L#L#L#z#6#0#0#0#T.F.F.F.5.E#P#7.p.W#k#k.R#4#8.d.d",
".e.g.g.k#9.G.G.Z.4.4.3.4.3#5#5#R#R#6#z#R#v#p#v#2#2#z#B#6#6#1#1#1#6#B#B#J#z#L#z#2#L#L#z#6#5#0#0#m#c.3.3#V#7.b#aa..F.G.O.w.k.1QtQt",
".e.e.e.ka#.G.G.X.4.4.3.3.3#5.3#R#5#z#5#6#z#L#L#L#2#z#6#6#6#6#1#1#6aa#6#6#w#L#z#2#2#L#z#6#5#m#m#m#c.4.3.5#7.b.ba..F.Y.Y.w.k.1QtQt",
".e.f.dab.v.6.4.4.v.n.oac#S#5#5#Q.v#9#m#6#z#L#L#2#L#6#6#5#6#6#6#6aa#5#I#5#6#L#L#z#2#L#5#6#5#c#c#c#c.oad#3#P.a.a.Qae.F.R.vaf.1QtQt",
".t.a.a.tag.E.E.Qahaiabaj#P#5#5.u#4.k#m#6#z#L#2#2#z#6#5#5#6#6#6#6#5#I#I#I#5#z#L#z#2#2#5#6#4.k.k.j.jabab.i.i.d.d.#.u.E.q.u.fQtQtQt",
".b.c.c.c.b.b.b#Y.e.e.e.e.a#5.c.a.dQt#5#6#5#L#2#2#5#6#5#5#5#6#6#6#5#I#I#I#5aa#L#L#2#H#6#5.d.g.g.g.gQtQtQt.h.h.h.d.a.b.b.a.dQtQtQt",
".c.c.c.c.b.c.b.t.#.e.e.f.a.c.c.a.dQtQt#6#5#2#2#L#1#I#5#5#5#5#6#6#5#H#H#H#5aa#z#L#H#6#m#5.d.g.gQtQtQtQtQtQt.h.h.d.a.c.b.a.d.h.hQt",
".b.b.c.b.b.c.b.t.e.e.g.e.t.c.c.a.dQtQt#5#6#H#2#L#1#6#6#T#5#5#6#6#5#I#H#I#5#6#6#m#5#m#H.t.dQtQtQtQtQtQtQtQtQt.h.d.a.c.c.a.dQtQtQt",
"QtQtQtQtQtQtQtQtQtQtQtQtQtQtQtQtQtQtQt.##m#6#H#m.b#1#H#5#5#6#6#1ak#5#I#5aa#6#6#5#m#H.h.hQtQt.f.gQt.f.e.h.f.gQtQtQtQt.f.d.a.c.c.b",
"QtQtQtQtQtQtQt.gQt.gQt.g.gQt.g.g.g.g.g.d#H#m#5#5.b#1#6#6#6#6ak#1#1#6#6#6#6#1.g#m#H.g.e.gQt.g.g.g.g.g.e.e.g.g.g.g.gQt.g.d.a.c.c.c",
".h.hQtQtQt.g.gQt.gQtQt.g.g.g.g.g.g.g.g.d.a#H#H#m.b#1#1#1#1#1#1.b#1#N#J#J#N#1.g.g.g.g.g.g.g.g.g.g.g.g.e.e.g.g.g.g.g.g.g.d.a.c.c.c",
".d.d.d.i.j.j.k.k.k.l.l.l.m.l.l.m.l.l.l.m.n.oalalal#x#N#J#J#N#1al#1#1#Taa#1#1alalalal.l.l.l.l.l.l.l.l.l.l.l.l.l.l.k.k.k.j.s.a.t.a",
".t.a.a.u.v.w.w.x.y.z.z.z.y.z.z.z.z.Aalalalalalalal#1akakakak#1al#1#N#1#1#N#1alalalalalalalal.z.y.A.A.z.z.z.z.z.y.x.w.w.D.j.d.d.d",
".c.b.b.E.F.G.G.H.I.J.J.K.L.L.L.Lalalalalalalalalal#1#1#1#1#1#jalak#1#J#J#1#1alalalalalalalalalal.K.K.K.J.K.J.L.I.N.G.G.w.k.gQtQt",
".c.c.b.E.F.G.O.H.I.J.K.K.K.K.Jalalalalalalalalalal#1#1#1#1#1#1alak#Naaaa#N#1alalalalalalalalalalal.M.M.K.K.K.K.I.P.O.O.w.kQtQt.h",
".a.a.a.Q.R.H.H.N.S.T.T.T.T.Talalalalalalalalalalal#1akaaaaak#1akakam#J#Jaa#1#jalalalalalalalalalalal.V.U.I.I.U.S.N.N.H.x.k.g.gQt",
".d.d.d.m.y.I.I.S.G.W.W.W.Walalalalalalalalalalalal#1aaaaaaak#1akakaa#5aaak#1#1alalalalalalalalalalalal.Z.G.H.H.H.V.M.I.y.k.g.g.f",
"Qt.1.2.l.z.J.K.T.X.3.3.3.3alalalalalalalalalalalalal#j#1#1#jalakaa#T#I#Taaak#1alalalalalalalalalalalal.4.X.Z.G.H.V.M.K.B.l.g.e.e",
"QtQt.2.l.z.J.K.T.W.3.3.3.3alalalalalalalalalalalalalalalalalalak#T#I#I#I#Tak#1alalalalalalalalalalalal.4.Z.Z.W.H.7.K.J.B.l.e.e.e",
"Qt.2Qt.l.B.J.K.T.W.3.3.3.4alalalalalalalalalalalalalalalalalalalak#T#T#Taa#1alalalalalalalalalalalalal.F.Z.Z.G.0.I.J.K.B.l.e.e.h",
"Qt.2.2.l.z.K.K.T.W.3.3.4.3.3alalalalalalalalalalalalalalalalalalalalalalalalalalalalalalalalalalalal.Z.Z.Z.Z.Z.H.I.K.L.z.l.g.gQt",
"QtQt.2.l.z.J.K.T.W.3.3.3.3.4.3alalalalalalalalalalalalalalalalalalalalalalalalalalalalalalalalalal.G.Z.Z.G.Z.Z.H.U.K.L.z.l.g.gQt",
"Qt.2.2.l.z.K.K.U.W.3.3.3.3.3.3.Falalalalalalalalalalalalalalalalalalalalalalalalalalalalalalalal.Z.Z.G.Z.Z.Z.G.H.I.K.L.z.l.e.g.f",
"QtQt.2.l.z.K.K.U.W.3.3.3.4.F.4.F.X.Xalalalalalalalalalalalalalalalalalalalalalalalalalalalal.8.Z.Z.G.Z.Z.Z.G.Z.H.U.K.L.y.l.e.e.e",
"Qt.gQt.m.y.L.L.U.W.3.3.4.6.W.Z.6.F.9.4.4.4.3alalalalalalalalalalalalalalalalalalalal.Z.8.8.Z.Z.8.G.Z.Y.Z.Z.Z.Z.H.U.M.L.z.l.g.gQt",
"QtQtQt.l.z.L.K.U.W.3.3.F.W.G.G.W.F.3.4.3.3.3.4.3.4.3.3.4.X.G.G.X.4.3.5.F.Z#.#..Z.8.Z.8.Z.Z.Z.8.Z.Z.Z.Z.8.Z.Z.Z.H.I.M.M.z.l.gQtQt",
"Qt.g.g.l.z.K.K.U.W.3.3.F.Z.G.G.Z.4.3.3.3.3.4.3.3.4.3.3.4.Z.Y.Y.Z.4.3.3.9.W.Y.Z.8.Z.8.8.Z.8.Z.Z.8.Z.8.Z.Y.G.Z.Z.H.U.M.M.z.m.g.gQt",
"Qt.g.g.k.z.K.K.U.W.4.4.F.X.W.Z.6.4.3.4.3.3.3.3.4.4.4.4.6.X.X.Z.X.F.4.9.F.Z.Z.8.Z.Z.Z.Z.8.Z.8.8.Z.Z.Z.8.Z.Z.Z.Z.H##.M.M.z.l.gQtQt",
"QtQtQt.l.z.K.K.I.Y.W.W.W.F.F.4.F.3.4.3.4.4.3.3.F.6.Z.X.6.F.4.4.F.W.W.W.W.Z.8.Z.8.8.Z.8.Z.8.Z.8.8.Y.Z.8.Z.8.Z.G.H.I.K.J.z.l.g.gQt",
"QtQtQt.l.z.K.K.U.H.G.Y.Z.4.3.3.3.3.3.3.3.3.3.3.9.Z.G.G.Z.4.3.3.F.W.G.Y.Y.Z.8.8.Z.Z.8.Z.8.Z.8.Z.Z.Z.8.Z.8.8.Z.W.H.I.K.J.z.l.e.g.h",
"QtQt.2.k.z.K.K.I.H.G.G.W.4.3.3.3.4.3.4.3.3.3.3.F.W.G.G.Z.F.5.3.4.W.Z.G.G.Z.Z.Z.8.Z.8.8.Z.8.Z.Z.8.Z.8.Z.Z.Z.8.Z.H.T.K.J.z.l.g.g.h",
"Qt.2Qt.l.z.K.K.U.P.W.W.X.F.4.9.F.4.3.3.3.4.F.4.F.X.Z.X.X.F.4.4.9.Z.G.Z.G.8.Z.8.Z.8.Z.8.Z.Z.8.Z.Z.Y.Z.8.Z.Z.Z.Z.B.I.K.J.z.m.d.d.d",
"QtQt.2.k.z.J.J.U.O.4.4.F.W.W.O.W.F.3.3.F.6.W.Z.X.6.F.4.F.X.Z.W.Z.Z.Z.Z.Z.Z.Z.Z.Z.Z.8.Z.Z.8.Z.Z.8.8.Z.Z.Z.Z.Z.Z.H.U.K.K.B.n.a.a.t",
"Qt.1Qt.l.z.L.K.T.W.3.3.4.W.Y.G.W.4.3.3.F.Z.G.G.X.4.3.3.4.X.G.G.G.Z.Z.G.Z.0.Z.G.Z.8.Z.Z.8.Z.8.8.Z.Z.Z.8.G.G.Z.Z.H.U.K.K.C.p.c#a.b",
"Qt.1.1.l.y.L.L.U#b.3.3.4.O.Y.Y.W.F.3.3.4.Z.G.G.W.F.3.3.4.x.G.8.8.G.Z.Z.Z.Z.Z.Z.Z.Z.8.Z.Z.8.Z.Z.8.8.Z.Z.Z.Z.Z.Z.H.I.K.K.H.p#a.b.b",
".d.d.d.m.z.K.L.U.W.4.4.F.W.W.W#Z.4.3.3.4.X.W.W.X.F.4.4.6.Z.8.Z.Z.Z.Z.G.Z.G.Z.G.Z.8.Z.8.8.Z.8.8.Z.Z.8.Z.G.Z.Z.Z.H.I.K.K.B.p.b.b.b",
".a.a.a.n.B.J.L.U.P.W.W.W.F.F.F.4.3.3.3.4.F.4.F.F.6.W.Z.Z.Z.Z.Z.8#..Z.Z.8.Z.G.Z.Z.8.Z.8.Z.8.Z.8.Z.8.Z.Z.8.Z.Z.Z.H.I.M.M.C.p.b.b.b",
".b.b#a.p#k.K.L.U#l.Y.Y.W.F.3.3.4.3.4.3.4.3.3.3.4.Z.G.G.Z.Z.Z.G.Z#..Z.8.Z.Z.Z.Z.8.Z.8.Z.8.Z.8.Z.8.Z.8.8.Z.Z.Z.Z.H.U.M.M.C.p.b.b.b",
".b.b.b.p#k.K.K.I.H.Y.O.W.9.3.3.3.3.3.4.3.3.3.3.F.X.Z.Z.Z.Z.Z.Z.Y#..8.Z.8.Z.Z.8.Z.Z.Z.Z.8.Z.8.8.Z.Z.8.Z.8.Z.Z.G.H.I.M.M.C.q.b.b.b",
".c.b.b.p#k.K.K.U.H.O.G.W.F.3.3.3.4.3.3.3.3.4.3.F.Z.G.G.Z.Z.Z.Z.Z.8.Z.8.Z.8.8.Z.8.8.Z.8.Z.8.Z.Z.Z.8.Z.8.Z.G.Z.Z.H.U.M.M.C.o#a.b.b",
".b.b.b.p.B.K.K.I.H.Z.G.W.4.4.3.4.3.4.4.3.3.3.3.4.Z.8.8.8.G.Z.Z.Y.Z.8.Z.8.Z.Z#.#..Z.8.Z.8.Z.Z.Z.8.Z.8.Z.8.Z.Z.Z.H.U.M.M.C.o.b.b.b",
".c.b#a.p.N.K.K.U.H.Z.G.X.4.3.3.3.3.3.3.3.4.3.4.4.x.8.Z.Z.Z.Y.Z.Z.8.Z.8#..8.Z#.#..8.Z.8.Z.Z.8.8.Z.8.Z.Z.Z.G.Z.Z.H.U.M.K.C.o.b.b.b",
".c#a.b.p.C.K.K.I.H.G.G.Z.F.3.3.3.4.3.3.4.3.3.3.F.X.G.8.Z.8.Z.Z.Z.Z.Z#.#.#.#.#.#..Z.8.8.Z.8.Z.8.Z.8.Z.8.Z.Z.Z.Z.H##.M.M.C.p.b.b.c",
".a.a.a.n.B.K.K.V.0.X.W.X.4.3.4.3.3.3.3.4.4.4.4.6.W.G.8.Z.8.Z.G.Z.8.Z#.#.#.#.#.#..Z.8.Z.8.Z.8.Z.8.Z.8.Z.8.Z.G.Z.H##.M.M.z.n.a.a.a",
".d.d.e.r.z.J.J.I.W.4.F.4.4.3.3.3.4.3.4.4.6.x.W.W.G.G.Z.Z.Z.Z.G.Z.G.Z.Z.Z#..Z.8.Z.Z.Z.8.Z.Z.Z.Z.Z.8.Z.8.Z.Z.Z.G.H.I.K.J.z.m.d.d.d",
"Qt.g#t.l.z.L.K.S.X.3.3.3.3.4.3.4.3.3.3.4.Z.G.G.G.Z.Z.Z.G.Z.G.Z.Z.Z.Z.G.Z#..8#..Z.8.Z.Z.8.Z.G.Z.Z.8.Z.Z.8#.#..W.H.U.K.K.z.lQtQtQt",
"Qt.g#t.l.z.L.M.U.X.3.3.4.3.3.3.4.3.3.3.4.6.G.Z.G.G.G.Z.G.Z.Z.Z.Z.Z.Y.G.G#.#.#.#..Z.8.Z.G.Z.G.Z.0.Z.8.Z.Z#..G.Z.H.I.K.L.z.l.2QtQt",
".d.d.e.m.z.L.M.U.X.3.3.3.4.3.3.3.4.F.4.6.Z.G.Z.G.W.X.x.Z.Z.Z.G.G.Z.Z.x.Z.Z#.#.#..G.Z.Z.Z.Z.Z.Z.8.8.Z.8.Z.Z.x.W.0.U.K.M.y.l.2QtQt",
".t.a.a.n.B.K.K.S.X.4.3.3.3.4.4.4.X.W.Z.x.G.Z.Z.X.6.4.4.6.Z.G.G.Z.9.9.F.F.W.G.Z.Z.Z.Z.Z.Z.Z.Z.G.Z.G.Z.G.O.F.F.F.W.U.K.J.z.lQtQtQt",
".b.b#a.p#k.J.J.S.X.3.3.4.3.3.3.4.Z.G.Z.Z.G.G.G.W.4.3.3.4.X.G.G.X.9.3.3.F.W.G.G.Z.Z.G.Z.G.Z.G.Z.Z.Z.G.G.W.F.3.3.W.T.K.L.z.lQtQtQt",
".c.b#a.p.C.M.J.T.X.4.3.3.3.4.5.4.X.G.Z.G.G.G.G.Z.4.5.4.4.x.G.G.O.3.3.3.4.x.G.Z.8.Z.8.Z.8.Z.Z.Z.Z.Z.G.G.W.F.3.3.W.T.K.K.z.k.g.1Qt",
".b.b.b.p.C.K.K.T.X.3.3.4.4.4.4.6.Z.G.Z.Z.Z.X.Z.6.F.4.4.6.X.O.X.X.F.F.9.F.Z.8.8.Z.Z.Z.8.Z.Z.Z.Z.Z.W.W.W.F.3.p.o.6.T.K.K.y.l.g.gQt",
".b.b.b.o.C.M.M.V.X.4.3.4.X.X.Z.X.Z.Z.G.Z.6.4.4.F.6.W.Z.X.F.4.4.6.W.W.W.Z.Z.Z.Z.8.8.Z.8.Z.8.Z.G.Z.6.F.F.5.E#P#P.5.C.J.J.z.mQtQtQt",
".b.b.b.o.C.K.M.V.X.3.3.4.Z.Z.G.Z.Z.Z.G.X.4.5.3.4.Z.Z.G.X.F.3.3.4.W.G.G.Z.Z.Z.G.Z.Z.8.Z.Z.8#..G.W.9.3.3#Q#P.b.b.q.C.K.J.z.l.hQtQt",
".b.b.b.o.C.M.M.V.X.3.5.4.X.G.G.Z.G.Z.G.Z.4.3.3.4.Z.G.G.Z.4.3.5.4.W.G.Z.Z.Z.Z.Z.Z.8.Z.8.8.8.G.G.Z.F.3.3.5#P.b.b.o.C.K.K.z.k.2.1Qt",
".a.a.a.r.C.M.M.U.Z.4.4.6.Z.G.G.G.x.Z.X.X.6.4.4.6.6.Z.X.X.F.4.4.F.G.G.G.Z.G.Z.G.Z.Z.8.Z.Z.Z.x.W.6.F.3.3#S#P.b.b.o.C.K.J.z.l.2QtQt",
".d.d.e.r.z.J.K.U.P.X.X.Z.Z.Z.Z.Z.F.4.4.F.6.W.Z.6.F.F.4.F.X.Z.W.Z.Z.Z.8.Z.Z.Z.Z.Z.G.Z.G.G.F.F.F.F.3.4.3.5#P.b.b.n.C.J.J.B.l.g.gQt",
"Qt.g#t.l.z.J.K.I.H.G.Z.G.Z.G.G.X.F.3.3.F.W.G.Z.Z.4.5.3.4.X.G.G.G.8.8.Z.8.8.G.Z.Z.Z.Z.G.W.4.3.3.3.3.3.3#S#P.b.b.q.C.J.J.z.l.gQtQt",
"Qt.g#t.l.z.M.M.U.H.G.G.Z.G.G.G.Z.4.3.3.4.W.G.G.W.F.3.3.4.x.G.8.8.Z.Z.8.Z.Z.8.Z.G.Z.G.G.W.F.3.3.3.3.3.3#V#W.b.b.n.C.J.J.z.l.g.gQt",
".d.d.e.m.z.M.M.I.H.O.W.G.W.W.x.6.F.3.3.F.W.G.G.Z.F.4.4.6.Z.8.Z.Z.Z.8.Z.Z.8.Z.Z.Z.W.x.W.X.4.3.3.3.F.F.F.3.q#P#P.5.C.J.K.B.m.d.d.d",
".t.a#Y.n.C.K.M.I.H.Z.G.W.6.F.4.4.4.3.3.F.W.G.G.W.W.W.Z.Z.Z.Z.Z.8.8.Z.8.Z.Z.G.Z.Z#Z.4.4.4.4.3.3.F#Z.W.Z.6.5.o#S.F.T.K.K.B.n.a.a.a",
".b.b#a.p.C.K.M.I.H.Z.G.Z.4.3.3.3.3.3.3.F.Z.Z.G.Z.G.G.8.Z.Z.Z.Z.8.8.Z.8.8.Z.G.G.X.F.3.3.3.3.3.3.F.W.G.G.W.F.3.3.W.T.K.K.C.p.b.c.c",
".c.c#a.p.C.M.M##.H.Z.G.W.4.3.3.4.3.3.3.9.R.G.Z.G.G.Z.G.G.Z.Z.Z.Z.G.G.Z.8.G.G.G.W.F.3.3.3.3.3.3.F.W.G.G.Z.F.3.3.W.T.K.K.C.p#a#a.c",
".a.a.a.n.H.I.I.C.Y.X.W.X.4.4.3.3.4.4.F.6.W.Z.G.O.Z.Z.Z.Z.Z.Z.8.Z.W.W.x.Z.O.W.W.X.F.3.3.4.4.4.F.F.W.O.W.6.3#S#S.F#k.I.I.0#3.a.a.t",
".#.d.e#4.x.H.H.G.X.F.4.4.4.4.3.4.X.W.O.W.G.G.G.G.Z.Z.Z.Z.Z.G.G.O.6.4.F.F.4.F.F.4.3.3.4.4#Z.O.W.X.F.F.F.5.E#P#7.p.W#k#k.R#4#8.d.d",
".e.g.g.k#9.G.G.Z.4.4.3.4.3.3.4.4.W.G.G.G.G.G.G.O.G.G.G.G.G.G.G.W.F.3.3.3.3.3.3.3.4.3.3.F.O.O.G.O.F.3.3#V#7.b#aa..F.G.O.w.k.1QtQt",
".e.e.e.ka#.G.G.X.4.4.3.3.3.4.3.4.O.G.G.G.Z.G.G.G.G.G.G.G.Z.G.G.W.4.3.3.4.3.4.4.3.4.3.3.F.O.G.G.W.4.4.3.5#7.b.ba..F.Y.Y.w.k.1QtQt",
".e.f.dab.v.6.4.4.v.n.oac#S.3#Q#Q.v#9a#.w.w.F.9.w.wa#.w.w.F.w.F.4.5#Q#Q#Q#S#S#S#S#S#S#S.5.4a##9.v.v.oad#3#P.a.a.Qae.F.R.vaf.1QtQt",
".t.a.a.tag.E.E.Qahaiabaj#Pagag.u#4.k.j#4.Q.E.E.Q#4.k.k.j.Q#W.q.Q#W#W#W#W#W#W#W#W#W#W#W.u#4.k.k.j.jabab.i.i.d.d.#.u.E.q.u.fQtQtQt",
".b.c.c.c.b.b.b#Y.e.e.e.e.a.b.c.a.dQt#t#8.a.b.b.a.d#t.g.d.a.b.b.b.c.c.t.b.c.b.b.c.b.b.c.a.d.g.g.g.gQtQtQt.h.h.h.d.a.b.b.a.dQtQtQt",
".c.c.c.c.b.c.b.t.#.e.e.f.a.c.c.a.dQtQt.d.a#a.b.a.d.hQt.d.a.c.b.b.b.c.b.b.b.b.c.b.b.b.b.a.d.g.gQtQtQtQtQtQt.h.h.d.a.c.b.a.d.h.hQt",
".b.b.c.b.b.c.b.t.e.e.g.e.t.c.c.a.dQtQt.d.a.c.b.a.d.hQt.d.a.c.c.c.c.b.c.b.c.c.b.c.c.b.b.t.dQtQtQtQtQtQtQtQtQt.h.d.a.c.c.a.dQtQtQt"};
