/* XPM */
static char *dummy[]={
"64 64 127 2",
"Qt c None",
".U c #000000",
".V c #000000",
".W c #000000",
"#O c #000000",
".X c #000000",
"#E c #000000",
".Y c #000000",
".0 c #000000",
".8 c #000000",
".1 c #000000",
"#7 c #000000",
"#8 c #000000",
".Z c #000000",
".2 c #000000",
"#t c #000000",
"#h c #000000",
"#R c #000000",
".9 c #000000",
".3 c #000000",
"#F c #000000",
"#M c #000000",
".4 c #000000",
"#. c #000000",
".5 c #000000",
"#i c #000000",
"#s c #000000",
".7 c #000000",
"## c #000000",
"#2 c #000000",
"#u c #000000",
"#3 c #000000",
"#4 c #000000",
"#5 c #000000",
"#6 c #000000",
".6 c #000000",
"#g c #000000",
"#j c #000000",
"#S c #000000",
"#a c #000000",
"#f c #000000",
"#G c #000000",
"#N c #000000",
"#b c #000000",
"#k c #000000",
"#v c #000000",
"#c c #000000",
"#e c #000000",
"#l c #000000",
"#T c #000000",
"#Z c #000000",
"#0 c #000000",
"#w c #000000",
"#m c #000000",
"#1 c #000000",
"#H c #000000",
"#d c #000000",
"#n c #000000",
"#x c #000000",
"#o c #000000",
"#r c #000000",
"#q c #000000",
"#I c #000000",
"#y c #000000",
"#U c #000000",
"#V c #000000",
"#W c #000000",
"#z c #000000",
"#X c #000000",
"#Y c #000000",
"#A c #000000",
"#B c #000000",
"#D c #000000",
"#C c #000000",
"#Q c #000000",
"#J c #000000",
"#P c #000000",
"#K c #000000",
"#L c #000000",
".y c #001111",
".s c #002b2b",
".z c #005477",
".D c #005e7f",
".F c #007faa",
".E c #009900",
".g c #080808",
".Q c #0f0e11",
".w c #1e424f",
".R c #212828",
".q c #260c0c",
".T c #26252c",
".S c #35353a",
"#p c #35383f",
".v c #3d5358",
".# c #444448",
".A c #470000",
".m c #494482",
".u c #4a2121",
".M c #51545b",
".x c #535353",
".K c #562f1d",
".I c #637a82",
".d c #6d3300",
".G c #72472d",
".t c #750000",
".h c #797a7c",
".B c #838384",
".n c #84393a",
".r c #870000",
".L c #8e3314",
".H c #946c45",
".o c #96b2ff",
".c c #996314",
".e c #9e99a6",
".C c #adb2af",
".J c #af001c",
".N c #c09d7b",
".O c #c1bfbc",
".p c #c46555",
".f c #ccd3d6",
".a c #d19e30",
".l c #e5f4ff",
".P c #ef0c23",
".k c #f78c6b",
".i c #f9edd6",
".b c #fcd670",
".j c #ffd8ce",
"QtQtQtQtQtQtQtQtQtQtQtQtQtQtQtQtQtQtQtQtQtQtQtQtQtQtQtQtQtQtQtQtQtQtQtQtQtQtQtQtQtQtQtQtQtQtQtQtQtQtQtQtQtQtQtQtQtQtQtQtQtQtQtQt",
"QtQtQtQtQtQtQtQtQtQtQtQtQtQtQtQtQtQtQtQtQtQtQtQtQtQtQtQtQtQtQtQtQtQtQtQtQtQtQtQtQtQtQtQtQtQtQtQtQtQtQtQtQtQtQtQtQtQtQtQtQtQtQtQt",
"QtQtQtQtQtQtQtQtQtQtQtQtQtQtQtQtQtQtQtQtQtQtQtQtQtQtQtQtQtQtQtQtQtQtQtQtQtQtQtQtQtQtQtQtQtQtQtQtQtQtQtQtQtQtQtQtQtQtQtQtQtQtQtQt",
"QtQtQtQtQtQtQtQtQtQtQtQtQtQtQtQtQtQtQtQtQtQtQtQtQtQtQtQtQtQtQtQtQtQtQtQtQtQtQtQtQtQtQtQtQtQtQtQtQtQtQtQtQtQtQtQtQtQtQtQtQtQtQtQt",
"QtQtQtQtQtQtQtQtQtQtQtQtQtQtQtQtQtQtQtQtQtQtQtQtQtQtQtQtQtQtQtQtQtQtQtQtQtQtQtQtQtQtQtQtQtQtQtQtQtQtQtQtQtQtQtQtQtQtQtQtQtQtQtQt",
"QtQtQtQtQtQtQtQtQtQtQtQtQtQtQtQtQtQtQtQtQtQtQtQtQtQtQtQtQtQtQtQtQtQtQtQtQtQtQtQtQtQtQtQtQtQtQtQtQtQtQtQtQtQtQtQtQtQtQtQtQtQtQtQt",
"QtQtQtQtQtQtQtQtQtQtQtQtQtQtQtQtQtQtQtQtQtQtQtQtQtQtQtQtQtQtQtQtQtQtQtQtQtQtQtQtQtQtQtQtQtQtQtQtQtQtQtQtQtQtQtQtQtQtQtQtQtQtQtQt",
"QtQtQtQtQtQtQtQtQtQtQtQtQt.#.#.#QtQtQtQtQtQtQtQtQtQt.a.b.a.c.c.c.c.d.dQtQtQtQtQtQtQtQtQtQtQtQtQtQtQtQtQtQtQtQtQtQtQtQtQtQtQtQtQt",
"QtQtQtQtQtQtQtQtQtQtQtQtQt.#.e.f.#QtQtQtQtQtQtQtQt.aQt.c.c.a.c.c.c.c.c.c.dQtQtQtQtQtQtQtQtQtQtQtQtQtQtQtQtQtQtQtQtQtQtQtQtQtQtQt",
"QtQtQtQtQtQtQtQtQtQtQtQtQt.#.f.g.f.#QtQtQtQtQtQtQtQt.c.a.a.a.a.c.c.a.a.c.c.dQtQtQtQtQtQtQtQtQtQtQtQtQtQtQtQtQtQtQtQtQtQtQtQtQtQt",
"QtQtQtQtQtQtQtQtQtQtQtQtQtQt.#.f.e.h.#QtQt.g.#.#.#.c.a.b.b.a.b.a.a.c.a.a.c.c.dQtQtQtQtQtQtQtQtQtQtQtQtQtQtQtQtQtQtQtQtQtQtQtQtQt",
"QtQtQtQtQtQtQtQtQtQtQtQtQtQtQt.g.#.e.h.gQtQtQt.g.c.a.b.a.a.b.b.b.b.i.b.a.a.c.c.dQtQtQtQtQtQtQtQtQtQtQtQtQtQtQtQtQtQtQtQtQtQtQtQt",
"QtQtQtQtQtQtQtQtQtQtQtQtQtQtQtQtQt.g.h.#.gQtQt.c.a.c.a.i.i.i.b.a.a.b.i.b.a.d.c.dQtQtQtQtQtQtQtQtQtQtQtQtQtQtQtQtQtQtQtQtQtQtQtQt",
"QtQtQtQtQtQtQtQtQtQtQtQtQtQtQtQtQtQt.g.e.#.g.c.a.c.a.b.i.b.i.b.i.i.a.i.i.a.c.d.c.dQtQtQtQtQtQtQtQtQtQtQtQtQtQtQtQtQtQtQtQtQtQtQt",
"QtQtQtQtQtQtQtQtQtQtQtQtQtQtQtQtQtQtQt.#.h.#.#.c.a.a.a.i.a.i.i.b.i.i.a.i.b.a.d.d.dQtQtQtQtQtQtQtQtQtQtQtQtQtQtQtQtQtQtQtQtQtQtQt",
"QtQtQtQtQtQtQtQtQtQtQtQtQtQtQtQtQtQtQt.g.#.#.e.a.c.b.a.b.c.b.i.c.j.i.a.i.d.a.c.d.d.dQtQtQtQtQtQtQtQtQtQtQtQtQtQtQtQtQtQtQtQtQtQt",
"QtQtQtQtQtQtQtQtQtQtQtQtQtQtQtQtQtQtQtQt.g.h.c.a.c.b.c.b.g.g.i.k.c.g.g.b.c.d.a.cQtQtQtQtQtQtQtQtQtQtQtQtQtQtQtQtQtQtQtQtQtQtQtQt",
"QtQtQtQtQtQtQtQtQtQtQtQtQtQtQtQtQtQtQtQt.g.h.e.h.d.a.c.a.l.m.k.k.j.m.l.a.n.c.d.dQtQtQtQtQtQtQtQtQtQtQtQtQtQtQtQtQtQtQtQtQtQtQtQt",
"QtQtQtQtQtQtQtQtQtQtQtQtQtQtQtQtQtQtQtQtQt.h.f.#.d.a.d.d.j.o.j.k.j.o.j.p.n.c.d.d.dQtQtQtQtQtQtQtQtQtQtQtQtQtQtQtQtQtQtQtQtQtQtQt",
"QtQtQtQtQtQtQtQtQtQtQtQtQtQtQtQtQtQtQtQtQt.g.e.l.g.c.d.n.k.j.j.j.j.j.k.n.d.c.dQtQtQtQtQtQtQtQtQtQtQtQtQtQtQtQtQtQtQtQtQtQtQtQtQt",
"QtQtQtQtQtQtQtQtQtQtQtQtQtQtQtQtQtQtQt.g.g.g.h.f.e.d.d.q.p.k.j.j.j.k.p.q.d.dQtQtQtQtQtQtQtQtQtQtQtQtQtQtQtQtQtQtQtQtQtQtQtQtQtQt",
"QtQtQtQtQtQtQtQtQtQtQtQtQtQtQtQtQtQtQt.r.g.#.g.g.l.s.d.t.u.n.p.p.p.n.u.v.s.dQtQtQtQtQtQtQtQtQtQtQtQtQtQtQtQtQtQtQtQtQtQtQtQtQtQt",
"QtQtQtQtQtQtQtQtQtQtQtQtQtQtQtQtQtQtQt.g.g.#.h.#.s.w.d.t.x.q.q.q.q.q.s.y.v.s.sQtQtQtQtQtQtQtQtQtQtQtQtQtQtQtQtQtQtQtQtQtQtQtQtQt",
"QtQtQtQtQtQtQtQtQtQtQtQtQtQtQtQtQtQtQt.g.r.#.z.s.w.w.A.t.w.B.C.B.v.w.s.y.v.s.D.sQtQtQtQtQtQtQtQtQtQtQtQtQtQtQtQtQtQtQtQtQtQtQtQt",
"QtQtQtQtQtQtQtQtQtQtQtQtQtQtQtQtQtQtQtQt.g.h.E.n.s.w.A.t.s.w.w.s.w.F.D.y.w.w.s.G.sQtQtQtQtQtQtQtQtQtQtQtQtQtQtQtQtQtQtQtQtQtQtQt",
"QtQtQtQtQtQtQtQtQtQtQtQtQtQtQtQtQtQtQtQtQt.g.s.H.v.I.A.J.s.G.w.K.H.w.s.y.s.w.v.v.w.sQtQtQtQtQtQtQtQtQtQtQtQtQtQtQtQtQtQtQtQtQtQt",
"QtQtQtQtQtQtQtQtQtQtQtQtQtQtQtQtQtQtQtQtQtQt.s.H.H.G.t.J.s.s.w.s.w.w.s.y.s.w.v.w.s.uQtQtQtQtQtQtQtQtQtQtQtQtQtQtQtQtQtQtQtQtQtQt",
"QtQtQtQtQtQtQtQtQtQtQtQtQtQtQtQtQtQtQtQtQtQt.G.v.I.v.t.J.s.G.w.K.H.w.s.y.e.s.w.s.n.uQtQtQtQtQtQtQtQtQtQtQtQtQtQtQtQtQtQtQtQtQtQt",
"QtQtQtQtQtQtQtQtQtQtQtQtQtQtQtQtQtQtQtQtQt.s.n.n.v.s.t.J.t.s.w.s.w.w.s.y.y.e.u.n.p.pQtQtQtQtQtQtQtQtQtQtQtQtQtQtQtQtQtQtQtQtQtQt",
"QtQtQtQtQtQtQtQtQtQtQtQtQtQtQtQtQtQtQtQtQt.s.n.p.n.s.A.t.t.y.y.y.y.y.y.y.y.h.u.n.p.k.nQtQtQtQtQtQtQtQtQtQtQtQtQtQtQtQtQtQtQtQtQt",
"QtQtQtQtQtQtQtQtQtQtQtQtQtQtQtQtQtQtQtQtQt.n.p.k.nQt.A.A.A.L.L.y.s.y.y.s.y.g.n.p.I.v.s.MQtQtQtQtQtQtQtQtQtQtQtQtQtQtQtQtQtQtQtQt",
"QtQtQtQtQtQtQtQtQtQtQtQtQtQtQtQtQtQtQtQtQt.n.k.k.n.y.s.A.t.t.w.y.y.s.t.t.s.y.s.H.v.H.s.h.MQtQtQtQtQtQtQtQtQtQtQtQtQtQtQtQtQtQtQt",
"QtQtQtQtQtQtQtQtQtQtQtQtQtQtQtQtQtQt.A.A.A.n.k.n.k.A.t.J.J.t.s.y.s.y.J.J.A.s.s.v.N.I.s.h.h.#QtQtQtQtQtQtQtQtQtQtQtQtQtQtQtQtQtQt",
"QtQtQtQtQtQtQtQtQtQtQtQtQtQtQtQt.A.A.A.A.A.n.p.n.A.t.J.t.A.s.w.s.w.s.y.J.A.s.s.v.v.N.v.s.e.h.#QtQtQtQtQtQtQtQtQtQtQtQtQtQtQtQtQt",
"QtQtQtQtQtQtQtQtQtQtQtQtQtQt.A.A.A.A.A.A.A.n.k.t.t.J.t.A.A.w.v.s.v.w.y.J.A.A.A.A.v.k.p.s.e.e.MQtQtQtQtQtQtQtQtQtQtQtQtQtQtQtQtQt",
"QtQtQtQtQtQtQtQtQtQtQtQtQt.A.A.A.A.AQtQtQt.t.t.A.A.A.A.A.s.v.v.y.G.G.s.H.J.A.A.n.k.n.k.n.O.e.hQtQtQtQtQtQtQtQtQtQtQtQtQtQtQtQtQt",
"QtQtQtQtQtQtQtQtQtQtQtQt.x.x.x.AQtQtQt.J.t.t.J.P.P.J.A.A.s.G.s.Q.H.G.y.H.t.J.A.k.n.j.k.n.O.O.e.#QtQtQtQtQtQtQtQtQtQtQtQtQtQtQtQt",
"QtQtQtQtQtQtQtQtQtQtQt.x.xQt.x.x.B.J.J.R.t.J.J.J.P.A.t.G.s.G.y.Q.Q.Q.Q.Q.H.J.P.A.p.p.k.n.O.O.O.MQtQtQtQtQtQtQtQtQtQtQtQtQtQtQtQt",
"QtQtQtQtQtQtQtQtQtQtQt.x.x.xQt.C.AQt.x.R.t.J.J.P.t.J.t.G.y.y.R.Q.Q.Q.R.R.y.t.P.P.p.k.p.A.e.O.O.h.#QtQtQtQtQtQtQtQtQtQtQtQtQtQtQt",
"QtQtQtQtQtQtQtQtQtQtQtQtQtQtQt.B.x.A.x.R.t.J.P.P.t.J.s.R.R.S.R.Q.Q.R.R.R.R.t.P.J.J.J.t.R.x.h.h.h.#QtQtQtQtQtQtQtQtQtQtQtQtQtQtQt",
"QtQtQtQtQtQtQtQtQtQtQtQtQtQt.C.B.B.x.x.R.x.J.P.t.J.J.R.x.B.x.S.R.R.R.R.x.R.R.J.P.J.J.t.R.h.#.#.#.#QtQtQtQtQtQtQtQtQtQtQtQtQtQtQt",
"QtQtQtQtQtQtQtQtQtQtQtQtQtQt.B.x.xQtQt.R.x.P.P.t.J.t.x.B.B.B.x.R.R.R.R.x.x.R.t.P.P.J.t.R.hQtQtQtQtQtQtQtQtQtQtQtQtQtQtQtQtQtQtQt",
"QtQtQtQtQtQtQtQtQtQtQtQtQtQtQtQtQtQtQt.x.R.C.P.J.J.R.x.B.B.B.x.R.R.R.x.x.x.R.Q.P.P.J.x.R.xQtQtQtQtQtQtQtQtQtQtQtQtQtQtQtQtQtQtQt",
"QtQtQtQtQtQtQtQtQtQtQtQtQtQtQtQtQtQtQt.x.h.R.C.J.t.B.x.C.C.C.x.R.R.x.x.x.x.R.Q.J.P.P.x.RQtQtQtQtQtQtQtQtQtQtQtQtQtQtQtQtQtQtQtQt",
"QtQtQtQtQtQtQtQtQtQtQtQtQtQtQtQtQtQtQtQt.C.h.x.h.R.R.M.B.C.B.x.R.R.x.x.x.x.R.Q.J.P.C.R.xQtQtQtQtQtQtQtQtQtQtQtQtQtQtQtQtQtQtQtQt",
"QtQtQtQtQtQtQtQtQtQtQtQtQtQtQtQtQtQtQtQtQt.C.h.x.R.C.R.x.B.x.T.Q.R.R.x.x.R.QQt.h.C.R.hQtQtQtQtQtQtQtQtQtQtQtQtQtQtQtQtQtQtQtQtQt",
"QtQtQtQtQtQtQtQtQtQtQtQtQtQtQtQtQtQtQtQtQtQt.C.hQt.Q.R.R.R.R.Q.Q.T.R.R.R.R.QQt.x.x.h.CQtQtQtQtQtQtQtQtQtQtQtQtQtQtQtQtQtQtQtQtQt",
"QtQtQtQtQtQtQtQtQtQtQtQtQtQtQtQtQtQtQtQtQtQtQtQtQt.Q.K.G.G.K.QQt.Q.Q.Q.Q.Q.QQt.h.C.CQtQtQtQtQtQtQtQtQtQtQtQtQtQtQtQtQtQtQtQtQtQt",
"QtQtQtQtQtQtQtQtQtQtQtQtQtQtQtQtQtQtQtQtQtQt.U.U.U.Q.Q.S.M.Q.Q.U.q.K.G.G.K.Q.U.U.U.UQtQtQtQtQtQtQtQtQtQtQtQtQtQtQtQtQtQtQtQtQtQt",
"QtQtQtQtQtQtQtQtQtQtQtQtQtQtQtQtQtQt.U.U.U.V.W.X.Y.Q.K.Q.Q.K.Q.Z.Q.T.T.T.T.Q.0.Y.X.W.V.U.U.UQtQtQtQtQtQtQtQtQtQtQtQtQtQtQtQtQtQt",
"QtQtQtQtQtQtQtQtQtQtQtQtQtQtQtQt.U.U.W.Y.1.2.3.4.5.Q.Q.G.G.Q.T.6.g.Q.Q.Q.Q.g.7.5.4.3.2.1.Y.W.U.UQtQtQtQtQtQtQtQtQtQtQtQtQtQtQtQt",
"QtQtQtQtQtQtQtQtQtQtQtQtQtQtQt.U.W.8.9#.##.6#a#b#c.Q.K.S.S.K.T#d.Q.Q.Q.Q.Q.Q#e#c#b#f#g###..9.8.W.UQtQtQtQtQtQtQtQtQtQtQtQtQtQtQt",
"QtQtQtQtQtQtQtQtQtQtQtQtQtQt.U.X#h#i#j#k#l#m#n#o.Q.Q.S.G.G#p.T.T.Q.T.S.S.T.Q#q#r#o#n#m#l#k#j#s#h.X.UQtQtQtQtQtQtQtQtQtQtQtQtQtQt",
"QtQtQtQtQtQtQtQtQtQtQtQtQt.U.W#t#u#v#w#x#y#z#A#B.Q.Q.T.S.x.S.T.T.Q.T.S.S.S.Q#C#D#B#A#z#y#x#w#v#u#t.W.UQtQtQtQtQtQtQtQtQtQtQtQtQt",
"QtQtQtQtQtQtQtQtQtQtQtQtQt.U#E#F#G#H#I#A#C#J#K#K.Q.T.S.M.B.M.S.T#L.g.Q.Q.g#K#K#K#K#K#J#C#A#I#H#G#F#E.UQtQtQtQtQtQtQtQtQtQtQtQtQt",
"QtQtQtQtQtQtQtQtQtQtQtQtQt.U#E#M#G#H#y#A#C#J#K#K.g.T.M.B.B.B.M.T#L#L#L#L#L#K#K#K#K#K#J#C#A#y#H#N#M#E.UQtQtQtQtQtQtQtQtQtQtQtQtQt",
"QtQtQtQtQtQtQtQtQtQtQtQtQt.U#O#t#u#v#w#x#y#z#A#B#D.Q.S.M.M.M.T#K#K#P#P#J#Q#Q#C#D#B#A#z#y#x#w#v#u#t#O.UQtQtQtQtQtQtQtQtQtQtQtQtQt",
"QtQtQtQtQtQtQtQtQtQtQtQtQtQt.U.X#R#s#S#v#T#m#n#o#r#q#U#V#W#X#Y#Y#Y#Y#X#W#V#U#q#r#o#n#m#T#v#S#s#R.X.UQtQtQtQtQtQtQtQtQtQtQtQtQtQt",
"QtQtQtQtQtQtQtQtQtQtQtQtQtQtQt.U#O.1.9#.###g#f#b#c#e#Z#0#w#1#H#d#d#H#1#w#0#Z#e#c#b#f#g###..9.1#O.UQtQtQtQtQtQtQtQtQtQtQtQtQtQtQt",
"QtQtQtQtQtQtQtQtQtQtQtQtQtQtQtQt.U.U.W.Y.1.2.3.4.5.7#2#3#4#5#6.6.6#6#5#4#3#2.7.5.4.3#t.1.Y.W.U.UQtQtQtQtQtQtQtQtQtQtQtQtQtQtQtQt",
"QtQtQtQtQtQtQtQtQtQtQtQtQtQtQtQtQtQt.U.U.U.V.W.X.Y.0.1#7#8#8#8.Z.Z#8#8#8#7.1.0.Y.X.W.V.U.U.UQtQtQtQtQtQtQtQtQtQtQtQtQtQtQtQtQtQt",
"QtQtQtQtQtQtQtQtQtQtQtQtQtQtQtQtQtQtQtQtQtQt.U.U.U.U.U.U.U.U.U.U.U.U.U.U.U.U.U.U.U.UQtQtQtQtQtQtQtQtQtQtQtQtQtQtQtQtQtQtQtQtQtQt",
"QtQtQtQtQtQtQtQtQtQtQtQtQtQtQtQtQtQtQtQtQtQtQtQtQtQtQtQtQtQtQtQtQtQtQtQtQtQtQtQtQtQtQtQtQtQtQtQtQtQtQtQtQtQtQtQtQtQtQtQtQtQtQtQt",
"QtQtQtQtQtQtQtQtQtQtQtQtQtQtQtQtQtQtQtQtQtQtQtQtQtQtQtQtQtQtQtQtQtQtQtQtQtQtQtQtQtQtQtQtQtQtQtQtQtQtQtQtQtQtQtQtQtQtQtQtQtQtQtQt"};
