/* XPM */
static char *dummy[]={
"64 128 145 2",
"#8 c #000000",
"#J c #001111",
"#s c #002b2b",
"#E c #005477",
"#F c #005e7f",
"#L c #007faa",
"#e c #080808",
"#X c #0f0e11",
"#4 c #190000",
"#x c #1e424f",
"#D c #212828",
"#u c #260c0c",
"#1 c #26252c",
"#2 c #35353a",
"af c #35383f",
".2 c #383f4a",
".g c #383f4b",
"#R c #383f4c",
".1 c #38404c",
".e c #393f4b",
"Qt c #3a404b",
".h c #3a404c",
"ab c #3d4046",
".d c #3d4047",
"#G c #3d5358",
".f c #3f4148",
".i c #404248",
"aj c #424349",
".# c #434245",
"am c #43434a",
"ag c #44434a",
".9 c #444448",
".j c #44444b",
"#7 c #46413d",
".a c #46413e",
"#P c #470000",
".s c #474242",
"al c #474548",
".k c #47464d",
"#m c #494482",
"a# c #494649",
"#w c #4a2121",
"#q c #4a4138",
".b c #4a423a",
".t c #4a433e",
"an c #4b4440",
".l c #4b4951",
".c c #4c423a",
".m c #4d484c",
".u c #4e4541",
"#Z c #4f443c",
"aa c #50443c",
"#6 c #50453d",
"ak c #51453d",
".Q c #514743",
"#Q c #51545b",
"ad c #53463f",
"#Y c #535353",
".E c #54473f",
"a. c #544845",
".n c #544946",
".q c #554840",
".r c #554a47",
"#9 c #562f1d",
".p c #584a43",
".o c #584a44",
"ao c #584a47",
".D c #584d4d",
".v c #5a4d4b",
"#0 c #5b4b44",
"ah c #5b4c48",
"#3 c #5c4b43",
"#5 c #5d4b43",
".5 c #5e4d45",
"ai c #5e4d48",
"ae c #5f4f4d",
".3 c #614d45",
".w c #61514f",
"#j c #635049",
"#O c #637a82",
".4 c #644f48",
"ac c #645352",
".x c #655451",
".F c #66514a",
".6 c #67524b",
".R c #67544f",
"#t c #68524b",
".X c #68534c",
"#r c #69534d",
".W c #69544d",
".O c #6c564f",
".Z c #6c5650",
".y c #6c5959",
"#b c #6d3300",
"#U c #6d5650",
".8 c #6e5651",
".Y c #6e5751",
".G c #6f5750",
".0 c #6f5a56",
".P c #705853",
".A c #705c5c",
".z c #705c5d",
".B c #715c5b",
"#K c #72472d",
".H c #725a55",
"#z c #735a54",
".N c #745b56",
".C c #745d59",
"#A c #750000",
"#y c #755c57",
".S c #785e5a",
"#f c #797a7c",
".V c #7a5f5b",
".T c #7a605b",
".U c #7a605c",
".7 c #7c615d",
"#h c #7d625e",
".I c #7e625e",
".M c #826663",
".K c #836663",
".L c #836764",
"#H c #838384",
"#n c #84393a",
".J c #846763",
"#v c #870000",
"#C c #871e38",
"#T c #8e3314",
"#N c #946c45",
"#o c #96b2ff",
"#a c #996314",
"#c c #9e99a6",
"#I c #adb2af",
"#M c #af001c",
"#S c #c09d7b",
"#W c #c1bfbc",
"#p c #c46555",
"#d c #ccd3d6",
"#. c #d19e30",
"#l c #e5f4ff",
"#V c #ef0c23",
"#k c #f78c6b",
"#g c #f9edd6",
"## c #fcd670",
"#B c #ff7084",
"#i c #ffd8ce",
"QtQtQtQtQtQtQtQtQtQtQtQtQtQtQtQtQtQtQt.#.a.b.b.b.b.b.b.c.b.b.b.b.b.b.b.a.d.e.f.g.f.e.h.hQtQt.f.gQt.f.e.h.f.gQtQtQtQt.f.d.a.c.c.b",
"QtQtQtQtQtQtQt.gQt.gQt.g.gQt.g.g.g.g.g.d.a.b.b.b.b.b.b.b.b.b.b.b.b.b.b.a.e.e.g.g.g.g.e.gQt.g.g.g.g.g.e.e.g.g.g.g.gQt.g.d.a.c.c.c",
".h.hQtQtQt.g.gQt.gQtQt.g.g.g.g.g.g.g.g.d.a.b.b.b.b.b.b.b.b.b.b.b.b.b.b.a.e.g.g.g.g.g.g.g.g.g.g.g.g.g.e.e.g.g.g.g.g.g.g.d.a.c.c.c",
".d.d.d.i.j.j.k.k.k.l.l.l.m.l.l.m.l.l.l.m.n.o.p.o.o.o.q.p.o.o.o.o.o.o.p.n.r.l.l.l.l.l.l.l.l.l.l.l.l.l.l.l.l.l.l.l.k.k.k.j.s.a.t.a",
".t.a.a.u.v.w.w.x.y.z.z.z.y.z.z.z.z.A.A.B.B.C.C.C.C.C.C.C.C.C.C.C.C.C.C.C.z.A.A.A.y.z.z.z.z.z.z.y.A.A.z.z.z.z.z.y.x.w.w.D.j.d.d.d",
".c.b.b.E.F.G.G.H.I.J.J.K.L.L.L.L.K.J.K.K.J.M.M.M.M.M.L.M.M.M.M.M.M.M.M.L.J.J.K.J.K.K.L.M.J.L.L.K.K.K.K.J.K.J.L.I.N.G.G.w.k.gQtQt",
".c.c.b.E.F.G.O.H.I.J.K.K.K.K.J.J.L.K.K.K.K.K.M.M.M.M.M.M.M.M.M.M.M.M.M.M.K.K.K.K.K.K.K.K.K.K.K.K.K.M.M.K.K.K.K.I.P.O.O.w.kQtQt.h",
".a.a.a.Q.R.H.H.N.S.T.T.T.T.T.T.T.U.V.S.V.U.I.U.I.V.V.V.V.V.V.V.V.V.V.V.V.V.I.V.I.I.U.I.U.I.I.I.U.V.V.V.U.I.I.U.S.N.N.H.x.k.g.gQt",
".d.d.d.m.y.I.I.S.G.W.W.W.W.W.W.W.X.X.W.G.Y.H.H.P.Z.X.X.X.X.X.X.X.X.X.W.G.H.H.H.H.H.H.H.H.H.H.H.0.Z.X.X.Z.G.H.H.H.V.M.I.y.k.g.g.f",
"Qt.1.2.l.z.J.K.T.X.3.3.3.3.3.3.3.3.3.3.4.X.G.G.x.4.3.4.3.4.3.4.3.3.3.3.4.x.Z.G.W.G.Z.Z.Z.Z.Z.Z.X.4.3.3.4.X.Z.G.H.V.M.K.B.l.g.e.e",
"QtQt.2.l.z.J.K.T.W.3.3.3.3.3.3.3.3.3.5.4.Z.G.Z.X.4.3.5.3.3.3.3.3.3.3.3.4.6.G.Z.Z.Z.Z.Z.Z.Z.Z.G.x.4.3.5.4.Z.Z.W.H.7.K.J.B.l.e.e.e",
"Qt.2Qt.l.B.J.K.T.W.3.3.3.4.3.3.4.4.F.4.F.6.Z.Z.6.4.3.4.3.3.4.3.4.4.4.4.F.Z.Z.G.Z.Z.Z.G.Z.Z.Z.G.Z.F.4.4.F.Z.Z.G.0.I.J.K.B.l.e.e.h",
"Qt.2.2.l.z.K.K.T.W.3.3.4.3.3.3.F.6.X.Z.6.F.F.4.4.4.4.3.3.3.4.3.4.X.Z.x.W.G.G.G.Z.Z.G.Z.Z.8.Z.Z.Z.W.X.Z.Z.Z.Z.Z.H.I.K.L.z.l.g.gQt",
"QtQt.2.l.z.J.K.T.W.3.3.3.3.4.3.F.Z.G.G.Z.4.3.3.4.3.3.3.4.3.3.3.4.X.G.G.Z.Z.G.Z.Z.Z.Z.G.Z.Z.8.8.Z.G.G.Z.Z.G.Z.Z.H.U.K.L.z.l.g.gQt",
"Qt.2.2.l.z.K.K.U.W.3.3.3.3.9.9.9.Z.G.G.W.F.3.3.3.3.3#.###.#a#a#a#a#b#b.Z.G.Z.Z.Z.Z.Z.Z.Z.Z.8.Z.8.Z.Z.G.Z.Z.Z.G.H.I.K.L.z.l.e.g.f",
"QtQt.2.l.z.K.K.U.W.3.3.3.4.9#c#d.9.X.Z.X.4.3.3.4.3#..3#a#a#.#a#a#a#a#a#a#b.Z.Z.G.G.Z.G.Z.8.Z.8.Z.Z.G.Z.Z.Z.G.Z.H.U.K.L.y.l.e.e.e",
"Qt.gQt.m.y.L.L.U.W.3.3.4.6.9#d#e#d.9.4.4.4.3.4.3.5.3#a#.#.#.#.#a#a#.#.#a#a#b.Z.8.Z.8.Z.8.8.Z.Z.8.G.Z.Y.Z.Z.Z.Z.H.U.M.L.z.l.g.gQt",
"QtQtQt.l.z.L.K.U.W.3.3.F.W.G.9#d#c#f.9.3.3#e.9.9.9#a#.#####.###.#.#a#.#.#a#a#b.Z.8.Z.8.Z.Z.Z.8.Z.Z.Z.Z.8.Z.Z.Z.H.I.M.M.z.l.gQtQt",
"Qt.g.g.l.z.K.K.U.W.3.3.F.Z.G.G#e.9#c#f#e.3.4.3#e#a#.###.#.#########g###.#.#a#a#b.Z.8.8.Z.8.Z.Z.8.Z.8.Z.Y.G.Z.Z.H.U.M.M.z.m.g.gQt",
"Qt.g.g.k.z.K.K.U.W.4.4.F.X.W.Z.6.4#e#f.9#e.3.3#a#.#a#.#g#g#g###.#.###g###.#b#a#b.Z.Z.Z.8.Z.8.8.Z.Z.Z.8.Z.Z.Z.Z.H#h.M.M.z.l.gQtQt",
"QtQtQt.l.z.K.K.I.Y.W.W.W.F.F.4.F.3.4#e#c.9#e#a#.#a#.###g###g###g#g#.#g#g#.#a#b#a#b.Z.8.Z.8.Z.8.8.Y.Z.8.Z.8.Z.G.H.I.K.J.z.l.g.gQt",
"QtQtQt.l.z.K.K.U.H.G.Y.Z.4.3.3.3.3.3.3.9#f.9.9#a#.#.#.#g#.#g#g###g#g#.#g###.#b#b#b.8.Z.8.Z.8.Z.Z.Z.8.Z.8.8.Z.W.H.I.K.J.z.l.e.g.h",
"QtQt.2.k.z.K.K.I.H.G.G.W.4.3.3.3.4.3.4#e.9.9#c#.#a###.###a###g#a#i#g#.#g#b#.#a#b#b#b.8.Z.8.Z.Z.8.Z.8.Z.Z.Z.8.Z.H.T.K.J.z.l.g.g.h",
"Qt.2Qt.l.z.K.K.U.P.W.W.X.F.4#j.F.4.3.3.3#e#f#a#.#a###a###e#e#g#k#a#e#e###a#b#.#a.8.Z.8.Z.Z.8.Z.Z.Y.Z.8.Z.Z.Z.Z.B.I.K.J.z.m.d.d.d",
"QtQt.2.k.z.J.J.U.O.4.4.F.W.W.O.W.F.3.3.F#e#f#c#f#b#.#a#.#l#m#k#k#i#m#l#.#n#a#b#b.Z.8.Z.Z.8.Z.Z.8.8.Z.Z.Z.Z.Z.Z.H.U.K.K.B.n.a.a.t",
"Qt.1Qt.l.z.L.K.T.W.3.3.4.W.Y.G.W.4.3.3.F.Z#f#d.9#b#.#b#b#i#o#i#k#i#o#i#p#n#a#b#b#b.Z.Z.8.Z.8.8.Z.Z.Z.8.G.G.Z.Z.H.U.K.K.C.p.c#q.b",
"Qt.1.1.l.y.L.L.U#r.3.3.4.O.Y.Y.W.F.3.3.4.Z#e#c#l#s#a#b#n#k#i#i#i#i#i#k#n#b#a#b.Z.Z.8.Z.Z.8.Z.Z.8.8.Z.Z.Z.Z.Z.Z.H.I.K.K.H.p#q.b.b",
".d.d.d.m.z.K.L.U.W.4.4.F.W.W.W#t.4.3.3#e#e#e#f#d#s#b#b#u#p#k#i#i#i#k#p#u#b#b.G.Z.8.Z.8.8.Z.8.8.Z.Z.8.Z.G.Z.Z.Z.H.I.K.K.B.p.b.b.b",
".a.a.a.n.B.J.L.U.P.W.W.W.F.F.F.4.3.3.3#v#e.9#e#e#l#s#b#s#w#n#p#p#p#n#w#x#s#b#s.Z.8.Z.8.Z.8.Z.8.Z.8.Z.Z.8.Z.Z.Z.H.I.M.M.C.p.b.b.b",
".b.b#q.p#y.K.L.U#z.Y.Y.W.F.3.3.4.3.4.3#e#e.9#f.9#s#s#b#x#A#u#u#u#u#u#B#C#D#x#s.8.Z.8.Z.8.Z.8.Z.8.Z.8.8.Z.Z.Z.Z.H.U.M.M.C.p.b.b.b",
".b.b.b.p#y.K.K.I.H.Y.O.W#j.3.3.3.3.3.4#e#v.9#E#s#F#s#G#x#A#A#G#H#I#I#x#x#J#x#x#s.Z.Z.Z.8.Z.8.8.Z.Z.8.Z.8.Z.Z.G.H.I.M.M.C.q.b.b.b",
".c.b.b.p#y.K.K.U.H.O.G.W.F.3.3.3.4.3.3.3#e#f#s#K#s#L#G#s#M#x#x#G#s#G#L#F#J#x#N#s.8.Z.8.Z.8.Z.Z.Z.8.Z.8.Z.G.Z.Z.H.U.M.M.C.o#q.b.b",
".b.b.b.p.B.K.K.I.H.Z.G.W.4.4.3.4.3.4.4.3.3#s#x#x#G#s#G#s#M#x#K#N#s#N#s#s#G#O#G#K.Z.8.Z.8.Z.Z.Z.8.Z.8.Z.8.Z.Z.Z.H.U.M.M.C.o.b.b.b",
".c.b#q.p.N.K.K.U.H.Z.G.X.4.3.3.3.3.3.3.3.4#s#x#G#G#G#s#P#M#x#x#x#s#x#s#J#s#G#n#n#s.Z.8.Z.Z.8.8.Z.8.Z.Z.Z.G.Z.Z.H.U.M.K.C.o.b.b.b",
".c#q.b.p.C.K.K.I.H.G.G.Z.F.3.3.3.4.3.3.4.3#n#s#s#x#x#s#P#A#M#K#N#s#N#s#J#s#n#p#n#s.8.8.Z.8.Z.8.Z.8.Z.8.Z.Z.Z.Z.H#h.M.M.C.p.b.b.c",
".a.a.a.n.B.K.K.V.0.X.W.X.4.3.4.3.3.3.3.4#n#p#k#n#s#s#s#P#A#A#x#x#s#x#s#J#c#n#p#p#n#Q.Z.8.Z.8.Z.8.Z.8.Z.8.Z.G.Z.H#h.M.M.z.n.a.a.a",
".d.d.e.r.z.J.J.I.W.4.F.4.4.3.3.3.4.3.4.4#p#k#i#k#n.G#P#P#P#A#A#J#J#J#J#J#J#n#p#k#n#f#Q.Z.Z.Z.Z.Z.8.Z.8.Z.Z.Z.G.H.I.K.J.z.m.d.d.d",
"Qt.g#R.l.z.L.K.S.X.3.3.3.3.4.3.4.3.3.3.4#N#S#S#N#n.Z#P#A#M#T#T#J#A#A#M#A#J#e#n#k#n#f#f#Q.Z.G.Z.Z.8.Z.Z.8#U#U.W.H.U.K.K.z.lQtQtQt",
"Qt.g#R.l.z.L.M.U.X.3.3.4.3.3.3.4.3.3.3.4#N#O#O#G#s#P#A#V#M#s#s#J#s#A#M#M#M#P#A#p#n#f#f#f#Q.G.Z.0.Z.8.Z.Z#U.G.Z.H.I.K.L.z.l.2QtQt",
".d.d.e.m.z.L.M.U.X.3.3.3.4.3.3.3.4.F.4.6#s#O#S#N#n#P#V#M#s#x#G#J#x#s#J#P#A#M#A#P#n.9#f#f#f.9.Z.8.8.Z.8.Z.Z.x.W.0.U.K.M.y.l.2QtQt",
".t.a.a.n.B.K.K.S.X.4.3.3.3.4.4.4.X.W.Z#P#s#N#G#N#n#A#P#x#s#x#G#s#G#x#s#A#A#P#A#P#P#D.9#c#c#f.9.Z.G.Z.G.O.F.F.F.W.U.K.J.z.lQtQtQt",
".b.b#q.p#y.J.J.S.X.3.3.4.3.3.3.4.Z.G#P#P#s#O#S#G#P#A#M#G#s#K#K#s#G#G#s#s#M#A#P#P#P#A#D#f#c#c#Q.Z.Z.G.G.W.F.3.3.W.T.K.L.z.lQtQtQt",
".c.b#q.p.C.M.J.T.X.4.3.3.3.4.5.4.X#P#P#P#s#S#G#G#n#P#K#N#s#N#N#J#s#K#s#x#M#M#A#A#A#A#D.9#W#c#f.Z.Z.G.G.W.F.3.3.W.T.K.K.z.k.g.1Qt",
".b.b.b.p.C.K.K.T.X.3.3.4.4.4.4#H#I#P#P#P#s#G#k#n#k#n#P#N#J#J#X#X#D#N#J#K#s#M#M#M#A#A#Y#D#W#W#c.9.W.W.W.F.3.p.o.6.T.K.K.y.l.g.gQt",
".b.b.b.o.C.M.M.V.X.4.3.4.X.X.Z.X#P#P#P#P#M#n#k#i#n#k#P#X#X#X#X#X#D#D#D#N#s#M#M#V#M#A#Y#D#W#W#W#Q.6.F.F.5.E#Z#Z.5.C.J.J.z.mQtQtQt",
".b.b.b.o.C.K.M.V.X.3.3.4.Z.Z.G.Z#P#P#P#A#P#n#k#p#p#P#J#D#D#X#X#X#D#D#D#D#D#H#M#V#M#A#D#Q#c#W#W#f.9.3.3#0#Z.b.b.q.C.K.J.z.l.hQtQt",
".b.b.b.o.C.M.M.V.X.3.5.4.X.G.G.Z#P#P#P#D#P#n#k#i#k#P#1#D#D#D#X#X#Y#Y#H#H#2#H#M#V#V#f#D#f.9#f#f#f.9.3.3.5#Z.b.b.o.C.K.K.z.k.2.1Qt",
".a.a.a.r.C.M.M.U.Z.4.4.6.Z.G.G#P#P#P#Y#D#A#P#p#k#p#D#D#Y#Y#D#D#D#Y#H#H#H#Y#D#P#M#V#I#D#I.Z.9.9.9.9.3.3#3#Z.b.b.o.C.K.J.z.l.2QtQt",
".d.d.e.r.z.J.K.U.P.X.X.Z.Z.Z.Z#P#P#P#f#D#A#M#V#V#A#Y#Y#Y#Y#Y#D#D#H#H#I#H#H#2#D.Z#f#D#I#f.F.F.F.F.3.4.3.5#Z.b.b.n.C.J.J.B.l.g.gQt",
"Qt.g#R.l.z.J.K.I.H.G.Z.G.Z.G.G#Y.F#P#f#D#Y#M#V#V#X#4#Y#Y#Y#Y#D#D#H#I#I#I#H#Q#D.Z#D#I.G.W.4.3.3.3.3.3.3#3#Z.b.b.q.C.J.J.z.l.gQtQt",
"Qt.g#R.l.z.M.M.U.H.G.G.Z.G.G.G#Y#Q#Y#Y#D#Y#V#V#M#X#Y#D#Y#Y#D#D#D#H#I#I#I#H#Y#2.G#I.G.G.W.F.3.3.3.3.3.3#5#6.b.b.n.C.J.J.z.l.g.gQt",
".d.d.e.m.z.M.M.I.H.O.W.G.W.W.x#Y#Y.3#Y#f#D#I#V#A#X#1#D#D#D#D#D#D#Y#H#H#H#Q#Y#D.Z.W.x.W.X.4.3.3.3.F.F.F.3.q#Z#Z.5.C.J.K.B.m.d.d.d",
".t.a#7.n.C.K.M.I.H.Z.G.W.6.F.4.4#Y.3.3#Y#f#D#I#A#P#X#H#D#D#D#X#1#Y#Y#Y#Y#Y#2#D.Z#t.4.4.4.4.3.3.F#t.W.Z.6.5.o#3.F.T.K.K.B.n.a.a.a",
".b.b#q.p.C.K.M.I.H.Z.G.Z.4.3.3.3.3.3.3.F#I#f#Y#I#P#X#X#D#X#X#X#D#2#X#X#X#X#D#P.X.F.3.3.3.3.3.3.F.W.G.G.W.F.3.3.W.T.K.K.C.p.b.c.c",
".c.c#q.p.C.M.M#h.H.Z.G.W.4.3.3.4.3.3.3#j.R#I#f#f#8#X#1#I#1#1#X#8#X#K#N#K#9#X#8#8#8#8.3.3.3.3.3.F.W.G.G.Z.F.3.3.W.T.K.K.C.p#q#q.c",
".a.a.a.n.H.I.I.C.Y.X.W.X.4.4.3.3.4.4#8#8#8#8#I#I#8#X#X#1#1#X#X#8#X#2#Q#2#1#X#8#8#8#8#8#8#8#8.F.F.W.O.W.6.3#3#3.F#y.I.I.0a..a.a.t",
".#.d.ea#.x.H.H.G.X.F.4.4.4.4.3.4#8#8#8#8#8#8#8#8#8#X#X#X#X#X#X#8#X#X#X#X#X#X#8#8#8#8#8#8#8#8#8#8.F.F.F.5.E#Zaa.p.W#y#y.Ra#ab.d.d",
".e.g.g.kac.G.G.Z.4.4.3.4.3.3.4#8#8#8#8#8#8#8#8#8#8#X#1#1#1#1#X#8#1#K#N#K#9#u#8#8#8#8#8#8#8#8#8#8#8.3.3#5aa.b#qad.F.G.O.w.k.1QtQt",
".e.e.e.kae.G.G.X.4.4.3.3.3.4#8#8#8#8#8#8#8#8#8#8#8#X#1#1#1#1#X#8#1#2#Qaf#1#X#8#8#8#8#8#8#8#8#8#8#8#8.3.5aa.b.bad.F.Y.Y.w.k.1QtQt",
".e.f.dag.v.6.4.4.v.n.oah#3#8#8#8#8#8#8#8#8#8#8#8#8#8#e#X#X#e#8#8#1#K#Y#1#9#X#8#8#8#8#8#8#8#8#8#8#8#8#8a.#Z.a.a.Qai.F.R.vaj.1QtQt",
".t.a.a.tak.E.E.Qalamagan#Z#8#8#8#8#8#8#8#8#8#8#8#8#8#8#8#8#8#8#2#Q#Q#f#Q#1#X#X#8#8#8#8#8#8#8#8#8#8#8#8.i.i.d.d.#.u.E.q.u.fQtQtQt",
".b.c.c.c.b.b.b#7.e.e.e.e.a#8#8#8#8#8#8#8#8#8#8#8#8#8#8#8#8#8#8#1#Q#f#f#f#Q#1#X#8#8#8#8#8#8#8#8#8#8#8#8Qt.h.h.h.d.a.b.b.a.dQtQtQt",
".c.c.c.c.b.c.b.t.#.e.e.f.a#8#8#8#8#8#8#8#8#8#8#8#8#8#8#8#8#8#8#1#X#X#X#X#X#1#X#8#8#8#8#8#8#8#8#8#8#8#8QtQt.h.h.d.a.c.b.a.d.h.hQt",
".b.b.c.b.b.c.b.t.e.e.g.e.t.c#8#8#8#8#8#8#8#8#8#8#8#8#8#8#8#8#8#8#e#X#X#X#X#e#8#8#8#8#8#8#8#8#8#8#8#8QtQtQtQt.h.d.a.c.c.a.dQtQtQt",
"QtQtQtQtQtQtQtQtQtQtQtQtQtQtQt#8#8#8#8#8#8#8#8#8#8#8#8#8#8#8#8#8#8#8#8#8#8#8#8#8#8#8#8#8#8#8#8#8#8.f.e.h.f.gQtQtQtQt.f.d.a.c.c.b",
"QtQtQtQtQtQtQt.gQt.gQt.g.gQt.g.g#8#8#8#8#8#8#8#8#8#8#8#8#8#8#8#8#8#8#8#8#8#8#8#8#8#8#8#8#8#8#8#8.g.g.e.e.g.g.g.g.gQt.g.d.a.c.c.c",
".h.hQtQtQt.g.gQt.gQtQt.g.g.g.g.g.g.g#8#8#8#8#8#8#8#8#8#8#8#8#8#8#8#8#8#8#8#8#8#8#8#8#8#8#8#8.g.g.g.g.e.e.g.g.g.g.g.g.g.d.a.c.c.c",
".d.d.d.i.j.j.k.k.k.l.l.l.m.l.l.m.l.l.l.m.n.o#8#8#8#8#8#8#8#8#8#8#8#8#8#8#8#8#8#8#8#8.l.l.l.l.l.l.l.l.l.l.l.l.l.l.k.k.k.j.s.a.t.a",
".t.a.a.u.v.w.w.x.y.z.z.z.y.z.z.z.z.A.A.B.B.C.C.C.C.C.C.C.C.C.C.C.C.C.C.C.z.A.A.A.y.z.z.z.z.z.z.y.A.A.z.z.z.z.z.y.x.w.w.D.j.d.d.d",
".c.b.b.E.F.G.G.H.I.J.J.K.L.L.L.L.K.J.K.K.J.M.M.M.M.M.L.M.M.M.M.M.M.M.M.L.J.J.K.J.K.K.L.M.J.L.L.K.K.K.K.J.K.J.L.I.N.G.G.w.k.gQtQt",
".c.c.b.E.F.G.O.H.I.J.K.K.K.K.J.J.L.K.K.K.K.K.M.M.M.M.M.M.M.M.M.M.M.M.M.M.K.K.K.K.K.K.K.K.K.K.K.K.K.M.M.K.K.K.K.I.P.O.O.w.kQtQt.h",
".a.a.a.Q.R.H.H.N.S.T.T.T.T.T.T.T.U.V.S.V.U.I.U.I.V.V.V.V.V.V.V.V.V.V.V.V.V.I.V.I.I.U.I.U.I.I.I.U.V.V.V.U.I.I.U.S.N.N.H.x.k.g.gQt",
".d.d.d.m.y.I.I.S.G.W.W.W.W.W.W.W.X.X.W.G.Y.H.H.P.Z.X.X.X.X.X.X.X.X.X.W.G.H.H.H.H.H.H.H.H.H.H.H.0.Z.X.X.Z.G.H.H.H.V.M.I.y.k.g.g.f",
"Qt.1.2.l.z.J.K.T.X.3.3.3.3.3.3.3.3.3.3.4.X.G.G.x.4.3.4.3.4.3.4.3.3.3.3.4.x.Z.G.W.G.Z.Z.Z.Z.Z.Z.X.4.3.3.4.X.Z.G.H.V.M.K.B.l.g.e.e",
"QtQt.2.l.z.J.K.T.W.3.3.3.3.3.3.3.3.3.5.4.Z.G.Z.X.4.3.5.3.3.3.3.3.3.3.3.4.6.G.Z.Z.Z.Z.Z.Z.Z.Z.G.x.4.3.5.4.Z.Z.W.H.7.K.J.B.l.e.e.e",
"Qt.2Qt.l.B.J.K.T.W.3.3.3.4.3.3.4.4.F.4.F.6.Z.Z.6.4.3.4.3.3.4.3.4.4.4.4.F.Z.Z.G.Z.Z.Z.G.Z.Z.Z.G.Z.F.4.4.F.Z.Z.G.0.I.J.K.B.l.e.e.h",
"Qt.2.2.l.z.K.K.T.W.3.3.4.3.3.3.F.6.X.Z.6.F.F.4.4.4.4.3.3.3.4.3.4.X.Z.x.W.G.G.G.Z.Z.G.Z.Z.8.Z.Z.Z.W.X.Z.Z.Z.Z.Z.H.I.K.L.z.l.g.gQt",
"QtQt.2.l.z.J.K.T.W.3.3.3.3.4.3.F.Z.G.G.Z.4.3.3.4.3.3.3.4.3.3.3.4.X.G.G.Z.Z.G.Z.Z.Z.Z.G.Z.Z.8.8.Z.G.G.Z.Z.G.Z.Z.H.U.K.L.z.l.g.gQt",
"Qt.2.2.l.z.K.K.U.W.3.3.3.3.3.3.F.Z.G.G.W.F.3.3.3.3.3.3.3.3.4.3.4.Z.G.G.Z.G.Z.Z.Z.Z.Z.Z.Z.Z.8.Z.8.Z.Z.G.Z.Z.Z.G.H.I.K.L.z.l.e.g.f",
"QtQt.2.l.z.K.K.U.W.3.3.3.4.F.4.F.X.X.Z.X.4.3.3.4.3.4.3.4.4.F.4.6.X.X.Z.Z.Z.Z.Z.G.G.Z.G.Z.8.Z.8.Z.Z.G.Z.Z.Z.G.Z.H.U.K.L.y.l.e.e.e",
"Qt.gQt.m.y.L.L.U.W.3.3.4.6.W.Z.6.F#j.4.4.4.3.4.3.5.3.4.4.6.Z.Z.6.F.F.F.F.x#U.Z.8.Z.8.Z.8.8.Z.Z.8.G.Z.Y.Z.Z.Z.Z.H.U.M.L.z.l.g.gQt",
"QtQtQt.l.z.L.K.U.W.3.3.F.W.G.G.W.F.3.4.3.3.3.4.3.4.3.3.4.X.G.G.X.4.3.5.F.Z#U#U.Z.8.Z.8.Z.Z.Z.8.Z.Z.Z.Z.8.Z.Z.Z.H.I.M.M.z.l.gQtQt",
"Qt.g.g.l.z.K.K.U.W.3.3.F.Z.G.G.Z.4.3.3.3.3.4.3.3.4.3.3.4.Z.Y.Y.Z.4.3.3#j.W.Y.Z.8.Z.8.8.Z.8.Z.Z.8.Z.8.Z.Y.G.Z.Z.H.U.M.M.z.m.g.gQt",
"Qt.g.g.k.z.K.K.U.W.4.4.F.X.W.Z.6.4.3.4.3.3.3.3.4.4.4.4.6.X.X.Z.X.F.4#j.F.Z.Z.8.Z.Z.Z.Z.8.Z.8.8.Z.Z.Z.8.Z.Z.Z.Z.H#h.M.M.z.l.gQtQt",
"QtQtQt.l.z.K.K.I.Y.W.W.W.F.F.4.F.3.4.3.4.4.3.3.F.6.Z.X.6.F.4.4.F.W.W.W.W.Z.8.Z.8.8.Z.8.Z.8.Z.8.8.Y.Z.8.Z.8.Z.G.H.I.K.J.z.l.g.gQt",
"QtQtQt.l.z.K.K.U.H.G.Y.Z.4.3.3.3.3.3.3.3.3.3.3#j.Z.G.G.Z.4.3.3.F.W.G.Y.Y.Z.8.8.Z.Z.8.Z.8.Z.8.Z.Z.Z.8.Z.8.8.Z.W.H.I.K.J.z.l.e.g.h",
"QtQt.2.k.z.K.K.I.H.G.G.W.4.3.3.3.4.3.4.3.3.3.3.F.W.G.G.Z.F.5.3.4.W.Z.G.G.Z.Z.Z.8.Z.8.8.Z.8.Z.Z.8.Z.8.Z.Z.Z.8.Z.H.T.K.J.z.l.g.g.h",
"Qt.2Qt.l.z.K.K.U.P.W.W.X.F.4#j.F.4.3.3.3.4.F.4.F.X.Z.X.X.F.4.4#j.Z.G.Z.G.8.Z.8.Z.8.Z.8.Z.Z.8.Z.Z.Y.Z.8.Z.Z.Z.Z.B.I.K.J.z.m.d.d.d",
"QtQt.2.k.z.J.J.U.O.4.4.F.W.W.O.W.F.3.3.F.6.W.Z.X.6.F.4.F.X.Z.W.Z.Z.Z.Z.Z.Z.Z.Z.Z.Z.8.Z.Z.8.Z.Z.8.8.Z.Z.Z.Z.Z.Z.H.U.K.K.B.n.a.a.t",
"Qt.1Qt.l.z.L.K.T.W.3.3.4.W.Y.G.W.4.3.3.F.Z.G.G.X.4.3.3.4.X.G.G.G.Z.Z.G.Z.0.Z.G.Z.8.Z.Z.8.Z.8.8.Z.Z.Z.8.G.G.Z.Z.H.U.K.K.C.p.c#q.b",
"Qt.1.1.l.y.L.L.U#r.3.3.4.O.Y.Y.W.F.3.3.4.Z.G.G.W.F.3.3.4.x.G.8.8.G.Z.Z.Z.Z.Z.Z.Z.Z.8.Z.Z.8.Z.Z.8.8.Z.Z.Z.Z.Z.Z.H.I.K.K.H.p#q.b.b",
".d.d.d.m.z.K.L.U.W.4.4.F.W.W.W#t.4.3.3.4.X.W.W.X.F.4.4.6.Z.8.Z.Z.Z.Z.G.Z.G.Z.G.Z.8.Z.8.8.Z.8.8.Z.Z.8.Z.G.Z.Z.Z.H.I.K.K.B.p.b.b.b",
".a.a.a.n.B.J.L.U.P.W.W.W.F.F.F.4.3.3.3.4.F.4.F.F.6.W.Z.Z.Z.Z.Z.8#U.Z.Z.8.Z.G.Z.Z.8.Z.8.Z.8.Z.8.Z.8.Z.Z.8.Z.Z.Z.H.I.M.M.C.p.b.b.b",
".b.b#q.p#y.K.L.U#z.Y.Y.W.F.3.3.4.3.4.3.4.3.3.3.4.Z.G.G.Z.Z.Z.G.Z#U.Z.8.Z.Z.Z.Z.8.Z.8.Z.8.Z.8.Z.8.Z.8.8.Z.Z.Z.Z.H.U.M.M.C.p.b.b.b",
".b.b.b.p#y.K.K.I.H.Y.O.W#j.3.3.3.3.3.4.3.3.3.3.F.X.Z.Z.Z.Z.Z.Z.Y#U.8.Z.8.Z.Z.8.Z.Z.Z.Z.8.Z.8.8.Z.Z.8.Z.8.Z.Z.G.H.I.M.M.C.q.b.b.b",
".c.b.b.p#y.K.K.U.H.O.G.W.F.3.3.3.4.3.3.3.3.4.3.F.Z.G.G.Z.Z.Z.Z.Z.8.Z.8.Z.8.8.Z.8.8.Z.8.Z.8.Z.Z.Z.8.Z.8.Z.G.Z.Z.H.U.M.M.C.o#q.b.b",
".b.b.b.p.B.K.K.I.H.Z.G.W.4.4.3.4.3.4.4.3.3.3.3.4.Z.8.8.8.G.Z.Z.Y.Z.8.Z.8.Z.Z#U#U.Z.8.Z.8.Z.Z.Z.8.Z.8.Z.8.Z.Z.Z.H.U.M.M.C.o.b.b.b",
".c.b#q.p.N.K.K.U.H.Z.G.X.4.3.3.3.3.3.3.3.4.3.4.4.x.8.Z.Z.Z.Y.Z.Z.8.Z.8#U.8.Z#U#U.8.Z.8.Z.Z.8.8.Z.8.Z.Z.Z.G.Z.Z.H.U.M.K.C.o.b.b.b",
".c#q.b.p.C.K.K.I.H.G.G.Z.F.3.3.3.4.3.3.4.3.3.3.F.X.G.8.Z.8.Z.Z.Z.Z.Z#U#U#U#U#U#U.Z.8.8.Z.8.Z.8.Z.8.Z.8.Z.Z.Z.Z.H#h.M.M.C.p.b.b.c",
".a.a.a.n.B.K.K.V.0.X.W.X.4.3.4.3.3.3.3.4.4.4.4.6.W.G.8.Z.8.Z.G.Z.8.Z#U#U#U#U#U#U.Z.8.Z.8.Z.8.Z.8.Z.8.Z.8.Z.G.Z.H#h.M.M.z.n.a.a.a",
".d.d.e.r.z.J.J.I.W.4.F.4.4.3.3.3.4.3.4.4.6.x.W.W.G.G.Z.Z.Z.Z.G.Z.G.Z.Z.Z#U.Z.8.Z.Z.Z.8.Z.Z.Z.Z.Z.8.Z.8.Z.Z.Z.G.H.I.K.J.z.m.d.d.d",
"Qt.g#R.l.z.L.K.S.X.3.3.3.3.4.3.4.3.3.3.4.Z.G.G.G.Z.Z.Z.G.Z.G.Z.Z.Z.Z.G.Z#U.8#U.Z.8.Z.Z.8.Z.G.Z.Z.8.Z.Z.8#U#U.W.H.U.K.K.z.lQtQtQt",
"Qt.g#R.l.z.L.M.U.X.3.3.4.3.3.3.4.3.3.3.4.6.G.Z.G.G.G.Z.G.Z.Z.Z.Z.Z.Y.G.G#U#U#U#U.Z.8.Z.G.Z.G.Z.0.Z.8.Z.Z#U.G.Z.H.I.K.L.z.l.2QtQt",
".d.d.e.m.z.L.M.U.X.3.3.3.4.3.3.3.4.F.4.6.Z.G.Z.G.W.X.x.Z.Z.Z.G.G.Z.Z.x.Z.Z#U#U#U.G.Z.Z.Z.Z.Z.Z.8.8.Z.8.Z.Z.x.W.0.U.K.M.y.l.2QtQt",
".t.a.a.n.B.K.K.S.X.4.3.3.3.4.4.4.X.W.Z.x.G.Z.Z.X.6.4.4.6.Z.G.G.Z#j#j.F.F.W.G.Z.Z.Z.Z.Z.Z.Z.Z.G.Z.G.Z.G.O.F.F.F.W.U.K.J.z.lQtQtQt",
".b.b#q.p#y.J.J.S.X.3.3.4.3.3.3.4.Z.G.Z.Z.G.G.G.W.4.3.3.4.X.G.G.X#j.3.3.F.W.G.G.Z.Z.G.Z.G.Z.G.Z.Z.Z.G.G.W.F.3.3.W.T.K.L.z.lQtQtQt",
".c.b#q.p.C.M.J.T.X.4.3.3.3.4.5.4.X.G.Z.G.G.G.G.Z.4.5.4.4.x.G.G.O.3.3.3.4.x.G.Z.8.Z.8.Z.8.Z.Z.Z.Z.Z.G.G.W.F.3.3.W.T.K.K.z.k.g.1Qt",
".b.b.b.p.C.K.K.T.X.3.3.4.4.4.4.6.Z.G.Z.Z.Z.X.Z.6.F.4.4.6.X.O.X.X.F.F#j.F.Z.8.8.Z.Z.Z.8.Z.Z.Z.Z.Z.W.W.W.F.3.p.o.6.T.K.K.y.l.g.gQt",
".b.b.b.o.C.M.M.V.X.4.3.4.X.X.Z.X.Z.Z.G.Z.6.4.4.F.6.W.Z.X.F.4.4.6.W.W.W.Z.Z.Z.Z.8.8.Z.8.Z.8.Z.G.Z.6.F.F.5.E#Z#Z.5.C.J.J.z.mQtQtQt",
".b.b.b.o.C.K.M.V.X.3.3.4.Z.Z.G.Z.Z.Z.G.X.4.5.3.4.Z.Z.G.X.F.3.3.4.W.G.G.Z.Z.Z.G.Z.Z.8.Z.Z.8#U.G.W#j.3.3#0#Z.b.b.q.C.K.J.z.l.hQtQt",
".b.b.b.o.C.M.M.V.X.3.5.4.X.G.G.Z.G.Z.G.Z.4.3.3.4.Z.G.G.Z.4.3.5.4.W.G.Z.Z.Z.Z.Z.Z.8.Z.8.8.8.G.G.Z.F.3.3.5#Z.b.b.o.C.K.K.z.k.2.1Qt",
".a.a.a.r.C.M.M.U.Z.4.4.6.Z.G.G.G.x.Z.X.X.6.4.4.6.6.Z.X.X.F.4.4.F.G.G.G.Z.G.Z.G.Z.Z.8.Z.Z.Z.x.W.6.F.3.3#3#Z.b.b.o.C.K.J.z.l.2QtQt",
".d.d.e.r.z.J.K.U.P.X.X.Z.Z.Z.Z.Z.F.4.4.F.6.W.Z.6.F.F.4.F.X.Z.W.Z.Z.Z.8.Z.Z.Z.Z.Z.G.Z.G.G.F.F.F.F.3.4.3.5#Z.b.b.n.C.J.J.B.l.g.gQt",
"Qt.g#R.l.z.J.K.I.H.G.Z.G.Z.G.G.X.F.3.3.F.W.G.Z.Z.4.5.3.4.X.G.G.G.8.8.Z.8.8.G.Z.Z.Z.Z.G.W.4.3.3.3.3.3.3#3#Z.b.b.q.C.J.J.z.l.gQtQt",
"Qt.g#R.l.z.M.M.U.H.G.G.Z.G.G.G.Z.4.3.3.4.W.G.G.W.F.3.3.4.x.G.8.8.Z.Z.8.Z.Z.8.Z.G.Z.G.G.W.F.3.3.3.3.3.3#5#6.b.b.n.C.J.J.z.l.g.gQt",
".d.d.e.m.z.M.M.I.H.O.W.G.W.W.x.6.F.3.3.F.W.G.G.Z.F.4.4.6.Z.8.Z.Z.Z.8.Z.Z.8.Z.Z.Z.W.x.W.X.4.3.3.3.F.F.F.3.q#Z#Z.5.C.J.K.B.m.d.d.d",
".t.a#7.n.C.K.M.I.H.Z.G.W.6.F.4.4.4.3.3.F.W.G.G.W.W.W.Z.Z.Z.Z.Z.8.8.Z.8.Z.Z.G.Z.Z#t.4.4.4.4.3.3.F#t.W.Z.6.5.o#3.F.T.K.K.B.n.a.a.a",
".b.b#q.p.C.K.M.I.H.Z.G.Z.4.3.3.3.3.3.3.F.Z.Z.G.Z.G.G.8.Z.Z.Z.Z.8.8.Z.8.8.Z.G.G.X.F.3.3.3.3.3.3.F.W.G.G.W.F.3.3.W.T.K.K.C.p.b.c.c",
".c.c#q.p.C.M.M#h.H.Z.G.W.4.3.3.4.3.3.3#j.R.G.Z.G.G.Z.G.G.Z.Z.Z.Z.G.G.Z.8.G.G.G.W.F.3.3.3.3.3.3.F.W.G.G.Z.F.3.3.W.T.K.K.C.p#q#q.c",
".a.a.a.n.H.I.I.C.Y.X.W.X.4.4.3.3.4.4.F.6.W.Z.G.O.Z.Z.Z.Z.Z.Z.8.Z.W.W.x.Z.O.W.W.X.F.3.3.4.4.4.F.F.W.O.W.6.3#3#3.F#y.I.I.0a..a.a.t",
".#.d.ea#.x.H.H.G.X.F.4.4.4.4.3.4.X.W.O.W.G.G.G.G.Z.Z.Z.Z.Z.G.G.O.6.4.F.F.4.F.F.4.3.3.4.4#t.O.W.X.F.F.F.5.E#Zaa.p.W#y#y.Ra#ab.d.d",
".e.g.g.kac.G.G.Z.4.4.3.4.3.3.4.4.W.G.G.G.G.G.G.O.G.G.G.G.G.G.G.W.F.3.3.3.3.3.3.3.4.3.3.F.O.O.G.O.F.3.3#5aa.b#qad.F.G.O.w.k.1QtQt",
".e.e.e.kae.G.G.X.4.4.3.3.3.4.3.4.O.G.G.G.Z.G.G.G.G.G.G.G.Z.G.G.W.4.3.3.4.3.4.4.3.4.3.3.F.O.G.G.W.4.4.3.5aa.b.bad.F.Y.Y.w.k.1QtQt",
".e.f.dag.v.6.4.4.v.n.oah#3.3#0#0.vacae.w.w.F#j.w.wae.w.w.F.w.F.4.5#0#0#0#3#3#3#3#3#3#3.5.4aeac.v.v.oaoa.#Z.a.a.Qai.F.R.vaj.1QtQt",
".t.a.a.tak.E.E.Qalamagan#Zakak.ua#.k.ja#.Q.E.E.Qa#.k.k.j.Q#6.q.Q#6#6#6#6#6#6#6#6#6#6#6.ua#.k.k.j.jagag.i.i.d.d.#.u.E.q.u.fQtQtQt",
".b.c.c.c.b.b.b#7.e.e.e.e.a.b.c.a.dQt#Rab.a.b.b.a.d#R.g.d.a.b.b.b.c.c.t.b.c.b.b.c.b.b.c.a.d.g.g.g.gQtQtQt.h.h.h.d.a.b.b.a.dQtQtQt",
".c.c.c.c.b.c.b.t.#.e.e.f.a.c.c.a.dQtQt.d.a#q.b.a.d.hQt.d.a.c.b.b.b.c.b.b.b.b.c.b.b.b.b.a.d.g.gQtQtQtQtQtQt.h.h.d.a.c.b.a.d.h.hQt",
".b.b.c.b.b.c.b.t.e.e.g.e.t.c.c.a.dQtQt.d.a.c.b.a.d.hQt.d.a.c.c.c.c.b.c.b.c.c.b.c.c.b.b.t.dQtQtQtQtQtQtQtQtQt.h.d.a.c.c.a.dQtQtQt"};
