/* XPM */
static char *dummy[]={
"64 64 113 2",
"Qt c None",
".K c #000000",
".L c #000000",
".M c #000000",
"#o c #000000",
".Y c #000000",
"#e c #000000",
".N c #000000",
"#R c #000000",
".R c #000000",
".O c #000000",
"#S c #000000",
"#T c #000000",
"#U c #000000",
".Q c #000000",
".8 c #000000",
".Z c #000000",
"#r c #000000",
".S c #000000",
"#J c #000000",
"#f c #000000",
"#m c #000000",
"#K c #000000",
".T c #000000",
"#L c #000000",
".0 c #000000",
".7 c #000000",
"#M c #000000",
".U c #000000",
"#N c #000000",
".9 c #000000",
"#O c #000000",
".P c #000000",
"#P c #000000",
"#Q c #000000",
".V c #000000",
".X c #000000",
".1 c #000000",
"#s c #000000",
"#B c #000000",
"#g c #000000",
"#n c #000000",
"#C c #000000",
".2 c #000000",
"#. c #000000",
"#D c #000000",
"#E c #000000",
".3 c #000000",
"#t c #000000",
"#F c #000000",
"#G c #000000",
".W c #000000",
".4 c #000000",
"#H c #000000",
"#h c #000000",
"#I c #000000",
"#u c #000000",
"## c #000000",
"#v c #000000",
"#w c #000000",
"#x c #000000",
"#i c #000000",
"#a c #000000",
"#y c #000000",
".6 c #000000",
".5 c #000000",
"#b c #000000",
"#z c #000000",
"#A c #000000",
"#j c #000000",
"#k c #000000",
"#d c #000000",
"#c c #000000",
"#p c #000000",
"#q c #000000",
"#l c #000000",
".l c #000003",
".E c #00070c",
".o c #07050d",
".q c #141d32",
".j c #1baba8",
".f c #1c0000",
".D c #1e232c",
".h c #25424b",
".r c #2b2c38",
".y c #303a55",
".G c #3f4449",
".B c #4b5e7f",
".n c #4f211e",
".s c #4f5463",
".b c #52300c",
".u c #5b0a00",
".C c #684700",
".H c #6c7273",
".F c #708ea7",
".t c #757c87",
".w c #841914",
".m c #8b4435",
".# c #946230",
".I c #99a09e",
".z c #9e7b10",
".v c #b1b5be",
".g c #b5bfce",
".p c #c26552",
".a c #d1a049",
".A c #dfba18",
".J c #e2e5e5",
".c c #f0e883",
".i c #f2ffff",
".x c #f4fffe",
".e c #fd9370",
".k c #ffe5ba",
".d c #fffffa",
"QtQtQtQtQtQtQtQtQtQtQtQtQtQtQtQtQtQtQtQtQtQtQtQtQtQtQtQtQtQtQtQtQtQtQtQtQtQtQtQtQtQtQtQtQtQtQtQtQtQtQtQtQtQtQtQtQtQtQtQtQtQtQtQt",
"QtQtQtQtQtQtQtQtQtQtQtQtQtQtQtQtQtQtQtQtQtQtQtQtQtQtQtQtQtQtQtQtQtQtQtQtQtQtQtQtQtQtQtQtQtQtQtQtQtQtQtQtQtQtQtQtQtQtQtQtQtQtQtQt",
"QtQtQtQtQtQtQtQtQtQtQtQtQtQtQtQtQtQtQtQtQtQtQtQtQtQtQtQtQtQtQtQtQtQtQtQtQtQtQtQtQtQtQtQtQtQtQtQtQtQtQtQtQtQtQtQtQtQtQtQtQtQtQtQt",
"QtQtQtQtQtQtQtQtQtQtQtQtQtQtQtQtQtQtQtQtQtQtQtQtQtQtQtQtQtQtQtQtQt.#.aQtQtQtQtQtQtQtQtQtQtQtQtQtQtQtQtQtQtQtQtQtQtQtQtQtQtQtQtQt",
"QtQtQtQtQtQtQtQtQtQtQtQtQtQtQtQtQtQtQtQtQtQtQtQtQtQtQtQtQtQt.#.#.#.#.a.bQtQtQtQtQtQtQtQtQtQtQtQtQtQtQtQtQtQtQtQtQtQtQtQtQtQtQtQt",
"QtQtQtQtQtQtQtQtQtQtQtQtQtQtQtQtQtQtQtQtQtQtQtQtQtQtQtQt.#.a.#.#.#.a.b.b.#.bQtQtQtQtQtQtQtQtQtQtQtQtQtQtQtQtQtQtQtQtQtQtQtQtQtQt",
"QtQtQtQtQtQtQtQtQtQtQtQtQtQtQtQtQtQtQtQtQtQtQtQtQtQtQt.#.#.a.a.a.#.#.a.#.#.b.bQtQtQtQtQtQtQtQtQtQtQtQtQtQtQtQtQtQtQtQtQtQtQtQtQt",
"QtQtQtQtQtQtQtQtQtQtQtQtQtQtQtQtQtQtQtQtQtQtQtQtQtQt.#.#.a.c.a.c.a.a.a.c.a.#.bQtQtQtQtQtQtQtQtQtQtQtQtQtQtQtQtQtQtQtQtQtQtQtQtQt",
"QtQtQtQtQtQtQtQtQtQtQtQtQtQtQtQtQtQtQtQtQtQtQtQtQtQt.#.c.c.a.c.c.a.c.a.c.c.d.a.#QtQtQtQtQtQtQtQtQtQtQtQtQtQtQtQtQtQtQtQtQtQtQtQt",
"QtQtQtQtQtQtQtQtQtQtQtQtQtQtQtQtQtQtQtQtQtQtQtQtQt.b.a.c.a.a.c.a.c.c.a.c.a.c.d.#QtQtQtQtQtQtQtQtQtQtQtQtQtQtQtQtQtQtQtQtQtQtQtQt",
"QtQtQtQtQtQtQtQtQtQtQtQtQtQtQtQtQtQtQtQtQtQtQtQtQt.b.a.#.#.a.#.c.d.a.#.c.d.a.a.c.aQtQtQtQtQtQtQtQtQtQtQtQtQtQtQtQtQtQtQtQtQtQtQt",
"QtQtQtQtQtQtQtQtQtQtQtQtQtQtQtQtQtQtQtQtQtQtQtQt.#.a.#.b.a.a.#.d.c.#.b.#.c.d.#.a.aQtQtQtQtQtQtQtQtQtQtQtQtQtQtQtQtQtQtQtQtQtQtQt",
"QtQtQtQtQtQtQtQtQtQtQtQtQtQtQtQtQtQtQtQtQtQtQtQt.#.b.b.#.a.#.a.c.a.#.e.b.a.d.b.bQtQtQtQtQtQtQtQtQtQtQtQtQtQtQtQtQtQtQtQtQtQtQtQt",
"QtQtQtQtQtQtQtQtQtQtQtQtQtQtQtQtQtQtQtQtQtQtQtQt.#.#.#.b.#.b.a.a.b.f.f.e.#.c.bQtQtQtQtQtQtQtQtQtQtQtQtQtQtQtQtQtQtQtQtQtQtQtQtQt",
"QtQtQtQtQtQtQtQtQtQtQtQtQtQtQtQtQtQtQtQtQtQtQtQt.#.b.b.b.#.e.#.a.b.g.h.f.b.a.bQtQtQtQtQtQtQtQtQtQtQtQtQtQtQtQtQtQtQtQtQtQtQtQtQt",
"QtQtQtQtQtQtQtQtQtQtQtQtQtQtQtQtQtQtQtQtQtQtQtQtQtQt.b.b.#.e.b.#.e.i.j.k.e.bQtQtQtQtQtQtQtQtQtQtQtQtQtQtQtQtQtQtQtQtQtQtQtQtQtQt",
"QtQtQtQtQtQtQtQtQtQtQtQtQtQtQtQtQtQtQtQtQtQtQtQtQt.l.l.b.b.m.m.b.k.k.k.k.k.nQtQtQtQtQtQtQtQtQtQtQtQtQtQtQtQtQtQtQtQtQtQtQtQtQtQt",
"QtQtQtQtQtQtQtQtQtQtQtQtQtQtQtQtQtQtQtQtQtQtQtQtQt.l.o.l.b.b.m.p.k.k.k.k.p.nQtQtQtQtQtQtQtQtQtQtQtQtQtQtQtQtQtQtQtQtQtQtQtQtQtQt",
"QtQtQtQtQtQtQtQtQtQtQtQtQtQtQtQtQtQtQtQtQtQtQtQtQt.l.q.l.o.l.b.m.p.e.e.p.n.r.oQtQtQtQtQtQtQtQtQtQtQtQtQtQtQtQtQtQtQtQtQtQtQtQtQt",
"QtQtQtQtQtQtQtQtQtQtQtQtQtQtQtQtQtQtQtQtQtQtQtQtQt.q.s.t.q.l.l.r.n.m.m.n.u.t.oQtQtQtQtQtQtQtQtQtQtQtQtQtQtQtQtQtQtQtQtQtQtQtQtQt",
"QtQtQtQtQtQtQtQtQtQtQtQtQtQtQtQtQtQtQtQtQtQtQtQtQt.l.q.s.t.v.t.o.v.r.l.t.w.s.oQtQtQtQtQtQtQtQtQtQtQtQtQtQtQtQtQtQtQtQtQtQtQtQtQt",
"QtQtQtQtQtQtQtQtQtQtQtQtQtQtQtQtQtQtQtQtQtQtQtQtQt.l.l.l.q.q.x.t.o.v.l.v.s.o.qQtQtQtQtQtQtQtQtQtQtQtQtQtQtQtQtQtQtQtQtQtQtQtQtQt",
"QtQtQtQtQtQtQtQtQtQtQtQtQtQtQtQtQtQtQtQtQtQtQtQt.q.q.y.y.y.q.t.x.r.t.r.v.o.o.qQtQtQtQtQtQtQtQtQtQtQtQtQtQtQtQtQtQtQtQtQtQtQtQtQt",
"QtQtQtQtQtQtQtQtQtQtQtQtQtQtQtQtQtQtQtQtQtQtQtQt.q.z.A.z.B.q.q.x.v.r.s.r.o.s.y.lQtQtQtQtQtQtQtQtQtQtQtQtQtQtQtQtQtQtQtQtQtQtQtQt",
"QtQtQtQtQtQtQtQtQtQtQtQtQtQtQtQtQtQtQtQtQtQtQt.q.y.A.A.z.B.q.y.v.x.o.r.r.r.t.y.lQtQtQtQtQtQtQtQtQtQtQtQtQtQtQtQtQtQtQtQtQtQtQtQt",
"QtQtQtQtQtQtQtQtQtQtQtQtQtQtQtQtQtQtQtQtQtQtQt.q.B.A.A.B.y.q.y.y.x.o.s.s.C.t.q.lQtQtQtQtQtQtQtQtQtQtQtQtQtQtQtQtQtQtQtQtQtQtQtQt",
"QtQtQtQtQtQtQtQtQtQtQtQtQtQtQtQtQtQtQtQtQtQtQt.q.y.B.B.y.y.l.y.y.x.o.r.z.r.t.q.D.qQtQtQtQtQtQtQtQtQtQtQtQtQtQtQtQtQtQtQtQtQtQtQt",
"QtQtQtQtQtQtQtQtQtQtQtQtQtQtQtQtQtQtQtQtQtQtQt.q.y.y.y.y.q.l.q.y.v.o.s.s.z.s.q.y.qQtQtQtQtQtQtQtQtQtQtQtQtQtQtQtQtQtQtQtQtQtQtQt",
"QtQtQtQtQtQtQtQtQtQtQtQtQtQtQtQtQtQtQtQtQtQt.q.y.y.y.B.D.E.o.q.q.v.r.r.z.o.s.q.y.y.qQtQtQtQtQtQtQtQtQtQtQtQtQtQtQtQtQtQtQtQtQtQt",
"QtQtQtQtQtQtQtQtQtQtQtQtQtQtQtQtQtQtQtQtQtQt.q.y.y.B.B.l.l.l.o.q.t.r.r.o.o.l.q.q.y.q.EQtQtQtQtQtQtQtQtQtQtQtQtQtQtQtQtQtQtQtQtQt",
"QtQtQtQtQtQtQtQtQtQtQtQtQtQtQtQtQtQtQtQtQtQt.q.y.y.F.B.l.l.o.l.l.s.l.o.A.A.l.q.q.q.E.E.GQtQtQtQtQtQtQtQtQtQtQtQtQtQtQtQtQtQtQtQt",
"QtQtQtQtQtQtQtQtQtQtQtQtQtQtQtQtQtQtQtQtQtQt.q.y.B.F.F.q.s.l.l.l.s.o.o.z.A.E.l.q.E.D.H.G.EQtQtQtQtQtQtQtQtQtQtQtQtQtQtQtQtQtQtQt",
"QtQtQtQtQtQtQtQtQtQtQtQtQtQtQtQtQtQtQtQtQtQt.s.y.B.B.B.t.s.s.s.s.t.o.r.r.C.C.l.E.E.E.E.H.EQtQtQtQtQtQtQtQtQtQtQtQtQtQtQtQtQtQtQt",
"QtQtQtQtQtQtQtQtQtQtQtQtQtQtQtQtQtQtQtQtQtQt.t.v.x.x.v.q.q.q.l.l.t.o.C.z.A.o.l.E.D.D.G.D.EQtQtQtQtQtQtQtQtQtQtQtQtQtQtQtQtQtQtQt",
"QtQtQtQtQtQtQtQtQtQtQtQtQtQtQtQtQtQtQtQtQtQt.l.q.y.y.y.t.q.D.q.q.v.r.s.s.s.CQt.E.D.G.H.EQtQtQtQtQtQtQtQtQtQtQtQtQtQtQtQtQtQtQtQt",
"QtQtQtQtQtQtQtQtQtQtQtQtQtQtQtQtQtQtQtQtQtQt.s.t.v.v.t.E.q.y.q.q.v.o.C.z.C.oQtQt.E.E.EQtQtQtQtQtQtQtQtQtQtQtQtQtQtQtQtQtQtQtQtQt",
"QtQtQtQtQtQtQtQtQtQtQtQtQtQtQtQtQtQtQtQtQtQt.E.E.E.D.E.D.E.y.y.q.v.o.s.s.v.r.EQtQtQtQtQtQtQtQtQtQtQtQtQtQtQtQtQtQtQtQtQtQtQtQtQt",
"QtQtQtQtQtQtQtQtQtQtQtQtQtQtQtQtQtQtQtQtQtQt.E.D.G.G.E.H.E.y.y.q.x.o.t.v.r.E.EQtQtQtQtQtQtQtQtQtQtQtQtQtQtQtQtQtQtQtQtQtQtQtQtQt",
"QtQtQtQtQtQtQtQtQtQtQtQtQtQtQtQtQtQtQtQtQtQtQt.E.H.H.D.I.E.B.y.q.x.o.r.r.E.q.EQtQtQtQtQtQtQtQtQtQtQtQtQtQtQtQtQtQtQtQtQtQtQtQtQt",
"QtQtQtQtQtQtQtQtQtQtQtQtQtQtQtQtQtQtQtQtQtQtQt.l.E.E.E.E.y.B.B.q.x.E.E.E.q.y.q.qQtQtQtQtQtQtQtQtQtQtQtQtQtQtQtQtQtQtQtQtQtQtQtQt",
"QtQtQtQtQtQtQtQtQtQtQtQtQtQtQtQtQtQtQtQtQtQtQt.l.q.q.y.q.y.B.B.y.x.E.E.q.y.y.y.qQtQtQtQtQtQtQtQtQtQtQtQtQtQtQtQtQtQtQtQtQtQtQtQt",
"QtQtQtQtQtQtQtQtQtQtQtQtQtQtQtQtQtQtQtQtQtQt.l.q.q.y.y.q.y.B.F.y.x.E.E.q.D.y.B.q.DQtQtQtQtQtQtQtQtQtQtQtQtQtQtQtQtQtQtQtQtQtQtQt",
"QtQtQtQtQtQtQtQtQtQtQtQtQtQtQtQtQtQtQtQtQtQt.l.q.q.B.y.y.B.B.F.B.x.E.E.E.q.y.y.q.DQtQtQtQtQtQtQtQtQtQtQtQtQtQtQtQtQtQtQtQtQtQtQt",
"QtQtQtQtQtQtQtQtQtQtQtQtQtQtQtQtQtQtQtQtQtQt.l.q.y.B.y.y.B.F.F.B.v.v.E.E.q.q.y.J.G.DQtQtQtQtQtQtQtQtQtQtQtQtQtQtQtQtQtQtQtQtQtQt",
"QtQtQtQtQtQtQtQtQtQtQtQtQtQtQtQtQtQtQtQtQt.l.q.q.B.y.y.y.B.F.F.B.y.x.E.E.E.E.I.H.J.DQtQtQtQtQtQtQtQtQtQtQtQtQtQtQtQtQtQtQtQtQtQt",
"QtQtQtQtQtQtQtQtQtQtQtQtQtQtQtQtQtQtQtQt.o.o.q.y.B.q.y.y.F.F.F.B.y.x.E.D.G.D.H.J.J.GQtQtQtQtQtQtQtQtQtQtQtQtQtQtQtQtQtQtQtQtQtQt",
"QtQtQtQtQtQtQtQtQtQtQtQtQtQtQtQtQtQtQtQt.o.l.q.y.y.q.y.B.F.F.F.B.y.x.E.E.E.D.r.H.I.DQtQtQtQtQtQtQtQtQtQtQtQtQtQtQtQtQtQtQtQtQtQt",
"QtQtQtQtQtQtQtQtQtQtQtQtQtQtQtQtQtQtQt.o.r.r.l.q.y.D.q.B.F.F.F.B.y.x.E.G.G.E.E.D.G.DQtQtQtQtQtQtQtQtQtQtQtQtQtQtQtQtQtQtQtQtQtQt",
"QtQtQtQtQtQtQtQtQtQtQtQtQtQtQtQtQtQtQt.o.r.r.s.l.q.q.q.B.F.F.B.B.y.x.E.E.E.G.E.E.DQtQtQtQtQtQtQtQtQtQtQtQtQtQtQtQtQtQtQtQtQtQtQt",
"QtQtQtQtQtQtQtQtQtQtQtQtQtQtQtQtQt.K.K.o.r.r.r.s.r.r.s.t.v.v.v.v.v.x.E.D.D.E.q.E.E.L.K.K.KQtQtQtQtQtQtQtQtQtQtQtQtQtQtQtQtQtQtQt",
"QtQtQtQtQtQtQtQtQtQtQtQtQtQtQt.K.K.M.N.O.o.r.r.r.r.r.s.s.s.s.t.t.t.x.P.E.D.D.D.G.D.Q.O.N.M.K.KQtQtQtQtQtQtQtQtQtQtQtQtQtQtQtQtQt",
"QtQtQtQtQtQtQtQtQtQtQtQtQtQt.K.M.R.S.T.U.V.o.o.r.r.r.r.s.s.t.t.t.t.v.W.o.E.D.G.H.I.X.U.T.S.R.M.KQtQtQtQtQtQtQtQtQtQtQtQtQtQtQtQt",
"QtQtQtQtQtQtQtQtQtQtQtQtQt.K.Y.Z.0.1.2.3.4.E.E.E.E.o.r.r.r.r.s.s.t.v.5.6.E.D.D.G.D.H.D.D.1.7.Z.Y.KQtQtQtQtQtQtQtQtQtQtQtQtQtQtQt",
"QtQtQtQtQtQtQtQtQtQtQtQt.K.M.8.9#..W###a#b.E.E.E.E.E.E.o.o.o.o.r.r.s#c#d.o.D.G.H.I.H.D.D.G#..9.8.M.KQtQtQtQtQtQtQtQtQtQtQtQtQtQt",
"QtQtQtQtQtQtQtQtQtQtQtQt.K#e#f#g#h#i#j#k#c.E.E.E.E.D.D.D.D#l#l#l#l#l#l#l.E.D.G.D.D.D.H.I.G#h#g#f#e.KQtQtQtQtQtQtQtQtQtQtQtQtQtQt",
"QtQtQtQtQtQtQtQtQtQtQtQt.K#e#m#g#h#a#j#k#c.l.E.E.E.E.E.E.D#l#l#l#l#l#l#l.o.D.r.G.G.H.H.G.G#h#n#m#e.KQtQtQtQtQtQtQtQtQtQtQtQtQtQt",
"QtQtQtQtQtQtQtQtQtQtQtQt.K#o.8.9#..W###a#b#j.l.l.E.l.E.l.l#p#q#q#p#p#c#d.E.D.D.D.E.E.D.D.D#..9.8#o.KQtQtQtQtQtQtQtQtQtQtQtQtQtQt",
"QtQtQtQtQtQtQtQtQtQtQtQtQt.K.Y#r.7#s#.#t.4#u#v#w#x#y.6.5#z#A#A#A#A#z.5.6.l.l.l.E.l.l#t#.#s.7#r.Y.KQtQtQtQtQtQtQtQtQtQtQtQtQtQtQt",
"QtQtQtQtQtQtQtQtQtQtQtQtQtQt.K#o.O.S.T.U.X#B#C#D#E#F#G.W#H#h#I#I#h#H.W#G#F#E#D#C#B.X.U.T.S.O#o.KQtQtQtQtQtQtQtQtQtQtQtQtQtQtQtQt",
"QtQtQtQtQtQtQtQtQtQtQtQtQtQtQt.K.K.M.N.O.Q#J#K#L#M#N#O.P#P#Q.V.V#Q#P.P#O#N#M#L#K#J.8.O.N.M.K.KQtQtQtQtQtQtQtQtQtQtQtQtQtQtQtQtQt",
"QtQtQtQtQtQtQtQtQtQtQtQtQtQtQtQtQt.K.K.K.L.M.Y.N#R.O#S#T#T#T#U#U#T#T#T#S.O#R.N.Y.M.L.K.K.KQtQtQtQtQtQtQtQtQtQtQtQtQtQtQtQtQtQtQt",
"QtQtQtQtQtQtQtQtQtQtQtQtQtQtQtQtQtQtQtQtQt.K.K.K.K.K.K.K.K.K.K.K.K.K.K.K.K.K.K.K.KQtQtQtQtQtQtQtQtQtQtQtQtQtQtQtQtQtQtQtQtQtQtQt",
"QtQtQtQtQtQtQtQtQtQtQtQtQtQtQtQtQtQtQtQtQtQtQtQtQtQtQtQtQtQtQtQtQtQtQtQtQtQtQtQtQtQtQtQtQtQtQtQtQtQtQtQtQtQtQtQtQtQtQtQtQtQtQtQt",
"QtQtQtQtQtQtQtQtQtQtQtQtQtQtQtQtQtQtQtQtQtQtQtQtQtQtQtQtQtQtQtQtQtQtQtQtQtQtQtQtQtQtQtQtQtQtQtQtQtQtQtQtQtQtQtQtQtQtQtQtQtQtQtQt"};
