/* XPM */
static char *dummy[]={
"64 64 114 2",
"Qt c None",
".K c #000000",
".O c #000000",
".N c #000000",
"#y c #000000",
".M c #000000",
"#o c #000000",
".L c #000000",
"#S c #000000",
".V c #000000",
".P c #000000",
"#T c #000000",
"#U c #000000",
"#V c #000000",
".Q c #000000",
"#e c #000000",
".6 c #000000",
"#A c #000000",
".W c #000000",
".U c #000000",
"#p c #000000",
"#w c #000000",
".T c #000000",
".X c #000000",
".S c #000000",
".7 c #000000",
"#d c #000000",
".R c #000000",
".Y c #000000",
"#N c #000000",
"#f c #000000",
"#O c #000000",
"#P c #000000",
"#Q c #000000",
"#R c #000000",
".Z c #000000",
".5 c #000000",
".8 c #000000",
"#B c #000000",
".0 c #000000",
".4 c #000000",
"#q c #000000",
"#x c #000000",
".3 c #000000",
".9 c #000000",
"#g c #000000",
".2 c #000000",
".1 c #000000",
"#. c #000000",
"#C c #000000",
"#J c #000000",
"#K c #000000",
"#h c #000000",
"## c #000000",
"#L c #000000",
"#r c #000000",
"#M c #000000",
"#a c #000000",
"#i c #000000",
"#b c #000000",
"#c c #000000",
"#D c #000000",
"#s c #000000",
"#j c #000000",
"#E c #000000",
"#F c #000000",
"#G c #000000",
"#k c #000000",
"#H c #000000",
"#I c #000000",
"#l c #000000",
"#m c #000000",
"#n c #000000",
"#t c #000000",
"#z c #000000",
"#u c #000000",
"#v c #000000",
".l c #000003",
".F c #00070c",
".o c #07050d",
".q c #141d32",
".j c #1baba8",
".f c #1c0000",
".C c #1e232c",
".h c #25424b",
".v c #2b2c38",
".y c #303a55",
".G c #3f4449",
".z c #4b5e7f",
".n c #4f211e",
".s c #4f5463",
".b c #52300c",
".w c #5b0a00",
".D c #684700",
".H c #6c7273",
".E c #708ea7",
".r c #757c87",
".t c #841914",
".m c #8b4435",
".# c #946230",
".I c #99a09e",
".A c #9e7b10",
".u c #b1b5be",
".g c #b5bfce",
".p c #c26552",
".a c #d1a049",
".B c #dfba18",
".J c #e2e5e5",
".c c #f0e883",
".i c #f2ffff",
".x c #f4fffe",
".e c #fd9370",
".k c #ffe5ba",
".d c #fffffa",
"QtQtQtQtQtQtQtQtQtQtQtQtQtQtQtQtQtQtQtQtQtQtQtQtQtQtQtQtQtQtQtQtQtQtQtQtQtQtQtQtQtQtQtQtQtQtQtQtQtQtQtQtQtQtQtQtQtQtQtQtQtQtQtQt",
"QtQtQtQtQtQtQtQtQtQtQtQtQtQtQtQtQtQtQtQtQtQtQtQtQtQtQtQtQtQtQtQtQtQtQtQtQtQtQtQtQtQtQtQtQtQtQtQtQtQtQtQtQtQtQtQtQtQtQtQtQtQtQtQt",
"QtQtQtQtQtQtQtQtQtQtQtQtQtQtQtQtQtQtQtQtQtQtQtQtQtQtQtQtQtQtQtQtQt.#.aQtQtQtQtQtQtQtQtQtQtQtQtQtQtQtQtQtQtQtQtQtQtQtQtQtQtQtQtQt",
"QtQtQtQtQtQtQtQtQtQtQtQtQtQtQtQtQtQtQtQtQtQtQtQtQtQtQtQtQtQt.#.#.#.#.a.bQtQtQtQtQtQtQtQtQtQtQtQtQtQtQtQtQtQtQtQtQtQtQtQtQtQtQtQt",
"QtQtQtQtQtQtQtQtQtQtQtQtQtQtQtQtQtQtQtQtQtQtQtQtQtQtQtQt.#.a.#.#.#.a.b.b.#.bQtQtQtQtQtQtQtQtQtQtQtQtQtQtQtQtQtQtQtQtQtQtQtQtQtQt",
"QtQtQtQtQtQtQtQtQtQtQtQtQtQtQtQtQtQtQtQtQtQtQtQtQtQtQt.#.#.a.a.a.#.#.a.#.#.b.bQtQtQtQtQtQtQtQtQtQtQtQtQtQtQtQtQtQtQtQtQtQtQtQtQt",
"QtQtQtQtQtQtQtQtQtQtQtQtQtQtQtQtQtQtQtQtQtQtQtQtQtQt.#.#.a.c.a.c.a.a.a.c.a.#.bQtQtQtQtQtQtQtQtQtQtQtQtQtQtQtQtQtQtQtQtQtQtQtQtQt",
"QtQtQtQtQtQtQtQtQtQtQtQtQtQtQtQtQtQtQtQtQtQtQtQtQtQt.#.c.c.a.c.c.a.c.a.c.c.d.a.#QtQtQtQtQtQtQtQtQtQtQtQtQtQtQtQtQtQtQtQtQtQtQtQt",
"QtQtQtQtQtQtQtQtQtQtQtQtQtQtQtQtQtQtQtQtQtQtQtQtQt.b.a.c.a.a.c.a.c.c.a.c.a.c.d.#QtQtQtQtQtQtQtQtQtQtQtQtQtQtQtQtQtQtQtQtQtQtQtQt",
"QtQtQtQtQtQtQtQtQtQtQtQtQtQtQtQtQtQtQtQtQtQtQtQtQt.b.a.#.#.a.#.c.d.a.#.c.d.a.a.c.aQtQtQtQtQtQtQtQtQtQtQtQtQtQtQtQtQtQtQtQtQtQtQt",
"QtQtQtQtQtQtQtQtQtQtQtQtQtQtQtQtQtQtQtQtQtQtQtQt.#.a.#.b.a.a.#.d.c.#.b.#.c.d.#.a.aQtQtQtQtQtQtQtQtQtQtQtQtQtQtQtQtQtQtQtQtQtQtQt",
"QtQtQtQtQtQtQtQtQtQtQtQtQtQtQtQtQtQtQtQtQtQtQtQt.#.b.b.#.a.#.a.c.a.#.e.b.a.d.b.bQtQtQtQtQtQtQtQtQtQtQtQtQtQtQtQtQtQtQtQtQtQtQtQt",
"QtQtQtQtQtQtQtQtQtQtQtQtQtQtQtQtQtQtQtQtQtQtQtQt.#.#.#.b.#.b.a.a.b.f.f.e.#.c.bQtQtQtQtQtQtQtQtQtQtQtQtQtQtQtQtQtQtQtQtQtQtQtQtQt",
"QtQtQtQtQtQtQtQtQtQtQtQtQtQtQtQtQtQtQtQtQtQtQtQt.#.b.b.b.#.e.#.a.b.g.h.f.b.a.bQtQtQtQtQtQtQtQtQtQtQtQtQtQtQtQtQtQtQtQtQtQtQtQtQt",
"QtQtQtQtQtQtQtQtQtQtQtQtQtQtQtQtQtQtQtQtQtQtQtQtQtQt.b.b.#.e.b.#.e.i.j.k.e.bQtQtQtQtQtQtQtQtQtQtQtQtQtQtQtQtQtQtQtQtQtQtQtQtQtQt",
"QtQtQtQtQtQtQtQtQtQtQtQtQtQtQtQtQtQtQtQtQtQtQtQtQt.l.l.b.b.m.m.b.k.k.k.k.k.nQtQtQtQtQtQtQtQtQtQtQtQtQtQtQtQtQtQtQtQtQtQtQtQtQtQt",
"QtQtQtQtQtQtQtQtQtQtQtQtQtQtQtQtQtQtQtQtQtQtQtQtQt.l.o.l.b.b.m.p.k.k.k.k.p.nQtQtQtQtQtQtQtQtQtQtQtQtQtQtQtQtQtQtQtQtQtQtQtQtQtQt",
"QtQtQtQtQtQtQtQtQtQtQtQtQtQtQtQtQtQtQtQtQtQtQtQtQt.l.q.l.q.l.b.m.p.e.e.p.n.rQtQtQtQtQtQtQtQtQtQtQtQtQtQtQtQtQtQtQtQtQtQtQtQtQtQt",
"QtQtQtQtQtQtQtQtQtQtQtQtQtQtQtQtQtQtQtQtQtQtQtQtQt.l.q.s.q.l.q.l.n.m.m.n.t.sQtQtQtQtQtQtQtQtQtQtQtQtQtQtQtQtQtQtQtQtQtQtQtQtQtQt",
"QtQtQtQtQtQtQtQtQtQtQtQtQtQtQtQtQtQtQtQtQtQtQtQtQtQt.l.q.s.r.u.r.l.v.l.r.w.oQtQtQtQtQtQtQtQtQtQtQtQtQtQtQtQtQtQtQtQtQtQtQtQtQtQt",
"QtQtQtQtQtQtQtQtQtQtQtQtQtQtQtQtQtQtQtQtQtQtQtQtQt.q.l.l.l.q.q.x.r.v.l.u.s.oQtQtQtQtQtQtQtQtQtQtQtQtQtQtQtQtQtQtQtQtQtQtQtQtQtQt",
"QtQtQtQtQtQtQtQtQtQtQtQtQtQtQtQtQtQtQtQtQtQtQtQtQt.q.y.y.y.q.q.q.x.l.v.u.o.zQtQtQtQtQtQtQtQtQtQtQtQtQtQtQtQtQtQtQtQtQtQtQtQtQtQt",
"QtQtQtQtQtQtQtQtQtQtQtQtQtQtQtQtQtQtQtQtQtQtQtQtQt.y.A.B.A.z.q.l.u.u.v.v.o.rQtQtQtQtQtQtQtQtQtQtQtQtQtQtQtQtQtQtQtQtQtQtQtQtQtQt",
"QtQtQtQtQtQtQtQtQtQtQtQtQtQtQtQtQtQtQtQtQtQtQtQt.q.y.B.B.B.z.C.o.l.x.v.v.v.rQtQtQtQtQtQtQtQtQtQtQtQtQtQtQtQtQtQtQtQtQtQtQtQtQtQt",
"QtQtQtQtQtQtQtQtQtQtQtQtQtQtQtQtQtQtQtQtQtQtQtQt.q.y.B.B.A.y.q.o.l.x.s.s.D.rQtQtQtQtQtQtQtQtQtQtQtQtQtQtQtQtQtQtQtQtQtQtQtQtQtQt",
"QtQtQtQtQtQtQtQtQtQtQtQtQtQtQtQtQtQtQtQtQtQtQtQt.q.y.z.z.z.y.l.l.l.x.v.A.v.sQtQtQtQtQtQtQtQtQtQtQtQtQtQtQtQtQtQtQtQtQtQtQtQtQtQt",
"QtQtQtQtQtQtQtQtQtQtQtQtQtQtQtQtQtQtQtQtQtQtQtQt.q.y.y.z.y.C.q.o.l.u.s.s.D.sQtQtQtQtQtQtQtQtQtQtQtQtQtQtQtQtQtQtQtQtQtQtQtQtQtQt",
"QtQtQtQtQtQtQtQtQtQtQtQtQtQtQtQtQtQtQtQtQtQtQtQt.l.y.y.y.y.q.o.o.l.r.v.A.o.y.lQtQtQtQtQtQtQtQtQtQtQtQtQtQtQtQtQtQtQtQtQtQtQtQtQt",
"QtQtQtQtQtQtQtQtQtQtQtQtQtQtQtQtQtQtQtQtQtQtQtQt.l.q.y.y.y.q.l.l.s.r.v.o.o.y.lQtQtQtQtQtQtQtQtQtQtQtQtQtQtQtQtQtQtQtQtQtQtQtQtQt",
"QtQtQtQtQtQtQtQtQtQtQtQtQtQtQtQtQtQtQtQtQtQtQtQtQt.q.y.y.z.y.l.l.v.u.o.A.B.y.lQtQtQtQtQtQtQtQtQtQtQtQtQtQtQtQtQtQtQtQtQtQtQtQtQt",
"QtQtQtQtQtQtQtQtQtQtQtQtQtQtQtQtQtQtQtQtQtQtQtQtQt.l.y.y.E.z.q.l.u.o.o.D.A.q.q.FQtQtQtQtQtQtQtQtQtQtQtQtQtQtQtQtQtQtQtQtQtQtQtQt",
"QtQtQtQtQtQtQtQtQtQtQtQtQtQtQtQtQtQtQtQtQtQtQtQtQt.l.y.z.E.E.y.r.r.o.v.v.D.D.l.FQtQtQtQtQtQtQtQtQtQtQtQtQtQtQtQtQtQtQtQtQtQtQtQt",
"QtQtQtQtQtQtQtQtQtQtQtQtQtQtQtQtQtQtQtQtQtQtQtQtQtQt.q.z.z.z.x.u.r.o.D.A.B.o.C.FQtQtQtQtQtQtQtQtQtQtQtQtQtQtQtQtQtQtQtQtQtQtQtQt",
"QtQtQtQtQtQtQtQtQtQtQtQtQtQtQtQtQtQtQtQtQtQtQtQtQtQt.r.u.x.x.y.q.r.v.s.s.s.D.C.FQtQtQtQtQtQtQtQtQtQtQtQtQtQtQtQtQtQtQtQtQtQtQtQt",
"QtQtQtQtQtQtQtQtQtQtQtQtQtQtQtQtQtQtQtQtQtQtQtQtQt.l.l.q.y.y.u.r.u.o.D.A.D.o.G.FQtQtQtQtQtQtQtQtQtQtQtQtQtQtQtQtQtQtQtQtQtQtQtQt",
"QtQtQtQtQtQtQtQtQtQtQtQtQtQtQtQtQtQtQtQtQtQtQtQtQt.l.s.s.r.u.F.F.u.o.s.s.u.v.FQtQtQtQtQtQtQtQtQtQtQtQtQtQtQtQtQtQtQtQtQtQtQtQtQt",
"QtQtQtQtQtQtQtQtQtQtQtQtQtQtQtQtQtQtQtQtQtQtQtQt.l.q.F.F.F.C.F.H.F.o.r.u.v.lQtQtQtQtQtQtQtQtQtQtQtQtQtQtQtQtQtQtQtQtQtQtQtQtQtQt",
"QtQtQtQtQtQtQtQtQtQtQtQtQtQtQtQtQtQtQtQtQtQtQtQt.l.q.F.C.G.G.C.I.F.o.v.v.l.lQtQtQtQtQtQtQtQtQtQtQtQtQtQtQtQtQtQtQtQtQtQtQtQtQtQt",
"QtQtQtQtQtQtQtQtQtQtQtQtQtQtQtQtQtQtQtQtQtQtQt.l.q.y.y.F.H.H.G.F.r.l.l.l.q.lQtQtQtQtQtQtQtQtQtQtQtQtQtQtQtQtQtQtQtQtQtQtQtQtQtQt",
"QtQtQtQtQtQtQtQtQtQtQtQtQtQtQtQtQtQtQtQtQtQtQt.l.q.y.y.y.F.F.F.q.r.l.l.q.y.lQtQtQtQtQtQtQtQtQtQtQtQtQtQtQtQtQtQtQtQtQtQtQtQtQtQt",
"QtQtQtQtQtQtQtQtQtQtQtQtQtQtQtQtQtQtQtQtQtQt.l.q.y.z.q.y.z.z.z.q.u.l.C.y.z.qQtQtQtQtQtQtQtQtQtQtQtQtQtQtQtQtQtQtQtQtQtQtQtQtQtQt",
"QtQtQtQtQtQtQtQtQtQtQtQtQtQtQtQtQtQtQtQtQt.l.l.y.z.y.q.z.z.E.z.y.u.l.q.z.z.qQtQtQtQtQtQtQtQtQtQtQtQtQtQtQtQtQtQtQtQtQtQtQtQtQtQt",
"QtQtQtQtQtQtQtQtQtQtQtQtQtQtQtQtQtQtQtQt.l.l.q.z.z.y.y.z.z.E.z.y.x.q.q.z.y.qQtQtQtQtQtQtQtQtQtQtQtQtQtQtQtQtQtQtQtQtQtQtQtQtQtQt",
"QtQtQtQtQtQtQtQtQtQtQtQtQtQtQtQtQtQtQt.o.l.C.y.z.y.y.z.z.E.E.z.y.x.q.q.y.q.qQtQtQtQtQtQtQtQtQtQtQtQtQtQtQtQtQtQtQtQtQtQtQtQtQtQt",
"QtQtQtQtQtQtQtQtQtQtQtQtQtQtQtQtQtQtQt.o.l.y.y.y.q.y.z.z.E.E.z.y.x.l.y.y.J.G.CQtQtQtQtQtQtQtQtQtQtQtQtQtQtQtQtQtQtQtQtQtQtQtQtQt",
"QtQtQtQtQtQtQtQtQtQtQtQtQtQtQtQtQtQtQt.o.v.y.y.q.q.z.z.E.E.E.z.u.u.G.l.I.G.I.CQtQtQtQtQtQtQtQtQtQtQtQtQtQtQtQtQtQtQtQtQtQtQtQtQt",
"QtQtQtQtQtQtQtQtQtQtQtQtQtQtQtQtQtQtQt.o.v.v.q.q.y.z.E.E.E.z.z.x.l.l.C.H.I.J.GQtQtQtQtQtQtQtQtQtQtQtQtQtQtQtQtQtQtQtQtQtQtQtQtQt",
"QtQtQtQtQtQtQtQtQtQtQtQtQtQtQtQtQtQtQt.o.v.v.v.q.y.y.z.z.z.z.y.x.G.G.C.C.H.I.CQtQtQtQtQtQtQtQtQtQtQtQtQtQtQtQtQtQtQtQtQtQtQtQtQt",
"QtQtQtQtQtQtQtQtQtQtQtQtQtQtQtQtQtQtQtQt.v.v.v.v.s.r.u.u.u.u.u.x.l.l.G.F.C.G.C.K.KQtQtQtQtQtQtQtQtQtQtQtQtQtQtQtQtQtQtQtQtQtQtQt",
"QtQtQtQtQtQtQtQtQtQtQtQtQtQtQtQtQt.K.K.K.o.v.v.v.v.s.s.r.r.r.r.x.C.q.l.q.F.C.L.M.N.O.K.K.KQtQtQtQtQtQtQtQtQtQtQtQtQtQtQtQtQtQtQt",
"QtQtQtQtQtQtQtQtQtQtQtQtQtQtQt.K.K.N.L.P.Q.o.v.v.v.s.s.r.r.r.r.x.C.C.C.G.C.R.S.T.U.Q.P.L.N.K.KQtQtQtQtQtQtQtQtQtQtQtQtQtQtQtQtQt",
"QtQtQtQtQtQtQtQtQtQtQtQtQtQt.K.N.V.W.X.Y.Z.0.o.o.v.v.s.s.r.r.r.u.l.C.G.H.I.1.2.3.4.5.Y.X.W.V.N.KQtQtQtQtQtQtQtQtQtQtQtQtQtQtQtQt",
"QtQtQtQtQtQtQtQtQtQtQtQtQt.K.M.6.7.8.9#.###a#b#c.l.F.o.o.o.o.o.o.l.q.C.G.C.H#c#b#a###..9.8#d.6.M.KQtQtQtQtQtQtQtQtQtQtQtQtQtQtQt",
"QtQtQtQtQtQtQtQtQtQtQtQt.K.N#e#f#g#h#i#j#k#l#m#n.F.F.F.F.F.F.F.C.l.C.G.H.I.H.C.C#l#k#j#i#h#g#f#e.N.KQtQtQtQtQtQtQtQtQtQtQtQtQtQt",
"QtQtQtQtQtQtQtQtQtQtQtQt.K#o#p#q#r#s#l#t#u#v#v#v.l.F.F.F.C.C.C.C.l.C.G.C.C.C.C.C.G#u#t#l#s#r#q#p#o.KQtQtQtQtQtQtQtQtQtQtQtQtQtQt",
"QtQtQtQtQtQtQtQtQtQtQtQt.K#o#w#q#r#j#l#t#u#v#v#v#v#v.l.F.F.F.F.C.l.C.v.G.G.H.H.I.G#u#t#l#j#r#x#w#o.KQtQtQtQtQtQtQtQtQtQtQtQtQtQt",
"QtQtQtQtQtQtQtQtQtQtQtQt.K#y#e#f#g#h#i#j#k#l#m#n#t#z#z#u.l.l.F.l.o.C.C.C.o.l.H.G.G#k#j#i#h#g#f#e#y.KQtQtQtQtQtQtQtQtQtQtQtQtQtQt",
"QtQtQtQtQtQtQtQtQtQtQtQtQt.K.M#A#d#B#g#C###a#b#c#D#E#F#G#H#I#I#I.l.l.l.l.l.o.C.C.C###C#g#B#d#A.M.KQtQtQtQtQtQtQtQtQtQtQtQtQtQtQt",
"QtQtQtQtQtQtQtQtQtQtQtQtQtQt.K#y.P.W.X.Y.5.4.3.2.1#J#K#h#L#r#M#M#r#L#h#K#J.1.2.3.4.5.Y.X.W.P#y.KQtQtQtQtQtQtQtQtQtQtQtQtQtQtQtQt",
"QtQtQtQtQtQtQtQtQtQtQtQtQtQtQt.K.K.N.L.P.Q.U.T.S.R#N#O#P#Q#R.Z.Z#R#Q#P#O#N.R.S.T.U#e.P.L.N.K.KQtQtQtQtQtQtQtQtQtQtQtQtQtQtQtQtQt",
"QtQtQtQtQtQtQtQtQtQtQtQtQtQtQtQtQt.K.K.K.O.N.M.L#S.P#T#U#U#U#V#V#U#U#U#T.P#S.L.M.N.O.K.K.KQtQtQtQtQtQtQtQtQtQtQtQtQtQtQtQtQtQtQt",
"QtQtQtQtQtQtQtQtQtQtQtQtQtQtQtQtQtQtQtQtQt.K.K.K.K.K.K.K.K.K.K.K.K.K.K.K.K.K.K.K.KQtQtQtQtQtQtQtQtQtQtQtQtQtQtQtQtQtQtQtQtQtQtQt",
"QtQtQtQtQtQtQtQtQtQtQtQtQtQtQtQtQtQtQtQtQtQtQtQtQtQtQtQtQtQtQtQtQtQtQtQtQtQtQtQtQtQtQtQtQtQtQtQtQtQtQtQtQtQtQtQtQtQtQtQtQtQtQtQt",
"QtQtQtQtQtQtQtQtQtQtQtQtQtQtQtQtQtQtQtQtQtQtQtQtQtQtQtQtQtQtQtQtQtQtQtQtQtQtQtQtQtQtQtQtQtQtQtQtQtQtQtQtQtQtQtQtQtQtQtQtQtQtQtQt"};
