/* XPM */
static char *dummy[]={
"64 64 128 2",
"Qt c None",
".Z c #000000",
"#8 c #000000",
".7 c #000000",
"#M c #000000",
"#f c #000000",
"#E c #000000",
".6 c #000000",
"#9 c #000000",
".8 c #000000",
"#V c #000000",
".W c #000000",
".X c #000000",
".Y c #000000",
"#3 c #000000",
"#t c #000000",
"#g c #000000",
"#P c #000000",
"#e c #000000",
"#4 c #000000",
"#F c #000000",
"#K c #000000",
"#5 c #000000",
"#d c #000000",
"#6 c #000000",
"#h c #000000",
"#s c #000000",
"#7 c #000000",
"#W c #000000",
".0 c #000000",
"#u c #000000",
".1 c #000000",
".2 c #000000",
".3 c #000000",
".4 c #000000",
".5 c #000000",
"#X c #000000",
"#i c #000000",
"#Q c #000000",
"#Y c #000000",
"#G c #000000",
"#L c #000000",
"#Z c #000000",
"#j c #000000",
"#v c #000000",
"#0 c #000000",
"#1 c #000000",
"#r c #000000",
"#R c #000000",
".9 c #000000",
"#. c #000000",
"## c #000000",
"#a c #000000",
"#2 c #000000",
"#b c #000000",
"#c c #000000",
"#S c #000000",
"#w c #000000",
"#T c #000000",
"#U c #000000",
"#k c #000000",
"#H c #000000",
"#x c #000000",
"#l c #000000",
"#m c #000000",
"#n c #000000",
"#y c #000000",
"#o c #000000",
"#p c #000000",
"#q c #000000",
"#I c #000000",
"#N c #000000",
"#O c #000000",
"#z c #000000",
"#A c #000000",
"#B c #000000",
"#C c #000000",
"#D c #000000",
"#J c #000000",
".s c #001111",
".r c #002b2b",
".C c #005e7f",
".B c #007faa",
".i c #080808",
".Q c #0f0e11",
".y c #1e424f",
".M c #212828",
".q c #260c0c",
".S c #26252c",
".T c #35353a",
".V c #35383f",
".U c #371812",
".u c #3d5358",
".d c #444448",
".H c #470000",
".n c #494482",
".p c #4a2121",
".P c #51545b",
".O c #535353",
".R c #562f1d",
".A c #637a82",
".a c #6d3300",
".z c #72472d",
".k c #7291ea",
".t c #750000",
".E c #797a7c",
".v c #838384",
".h c #84393a",
".F c #8e3314",
".D c #946c45",
".o c #96b2ff",
".# c #996314",
".I c #9e99a6",
".w c #adb2af",
".L c #af001c",
".K c #c09d7b",
".j c #c1bfbc",
".g c #c46555",
".J c #c65619",
".b c #d19e30",
".l c #e5f4ff",
".N c #ef0c23",
".G c #f78c6b",
".e c #f9edd6",
".c c #fcd670",
".x c #ff7084",
".f c #ffa893",
".m c #ffd8ce",
"QtQtQtQtQtQtQtQtQtQtQtQtQtQtQtQtQtQtQtQtQtQtQtQtQtQtQtQtQtQtQtQtQtQtQtQtQtQtQtQtQtQtQtQtQtQtQtQtQtQtQtQtQtQtQtQtQtQtQtQtQtQtQtQt",
"QtQtQtQtQtQtQtQtQtQtQtQtQtQtQtQtQtQtQtQtQtQtQtQtQtQtQtQtQtQtQtQtQtQtQtQtQtQtQtQtQtQtQtQtQtQtQtQtQtQtQtQtQtQtQtQtQtQtQtQtQtQtQtQt",
"QtQtQtQtQtQtQtQtQtQtQtQtQtQtQtQtQtQtQtQtQtQtQtQtQtQtQtQtQtQtQtQtQtQtQtQtQtQtQtQtQtQtQtQtQtQtQtQtQtQtQtQtQtQtQtQtQtQtQtQtQtQtQtQt",
"QtQtQtQtQtQtQtQtQtQtQtQtQtQtQtQtQtQtQtQtQtQtQtQtQtQtQtQtQtQtQtQtQtQtQtQtQtQtQtQtQtQtQtQtQtQtQtQtQtQtQtQtQtQtQtQtQtQtQtQtQtQtQtQt",
"QtQtQtQtQtQtQtQtQtQtQtQtQtQtQtQtQtQtQtQtQtQtQtQtQtQtQtQtQtQtQtQtQtQtQtQtQtQtQtQtQtQtQtQtQtQtQtQtQtQtQtQtQtQtQtQtQtQtQtQtQtQtQtQt",
"QtQtQtQtQtQtQtQtQtQtQtQtQtQtQtQtQtQtQtQtQtQtQtQtQtQtQtQtQtQtQtQtQtQtQtQtQtQtQtQtQtQtQtQtQtQtQtQtQtQtQtQtQtQtQtQtQtQtQtQtQtQtQtQt",
"QtQtQtQtQtQtQtQtQtQtQtQtQtQtQtQtQtQtQtQtQtQtQtQtQtQtQtQtQtQtQtQtQtQtQtQtQtQtQtQtQtQtQtQtQtQtQtQtQtQtQtQtQtQtQtQtQtQtQtQtQtQtQtQt",
"QtQtQtQtQtQtQtQtQtQtQtQtQtQtQtQtQtQtQtQtQtQtQtQtQtQtQtQtQtQtQtQtQtQtQtQtQtQtQtQtQtQtQtQtQtQtQtQtQtQtQtQtQtQtQtQtQtQtQtQtQtQtQtQt",
"QtQtQtQtQtQtQtQtQtQtQtQtQtQtQtQtQtQtQtQtQtQtQtQt.#.#.#.#QtQt.a.a.a.a.aQtQtQtQtQtQtQtQtQtQtQtQtQtQtQtQtQtQtQtQtQtQtQtQtQtQtQtQtQt",
"QtQtQtQtQtQtQtQtQtQtQtQtQtQtQtQtQtQtQtQtQtQtQt.#.a.a.a.#.a.#.#.#.#.#.#.#.aQtQtQtQtQtQtQtQtQtQtQtQtQtQtQtQtQtQtQtQtQtQtQtQtQtQtQt",
"QtQtQtQtQtQtQtQtQtQtQtQtQtQtQtQtQtQtQtQtQtQtQt.aQtQt.#.b.b.#.b.b.#.b.b.#.#.aQtQtQtQtQtQtQtQtQtQtQtQtQtQtQtQtQtQtQtQtQtQtQtQtQtQt",
"QtQtQtQtQtQtQtQtQtQtQtQtQtQtQtQtQtQtQtQtQtQtQtQtQt.#.b.c.c.b.c.c.b.#.b.b.#.#.aQtQtQtQtQtQtQtQtQtQtQtQtQtQtQtQtQtQtQtQtQtQtQtQtQt",
"QtQtQtQtQtQtQtQtQtQtQtQtQtQtQtQtQtQtQtQtQtQtQt.d.#.b.c.c.b.c.c.c.c.c.#.b.b.#.#.aQtQtQtQtQtQtQtQtQtQtQtQtQtQtQtQtQtQtQtQtQtQtQtQt",
"QtQtQtQtQtQtQtQtQtQtQtQtQtQtQtQtQtQtQtQtQtQtQt.#.b.#.b.c.e.c.c.e.b.c.c.b.b.a.#.aQtQtQtQtQtQtQtQtQtQtQtQtQtQtQtQtQtQtQtQtQtQtQtQt",
"QtQtQtQtQtQtQtQtQtQtQtQtQtQtQtQtQtQtQtQtQtQt.a.a.a.b.c.c.e.c.b.e.c.b.c.b.b.b.a.#.aQtQtQtQtQtQtQtQtQtQtQtQtQtQtQtQtQtQtQtQtQtQtQt",
"QtQtQtQtQtQtQtQtQtQtQtQtQtQtQtQtQtQtQtQtQtQtQtQt.b.c.e.c.e.e.#.b.e.c.c.c.#.b.#.a.aQtQtQtQtQtQtQtQtQtQtQtQtQtQtQtQtQtQtQtQtQtQtQt",
"QtQtQtQtQtQtQtQtQtQtQtQtQtQtQtQtQtQtQtQtQtQtQt.#.b.c.e.c.b.e.f.g.#.c.b.c.a.#.#.a.a.aQtQtQtQtQtQtQtQtQtQtQtQtQtQtQtQtQtQtQtQtQtQt",
"QtQtQtQtQtQtQtQtQtQtQtQtQtQtQtQtQtQtQtQtQtQt.#.b.#.c.e.b.#.c.h.i.i.j.#.c.#.a.#.#.aQtQtQtQtQtQtQtQtQtQtQtQtQtQtQtQtQtQtQtQtQtQtQt",
"QtQtQtQtQtQtQtQtQtQtQtQtQtQtQtQtQtQtQtQtQtQtQtQt.#.b.e.a.g.b.f.i.k.l.i.b.g.#.a.#.aQtQtQtQtQtQtQtQtQtQtQtQtQtQtQtQtQtQtQtQtQtQtQt",
"QtQtQtQtQtQtQtQtQtQtQtQtQtQtQtQtQtQtQtQtQtQtQtQtQt.b.c.a.f.f.m.n.o.f.p.b.g.#.aQt.aQtQtQtQtQtQtQtQtQtQtQtQtQtQtQtQtQtQtQtQtQtQtQt",
"QtQtQtQtQtQtQtQtQtQtQtQtQtQtQtQtQtQtQtQtQtQtQtQtQt.#.c.a.f.m.m.m.m.g.p.#.a.#.aQtQtQtQtQtQtQtQtQtQtQtQtQtQtQtQtQtQtQtQtQtQtQtQtQt",
"QtQtQtQtQtQtQtQtQtQtQtQtQtQtQtQtQtQtQtQtQtQtQtQtQtQt.b.a.g.m.m.m.f.h.p.a.a.aQtQtQtQtQtQtQtQtQtQtQtQtQtQtQtQtQtQtQtQtQtQtQtQtQtQt",
"QtQtQtQtQtQtQtQtQtQtQtQtQtQtQtQtQtQtQtQtQtQtQtQtQtQt.#.p.p.g.f.g.h.p.q.a.r.sQtQtQtQtQtQtQtQtQtQtQtQtQtQtQtQtQtQtQtQtQtQtQtQtQtQt",
"QtQtQtQtQtQtQtQtQtQtQtQtQtQtQtQtQtQtQtQtQtQtQtQtQtQtQt.t.r.u.p.p.p.q.r.s.s.sQtQtQtQtQtQtQtQtQtQtQtQtQtQtQtQtQtQtQtQtQtQtQtQtQtQt",
"QtQtQtQtQtQtQtQtQtQtQtQtQtQtQtQtQtQtQtQtQtQtQtQtQtQtQt.s.v.w.w.x.r.y.y.r.s.s.sQtQtQtQtQtQtQtQtQtQtQtQtQtQtQtQtQtQtQtQtQtQtQtQtQt",
"QtQtQtQtQtQtQtQtQtQtQtQtQtQtQtQtQtQtQtQtQtQtQtQtQtQt.s.u.r.r.u.r.u.u.u.y.r.s.sQtQtQtQtQtQtQtQtQtQtQtQtQtQtQtQtQtQtQtQtQtQtQtQtQt",
"QtQtQtQtQtQtQtQtQtQtQtQtQtQtQtQtQtQtQtQtQtQtQtQtQtQt.z.r.r.u.A.r.u.B.C.r.r.s.sQtQtQtQtQtQtQtQtQtQtQtQtQtQtQtQtQtQtQtQtQtQtQtQtQt",
"QtQtQtQtQtQtQtQtQtQtQtQtQtQtQtQtQtQtQtQtQtQtQtQtQtQt.s.r.z.D.z.r.u.u.r.r.r.sQtQtQtQtQtQtQtQtQtQtQtQtQtQtQtQtQtQtQtQtQtQtQtQtQtQt",
"QtQtQtQtQtQtQtQtQtQtQtQtQtQtQtQtQtQtQtQtQtQtQtQtQtQt.z.r.r.u.y.r.r.r.z.r.r.sQtQtQtQtQtQtQtQtQtQtQtQtQtQtQtQtQtQtQtQtQtQtQtQtQtQt",
"QtQtQtQtQtQtQtQtQtQtQtQtQtQtQtQtQtQtQtQtQtQtQtQtQtQt.s.y.z.D.z.r.u.r.z.y.r.sQtQtQtQtQtQtQtQtQtQtQtQtQtQtQtQtQtQtQtQtQtQtQtQtQtQt",
"QtQtQtQtQtQtQtQtQtQtQtQtQtQtQtQtQtQtQtQtQtQtQtQtQtQtQt.s.s.s.y.r.r.r.r.r.r.E.dQtQtQtQtQtQtQtQtQtQtQtQtQtQtQtQtQtQtQtQtQtQtQtQtQt",
"QtQtQtQtQtQtQtQtQtQtQtQtQtQtQtQtQtQtQtQtQtQtQtQtQtQtQt.r.u.F.s.h.g.G.g.h.H.I.dQtQtQtQtQtQtQtQtQtQtQtQtQtQtQtQtQtQtQtQtQtQtQtQtQt",
"QtQtQtQtQtQtQtQtQtQtQtQtQtQtQtQtQtQtQtQtQtQtQtQtQtQtQt.J.J.r.H.h.G.f.G.h.H.I.I.dQtQtQtQtQtQtQtQtQtQtQtQtQtQtQtQtQtQtQtQtQtQtQtQt",
"QtQtQtQtQtQtQtQtQtQtQtQtQtQtQtQtQtQtQtQtQtQtQtQtQtQtQt.r.y.H.t.r.u.A.g.h.H.H.I.d.tQtQtQtQtQtQtQtQtQtQtQtQtQtQtQtQtQtQtQtQtQtQtQt",
"QtQtQtQtQtQtQtQtQtQtQtQtQtQtQtQtQtQtQtQtQtQtQtQtQtQt.r.u.u.H.r.D.K.D.u.z.H.H.I.I.d.H.tQtQtQtQtQtQtQtQtQtQtQtQtQtQtQtQtQtQtQtQtQt",
"QtQtQtQtQtQtQtQtQtQtQtQtQtQtQtQtQtQtQtQtQtQtQtQtQtQt.z.r.G.h.u.A.u.D.r.z.t.H.I.I.I.H.H.LQtQtQtQtQtQtQtQtQtQtQtQtQtQtQtQtQtQtQtQt",
"QtQtQtQtQtQtQtQtQtQtQtQtQtQtQtQtQtQtQtQtQtQtQtQtQt.r.z.f.f.g.h.p.A.u.z.t.t.t.H.d.I.E.d.tQtQtQtQtQtQtQtQtQtQtQtQtQtQtQtQtQtQtQtQt",
"QtQtQtQtQtQtQtQtQtQtQtQtQtQtQtQtQtQtQtQtQtQtQtQtQt.D.r.g.g.h.h.h.p.r.H.t.t.t.H.i.d.I.E.H.LQtQtQtQtQtQtQtQtQtQtQtQtQtQtQtQtQtQtQt",
"QtQtQtQtQtQtQtQtQtQtQtQtQtQtQtQtQtQtQtQtQtQtQtQt.s.r.D.G.G.g.h.h.p.z.H.t.t.t.t.H.i.I.I.d.tQtQtQtQtQtQtQtQtQtQtQtQtQtQtQtQtQtQtQt",
"QtQtQtQtQtQtQtQtQtQtQtQtQtQtQtQtQtQtQtQtQtQtQtQt.s.s.M.g.g.h.h.h.p.t.H.H.t.t.t.H.i.E.I.d.H.LQtQtQtQtQtQtQtQtQtQtQtQtQtQtQtQtQtQt",
"QtQtQtQtQtQtQtQtQtQtQtQtQtQtQtQtQtQtQtQtQtQtQtQtQt.M.M.m.G.g.h.p.t.t.H.t.t.t.t.H.i.d.I.d.H.t.H.H.HQtQtQtQtQtQtQtQtQtQtQtQtQtQtQt",
"QtQtQtQtQtQtQtQtQtQtQtQtQtQtQtQtQtQtQtQtQtQtQtQt.M.M.M.N.H.H.H.L.t.t.H.H.t.t.t.t.H.d.E.d.H.H.w.H.H.H.H.H.O.P.OQtQtQtQtQtQtQtQtQt",
"QtQtQtQtQtQtQtQtQtQtQtQtQtQtQtQtQtQtQtQtQtQtQtQt.M.M.M.N.N.L.L.L.t.t.H.H.H.t.t.t.H.d.E.d.HQt.v.w.H.H.H.O.P.OQtQtQtQtQtQtQtQtQtQt",
"QtQtQtQtQtQtQtQtQtQtQtQtQtQtQtQtQtQtQtQtQtQtQtQt.Q.M.L.N.N.L.L.L.L.t.t.H.H.t.t.H.M.M.E.d.H.M.v.wQtQt.O.O.OQtQtQtQtQtQtQtQtQtQtQt",
"QtQtQtQtQtQtQtQtQtQtQtQtQtQtQtQtQtQtQtQtQtQtQtQt.Q.Q.L.N.N.L.L.L.L.t.t.H.H.t.t.M.O.M.E.dQt.O.O.vQtQtQtQtQtQtQtQtQtQtQtQtQtQtQtQt",
"QtQtQtQtQtQtQtQtQtQtQtQtQtQtQtQtQtQtQtQtQtQtQt.Q.R.w.w.w.L.L.L.L.L.t.E.O.M.O.M.M.M.M.M.dQtQtQtQtQtQtQtQtQtQtQtQtQtQtQtQtQtQtQtQt",
"QtQtQtQtQtQtQtQtQtQtQtQtQtQtQtQtQtQtQtQtQtQtQt.Q.S.M.M.M.E.w.w.w.E.E.M.M.M.M.O.O.O.M.M.dQtQtQtQtQtQtQtQtQtQtQtQtQtQtQtQtQtQtQtQt",
"QtQtQtQtQtQtQtQtQtQtQtQtQtQtQtQtQtQtQtQtQtQt.Q.R.R.w.w.w.M.M.M.M.M.M.O.O.O.O.M.M.MQtQt.iQtQtQtQtQtQtQtQtQtQtQtQtQtQtQtQtQtQtQtQt",
"QtQtQtQtQtQtQtQtQtQtQtQtQtQtQtQtQtQtQt.T.T.Q.R.S.S.R.U.Q.E.E.E.O.O.O.S.M.M.S.M.z.Q.QQtQtQtQtQtQtQtQtQtQtQtQtQtQtQtQtQtQtQtQtQtQt",
"QtQtQtQtQtQtQtQtQtQtQtQtQtQtQtQtQtQt.T.P.V.T.Q.R.S.Q.Q.W.X.X.X.Y.Y.X.X.i.S.S.z.S.S.Q.Q.Z.Z.ZQtQtQtQtQtQtQtQtQtQtQtQtQtQtQtQtQtQt",
"QtQtQtQtQtQtQtQtQtQtQtQtQtQtQtQt.Z.Q.S.T.T.T.S.S.R.U.0.1.2.3.4.5.5.4.3.2.1.S.T.T.S.S.Q.Q.6.7.Z.ZQtQtQtQtQtQtQtQtQtQtQtQtQtQtQtQt",
"QtQtQtQtQtQtQtQtQtQtQtQtQtQtQt.Z.7.8.i.Q.S.T.S.S.Q.Q.9#.###a#b#c#c#b#a##.S.Q.T.P.T.S.S.Q#d#e.8.7.ZQtQtQtQtQtQtQtQtQtQtQtQtQtQtQt",
"QtQtQtQtQtQtQtQtQtQtQtQtQtQt.Z#f#g#h#i#j.i.Q.S.Q.i#k#l#m#n#o#p#q#q#p#o.T.T.E.P.P.T.T.Q#r#j#i#s#g#f.ZQtQtQtQtQtQtQtQtQtQtQtQtQtQt",
"QtQtQtQtQtQtQtQtQtQtQtQtQt.Z.7#t#u#v###w#x#y.i.Q.i#z#A#A#B#C#C#D#D#C#C.S.E.P.P.T.T.Q#y#x#w###v#u#t.7.ZQtQtQtQtQtQtQtQtQtQtQtQtQt",
"QtQtQtQtQtQtQtQtQtQtQtQtQt.Z#E#F#G#b#H#I#z#B#D#D#D#D#D#J#J#J#J#J#J#J#J.S.E.E.P.Q.i#D#B#z#I#H#b#G#F#E.ZQtQtQtQtQtQtQtQtQtQtQtQtQt",
"QtQtQtQtQtQtQtQtQtQtQtQtQt.Z#E#K#G#b#x#I#z#B#D#D#D#D#D#J#J#J#J#J#J#J#J.i.Q.Q.i#D#D#D#B#z#I#x#b#L#K#E.ZQtQtQtQtQtQtQtQtQtQtQtQtQt",
"QtQtQtQtQtQtQtQtQtQtQtQtQt.Z#M#t#u#v###w#x#y#I#N#O#z#A#A#B#C#C#D#D#C#C#B#A#A#z#O#N#I#y#x#w###v#u#t#M.ZQtQtQtQtQtQtQtQtQtQtQtQtQt",
"QtQtQtQtQtQtQtQtQtQtQtQtQtQt.Z#f#P#s#Q#v#R#a#S#T#U#k#l#m#n#o#q#q#q#q#o#n#m#l#k#U#T#S#a#R#v#Q#s#P#f.ZQtQtQtQtQtQtQtQtQtQtQtQtQtQt",
"QtQtQtQtQtQtQtQtQtQtQtQtQtQtQt.Z#M#V#e#d#W#X#Y#Z#0#1.9#.###2#b#c#c#b#2###..9#1#0#Z#Y#X#W#d#e#V#M.ZQtQtQtQtQtQtQtQtQtQtQtQtQtQtQt",
"QtQtQtQtQtQtQtQtQtQtQtQtQtQtQtQt.Z.Z.7.6#V#3#4#5#6#7.0.1.2.3.4.5.5.4.3.2.1.0#7#6#5#4#t#V.6.7.Z.ZQtQtQtQtQtQtQtQtQtQtQtQtQtQtQtQt",
"QtQtQtQtQtQtQtQtQtQtQtQtQtQtQtQtQtQt.Z.Z.Z#8.7#f.6#9#V.W.X.X.X.Y.Y.X.X.X.W#V#9.6#f.7#8.Z.Z.ZQtQtQtQtQtQtQtQtQtQtQtQtQtQtQtQtQtQt",
"QtQtQtQtQtQtQtQtQtQtQtQtQtQtQtQtQtQtQtQtQtQt.Z.Z.Z.Z.Z.Z.Z.Z.Z.Z.Z.Z.Z.Z.Z.Z.Z.Z.Z.ZQtQtQtQtQtQtQtQtQtQtQtQtQtQtQtQtQtQtQtQtQtQt",
"QtQtQtQtQtQtQtQtQtQtQtQtQtQtQtQtQtQtQtQtQtQtQtQtQtQtQtQtQtQtQtQtQtQtQtQtQtQtQtQtQtQtQtQtQtQtQtQtQtQtQtQtQtQtQtQtQtQtQtQtQtQtQtQt",
"QtQtQtQtQtQtQtQtQtQtQtQtQtQtQtQtQtQtQtQtQtQtQtQtQtQtQtQtQtQtQtQtQtQtQtQtQtQtQtQtQtQtQtQtQtQtQtQtQtQtQtQtQtQtQtQtQtQtQtQtQtQtQtQt"};
