/* XPM */
static char *dummy[]={
"64 64 129 2",
"Qt c None",
".W c #000000",
".X c #000000",
".Y c #000000",
"#P c #000000",
".Z c #000000",
"#F c #000000",
".0 c #000000",
".1 c #000000",
"#. c #000000",
".2 c #000000",
"#8 c #000000",
"#9 c #000000",
"a. c #000000",
".3 c #000000",
"#u c #000000",
"#k c #000000",
"#S c #000000",
"## c #000000",
".4 c #000000",
"#G c #000000",
"#N c #000000",
".5 c #000000",
"#a c #000000",
".6 c #000000",
"#l c #000000",
"#t c #000000",
".7 c #000000",
"#b c #000000",
".8 c #000000",
"#v c #000000",
"#4 c #000000",
"#5 c #000000",
"#6 c #000000",
"#7 c #000000",
"#c c #000000",
"#j c #000000",
"#m c #000000",
"#T c #000000",
"#d c #000000",
"#i c #000000",
"#H c #000000",
"#O c #000000",
"#e c #000000",
"#n c #000000",
"#w c #000000",
"#f c #000000",
"#g c #000000",
"#o c #000000",
"#U c #000000",
"#h c #000000",
"#1 c #000000",
"#x c #000000",
"#p c #000000",
"#2 c #000000",
"#I c #000000",
"#3 c #000000",
"#q c #000000",
"#y c #000000",
"#r c #000000",
"#s c #000000",
"#V c #000000",
"#J c #000000",
"#z c #000000",
"#W c #000000",
"#X c #000000",
"#Y c #000000",
"#A c #000000",
"#Z c #000000",
"#0 c #000000",
"#B c #000000",
"#C c #000000",
"#E c #000000",
"#D c #000000",
"#Q c #000000",
"#K c #000000",
"#R c #000000",
"#L c #000000",
"#M c #000000",
".r c #001111",
".q c #002b2b",
".z c #005e7f",
".C c #007faa",
".h c #080808",
".V c #0f0e11",
".y c #1e424f",
".O c #212828",
".p c #260c0c",
".P c #26252c",
".9 c #35353a",
".Q c #35383f",
".T c #371812",
".t c #3d5358",
".L c #444448",
".G c #470000",
".m c #494482",
".o c #4a2121",
".S c #51545b",
".R c #535353",
".U c #562f1d",
".B c #637a82",
".a c #6d3300",
".A c #72472d",
".j c #7291ea",
".s c #750000",
".N c #797a7c",
".u c #838384",
".g c #84393a",
".x c #871e38",
".F c #8e3314",
".D c #946c45",
".n c #96b2ff",
".# c #996314",
".M c #9e99a6",
".v c #adb2af",
".J c #af001c",
".I c #c09d7b",
".i c #c1bfbc",
".f c #c46555",
".H c #c65619",
".b c #d19e30",
".k c #e5f4ff",
".K c #ef0c23",
".E c #f78c6b",
".d c #f9edd6",
".c c #fcd670",
".w c #ff7084",
".e c #ffa893",
".l c #ffd8ce",
"QtQtQtQtQtQtQtQtQtQtQtQtQtQtQtQtQtQtQtQtQtQtQtQtQtQtQtQtQtQtQtQtQtQtQtQtQtQtQtQtQtQtQtQtQtQtQtQtQtQtQtQtQtQtQtQtQtQtQtQtQtQtQtQt",
"QtQtQtQtQtQtQtQtQtQtQtQtQtQtQtQtQtQtQtQtQtQtQtQtQtQtQtQtQtQtQtQtQtQtQtQtQtQtQtQtQtQtQtQtQtQtQtQtQtQtQtQtQtQtQtQtQtQtQtQtQtQtQtQt",
"QtQtQtQtQtQtQtQtQtQtQtQtQtQtQtQtQtQtQtQtQtQtQtQtQtQtQtQtQtQtQtQtQtQtQtQtQtQtQtQtQtQtQtQtQtQtQtQtQtQtQtQtQtQtQtQtQtQtQtQtQtQtQtQt",
"QtQtQtQtQtQtQtQtQtQtQtQtQtQtQtQtQtQtQtQtQtQtQtQtQtQtQtQtQtQtQtQtQtQtQtQtQtQtQtQtQtQtQtQtQtQtQtQtQtQtQtQtQtQtQtQtQtQtQtQtQtQtQtQt",
"QtQtQtQtQtQtQtQtQtQtQtQtQtQtQtQtQtQtQtQtQtQtQtQtQtQtQtQtQtQtQtQtQtQtQtQtQtQtQtQtQtQtQtQtQtQtQtQtQtQtQtQtQtQtQtQtQtQtQtQtQtQtQtQt",
"QtQtQtQtQtQtQtQtQtQtQtQtQtQtQtQtQtQtQtQtQtQtQtQtQtQtQtQtQtQtQtQtQtQtQtQtQtQtQtQtQtQtQtQtQtQtQtQtQtQtQtQtQtQtQtQtQtQtQtQtQtQtQtQt",
"QtQtQtQtQtQtQtQtQtQtQtQtQtQtQtQtQtQtQtQtQtQtQtQtQtQtQtQtQtQtQtQtQtQtQtQtQtQtQtQtQtQtQtQtQtQtQtQtQtQtQtQtQtQtQtQtQtQtQtQtQtQtQtQt",
"QtQtQtQtQtQtQtQtQtQtQtQtQtQtQtQtQtQtQtQtQtQtQtQt.#.#.#.#QtQt.a.a.a.a.aQtQtQtQtQtQtQtQtQtQtQtQtQtQtQtQtQtQtQtQtQtQtQtQtQtQtQtQtQt",
"QtQtQtQtQtQtQtQtQtQtQtQtQtQtQtQtQtQtQtQtQtQtQt.#.a.a.a.#.a.#.#.#.#.#.#.#.aQtQtQtQtQtQtQtQtQtQtQtQtQtQtQtQtQtQtQtQtQtQtQtQtQtQtQt",
"QtQtQtQtQtQtQtQtQtQtQtQtQtQtQtQtQtQtQtQtQtQtQt.aQtQt.#.b.b.#.b.b.#.b.b.#.#.aQtQtQtQtQtQtQtQtQtQtQtQtQtQtQtQtQtQtQtQtQtQtQtQtQtQt",
"QtQtQtQtQtQtQtQtQtQtQtQtQtQtQtQtQtQtQtQtQtQtQtQtQt.#.b.c.c.b.c.c.b.#.b.b.#.#.aQtQtQtQtQtQtQtQtQtQtQtQtQtQtQtQtQtQtQtQtQtQtQtQtQt",
"QtQtQtQtQtQtQtQtQtQtQtQtQtQtQtQtQtQtQtQtQtQtQtQt.#.b.c.c.b.c.c.c.c.c.#.b.b.#.#.aQtQtQtQtQtQtQtQtQtQtQtQtQtQtQtQtQtQtQtQtQtQtQtQt",
"QtQtQtQtQtQtQtQtQtQtQtQtQtQtQtQtQtQtQtQtQtQtQt.#.b.#.b.c.d.c.c.d.b.c.c.b.b.a.#.aQtQtQtQtQtQtQtQtQtQtQtQtQtQtQtQtQtQtQtQtQtQtQtQt",
"QtQtQtQtQtQtQtQtQtQtQtQtQtQtQtQtQtQtQtQtQtQt.a.a.a.b.c.c.d.c.b.d.c.b.c.b.b.b.a.#.aQtQtQtQtQtQtQtQtQtQtQtQtQtQtQtQtQtQtQtQtQtQtQt",
"QtQtQtQtQtQtQtQtQtQtQtQtQtQtQtQtQtQtQtQtQtQtQtQt.b.c.d.c.d.d.#.b.d.c.c.c.#.b.#.a.aQtQtQtQtQtQtQtQtQtQtQtQtQtQtQtQtQtQtQtQtQtQtQt",
"QtQtQtQtQtQtQtQtQtQtQtQtQtQtQtQtQtQtQtQtQtQtQt.#.b.c.d.c.b.d.e.f.#.c.b.c.a.#.#.a.a.aQtQtQtQtQtQtQtQtQtQtQtQtQtQtQtQtQtQtQtQtQtQt",
"QtQtQtQtQtQtQtQtQtQtQtQtQtQtQtQtQtQtQtQtQtQt.#.b.#.c.d.b.#.c.g.h.h.i.#.c.#.a.#.#.aQtQtQtQtQtQtQtQtQtQtQtQtQtQtQtQtQtQtQtQtQtQtQt",
"QtQtQtQtQtQtQtQtQtQtQtQtQtQtQtQtQtQtQtQtQtQtQtQt.#.b.d.a.f.b.e.h.j.k.h.b.f.#.a.#.aQtQtQtQtQtQtQtQtQtQtQtQtQtQtQtQtQtQtQtQtQtQtQt",
"QtQtQtQtQtQtQtQtQtQtQtQtQtQtQtQtQtQtQtQtQtQtQtQtQt.b.c.a.e.e.l.m.n.e.o.b.f.#.aQt.aQtQtQtQtQtQtQtQtQtQtQtQtQtQtQtQtQtQtQtQtQtQtQt",
"QtQtQtQtQtQtQtQtQtQtQtQtQtQtQtQtQtQtQtQtQtQtQtQtQt.#.c.a.e.l.l.l.l.f.o.#.a.#.aQtQtQtQtQtQtQtQtQtQtQtQtQtQtQtQtQtQtQtQtQtQtQtQtQt",
"QtQtQtQtQtQtQtQtQtQtQtQtQtQtQtQtQtQtQtQtQtQtQtQtQtQt.b.a.f.l.l.l.e.g.o.a.a.aQtQtQtQtQtQtQtQtQtQtQtQtQtQtQtQtQtQtQtQtQtQtQtQtQtQt",
"QtQtQtQtQtQtQtQtQtQtQtQtQtQtQtQtQtQtQtQtQtQtQtQtQtQt.#.o.o.f.e.f.g.o.p.a.q.rQtQtQtQtQtQtQtQtQtQtQtQtQtQtQtQtQtQtQtQtQtQtQtQtQtQt",
"QtQtQtQtQtQtQtQtQtQtQtQtQtQtQtQtQtQtQtQtQtQtQtQtQtQtQt.s.q.t.o.o.o.p.q.q.r.r.rQtQtQtQtQtQtQtQtQtQtQtQtQtQtQtQtQtQtQtQtQtQtQtQtQt",
"QtQtQtQtQtQtQtQtQtQtQtQtQtQtQtQtQtQtQtQtQtQtQtQtQtQtQt.r.u.v.v.w.x.y.t.q.q.r.rQtQtQtQtQtQtQtQtQtQtQtQtQtQtQtQtQtQtQtQtQtQtQtQtQt",
"QtQtQtQtQtQtQtQtQtQtQtQtQtQtQtQtQtQtQtQtQtQtQtQtQtQt.r.t.q.q.t.q.q.y.t.q.z.q.rQtQtQtQtQtQtQtQtQtQtQtQtQtQtQtQtQtQtQtQtQtQtQtQtQt",
"QtQtQtQtQtQtQtQtQtQtQtQtQtQtQtQtQtQtQtQtQtQtQtQtQtQt.r.A.q.t.B.C.q.q.t.C.q.q.qQtQtQtQtQtQtQtQtQtQtQtQtQtQtQtQtQtQtQtQtQtQtQtQtQt",
"QtQtQtQtQtQtQtQtQtQtQtQtQtQtQtQtQtQtQtQtQtQtQtQtQtQt.r.y.q.D.A.t.q.t.q.t.y.y.qQtQtQtQtQtQtQtQtQtQtQtQtQtQtQtQtQtQtQtQtQtQtQtQtQt",
"QtQtQtQtQtQtQtQtQtQtQtQtQtQtQtQtQtQtQtQtQtQtQtQtQtQt.r.A.q.t.y.y.q.r.q.t.t.A.y.qQtQtQtQtQtQtQtQtQtQtQtQtQtQtQtQtQtQtQtQtQtQtQtQt",
"QtQtQtQtQtQtQtQtQtQtQtQtQtQtQtQtQtQtQtQtQtQtQtQtQtQt.r.y.q.D.A.y.q.r.q.y.y.q.q.gQtQtQtQtQtQtQtQtQtQtQtQtQtQtQtQtQtQtQtQtQtQtQtQt",
"QtQtQtQtQtQtQtQtQtQtQtQtQtQtQtQtQtQtQtQtQtQtQtQtQtQtQt.r.r.r.y.q.q.q.q.q.g.E.f.gQtQtQtQtQtQtQtQtQtQtQtQtQtQtQtQtQtQtQtQtQtQtQtQt",
"QtQtQtQtQtQtQtQtQtQtQtQtQtQtQtQtQtQtQtQtQtQtQtQtQtQtQt.q.t.F.r.r.r.r.G.g.E.l.E.f.gQtQtQtQtQtQtQtQtQtQtQtQtQtQtQtQtQtQtQtQtQtQtQt",
"QtQtQtQtQtQtQtQtQtQtQtQtQtQtQtQtQtQtQtQtQtQtQtQtQtQtQt.H.H.q.G.G.G.s.s.g.D.I.I.D.gQtQtQtQtQtQtQtQtQtQtQtQtQtQtQtQtQtQtQtQtQtQtQt",
"QtQtQtQtQtQtQtQtQtQtQtQtQtQtQtQtQtQtQtQtQtQtQtQtQtQt.A.q.y.q.s.J.J.K.K.J.q.t.B.D.DQtQtQtQtQtQtQtQtQtQtQtQtQtQtQtQtQtQtQtQtQtQtQt",
"QtQtQtQtQtQtQtQtQtQtQtQtQtQtQtQtQtQtQtQtQtQtQtQtQtQt.q.t.t.q.G.G.G.G.G.G.D.I.I.B.A.LQtQtQtQtQtQtQtQtQtQtQtQtQtQtQtQtQtQtQtQtQtQt",
"QtQtQtQtQtQtQtQtQtQtQtQtQtQtQtQtQtQtQtQtQtQtQtQtQt.g.q.A.q.q.y.s.s.G.G.E.f.t.B.D.q.M.s.JQtQtQtQtQtQtQtQtQtQtQtQtQtQtQtQtQtQtQtQt",
"QtQtQtQtQtQtQtQtQtQtQtQtQtQtQtQtQtQtQtQtQtQtQtQt.g.q.A.D.r.q.A.s.J.G.E.g.g.D.I.t.L.M.N.L.J.GQtQtQtQtQtQtQtQtQtQtQtQtQtQtQtQtQtQt",
"QtQtQtQtQtQtQtQtQtQtQtQtQtQtQtQtQtQtQtQtQtQtQt.g.f.q.D.r.r.D.A.s.J.G.g.l.E.f.g.A.h.L.M.N.s.J.K.GQtQtQtQtQtQtQtQtQtQtQtQtQtQtQtQt",
"QtQtQtQtQtQtQtQtQtQtQtQtQtQtQtQtQtQtQtQtQtQtQt.g.f.q.r.O.r.D.q.s.J.s.g.f.E.g.g.o.G.h.M.M.L.G.J.J.v.vQtQtQtQtQtQtQtQtQtQtQtQtQtQt",
"QtQtQtQtQtQtQtQtQtQtQtQtQtQtQtQtQtQtQtQtQtQtQtQt.g.r.r.P.O.r.r.s.K.J.E.l.E.g.g.o.s.G.N.M.L.G.G.G.s.v.vQtQtQtQtQtQtQtQtQtQtQtQtQt",
"QtQtQtQtQtQtQtQtQtQtQtQtQtQtQtQtQtQtQtQtQtQtQtQtQt.s.G.O.Q.Q.O.O.K.J.E.l.E.g.o.s.s.s.G.M.LQt.G.O.O.G.vQtQtQtQtQtQtQtQtQtQtQtQtQt",
"QtQtQtQtQtQtQtQtQtQtQtQtQtQtQtQtQtQtQtQtQtQtQtQtQt.s.G.O.R.R.Q.Q.K.K.J.G.G.G.G.s.s.s.G.G.LQtQt.G.G.u.u.vQtQtQtQtQtQtQtQtQtQtQtQt",
"QtQtQtQtQtQtQtQtQtQtQtQtQtQtQtQtQtQtQtQtQtQtQtQt.s.J.G.R.u.u.Q.Q.J.K.K.J.J.s.s.s.s.s.G.O.LQtQtQtQt.G.G.RQtQtQtQtQtQtQtQtQtQtQtQt",
"QtQtQtQtQtQtQtQtQtQtQtQtQtQtQtQtQtQtQtQtQtQtQtQt.s.J.G.R.v.v.u.Q.J.K.K.J.J.J.s.s.G.G.R.O.OQtQtQtQt.R.S.RQtQtQtQtQtQtQtQtQtQtQtQt",
"QtQtQtQtQtQtQtQtQtQtQtQtQtQtQtQtQtQtQtQtQtQtQtQt.O.s.R.u.v.v.u.R.J.K.K.K.J.J.s.R.N.R.O.R.OQtQtQtQtQt.R.RQtQtQtQtQtQtQtQtQtQtQtQt",
"QtQtQtQtQtQtQtQtQtQtQtQtQtQtQtQtQtQtQtQtQtQtQtQt.R.N.S.u.u.u.R.R.O.K.K.K.R.R.v.O.O.O.R.O.LQtQtQtQtQtQt.R.RQtQtQtQtQtQtQtQtQtQtQt",
"QtQtQtQtQtQtQtQtQtQtQtQtQtQtQtQtQtQtQtQtQtQtQtQt.O.O.P.S.u.u.R.Q.O.R.R.v.v.O.O.N.R.O.O.h.LQtQtQtQtQtQtQt.RQtQtQtQtQtQtQtQtQtQtQt",
"QtQtQtQtQtQtQtQtQtQtQtQtQtQtQtQtQtQtQtQtQtQtQtQt.N.vQt.D.P.P.P.P.T.v.v.O.O.N.N.O.OQtQtQt.hQtQtQtQtQtQtQtQtQtQtQtQtQtQtQtQtQtQtQt",
"QtQtQtQtQtQtQtQtQtQtQtQtQtQtQtQtQtQtQtQtQtQtQtQtQtQtQt.P.D.A.U.T.V.O.O.N.N.O.PQtQtQtQtQtQtQtQtQtQtQtQtQtQtQtQtQtQtQtQtQtQtQtQtQt",
"QtQtQtQtQtQtQtQtQtQtQtQtQtQtQtQtQtQtQtQtQtQt.W.W.W.W.W.D.P.P.P.V.T.N.N.P.O.V.W.W.W.WQtQtQtQtQtQtQtQtQtQtQtQtQtQtQtQtQtQtQtQtQtQt",
"QtQtQtQtQtQtQtQtQtQtQtQtQtQtQtQtQtQt.W.W.W.X.Y.Z.0.1.2.V.D.A.U.T.V.V.V.V.V.T.T.0.Z.Y.X.W.W.WQtQtQtQtQtQtQtQtQtQtQtQtQtQtQtQtQtQt",
"QtQtQtQtQtQtQtQtQtQtQtQtQtQtQtQt.W.W.Y.0.2.3.4.5.6.7.8.V.S.9.P.V.V.V.V.U.U.P.P.V.5.4.3.2.0.Y.W.WQtQtQtQtQtQtQtQtQtQtQtQtQtQtQtQt",
"QtQtQtQtQtQtQtQtQtQtQtQtQtQtQt.W.Y#.###a#b#c#d#e#f#g#h.V.U.S.9.V.T.V.V.P.P.P.P.V#e#i#j#b#a###..Y.WQtQtQtQtQtQtQtQtQtQtQtQtQtQtQt",
"QtQtQtQtQtQtQtQtQtQtQtQtQtQt.W.Z#k#l#m#n#o#p#q#r#s.S.N.S.P.U.U.T.V.V.V.V.P.P.V.h#r#q#p#o#n#m#t#k.Z.WQtQtQtQtQtQtQtQtQtQtQtQtQtQt",
"QtQtQtQtQtQtQtQtQtQtQtQtQt.W.Y#u#v#w#x#y#z#A#B#C.S.N.N.N.S.Q.P.V.V.h.V.V.V.h#D#E#C#B#A#z#y#x#w#v#u.Y.WQtQtQtQtQtQtQtQtQtQtQtQtQt",
"QtQtQtQtQtQtQtQtQtQtQtQtQt.W#F#G#H#I#J#B#D#K#L#L.P.S.N.N.S.9.P.V.h#M#M#M#M#L#L#L#L#L#K#D#B#J#I#H#G#F.WQtQtQtQtQtQtQtQtQtQtQtQtQt",
"QtQtQtQtQtQtQtQtQtQtQtQtQt.W#F#N#H#I#z#B#D#K#L#L.h.V.V.V.V.V.V.V.h#M#M#M#M#L#L#L#L#L#K#D#B#z#I#O#N#F.WQtQtQtQtQtQtQtQtQtQtQtQtQt",
"QtQtQtQtQtQtQtQtQtQtQtQtQt.W#P#u#v#w#x#y#z#A#B#C#E#D#Q#Q#K#R#R#L#L#R#R#K#Q#Q#D#E#C#B#A#z#y#x#w#v#u#P.WQtQtQtQtQtQtQtQtQtQtQtQtQt",
"QtQtQtQtQtQtQtQtQtQtQtQtQtQt.W.Z#S#t#T#w#U#p#q#r#s#V#W#X#Y#Z#0#0#0#0#Z#Y#X#W#V#s#r#q#p#U#w#T#t#S.Z.WQtQtQtQtQtQtQtQtQtQtQtQtQtQt",
"QtQtQtQtQtQtQtQtQtQtQtQtQtQtQt.W#P.2###a#b#j#i#e#f#g#h#1#x#2#I#3#3#I#2#x#1#h#g#f#e#i#j#b#a##.2#P.WQtQtQtQtQtQtQtQtQtQtQtQtQtQtQt",
"QtQtQtQtQtQtQtQtQtQtQtQtQtQtQtQt.W.W.Y.0.2.3.4.5.6.7.8#4#5#6#7#c#c#7#6#5#4.8.7.6.5.4#u.2.0.Y.W.WQtQtQtQtQtQtQtQtQtQtQtQtQtQtQtQt",
"QtQtQtQtQtQtQtQtQtQtQtQtQtQtQtQtQtQt.W.W.W.X.Y.Z.0.1.2#8#9#9#9a.a.#9#9#9#8.2.1.0.Z.Y.X.W.W.WQtQtQtQtQtQtQtQtQtQtQtQtQtQtQtQtQtQt",
"QtQtQtQtQtQtQtQtQtQtQtQtQtQtQtQtQtQtQtQtQtQt.W.W.W.W.W.W.W.W.W.W.W.W.W.W.W.W.W.W.W.WQtQtQtQtQtQtQtQtQtQtQtQtQtQtQtQtQtQtQtQtQtQt",
"QtQtQtQtQtQtQtQtQtQtQtQtQtQtQtQtQtQtQtQtQtQtQtQtQtQtQtQtQtQtQtQtQtQtQtQtQtQtQtQtQtQtQtQtQtQtQtQtQtQtQtQtQtQtQtQtQtQtQtQtQtQtQtQt",
"QtQtQtQtQtQtQtQtQtQtQtQtQtQtQtQtQtQtQtQtQtQtQtQtQtQtQtQtQtQtQtQtQtQtQtQtQtQtQtQtQtQtQtQtQtQtQtQtQtQtQtQtQtQtQtQtQtQtQtQtQtQtQtQt"};
