/* XPM */
static char *dummy[]={
"64 64 128 2",
"Qt c None",
".S c #000000",
".W c #000000",
".X c #000000",
"#M c #000000",
".Y c #000000",
"#B c #000000",
".Z c #000000",
".0 c #000000",
".9 c #000000",
".1 c #000000",
".2 c #000000",
"#8 c #000000",
"#9 c #000000",
".4 c #000000",
"#r c #000000",
"#h c #000000",
"#P c #000000",
"#. c #000000",
".5 c #000000",
"#C c #000000",
"#K c #000000",
".6 c #000000",
"## c #000000",
".7 c #000000",
"#i c #000000",
"#q c #000000",
".8 c #000000",
"#a c #000000",
"#3 c #000000",
"#s c #000000",
"#4 c #000000",
"#5 c #000000",
"#6 c #000000",
"#7 c #000000",
"#b c #000000",
"#g c #000000",
"#j c #000000",
"#Q c #000000",
"#c c #000000",
"#f c #000000",
"#D c #000000",
"#L c #000000",
"#d c #000000",
"#k c #000000",
"#t c #000000",
"#e c #000000",
"#Y c #000000",
"#l c #000000",
"#R c #000000",
"#Z c #000000",
"#0 c #000000",
"#u c #000000",
"#m c #000000",
"#1 c #000000",
"#E c #000000",
"#2 c #000000",
"#n c #000000",
"#v c #000000",
"#o c #000000",
"#p c #000000",
"#S c #000000",
"#F c #000000",
"#w c #000000",
"#T c #000000",
"#U c #000000",
"#V c #000000",
"#x c #000000",
"#W c #000000",
"#X c #000000",
"#y c #000000",
"#z c #000000",
"#A c #000000",
"#G c #000000",
"#N c #000000",
"#H c #000000",
"#O c #000000",
"#I c #000000",
"#J c #000000",
".s c #001111",
".r c #002b2b",
".A c #005e7f",
".D c #007faa",
".i c #080808",
".O c #0f0e11",
".z c #1e424f",
".P c #212828",
".q c #260c0c",
".R c #26252c",
".V c #35353a",
".T c #371812",
".u c #3d5358",
".d c #444448",
".I c #470000",
".n c #494482",
".p c #4a2121",
".U c #51545b",
".Q c #535353",
".3 c #562f1d",
".C c #637a82",
".a c #6d3300",
".B c #72472d",
".k c #7291ea",
".t c #750000",
".N c #797a7c",
".v c #838384",
".h c #84393a",
".y c #871e38",
".G c #8e3314",
".E c #946c45",
".o c #96b2ff",
".# c #996314",
".M c #9e99a6",
".w c #adb2af",
".K c #af001c",
".J c #c09d7b",
".j c #c1bfbc",
".g c #c46555",
".H c #c65619",
".b c #d19e30",
".l c #e5f4ff",
".L c #ef0c23",
".F c #f78c6b",
".e c #f9edd6",
".c c #fcd670",
".x c #ff7084",
".f c #ffa893",
".m c #ffd8ce",
"QtQtQtQtQtQtQtQtQtQtQtQtQtQtQtQtQtQtQtQtQtQtQtQtQtQtQtQtQtQtQtQtQtQtQtQtQtQtQtQtQtQtQtQtQtQtQtQtQtQtQtQtQtQtQtQtQtQtQtQtQtQtQtQt",
"QtQtQtQtQtQtQtQtQtQtQtQtQtQtQtQtQtQtQtQtQtQtQtQtQtQtQtQtQtQtQtQtQtQtQtQtQtQtQtQtQtQtQtQtQtQtQtQtQtQtQtQtQtQtQtQtQtQtQtQtQtQtQtQt",
"QtQtQtQtQtQtQtQtQtQtQtQtQtQtQtQtQtQtQtQtQtQtQtQtQtQtQtQtQtQtQtQtQtQtQtQtQtQtQtQtQtQtQtQtQtQtQtQtQtQtQtQtQtQtQtQtQtQtQtQtQtQtQtQt",
"QtQtQtQtQtQtQtQtQtQtQtQtQtQtQtQtQtQtQtQtQtQtQtQtQtQtQtQtQtQtQtQtQtQtQtQtQtQtQtQtQtQtQtQtQtQtQtQtQtQtQtQtQtQtQtQtQtQtQtQtQtQtQtQt",
"QtQtQtQtQtQtQtQtQtQtQtQtQtQtQtQtQtQtQtQtQtQtQtQtQtQtQtQtQtQtQtQtQtQtQtQtQtQtQtQtQtQtQtQtQtQtQtQtQtQtQtQtQtQtQtQtQtQtQtQtQtQtQtQt",
"QtQtQtQtQtQtQtQtQtQtQtQtQtQtQtQtQtQtQtQtQtQtQtQtQtQtQtQtQtQtQtQtQtQtQtQtQtQtQtQtQtQtQtQtQtQtQtQtQtQtQtQtQtQtQtQtQtQtQtQtQtQtQtQt",
"QtQtQtQtQtQtQtQtQtQtQtQtQtQtQtQtQtQtQtQtQtQtQtQtQtQtQtQtQtQtQtQtQtQtQtQtQtQtQtQtQtQtQtQtQtQtQtQtQtQtQtQtQtQtQtQtQtQtQtQtQtQtQtQt",
"QtQtQtQtQtQtQtQtQtQtQtQtQtQtQtQtQtQtQtQtQtQtQtQt.#.#.#.#QtQt.a.a.a.a.aQtQtQtQtQtQtQtQtQtQtQtQtQtQtQtQtQtQtQtQtQtQtQtQtQtQtQtQtQt",
"QtQtQtQtQtQtQtQtQtQtQtQtQtQtQtQtQtQtQtQtQtQtQt.#.a.a.a.#.a.#.#.#.#.#.#.#.aQtQtQtQtQtQtQtQtQtQtQtQtQtQtQtQtQtQtQtQtQtQtQtQtQtQtQt",
"QtQtQtQtQtQtQtQtQtQtQtQtQtQtQtQtQtQtQtQtQtQtQt.aQtQt.#.b.b.#.b.b.#.b.b.#.#.aQtQtQtQtQtQtQtQtQtQtQtQtQtQtQtQtQtQtQtQtQtQtQtQtQtQt",
"QtQtQtQtQtQtQtQtQtQtQtQtQtQtQtQtQtQtQtQtQtQtQtQtQt.#.b.c.c.b.c.c.b.#.b.b.#.#.aQtQtQtQtQtQtQtQtQtQtQtQtQtQtQtQtQtQtQtQtQtQtQtQtQt",
"QtQtQtQtQtQtQtQtQtQtQtQtQtQtQtQtQtQtQtQtQtQtQt.d.#.b.c.c.b.c.c.c.c.c.#.b.b.#.#.aQtQtQtQtQtQtQtQtQtQtQtQtQtQtQtQtQtQtQtQtQtQtQtQt",
"QtQtQtQtQtQtQtQtQtQtQtQtQtQtQtQtQtQtQtQtQtQtQt.#.b.#.b.c.e.c.c.e.b.c.c.b.b.a.#.aQtQtQtQtQtQtQtQtQtQtQtQtQtQtQtQtQtQtQtQtQtQtQtQt",
"QtQtQtQtQtQtQtQtQtQtQtQtQtQtQtQtQtQtQtQtQtQt.a.a.a.b.c.c.e.c.b.e.c.b.c.b.b.b.a.#.aQtQtQtQtQtQtQtQtQtQtQtQtQtQtQtQtQtQtQtQtQtQtQt",
"QtQtQtQtQtQtQtQtQtQtQtQtQtQtQtQtQtQtQtQtQtQtQtQt.b.c.e.c.e.e.#.b.e.c.c.c.#.b.#.a.aQtQtQtQtQtQtQtQtQtQtQtQtQtQtQtQtQtQtQtQtQtQtQt",
"QtQtQtQtQtQtQtQtQtQtQtQtQtQtQtQtQtQtQtQtQtQtQt.#.b.c.e.c.b.e.f.g.#.c.b.c.a.#.#.a.a.aQtQtQtQtQtQtQtQtQtQtQtQtQtQtQtQtQtQtQtQtQtQt",
"QtQtQtQtQtQtQtQtQtQtQtQtQtQtQtQtQtQtQtQtQtQt.#.b.#.c.e.b.#.c.h.i.i.j.#.c.#.a.#.#.aQtQtQtQtQtQtQtQtQtQtQtQtQtQtQtQtQtQtQtQtQtQtQt",
"QtQtQtQtQtQtQtQtQtQtQtQtQtQtQtQtQtQtQtQtQtQtQtQt.#.b.e.a.g.b.f.i.k.l.i.b.g.#.a.#.aQtQtQtQtQtQtQtQtQtQtQtQtQtQtQtQtQtQtQtQtQtQtQt",
"QtQtQtQtQtQtQtQtQtQtQtQtQtQtQtQtQtQtQtQtQtQtQtQtQt.b.c.a.f.f.m.n.o.f.p.b.g.#.aQt.aQtQtQtQtQtQtQtQtQtQtQtQtQtQtQtQtQtQtQtQtQtQtQt",
"QtQtQtQtQtQtQtQtQtQtQtQtQtQtQtQtQtQtQtQtQtQtQtQtQt.#.c.a.f.m.m.m.m.g.p.#.a.#.aQtQtQtQtQtQtQtQtQtQtQtQtQtQtQtQtQtQtQtQtQtQtQtQtQt",
"QtQtQtQtQtQtQtQtQtQtQtQtQtQtQtQtQtQtQtQtQtQtQtQtQtQt.b.a.g.m.m.m.f.h.p.a.a.aQtQtQtQtQtQtQtQtQtQtQtQtQtQtQtQtQtQtQtQtQtQtQtQtQtQt",
"QtQtQtQtQtQtQtQtQtQtQtQtQtQtQtQtQtQtQtQtQtQtQtQtQtQt.#.p.p.g.f.g.h.p.q.a.r.sQtQtQtQtQtQtQtQtQtQtQtQtQtQtQtQtQtQtQtQtQtQtQtQtQtQt",
"QtQtQtQtQtQtQtQtQtQtQtQtQtQtQtQtQtQtQtQtQtQtQtQtQtQtQt.t.r.u.p.p.p.q.r.r.s.s.sQtQtQtQtQtQtQtQtQtQtQtQtQtQtQtQtQtQtQtQtQtQtQtQtQt",
"QtQtQtQtQtQtQtQtQtQtQtQtQtQtQtQtQtQtQtQtQtQtQtQtQtQtQt.s.v.w.w.x.y.z.u.r.r.s.sQtQtQtQtQtQtQtQtQtQtQtQtQtQtQtQtQtQtQtQtQtQtQtQtQt",
"QtQtQtQtQtQtQtQtQtQtQtQtQtQtQtQtQtQtQtQtQtQtQtQtQtQt.s.u.r.r.u.r.r.z.u.r.A.r.sQtQtQtQtQtQtQtQtQtQtQtQtQtQtQtQtQtQtQtQtQtQtQtQtQt",
"QtQtQtQtQtQtQtQtQtQtQtQtQtQtQtQtQtQtQtQtQtQtQtQtQtQt.s.B.r.u.C.D.r.r.u.D.r.r.rQtQtQtQtQtQtQtQtQtQtQtQtQtQtQtQtQtQtQtQtQtQtQtQtQt",
"QtQtQtQtQtQtQtQtQtQtQtQtQtQtQtQtQtQtQtQtQtQtQtQtQtQt.s.z.r.E.B.u.r.u.r.u.z.z.rQtQtQtQtQtQtQtQtQtQtQtQtQtQtQtQtQtQtQtQtQtQtQtQtQt",
"QtQtQtQtQtQtQtQtQtQtQtQtQtQtQtQtQtQtQtQtQtQtQtQtQtQt.s.B.r.u.z.z.r.r.u.u.B.z.rQtQtQtQtQtQtQtQtQtQtQtQtQtQtQtQtQtQtQtQtQtQtQtQtQt",
"QtQtQtQtQtQtQtQtQtQtQtQtQtQtQtQtQtQtQtQtQtQtQtQtQtQt.s.z.r.E.B.z.r.r.z.z.r.r.hQtQtQtQtQtQtQtQtQtQtQtQtQtQtQtQtQtQtQtQtQtQtQtQtQt",
"QtQtQtQtQtQtQtQtQtQtQtQtQtQtQtQtQtQtQtQtQtQtQtQtQtQtQt.s.s.s.z.r.r.r.r.h.F.g.hQtQtQtQtQtQtQtQtQtQtQtQtQtQtQtQtQtQtQtQtQtQtQtQtQt",
"QtQtQtQtQtQtQtQtQtQtQtQtQtQtQtQtQtQtQtQtQtQtQtQtQtQtQt.r.u.G.s.s.s.s.h.F.m.F.gQtQtQtQtQtQtQtQtQtQtQtQtQtQtQtQtQtQtQtQtQtQtQtQtQt",
"QtQtQtQtQtQtQtQtQtQtQtQtQtQtQtQtQtQtQtQtQtQtQtQtQtQtQt.H.H.r.I.I.I.t.h.E.J.J.E.dQtQtQtQtQtQtQtQtQtQtQtQtQtQtQtQtQtQtQtQtQtQtQtQt",
"QtQtQtQtQtQtQtQtQtQtQtQtQtQtQtQtQtQtQtQtQtQtQtQtQtQtQt.r.z.r.t.K.L.L.r.u.C.C.E.d.IQtQtQtQtQtQtQtQtQtQtQtQtQtQtQtQtQtQtQtQtQtQtQt",
"QtQtQtQtQtQtQtQtQtQtQtQtQtQtQtQtQtQtQtQtQtQtQtQtQtQt.r.u.u.r.I.I.I.I.E.J.J.C.r.M.d.I.IQtQtQtQtQtQtQtQtQtQtQtQtQtQtQtQtQtQtQtQtQt",
"QtQtQtQtQtQtQtQtQtQtQtQtQtQtQtQtQtQtQtQtQtQtQtQtQtQt.r.B.r.r.t.I.F.g.u.C.u.E.r.M.M.I.I.I.IQtQtQtQtQtQtQtQtQtQtQtQtQtQtQtQtQtQtQt",
"QtQtQtQtQtQtQtQtQtQtQtQtQtQtQtQtQtQtQtQtQtQtQtQtQt.r.B.E.s.r.K.g.h.h.E.J.r.B.I.d.M.N.d.t.t.tQtQtQtQtQtQtQtQtQtQtQtQtQtQtQtQtQtQt",
"QtQtQtQtQtQtQtQtQtQtQtQtQtQtQtQtQtQtQtQtQtQtQtQtQt.r.E.s.s.E.K.F.m.F.g.h.p.t.I.i.d.M.N.I.t.t.KQtQtQtQtQtQtQtQtQtQtQtQtQtQtQtQtQt",
"QtQtQtQtQtQtQtQtQtQtQtQtQtQtQtQtQtQtQtQtQtQtQtQtQtQt.sQt.s.E.L.g.g.F.h.h.p.t.I.i.i.M.M.d.I.K.L.LQtQtQtQtQtQtQtQtQtQtQtQtQtQtQtQt",
"QtQtQtQtQtQtQtQtQtQtQtQtQtQtQtQtQtQtQtQtQtQtQtQtQtQt.g.O.P.L.L.F.m.F.h.h.p.t.t.I.i.N.M.d.I.I.I.K.KQtQtQtQtQtQtQtQtQtQtQtQtQtQtQt",
"QtQtQtQtQtQtQtQtQtQtQtQtQtQtQtQtQtQtQtQtQtQtQtQtQtQtQt.O.P.L.L.F.m.F.h.p.t.t.t.I.i.d.M.d.I.I.t.PQt.wQtQtQtQtQtQtQtQtQtQtQtQtQtQt",
"QtQtQtQtQtQtQtQtQtQtQtQtQtQtQtQtQtQtQtQtQtQtQtQtQtQtQt.P.P.L.L.K.I.I.I.I.I.t.t.t.I.d.N.dQt.I.I.t.P.wQtQtQtQtQtQtQtQtQtQtQtQtQtQt",
"QtQtQtQtQtQtQtQtQtQtQtQtQtQtQtQtQtQtQtQtQtQtQtQtQtQtQt.P.P.L.L.L.K.K.t.t.I.t.t.t.I.I.N.dQtQt.I.I.v.w.I.I.QQtQtQtQtQtQtQtQtQtQtQt",
"QtQtQtQtQtQtQtQtQtQtQtQtQtQtQtQtQtQtQtQtQtQtQtQtQtQtQt.P.P.L.L.L.K.K.K.t.t.t.t.I.P.P.N.dQtQtQtQt.I.v.I.I.Q.QQtQtQtQtQtQtQtQtQtQt",
"QtQtQtQtQtQtQtQtQtQtQtQtQtQtQtQtQtQtQtQtQtQtQtQtQtQtQt.O.P.L.L.L.L.K.K.t.t.t.t.P.Q.P.P.dQtQtQtQtQtQt.Q.Q.Q.Q.QQtQtQtQtQtQtQtQtQt",
"QtQtQtQtQtQtQtQtQtQtQtQtQtQtQtQtQtQtQtQtQtQtQtQtQtQtQt.O.O.L.L.L.L.K.K.t.Q.N.Q.P.P.Q.P.dQtQtQtQtQtQtQtQtQtQtQtQtQtQtQtQtQtQtQtQt",
"QtQtQtQtQtQtQtQtQtQtQtQtQtQtQtQtQtQtQtQtQtQtQtQtQtQtQt.O.N.w.w.w.N.N.N.Q.P.P.P.Q.Q.P.P.dQtQtQtQtQtQtQtQtQtQtQtQtQtQtQtQtQtQtQtQt",
"QtQtQtQtQtQtQtQtQtQtQtQtQtQtQtQtQtQtQtQtQtQtQtQtQtQtQt.O.P.P.P.P.P.P.P.P.N.N.Q.P.PQtQt.iQtQtQtQtQtQtQtQtQtQtQtQtQtQtQtQtQtQtQtQt",
"QtQtQtQtQtQtQtQtQtQtQtQtQtQtQtQtQtQtQtQtQtQtQtQtQtQtQt.O.N.w.w.w.w.w.w.N.P.R.PQtQtQtQtQtQtQtQtQtQtQtQtQtQtQtQtQtQtQtQtQtQtQtQtQt",
"QtQtQtQtQtQtQtQtQtQtQtQtQtQtQtQtQtQtQtQtQtQt.S.S.S.S.S.S.O.O.R.T.O.R.U.V.V.R.T.S.S.SQtQtQtQtQtQtQtQtQtQtQtQtQtQtQtQtQtQtQtQtQtQt",
"QtQtQtQtQtQtQtQtQtQtQtQtQtQtQtQtQtQt.S.S.S.W.X.Y.Z.0.1.2.O.3.3.O.O.B.E.B.3.T.O.Z.Y.X.W.S.S.SQtQtQtQtQtQtQtQtQtQtQtQtQtQtQtQtQtQt",
"QtQtQtQtQtQtQtQtQtQtQtQtQtQtQtQt.S.S.X.Z.1.4.5.6.7.8.V.V.V.R.R.O.O.V.U.V.V.V.O.7.6.5.4.1.Z.X.S.SQtQtQtQtQtQtQtQtQtQtQtQtQtQtQtQt",
"QtQtQtQtQtQtQtQtQtQtQtQtQtQtQt.S.X.9#.###a#b#c#d#e.V.V.V.R.R.R.O.O.R.V.U.V.T.T.O#d#f#g#a###..9.X.SQtQtQtQtQtQtQtQtQtQtQtQtQtQtQt",
"QtQtQtQtQtQtQtQtQtQtQtQtQtQt.S.Y#h#i#j#k#l#m#n#o#p.R.R.R.R.R.R.O.U.3.B.3.T.R.O.O#o#n#m#l#k#j#q#h.Y.SQtQtQtQtQtQtQtQtQtQtQtQtQtQt",
"QtQtQtQtQtQtQtQtQtQtQtQtQt.S.X#r#s#t#u#v#w#x#y#z#A.i.O.O.O.O.O.U.N.U.V.R.R.R.O.i#z#y#x#w#v#u#t#s#r.X.SQtQtQtQtQtQtQtQtQtQtQtQtQt",
"QtQtQtQtQtQtQtQtQtQtQtQtQt.S#B#C#D#E#F#y#G#H#I#I#I#I#I#J#J#J#J.U.N.N.U.V.R.O.O.i#I#I#H#G#y#F#E#D#C#B.SQtQtQtQtQtQtQtQtQtQtQtQtQt",
"QtQtQtQtQtQtQtQtQtQtQtQtQt.S#B#K#D#E#w#y#G#H#I#I#I#I#I#J#J#J#J.i.O.O.O.O.i#I#I#I#I#I#H#G#y#w#E#L#K#B.SQtQtQtQtQtQtQtQtQtQtQtQtQt",
"QtQtQtQtQtQtQtQtQtQtQtQtQt.S#M#r#s#t#u#v#w#x#y#z#A#G#N#N#H#O#O#I#I#O#O#H#N#N#G#A#z#y#x#w#v#u#t#s#r#M.SQtQtQtQtQtQtQtQtQtQtQtQtQt",
"QtQtQtQtQtQtQtQtQtQtQtQtQtQt.S.Y#P#q#Q#t#R#m#n#o#p#S#T#U#V#W#X#X#X#X#W#V#U#T#S#p#o#n#m#R#t#Q#q#P.Y.SQtQtQtQtQtQtQtQtQtQtQtQtQtQt",
"QtQtQtQtQtQtQtQtQtQtQtQtQtQtQt.S#M.1#.###a#g#f#d#e#Y#Z#0#u#1#E#2#2#E#1#u#0#Z#Y#e#d#f#g#a###..1#M.SQtQtQtQtQtQtQtQtQtQtQtQtQtQtQt",
"QtQtQtQtQtQtQtQtQtQtQtQtQtQtQtQt.S.S.X.Z.1.4.5.6.7.8#3#4#5#6#7#b#b#7#6#5#4#3.8.7.6.5#r.1.Z.X.S.SQtQtQtQtQtQtQtQtQtQtQtQtQtQtQtQt",
"QtQtQtQtQtQtQtQtQtQtQtQtQtQtQtQtQtQt.S.S.S.W.X.Y.Z.0.1.2#8#8#8#9#9#8#8#8.2.1.0.Z.Y.X.W.S.S.SQtQtQtQtQtQtQtQtQtQtQtQtQtQtQtQtQtQt",
"QtQtQtQtQtQtQtQtQtQtQtQtQtQtQtQtQtQtQtQtQtQt.S.S.S.S.S.S.S.S.S.S.S.S.S.S.S.S.S.S.S.SQtQtQtQtQtQtQtQtQtQtQtQtQtQtQtQtQtQtQtQtQtQt",
"QtQtQtQtQtQtQtQtQtQtQtQtQtQtQtQtQtQtQtQtQtQtQtQtQtQtQtQtQtQtQtQtQtQtQtQtQtQtQtQtQtQtQtQtQtQtQtQtQtQtQtQtQtQtQtQtQtQtQtQtQtQtQtQt",
"QtQtQtQtQtQtQtQtQtQtQtQtQtQtQtQtQtQtQtQtQtQtQtQtQtQtQtQtQtQtQtQtQtQtQtQtQtQtQtQtQtQtQtQtQtQtQtQtQtQtQtQtQtQtQtQtQtQtQtQtQtQtQtQt"};
