/* XPM */
static char *dummy[]={
"64 64 127 2",
"Qt c None",
".W c #000000",
"#7 c #000000",
".6 c #000000",
"#F c #000000",
"#c c #000000",
"#x c #000000",
".5 c #000000",
"#8 c #000000",
".7 c #000000",
"#R c #000000",
".Z c #000000",
".X c #000000",
".Y c #000000",
"#1 c #000000",
"#m c #000000",
"#d c #000000",
"#I c #000000",
"#b c #000000",
"#2 c #000000",
"#y c #000000",
"#D c #000000",
"#3 c #000000",
"#a c #000000",
"#4 c #000000",
"#e c #000000",
"#l c #000000",
"#5 c #000000",
"#S c #000000",
"#6 c #000000",
"#n c #000000",
".4 c #000000",
".3 c #000000",
".0 c #000000",
".1 c #000000",
".2 c #000000",
"#T c #000000",
"#f c #000000",
"#J c #000000",
"#U c #000000",
"#z c #000000",
"#E c #000000",
"#V c #000000",
"#k c #000000",
"#o c #000000",
"#W c #000000",
"#X c #000000",
"#K c #000000",
"#Y c #000000",
"#Z c #000000",
".8 c #000000",
".9 c #000000",
"#0 c #000000",
"#. c #000000",
"## c #000000",
"#L c #000000",
"#p c #000000",
"#M c #000000",
"#N c #000000",
"#O c #000000",
"#A c #000000",
"#w c #000000",
"#P c #000000",
"#Q c #000000",
"#g c #000000",
"#v c #000000",
"#h c #000000",
"#i c #000000",
"#j c #000000",
"#u c #000000",
"#G c #000000",
"#H c #000000",
"#B c #000000",
"#q c #000000",
"#r c #000000",
"#s c #000000",
"#t c #000000",
"#C c #000000",
".r c #001111",
".q c #002b2b",
".z c #005e7f",
".C c #007faa",
".h c #080808",
".F c #0f0e11",
".y c #1e424f",
".P c #212828",
".p c #260c0c",
".U c #26252c",
".S c #35353a",
".R c #35383f",
".t c #3d5358",
".N c #444448",
".H c #470000",
".m c #494482",
".o c #4a2121",
".T c #51545b",
".Q c #535353",
".V c #562f1d",
".B c #637a82",
".a c #6d3300",
".A c #72472d",
".j c #7291ea",
".s c #750000",
".M c #797a7c",
".u c #838384",
".g c #84393a",
".x c #871e38",
".G c #8e3314",
".D c #946c45",
".n c #96b2ff",
".# c #996314",
".O c #9e99a6",
".v c #adb2af",
".J c #af001c",
".L c #c09d7b",
".i c #c1bfbc",
".f c #c46555",
".I c #c65619",
".b c #d19e30",
".k c #e5f4ff",
".K c #ef0c23",
".E c #f78c6b",
".d c #f9edd6",
".c c #fcd670",
".w c #ff7084",
".e c #ffa893",
".l c #ffd8ce",
"QtQtQtQtQtQtQtQtQtQtQtQtQtQtQtQtQtQtQtQtQtQtQtQtQtQtQtQtQtQtQtQtQtQtQtQtQtQtQtQtQtQtQtQtQtQtQtQtQtQtQtQtQtQtQtQtQtQtQtQtQtQtQtQt",
"QtQtQtQtQtQtQtQtQtQtQtQtQtQtQtQtQtQtQtQtQtQtQtQtQtQtQtQtQtQtQtQtQtQtQtQtQtQtQtQtQtQtQtQtQtQtQtQtQtQtQtQtQtQtQtQtQtQtQtQtQtQtQtQt",
"QtQtQtQtQtQtQtQtQtQtQtQtQtQtQtQtQtQtQtQtQtQtQtQtQtQtQtQtQtQtQtQtQtQtQtQtQtQtQtQtQtQtQtQtQtQtQtQtQtQtQtQtQtQtQtQtQtQtQtQtQtQtQtQt",
"QtQtQtQtQtQtQtQtQtQtQtQtQtQtQtQtQtQtQtQtQtQtQtQtQtQtQtQtQtQtQtQtQtQtQtQtQtQtQtQtQtQtQtQtQtQtQtQtQtQtQtQtQtQtQtQtQtQtQtQtQtQtQtQt",
"QtQtQtQtQtQtQtQtQtQtQtQtQtQtQtQtQtQtQtQtQtQtQtQtQtQtQtQtQtQtQtQtQtQtQtQtQtQtQtQtQtQtQtQtQtQtQtQtQtQtQtQtQtQtQtQtQtQtQtQtQtQtQtQt",
"QtQtQtQtQtQtQtQtQtQtQtQtQtQtQtQtQtQtQtQtQtQtQtQtQtQtQtQtQtQtQtQtQtQtQtQtQtQtQtQtQtQtQtQtQtQtQtQtQtQtQtQtQtQtQtQtQtQtQtQtQtQtQtQt",
"QtQtQtQtQtQtQtQtQtQtQtQtQtQtQtQtQtQtQtQtQtQtQtQtQtQtQtQtQtQtQtQtQtQtQtQtQtQtQtQtQtQtQtQtQtQtQtQtQtQtQtQtQtQtQtQtQtQtQtQtQtQtQtQt",
"QtQtQtQtQtQtQtQtQtQtQtQtQtQtQtQtQtQtQtQtQtQtQtQtQtQtQtQtQtQtQtQtQtQtQtQtQtQtQtQtQtQtQtQtQtQtQtQtQtQtQtQtQtQtQtQtQtQtQtQtQtQtQtQt",
"QtQtQtQtQtQtQtQtQtQtQtQtQtQtQtQtQtQtQtQtQtQtQtQt.#.#.#.#QtQt.a.a.a.a.aQtQtQtQtQtQtQtQtQtQtQtQtQtQtQtQtQtQtQtQtQtQtQtQtQtQtQtQtQt",
"QtQtQtQtQtQtQtQtQtQtQtQtQtQtQtQtQtQtQtQtQtQtQt.#.a.a.a.#.a.#.#.#.#.#.#.#.aQtQtQtQtQtQtQtQtQtQtQtQtQtQtQtQtQtQtQtQtQtQtQtQtQtQtQt",
"QtQtQtQtQtQtQtQtQtQtQtQtQtQtQtQtQtQtQtQtQtQtQt.aQtQt.#.b.b.#.b.b.#.b.b.#.#.aQtQtQtQtQtQtQtQtQtQtQtQtQtQtQtQtQtQtQtQtQtQtQtQtQtQt",
"QtQtQtQtQtQtQtQtQtQtQtQtQtQtQtQtQtQtQtQtQtQtQtQtQt.#.b.c.c.b.c.c.b.#.b.b.#.#.aQtQtQtQtQtQtQtQtQtQtQtQtQtQtQtQtQtQtQtQtQtQtQtQtQt",
"QtQtQtQtQtQtQtQtQtQtQtQtQtQtQtQtQtQtQtQtQtQtQtQt.#.b.c.c.b.c.c.c.c.c.#.b.b.#.#.aQtQtQtQtQtQtQtQtQtQtQtQtQtQtQtQtQtQtQtQtQtQtQtQt",
"QtQtQtQtQtQtQtQtQtQtQtQtQtQtQtQtQtQtQtQtQtQtQt.#.b.#.b.c.d.c.c.d.b.c.c.b.b.a.#.aQtQtQtQtQtQtQtQtQtQtQtQtQtQtQtQtQtQtQtQtQtQtQtQt",
"QtQtQtQtQtQtQtQtQtQtQtQtQtQtQtQtQtQtQtQtQtQt.a.a.a.b.c.c.d.c.b.d.c.b.c.b.b.b.a.#.aQtQtQtQtQtQtQtQtQtQtQtQtQtQtQtQtQtQtQtQtQtQtQt",
"QtQtQtQtQtQtQtQtQtQtQtQtQtQtQtQtQtQtQtQtQtQtQtQt.b.c.d.c.d.d.#.b.d.c.c.c.#.b.#.a.aQtQtQtQtQtQtQtQtQtQtQtQtQtQtQtQtQtQtQtQtQtQtQt",
"QtQtQtQtQtQtQtQtQtQtQtQtQtQtQtQtQtQtQtQtQtQtQt.#.b.c.d.c.b.d.e.f.#.c.b.c.a.#.#.a.a.aQtQtQtQtQtQtQtQtQtQtQtQtQtQtQtQtQtQtQtQtQtQt",
"QtQtQtQtQtQtQtQtQtQtQtQtQtQtQtQtQtQtQtQtQtQt.#.b.#.c.d.b.#.c.g.h.h.i.#.c.#.a.#.#.aQtQtQtQtQtQtQtQtQtQtQtQtQtQtQtQtQtQtQtQtQtQtQt",
"QtQtQtQtQtQtQtQtQtQtQtQtQtQtQtQtQtQtQtQtQtQtQtQt.#.b.d.a.f.b.e.h.j.k.h.b.f.#.a.#.aQtQtQtQtQtQtQtQtQtQtQtQtQtQtQtQtQtQtQtQtQtQtQt",
"QtQtQtQtQtQtQtQtQtQtQtQtQtQtQtQtQtQtQtQtQtQtQtQtQt.b.c.a.e.e.l.m.n.e.o.b.f.#.aQt.aQtQtQtQtQtQtQtQtQtQtQtQtQtQtQtQtQtQtQtQtQtQtQt",
"QtQtQtQtQtQtQtQtQtQtQtQtQtQtQtQtQtQtQtQtQtQtQtQtQt.#.c.a.e.l.l.l.l.f.o.#.a.#.aQtQtQtQtQtQtQtQtQtQtQtQtQtQtQtQtQtQtQtQtQtQtQtQtQt",
"QtQtQtQtQtQtQtQtQtQtQtQtQtQtQtQtQtQtQtQtQtQtQtQtQtQt.b.a.f.l.l.l.e.g.o.a.a.aQtQtQtQtQtQtQtQtQtQtQtQtQtQtQtQtQtQtQtQtQtQtQtQtQtQt",
"QtQtQtQtQtQtQtQtQtQtQtQtQtQtQtQtQtQtQtQtQtQtQtQtQtQt.#.o.o.f.e.f.g.o.p.a.q.rQtQtQtQtQtQtQtQtQtQtQtQtQtQtQtQtQtQtQtQtQtQtQtQtQtQt",
"QtQtQtQtQtQtQtQtQtQtQtQtQtQtQtQtQtQtQtQtQtQtQtQtQtQtQt.s.q.t.o.o.o.p.q.q.q.q.rQtQtQtQtQtQtQtQtQtQtQtQtQtQtQtQtQtQtQtQtQtQtQtQtQt",
"QtQtQtQtQtQtQtQtQtQtQtQtQtQtQtQtQtQtQtQtQtQtQtQtQtQtQt.r.u.v.v.w.x.y.y.y.y.q.qQtQtQtQtQtQtQtQtQtQtQtQtQtQtQtQtQtQtQtQtQtQtQtQtQt",
"QtQtQtQtQtQtQtQtQtQtQtQtQtQtQtQtQtQtQtQtQtQtQtQtQtQt.r.t.q.q.t.q.q.q.y.t.t.z.q.qQtQtQtQtQtQtQtQtQtQtQtQtQtQtQtQtQtQtQtQtQtQtQtQt",
"QtQtQtQtQtQtQtQtQtQtQtQtQtQtQtQtQtQtQtQtQtQtQtQtQtQt.r.A.A.t.B.C.q.q.y.t.C.q.y.qQtQtQtQtQtQtQtQtQtQtQtQtQtQtQtQtQtQtQtQtQtQtQtQt",
"QtQtQtQtQtQtQtQtQtQtQtQtQtQtQtQtQtQtQtQtQtQtQtQtQtQt.r.y.q.t.D.A.q.q.q.t.t.A.q.qQtQtQtQtQtQtQtQtQtQtQtQtQtQtQtQtQtQtQtQtQtQtQtQt",
"QtQtQtQtQtQtQtQtQtQtQtQtQtQtQtQtQtQtQtQtQtQtQtQtQtQt.r.A.A.t.y.y.q.r.q.y.y.q.g.g.gQtQtQtQtQtQtQtQtQtQtQtQtQtQtQtQtQtQtQtQtQtQtQt",
"QtQtQtQtQtQtQtQtQtQtQtQtQtQtQtQtQtQtQtQtQtQtQtQtQtQt.r.y.q.t.D.A.q.r.q.q.g.f.E.f.gQtQtQtQtQtQtQtQtQtQtQtQtQtQtQtQtQtQtQtQtQtQtQt",
"QtQtQtQtQtQtQtQtQtQtQtQtQtQtQtQtQtQtQtQtQtQtQtQtQtQt.A.r.r.r.y.q.q.F.r.r.g.E.l.E.f.gQtQtQtQtQtQtQtQtQtQtQtQtQtQtQtQtQtQtQtQtQtQt",
"QtQtQtQtQtQtQtQtQtQtQtQtQtQtQtQtQtQtQtQtQtQtQtQtQtQt.A.q.t.G.r.r.r.r.H.H.H.g.f.f.A.AQtQtQtQtQtQtQtQtQtQtQtQtQtQtQtQtQtQtQtQtQtQt",
"QtQtQtQtQtQtQtQtQtQtQtQtQtQtQtQtQtQtQtQtQtQtQtQtQtQt.H.I.I.q.H.H.H.s.s.s.H.q.t.B.t.D.AQtQtQtQtQtQtQtQtQtQtQtQtQtQtQtQtQtQtQtQtQt",
"QtQtQtQtQtQtQtQtQtQtQtQtQtQtQtQtQtQtQtQtQtQtQtQtQt.A.H.q.y.q.s.J.J.J.K.J.s.q.L.L.D.t.AQtQtQtQtQtQtQtQtQtQtQtQtQtQtQtQtQtQtQtQtQt",
"QtQtQtQtQtQtQtQtQtQtQtQtQtQtQtQtQtQtQtQtQtQtQt.g.g.H.q.t.t.q.H.H.H.H.H.H.s.H.q.f.t.D.q.H.HQtQtQtQtQtQtQtQtQtQtQtQtQtQtQtQtQtQtQt",
"QtQtQtQtQtQtQtQtQtQtQtQtQtQtQtQtQtQtQtQtQtQt.g.E.f.H.q.A.q.q.y.s.s.s.H.H.H.g.g.t.D.t.A.H.H.HQtQtQtQtQtQtQtQtQtQtQtQtQtQtQtQtQtQt",
"QtQtQtQtQtQtQtQtQtQtQtQtQtQtQtQtQtQtQtQtQt.g.f.g.E.H.A.A.r.A.y.s.J.s.s.H.g.E.g.E.f.o.o.M.N.H.HQtQtQtQtQtQtQtQtQtQtQtQtQtQtQtQtQt",
"QtQtQtQtQtQtQtQtQtQtQtQtQtQtQtQtQtQtQtQtQt.g.f.E.s.q.A.r.q.D.y.s.J.s.s.s.g.E.f.f.g.g.o.O.M.H.H.J.u.v.v.uQtQtQtQtQtQtQtQtQtQtQtQt",
"QtQtQtQtQtQtQtQtQtQtQtQtQtQtQtQtQtQtQtQtQtQt.g.g.s.q.r.r.D.q.r.P.s.J.s.s.s.g.l.E.E.g.o.O.O.N.s.H.s.u.Q.QQtQtQtQtQtQtQtQtQtQtQtQt",
"QtQtQtQtQtQtQtQtQtQtQtQtQtQtQtQtQtQtQtQtQtQtQt.s.H.r.r.r.A.r.P.P.s.J.J.s.s.g.f.f.g.g.o.M.O.N.H.P.u.Q.QQtQtQtQtQtQtQtQtQtQtQtQtQt",
"QtQtQtQtQtQtQtQtQtQtQtQtQtQtQtQtQtQtQtQtQtQtQt.s.H.H.P.Q.Q.Q.R.S.P.J.J.J.J.s.g.l.E.o.s.N.O.N.H.H.Q.Q.H.QQtQtQtQtQtQtQtQtQtQtQtQt",
"QtQtQtQtQtQtQtQtQtQtQtQtQtQtQtQtQtQtQtQtQtQt.s.H.H.H.Q.u.u.u.R.S.P.J.K.K.J.J.J.s.s.s.s.H.M.NQtQtQt.Q.T.QQtQtQtQtQtQtQtQtQtQtQtQt",
"QtQtQtQtQtQtQtQtQtQtQtQtQtQtQtQtQtQtQtQtQtQt.s.H.H.P.u.v.v.u.R.S.P.F.J.K.K.J.J.J.J.s.Q.Q.P.NQtQtQtQt.Q.T.QQtQtQtQtQtQtQtQtQtQtQt",
"QtQtQtQtQtQtQtQtQtQtQtQtQtQtQtQtQtQtQtQtQt.Q.u.H.H.P.v.v.v.u.Q.S.P.F.P.K.K.K.J.J.s.Q.M.P.Q.PQtQtQtQtQt.Q.QQtQtQtQtQtQtQtQtQtQtQt",
"QtQtQtQtQtQtQtQtQtQtQtQtQtQtQtQtQtQtQtQtQt.P.v.H.H.P.T.u.u.T.Q.U.F.H.F.J.K.K.K.J.Q.v.P.P.Q.PQtQtQtQtQtQtQtQtQtQtQtQtQtQtQtQtQtQt",
"QtQtQtQtQtQtQtQtQtQtQtQtQtQtQtQtQtQtQtQt.Q.v.P.H.H.U.R.R.Q.Q.R.P.FQt.F.P.K.K.K.s.Q.P.M.M.P.NQtQtQtQtQtQtQtQtQtQtQtQtQtQtQtQtQtQt",
"QtQtQtQtQtQtQtQtQtQtQtQtQtQtQtQtQtQtQtQtQt.Q.uQt.U.A.D.A.R.R.U.FQtQtQt.F.K.J.s.v.M.P.M.P.h.NQtQtQtQtQtQtQtQtQtQtQtQtQtQtQtQtQtQt",
"QtQtQtQtQtQtQtQtQtQtQtQtQtQtQtQtQtQtQtQtQtQtQtQt.U.S.T.D.V.U.FQtQtQtQtQt.v.v.v.P.P.v.QQtQt.hQtQtQtQtQtQtQtQtQtQtQtQtQtQtQtQtQtQt",
"QtQtQtQtQtQtQtQtQtQtQtQtQtQtQtQtQtQtQtQtQtQt.W.U.A.D.A.U.S.U.W.W.W.W.W.W.M.P.P.v.M.Q.FQtQtQtQtQtQtQtQtQtQtQtQtQtQtQtQtQtQtQtQtQt",
"QtQtQtQtQtQtQtQtQtQtQtQtQtQtQtQtQtQt.W.Q.T.T.U.V.S.T.F.V.F.F.X.Y.Y.X.X.X.Z.M.M.Q.Q.F.F.F.W.WQtQtQtQtQtQtQtQtQtQtQtQtQtQtQtQtQtQt",
"QtQtQtQtQtQtQtQtQtQtQtQtQtQtQtQt.W.W.T.M.M.M.T.S.A.S.T.F.F.0.1.2.2.1.0.3.4.F.U.U.F.F.F.h.5.6.W.WQtQtQtQtQtQtQtQtQtQtQtQtQtQtQtQt",
"QtQtQtQtQtQtQtQtQtQtQtQtQtQtQt.W.6.7.F.U.M.M.M.T.S.V.U.F.8.9#.#####..9.8.F.U.S.U.U.F.F.h#a#b.7.6.WQtQtQtQtQtQtQtQtQtQtQtQtQtQtQt",
"QtQtQtQtQtQtQtQtQtQtQtQtQtQt.W#c#d#e#f.F.U.T.T.T.T.U.F.F#g#h#i#j#j#i#h#g.F.S.S.U.U.F.F.h#k#f#l#d#c.WQtQtQtQtQtQtQtQtQtQtQtQtQtQt",
"QtQtQtQtQtQtQtQtQtQtQtQtQt.W.6#m#n#o.8#p.h.F.U.T.S.U.F#q#r#s#s#t#t#s#s#r.h.F.F.F.h#u#v#w#p.8#o#n#m.6.WQtQtQtQtQtQtQtQtQtQtQtQtQt",
"QtQtQtQtQtQtQtQtQtQtQtQtQt.W#x#y#z#.#A#u#B#r.F.S.U.F#t#C#C#C#C#C#C#C#C#C#C#t#t#t#t#t#r#B#u#A#.#z#y#x.WQtQtQtQtQtQtQtQtQtQtQtQtQt",
"QtQtQtQtQtQtQtQtQtQtQtQtQt.W#x#D#z#.#w#u#B#r#t.h.F.h#t#C#C#C#C#C#C#C#C#C#C#t#t#t#t#t#r#B#u#w#.#E#D#x.WQtQtQtQtQtQtQtQtQtQtQtQtQt",
"QtQtQtQtQtQtQtQtQtQtQtQtQt.W#F#m#n#o.8#p#w#v#u#G#H#B#q#q#r#s#s#t#t#s#s#r#q#q#B#H#G#u#v#w#p.8#o#n#m#F.WQtQtQtQtQtQtQtQtQtQtQtQtQt",
"QtQtQtQtQtQtQtQtQtQtQtQtQtQt.W#c#I#l#J#o#K.9#L#M#N#O#P#Q#g#h#j#j#j#j#h#g#Q#P#O#N#M#L.9#K#o#J#l#I#c.WQtQtQtQtQtQtQtQtQtQtQtQtQtQt",
"QtQtQtQtQtQtQtQtQtQtQtQtQtQtQt.W#F#R#b#a#S#T#U#V#W#X#Y#Z.8#0#.#####.#0.8#Z#Y#X#W#V#U#T#S#a#b#R#F.WQtQtQtQtQtQtQtQtQtQtQtQtQtQtQt",
"QtQtQtQtQtQtQtQtQtQtQtQtQtQtQtQt.W.W.6.5#R#1#2#3#4#5#6.4.3.0.1.2.2.1.0.3.4#6#5#4#3#2#m#R.5.6.W.WQtQtQtQtQtQtQtQtQtQtQtQtQtQtQtQt",
"QtQtQtQtQtQtQtQtQtQtQtQtQtQtQtQtQtQt.W.W.W#7.6#c.5#8#R.Z.X.X.X.Y.Y.X.X.X.Z#R#8.5#c.6#7.W.W.WQtQtQtQtQtQtQtQtQtQtQtQtQtQtQtQtQtQt",
"QtQtQtQtQtQtQtQtQtQtQtQtQtQtQtQtQtQtQtQtQtQt.W.W.W.W.W.W.W.W.W.W.W.W.W.W.W.W.W.W.W.WQtQtQtQtQtQtQtQtQtQtQtQtQtQtQtQtQtQtQtQtQtQt",
"QtQtQtQtQtQtQtQtQtQtQtQtQtQtQtQtQtQtQtQtQtQtQtQtQtQtQtQtQtQtQtQtQtQtQtQtQtQtQtQtQtQtQtQtQtQtQtQtQtQtQtQtQtQtQtQtQtQtQtQtQtQtQtQt",
"QtQtQtQtQtQtQtQtQtQtQtQtQtQtQtQtQtQtQtQtQtQtQtQtQtQtQtQtQtQtQtQtQtQtQtQtQtQtQtQtQtQtQtQtQtQtQtQtQtQtQtQtQtQtQtQtQtQtQtQtQtQtQtQt"};
