/* XPM */
static char *dummy[]={
"64 64 119 2",
"Qt c None",
".N c #000000",
"#X c #000000",
".Q c #000000",
"#E c #000000",
".3 c #000000",
"#w c #000000",
".P c #000000",
".O c #000000",
".U c #000000",
".R c #000000",
"#Y c #000000",
"#Z c #000000",
"#0 c #000000",
"#P c #000000",
"#h c #000000",
".4 c #000000",
"#F c #000000",
".V c #000000",
"#Q c #000000",
"#x c #000000",
"#C c #000000",
"#R c #000000",
".W c #000000",
".T c #000000",
".5 c #000000",
"#g c #000000",
".S c #000000",
".X c #000000",
"#S c #000000",
"#i c #000000",
"#T c #000000",
"#U c #000000",
"#V c #000000",
"#W c #000000",
".Y c #000000",
"#K c #000000",
".6 c #000000",
"#G c #000000",
"#L c #000000",
"#y c #000000",
"#D c #000000",
".2 c #000000",
".7 c #000000",
"#j c #000000",
".1 c #000000",
".0 c #000000",
".8 c #000000",
"#H c #000000",
".Z c #000000",
"#M c #000000",
"#k c #000000",
".9 c #000000",
"#N c #000000",
"#z c #000000",
"#O c #000000",
"#. c #000000",
"#l c #000000",
"## c #000000",
"#f c #000000",
"#e c #000000",
"#A c #000000",
"#m c #000000",
"#I c #000000",
"#J c #000000",
"#a c #000000",
"#n c #000000",
"#b c #000000",
"#c c #000000",
"#d c #000000",
"#o c #000000",
"#p c #000000",
"#q c #000000",
"#r c #000000",
"#s c #000000",
"#t c #000000",
"#u c #000000",
"#v c #000000",
"#B c #000000",
".y c #000003",
".e c #00000f",
".H c #00070c",
".m c #07050d",
".A c #141d32",
".k c #1baba8",
".G c #1e232c",
".h c #25424b",
".q c #280500",
".t c #2b2c38",
".w c #303a55",
".I c #362700",
".J c #3f4449",
".E c #4b5e7f",
".o c #4f211e",
".n c #4f5463",
".b c #52300c",
".s c #5b0a00",
".C c #684700",
".K c #6c7273",
".F c #708ea7",
".r c #757c87",
".u c #841914",
".i c #8b4435",
".# c #946230",
".L c #99a09e",
".D c #9e7b10",
".v c #b1b5be",
".g c #b5bfce",
".p c #c26552",
".x c #c91b26",
".a c #d1a049",
".B c #dfba18",
".M c #e2e5e5",
".c c #f0e883",
".j c #f2ffff",
".z c #f4fffe",
".f c #fd9370",
".l c #ffe5ba",
".d c #fffffa",
"QtQtQtQtQtQtQtQtQtQtQtQtQtQtQtQtQtQtQtQtQtQtQtQtQtQtQtQtQtQtQtQtQtQtQtQtQtQtQtQtQtQtQtQtQtQtQtQtQtQtQtQtQtQtQtQtQtQtQtQtQtQtQtQt",
"QtQtQtQtQtQtQtQtQtQtQtQtQtQtQtQtQtQtQtQtQtQtQtQtQtQtQtQtQtQtQtQtQtQtQtQtQtQtQtQtQtQtQtQtQtQtQtQtQtQtQtQtQtQtQtQtQtQtQtQtQtQtQtQt",
"QtQtQtQtQtQtQtQtQtQtQtQtQtQtQtQtQtQtQtQtQtQtQtQtQtQtQtQtQtQtQtQtQtQtQtQtQtQtQtQtQtQtQtQtQtQtQtQtQtQtQtQtQtQtQtQtQtQtQtQtQtQtQtQt",
"QtQtQtQtQtQtQtQtQtQtQtQtQtQtQtQtQtQtQtQtQtQtQtQtQtQtQtQt.#.a.#QtQtQtQtQtQtQtQtQtQtQtQtQtQtQtQtQtQtQtQtQtQtQtQtQtQtQtQtQtQtQtQtQt",
"QtQtQtQtQtQtQtQtQtQtQtQtQtQtQtQtQtQtQtQtQtQtQtQtQtQtQtQt.#.a.#.#.#.#QtQtQtQtQtQtQtQtQtQtQtQtQtQtQtQtQtQtQtQtQtQtQtQtQtQtQtQtQtQt",
"QtQtQtQtQtQtQtQtQtQtQtQtQtQtQtQtQtQtQtQtQtQtQtQtQtQt.#.#.b.b.a.#.#.#.a.#QtQtQtQtQtQtQtQtQtQtQtQtQtQtQtQtQtQtQtQtQtQtQtQtQtQtQtQt",
"QtQtQtQtQtQtQtQtQtQtQtQtQtQtQtQtQtQtQtQtQtQtQtQtQt.b.#.#.a.#.b.a.#.a.a.#.bQtQtQtQtQtQtQtQtQtQtQtQtQtQtQtQtQtQtQtQtQtQtQtQtQtQtQt",
"QtQtQtQtQtQtQtQtQtQtQtQtQtQtQtQtQtQtQtQtQtQtQtQt.b.b.#.a.c.a.#.a.a.c.a.a.b.bQtQtQtQtQtQtQtQtQtQtQtQtQtQtQtQtQtQtQtQtQtQtQtQtQtQt",
"QtQtQtQtQtQtQtQtQtQtQtQtQtQtQtQtQtQtQtQtQtQtQt.#.b.#.c.c.a.c.a.c.c.a.c.a.#.bQtQtQtQtQtQtQtQtQtQtQtQtQtQtQtQtQtQtQtQtQtQtQtQtQtQt",
"QtQtQtQtQtQtQtQtQtQtQtQtQtQtQtQtQtQtQtQtQtQtQt.#.#.a.c.a.d.a.c.c.a.d.a.#.a.#.#QtQtQtQtQtQtQtQtQtQtQtQtQtQtQtQtQtQtQtQtQtQtQtQtQt",
"QtQtQtQtQtQtQtQtQtQtQtQtQtQtQtQtQtQtQtQtQtQtQtQt.b.b.a.d.c.a.d.c.a.c.d.a.#.a.#.#QtQtQtQtQtQtQtQtQtQtQtQtQtQtQtQtQtQtQtQtQtQtQtQt",
"QtQtQtQtQtQtQtQtQtQtQtQtQtQtQtQtQtQtQtQtQtQtQt.a.#.a.c.c.a.#.d.d.#.a.c.a.b.#.a.#QtQtQtQtQtQtQtQtQtQtQtQtQtQtQtQtQtQtQtQtQtQtQtQt",
"QtQtQtQtQtQtQtQtQtQtQtQtQtQtQtQtQtQtQtQtQtQtQt.a.a.c.#.a.#.b.a.d.b.#.a.c.b.b.bQtQtQtQtQtQtQtQtQtQtQtQtQtQtQtQtQtQtQtQtQtQtQtQtQt",
"QtQtQtQtQtQtQtQtQtQtQtQtQtQtQtQtQtQtQtQtQtQtQt.b.b.b.a.a.e.e.#.c.f.e.e.a.b.a.bQtQtQtQtQtQtQtQtQtQtQtQtQtQtQtQtQtQtQtQtQtQtQtQtQt",
"QtQtQtQtQtQtQtQtQtQtQtQtQtQtQtQtQtQtQtQtQtQtQtQtQt.b.a.#.g.h.#.a.e.h.g.#.f.#.bQtQtQtQtQtQtQtQtQtQtQtQtQtQtQtQtQtQtQtQtQtQtQtQtQt",
"QtQtQtQtQtQtQtQtQtQtQtQtQtQtQtQtQtQtQtQtQtQtQtQtQt.#.a.i.j.k.l.#.l.k.j.b.f.b.#QtQtQtQtQtQtQtQtQtQtQtQtQtQtQtQtQtQtQtQtQtQtQtQtQt",
"QtQtQtQtQtQtQtQtQtQtQtQtQtQtQtQtQtQtQtQtQtQtQtQtQt.#.b.i.f.l.l.l.l.l.i.i.b.m.mQtQtQtQtQtQtQtQtQtQtQtQtQtQtQtQtQtQtQtQtQtQtQtQtQt",
"QtQtQtQtQtQtQtQtQtQtQtQtQtQtQtQtQtQtQtQtQtQtQtQt.m.m.n.o.p.l.l.l.l.l.p.o.q.n.m.mQtQtQtQtQtQtQtQtQtQtQtQtQtQtQtQtQtQtQtQtQtQtQtQt",
"QtQtQtQtQtQtQtQtQtQtQtQtQtQtQtQtQtQtQtQtQtQtQtQt.m.r.s.q.o.p.f.f.f.p.o.q.s.t.r.m.mQtQtQtQtQtQtQtQtQtQtQtQtQtQtQtQtQtQtQtQtQtQtQt",
"QtQtQtQtQtQtQtQtQtQtQtQtQtQtQtQtQtQtQtQtQtQtQt.m.r.s.u.s.t.o.i.i.i.o.t.q.u.s.t.v.mQtQtQtQtQtQtQtQtQtQtQtQtQtQtQtQtQtQtQtQtQtQtQt",
"QtQtQtQtQtQtQtQtQtQtQtQtQtQtQtQtQtQtQtQtQtQt.w.m.v.r.x.x.q.r.t.y.y.n.r.q.u.s.z.n.mQtQtQtQtQtQtQtQtQtQtQtQtQtQtQtQtQtQtQtQtQtQtQt",
"QtQtQtQtQtQtQtQtQtQtQtQtQtQtQtQtQtQtQtQtQt.w.w.m.n.v.z.x.u.r.t.y.y.n.r.s.x.z.n.m.AQtQtQtQtQtQtQtQtQtQtQtQtQtQtQtQtQtQtQtQtQtQtQt",
"QtQtQtQtQtQtQtQtQtQtQtQtQtQtQtQtQtQtQtQtQt.w.B.w.A.y.n.z.x.t.v.y.n.v.v.u.x.r.m.y.CQtQtQtQtQtQtQtQtQtQtQtQtQtQtQtQtQtQtQtQtQtQtQt",
"QtQtQtQtQtQtQtQtQtQtQtQtQtQtQtQtQtQtQtQtQt.D.B.w.w.A.y.v.x.u.y.n.v.t.q.x.z.n.y.A.yQtQtQtQtQtQtQtQtQtQtQtQtQtQtQtQtQtQtQtQtQtQtQt",
"QtQtQtQtQtQtQtQtQtQtQtQtQtQtQtQtQtQtQtQtQt.D.w.E.w.A.y.n.z.u.q.v.A.t.q.x.v.m.y.A.yQtQtQtQtQtQtQtQtQtQtQtQtQtQtQtQtQtQtQtQtQtQtQt",
"QtQtQtQtQtQtQtQtQtQtQtQtQtQtQtQtQtQtQtQtQt.w.E.E.w.A.m.y.z.u.q.t.n.t.q.u.r.m.A.A.A.yQtQtQtQtQtQtQtQtQtQtQtQtQtQtQtQtQtQtQtQtQtQt",
"QtQtQtQtQtQtQtQtQtQtQtQtQtQtQtQtQtQtQtQt.A.E.F.E.w.y.y.y.v.u.A.D.n.B.A.r.n.y.A.w.G.yQtQtQtQtQtQtQtQtQtQtQtQtQtQtQtQtQtQtQtQtQtQt",
"QtQtQtQtQtQtQtQtQtQtQtQtQtQtQtQtQtQtQtQt.A.F.F.E.A.y.y.A.n.r.A.t.n.n.A.z.m.m.A.w.w.y.tQtQtQtQtQtQtQtQtQtQtQtQtQtQtQtQtQtQtQtQtQt",
"QtQtQtQtQtQtQtQtQtQtQtQtQtQtQtQtQtQtQt.A.w.F.F.w.AQt.y.A.A.v.A.C.n.D.n.v.m.y.A.A.w.y.tQtQtQtQtQtQtQtQtQtQtQtQtQtQtQtQtQtQtQtQtQt",
"QtQtQtQtQtQtQtQtQtQtQtQtQtQtQtQtQtQtQt.A.E.F.E.w.yQt.y.A.A.v.t.n.n.A.r.n.m.H.t.n.r.n.HQtQtQtQtQtQtQtQtQtQtQtQtQtQtQtQtQtQtQtQtQt",
"QtQtQtQtQtQtQtQtQtQtQtQtQtQtQtQtQtQtQt.A.v.z.v.A.yQt.y.y.A.v.y.C.B.D.v.y.m.t.H.H.H.H.tQtQtQtQtQtQtQtQtQtQtQtQtQtQtQtQtQtQtQtQtQt",
"QtQtQtQtQtQtQtQtQtQtQtQtQtQtQtQtQtQtQt.r.w.E.w.n.mQt.t.y.A.r.y.I.C.I.v.y.m.H.m.t.n.t.yQtQtQtQtQtQtQtQtQtQtQtQtQtQtQtQtQtQtQtQtQt",
"QtQtQtQtQtQtQtQtQtQtQtQtQtQtQtQtQtQtQt.A.z.z.v.r.m.m.y.n.y.r.t.A.A.A.r.y.t.m.H.H.H.G.GQtQtQtQtQtQtQtQtQtQtQtQtQtQtQtQtQtQtQtQtQt",
"QtQtQtQtQtQtQtQtQtQtQtQtQtQtQtQtQtQtQt.v.y.A.y.y.n.y.m.y.n.r.A.C.D.D.r.n.y.H.m.G.H.G.HQtQtQtQtQtQtQtQtQtQtQtQtQtQtQtQtQtQtQtQtQt",
"QtQtQtQtQtQtQtQtQtQtQtQtQtQtQtQtQtQtQt.y.G.J.G.G.y.m.A.y.n.r.A.A.A.A.A.r.y.A.y.H.H.HQtQtQtQtQtQtQtQtQtQtQtQtQtQtQtQtQtQtQtQtQtQt",
"QtQtQtQtQtQtQtQtQtQtQtQtQtQtQtQtQtQtQt.y.J.K.J.K.y.y.A.y.n.n.C.A.A.A.I.r.A.A.yQtQtQtQtQtQtQtQtQtQtQtQtQtQtQtQtQtQtQtQtQtQtQtQtQt",
"QtQtQtQtQtQtQtQtQtQtQtQtQtQtQtQtQtQtQt.G.K.L.y.L.y.A.A.y.r.m.m.D.C.C.m.v.A.w.yQtQtQtQtQtQtQtQtQtQtQtQtQtQtQtQtQtQtQtQtQtQtQtQtQt",
"QtQtQtQtQtQtQtQtQtQtQtQtQtQtQtQtQtQtQt.y.K.L.y.J.y.A.A.y.r.m.A.A.m.m.A.v.y.w.A.yQtQtQtQtQtQtQtQtQtQtQtQtQtQtQtQtQtQtQtQtQtQtQtQt",
"QtQtQtQtQtQtQtQtQtQtQtQtQtQtQtQtQtQtQtQt.y.G.G.y.y.A.A.y.v.m.n.r.r.r.n.v.y.A.A.yQtQtQtQtQtQtQtQtQtQtQtQtQtQtQtQtQtQtQtQtQtQtQtQt",
"QtQtQtQtQtQtQtQtQtQtQtQtQtQtQtQtQtQtQtQtQtQtQtQt.A.A.A.y.v.A.m.m.m.m.m.r.r.A.w.G.yQtQtQtQtQtQtQtQtQtQtQtQtQtQtQtQtQtQtQtQtQtQtQt",
"QtQtQtQtQtQtQtQtQtQtQtQtQtQtQtQtQtQtQtQtQtQtQt.y.A.w.A.y.z.y.m.H.A.G.A.n.v.A.w.w.y.yQtQtQtQtQtQtQtQtQtQtQtQtQtQtQtQtQtQtQtQtQtQt",
"QtQtQtQtQtQtQtQtQtQtQtQtQtQtQtQtQtQtQtQtQtQtQt.y.G.w.G.y.z.A.m.m.A.w.A.H.v.y.w.w.A.yQtQtQtQtQtQtQtQtQtQtQtQtQtQtQtQtQtQtQtQtQtQt",
"QtQtQtQtQtQtQtQtQtQtQtQtQtQtQtQtQtQtQtQtQtQtQt.y.A.E.A.y.v.G.m.H.A.y.G.H.v.y.A.E.A.A.yQtQtQtQtQtQtQtQtQtQtQtQtQtQtQtQtQtQtQtQtQt",
"QtQtQtQtQtQtQtQtQtQtQtQtQtQtQtQtQtQtQtQtQtQt.y.A.w.E.A.r.r.G.m.y.y.K.J.G.r.r.A.E.w.A.y.tQtQtQtQtQtQtQtQtQtQtQtQtQtQtQtQtQtQtQtQt",
"QtQtQtQtQtQtQtQtQtQtQtQtQtQtQtQtQtQtQtQtQt.y.y.A.w.E.y.v.H.H.y.G.K.J.M.G.G.v.y.w.E.w.y.tQtQtQtQtQtQtQtQtQtQtQtQtQtQtQtQtQtQtQtQt",
"QtQtQtQtQtQtQtQtQtQtQtQtQtQtQtQtQtQtQtQt.n.y.A.w.E.w.y.z.G.H.H.J.G.L.M.J.G.r.r.A.E.w.y.nQtQtQtQtQtQtQtQtQtQtQtQtQtQtQtQtQtQtQtQt",
"QtQtQtQtQtQtQtQtQtQtQtQtQtQtQtQtQtQtQtQt.n.A.w.E.E.A.y.z.G.H.H.G.J.K.L.J.G.H.v.y.w.A.r.nQtQtQtQtQtQtQtQtQtQtQtQtQtQtQtQtQtQtQtQt",
"QtQtQtQtQtQtQtQtQtQtQtQtQtQtQtQtQtQtQtQt.n.y.w.w.E.A.y.v.H.H.H.H.G.J.K.J.H.H.r.r.A.y.r.tQtQtQtQtQtQtQtQtQtQtQtQtQtQtQtQtQtQtQtQt",
"QtQtQtQtQtQtQtQtQtQtQtQtQtQtQtQtQtQtQtQt.t.n.A.w.w.A.r.r.H.H.H.H.H.G.t.H.m.N.m.z.y.v.n.mQtQtQtQtQtQtQtQtQtQtQtQtQtQtQtQtQtQtQtQt",
"QtQtQtQtQtQtQtQtQtQtQtQtQtQtQtQtQt.N.N.N.t.t.n.r.r.r.v.G.G.H.H.G.G.J.J.G.G.O.P.v.v.r.t.N.NQtQtQtQtQtQtQtQtQtQtQtQtQtQtQtQtQtQtQt",
"QtQtQtQtQtQtQtQtQtQtQtQtQtQtQt.N.N.Q.P.R.m.t.t.t.n.v.z.G.G.H.H.H.J.L.K.K.J.S.T.m.z.r.m.P.Q.N.NQtQtQtQtQtQtQtQtQtQtQtQtQtQtQtQtQt",
"QtQtQtQtQtQtQtQtQtQtQtQtQtQt.N.Q.U.V.W.X.Y.m.t.G.n.v.z.H.H.y.H.H.G.G.J.G.Z.0.1.2.v.m.X.W.V.U.Q.NQtQtQtQtQtQtQtQtQtQtQtQtQtQtQtQt",
"QtQtQtQtQtQtQtQtQtQtQtQtQt.N.3.4.5.6.7.8.9#.##.m.t.r.z#a#b#c#d.H.J.L.K.J.H#e#f##.m.9.8.7.6#g.4.3.NQtQtQtQtQtQtQtQtQtQtQtQtQtQtQt",
"QtQtQtQtQtQtQtQtQtQtQtQt.N.Q#h#i#j#k#l#m#n#o#p#q#r#s#s#t#u#u#v.H.G.J.J.G.H#r#q#p#o#n#m#l#k#j#i#h.Q.NQtQtQtQtQtQtQtQtQtQtQtQtQtQt",
"QtQtQtQtQtQtQtQtQtQtQtQt.N#w#x#y#z#A#o#r#t#v#v#v#v#v#B#B#B#B#B.H.J.G.G.G.H.H#v#v#v#t#r#o#A#z#y#x#w.NQtQtQtQtQtQtQtQtQtQtQtQtQtQt",
"QtQtQtQtQtQtQtQtQtQtQtQt.N#w#C#y#z#m#o#r#t#v#v#v#v#v#B#B#B#B#B.H.K.L.L.L.K.H#v#v#v#t#r#o#m#z#D#C#w.NQtQtQtQtQtQtQtQtQtQtQtQtQtQt",
"QtQtQtQtQtQtQtQtQtQtQtQt.N#E#h#i#j#k#l#m#n#o#p#q#r#s#s#t#u#u#v.H.J.K.K.K.J.G#q#p#o#n#m#l#k#j#i#h#E.NQtQtQtQtQtQtQtQtQtQtQtQtQtQt",
"QtQtQtQtQtQtQtQtQtQtQtQtQt.N.3#F#g#G#j#H.9#.###f#e#I#J#a#b#d#d.m.G.H.H.H.G.G#f###..9#H#j#G#g#F.3.NQtQtQtQtQtQtQtQtQtQtQtQtQtQtQt",
"QtQtQtQtQtQtQtQtQtQtQtQtQtQt.N#E.R.V.W.X#K#L.2.1.0.Z#M#k#N#z#O#O.y.y.H.y.y.0.1.2#L#K.X.W.V.R#E.NQtQtQtQtQtQtQtQtQtQtQtQtQtQtQtQt",
"QtQtQtQtQtQtQtQtQtQtQtQtQtQtQt.N.N.Q.P.R#P#Q#R.T.S#S#T#U#V#W.Y.Y#W#V#U#T#S.S.T#R#Q#h.R.P.Q.N.NQtQtQtQtQtQtQtQtQtQtQtQtQtQtQtQtQt",
"QtQtQtQtQtQtQtQtQtQtQtQtQtQtQtQtQt.N.N.N#X.Q.3.P.O.R#Y#Z#Z#Z#0#0#Z#Z#Z#Y.R.O.P.3.Q#X.N.N.NQtQtQtQtQtQtQtQtQtQtQtQtQtQtQtQtQtQtQt",
"QtQtQtQtQtQtQtQtQtQtQtQtQtQtQtQtQtQtQtQtQt.N.N.N.N.N.N.N.N.N.N.N.N.N.N.N.N.N.N.N.NQtQtQtQtQtQtQtQtQtQtQtQtQtQtQtQtQtQtQtQtQtQtQt",
"QtQtQtQtQtQtQtQtQtQtQtQtQtQtQtQtQtQtQtQtQtQtQtQtQtQtQtQtQtQtQtQtQtQtQtQtQtQtQtQtQtQtQtQtQtQtQtQtQtQtQtQtQtQtQtQtQtQtQtQtQtQtQtQt",
"QtQtQtQtQtQtQtQtQtQtQtQtQtQtQtQtQtQtQtQtQtQtQtQtQtQtQtQtQtQtQtQtQtQtQtQtQtQtQtQtQtQtQtQtQtQtQtQtQtQtQtQtQtQtQtQtQtQtQtQtQtQtQtQt"};
