/* XPM */
static char *dummy[]={
"64 64 114 2",
"Qt c None",
".K c #000000",
"#S c #000000",
".M c #000000",
"#v c #000000",
".3 c #000000",
"#m c #000000",
".N c #000000",
"#T c #000000",
".U c #000000",
".O c #000000",
"#U c #000000",
"#V c #000000",
".L c #000000",
"#M c #000000",
"#c c #000000",
".4 c #000000",
"#w c #000000",
".V c #000000",
"#N c #000000",
"#n c #000000",
"#t c #000000",
"#O c #000000",
".W c #000000",
"#P c #000000",
".5 c #000000",
"#x c #000000",
"#Q c #000000",
".X c #000000",
"#R c #000000",
"#d c #000000",
".T c #000000",
".S c #000000",
".R c #000000",
".Q c #000000",
".P c #000000",
"#F c #000000",
".6 c #000000",
"#y c #000000",
"#G c #000000",
"#o c #000000",
"#u c #000000",
"#H c #000000",
".7 c #000000",
"#e c #000000",
"#I c #000000",
"#J c #000000",
".8 c #000000",
"#z c #000000",
"#K c #000000",
".2 c #000000",
".1 c #000000",
".0 c #000000",
"#L c #000000",
".Z c #000000",
".Y c #000000",
"#A c #000000",
"#f c #000000",
"#B c #000000",
"#E c #000000",
"#D c #000000",
"#p c #000000",
"#g c #000000",
"#C c #000000",
"#b c #000000",
"#a c #000000",
"#h c #000000",
"## c #000000",
"#. c #000000",
".9 c #000000",
"#q c #000000",
"#r c #000000",
"#l c #000000",
"#k c #000000",
"#i c #000000",
"#j c #000000",
"#s c #000000",
".I c #000000",
".l c #000003",
".E c #00070c",
".o c #07050d",
".r c #141d32",
".j c #1baba8",
".f c #1c0000",
".q c #1e232c",
".h c #25424b",
".J c #280500",
".s c #2b2c38",
".y c #303a55",
".G c #3f4449",
".B c #4b5e7f",
".n c #4f211e",
".t c #4f5463",
".b c #52300c",
".x c #5b0a00",
".C c #684700",
".F c #6c7273",
".D c #708ea7",
".u c #757c87",
".m c #8b4435",
".# c #946230",
".H c #99a09e",
".z c #9e7b10",
".v c #b1b5be",
".g c #b5bfce",
".p c #c26552",
".a c #d1a049",
".A c #dfba18",
".c c #f0e883",
".i c #f2ffff",
".w c #f4fffe",
".e c #fd9370",
".k c #ffe5ba",
".d c #fffffa",
"QtQtQtQtQtQtQtQtQtQtQtQtQtQtQtQtQtQtQtQtQtQtQtQtQtQtQtQtQtQtQtQtQtQtQtQtQtQtQtQtQtQtQtQtQtQtQtQtQtQtQtQtQtQtQtQtQtQtQtQtQtQtQtQt",
"QtQtQtQtQtQtQtQtQtQtQtQtQtQtQtQtQtQtQtQtQtQtQtQtQtQtQtQtQtQtQtQtQtQtQtQtQtQtQtQtQtQtQtQtQtQtQtQtQtQtQtQtQtQtQtQtQtQtQtQtQtQtQtQt",
"QtQtQtQtQtQtQtQtQtQtQtQtQtQtQtQtQtQtQtQtQtQtQtQtQtQtQtQtQtQtQtQtQtQtQtQtQtQtQtQtQtQtQtQtQtQtQtQtQtQtQtQtQtQtQtQtQtQtQtQtQtQtQtQt",
"QtQtQtQtQtQtQtQtQtQtQtQtQtQtQtQtQtQtQtQtQtQtQtQtQtQtQtQtQtQtQtQtQt.#.aQtQtQtQtQtQtQtQtQtQtQtQtQtQtQtQtQtQtQtQtQtQtQtQtQtQtQtQtQt",
"QtQtQtQtQtQtQtQtQtQtQtQtQtQtQtQtQtQtQtQtQtQtQtQtQtQtQtQtQtQt.#.#.#.#.a.bQtQtQtQtQtQtQtQtQtQtQtQtQtQtQtQtQtQtQtQtQtQtQtQtQtQtQtQt",
"QtQtQtQtQtQtQtQtQtQtQtQtQtQtQtQtQtQtQtQtQtQtQtQtQtQtQtQt.#.a.#.#.#.a.b.b.#.bQtQtQtQtQtQtQtQtQtQtQtQtQtQtQtQtQtQtQtQtQtQtQtQtQtQt",
"QtQtQtQtQtQtQtQtQtQtQtQtQtQtQtQtQtQtQtQtQtQtQtQtQtQtQt.#.#.a.a.a.#.#.a.#.#.b.bQtQtQtQtQtQtQtQtQtQtQtQtQtQtQtQtQtQtQtQtQtQtQtQtQt",
"QtQtQtQtQtQtQtQtQtQtQtQtQtQtQtQtQtQtQtQtQtQtQtQtQtQt.#.#.a.c.a.c.a.a.a.c.a.#.bQtQtQtQtQtQtQtQtQtQtQtQtQtQtQtQtQtQtQtQtQtQtQtQtQt",
"QtQtQtQtQtQtQtQtQtQtQtQtQtQtQtQtQtQtQtQtQtQtQtQtQtQt.#.c.c.a.c.c.a.c.a.c.c.d.a.#QtQtQtQtQtQtQtQtQtQtQtQtQtQtQtQtQtQtQtQtQtQtQtQt",
"QtQtQtQtQtQtQtQtQtQtQtQtQtQtQtQtQtQtQtQtQtQtQtQtQt.b.a.c.a.a.c.a.c.c.a.c.a.c.d.#QtQtQtQtQtQtQtQtQtQtQtQtQtQtQtQtQtQtQtQtQtQtQtQt",
"QtQtQtQtQtQtQtQtQtQtQtQtQtQtQtQtQtQtQtQtQtQtQtQtQt.b.a.#.#.a.#.c.d.a.#.c.d.a.a.c.aQtQtQtQtQtQtQtQtQtQtQtQtQtQtQtQtQtQtQtQtQtQtQt",
"QtQtQtQtQtQtQtQtQtQtQtQtQtQtQtQtQtQtQtQtQtQtQtQt.#.a.#.b.a.a.#.d.c.#.b.#.c.d.#.a.aQtQtQtQtQtQtQtQtQtQtQtQtQtQtQtQtQtQtQtQtQtQtQt",
"QtQtQtQtQtQtQtQtQtQtQtQtQtQtQtQtQtQtQtQtQtQtQtQt.#.b.b.#.a.#.a.c.a.#.e.b.a.d.b.bQtQtQtQtQtQtQtQtQtQtQtQtQtQtQtQtQtQtQtQtQtQtQtQt",
"QtQtQtQtQtQtQtQtQtQtQtQtQtQtQtQtQtQtQtQtQtQtQtQt.#.#.#.b.#.b.a.a.b.f.f.e.#.c.bQtQtQtQtQtQtQtQtQtQtQtQtQtQtQtQtQtQtQtQtQtQtQtQtQt",
"QtQtQtQtQtQtQtQtQtQtQtQtQtQtQtQtQtQtQtQtQtQtQtQt.#.b.b.b.#.e.#.a.b.g.h.f.b.a.bQtQtQtQtQtQtQtQtQtQtQtQtQtQtQtQtQtQtQtQtQtQtQtQtQt",
"QtQtQtQtQtQtQtQtQtQtQtQtQtQtQtQtQtQtQtQtQtQtQtQtQtQt.b.b.#.e.b.#.e.i.j.k.e.bQtQtQtQtQtQtQtQtQtQtQtQtQtQtQtQtQtQtQtQtQtQtQtQtQtQt",
"QtQtQtQtQtQtQtQtQtQtQtQtQtQtQtQtQtQtQtQtQtQtQtQtQt.l.l.b.b.m.m.b.k.k.k.k.k.nQtQtQtQtQtQtQtQtQtQtQtQtQtQtQtQtQtQtQtQtQtQtQtQtQtQt",
"QtQtQtQtQtQtQtQtQtQtQtQtQtQtQtQtQtQtQtQtQtQtQtQtQt.l.o.l.b.b.m.p.k.k.k.k.p.nQtQtQtQtQtQtQtQtQtQtQtQtQtQtQtQtQtQtQtQtQtQtQtQtQtQt",
"QtQtQtQtQtQtQtQtQtQtQtQtQtQtQtQtQtQtQtQtQtQtQtQtQt.l.q.r.l.l.b.m.p.e.e.p.n.sQtQtQtQtQtQtQtQtQtQtQtQtQtQtQtQtQtQtQtQtQtQtQtQtQtQt",
"QtQtQtQtQtQtQtQtQtQtQtQtQtQtQtQtQtQtQtQtQtQtQtQtQtQt.l.r.t.t.u.v.w.u.m.n.x.sQtQtQtQtQtQtQtQtQtQtQtQtQtQtQtQtQtQtQtQtQtQtQtQtQtQt",
"QtQtQtQtQtQtQtQtQtQtQtQtQtQtQtQtQtQtQtQtQtQtQtQtQtQt.l.o.l.l.r.r.r.w.u.s.t.oQtQtQtQtQtQtQtQtQtQtQtQtQtQtQtQtQtQtQtQtQtQtQtQtQtQt",
"QtQtQtQtQtQtQtQtQtQtQtQtQtQtQtQtQtQtQtQtQtQtQtQtQtQt.l.r.r.r.y.y.r.u.v.t.s.oQtQtQtQtQtQtQtQtQtQtQtQtQtQtQtQtQtQtQtQtQtQtQtQtQtQt",
"QtQtQtQtQtQtQtQtQtQtQtQtQtQtQtQtQtQtQtQtQtQtQtQtQtQt.l.r.r.z.A.z.r.l.w.u.o.oQtQtQtQtQtQtQtQtQtQtQtQtQtQtQtQtQtQtQtQtQtQtQtQtQtQt",
"QtQtQtQtQtQtQtQtQtQtQtQtQtQtQtQtQtQtQtQtQtQtQtQtQtQt.l.r.r.z.A.A.B.l.w.t.o.sQtQtQtQtQtQtQtQtQtQtQtQtQtQtQtQtQtQtQtQtQtQtQtQtQtQt",
"QtQtQtQtQtQtQtQtQtQtQtQtQtQtQtQtQtQtQtQtQtQtQtQtQtQt.l.r.r.y.z.A.B.r.w.s.s.tQtQtQtQtQtQtQtQtQtQtQtQtQtQtQtQtQtQtQtQtQtQtQtQtQtQt",
"QtQtQtQtQtQtQtQtQtQtQtQtQtQtQtQtQtQtQtQtQtQtQtQtQtQt.l.l.l.y.B.B.B.y.v.s.C.tQtQtQtQtQtQtQtQtQtQtQtQtQtQtQtQtQtQtQtQtQtQtQtQtQtQt",
"QtQtQtQtQtQtQtQtQtQtQtQtQtQtQtQtQtQtQtQtQtQtQtQtQtQtQt.l.l.y.y.y.B.y.r.C.s.sQtQtQtQtQtQtQtQtQtQtQtQtQtQtQtQtQtQtQtQtQtQtQtQtQtQt",
"QtQtQtQtQtQtQtQtQtQtQtQtQtQtQtQtQtQtQtQtQtQtQtQtQtQt.l.l.r.r.y.y.y.y.u.t.CQtQtQtQtQtQtQtQtQtQtQtQtQtQtQtQtQtQtQtQtQtQtQtQtQtQtQt",
"QtQtQtQtQtQtQtQtQtQtQtQtQtQtQtQtQtQtQtQtQtQtQtQtQtQt.l.r.r.o.r.y.y.y.B.r.oQtQtQtQtQtQtQtQtQtQtQtQtQtQtQtQtQtQtQtQtQtQtQtQtQtQtQt",
"QtQtQtQtQtQtQtQtQtQtQtQtQtQtQtQtQtQtQtQtQtQtQtQtQtQt.l.l.l.l.l.r.y.B.D.B.r.uQtQtQtQtQtQtQtQtQtQtQtQtQtQtQtQtQtQtQtQtQtQtQtQtQtQt",
"QtQtQtQtQtQtQtQtQtQtQtQtQtQtQtQtQtQtQtQtQtQtQtQtQtQt.l.l.l.o.l.l.y.B.D.D.y.uQtQtQtQtQtQtQtQtQtQtQtQtQtQtQtQtQtQtQtQtQtQtQtQtQtQt",
"QtQtQtQtQtQtQtQtQtQtQtQtQtQtQtQtQtQtQtQtQtQtQtQtQtQt.l.t.t.l.l.l.r.y.B.B.v.y.tQtQtQtQtQtQtQtQtQtQtQtQtQtQtQtQtQtQtQtQtQtQtQtQtQt",
"QtQtQtQtQtQtQtQtQtQtQtQtQtQtQtQtQtQtQtQtQtQtQtQtQtQt.l.l.t.t.t.t.t.u.v.w.y.u.tQtQtQtQtQtQtQtQtQtQtQtQtQtQtQtQtQtQtQtQtQtQtQtQtQt",
"QtQtQtQtQtQtQtQtQtQtQtQtQtQtQtQtQtQtQtQtQtQtQtQtQt.l.l.o.r.r.o.l.l.l.r.y.v.t.EQtQtQtQtQtQtQtQtQtQtQtQtQtQtQtQtQtQtQtQtQtQtQtQtQt",
"QtQtQtQtQtQtQtQtQtQtQtQtQtQtQtQtQtQtQtQtQtQtQtQtQt.l.o.E.o.l.l.r.t.t.u.v.E.q.s.EQtQtQtQtQtQtQtQtQtQtQtQtQtQtQtQtQtQtQtQtQtQtQtQt",
"QtQtQtQtQtQtQtQtQtQtQtQtQtQtQtQtQtQtQtQtQtQtQtQtQt.l.r.l.r.q.r.r.u.E.E.E.q.q.F.EQtQtQtQtQtQtQtQtQtQtQtQtQtQtQtQtQtQtQtQtQtQtQtQt",
"QtQtQtQtQtQtQtQtQtQtQtQtQtQtQtQtQtQtQtQtQtQtQtQt.l.r.r.l.r.y.r.r.u.E.q.G.G.q.H.EQtQtQtQtQtQtQtQtQtQtQtQtQtQtQtQtQtQtQtQtQtQtQtQt",
"QtQtQtQtQtQtQtQtQtQtQtQtQtQtQtQtQtQtQtQtQtQtQtQt.l.r.r.r.y.y.r.r.u.o.E.F.F.G.EQtQtQtQtQtQtQtQtQtQtQtQtQtQtQtQtQtQtQtQtQtQtQtQtQt",
"QtQtQtQtQtQtQtQtQtQtQtQtQtQtQtQtQtQtQtQtQtQtQt.l.r.r.r.y.y.y.y.r.v.o.s.o.E.E.lQtQtQtQtQtQtQtQtQtQtQtQtQtQtQtQtQtQtQtQtQtQtQtQtQt",
"QtQtQtQtQtQtQtQtQtQtQtQtQtQtQtQtQtQtQtQtQtQtQt.l.q.y.r.y.B.y.y.r.v.s.l.E.o.r.l.lQtQtQtQtQtQtQtQtQtQtQtQtQtQtQtQtQtQtQtQtQtQtQtQt",
"QtQtQtQtQtQtQtQtQtQtQtQtQtQtQtQtQtQtQtQtQtQt.l.r.y.r.y.B.B.y.y.r.v.y.r.o.l.r.r.lQtQtQtQtQtQtQtQtQtQtQtQtQtQtQtQtQtQtQtQtQtQtQtQt",
"QtQtQtQtQtQtQtQtQtQtQtQtQtQtQtQtQtQtQtQtQt.l.l.y.r.y.y.B.B.B.y.u.u.y.l.o.r.r.r.lQtQtQtQtQtQtQtQtQtQtQtQtQtQtQtQtQtQtQtQtQtQtQtQt",
"QtQtQtQtQtQtQtQtQtQtQtQtQtQtQtQtQtQtQtQtQt.l.r.B.y.y.B.B.B.B.y.v.y.r.o.E.r.r.r.l.lQtQtQtQtQtQtQtQtQtQtQtQtQtQtQtQtQtQtQtQtQtQtQt",
"QtQtQtQtQtQtQtQtQtQtQtQtQtQtQtQtQtQtQtQt.l.q.B.y.y.y.B.B.B.B.y.w.y.o.l.o.r.r.r.r.lQtQtQtQtQtQtQtQtQtQtQtQtQtQtQtQtQtQtQtQtQtQtQt",
"QtQtQtQtQtQtQtQtQtQtQtQtQtQtQtQtQtQtQt.l.l.q.y.r.y.B.D.B.B.B.u.v.l.o.I.l.o.r.r.l.F.FQtQtQtQtQtQtQtQtQtQtQtQtQtQtQtQtQtQtQtQtQtQt",
"QtQtQtQtQtQtQtQtQtQtQtQtQtQtQtQtQtQtQt.l.r.y.r.y.B.B.D.D.B.y.w.F.G.J.o.l.o.l.q.H.G.FQtQtQtQtQtQtQtQtQtQtQtQtQtQtQtQtQtQtQtQtQtQt",
"QtQtQtQtQtQtQtQtQtQtQtQtQtQtQtQtQtQtQt.s.r.r.r.B.B.D.D.D.B.y.w.G.J.f.o.o.l.s.G.q.H.FQtQtQtQtQtQtQtQtQtQtQtQtQtQtQtQtQtQtQtQtQtQt",
"QtQtQtQtQtQtQtQtQtQtQtQtQtQtQtQtQtQtQt.o.t.r.y.B.D.D.D.B.B.u.v.l.f.f.l.q.q.G.q.G.F.GQtQtQtQtQtQtQtQtQtQtQtQtQtQtQtQtQtQtQtQtQtQt",
"QtQtQtQtQtQtQtQtQtQtQtQtQtQtQtQtQtQtQt.o.s.u.r.y.B.B.B.B.y.w.u.J.J.J.f.o.I.E.E.E.q.EQtQtQtQtQtQtQtQtQtQtQtQtQtQtQtQtQtQtQtQtQtQt",
"QtQtQtQtQtQtQtQtQtQtQtQtQtQtQtQtQt.K.K.o.s.t.u.v.u.u.u.v.v.w.L.L.J.J.J.I.E.E.q.G.G.E.K.K.KQtQtQtQtQtQtQtQtQtQtQtQtQtQtQtQtQtQtQt",
"QtQtQtQtQtQtQtQtQtQtQtQtQtQtQt.K.K.M.N.O.o.t.t.t.u.u.u.u.v.w.P.P.Q.R.S.T.E.E.E.E.q.E.E.N.M.K.KQtQtQtQtQtQtQtQtQtQtQtQtQtQtQtQtQt",
"QtQtQtQtQtQtQtQtQtQtQtQtQtQt.K.M.U.V.W.X.o.s.t.t.t.u.u.u.u.w.Y.Y.Z.0.1.2.E.E.E.q.G.G.E.q.q.o.M.KQtQtQtQtQtQtQtQtQtQtQtQtQtQtQtQt",
"QtQtQtQtQtQtQtQtQtQtQtQtQt.K.3.4.5.6.7.8.0.o.s.s.s.s.t.t.t.u.9.9#.###a#b.l.E.E.E.E.E.E.q.q.E.4.3.KQtQtQtQtQtQtQtQtQtQtQtQtQtQtQt",
"QtQtQtQtQtQtQtQtQtQtQtQt.K.M#c#d#e.1#f#g#h.l.E.o.o.o.o.o.o#i#j#j#i#i#k#l#l.E.E.q.q.s.G.G.G.E#d#c.M.KQtQtQtQtQtQtQtQtQtQtQtQtQtQt",
"QtQtQtQtQtQtQtQtQtQtQtQt.K#m#n#o.Z#p#q#r#k.E.E.E.E.E.E.q.q.l#s#s#s#s#s#s#j.E.E.q.q.q.q.q.q.o#o#n#m.KQtQtQtQtQtQtQtQtQtQtQtQtQtQt",
"QtQtQtQtQtQtQtQtQtQtQtQt.K#m#t#o.Z#g#q#r#k.E.E.E.q.q.G.G.G.l#s#s#s#s#s#s#j.E.E.E.E.q.E.l.l.Z#u#t#m.KQtQtQtQtQtQtQtQtQtQtQtQtQtQt",
"QtQtQtQtQtQtQtQtQtQtQtQt.K#v#c#d#e.1#f#g#h.l.E.E.E.E.q.q.G.l#j#j#i#i#k#l#l.l.l.E.l.l#g#f.1#e#d#c#v.KQtQtQtQtQtQtQtQtQtQtQtQtQtQt",
"QtQtQtQtQtQtQtQtQtQtQtQtQt.K.3#w#x#y#e#z.0#A#B.l.E.l.E.o.q.q.9.9.9###a#b#C#D#E#B#A.0#z#e#y#x#w.3.KQtQtQtQtQtQtQtQtQtQtQtQtQtQtQt",
"QtQtQtQtQtQtQtQtQtQtQtQtQtQt.K#v.O.V.W.X#F#G#H#I#J#K.2.1#L.Z.Y.Y.Z#L.1.2#K#J#I#H#G#F.X.W.V.O#v.KQtQtQtQtQtQtQtQtQtQtQtQtQtQtQtQt",
"QtQtQtQtQtQtQtQtQtQtQtQtQtQtQt.K.K.M.N.O#M#N#O#P#Q#R.T.S.R.Q.P.P.Q.R.S.T#R#Q#P#O#N#c.O.N.M.K.KQtQtQtQtQtQtQtQtQtQtQtQtQtQtQtQtQt",
"QtQtQtQtQtQtQtQtQtQtQtQtQtQtQtQtQt.K.K.K#S.M.3.N#T.O#U#V#V#V.L.L#V#V#V#U.O#T.N.3.M#S.K.K.KQtQtQtQtQtQtQtQtQtQtQtQtQtQtQtQtQtQtQt",
"QtQtQtQtQtQtQtQtQtQtQtQtQtQtQtQtQtQtQtQtQt.K.K.K.K.K.K.K.K.K.K.K.K.K.K.K.K.K.K.K.KQtQtQtQtQtQtQtQtQtQtQtQtQtQtQtQtQtQtQtQtQtQtQt",
"QtQtQtQtQtQtQtQtQtQtQtQtQtQtQtQtQtQtQtQtQtQtQtQtQtQtQtQtQtQtQtQtQtQtQtQtQtQtQtQtQtQtQtQtQtQtQtQtQtQtQtQtQtQtQtQtQtQtQtQtQtQtQtQt",
"QtQtQtQtQtQtQtQtQtQtQtQtQtQtQtQtQtQtQtQtQtQtQtQtQtQtQtQtQtQtQtQtQtQtQtQtQtQtQtQtQtQtQtQtQtQtQtQtQtQtQtQtQtQtQtQtQtQtQtQtQtQtQtQt"};
