/* XPM */
static char *dummy[]={
"128 64 132 2",
"#U c #000000",
"#n c #000003",
"#I c #00070c",
"#q c #07050d",
"#s c #141d32",
"#h c #1baba8",
"#d c #1c0000",
"#G c #1e232c",
"#e c #25424b",
"#p c #2b2c38",
"#z c #303a55",
".7 c #383f4a",
".g c #383f4b",
"#O c #383f4c",
".6 c #38404c",
".e c #393f4b",
"Qt c #3a404b",
".h c #3a404c",
"#0 c #3d4046",
".d c #3d4047",
".f c #3f4148",
"#L c #3f4449",
".i c #404248",
"#8 c #424349",
".# c #434245",
"aa c #43434a",
"#5 c #44434a",
".j c #44444b",
"#X c #46413d",
".a c #46413e",
".t c #474242",
"a# c #474548",
".k c #47464d",
"#Z c #494649",
"#E c #4a4138",
".b c #4a423a",
".u c #4a433e",
"ab c #4b4440",
".l c #4b4951",
"#A c #4b5e7f",
".c c #4c423a",
".m c #4d484c",
".w c #4e4541",
"#k c #4f211e",
"#R c #4f443c",
"#u c #4f5463",
"#1 c #50443c",
"#W c #50453d",
"a. c #51453d",
".T c #514743",
".F c #52300c",
"#3 c #53463f",
".H c #54473f",
"#Y c #544845",
".n c #544946",
".q c #554840",
".v c #554a47",
".p c #584a43",
".o c #584a44",
"#9 c #584a47",
".G c #584d4d",
".x c #5a4d4b",
"#r c #5b0a00",
"#S c #5b4b44",
"#6 c #5b4c48",
"#T c #5c4b43",
"#V c #5d4b43",
"#. c #5e4d45",
"#7 c #5e4d48",
"#4 c #5f4f4d",
".8 c #614d45",
".y c #61514f",
"#j c #635049",
".9 c #644f48",
"#2 c #645352",
".z c #655451",
".I c #66514a",
"#a c #67524b",
".U c #67544f",
"#D c #684700",
"#H c #68524b",
".1 c #68534c",
"#F c #69534d",
".0 c #69544d",
".R c #6c564f",
".3 c #6c5650",
".A c #6c5959",
"#N c #6c7273",
"#o c #6d5650",
"#c c #6e5651",
".2 c #6e5751",
".J c #6f5750",
".5 c #6f5a56",
".S c #705853",
".C c #705c5c",
".B c #705c5d",
"#M c #708ea7",
".D c #715c5b",
".K c #725a55",
"#K c #735a54",
".Q c #745b56",
".E c #745d59",
"#J c #755c57",
"#t c #757c87",
".V c #785e5a",
".Y c #7a5f5b",
".W c #7a605b",
".X c #7a605c",
"## c #7c615d",
"#v c #7d625e",
".L c #7e625e",
".P c #826663",
".N c #836663",
".O c #836764",
"#w c #841914",
".M c #846763",
"#m c #8b4435",
".s c #946230",
"#P c #99a09e",
"#B c #9e7b10",
"#x c #b1b5be",
"#f c #b5bfce",
"#l c #c26552",
".r c #d1a049",
"#C c #dfba18",
"#Q c #e2e5e5",
".Z c #f0e883",
"#i c #f2ffff",
"#y c #f4fffe",
"#b c #fd9370",
"#g c #ffe5ba",
".4 c #fffffa",
"QtQtQtQtQtQtQtQtQtQtQtQtQtQtQtQtQtQtQt.#.a.b.b.b.b.b.b.c.b.b.b.b.b.b.b.a.d.e.f.g.f.e.h.hQtQt.f.gQt.f.e.h.f.gQtQtQtQt.f.d.a.c.c.bQtQtQtQtQtQtQtQtQtQtQtQtQtQtQtQtQtQtQt.#.a.b.b.b.b.b.b.c.b.b.b.b.b.b.b.a.d.e.f.g.f.e.h.hQtQt.f.gQt.f.e.h.f.gQtQtQtQt.f.d.a.c.c.b",
"QtQtQtQtQtQtQt.gQt.gQt.g.gQt.g.g.g.g.g.d.a.b.b.b.b.b.b.b.b.b.b.b.b.b.b.a.e.e.g.g.g.g.e.gQt.g.g.g.g.g.e.e.g.g.g.g.gQt.g.d.a.c.c.cQtQtQtQtQtQtQt.gQt.gQt.g.gQt.g.g.g.g.g.d.a.b.b.b.b.b.b.b.b.b.b.b.b.b.b.a.e.e.g.g.g.g.e.gQt.g.g.g.g.g.e.e.g.g.g.g.gQt.g.d.a.c.c.c",
".h.hQtQtQt.g.gQt.gQtQt.g.g.g.g.g.g.g.g.d.a.b.b.b.b.b.b.b.b.b.b.b.b.b.b.a.e.g.g.g.g.g.g.g.g.g.g.g.g.g.e.e.g.g.g.g.g.g.g.d.a.c.c.c.h.hQtQtQt.g.gQt.gQtQt.g.g.g.g.g.g.g.g.d.a.b.b.b.b.b.b.b.b.b.b.b.b.b.b.a.e.g.g.g.g.g.g.g.g.g.g.g.g.g.e.e.g.g.g.g.g.g.g.d.a.c.c.c",
".d.d.d.i.j.j.k.k.k.l.l.l.m.l.l.m.l.l.l.m.n.o.p.o.o.o.q.p.o.o.o.o.o.o.p.n.r.s.l.l.l.l.l.l.l.l.l.l.l.l.l.l.l.l.l.l.k.k.k.j.t.a.u.a.d.d.d.i.j.j.k.k.k.l.l.l.m.l.l.m.l.l.l.m.n.o.p.o.o.o.q.p.o.o.o.o.o.o.p.n.v.l.l.l.l.l.l.l.l.l.l.l.l.l.l.l.l.l.l.l.k.k.k.j.t.a.u.a",
".u.a.a.w.x.y.y.z.A.B.B.B.A.B.B.B.B.C.C.D.D.E.E.E.E.E.E.E.E.E.E.E.E.E.E.F.r.s.s.s.s.B.B.B.B.B.B.A.C.C.B.B.B.B.B.A.z.y.y.G.j.d.d.d.u.a.a.w.x.y.y.z.A.B.B.B.A.B.B.B.B.C.C.D.D.E.E.E.E.E.E.E.E.E.E.E.E.E.E.E.B.C.C.C.A.B.B.B.B.B.B.A.C.C.B.B.B.B.B.A.z.y.y.G.j.d.d.d",
".c.b.b.H.I.J.J.K.L.M.M.N.O.O.O.O.N.M.N.N.M.P.P.P.P.P.O.P.P.P.P.P.P.F.s.F.F.r.s.s.s.r.s.P.M.O.O.N.N.N.N.M.N.M.O.L.Q.J.J.y.k.gQtQt.c.b.b.H.I.J.J.K.L.M.M.N.O.O.O.O.N.M.N.N.M.P.P.P.P.P.O.P.P.P.P.P.P.P.P.O.M.M.N.M.N.N.O.P.M.O.O.N.N.N.N.M.N.M.O.L.Q.J.J.y.k.gQtQt",
".c.c.b.H.I.J.R.K.L.M.N.N.N.N.M.M.O.N.N.N.N.N.P.P.P.P.P.P.P.P.P.P.F.F.s.s.r.s.s.r.r.r.s.s.N.N.N.N.N.P.P.N.N.N.N.L.S.R.R.y.kQtQt.h.c.c.b.H.I.J.R.K.L.M.N.N.N.N.M.M.O.N.N.N.N.N.P.P.P.P.P.P.P.P.P.P.P.P.P.P.N.N.N.N.N.N.N.N.N.N.N.N.N.P.P.N.N.N.N.L.S.R.R.y.kQtQt.h",
".a.a.a.T.U.K.K.Q.V.W.W.W.W.W.W.W.X.Y.V.Y.X.L.X.L.Y.Y.Y.Y.Y.Y.Y.Y.F.s.r.Z.r.r.r.Z.r.Z.r.s.s.L.L.X.Y.Y.Y.X.L.L.X.V.Q.Q.K.z.k.g.gQt.a.a.a.T.U.K.K.Q.V.W.W.W.W.W.W.W.X.Y.V.Y.X.L.X.L.Y.Y.Y.Y.Y.Y.Y.Y.Y.Y.Y.Y.Y.L.Y.L.L.X.L.X.L.L.L.X.Y.Y.Y.X.L.L.X.V.Q.Q.K.z.k.g.gQt",
".d.d.d.m.A.L.L.V.J.0.0.0.0.0.0.0.1.1.0.J.2.K.K.S.3.1.1.1.1.1.1.s.r.4.Z.Z.r.Z.r.Z.Z.r.Z.Z.s.K.K.5.3.1.1.3.J.K.K.K.Y.P.L.A.k.g.g.f.d.d.d.m.A.L.L.V.J.0.0.0.0.0.0.0.1.1.0.J.2.K.K.S.3.1.1.1.1.1.1.1.1.1.0.J.K.K.K.K.K.K.K.K.K.K.K.5.3.1.1.3.J.K.K.K.Y.P.L.A.k.g.g.f",
"Qt.6.7.l.B.M.N.W.1.8.8.8.8.8.8.8.8.8.8.9.1.J.J.z.9.8.9.8.9.8.9.s.4.Z.r.Z.r.Z.Z.r.Z.r.r.Z.r.F.3.1.9.8.8.9.1.3.J.K.Y.P.N.D.l.g.e.eQt.6.7.l.B.M.N.W.1.8.8.8.8.8.8.8.8.8.8.9.1.J.J.z.9.8.9.8.9.8.9.8.8.8.8.9.z.3.J.0.J.3.3.3.3.3.3.1.9.8.8.9.1.3.J.K.Y.P.N.D.l.g.e.e",
"QtQt.7.l.B.M.N.W.0.8.8.8.8.8.8.8.8.8#..9.3.J.3.1.9.8#..8.8.8.r.Z.r.r.4.Z.s.r.4.Z.s.r.s.s.r.F.J.z.9.8#..9.3.3.0.K##.N.M.D.l.e.e.eQtQt.7.l.B.M.N.W.0.8.8.8.8.8.8.8.8.8#..9.3.J.3.1.9.8#..8.8.8.8.8.8.8.8.9#a.J.3.3.3.3.3.3.3.3.J.z.9.8#..9.3.3.0.K##.N.M.D.l.e.e.e",
"Qt.7Qt.l.D.M.N.W.0.8.8.8.9.8.8.9.9.I.9.I#a.3.3#a.9.8.9.8.8.9.r.r.s.4.Z.s.F.s.Z.4.s.r.r.F.s.r.s.3.I.9.9.I.3.3.J.5.L.M.N.D.l.e.e.hQt.7Qt.l.D.M.N.W.0.8.8.8.9.8.8.9.9.I.9.I#a.3.3#a.9.8.9.8.8.9.8.9.9.9.9.I.3.3.J.3.3.3.J.3.3.3.J.3.I.9.9.I.3.3.J.5.L.M.N.D.l.e.e.h",
"Qt.7.7.l.B.N.N.W.0.8.8.9.8.8.8.I#a.1.3#a.I.I.9.9.9.9.8.8.8.9.8.F.F.4.r.F#b.s.r.Z.r.s.r.s.F.F.s.3.0.1.3.3.3.3.3.K.L.N.O.B.l.g.gQtQt.7.7.l.B.N.N.W.0.8.8.9.8.8.8.I#a.1.3#a.I.I.9.9.9.9.8.8.8.9.8.9.1.3.z.0.J.J.J.3.3.J.3.3#c.3.3.3.0.1.3.3.3.3.3.K.L.N.O.B.l.g.gQt",
"QtQt.7.l.B.M.N.W.0.8.8.8.8.9.8.I.3.J.J.3.9.8.8.9.8.8.8.9.8.8.8.9.F.Z.s#b#d#d.F.r.r.F.s.F.s.s.s.3.J.J.3.3.J.3.3.K.X.N.O.B.l.g.gQtQtQt.7.l.B.M.N.W.0.8.8.8.8.9.8.I.3.J.J.3.9.8.8.9.8.8.8.9.8.8.8.9.1.J.J.3.3.J.3.3.3.3.J.3.3#c#c.3.J.J.3.3.J.3.3.K.X.N.O.B.l.g.gQt",
"Qt.7.7.l.B.N.N.X.0.8.8.8.8.8.8.I.3.J.J.0.I.8.8.8.8.8.8.8.8.9.8.9.F.r.F#d#e#f.F.r.s#b.s.F.F.F.s#c.3.3.J.3.3.3.J.K.L.N.O.B.l.e.g.fQt.7.7.l.B.N.N.X.0.8.8.8.8.8.8.I.3.J.J.0.I.8.8.8.8.8.8.8.8.9.8.9.3.J.J.3.J.3.3.3.3.3.3.3.3#c.3#c.3.3.J.3.3.3.J.K.L.N.O.B.l.e.g.f",
"QtQt.7.l.B.N.N.X.0.8.8.8.9.I.9.I.1.1.3.1.9.8.8.9.8.9.8.9.9.I.9#a.1.F#b#g#h#i#b.s.F#b.s.F.F.3#c.3.3.J.3.3.3.J.3.K.X.N.O.A.l.e.e.eQtQt.7.l.B.N.N.X.0.8.8.8.9.I.9.I.1.1.3.1.9.8.8.9.8.9.8.9.9.I.9#a.1.1.3.3.3.3.3.J.J.3.J.3#c.3#c.3.3.J.3.3.3.J.3.K.X.N.O.A.l.e.e.e",
"Qt.gQt.m.A.O.O.X.0.8.8.9#a.0.3#a.I#j.9.9.9.8.9.8#..8.9.9#a.3.3#a.I#k#g#g#g#l#g.F#m#m.F.F#n.3.3#c.J.3.2.3.3.3.3.K.X.P.O.B.l.g.gQtQt.gQt.m.A.O.O.X.0.8.8.9#a.0.3#a.I#j.9.9.9.8.9.8#..8.9.9#a.3.3#a.I.I.I.I.z#o.3#c.3#c.3#c#c.3.3#c.J.3.2.3.3.3.3.K.X.P.O.B.l.g.gQt",
"QtQtQt.l.B.O.N.X.0.8.8.I.0.J.J.0.I.8.9.8.8.8.9.8.9.8.8.9.1.J.J.1#p#k#l#g#g#g#m#l#m.F.F#n#n.3#c.3.3.3.3#c.3.3.3.K.L.P.P.B.l.gQtQtQtQtQt.l.B.O.N.X.0.8.8.I.0.J.J.0.I.8.9.8.8.8.9.8.9.8.8.9.1.J.J.1.9.8#..I.3#o#o.3#c.3#c.3.3.3#c.3.3.3.3#c.3.3.3.K.L.P.P.B.l.gQtQt",
"Qt.g.g.l.B.N.N.X.0.8.8.I.3.J.J.3.9.8.8.8.8.9.8.8.9.8.8.9.3.2.2#q#p#r#k#l#b#b#l#m.F.F#n#s#n.3.3#c.3#c.3.2.J.3.3.K.X.P.P.B.m.g.gQtQt.g.g.l.B.N.N.X.0.8.8.I.3.J.J.3.9.8.8.8.8.9.8.8.9.8.8.9.3.2.2.3.9.8.8#j.0.2.3#c.3#c#c.3#c.3.3#c.3#c.3.2.J.3.3.K.X.P.P.B.m.g.gQt",
"Qt.g.g.k.B.N.N.X.0.9.9.I.1.0.3#a.9.8.9.8.8.8.8.9.9.9.9#a.1.1.3#q#t#r#p#k#m#m#k#n#n#s#t#u#s#c#c.3.3.3#c.3.3.3.3.K#v.P.P.B.l.gQtQtQt.g.g.k.B.N.N.X.0.9.9.I.1.0.3#a.9.8.9.8.8.8.8.9.9.9.9#a.1.1.3.1.I.9#j.I.3.3#c.3.3.3.3#c.3#c#c.3.3.3#c.3.3.3.3.K#v.P.P.B.l.gQtQt",
"QtQtQt.l.B.N.N.L.2.0.0.0.I.I.9.I.8.9.8.9.9.8.8.I#a.3.1#a.I.9.9#q#u#w#t#n#p#x#q#t#x#t#u#s#n.3#c#c.2.3#c.3#c.3.J.K.L.N.M.B.l.g.gQtQtQtQt.l.B.N.N.L.2.0.0.0.I.I.9.I.8.9.8.9.9.8.8.I#a.3.1#a.I.9.9.I.0.0.0.0.3#c.3#c#c.3#c.3#c.3#c#c.2.3#c.3#c.3.J.K.L.N.M.B.l.g.gQt",
"QtQtQt.l.B.N.N.X.K.J.2.3.9.8.8.8.8.8.8.8.8.8.8#j.3.J.J.3.9.8.8#s#q#u#x#n#x#q#t#y#s#s#n#n#n#c.3.3.3#c.3#c#c.3.0.K.L.N.M.B.l.e.g.hQtQtQt.l.B.N.N.X.K.J.2.3.9.8.8.8.8.8.8.8.8.8.8#j.3.J.J.3.9.8.8.I.0.J.2.2.3#c#c.3.3#c.3#c.3#c.3.3.3#c.3#c#c.3.0.K.L.N.M.B.l.e.g.h",
"QtQt.7.k.B.N.N.L.K.J.J.0.9.8.8.8.9.8.9.8.8.8.8.I.0.J.J.3.I#..8#s#q#q#x#p#t#p#y#t#s#z#z#z#s#s.3#c.3#c.3.3.3#c.3.K.W.N.M.B.l.g.g.hQtQt.7.k.B.N.N.L.K.J.J.0.9.8.8.8.9.8.9.8.8.8.8.I.0.J.J.3.I#..8.9.0.3.J.J.3.3.3#c.3#c#c.3#c.3.3#c.3#c.3.3.3#c.3.K.W.N.M.B.l.g.g.h",
"Qt.7Qt.l.B.N.N.X.S.0.0.1.I.9#j.I.9.8.8.8.9.I.9.I.1.3.1.1.I.9#n#z#u#q#p#u#p#x#y#s#s#A#B#C#B#s.3.3.2.3#c.3.3.3.3.D.L.N.M.B.m.d.d.dQt.7Qt.l.B.N.N.X.S.0.0.1.I.9#j.I.9.8.8.8.9.I.9.I.1.3.1.1.I.9.9#j.3.J.3.J#c.3#c.3#c.3#c.3.3#c.3.3.2.3#c.3.3.3.3.D.L.N.M.B.m.d.d.d",
"QtQt.7.k.B.M.M.X.R.9.9.I.0.0.R.0.I.8.8.I#a.0.3.1#a.I.9.I.1.3#n#z#t#p#p#p#q#y#x#z#s#A#B#C#C#z#s#c#c.3.3.3.3.3.3.K.X.N.N.D.n.a.a.uQtQt.7.k.B.M.M.X.R.9.9.I.0.0.R.0.I.8.8.I#a.0.3.1#a.I.9.I.1.3.0.3.3.3.3.3.3.3.3.3.3#c.3.3#c.3.3#c#c.3.3.3.3.3.3.K.X.N.N.D.n.a.a.u",
"Qt.6Qt.l.B.O.N.W.0.8.8.9.0.2.J.0.9.8.8.I.3.J.J.1.9.8.8.9.1.J#n#s#t#D#u#u#q#y#z#z#s#z#A#C#C#A#s.3.3.3#c.J.J.3.3.K.X.N.N.E.p.c#E.bQt.6Qt.l.B.O.N.W.0.8.8.9.0.2.J.0.9.8.8.I.3.J.J.1.9.8.8.9.1.J.J.J.3.3.J.3.5.3.J.3#c.3.3#c.3#c#c.3.3.3#c.J.J.3.3.K.X.N.N.E.p.c#E.b",
"Qt.6.6.l.A.O.O.X#F.8.8.9.R.2.2.0.I.8.8.9.3.J.J.0.I.8.8.9.z#s#G#s#t#p#B#p#q#y#z#z#n#z#z#A#A#z#s#c#c.3.3.3.3.3.3.K.L.N.N.K.p#E.b.bQt.6.6.l.A.O.O.X#F.8.8.9.R.2.2.0.I.8.8.9.3.J.J.0.I.8.8.9.z.J#c#c.J.3.3.3.3.3.3.3.3#c.3.3#c.3.3#c#c.3.3.3.3.3.3.K.L.N.N.K.p#E.b.b",
".d.d.d.m.B.N.O.X.0.9.9.I.0.0.0#H.9.8.8.9.1.0.0.1.I.9.9#a.3#s#z#s#u#B#u#u#q#x#z#s#n#s#z#z#z#z#s.3.3#c.3.J.3.3.3.K.L.N.N.D.p.b.b.b.d.d.d.m.B.N.O.X.0.9.9.I.0.0.0#H.9.8.8.9.1.0.0.1.I.9.9#a.3#c.3.3.3.3.J.3.J.3.J.3#c.3#c#c.3#c#c.3.3#c.3.J.3.3.3.K.L.N.N.D.p.b.b.b",
".a.a.a.n.D.M.O.X.S.0.0.0.I.I.I.9.8.8.8.9.I.9.I.I#a.0.3.3#s#z#z#s#u#q#B#p#p#x#s#s#q#I#G#A#z#z#z#s#c.3.3#c.3.3.3.K.L.P.P.E.p.b.b.b.a.a.a.n.D.M.O.X.S.0.0.0.I.I.I.9.8.8.8.9.I.9.I.I#a.0.3.3.3.3.3#c#o.3.3#c.3.J.3.3#c.3#c.3#c.3#c.3#c.3.3#c.3.3.3.K.L.P.P.E.p.b.b.b",
".b.b#E.p#J.N.O.X#K.2.2.0.I.8.8.9.8.9.8.9.8.8.8.9.3.J.J#I#s#z#G#s#n#q#q#p#p#t#s#q#n#n#n#A#A#z#z#s.3#c#c.3.3.3.3.K.X.P.P.E.p.b.b.b.b.b#E.p#J.N.O.X#K.2.2.0.I.8.8.9.8.9.8.9.8.8.8.9.3.J.J.3.3.3.J.3#o.3#c.3.3.3.3#c.3#c.3#c.3#c.3#c.3#c#c.3.3.3.3.K.X.P.P.E.p.b.b.b",
".b.b.b.p#J.N.N.L.K.2.R.0#j.8.8.8.8.8.9.8.8.8.8.I.1.3#L#I#I#s#s#s#n#C#C#q#n#u#n#n#q#n#n#A#M#z#z#s.3#c.3#c.3.3.J.K.L.P.P.E.q.b.b.b.b.b.b.p#J.N.N.L.K.2.R.0#j.8.8.8.8.8.9.8.8.8.8.I.1.3.3.3.3.3.3.2#o#c.3#c.3.3#c.3.3.3.3#c.3#c#c.3.3#c.3#c.3.3.J.K.L.P.P.E.q.b.b.b",
".c.b.b.p#J.N.N.X.K.R.J.0.I.8.8.8.9.8.8.8.8.9.8.I.3#I#L#N#G#I#s#n#I#C#B#q#q#u#n#n#n#u#s#M#M#A#z#s#c.3#c.3.J.3.3.K.X.P.P.E.o#E.b.b.c.b.b.p#J.N.N.X.K.R.J.0.I.8.8.8.9.8.8.8.8.9.8.I.3.J.J.3.3.3.3.3#c.3#c.3#c#c.3#c#c.3#c.3#c.3.3.3#c.3#c.3.J.3.3.K.X.P.P.E.o#E.b.b",
".b.b.b.p.D.N.N.L.K.3.J.0.9.9.8.9.8.9.9.8.8.8.8.9.3#I#N#I#I#I#I#n#D#D#p#p#q#t#u#u#u#u#t#A#A#A#z#u.3#c.3#c.3.3.3.K.X.P.P.E.o.b.b.b.b.b.b.p.D.N.N.L.K.3.J.0.9.9.8.9.8.9.9.8.8.8.8.9.3#c#c#c.J.3.3.2.3#c.3#c.3.3#o#o.3#c.3#c.3.3.3#c.3#c.3#c.3.3.3.K.X.P.P.E.o.b.b.b",
".c.b#E.p.Q.N.N.X.K.3.J.1.9.8.8.8.8.8.8.8.9.8.9.9.z#I#G#L#G#G#I#n#q#C#B#D#q#t#n#n#s#s#s#x#y#y#x#t#c.3.3.3.J.3.3.K.X.P.N.E.o.b.b.b.c.b#E.p.Q.N.N.X.K.3.J.1.9.8.8.8.8.8.8.8.9.8.9.9.z#c.3.3.3.2.3.3#c.3#c#o#c.3#o#o#c.3#c.3.3#c#c.3#c.3.3.3.J.3.3.K.X.P.N.E.o.b.b.b",
".c#E.b.p.E.N.N.L.K.J.J.3.I.8.8.8.9.8.8.9.8.8.8.I.1.J#I#N#L#G#I.3#D#u#u#u#p#x#s#s#G#s#t#z#z#z#s#n#c.3#c.3.3.3.3.K#v.P.P.E.p.b.b.c.c#E.b.p.E.N.N.L.K.J.J.3.I.8.8.8.9.8.8.9.8.8.8.I.1.J#c.3#c.3.3.3.3.3#o#o#o#o#o#o.3#c#c.3#c.3#c.3#c.3#c.3.3.3.3.K#v.P.P.E.p.b.b.c",
".a.a.a.n.D.N.N.Y.5.1.0.1.9.8.9.8.8.8.8.9.9.9.9#a.0.J#c#I#I#I.J.3#q#D#B#D#q#x#s#s#z#s#I#t#x#x#t#u.3#c.3#c.3.J.3.K#v.P.P.B.n.a.a.a.a.a.a.n.D.N.N.Y.5.1.0.1.9.8.9.8.8.8.8.9.9.9.9#a.0.J#c.3#c.3.J.3#c.3#o#o#o#o#o#o.3#c.3#c.3#c.3#c.3#c.3#c.3.J.3.K#v.P.P.B.n.a.a.a",
".d.d.e.v.B.M.M.L.0.9.I.9.9.8.8.8.9.8.9.9#a.z.0.0.J.J.3.3.3.3.J#I#p#x#u#u#q#x#s#z#z#I#G#I#G#I#I#I#c.3#c.3.3.3.J.K.L.N.M.B.m.d.d.d.d.d.e.v.B.M.M.L.0.9.I.9.9.8.8.8.9.8.9.9#a.z.0.0.J.J.3.3.3.3.J.3.J.3.3.3#o.3#c.3.3.3#c.3.3.3.3.3#c.3#c.3.3.3.J.K.L.N.M.B.m.d.d.d",
"Qt.g#O.l.B.O.N.V.1.8.8.8.8.9.8.9.8.8.8.9.3.J.J.J.3.3.3.J.3.J.3#I#I#p#x#t#q#y#s#z#z#I#N#I#L#L#G#I#c.3.3#c#o#o.0.K.X.N.N.B.lQtQtQtQt.g#O.l.B.O.N.V.1.8.8.8.8.9.8.9.8.8.8.9.3.J.J.J.3.3.3.J.3.J.3.3.3.3.J.3#o#c#o.3#c.3.3#c.3.J.3.3#c.3.3#c#o#o.0.K.X.N.N.B.lQtQtQt",
"Qt.g#O.l.B.O.P.X.1.8.8.9.8.8.8.9.8.8.8.9#a.J.3.J.J.J.3.J.3.3.3#I#s#I#p#p#q#y#s#z#A#I#P#G#N#N#I.5.3#c.3.3#o.J.3.K.L.N.O.B.l.7QtQtQt.g#O.l.B.O.P.X.1.8.8.9.8.8.8.9.8.8.8.9#a.J.3.J.J.J.3.J.3.3.3.3.3.2.J.J#o#o#o#o.3#c.3.J.3.J.3.5.3#c.3.3#o.J.3.K.L.N.O.B.l.7QtQt",
".d.d.e.m.B.O.P.X.1.8.8.8.9.8.8.8.9.I.9#a.3.J.3.J.0.1.z.3.3.3#s#s#z#s#I#I#I#y#s#A#A#z#I#I#I#I#n#c#c.3#c.3.3.z.0.5.X.N.P.A.l.7QtQt.d.d.e.m.B.O.P.X.1.8.8.8.9.8.8.8.9.I.9#a.3.J.3.J.0.1.z.3.3.3.J.J.3.3.z.3.3#o#o#o.J.3.3.3.3.3.3#c#c.3#c.3.3.z.0.5.X.N.P.A.l.7QtQt",
".u.a.a.n.D.N.N.V.1.9.8.8.8.9.9.9.1.0.3.z.J.3.3.1#a.9.9#a.3.J#s#z#z#z#s#I#I#y#z#A#A#z#s#z#s#s#n.3.J.3.J.R.I.I.I.0.X.N.M.B.lQtQtQt.u.a.a.n.D.N.N.V.1.9.8.8.8.9.9.9.1.0.3.z.J.3.3.1#a.9.9#a.3.J.J.3#j#j.I.I.0.J.3.3.3.3.3.3.3.3.J.3.J.3.J.R.I.I.I.0.X.N.M.B.lQtQtQt",
".b.b#E.p#J.M.M.V.1.8.8.9.8.8.8.9.3.J.3.3.J.J.J.0.9.8.8.9.1#G#s#A#z#G#s#I#I#y#z#M#A#z#s#z#z#s#s#n.3.J.J.0.I.8.8.0.W.N.O.B.lQtQtQt.b.b#E.p#J.M.M.V.1.8.8.9.8.8.8.9.3.J.3.3.J.J.J.0.9.8.8.9.1.J.J.1#j.8.8.I.0.J.J.3.3.J.3.J.3.J.3.3.3.J.J.0.I.8.8.0.W.N.O.B.lQtQtQt",
".c.b#E.p.E.P.M.W.1.9.8.8.8.9#..9.1.J.3.J.J.J.J.3.9#..9.9.z#G#s#z#z#s#I#I#I#y#A#M#A#A#z#z#A#s#s#n.3.J.J.0.I.8.8.0.W.N.N.B.k.g.6Qt.c.b#E.p.E.P.M.W.1.9.8.8.8.9#..9.1.J.3.J.J.J.J.3.9#..9.9.z.J.J.R.8.8.8.9.z.J.3#c.3#c.3#c.3.3.3.3.3.J.J.0.I.8.8.0.W.N.N.B.k.g.6Qt",
".b.b.b.p.E.N.N.W.1.8.8.9.9.9.9#a.3.J.3.3.3.1.3#a.I.9.9#a#G#L#Q#z#s#s#I#I#x#x#A#M#M#A#z#z#A#z#s#n.0.0.0.I.8.p.o#a.W.N.N.A.l.g.gQt.b.b.b.p.E.N.N.W.1.8.8.9.9.9.9#a.3.J.3.3.3.1.3#a.I.9.9#a.1.R.1.1.I.I#j.I.3#c#c.3.3.3#c.3.3.3.3.3.0.0.0.I.8.p.o#a.W.N.N.A.l.g.gQt",
".b.b.b.o.E.P.P.Y.1.9.8.9.1.1.3.1.3.3.J.3#a.9.9.I#a.0.3.1#G#Q#N#P#I#I#I#I#y#z#A#M#M#A#z#z#z#A#s#s#n.I.I#..H#R#R#..E.M.M.B.mQtQtQt.b.b.b.o.E.P.P.Y.1.9.8.9.1.1.3.1.3.3.J.3#a.9.9.I#a.0.3.1.I.9.9#a.0.0.0.3.3.3.3#c#c.3#c.3#c.3.J.3#a.I.I#..H#R#R#..E.M.M.B.mQtQtQt",
".b.b.b.o.E.N.P.Y.1.8.8.9.3.3.J.3.3.3.J.1.9#..8.9.3.3.J.1#L#Q#Q#N#G#L#G#I#y#z#A#M#M#M#z#z#s#A#z#s#q#q.8#S#R.b.b.q.E.N.M.B.l.hQtQt.b.b.b.o.E.N.P.Y.1.8.8.9.3.3.J.3.3.3.J.1.9#..8.9.3.3.J.1.I.8.8.9.0.J.J.3.3.3.J.3.3#c.3.3#c#o.J.0#j.8.8#S#R.b.b.q.E.N.M.B.l.hQtQt",
".b.b.b.o.E.P.P.Y.1.8#..9.1.J.J.3.J.3.J.3.9.8.8.9.3.J.J.3#G#P#N#p#G#I#I#I#y#z#A#M#M#M#A#z#s#z#z#s#n#q.8#.#R.b.b.o.E.N.N.B.k.7.6Qt.b.b.b.o.E.P.P.Y.1.8#..9.1.J.J.3.J.3.J.3.9.8.8.9.3.J.J.3.9.8#..9.0.J.3.3.3.3.3.3#c.3#c#c#c.J.J.3.I.8.8#.#R.b.b.o.E.N.N.B.k.7.6Qt",
".a.a.a.v.E.P.P.X.3.9.9#a.3.J.J.J.z.3.1.1#a.9.9#a#a.3.1.1#G#L#G#I#I#L#L#I#y#z#A#M#M#M#A#s#G#z#s#n#p#p#q#T#R.b.b.o.E.N.M.B.l.7QtQt.a.a.a.v.E.P.P.X.3.9.9#a.3.J.J.J.z.3.1.1#a.9.9#a#a.3.1.1.I.9.9.I.J.J.J.3.J.3.J.3.3#c.3.3.3.z.0#a.I.8.8#T#R.b.b.o.E.N.M.B.l.7QtQt",
".d.d.e.v.B.M.N.X.S.1.1.3.3.3.3.3.I.9.9.I#a.0.3#a.I.I.9.I#U#G#I#I#L#I#I#I#y#z#A#A#M#M#A#s#s#s#n#u#p#p#q#.#R.b.b.n.E.M.M.D.l.g.gQt.d.d.e.v.B.M.N.X.S.1.1.3.3.3.3.3.I.9.9.I#a.0.3#a.I.I.9.I.1.3.0.3.3.3#c.3.3.3.3.3.J.3.J.J.I.I.I.I.8.9.8#.#R.b.b.n.E.M.M.D.l.g.gQt",
"Qt.g#O.l.B.M.N.L.K.J.3.J.3.J.J.1.I.8.8.I.0.J.3.3#U#U#U#U#U#I#I#s#I#G#G#I#y#x#x#x#x#x#t#u#p#p#u#p#p#p#q#U#R.b.b.q.E.M.M.B.l.gQtQtQt.g#O.l.B.M.N.L.K.J.3.J.3.J.J.1.I.8.8.I.0.J.3.3.9#..8.9.1.J.J.J#c#c.3#c#c.J.3.3.3.3.J.0.9.8.8.8.8.8.8#T#R.b.b.q.E.M.M.B.l.gQtQt",
"Qt.g#O.l.B.P.P.X.K.J.J.3.J.J.J.3.9.8.8.9.0.J#U#U#U#U#U#U#U#G#L#G#G#G#I#U#y#t#t#t#u#u#u#u#p#p#p#p#p#q#U#U#U#U.b.n.E.M.M.B.l.g.gQtQt.g#O.l.B.P.P.X.K.J.J.3.J.J.J.3.9.8.8.9.0.J.J.0.I.8.8.9.z.J#c#c.3.3#c.3.3#c.3.J.3.J.J.0.I.8.8.8.8.8.8#V#W.b.b.n.E.M.M.B.l.g.gQt",
".d.d.e.m.B.P.P.L.K.R.0.J.0.0.z#a.I.8.8.I.0#U#U#U#U#U#U#U#U#P#N#L#G#q#I#U#x#t#t#t#t#u#u#p#p#p#p#q#n#U#U#U#U#U#U#..E.M.N.D.m.d.d.d.d.d.e.m.B.P.P.L.K.R.0.J.0.0.z#a.I.8.8.I.0.J.J.3.I.9.9#a.3#c.3.3.3#c.3.3#c.3.3.3.0.z.0.1.9.8.8.8.I.I.I.8.q#R#R#..E.M.N.D.m.d.d.d",
".u.a#X.n.E.N.P.L.K.3.J.0#a.I.9.9.9.8.8.I#U#U#U#U#U#U#G#G#N#G#L#G#G#I#U#U#x#t#u#u#p#p#p#p#q#q#I#I#I#U#U#U#U#U#U#U.W.N.N.D.n.a.a.a.u.a#X.n.E.N.P.L.K.3.J.0#a.I.9.9.9.8.8.I.0.J.J.0.0.0.3.3.3.3.3#c#c.3#c.3.3.J.3.3#H.9.9.9.9.8.8.I#H.0.3#a#..o#T.I.W.N.N.D.n.a.a.a",
".b.b#E.p.E.N.P.L.K.3.J.3.9.8.8.8.8.8.8#U#U#U#U#U#U#L#G#G#N#P#N#L#G#q#U#U#u#p#p#q#q#q#q#I#I#I#I#I#I#U#U#U#U#U#U#U#U.N.N.E.p.b.c.c.b.b#E.p.E.N.P.L.K.3.J.3.9.8.8.8.8.8.8.I.3.3.J.3.J.J#c.3.3.3.3#c#c.3#c#c.3.J.J.1.I.8.8.8.8.8.8.I.0.J.J.0.I.8.8.0.W.N.N.E.p.b.c.c",
".c.c#E.p.E.P.P#v.K.3.J.0.9.8.8.9.8.8.8#U#U#U#U#U#U#L#P#N#G#G#G#L#G#I#U#U#U#U#U#U#U#G#G#G#G#I#I#I#I#U#U#U#U#U#U#U#U.N.N.E.p#E#E.c.c.c#E.p.E.P.P#v.K.3.J.0.9.8.8.9.8.8.8#j.U.J.3.J.J.3.J.J.3.3.3.3.J.J.3#c.J.J.J.0.I.8.8.8.8.8.8.I.0.J.J.3.I.8.8.0.W.N.N.E.p#E#E.c",
".a.a.a.n.K.L.L.E.2.1.0.1.9.9.8.8.9.9.I#U#U#U#U#U#U#L#L#N#N#L#L#p#G#q#U#U#U#U#U#U#U#G#I#I#I#I#I#I#n#U#U#U#U#U#U#U#U.L.L.5#Y.a.a.u.a.a.a.n.K.L.L.E.2.1.0.1.9.9.8.8.9.9.I#a.0.3.J.R.3.3.3.3.3.3#c.3.0.0.z.3.R.0.0.1.I.8.8.9.9.9.I.I.0.R.0#a.8#T#T.I#J.L.L.5#Y.a.a.u",
".#.d.e#Z.z.K.K.J.1.I.9.9.9.9.8.9.1.0.R#U#U#U#U#U#U#G#G#G#I#I#G#G#G#I#U#U#U#U#U#U#U#n#n#I#n#I#n#n#U#U#U#U#U#U#U#U#U#J#J.U#Z#0.d.d.#.d.e#Z.z.K.K.J.1.I.9.9.9.9.8.9.1.0.R.0.J.J.J.J.3.3.3.3.3.J.J.R#a.9.I.I.9.I.I.9.8.8.9.9#H.R.0.1.I.I.I#..H#R#1.p.0#J#J.U#Z#0.d.d",
".e.g.g.k#2.J.J.3.9.9.8.9.8.8.9.9.0.J.J.J#U#U#U#U#U#U#U#U#n#n#n#I#n#n#U#U#U#U#U#U#U#U#U#U#U#U#U#U#U#U#U#U#U#U#U#U.I.J.R.y.k.6QtQt.e.g.g.k#2.J.J.3.9.9.8.9.8.8.9.9.0.J.J.J.J.J.J.R.J.J.J.J.J.J.J.0.I.8.8.8.8.8.8.8.9.8.8.I.R.R.J.R.I.8.8#V#1.b#E#3.I.J.R.y.k.6QtQt",
".e.e.e.k#4.J.J.1.9.9.8.8.8.9.8.9.R.J.J.J.3#U#U#U#U#U#U#U#U#U#U#U#U#U#U#U#U#U#U#U#U#U#U#U#U#U#U#U#U#U#U#U#U#U#U#3.I.2.2.y.k.6QtQt.e.e.e.k#4.J.J.1.9.9.8.8.8.9.8.9.R.J.J.J.3.J.J.J.J.J.J.J.3.J.J.0.9.8.8.9.8.9.9.8.9.8.8.I.R.J.J.0.9.9.8#.#1.b.b#3.I.2.2.y.k.6QtQt",
".e.f.d#5.x#a.9.9.x.n.o#6#T.8#S#S.x#2#4.y.y.I#U#U#U#U#U#U#U#U#U#U#U#U#U#U#U#U#U#U#U#U#U#U#U#U#U#U#U#U#U#U#U#U.a.T#7.I.U.x#8.6QtQt.e.f.d#5.x#a.9.9.x.n.o#6#T.8#S#S.x#2#4.y.y.I#j.y.y#4.y.y.I.y.I.9#.#S#S#S#T#T#T#T#T#T#T#..9#4#2.x.x.o#9#Y#R.a.a.T#7.I.U.x#8.6QtQt",
".u.a.a.ua..H.H.Ta#aa#5ab#Ra.a..w#Z.k.j#Z.T.H.H.T#U#U#U#U#U#U#U#U#U#U#U#U#U#U#U#U#U#U#U#U#U#U#U#U#U#U#U#U.i.d.d.#.w.H.q.w.fQtQtQt.u.a.a.ua..H.H.Ta#aa#5ab#Ra.a..w#Z.k.j#Z.T.H.H.T#Z.k.k.j.T#W.q.T#W#W#W#W#W#W#W#W#W#W#W.w#Z.k.k.j.j#5#5.i.i.d.d.#.w.H.q.w.fQtQtQt",
".b.c.c.c.b.b.b#X.e.e.e.e.a.b.c.a.dQt#O#0.a.b.b.a.d#O.g.d#U#U#U#U#U#U#U#U#U#U#U#U#U#U#U#U#U#U#U#U.gQtQtQt.h.h.h.d.a.b.b.a.dQtQtQt.b.c.c.c.b.b.b#X.e.e.e.e.a.b.c.a.dQt#O#0.a.b.b.a.d#O.g.d.a.b.b.b.c.c.u.b.c.b.b.c.b.b.c.a.d.g.g.g.gQtQtQt.h.h.h.d.a.b.b.a.dQtQtQt",
".c.c.c.c.b.c.b.u.#.e.e.f.a.c.c.a.dQtQt.d.a#E.b.a.d.hQt.d.a.c.b.b.b.c.b.b.b.b.c.b.b.b.b.a.d.g.gQtQtQtQtQtQt.h.h.d.a.c.b.a.d.h.hQt.c.c.c.c.b.c.b.u.#.e.e.f.a.c.c.a.dQtQt.d.a#E.b.a.d.hQt.d.a.c.b.b.b.c.b.b.b.b.c.b.b.b.b.a.d.g.gQtQtQtQtQtQt.h.h.d.a.c.b.a.d.h.hQt",
".b.b.c.b.b.c.b.u.e.e.g.e.u.c.c.a.dQtQt.d.a.c.b.a.d.hQt.d.a.c.c.c.c.b.c.b.c.c.b.c.c.b.b.u.dQtQtQtQtQtQtQtQtQt.h.d.a.c.c.a.dQtQtQt.b.b.c.b.b.c.b.u.e.e.g.e.u.c.c.a.dQtQt.d.a.c.b.a.d.hQt.d.a.c.c.c.c.b.c.b.c.c.b.c.c.b.b.u.dQtQtQtQtQtQtQtQtQt.h.d.a.c.c.a.dQtQtQt"};
