/* XPM */
static char *dummy[]={
"64 64 100 2",
"Qt c None",
".u c #000000",
".v c #000000",
".w c #000000",
"#i c #000000",
".K c #000000",
"## c #000000",
".x c #000000",
"#E c #000000",
".B c #000000",
".y c #000000",
"#F c #000000",
"#G c #000000",
"#H c #000000",
".z c #000000",
".X c #000000",
".L c #000000",
"#j c #000000",
".C c #000000",
".A c #000000",
"#a c #000000",
"#g c #000000",
"#w c #000000",
".D c #000000",
"#x c #000000",
".M c #000000",
".W c #000000",
"#y c #000000",
".E c #000000",
"#z c #000000",
".Y c #000000",
"#A c #000000",
"#B c #000000",
"#C c #000000",
"#D c #000000",
".F c #000000",
".J c #000000",
".N c #000000",
"#k c #000000",
".G c #000000",
"#q c #000000",
"#b c #000000",
"#h c #000000",
".H c #000000",
".O c #000000",
".Z c #000000",
".I c #000000",
"#r c #000000",
".P c #000000",
"#l c #000000",
"#s c #000000",
"#t c #000000",
".0 c #000000",
".Q c #000000",
"#u c #000000",
"#c c #000000",
"#v c #000000",
".R c #000000",
".1 c #000000",
".S c #000000",
".T c #000000",
".U c #000000",
"#d c #000000",
".2 c #000000",
".V c #000000",
"#m c #000000",
"#n c #000000",
".3 c #000000",
"#o c #000000",
"#p c #000000",
".4 c #000000",
".5 c #000000",
".6 c #000000",
".7 c #000000",
".8 c #000000",
"#. c #000000",
".9 c #000000",
"#e c #000000",
"#f c #000000",
".e c #000003",
".o c #00070c",
".i c #07050d",
".h c #141d32",
".k c #1e232c",
".r c #2b2c38",
".g c #303a55",
".s c #3f4449",
".j c #4b5e7f",
".f c #4f5463",
".b c #52300c",
".n c #684700",
".t c #6c7273",
".l c #708ea7",
".p c #757c87",
".# c #946230",
".m c #9e7b10",
".q c #b1b5be",
".a c #d1a049",
".c c #f0e883",
".d c #fffffa",
"QtQtQtQtQtQtQtQtQtQtQtQtQtQtQtQtQtQtQtQtQtQtQtQtQtQtQtQtQtQtQtQtQtQtQtQtQtQtQtQtQtQtQtQtQtQtQtQtQtQtQtQtQtQtQtQtQtQtQtQtQtQtQtQt",
"QtQtQtQtQtQtQtQtQtQtQtQtQtQtQtQtQtQtQtQtQtQtQtQtQtQtQtQtQtQtQtQtQtQtQtQtQtQtQtQtQtQtQtQtQtQtQtQtQtQtQtQtQtQtQtQtQtQtQtQtQtQtQtQt",
"QtQtQtQtQtQtQtQtQtQtQtQtQtQtQtQtQtQtQtQtQtQtQtQtQtQtQtQtQtQtQtQt.#.a.#QtQtQtQtQtQtQtQtQtQtQtQtQtQtQtQtQtQtQtQtQtQtQtQtQtQtQtQtQt",
"QtQtQtQtQtQtQtQtQtQtQtQtQtQtQtQtQtQtQtQtQtQtQtQtQtQtQtQt.#.#.b.b.#.a.#QtQtQtQtQtQtQtQtQtQtQtQtQtQtQtQtQtQtQtQtQtQtQtQtQtQtQtQtQt",
"QtQtQtQtQtQtQtQtQtQtQtQtQtQtQtQtQtQtQtQtQtQtQtQtQtQt.#.#.#.#.b.b.a.#.b.#QtQtQtQtQtQtQtQtQtQtQtQtQtQtQtQtQtQtQtQtQtQtQtQtQtQtQtQt",
"QtQtQtQtQtQtQtQtQtQtQtQtQtQtQtQtQtQtQtQtQtQtQtQtQt.#.#.#.a.a.c.#.a.b.b.#.#QtQtQtQtQtQtQtQtQtQtQtQtQtQtQtQtQtQtQtQtQtQtQtQtQtQtQt",
"QtQtQtQtQtQtQtQtQtQtQtQtQtQtQtQtQtQtQtQtQtQtQtQt.a.#.a.c.c.a.#.b.#.a.a.c.#.bQtQtQtQtQtQtQtQtQtQtQtQtQtQtQtQtQtQtQtQtQtQtQtQtQtQt",
"QtQtQtQtQtQtQtQtQtQtQtQtQtQtQtQtQtQtQtQtQtQtQtQt.a.a.c.c.a.c.c.c.a.c.a.c.c.b.bQtQtQtQtQtQtQtQtQtQtQtQtQtQtQtQtQtQtQtQtQtQtQtQtQt",
"QtQtQtQtQtQtQtQtQtQtQtQtQtQtQtQtQtQtQtQtQtQtQtQt.b.#.a.a.d.c.d.d.c.a.d.#.c.#.b.bQtQtQtQtQtQtQtQtQtQtQtQtQtQtQtQtQtQtQtQtQtQtQtQt",
"QtQtQtQtQtQtQtQtQtQtQtQtQtQtQtQtQtQtQtQtQtQtQtQt.b.a.c.d.c.a.d.c.a.a.c.d.#.a.#.bQtQtQtQtQtQtQtQtQtQtQtQtQtQtQtQtQtQtQtQtQtQtQtQt",
"QtQtQtQtQtQtQtQtQtQtQtQtQtQtQtQtQtQtQtQtQtQtQt.#.#.a.#.c.a.a.c.a.a.#.a.c.a.b.bQtQtQtQtQtQtQtQtQtQtQtQtQtQtQtQtQtQtQtQtQtQtQtQtQt",
"QtQtQtQtQtQtQtQtQtQtQtQtQtQtQtQtQtQtQtQtQtQtQt.#.a.b.#.a.a.#.a.a.a.a.#.a.#.a.bQtQtQtQtQtQtQtQtQtQtQtQtQtQtQtQtQtQtQtQtQtQtQtQtQt",
"QtQtQtQtQtQtQtQtQtQtQtQtQtQtQtQtQtQtQtQtQtQtQtQt.b.b.a.a.#.#.a.a.#.a.b.a.b.#.#QtQtQtQtQtQtQtQtQtQtQtQtQtQtQtQtQtQtQtQtQtQtQtQtQt",
"QtQtQtQtQtQtQtQtQtQtQtQtQtQtQtQtQtQtQtQtQtQtQtQtQt.b.a.#.b.#.a.b.#.#.b.#.b.bQtQtQtQtQtQtQtQtQtQtQtQtQtQtQtQtQtQtQtQtQtQtQtQtQtQt",
"QtQtQtQtQtQtQtQtQtQtQtQtQtQtQtQtQtQtQtQtQtQtQtQtQt.b.#.b.b.#.#.b.b.#.b.b.b.bQtQtQtQtQtQtQtQtQtQtQtQtQtQtQtQtQtQtQtQtQtQtQtQtQtQt",
"QtQtQtQtQtQtQtQtQtQtQtQtQtQtQtQtQtQtQtQtQtQtQtQtQt.e.b.b.b.#.b.b.b.b.b.b.b.eQtQtQtQtQtQtQtQtQtQtQtQtQtQtQtQtQtQtQtQtQtQtQtQtQtQt",
"QtQtQtQtQtQtQtQtQtQtQtQtQtQtQtQtQtQtQtQtQtQtQtQt.e.f.g.e.b.b.b.b.b.b.b.e.g.f.eQtQtQtQtQtQtQtQtQtQtQtQtQtQtQtQtQtQtQtQtQtQtQtQtQt",
"QtQtQtQtQtQtQtQtQtQtQtQtQtQtQtQtQtQtQtQtQtQt.h.g.e.i.e.h.h.g.g.g.g.g.g.h.h.e.e.g.hQtQtQtQtQtQtQtQtQtQtQtQtQtQtQtQtQtQtQtQtQtQtQt",
"QtQtQtQtQtQtQtQtQtQtQtQtQtQtQtQtQtQtQtQtQtQt.h.g.h.e.h.h.e.e.h.h.e.e.e.e.h.h.g.g.hQtQtQtQtQtQtQtQtQtQtQtQtQtQtQtQtQtQtQtQtQtQtQt",
"QtQtQtQtQtQtQtQtQtQtQtQtQtQtQtQtQtQtQtQtQtQt.g.j.g.k.k.h.h.h.h.h.h.h.h.h.h.h.j.j.g.hQtQtQtQtQtQtQtQtQtQtQtQtQtQtQtQtQtQtQtQtQtQt",
"QtQtQtQtQtQtQtQtQtQtQtQtQtQtQtQtQtQtQtQtQtQt.j.l.e.h.g.h.h.h.h.h.h.h.h.h.g.g.j.l.j.hQtQtQtQtQtQtQtQtQtQtQtQtQtQtQtQtQtQtQtQtQtQt",
"QtQtQtQtQtQtQtQtQtQtQtQtQtQtQtQtQtQtQtQtQtQt.m.l.e.h.g.j.j.g.g.g.g.g.g.j.j.h.g.j.m.nQtQtQtQtQtQtQtQtQtQtQtQtQtQtQtQtQtQtQtQtQtQt",
"QtQtQtQtQtQtQtQtQtQtQtQtQtQtQtQtQtQtQtQtQt.e.n.j.e.h.g.g.j.j.l.l.l.l.j.j.g.e.g.g.m.n.eQtQtQtQtQtQtQtQtQtQtQtQtQtQtQtQtQtQtQtQtQt",
"QtQtQtQtQtQtQtQtQtQtQtQtQtQtQtQtQtQtQtQtQt.e.g.g.h.e.e.h.h.g.g.g.g.g.g.h.e.e.h.g.g.h.eQtQtQtQtQtQtQtQtQtQtQtQtQtQtQtQtQtQtQtQtQt",
"QtQtQtQtQtQtQtQtQtQtQtQtQtQtQtQtQtQtQtQtQt.e.g.g.h.e.h.h.e.e.i.i.i.e.h.h.h.e.h.g.g.h.eQtQtQtQtQtQtQtQtQtQtQtQtQtQtQtQtQtQtQtQtQt",
"QtQtQtQtQtQtQtQtQtQtQtQtQtQtQtQtQtQtQtQtQt.e.h.g.h.e.h.h.h.h.h.e.h.h.h.h.h.e.h.h.h.h.eQtQtQtQtQtQtQtQtQtQtQtQtQtQtQtQtQtQtQtQtQt",
"QtQtQtQtQtQtQtQtQtQtQtQtQtQtQtQtQtQtQtQtQt.e.h.h.h.e.h.h.h.h.g.e.g.h.h.h.hQt.e.h.h.h.h.eQtQtQtQtQtQtQtQtQtQtQtQtQtQtQtQtQtQtQtQt",
"QtQtQtQtQtQtQtQtQtQtQtQtQtQtQtQtQtQtQtQt.f.e.h.h.h.o.i.h.h.h.g.h.g.h.h.h.eQt.e.h.h.h.h.eQtQtQtQtQtQtQtQtQtQtQtQtQtQtQtQtQtQtQtQt",
"QtQtQtQtQtQtQtQtQtQtQtQtQtQtQtQtQtQtQtQt.f.i.h.h.e.i.i.h.h.h.g.e.g.h.h.h.eQt.e.h.h.k.h.eQtQtQtQtQtQtQtQtQtQtQtQtQtQtQtQtQtQtQtQt",
"QtQtQtQtQtQtQtQtQtQtQtQtQtQtQtQtQtQtQtQt.i.p.q.p.f.i.e.e.h.h.h.i.h.h.i.i.i.i.e.e.h.g.h.eQtQtQtQtQtQtQtQtQtQtQtQtQtQtQtQtQtQtQtQt",
"QtQtQtQtQtQtQtQtQtQtQtQtQtQtQtQtQtQtQtQt.k.i.i.i.i.r.r.r.e.e.e.e.e.e.e.r.i.i.r.f.p.p.f.rQtQtQtQtQtQtQtQtQtQtQtQtQtQtQtQtQtQtQtQt",
"QtQtQtQtQtQtQtQtQtQtQtQtQtQtQtQtQtQtQtQt.e.r.s.k.i.i.i.r.f.p.p.p.f.r.r.e.i.e.e.h.g.g.h.eQtQtQtQtQtQtQtQtQtQtQtQtQtQtQtQtQtQtQtQt",
"QtQtQtQtQtQtQtQtQtQtQtQtQtQtQtQtQtQtQtQtQt.o.k.o.k.e.h.h.h.h.e.i.e.e.e.e.h.h.r.r.f.p.f.rQtQtQtQtQtQtQtQtQtQtQtQtQtQtQtQtQtQtQtQt",
"QtQtQtQtQtQtQtQtQtQtQtQtQtQtQtQtQtQtQtQtQt.o.s.h.k.e.h.h.g.g.k.e.k.g.h.h.h.h.e.i.i.e.k.kQtQtQtQtQtQtQtQtQtQtQtQtQtQtQtQtQtQtQtQt",
"QtQtQtQtQtQtQtQtQtQtQtQtQtQtQtQtQtQtQtQtQtQt.o.o.o.e.h.g.g.g.g.e.g.g.g.h.h.h.e.k.e.k.s.kQtQtQtQtQtQtQtQtQtQtQtQtQtQtQtQtQtQtQtQt",
"QtQtQtQtQtQtQtQtQtQtQtQtQtQtQtQtQtQtQtQtQtQtQtQt.e.h.h.g.g.g.j.e.g.g.g.g.h.h.e.e.s.t.t.eQtQtQtQtQtQtQtQtQtQtQtQtQtQtQtQtQtQtQtQt",
"QtQtQtQtQtQtQtQtQtQtQtQtQtQtQtQtQtQtQtQtQtQtQtQt.e.h.g.g.g.j.j.e.j.g.g.g.h.h.h.e.e.e.eQtQtQtQtQtQtQtQtQtQtQtQtQtQtQtQtQtQtQtQtQt",
"QtQtQtQtQtQtQtQtQtQtQtQtQtQtQtQtQtQtQtQtQtQtQtQt.e.h.g.g.j.j.j.e.j.j.g.g.h.h.h.iQtQtQtQtQtQtQtQtQtQtQtQtQtQtQtQtQtQtQtQtQtQtQtQt",
"QtQtQtQtQtQtQtQtQtQtQtQtQtQtQtQtQtQtQtQtQtQtQt.e.h.h.g.g.j.j.j.h.j.j.j.g.g.h.h.eQtQtQtQtQtQtQtQtQtQtQtQtQtQtQtQtQtQtQtQtQtQtQtQt",
"QtQtQtQtQtQtQtQtQtQtQtQtQtQtQtQtQtQtQtQtQtQtQt.e.h.h.g.j.j.j.j.e.j.j.j.g.g.h.h.h.eQtQtQtQtQtQtQtQtQtQtQtQtQtQtQtQtQtQtQtQtQtQtQt",
"QtQtQtQtQtQtQtQtQtQtQtQtQtQtQtQtQtQtQtQtQtQtQt.e.h.g.g.j.j.j.j.h.j.j.j.j.g.h.h.h.eQtQtQtQtQtQtQtQtQtQtQtQtQtQtQtQtQtQtQtQtQtQtQt",
"QtQtQtQtQtQtQtQtQtQtQtQtQtQtQtQtQtQtQtQtQtQt.e.h.h.g.g.j.j.l.j.h.j.j.j.j.g.h.k.k.h.eQtQtQtQtQtQtQtQtQtQtQtQtQtQtQtQtQtQtQtQtQtQt",
"QtQtQtQtQtQtQtQtQtQtQtQtQtQtQtQtQtQtQtQtQtQt.e.h.h.g.g.j.j.l.j.e.j.l.j.j.g.g.h.g.h.eQtQtQtQtQtQtQtQtQtQtQtQtQtQtQtQtQtQtQtQtQtQt",
"QtQtQtQtQtQtQtQtQtQtQtQtQtQtQtQtQtQtQtQtQtQt.i.h.h.g.j.j.l.l.j.e.g.l.l.j.j.g.h.g.h.h.eQtQtQtQtQtQtQtQtQtQtQtQtQtQtQtQtQtQtQtQtQt",
"QtQtQtQtQtQtQtQtQtQtQtQtQtQtQtQtQtQtQtQtQt.i.h.g.h.g.j.j.l.l.g.e.g.l.l.l.j.g.h.g.g.h.eQtQtQtQtQtQtQtQtQtQtQtQtQtQtQtQtQtQtQtQtQt",
"QtQtQtQtQtQtQtQtQtQtQtQtQtQtQtQtQtQtQtQtQt.i.h.g.h.g.j.j.l.l.g.e.h.l.l.l.j.g.h.g.g.h.eQtQtQtQtQtQtQtQtQtQtQtQtQtQtQtQtQtQtQtQtQt",
"QtQtQtQtQtQtQtQtQtQtQtQtQtQtQtQtQtQtQtQtQt.i.h.g.g.g.j.l.l.l.h.o.k.j.l.l.j.g.h.g.h.e.rQtQtQtQtQtQtQtQtQtQtQtQtQtQtQtQtQtQtQtQtQt",
"QtQtQtQtQtQtQtQtQtQtQtQtQtQtQtQtQtQtQtQtQt.i.r.f.h.g.j.l.l.j.h.i.e.j.l.j.g.h.f.p.p.f.iQtQtQtQtQtQtQtQtQtQtQtQtQtQtQtQtQtQtQtQtQt",
"QtQtQtQtQtQtQtQtQtQtQtQtQtQtQtQtQtQtQtQtQt.i.r.f.f.p.q.q.q.p.r.o.e.f.q.q.q.p.f.f.f.r.iQtQtQtQtQtQtQtQtQtQtQtQtQtQtQtQtQtQtQtQtQt",
"QtQtQtQtQtQtQtQtQtQtQtQtQtQtQtQtQt.u.u.u.v.i.r.r.f.r.f.p.p.f.r.i.o.r.f.p.p.f.r.f.r.r.i.u.uQtQtQtQtQtQtQtQtQtQtQtQtQtQtQtQtQtQtQt",
"QtQtQtQtQtQtQtQtQtQtQtQtQtQtQt.u.u.w.x.y.z.A.i.r.r.r.r.p.p.f.i.o.o.r.f.p.p.r.r.r.r.i.y.x.w.u.uQtQtQtQtQtQtQtQtQtQtQtQtQtQtQtQtQt",
"QtQtQtQtQtQtQtQtQtQtQtQtQtQt.u.w.B.C.D.E.F.G.H.I.i.r.r.f.p.f.i.o.i.r.f.p.f.r.r.i.i.J.E.D.C.B.w.uQtQtQtQtQtQtQtQtQtQtQtQtQtQtQtQt",
"QtQtQtQtQtQtQtQtQtQtQtQtQt.u.K.L.M.N.O.P.Q.R.S.T.U.V.i.i.i.i.i.i.o.i.e.i.e.i.T.S.R.Q.P.O.N.W.L.K.uQtQtQtQtQtQtQtQtQtQtQtQtQtQtQt",
"QtQtQtQtQtQtQtQtQtQtQtQt.u.w.X.Y.Z.0.1.2.3.4.5.6.7.8.o.k.k.s.k.k.o.9#..8.8.7.6.5.4.3.2.1.0.Z.Y.X.w.uQtQtQtQtQtQtQtQtQtQtQtQtQtQt",
"QtQtQtQtQtQtQtQtQtQtQtQt.u###a#b#c#d.4.7#.#e#e#e#e#e.k.s.s.t.s.s.o#f#f#f#e#e#e#e#e#..7.4#d#c#b#a##.uQtQtQtQtQtQtQtQtQtQtQtQtQtQt",
"QtQtQtQtQtQtQtQtQtQtQtQt.u###g#b#c.2.4.7#.#e#e#e#e#e.o.o.k.s.k.k.o#f#f#f#e#e#e#e#e#..7.4.2#c#h#g##.uQtQtQtQtQtQtQtQtQtQtQtQtQtQt",
"QtQtQtQtQtQtQtQtQtQtQtQt.u#i.X.Y.Z.0.1.2.3.4.5.6.7.8.e.e.o.k.k.i.e.9#..8.8.7.6.5.4.3.2.1.0.Z.Y.X#i.uQtQtQtQtQtQtQtQtQtQtQtQtQtQt",
"QtQtQtQtQtQtQtQtQtQtQtQtQt.u.K#j.W#k.Z#l.Q.R.S.T.U.V#m#n#o#p#p#p#p#o#n#m.V.U.T.S.R.Q#l.Z#k.W#j.K.uQtQtQtQtQtQtQtQtQtQtQtQtQtQtQt",
"QtQtQtQtQtQtQtQtQtQtQtQtQtQt.u#i.y.C.D.E.J#q.H.I#r#s#t.0#u#c#v#v#c#u.0#t#s#r.I.H#q.J.E.D.C.y#i.uQtQtQtQtQtQtQtQtQtQtQtQtQtQtQtQt",
"QtQtQtQtQtQtQtQtQtQtQtQtQtQtQt.u.u.w.x.y.z.A#w#x#y#z#A#B#C#D.F.F#D#C#B#A#z#y#x#w.A.X.y.x.w.u.uQtQtQtQtQtQtQtQtQtQtQtQtQtQtQtQtQt",
"QtQtQtQtQtQtQtQtQtQtQtQtQtQtQtQtQt.u.u.u.v.w.K.x#E.y#F#G#G#G#H#H#G#G#G#F.y#E.x.K.w.v.u.u.uQtQtQtQtQtQtQtQtQtQtQtQtQtQtQtQtQtQtQt",
"QtQtQtQtQtQtQtQtQtQtQtQtQtQtQtQtQtQtQtQtQt.u.u.u.u.u.u.u.u.u.u.u.u.u.u.u.u.u.u.u.uQtQtQtQtQtQtQtQtQtQtQtQtQtQtQtQtQtQtQtQtQtQtQt",
"QtQtQtQtQtQtQtQtQtQtQtQtQtQtQtQtQtQtQtQtQtQtQtQtQtQtQtQtQtQtQtQtQtQtQtQtQtQtQtQtQtQtQtQtQtQtQtQtQtQtQtQtQtQtQtQtQtQtQtQtQtQtQtQt",
"QtQtQtQtQtQtQtQtQtQtQtQtQtQtQtQtQtQtQtQtQtQtQtQtQtQtQtQtQtQtQtQtQtQtQtQtQtQtQtQtQtQtQtQtQtQtQtQtQtQtQtQtQtQtQtQtQtQtQtQtQtQtQtQt"};
