/* XPM */
static char *dummy[]={
"128 64 144 2",
"#5 c #000000",
"#s c #001111",
"#r c #002b2b",
"#A c #005e7f",
"#D c #007faa",
"#g c #080808",
"#L c #0f0e11",
"#z c #1e424f",
"#W c #212828",
"#q c #260c0c",
"#1 c #26252c",
"#Z c #35353a",
"#Y c #35383f",
".4 c #383f4a",
".g c #383f4b",
"#V c #383f4c",
".3 c #38404c",
".e c #393f4b",
"Qt c #3a404b",
".h c #3a404c",
"aa c #3d4046",
".d c #3d4047",
"#u c #3d5358",
".f c #3f4148",
".i c #404248",
"ai c #424349",
".# c #434245",
"am c #43434a",
"af c #44434a",
"#T c #444448",
".j c #44444b",
"#9 c #46413d",
".a c #46413e",
"#N c #470000",
".s c #474242",
"al c #474548",
".k c #47464d",
"#m c #494482",
"a# c #494649",
"#o c #4a2121",
"#E c #4a4138",
".b c #4a423a",
".t c #4a433e",
"an c #4b4440",
".l c #4b4951",
".c c #4c423a",
".m c #4d484c",
".u c #4e4541",
"#2 c #4f443c",
"ab c #50443c",
"#8 c #50453d",
"ak c #51453d",
".Q c #514743",
"#0 c #51545b",
"ad c #53463f",
"#X c #535353",
".E c #54473f",
"a. c #544845",
".n c #544946",
".q c #554840",
".r c #554a47",
"#4 c #562f1d",
".p c #584a43",
".o c #584a44",
"aj c #584a47",
".D c #584d4d",
".v c #5a4d4b",
"#3 c #5b4b44",
"ag c #5b4c48",
"#6 c #5c4b43",
"#7 c #5d4b43",
".8 c #5e4d45",
"ah c #5e4d48",
"ae c #5f4f4d",
".5 c #614d45",
".w c #61514f",
"#e c #635049",
"#C c #637a82",
".6 c #644f48",
"ac c #645352",
".x c #655451",
".F c #66514a",
"## c #67524b",
".R c #67544f",
"#H c #68524b",
".Z c #68534c",
"#F c #69534d",
".Y c #69544d",
".O c #6c564f",
".1 c #6c5650",
".y c #6c5959",
".X c #6d3300",
"#i c #6d5650",
"#b c #6e5651",
".0 c #6e5751",
".G c #6f5750",
".2 c #6f5a56",
".P c #705853",
".A c #705c5c",
".z c #705c5d",
".B c #715c5b",
"#B c #72472d",
".H c #725a55",
"#j c #7291ea",
"#K c #735a54",
".N c #745b56",
".C c #745d59",
"#t c #750000",
"#J c #755c57",
".S c #785e5a",
"#S c #797a7c",
".V c #7a5f5b",
".T c #7a605b",
".U c #7a605c",
"#. c #7c615d",
"#p c #7d625e",
".I c #7e625e",
".M c #826663",
".K c #836663",
".L c #836764",
"#v c #838384",
"#f c #84393a",
".J c #846763",
"#y c #871e38",
"#M c #8e3314",
"#G c #946c45",
"#n c #96b2ff",
".W c #996314",
"#U c #9e99a6",
"#w c #adb2af",
"#P c #af001c",
"#R c #c09d7b",
"#h c #c1bfbc",
"#d c #c46555",
"#O c #c65619",
".7 c #d19e30",
"#k c #e5f4ff",
"#Q c #ef0c23",
"#I c #f78c6b",
"#a c #f9edd6",
".9 c #fcd670",
"#x c #ff7084",
"#c c #ffa893",
"#l c #ffd8ce",
"QtQtQtQtQtQtQtQtQtQtQtQtQtQtQtQtQtQtQt.#.a.b.b.b.b.b.b.c.b.b.b.b.b.b.b.a.d.e.f.g.f.e.h.hQtQt.f.gQt.f.e.h.f.gQtQtQtQt.f.d.a.c.c.bQtQtQtQtQtQtQtQtQtQtQtQtQtQtQtQtQtQtQt.#.a.b.b.b.b.b.b.c.b.b.b.b.b.b.b.a.d.e.f.g.f.e.h.hQtQt.f.gQt.f.e.h.f.gQtQtQtQt.f.d.a.c.c.b",
"QtQtQtQtQtQtQt.gQt.gQt.g.gQt.g.g.g.g.g.d.a.b.b.b.b.b.b.b.b.b.b.b.b.b.b.a.e.e.g.g.g.g.e.gQt.g.g.g.g.g.e.e.g.g.g.g.gQt.g.d.a.c.c.cQtQtQtQtQtQtQt.gQt.gQt.g.gQt.g.g.g.g.g.d.a.b.b.b.b.b.b.b.b.b.b.b.b.b.b.a.e.e.g.g.g.g.e.gQt.g.g.g.g.g.e.e.g.g.g.g.gQt.g.d.a.c.c.c",
".h.hQtQtQt.g.gQt.gQtQt.g.g.g.g.g.g.g.g.d.a.b.b.b.b.b.b.b.b.b.b.b.b.b.b.a.e.g.g.g.g.g.g.g.g.g.g.g.g.g.e.e.g.g.g.g.g.g.g.d.a.c.c.c.h.hQtQtQt.g.gQt.gQtQt.g.g.g.g.g.g.g.g.d.a.b.b.b.b.b.b.b.b.b.b.b.b.b.b.a.e.g.g.g.g.g.g.g.g.g.g.g.g.g.e.e.g.g.g.g.g.g.g.d.a.c.c.c",
".d.d.d.i.j.j.k.k.k.l.l.l.m.l.l.m.l.l.l.m.n.o.p.o.o.o.q.p.o.o.o.o.o.o.p.n.r.l.l.l.l.l.l.l.l.l.l.l.l.l.l.l.l.l.l.l.k.k.k.j.s.a.t.a.d.d.d.i.j.j.k.k.k.l.l.l.m.l.l.m.l.l.l.m.n.o.p.o.o.o.q.p.o.o.o.o.o.o.p.n.r.l.l.l.l.l.l.l.l.l.l.l.l.l.l.l.l.l.l.l.k.k.k.j.s.a.t.a",
".t.a.a.u.v.w.w.x.y.z.z.z.y.z.z.z.z.A.A.B.B.C.C.C.C.C.C.C.C.C.C.C.C.C.C.C.z.A.A.A.y.z.z.z.z.z.z.y.A.A.z.z.z.z.z.y.x.w.w.D.j.d.d.d.t.a.a.u.v.w.w.x.y.z.z.z.y.z.z.z.z.A.A.B.B.C.C.C.C.C.C.C.C.C.C.C.C.C.C.C.z.A.A.A.y.z.z.z.z.z.z.y.A.A.z.z.z.z.z.y.x.w.w.D.j.d.d.d",
".c.b.b.E.F.G.G.H.I.J.J.K.L.L.L.L.K.J.K.K.J.M.M.M.M.M.L.M.M.M.M.M.M.M.M.L.J.J.K.J.K.K.L.M.J.L.L.K.K.K.K.J.K.J.L.I.N.G.G.w.k.gQtQt.c.b.b.E.F.G.G.H.I.J.J.K.L.L.L.L.K.J.K.K.J.M.M.M.M.M.L.M.M.M.M.M.M.M.M.L.J.J.K.J.K.K.L.M.J.L.L.K.K.K.K.J.K.J.L.I.N.G.G.w.k.gQtQt",
".c.c.b.E.F.G.O.H.I.J.K.K.K.K.J.J.L.K.K.K.K.K.M.M.M.M.M.M.M.M.M.M.M.M.M.M.K.K.K.K.K.K.K.K.K.K.K.K.K.M.M.K.K.K.K.I.P.O.O.w.kQtQt.h.c.c.b.E.F.G.O.H.I.J.K.K.K.K.J.J.L.K.K.K.K.K.M.M.M.M.M.M.M.M.M.M.M.M.M.M.K.K.K.K.K.K.K.K.K.K.K.K.K.M.M.K.K.K.K.I.P.O.O.w.kQtQt.h",
".a.a.a.Q.R.H.H.N.S.T.T.T.T.T.T.T.U.V.S.V.U.I.U.I.V.V.V.V.V.W.W.W.W.V.V.X.X.X.X.X.I.U.I.U.I.I.I.U.V.V.V.U.I.I.U.S.N.N.H.x.k.g.gQt.a.a.a.Q.R.H.H.N.S.T.T.T.T.T.T.T.U.V.S.V.U.I.U.I.V.V.V.V.V.V.V.V.V.V.V.V.V.I.V.I.I.U.I.U.I.I.I.U.V.V.V.U.I.I.U.S.N.N.H.x.k.g.gQt",
".d.d.d.m.y.I.I.S.G.Y.Y.Y.Y.Y.Y.Y.Z.Z.Y.G.0.H.H.P.1.Z.Z.Z.W.X.X.X.W.X.W.W.W.W.W.W.W.X.H.H.H.H.H.2.1.Z.Z.1.G.H.H.H.V.M.I.y.k.g.g.f.d.d.d.m.y.I.I.S.G.Y.Y.Y.Y.Y.Y.Y.Z.Z.Y.G.0.H.H.P.1.Z.Z.Z.Z.Z.Z.Z.Z.Z.Y.G.H.H.H.H.H.H.H.H.H.H.H.2.1.Z.Z.1.G.H.H.H.V.M.I.y.k.g.g.f",
"Qt.3.4.l.z.J.K.T.Z.5.5.5.5.5.5.5.5.5.5.6.Z.G.G.x.6.5.6.5.X.5.6.W.7.7.W.7.7.W.7.7.W.W.X.1.1.1.1.Z.6.5.5.6.Z.1.G.H.V.M.K.B.l.g.e.eQt.3.4.l.z.J.K.T.Z.5.5.5.5.5.5.5.5.5.5.6.Z.G.G.x.6.5.6.5.6.5.6.5.5.5.5.6.x.1.G.Y.G.1.1.1.1.1.1.Z.6.5.5.6.Z.1.G.H.V.M.K.B.l.g.e.e",
"QtQt.4.l.z.J.K.T.Y.5.5.5.5.5.5.5.5.5.8.6.1.G.1.Z.6.5.8.5.5.5.W.7.9.9.7.9.9.7.W.7.7.W.W.X.1.1.G.x.6.5.8.6.1.1.Y.H#..K.J.B.l.e.e.eQtQt.4.l.z.J.K.T.Y.5.5.5.5.5.5.5.5.5.8.6.1.G.1.Z.6.5.8.5.5.5.5.5.5.5.5.6##.G.1.1.1.1.1.1.1.1.G.x.6.5.8.6.1.1.Y.H#..K.J.B.l.e.e.e",
"Qt.4Qt.l.B.J.K.T.Y.5.5.5.6.5.5.6.6.F.6.F##.1.1##.6.5.6.5.5.W.7.9.9.7.9.9.9.9.9.W.7.7.W.W.X.1.G.1.F.6.6.F.1.1.G.2.I.J.K.B.l.e.e.hQt.4Qt.l.B.J.K.T.Y.5.5.5.6.5.5.6.6.F.6.F##.1.1##.6.5.6.5.5.6.5.6.6.6.6.F.1.1.G.1.1.1.G.1.1.1.G.1.F.6.6.F.1.1.G.2.I.J.K.B.l.e.e.h",
"Qt.4.4.l.z.K.K.T.Y.5.5.6.5.5.5.F##.Z.1##.F.F.6.6.6.6.5.5.W.7.W.7.9#a.9.9#a.7.9.9.7.7.X.W.X.1.1.1.Y.Z.1.1.1.1.1.H.I.K.L.z.l.g.gQtQt.4.4.l.z.K.K.T.Y.5.5.6.5.5.5.F##.Z.1##.F.F.6.6.6.6.5.5.5.6.5.6.Z.1.x.Y.G.G.G.1.1.G.1.1#b.1.1.1.Y.Z.1.1.1.1.1.H.I.K.L.z.l.g.gQt",
"QtQt.4.l.z.J.K.T.Y.5.5.5.5.6.5.F.1.G.G.1.6.5.5.6.5.5.5.X.X.X.7.9.9#a.9.7#a.9.7.9.7.7.7.X.W.X#b.1.G.G.1.1.G.1.1.H.U.K.L.z.l.g.gQtQtQt.4.l.z.J.K.T.Y.5.5.5.5.6.5.F.1.G.G.1.6.5.5.6.5.5.5.6.5.5.5.6.Z.G.G.1.1.G.1.1.1.1.G.1.1#b#b.1.G.G.1.1.G.1.1.H.U.K.L.z.l.g.gQt",
"Qt.4.4.l.z.K.K.U.Y.5.5.5.5.5.5.F.1.G.G.Y.F.5.5.5.5.5.5.5.5.7.9#a.9#a#a.W.7#a.9.9.9.W.7.W.X.X.1#b.1.1.G.1.1.1.G.H.I.K.L.z.l.e.g.fQt.4.4.l.z.K.K.U.Y.5.5.5.5.5.5.F.1.G.G.Y.F.5.5.5.5.5.5.5.5.6.5.6.1.G.G.1.G.1.1.1.1.1.1.1.1#b.1#b.1.1.G.1.1.1.G.H.I.K.L.z.l.e.g.f",
"QtQt.4.l.z.K.K.U.Y.5.5.5.6.F.6.F.Z.Z.1.Z.6.5.5.6.5.6.5.6.W.7.9#a.9.7#a#c#d.W.9.7.9.X.W.W.X.X.X.1.1.G.1.1.1.G.1.H.U.K.L.y.l.e.e.eQtQt.4.l.z.K.K.U.Y.5.5.5.6.F.6.F.Z.Z.1.Z.6.5.5.6.5.6.5.6.6.F.6##.Z.Z.1.1.1.1.1.G.G.1.G.1#b.1#b.1.1.G.1.1.1.G.1.H.U.K.L.y.l.e.e.e",
"Qt.gQt.m.y.L.L.U.Y.5.5.6##.Y.1##.F#e.6.6.6.5.6.5.8.5.6.W.7.W.9#a.7.W.9#f#g#g#h.W.9.W.X.W.W.X.1#b.G.1.0.1.1.1.1.H.U.M.L.z.l.g.gQtQt.gQt.m.y.L.L.U.Y.5.5.6##.Y.1##.F#e.6.6.6.5.6.5.8.5.6.6##.1.1##.F.F.F.F.x#i.1#b.1#b.1#b#b.1.1#b.G.1.0.1.1.1.1.H.U.M.L.z.l.g.gQt",
"QtQtQt.l.z.L.K.U.Y.5.5.F.Y.G.G.Y.F.5.6.5.5.5.6.5.6.5.5.6.Z.W.7#a.X#d.7#c#g#j#k#g.7#d.W.X.W.X#b.1.1.1.1#b.1.1.1.H.I.M.M.z.l.gQtQtQtQtQt.l.z.L.K.U.Y.5.5.F.Y.G.G.Y.F.5.6.5.5.5.6.5.6.5.5.6.Z.G.G.Z.6.5.8.F.1#i#i.1#b.1#b.1.1.1#b.1.1.1.1#b.1.1.1.H.I.M.M.z.l.gQtQt",
"Qt.g.g.l.z.K.K.U.Y.5.5.F.1.G.G.1.6.5.5.5.5.6.5.5.6.5.5.6.1.0.7.9.X#c#c#l#m#n#c#o.7#d.W.X#b.X.1#b.1#b.1.0.G.1.1.H.U.M.M.z.m.g.gQtQt.g.g.l.z.K.K.U.Y.5.5.F.1.G.G.1.6.5.5.5.5.6.5.5.6.5.5.6.1.0.0.1.6.5.5#e.Y.0.1#b.1#b#b.1#b.1.1#b.1#b.1.0.G.1.1.H.U.M.M.z.m.g.gQt",
"Qt.g.g.k.z.K.K.U.Y.6.6.F.Z.Y.1##.6.5.6.5.5.5.5.6.6.6.6##.Z.Z.W.9.X#c#l#l#l#l#d#o.W.X.W.X.1#b#b.1.1.1#b.1.1.1.1.H#p.M.M.z.l.gQtQtQt.g.g.k.z.K.K.U.Y.6.6.F.Z.Y.1##.6.5.6.5.5.5.5.6.6.6.6##.Z.Z.1.Z.F.6#e.F.1.1#b.1.1.1.1#b.1#b#b.1.1.1#b.1.1.1.1.H#p.M.M.z.l.gQtQt",
"QtQtQt.l.z.K.K.I.0.Y.Y.Y.F.F.6.F.5.6.5.6.6.5.5.F##.1.Z##.F.6.6.7.X#d#l#l#l#c#f#o.X.X.X.1#b.1#b#b.0.1#b.1#b.1.G.H.I.K.J.z.l.g.gQtQtQtQt.l.z.K.K.I.0.Y.Y.Y.F.F.6.F.5.6.5.6.6.5.5.F##.1.Z##.F.6.6.F.Y.Y.Y.Y.1#b.1#b#b.1#b.1#b.1#b#b.0.1#b.1#b.1.G.H.I.K.J.z.l.g.gQt",
"QtQtQt.l.z.K.K.U.H.G.0.1.6.5.5.5.5.5.5.5.5.5.5#e.1.G.G.1.6.5.5.W#o#o#d#c#d#f#o#q.X#r#s#b.1#b.1.1.1#b.1#b#b.1.Y.H.I.K.J.z.l.e.g.hQtQtQt.l.z.K.K.U.H.G.0.1.6.5.5.5.5.5.5.5.5.5.5#e.1.G.G.1.6.5.5.F.Y.G.0.0.1#b#b.1.1#b.1#b.1#b.1.1.1#b.1#b#b.1.Y.H.I.K.J.z.l.e.g.h",
"QtQt.4.k.z.K.K.I.H.G.G.Y.6.5.5.5.6.5.6.5.5.5.5.F.Y.G.G.1.F.8.5.6#t#r#u#o#o#o#q#r#r#r#r#s#b.1.1#b.1#b.1.1.1#b.1.H.T.K.J.z.l.g.g.hQtQt.4.k.z.K.K.I.H.G.G.Y.6.5.5.5.6.5.6.5.5.5.5.F.Y.G.G.1.F.8.5.6.Y.1.G.G.1.1.1#b.1#b#b.1#b.1.1#b.1#b.1.1.1#b.1.H.T.K.J.z.l.g.g.h",
"Qt.4Qt.l.z.K.K.U.P.Y.Y.Z.F.6#e.F.6.5.5.5.6.F.6.F.Z.1.Z.Z.F.6.6#e#s#v#w#w#x#y#z#z#z#z#r#r.1#b.1.1.0.1#b.1.1.1.1.B.I.K.J.z.m.d.d.dQt.4Qt.l.z.K.K.U.P.Y.Y.Z.F.6#e.F.6.5.5.5.6.F.6.F.Z.1.Z.Z.F.6.6#e.1.G.1.G#b.1#b.1#b.1#b.1.1#b.1.1.0.1#b.1.1.1.1.B.I.K.J.z.m.d.d.d",
"QtQt.4.k.z.J.J.U.O.6.6.F.Y.Y.O.Y.F.5.5.F##.Y.1.Z##.F.6.F.Z.1.Y#s#u#r#r#u#r#r#r#z#u#u#A#r#r.1.1#b#b.1.1.1.1.1.1.H.U.K.K.B.n.a.a.tQtQt.4.k.z.J.J.U.O.6.6.F.Y.Y.O.Y.F.5.5.F##.Y.1.Z##.F.6.F.Z.1.Y.1.1.1.1.1.1.1.1.1.1#b.1.1#b.1.1#b#b.1.1.1.1.1.1.H.U.K.K.B.n.a.a.t",
"Qt.3Qt.l.z.L.K.T.Y.5.5.6.Y.0.G.Y.6.5.5.F.1.G.G.Z.6.5.5.6.Z.G.G#s#B#B#u#C#D#r#r#z#u#D#r#z#r#b#b.1.1.1#b.G.G.1.1.H.U.K.K.C.p.c#E.bQt.3Qt.l.z.L.K.T.Y.5.5.6.Y.0.G.Y.6.5.5.F.1.G.G.Z.6.5.5.6.Z.G.G.G.1.1.G.1.2.1.G.1#b.1.1#b.1#b#b.1.1.1#b.G.G.1.1.H.U.K.K.C.p.c#E.b",
"Qt.3.3.l.y.L.L.U#F.5.5.6.O.0.0.Y.F.5.5.6.1.G.G.Y.F.5.5.6.x.G#b#s#z#r#u#G#B#r#r#r#u#u#B#r#r.1.1#b#b.1.1.1.1.1.1.H.I.K.K.H.p#E.b.bQt.3.3.l.y.L.L.U#F.5.5.6.O.0.0.Y.F.5.5.6.1.G.G.Y.F.5.5.6.x.G#b#b.G.1.1.1.1.1.1.1.1#b.1.1#b.1.1#b#b.1.1.1.1.1.1.H.I.K.K.H.p#E.b.b",
".d.d.d.m.z.K.L.U.Y.6.6.F.Y.Y.Y#H.6.5.5.6.Z.Y.Y.Z.F.6.6##.1#b.1#s#B#B#u#z#z#r#s#r#z#z#r#f#f#f#b.1.1#b.1.G.1.1.1.H.I.K.K.B.p.b.b.b.d.d.d.m.z.K.L.U.Y.6.6.F.Y.Y.Y#H.6.5.5.6.Z.Y.Y.Z.F.6.6##.1#b.1.1.1.1.G.1.G.1.G.1#b.1#b#b.1#b#b.1.1#b.1.G.1.1.1.H.I.K.K.B.p.b.b.b",
".a.a.a.n.B.J.L.U.P.Y.Y.Y.F.F.F.6.5.5.5.6.F.6.F.F##.Y.1.1.1.1.1#s#z#r#u#G#B#r#s#r#r#f#d#I#d#f#b.1#b.1.1#b.1.1.1.H.I.M.M.C.p.b.b.b.a.a.a.n.B.J.L.U.P.Y.Y.Y.F.F.F.6.5.5.5.6.F.6.F.F##.Y.1.1.1.1.1#b#i.1.1#b.1.G.1.1#b.1#b.1#b.1#b.1#b.1.1#b.1.1.1.H.I.M.M.C.p.b.b.b",
".b.b#E.p#J.K.L.U#K.0.0.Y.F.5.5.6.5.6.5.6.5.5.5.6.1.G.G.1.1.1.G#B#s#s#s#z#r#r#L#s#s#f#I#l#I#d#f#b.1#b#b.1.1.1.1.H.U.M.M.C.p.b.b.b.b.b#E.p#J.K.L.U#K.0.0.Y.F.5.5.6.5.6.5.6.5.5.5.6.1.G.G.1.1.1.G.1#i.1#b.1.1.1.1#b.1#b.1#b.1#b.1#b.1#b#b.1.1.1.1.H.U.M.M.C.p.b.b.b",
".b.b.b.p#J.K.K.I.H.0.O.Y#e.5.5.5.5.5.6.5.5.5.5.F.Z.1.1.1.1.1.1#B#r#u#M#s#s#s#s#N#N#N#f#d#d#B#B.1.1#b.1#b.1.1.G.H.I.M.M.C.q.b.b.b.b.b.b.p#J.K.K.I.H.0.O.Y#e.5.5.5.5.5.6.5.5.5.5.F.Z.1.1.1.1.1.1.0#i#b.1#b.1.1#b.1.1.1.1#b.1#b#b.1.1#b.1#b.1.1.G.H.I.M.M.C.q.b.b.b",
".c.b.b.p#J.K.K.U.H.O.G.Y.F.5.5.5.6.5.5.5.5.6.5.F.1.G.G.1.1.1.1#N#O#O#r#N#N#N#t#t#t#N#r#u#C#u#G#B#b.1#b.1.G.1.1.H.U.M.M.C.o#E.b.b.c.b.b.p#J.K.K.U.H.O.G.Y.F.5.5.5.6.5.5.5.5.6.5.F.1.G.G.1.1.1.1.1#b.1#b.1#b#b.1#b#b.1#b.1#b.1.1.1#b.1#b.1.G.1.1.H.U.M.M.C.o#E.b.b",
".b.b.b.p.B.K.K.I.H.1.G.Y.6.6.5.6.5.6.6.5.5.5.5.6.1#b#b#b.G.1#B#N#r#z#r#t#P#P#P#Q#P#t#r#R#R#G#u#B.1#b.1#b.1.1.1.H.U.M.M.C.o.b.b.b.b.b.b.p.B.K.K.I.H.1.G.Y.6.6.5.6.5.6.6.5.5.5.5.6.1#b#b#b.G.1.1.0.1#b.1#b.1.1#i#i.1#b.1#b.1.1.1#b.1#b.1#b.1.1.1.H.U.M.M.C.o.b.b.b",
".c.b#E.p.N.K.K.U.H.1.G.Z.6.5.5.5.5.5.5.5.6.5.6.6.x#b.1.1#f#f#N#r#u#u#r#N#N#N#N#N#N#t#N#r#d#u#G#r#N#N.1.1.G.1.1.H.U.M.K.C.o.b.b.b.c.b#E.p.N.K.K.U.H.1.G.Z.6.5.5.5.5.5.5.5.6.5.6.6.x#b.1.1.1.0.1.1#b.1#b#i#b.1#i#i#b.1#b.1.1#b#b.1#b.1.1.1.G.1.1.H.U.M.K.C.o.b.b.b",
".c#E.b.p.C.K.K.I.H.G.G.1.F.5.5.5.6.5.5.6.5.5.5.F.Z.G#b#f#I#d#N#r#B#r#r#z#t#t#t#N#N#N#f#f#u#G#u#B#N#N#N.1.1.1.1.H#p.M.M.C.p.b.b.c.c#E.b.p.C.K.K.I.H.G.G.1.F.5.5.5.6.5.5.6.5.5.5.F.Z.G#b.1#b.1.1.1.1.1#i#i#i#i#i#i.1#b#b.1#b.1#b.1#b.1#b.1.1.1.1.H#p.M.M.C.p.b.b.c",
".a.a.a.n.B.K.K.V.2.Z.Y.Z.6.5.6.5.5.5.5.6.6.6.6##.Y.G#f#d#f#I#N#B#B#s#B#z#t#P#t#t#N#f#I#f#I#d#o#o#S#T#N#N.1.G.1.H#p.M.M.z.n.a.a.a.a.a.a.n.B.K.K.V.2.Z.Y.Z.6.5.6.5.5.5.5.6.6.6.6##.Y.G#b.1#b.1.G.1#b.1#i#i#i#i#i#i.1#b.1#b.1#b.1#b.1#b.1#b.1.G.1.H#p.M.M.z.n.a.a.a",
".d.d.e.r.z.J.J.I.Y.6.F.6.6.5.5.5.6.5.6.6##.x.Y.Y.G.G#f#d#I#t#r#B#s#r#G#z#t#P#t#t#t#f#I#d#d#f#f#o#U#S#N#N#P#v#w#w#v.K.J.z.m.d.d.d.d.d.e.r.z.J.J.I.Y.6.F.6.6.5.5.5.6.5.6.6##.x.Y.Y.G.G.1.1.1.1.G.1.G.1.1.1#i.1#b.1.1.1#b.1.1.1.1.1#b.1#b.1.1.1.G.H.I.K.J.z.m.d.d.d",
"Qt.g#V.l.z.L.K.S.Z.5.5.5.5.6.5.6.5.5.5.6.1.G.G.G.1.1.1#f#f#t#r#s#s#G#r#s#W#t#P#t#t#t#f#l#I#I#f#o#U#U#T#t#N#t#v#X#X.K.K.z.lQtQtQtQt.g#V.l.z.L.K.S.Z.5.5.5.5.6.5.6.5.5.5.6.1.G.G.G.1.1.1.G.1.G.1.1.1.1.G.1#i#b#i.1#b.1.1#b.1.G.1.1#b.1.1#b#i#i.Y.H.U.K.K.z.lQtQtQt",
"Qt.g#V.l.z.L.M.U.Z.5.5.6.5.5.5.6.5.5.5.6##.G.1.G.G.G.1.G#t#N#s#s#s#B#s#W#W#t#P#P#t#t#f#d#d#f#f#o#S#U#T#N#W#v#X#X.I.K.L.z.l.4QtQtQt.g#V.l.z.L.M.U.Z.5.5.6.5.5.5.6.5.5.5.6##.G.1.G.G.G.1.G.1.1.1.1.1.0.G.G#i#i#i#i.1#b.1.G.1.G.1.2.1#b.1.1#i.G.1.H.I.K.L.z.l.4QtQt",
".d.d.e.m.z.L.M.U.Z.5.5.5.6.5.5.5.6.F.6##.1.G.1.G.Y.Z.x.1#t#N#N#W#X#X#X#Y#Z#W#P#P#P#P#t#f#l#I#o#t#T#U#T#N#N#X#X#N#X.K.M.y.l.4QtQt.d.d.e.m.z.L.M.U.Z.5.5.5.6.5.5.5.6.F.6##.1.G.1.G.Y.Z.x.1.1.1.G.G.1.1.x.1.1#i#i#i.G.1.1.1.1.1.1#b#b.1#b.1.1.x.Y.2.U.K.M.y.l.4QtQt",
".t.a.a.n.B.K.K.S.Z.6.5.5.5.6.6.6.Z.Y.1.x.G.1.1.Z##.6.6#t#N#N#N#X#v#v#v#Y#Z#W#P#Q#Q#P#P#P#t#t#t#t#N#S#T.O.F.F#X#0#X.K.J.z.lQtQtQt.t.a.a.n.B.K.K.S.Z.6.5.5.5.6.6.6.Z.Y.1.x.G.1.1.Z##.6.6##.1.G.G.1#e#e.F.F.Y.G.1.1.1.1.1.1.1.1.G.1.G.1.G.O.F.F.F.Y.U.K.J.z.lQtQtQt",
".b.b#E.p#J.J.J.S.Z.5.5.6.5.5.5.6.1.G.1.1.G.G.G.Y.6.5.5#t#N#N#W#v#w#w#v#Y#Z#W#L#P#Q#Q#P#P#P#P#t#X#X#W#T.Y.F.5.5#X#0#X.L.z.lQtQtQt.b.b#E.p#J.J.J.S.Z.5.5.6.5.5.5.6.1.G.1.1.G.G.G.Y.6.5.5.6.Z.G.G.Z#e.5.5.F.Y.G.G.1.1.G.1.G.1.G.1.1.1.G.G.Y.F.5.5.Y.T.K.L.z.lQtQtQt",
".c.b#E.p.C.M.J.T.Z.6.5.5.5.6.8.6.Z.G.1.G.G.G.G.1.6.8#X#v#N#N#W#w#w#w#v#X#Z#W#L#W#Q#Q#Q#P#P#t#X#S#W#X#W.Y.F.5.5.Y#X#X.K.z.k.g.3Qt.c.b#E.p.C.M.J.T.Z.6.5.5.5.6.8.6.Z.G.1.G.G.G.G.1.6.8.6.6.x.G.G.O.5.5.5.6.x.G.1#b.1#b.1#b.1.1.1.1.1.G.G.Y.F.5.5.Y.T.K.K.z.k.g.3Qt",
".b.b.b.p.C.K.K.T.Z.5.5.6.6.6.6##.1.G.1.1.1.Z.1##.F.6#W#w#N#N#W#0#v#v#0#X#1#L#N#L#P#Q#Q#Q#P#X#w#W#W#X#W.F.5.p.o##.T.K.K.y.l.g.gQt.b.b.b.p.C.K.K.T.Z.5.5.6.6.6.6##.1.G.1.1.1.Z.1##.F.6.6##.Z.O.Z.Z.F.F#e.F.1#b#b.1.1.1#b.1.1.1.1.1.Y.Y.Y.F.5.p.o##.T.K.K.y.l.g.gQt",
".b.b.b.o.C.M.M.V.Z.6.5.6.Z.Z.1.Z.1.1.G.1##.6.6.F###X#w#W#N#N#1#Y#Y#X#X#Y#W#L.1#L#W#Q#Q#Q#t#X#W#S#S#W#T.8.E#2#2.8.C.J.J.z.mQtQtQt.b.b.b.o.C.M.M.V.Z.6.5.6.Z.Z.1.Z.1.1.G.1##.6.6.F##.Y.1.Z.F.6.6##.Y.Y.Y.1.1.1.1#b#b.1#b.1#b.1.G.1##.F.F.8.E#2#2.8.C.J.J.z.mQtQtQt",
".b.b.b.o.C.K.M.V.Z.5.5.6.1.1.G.1.1.1.G.Z.6.8.5.6.1.1#X#v.F#1#B#G#B#Y#Y#1#L.1.G.1#L#Q#P#t#w#S#W#S#W#g#T#3#2.b.b.q.C.K.J.z.l.hQtQt.b.b.b.o.C.K.M.V.Z.5.5.6.1.1.G.1.1.1.G.Z.6.8.5.6.1.1.G.Z.F.5.5.6.Y.G.G.1.1.1.G.1.1#b.1.1#b#i.G.Y#e.5.5#3#2.b.b.q.C.K.J.z.l.hQtQt",
".b.b.b.o.C.M.M.V.Z.5.8.6.Z.G.G.1.G.1.G.1.6.5.5.6.1.G.G.1.6#1#Z#0#G#4#1#L.1.1.1.1#b#w#w#w#W#W#w#X.F.5#g.8#2.b.b.o.C.K.K.z.k.4.3Qt.b.b.b.o.C.M.M.V.Z.5.8.6.Z.G.G.1.G.1.G.1.6.5.5.6.1.G.G.1.6.5.8.6.Y.G.1.1.1.1.1.1#b.1#b#b#b.G.G.1.F.5.5.8#2.b.b.o.C.K.K.z.k.4.3Qt",
".a.a.a.r.C.M.M.U.1.6.6##.1.G.G.G.x.1.Z.Z##.6.6####.1.Z#5#1#B#G#B#1#Z#1#5#5#5#5#5#5#S#W#W#w#S#X#L.F.5.5#6#2.b.b.o.C.K.J.z.l.4QtQt.a.a.a.r.C.M.M.U.1.6.6##.1.G.G.G.x.1.Z.Z##.6.6####.1.Z.Z.F.6.6.F.G.G.G.1.G.1.G.1.1#b.1.1.1.x.Y##.F.5.5#6#2.b.b.o.C.K.J.z.l.4QtQt",
".d.d.e.r.z.J.K.U.P.Z.Z.1.1.1.1.1.F.6.6.F##.Y.1#5#X#0#0#1#4#Z#0#L#4#L#L#5#5#5#5#5#5#5#S#S#X#X#L#L#L#5#5.8#2.b.b.n.C.J.J.B.l.g.gQt.d.d.e.r.z.J.K.U.P.Z.Z.1.1.1.1.1.F.6.6.F##.Y.1##.F.F.6.F.Z.1.Y.1.1.1#b.1.1.1.1.1.G.1.G.G.F.F.F.F.5.6.5.8#2.b.b.n.C.J.J.B.l.g.gQt",
"Qt.g#V.l.z.J.K.I.H.G.1.G.1.G.G.Z.F.5.5.F.Y#5#5#0#S#S#S#0#Z#B#Z#0#L#L#5#5#5#5#5#5#5#5#L#1#1#L#L#L#g#5#5#5#5.b.b.q.C.J.J.z.l.gQtQtQt.g#V.l.z.J.K.I.H.G.1.G.1.G.G.Z.F.5.5.F.Y.G.1.1.6.8.5.6.Z.G.G.G#b#b.1#b#b.G.1.1.1.1.G.Y.6.5.5.5.5.5.5#6#2.b.b.q.C.J.J.z.l.gQtQt",
"Qt.g#V.l.z.M.M.U.H.G.G.1.G.G.G.1.6.5.5.6#5#5#5#L#1#S#S#S#0#Z#4#1#L#5#5#5#5#5#5#5#5#L#1#Z#1#1#L#L#g#5#5#5#5#5.b.n.C.J.J.z.l.g.gQtQt.g#V.l.z.M.M.U.H.G.G.1.G.G.G.1.6.5.5.6.Y.G.G.Y.F.5.5.6.x.G#b#b.1.1#b.1.1#b.1.G.1.G.G.Y.F.5.5.5.5.5.5#7#8.b.b.n.C.J.J.z.l.g.gQt",
".d.d.e.m.z.M.M.I.H.O.Y.G.Y.Y.x##.F.5.5#5#5#5#5#5#L#1#0#0#0#0#1#L#L#5#5#5#5#5#5#5#5#L#Z#Z#1#1#L#L#g#5#5#5#5#5#5.8.C.J.K.B.m.d.d.d.d.d.e.m.z.M.M.I.H.O.Y.G.Y.Y.x##.F.5.5.F.Y.G.G.1.F.6.6##.1#b.1.1.1#b.1.1#b.1.1.1.Y.x.Y.Z.6.5.5.5.F.F.F.5.q#2#2.8.C.J.K.B.m.d.d.d",
".t.a#9.n.C.K.M.I.H.1.G.Y##.F.6.6.6.5#5#5#5#5#5#5#5#g#L#1#0#Z#1#L#5#5#5#5#5#5#5#5#5#g#L#L#L#g#5#5#5#5#5#5#5#5#5#5.T.K.K.B.n.a.a.a.t.a#9.n.C.K.M.I.H.1.G.Y##.F.6.6.6.5.5.F.Y.G.G.Y.Y.Y.1.1.1.1.1#b#b.1#b.1.1.G.1.1#H.6.6.6.6.5.5.F#H.Y.1##.8.o#6.F.T.K.K.B.n.a.a.a",
".b.b#E.p.C.K.M.I.H.1.G.1.6.5.5.5.5.5#5#5#5#5#5#5#5#5#5#L#Z#1#L#5#5#5#5#5#5#5#5#5#5#5#5#5#5#5#5#5#5#5#5#5#5#5#5#5.T.K.K.C.p.b.c.c.b.b#E.p.C.K.M.I.H.1.G.1.6.5.5.5.5.5.5.F.1.1.G.1.G.G#b.1.1.1.1#b#b.1#b#b.1.G.G.Z.F.5.5.5.5.5.5.F.Y.G.G.Y.F.5.5.Y.T.K.K.C.p.b.c.c",
".c.c#E.p.C.M.M#p.H.1.G.Y.6.5.5.6.5.5#5#5#5#5#5#5#5#5#5#5#g#L#g#5#5#5#5#5#5#5#5#5#5#5#5#5#5#5#5#5#5#5#5#5#5#5#5#5.T.K.K.C.p#E#E.c.c.c#E.p.C.M.M#p.H.1.G.Y.6.5.5.6.5.5.5#e.R.G.1.G.G.1.G.G.1.1.1.1.G.G.1#b.G.G.G.Y.F.5.5.5.5.5.5.F.Y.G.G.1.F.5.5.Y.T.K.K.C.p#E#E.c",
".a.a.a.n.H.I.I.C.0.Z.Y.Z.6.6.5.5.6.6#5#5#5#5#5#5#5#5#5#5#5#5#5#5#5#5#5#5#5#5#5#5#5#5#5#5#5#5#5#5#5#5#5#5#5#5#5#5#J.I.I.2a..a.a.t.a.a.a.n.H.I.I.C.0.Z.Y.Z.6.6.5.5.6.6.F##.Y.1.G.O.1.1.1.1.1.1#b.1.Y.Y.x.1.O.Y.Y.Z.F.5.5.6.6.6.F.F.Y.O.Y##.5#6#6.F#J.I.I.2a..a.a.t",
".#.d.ea#.x.H.H.G.Z.F.6.6.6.6.5.6.Z.Y.O#5#5#5#5#5#5#5#5#5#5#5#5#5#5#5#5#5#5#5#5#5#5#5#5#5#5#5#5#5#5#5#5#5#5#5#5.p.Y#J#J.Ra#aa.d.d.#.d.ea#.x.H.H.G.Z.F.6.6.6.6.5.6.Z.Y.O.Y.G.G.G.G.1.1.1.1.1.G.G.O##.6.F.F.6.F.F.6.5.5.6.6#H.O.Y.Z.F.F.F.8.E#2ab.p.Y#J#J.Ra#aa.d.d",
".e.g.g.kac.G.G.1.6.6.5.6.5.5.6.6.Y.G.G.G#5#5#5#5#5#5#5#5#5#5#5#5#5#5#5#5#5#5#5#5#5#5#5#5#5#5#5#5#5#5#5#5#5#5#Ead.F.G.O.w.k.3QtQt.e.g.g.kac.G.G.1.6.6.5.6.5.5.6.6.Y.G.G.G.G.G.G.O.G.G.G.G.G.G.G.Y.F.5.5.5.5.5.5.5.6.5.5.F.O.O.G.O.F.5.5#7ab.b#Ead.F.G.O.w.k.3QtQt",
".e.e.e.kae.G.G.Z.6.6.5.5.5.6.5.6.O.G.G.G.1#5#5#5#5#5#5#5#5#5#5#5#5#5#5#5#5#5#5#5#5#5#5#5#5#5#5#5#5#5#5#5#5.b.bad.F.0.0.w.k.3QtQt.e.e.e.kae.G.G.Z.6.6.5.5.5.6.5.6.O.G.G.G.1.G.G.G.G.G.G.G.1.G.G.Y.6.5.5.6.5.6.6.5.6.5.5.F.O.G.G.Y.6.6.5.8ab.b.bad.F.0.0.w.k.3QtQt",
".e.f.daf.v##.6.6.v.n.oag#6.5#3#3.vacae.w.w.F#e#5#5#5#5#5#5#5#5#5#5#5#5#5#5#5#5#5#5#5#5#5#5#5#5#5#5#5#5a.#2.a.a.Qah.F.R.vai.3QtQt.e.f.daf.v##.6.6.v.n.oag#6.5#3#3.vacae.w.w.F#e.w.wae.w.w.F.w.F.6.8#3#3#3#6#6#6#6#6#6#6.8.6aeac.v.v.oaja.#2.a.a.Qah.F.R.vai.3QtQt",
".t.a.a.tak.E.E.Qalamafan#2akak.ua#.k.ja#.Q.E.E.Qa#.k.k#5#5#5#5#5#5#5#5#5#5#5#5#5#5#5#5#5#5#5#5.j.jafaf.i.i.d.d.#.u.E.q.u.fQtQtQt.t.a.a.tak.E.E.Qalamafan#2akak.ua#.k.ja#.Q.E.E.Qa#.k.k.j.Q#8.q.Q#8#8#8#8#8#8#8#8#8#8#8.ua#.k.k.j.jafaf.i.i.d.d.#.u.E.q.u.fQtQtQt",
".b.c.c.c.b.b.b#9.e.e.e.e.a.b.c.a.dQt#Vaa.a.b.b.a.d#V.g.d.a.b.b.b.c.c.t.b.c.b.b.c.b.b.c.a.d.g.g.g.gQtQtQt.h.h.h.d.a.b.b.a.dQtQtQt.b.c.c.c.b.b.b#9.e.e.e.e.a.b.c.a.dQt#Vaa.a.b.b.a.d#V.g.d.a.b.b.b.c.c.t.b.c.b.b.c.b.b.c.a.d.g.g.g.gQtQtQt.h.h.h.d.a.b.b.a.dQtQtQt",
".c.c.c.c.b.c.b.t.#.e.e.f.a.c.c.a.dQtQt.d.a#E.b.a.d.hQt.d.a.c.b.b.b.c.b.b.b.b.c.b.b.b.b.a.d.g.gQtQtQtQtQtQt.h.h.d.a.c.b.a.d.h.hQt.c.c.c.c.b.c.b.t.#.e.e.f.a.c.c.a.dQtQt.d.a#E.b.a.d.hQt.d.a.c.b.b.b.c.b.b.b.b.c.b.b.b.b.a.d.g.gQtQtQtQtQtQt.h.h.d.a.c.b.a.d.h.hQt",
".b.b.c.b.b.c.b.t.e.e.g.e.t.c.c.a.dQtQt.d.a.c.b.a.d.hQt.d.a.c.c.c.c.b.c.b.c.c.b.c.c.b.b.t.dQtQtQtQtQtQtQtQtQt.h.d.a.c.c.a.dQtQtQt.b.b.c.b.b.c.b.t.e.e.g.e.t.c.c.a.dQtQt.d.a.c.b.a.d.hQt.d.a.c.c.c.c.b.c.b.c.c.b.c.c.b.b.t.dQtQtQtQtQtQtQtQtQt.h.d.a.c.c.a.dQtQtQt"};
