/* XPM */
static char *dummy[]={
"128 64 144 2",
"#6 c #000000",
"#t c #001111",
"#s c #002b2b",
"#F c #005e7f",
"#E c #007faa",
"#i c #080808",
"#X c #0f0e11",
"#z c #1e424f",
"#T c #212828",
"#r c #260c0c",
"#1 c #26252c",
"#3 c #35353a",
"#5 c #35383f",
"#4 c #371812",
".4 c #383f4a",
".g c #383f4b",
"#S c #383f4c",
".3 c #38404c",
".e c #393f4b",
"Qt c #3a404b",
".h c #3a404c",
"ab c #3d4046",
".d c #3d4047",
"#v c #3d5358",
".f c #3f4148",
".i c #404248",
"aj c #424349",
".# c #434245",
"am c #43434a",
"af c #44434a",
"#b c #444448",
".j c #44444b",
"#9 c #46413d",
".a c #46413e",
"#N c #470000",
".s c #474242",
"al c #474548",
".k c #47464d",
"#o c #494482",
"a# c #494649",
"#q c #4a2121",
"#A c #4a4138",
".b c #4a423a",
".t c #4a433e",
"an c #4b4440",
".l c #4b4951",
".c c #4c423a",
".m c #4d484c",
".u c #4e4541",
"#Y c #4f443c",
"aa c #50443c",
"#8 c #50453d",
"ak c #51453d",
".Q c #514743",
"#W c #51545b",
"ad c #53463f",
"#V c #535353",
".E c #54473f",
"a. c #544845",
".n c #544946",
".q c #554840",
".r c #554a47",
"#0 c #562f1d",
".p c #584a43",
".o c #584a44",
"ah c #584a47",
".D c #584d4d",
".v c #5a4d4b",
"#Z c #5b4b44",
"ag c #5b4c48",
"#2 c #5c4b43",
"#7 c #5d4b43",
".7 c #5e4d45",
"ai c #5e4d48",
"ae c #5f4f4d",
".5 c #614d45",
".w c #61514f",
"#d c #635049",
"#D c #637a82",
".6 c #644f48",
"ac c #645352",
".x c #655451",
".F c #66514a",
".8 c #67524b",
".R c #67544f",
"#G c #68524b",
".X c #68534c",
"#B c #69534d",
".W c #69544d",
".O c #6c564f",
".Z c #6c5650",
".y c #6c5959",
".2 c #6d3300",
"#e c #6d5650",
"#a c #6e5651",
".Y c #6e5751",
".G c #6f5750",
".0 c #6f5a56",
".P c #705853",
".A c #705c5c",
".z c #705c5d",
".B c #715c5b",
"#C c #72472d",
".H c #725a55",
"#k c #7291ea",
"#J c #735a54",
".N c #745b56",
".C c #745d59",
"#u c #750000",
"#I c #755c57",
".S c #785e5a",
"#K c #797a7c",
".V c #7a5f5b",
".T c #7a605b",
".U c #7a605c",
".9 c #7c615d",
"#m c #7d625e",
".I c #7e625e",
".M c #826663",
".K c #836663",
".L c #836764",
"#w c #838384",
"#h c #84393a",
".J c #846763",
"#L c #8e3314",
"#H c #946c45",
"#p c #96b2ff",
".1 c #996314",
"#O c #9e99a6",
"#x c #adb2af",
"#R c #af001c",
"#Q c #c09d7b",
"#j c #c1bfbc",
"#g c #c46555",
"#P c #c65619",
"#. c #d19e30",
"#l c #e5f4ff",
"#U c #ef0c23",
"#M c #f78c6b",
"#c c #f9edd6",
"## c #fcd670",
"#y c #ff7084",
"#f c #ffa893",
"#n c #ffd8ce",
"QtQtQtQtQtQtQtQtQtQtQtQtQtQtQtQtQtQtQt.#.a.b.b.b.b.b.b.c.b.b.b.b.b.b.b.a.d.e.f.g.f.e.h.hQtQt.f.gQt.f.e.h.f.gQtQtQtQt.f.d.a.c.c.bQtQtQtQtQtQtQtQtQtQtQtQtQtQtQtQtQtQtQt.#.a.b.b.b.b.b.b.c.b.b.b.b.b.b.b.a.d.e.f.g.f.e.h.hQtQt.f.gQt.f.e.h.f.gQtQtQtQt.f.d.a.c.c.b",
"QtQtQtQtQtQtQt.gQt.gQt.g.gQt.g.g.g.g.g.d.a.b.b.b.b.b.b.b.b.b.b.b.b.b.b.a.e.e.g.g.g.g.e.gQt.g.g.g.g.g.e.e.g.g.g.g.gQt.g.d.a.c.c.cQtQtQtQtQtQtQt.gQt.gQt.g.gQt.g.g.g.g.g.d.a.b.b.b.b.b.b.b.b.b.b.b.b.b.b.a.e.e.g.g.g.g.e.gQt.g.g.g.g.g.e.e.g.g.g.g.gQt.g.d.a.c.c.c",
".h.hQtQtQt.g.gQt.gQtQt.g.g.g.g.g.g.g.g.d.a.b.b.b.b.b.b.b.b.b.b.b.b.b.b.a.e.g.g.g.g.g.g.g.g.g.g.g.g.g.e.e.g.g.g.g.g.g.g.d.a.c.c.c.h.hQtQtQt.g.gQt.gQtQt.g.g.g.g.g.g.g.g.d.a.b.b.b.b.b.b.b.b.b.b.b.b.b.b.a.e.g.g.g.g.g.g.g.g.g.g.g.g.g.e.e.g.g.g.g.g.g.g.d.a.c.c.c",
".d.d.d.i.j.j.k.k.k.l.l.l.m.l.l.m.l.l.l.m.n.o.p.o.o.o.q.p.o.o.o.o.o.o.p.n.r.l.l.l.l.l.l.l.l.l.l.l.l.l.l.l.l.l.l.l.k.k.k.j.s.a.t.a.d.d.d.i.j.j.k.k.k.l.l.l.m.l.l.m.l.l.l.m.n.o.p.o.o.o.q.p.o.o.o.o.o.o.p.n.r.l.l.l.l.l.l.l.l.l.l.l.l.l.l.l.l.l.l.l.k.k.k.j.s.a.t.a",
".t.a.a.u.v.w.w.x.y.z.z.z.y.z.z.z.z.A.A.B.B.C.C.C.C.C.C.C.C.C.C.C.C.C.C.C.z.A.A.A.y.z.z.z.z.z.z.y.A.A.z.z.z.z.z.y.x.w.w.D.j.d.d.d.t.a.a.u.v.w.w.x.y.z.z.z.y.z.z.z.z.A.A.B.B.C.C.C.C.C.C.C.C.C.C.C.C.C.C.C.z.A.A.A.y.z.z.z.z.z.z.y.A.A.z.z.z.z.z.y.x.w.w.D.j.d.d.d",
".c.b.b.E.F.G.G.H.I.J.J.K.L.L.L.L.K.J.K.K.J.M.M.M.M.M.L.M.M.M.M.M.M.M.M.L.J.J.K.J.K.K.L.M.J.L.L.K.K.K.K.J.K.J.L.I.N.G.G.w.k.gQtQt.c.b.b.E.F.G.G.H.I.J.J.K.L.L.L.L.K.J.K.K.J.M.M.M.M.M.L.M.M.M.M.M.M.M.M.L.J.J.K.J.K.K.L.M.J.L.L.K.K.K.K.J.K.J.L.I.N.G.G.w.k.gQtQt",
".c.c.b.E.F.G.O.H.I.J.K.K.K.K.J.J.L.K.K.K.K.K.M.M.M.M.M.M.M.M.M.M.M.M.M.M.K.K.K.K.K.K.K.K.K.K.K.K.K.M.M.K.K.K.K.I.P.O.O.w.kQtQt.h.c.c.b.E.F.G.O.H.I.J.K.K.K.K.J.J.L.K.K.K.K.K.M.M.M.M.M.M.M.M.M.M.M.M.M.M.K.K.K.K.K.K.K.K.K.K.K.K.K.M.M.K.K.K.K.I.P.O.O.w.kQtQt.h",
".a.a.a.Q.R.H.H.N.S.T.T.T.T.T.T.T.U.V.S.V.U.I.U.I.V.V.V.V.V.V.V.V.V.V.V.V.V.I.V.I.I.U.I.U.I.I.I.U.V.V.V.U.I.I.U.S.N.N.H.x.k.g.gQt.a.a.a.Q.R.H.H.N.S.T.T.T.T.T.T.T.U.V.S.V.U.I.U.I.V.V.V.V.V.V.V.V.V.V.V.V.V.I.V.I.I.U.I.U.I.I.I.U.V.V.V.U.I.I.U.S.N.N.H.x.k.g.gQt",
".d.d.d.m.y.I.I.S.G.W.W.W.W.W.W.W.X.X.W.G.Y.H.H.P.Z.X.X.X.X.X.X.X.X.X.W.G.H.H.H.H.H.H.H.H.H.H.H.0.Z.X.X.Z.G.H.H.H.V.M.I.y.k.g.g.f.d.d.d.m.y.1.1.1.1.W.W.2.2.2.2.2.X.X.W.G.Y.H.H.P.Z.X.X.X.X.X.X.X.X.X.W.G.H.H.H.H.H.H.H.H.H.H.H.0.Z.X.X.Z.G.H.H.H.V.M.I.y.k.g.g.f",
"Qt.3.4.l.z.J.K.T.X.5.5.5.5.5.5.5.5.5.5.6.X.G.G.x.6.5.6.5.6.5.6.5.5.5.5.6.x.Z.G.W.G.Z.Z.Z.Z.Z.Z.X.6.5.5.6.X.Z.G.H.V.M.K.B.l.g.e.eQt.3.4.l.1.2.2.2.1.2.1.1.1.1.1.1.1.2.5.6.X.G.G.x.6.5.6.5.6.5.6.5.5.5.5.6.x.Z.G.W.G.Z.Z.Z.Z.Z.Z.X.6.5.5.6.X.Z.G.H.V.M.K.B.l.g.e.e",
"QtQt.4.l.z.J.K.T.W.5.5.5.5.5.5.5.5.5.7.6.Z.G.Z.X.6.5.7.5.5.5.5.5.5.5.5.6.8.G.Z.Z.Z.Z.Z.Z.Z.Z.G.x.6.5.7.6.Z.Z.W.H.9.K.J.B.l.e.e.eQtQt.4.l.2.J.K.1#.#..1#.#..1#.#..1.1.2.6.Z.G.Z.X.6.5.7.5.5.5.5.5.5.5.5.6.8.G.Z.Z.Z.Z.Z.Z.Z.Z.G.x.6.5.7.6.Z.Z.W.H.9.K.J.B.l.e.e.e",
"Qt.4Qt.l.B.J.K.T.W.5.5.5.6.5.5.6.6.F.6.F.8.Z.Z.8.6.5.6.5.5.6.5.6.6.6.6.F.Z.Z.G.Z.Z.Z.G.Z.Z.Z.G.Z.F.6.6.F.Z.Z.G.0.I.J.K.B.l.e.e.hQt.4Qt.l.B.J.1#.#####.#####..1#.#..1.1.2.8.Z.Z.8.6.5.6.5.5.6.5.6.6.6.6.F.Z.Z.G.Z.Z.Z.G.Z.Z.Z.G.Z.F.6.6.F.Z.Z.G.0.I.J.K.B.l.e.e.h",
"Qt.4.4.l.z.K.K.T.W.5.5.6.5.5.5.F.8.X.Z.8.F.F.6.6.6.6.5.5.5.6.5.6.X.Z.x.W.G.G.G.Z.Z.G.Z.Z#a.Z.Z.Z.W.X.Z.Z.Z.Z.Z.H.I.K.L.z.l.g.gQtQt.4.4.l#b.1#.#####.##########.1#.#..1.1.2.F.6.6.6.6.5.5.5.6.5.6.X.Z.x.W.G.G.G.Z.Z.G.Z.Z#a.Z.Z.Z.W.X.Z.Z.Z.Z.Z.H.I.K.L.z.l.g.gQt",
"QtQt.4.l.z.J.K.T.W.5.5.5.5.6.5.F.Z.G.G.Z.6.5.5.6.5.5.5.6.5.5.5.6.X.G.G.Z.Z.G.Z.Z.Z.Z.G.Z.Z#a#a.Z.G.G.Z.Z.G.Z.Z.H.U.K.L.z.l.g.gQtQtQt.4.l.1#..1#.###c#####c#.#####.#..2.1.2.5.5.6.5.5.5.6.5.5.5.6.X.G.G.Z.Z.G.Z.Z.Z.Z.G.Z.Z#a#a.Z.G.G.Z.Z.G.Z.Z.H.U.K.L.z.l.g.gQt",
"Qt.4.4.l.z.K.K.U.W.5.5.5.5.5.5.F.Z.G.G.W.F.5.5.5.5.5.5.5.5.6.5.6.Z.G.G.Z.G.Z.Z.Z.Z.Z.Z.Z.Z#a.Z#a.Z.Z.G.Z.Z.Z.G.H.I.K.L.z.l.e.g.fQt.4.4.2.2.2#.#####c###.#c###.###.#.#..2.1.2.5.5.5.5.5.5.5.6.5.6.Z.G.G.Z.G.Z.Z.Z.Z.Z.Z.Z.Z#a.Z#a.Z.Z.G.Z.Z.Z.G.H.I.K.L.z.l.e.g.f",
"QtQt.4.l.z.K.K.U.W.5.5.5.6.F.6.F.X.X.Z.X.6.5.5.6.5.6.5.6.6.F.6.8.X.X.Z.Z.Z.Z.Z.G.G.Z.G.Z#a.Z#a.Z.Z.G.Z.Z.Z.G.Z.H.U.K.L.y.l.e.e.eQtQt.4.l.z#.###c###c#c.1#.#c######.1#..1.2.2.5.6.5.6.5.6.6.F.6.8.X.X.Z.Z.Z.Z.Z.G.G.Z.G.Z#a.Z#a.Z.Z.G.Z.Z.Z.G.Z.H.U.K.L.y.l.e.e.e",
"Qt.gQt.m.y.L.L.U.W.5.5.6.8.W.Z.8.F#d.6.6.6.5.6.5.7.5.6.6.8.Z.Z.8.F.F.F.F.x#e.Z#a.Z#a.Z#a#a.Z.Z#a.G.Z.Y.Z.Z.Z.Z.H.U.M.L.z.l.g.gQtQt.gQt.m.1#.###c###.#c#f#g.1###.##.2.1.1.2.2.2.5.7.5.6.6.8.Z.Z.8.F.F.F.F.x#e.Z#a.Z#a.Z#a#a.Z.Z#a.G.Z.Y.Z.Z.Z.Z.H.U.M.L.z.l.g.gQt",
"QtQtQt.l.z.L.K.U.W.5.5.F.W.G.G.W.F.5.6.5.5.5.6.5.6.5.5.6.X.G.G.X.6.5.7.F.Z#e#e.Z#a.Z#a.Z.Z.Z#a.Z.Z.Z.Z#a.Z.Z.Z.H.I.M.M.z.l.gQtQtQtQtQt.1#..1###c#..1###h#i#i#j.1##.1.2.1.1.2.6.5.6.5.5.6.X.G.G.X.6.5.7.F.Z#e#e.Z#a.Z#a.Z.Z.Z#a.Z.Z.Z.Z#a.Z.Z.Z.H.I.M.M.z.l.gQtQt",
"Qt.g.g.l.z.K.K.U.W.5.5.F.Z.G.G.Z.6.5.5.5.5.6.5.5.6.5.5.6.Z.Y.Y.Z.6.5.5#d.W.Y.Z#a.Z#a#a.Z#a.Z.Z#a.Z#a.Z.Y.G.Z.Z.H.U.M.M.z.m.g.gQtQt.g.g.l.z.1#.#c.2#g#.#f#i#k#l#i#.#g.1.2.1.2.5.5.6.5.5.6.Z.Y.Y.Z.6.5.5#d.W.Y.Z#a.Z#a#a.Z#a.Z.Z#a.Z#a.Z.Y.G.Z.Z.H.U.M.M.z.m.g.gQt",
"Qt.g.g.k.z.K.K.U.W.6.6.F.X.W.Z.8.6.5.6.5.5.5.5.6.6.6.6.8.X.X.Z.X.F.6#d.F.Z.Z#a.Z.Z.Z.Z#a.Z#a#a.Z.Z.Z#a.Z.Z.Z.Z.H#m.M.M.z.l.gQtQtQt.g.g.k.z.K#.##.2#f#f#n#o#p#f#q#.#g.1.2.5.2.5.6.6.6.6.8.X.X.Z.X.F.6#d.F.Z.Z#a.Z.Z.Z.Z#a.Z#a#a.Z.Z.Z#a.Z.Z.Z.Z.H#m.M.M.z.l.gQtQt",
"QtQtQt.l.z.K.K.I.Y.W.W.W.F.F.6.F.5.6.5.6.6.5.5.F.8.Z.X.8.F.6.6.F.W.W.W.W.Z#a.Z#a#a.Z#a.Z#a.Z#a#a.Y.Z#a.Z#a.Z.G.H.I.K.J.z.l.g.gQtQtQtQt.l.z.K.1##.2#f#n#n#n#n#g#q.1.2.1.2.6.5.5.F.8.Z.X.8.F.6.6.F.W.W.W.W.Z#a.Z#a#a.Z#a.Z#a.Z#a#a.Y.Z#a.Z#a.Z.G.H.I.K.J.z.l.g.gQt",
"QtQtQt.l.z.K.K.U.H.G.Y.Z.6.5.5.5.5.5.5.5.5.5.5#d.Z.G.G.Z.6.5.5.F.W.G.Y.Y.Z#a#a.Z.Z#a.Z#a.Z#a.Z.Z.Z#a.Z#a#a.Z.W.H.I.K.J.z.l.e.g.hQtQtQt.l.z.K.K#..2#g#n#n#n#f#h#q.2.2.2.5.5.5.5#d.Z.G.G.Z.6.5.5.F.W.G.Y.Y.Z#a#a.Z.Z#a.Z#a.Z#a.Z.Z.Z#a.Z#a#a.Z.W.H.I.K.J.z.l.e.g.h",
"QtQt.4.k.z.K.K.I.H.G.G.W.6.5.5.5.6.5.6.5.5.5.5.F.W.G.G.Z.F.7.5.6.W.Z.G.G.Z.Z.Z#a.Z#a#a.Z#a.Z.Z#a.Z#a.Z.Z.Z#a.Z.H.T.K.J.z.l.g.g.hQtQt.4.k.z.K.K.1#q#q#g#f#g#h#q#r.2#s#t.5.5.5.5.F.W.G.G.Z.F.7.5.6.W.Z.G.G.Z.Z.Z#a.Z#a#a.Z#a.Z.Z#a.Z#a.Z.Z.Z#a.Z.H.T.K.J.z.l.g.g.h",
"Qt.4Qt.l.z.K.K.U.P.W.W.X.F.6#d.F.6.5.5.5.6.F.6.F.X.Z.X.X.F.6.6#d.Z.G.Z.G#a.Z#a.Z#a.Z#a.Z.Z#a.Z.Z.Y.Z#a.Z.Z.Z.Z.B.I.K.J.z.m.d.d.dQt.4Qt.l.z.K.K.U#u#s#v#q#q#q#r#s#t#t#t.5.6.F.6.F.X.Z.X.X.F.6.6#d.Z.G.Z.G#a.Z#a.Z#a.Z#a.Z.Z#a.Z.Z.Y.Z#a.Z.Z.Z.Z.B.I.K.J.z.m.d.d.d",
"QtQt.4.k.z.J.J.U.O.6.6.F.W.W.O.W.F.5.5.F.8.W.Z.X.8.F.6.F.X.Z.W.Z.Z.Z.Z.Z.Z.Z.Z.Z.Z#a.Z.Z#a.Z.Z#a#a.Z.Z.Z.Z.Z.Z.H.U.K.K.B.n.a.a.tQtQt.4.k.z.J.J.U#t#w#x#x#y#s#z#z#s#t#t#t.8.W.Z.X.8.F.6.F.X.Z.W.Z.Z.Z.Z.Z.Z.Z.Z.Z.Z#a.Z.Z#a.Z.Z#a#a.Z.Z.Z.Z.Z.Z.H.U.K.K.B.n.a.a.t",
"Qt.3Qt.l.z.L.K.T.W.5.5.6.W.Y.G.W.6.5.5.F.Z.G.G.X.6.5.5.6.X.G.G.G.Z.Z.G.Z.0.Z.G.Z#a.Z.Z#a.Z#a#a.Z.Z.Z#a.G.G.Z.Z.H.U.K.K.C.p.c#A.bQt.3Qt.l.z.L.K#t#v#s#s#v#s#v#v#v#z#s#t#t.Z.G.G.X.6.5.5.6.X.G.G.G.Z.Z.G.Z.0.Z.G.Z#a.Z.Z#a.Z#a#a.Z.Z.Z#a.G.G.Z.Z.H.U.K.K.C.p.c#A.b",
"Qt.3.3.l.y.L.L.U#B.5.5.6.O.Y.Y.W.F.5.5.6.Z.G.G.W.F.5.5.6.x.G#a#a.G.Z.Z.Z.Z.Z.Z.Z.Z#a.Z.Z#a.Z.Z#a#a.Z.Z.Z.Z.Z.Z.H.I.K.K.H.p#A.b.bQt.3.3.l.y.L.L#C#s#s#v#D#s#v#E#F#s#s#t#t.Z.G.G.W.F.5.5.6.x.G#a#a.G.Z.Z.Z.Z.Z.Z.Z.Z#a.Z.Z#a.Z.Z#a#a.Z.Z.Z.Z.Z.Z.H.I.K.K.H.p#A.b.b",
".d.d.d.m.z.K.L.U.W.6.6.F.W.W.W#G.6.5.5.6.X.W.W.X.F.6.6.8.Z#a.Z.Z.Z.Z.G.Z.G.Z.G.Z#a.Z#a#a.Z#a#a.Z.Z#a.Z.G.Z.Z.Z.H.I.K.K.B.p.b.b.b.d.d.d.m.z.K.L#t#s#C#H#C#s#v#v#s#s#s#t.6.X.W.W.X.F.6.6.8.Z#a.Z.Z.Z.Z.G.Z.G.Z.G.Z#a.Z#a#a.Z#a#a.Z.Z#a.Z.G.Z.Z.Z.H.I.K.K.B.p.b.b.b",
".a.a.a.n.B.J.L.U.P.W.W.W.F.F.F.6.5.5.5.6.F.6.F.F.8.W.Z.Z.Z.Z.Z#a#e.Z.Z#a.Z.G.Z.Z#a.Z#a.Z#a.Z#a.Z#a.Z.Z#a.Z.Z.Z.H.I.M.M.C.p.b.b.b.a.a.a.n.B.J.L#C#s#s#v#z#s#s#s#C#s#s#t.6.F.6.F.F.8.W.Z.Z.Z.Z.Z#a#e.Z.Z#a.Z.G.Z.Z#a.Z#a.Z#a.Z#a.Z#a.Z.Z#a.Z.Z.Z.H.I.M.M.C.p.b.b.b",
".b.b#A.p#I.K.L.U#J.Y.Y.W.F.5.5.6.5.6.5.6.5.5.5.6.Z.G.G.Z.Z.Z.G.Z#e.Z#a.Z.Z.Z.Z#a.Z#a.Z#a.Z#a.Z#a.Z#a#a.Z.Z.Z.Z.H.U.M.M.C.p.b.b.b.b.b#A.p#I.K.L#t#z#C#H#C#s#v#s#C#z#s#t.6.5.5.5.6.Z.G.G.Z.Z.Z.G.Z#e.Z#a.Z.Z.Z.Z#a.Z#a.Z#a.Z#a.Z#a.Z#a#a.Z.Z.Z.Z.H.U.M.M.C.p.b.b.b",
".b.b.b.p#I.K.K.I.H.Y.O.W#d.5.5.5.5.5.6.5.5.5.5.F.X.Z.Z.Z.Z.Z.Z.Y#e#a.Z#a.Z.Z#a.Z.Z.Z.Z#a.Z#a#a.Z.Z#a.Z#a.Z.Z.G.H.I.M.M.C.q.b.b.b.b.b.b.p#I.K.K.I#t#t#t#z#s#s#s#s#s#s#K#b.5.5.5.F.X.Z.Z.Z.Z.Z.Z.Y#e#a.Z#a.Z.Z#a.Z.Z.Z.Z#a.Z#a#a.Z.Z#a.Z#a.Z.Z.G.H.I.M.M.C.q.b.b.b",
".c.b.b.p#I.K.K.U.H.O.G.W.F.5.5.5.6.5.5.5.5.6.5.F.Z.G.G.Z.Z.Z.Z.Z#a.Z#a.Z#a#a.Z#a#a.Z#a.Z#a.Z.Z.Z#a.Z#a.Z.G.Z.Z.H.U.M.M.C.o#A.b.b.c.b.b.p#I.K.K.U#s#v#L#t#h#g#M#g#h#N#O#b.5.6.5.F.Z.G.G.Z.Z.Z.Z.Z#a.Z#a.Z#a#a.Z#a#a.Z#a.Z#a.Z.Z.Z#a.Z#a.Z.G.Z.Z.H.U.M.M.C.o#A.b.b",
".b.b.b.p.B.K.K.I.H.Z.G.W.6.6.5.6.5.6.6.5.5.5.5.6.Z#a#a#a.G.Z.Z.Y.Z#a.Z#a.Z.Z#e#e.Z#a.Z#a.Z.Z.Z#a.Z#a.Z#a.Z.Z.Z.H.U.M.M.C.o.b.b.b.b.b.b.p.B.K.K.I#P#P#s#N#h#M#f#M#h#N#O#O#b.5.5.6.Z#a#a#a.G.Z.Z.Y.Z#a.Z#a.Z.Z#e#e.Z#a.Z#a.Z.Z.Z#a.Z#a.Z#a.Z.Z.Z.H.U.M.M.C.o.b.b.b",
".c.b#A.p.N.K.K.U.H.Z.G.X.6.5.5.5.5.5.5.5.6.5.6.6.x#a.Z.Z.Z.Y.Z.Z#a.Z#a#e#a.Z#e#e#a.Z#a.Z.Z#a#a.Z#a.Z.Z.Z.G.Z.Z.H.U.M.K.C.o.b.b.b.c.b#A.p.N.K.K.U#s#z#N#u#s#v#D#g#h#N#N#O#b#u.6.6.x#a.Z.Z.Z.Y.Z.Z#a.Z#a#e#a.Z#e#e#a.Z#a.Z.Z#a#a.Z#a.Z.Z.Z.G.Z.Z.H.U.M.K.C.o.b.b.b",
".c#A.b.p.C.K.K.I.H.G.G.Z.F.5.5.5.6.5.5.6.5.5.5.F.X.G#a.Z#a.Z.Z.Z.Z.Z#e#e#e#e#e#e.Z#a#a.Z#a.Z#a.Z#a.Z#a.Z.Z.Z.Z.H#m.M.M.C.p.b.b.c.c#A.b.p.C.K.K#s#v#v#N#s#H#Q#H#v#C#N#N#O#O#b#N#u.X.G#a.Z#a.Z.Z.Z.Z.Z#e#e#e#e#e#e.Z#a#a.Z#a.Z#a.Z#a.Z#a.Z.Z.Z.Z.H#m.M.M.C.p.b.b.c",
".a.a.a.n.B.K.K.V.0.X.W.X.6.5.6.5.5.5.5.6.6.6.6.8.W.G#a.Z#a.Z.G.Z#a.Z#e#e#e#e#e#e.Z#a.Z#a.Z#a.Z#a.Z#a.Z#a.Z.G.Z.H#m.M.M.z.n.a.a.a.a.a.a.n.B.K.K#C#s#M#h#v#D#v#H#s#C#u#N#O#O#O#N#N#R.G#a.Z#a.Z.G.Z#a.Z#e#e#e#e#e#e.Z#a.Z#a.Z#a.Z#a.Z#a.Z#a.Z.G.Z.H#m.M.M.z.n.a.a.a",
".d.d.e.r.z.J.J.I.W.6.F.6.6.5.5.5.6.5.6.6.8.x.W.W.G.G.Z.Z.Z.Z.G.Z.G.Z.Z.Z#e.Z#a.Z.Z.Z#a.Z.Z.Z.Z.Z#a.Z#a.Z.Z.Z.G.H.I.K.J.z.m.d.d.d.d.d.e.r.z.J#s#C#f#f#g#h#q#D#v#C#u#u#u#N#b#O#K#b#u.G.Z.Z.Z.Z.G.Z.G.Z.Z.Z#e.Z#a.Z.Z.Z#a.Z.Z.Z.Z.Z#a.Z#a.Z.Z.Z.G.H.I.K.J.z.m.d.d.d",
"Qt.g#S.l.z.L.K.S.X.5.5.5.5.6.5.6.5.5.5.6.Z.G.G.G.Z.Z.Z.G.Z.G.Z.Z.Z.Z.G.Z#e#a#e.Z#a.Z.Z#a.Z.G.Z.Z#a.Z.Z#a#e#e.W.H.U.K.K.z.lQtQtQtQt.g#S.l.z.L#H#s#g#g#h#h#h#q#s#N#u#u#u#N#i#b#O#K#N#R.Z.G.Z.G.Z.Z.Z.Z.G.Z#e#a#e.Z#a.Z.Z#a.Z.G.Z.Z#a.Z.Z#a#e#e.W.H.U.K.K.z.lQtQtQt",
"Qt.g#S.l.z.L.M.U.X.5.5.6.5.5.5.6.5.5.5.6.8.G.Z.G.G.G.Z.G.Z.Z.Z.Z.Z.Y.G.G#e#e#e#e.Z#a.Z.G.Z.G.Z.0.Z#a.Z.Z#e.G.Z.H.I.K.L.z.l.4QtQtQt.g#S.l.z#t#s#H#M#M#g#h#h#q#C#N#u#u#u#u#N#i#O#O#b#u.Z.G.Z.Z.Z.Z.Z.Y.G.G#e#e#e#e.Z#a.Z.G.Z.G.Z.0.Z#a.Z.Z#e.G.Z.H.I.K.L.z.l.4QtQt",
".d.d.e.m.z.L.M.U.X.5.5.5.6.5.5.5.6.F.6.8.Z.G.Z.G.W.X.x.Z.Z.Z.G.G.Z.Z.x.Z.Z#e#e#e.G.Z.Z.Z.Z.Z.Z#a#a.Z#a.Z.Z.x.W.0.U.K.M.y.l.4QtQt.d.d.e.m.z#t#t#T#g#g#h#h#h#q#u#N#N#u#u#u#N#i#K#O#b#N#R.Z.Z.Z.G.G.Z.Z.x.Z.Z#e#e#e.G.Z.Z.Z.Z.Z.Z#a#a.Z#a.Z.Z.x.W.0.U.K.M.y.l.4QtQt",
".t.a.a.n.B.K.K.S.X.6.5.5.5.6.6.6.X.W.Z.x.G.Z.Z.X.8.6.6.8.Z.G.G.Z#d#d.F.F.W.G.Z.Z.Z.Z.Z.Z.Z.Z.G.Z.G.Z.G.O.F.F.F.W.U.K.J.z.lQtQtQt.t.a.a.n.B.K#T#T#n#M#g#h#q#u#u#N#u#u#u#u#N#i#b#O#b#N#u#N#N#N.G.Z#d#d.F.F.W.G.Z.Z.Z.Z.Z.Z.Z.Z.G.Z.G.Z.G.O.F.F.F.W.U.K.J.z.lQtQtQt",
".b.b#A.p#I.J.J.S.X.5.5.6.5.5.5.6.Z.G.Z.Z.G.G.G.W.6.5.5.6.X.G.G.X#d.5.5.F.W.G.G.Z.Z.G.Z.G.Z.G.Z.Z.Z.G.G.W.F.5.5.W.T.K.L.z.lQtQtQt.b.b#A.p#I#T#T#T#U#N#N#N#R#u#u#N#N#u#u#u#u#N#b#K#b#N#N#x#N#N#N#N#N#V#W#V.W.G.G.Z.Z.G.Z.G.Z.G.Z.Z.Z.G.G.W.F.5.5.W.T.K.L.z.lQtQtQt",
".c.b#A.p.C.M.J.T.X.6.5.5.5.6.7.6.X.G.Z.G.G.G.G.Z.6.7.6.6.x.G.G.O.5.5.5.6.x.G.Z#a.Z#a.Z#a.Z.Z.Z.Z.Z.G.G.W.F.5.5.W.T.K.K.z.k.g.3Qt.c.b#A.p.C#T#T#T#U#U#R#R#R#u#u#N#N#N#u#u#u#N#b#K#b#N.6#w#x#N#N#N#V#W#V.6.x.G.Z#a.Z#a.Z#a.Z.Z.Z.Z.Z.G.G.W.F.5.5.W.T.K.K.z.k.g.3Qt",
".b.b.b.p.C.K.K.T.X.5.5.6.6.6.6.8.Z.G.Z.Z.Z.X.Z.8.F.6.6.8.X.O.X.X.F.F#d.F.Z#a#a.Z.Z.Z#a.Z.Z.Z.Z.Z.W.W.W.F.5.p.o.8.T.K.K.y.l.g.gQt.b.b.b.p.C#X#T#R#U#U#R#R#R#R#u#u#N#N#u#u#N#T#T#K#b#N#T#w#x.O.X#V#V#V#d.F.Z#a#a.Z.Z.Z#a.Z.Z.Z.Z.Z.W.W.W.F.5.p.o.8.T.K.K.y.l.g.gQt",
".b.b.b.o.C.M.M.V.X.6.5.6.X.X.Z.X.Z.Z.G.Z.8.6.6.F.8.W.Z.X.F.6.6.8.W.W.W.Z.Z.Z.Z#a#a.Z#a.Z#a.Z.G.Z.8.F.F.7.E#Y#Y.7.C.J.J.z.mQtQtQt.b.b.b.o.C#X#X#R#U#U#R#R#R#R#u#u#N#N#u#u#T#V#T#K#b.W#V#V#w.6.6.8.W.W.W.Z.Z.Z.Z#a#a.Z#a.Z#a.Z.G.Z.8.F.F.7.E#Y#Y.7.C.J.J.z.mQtQtQt",
".b.b.b.o.C.K.M.V.X.5.5.6.Z.Z.G.Z.Z.Z.G.X.6.7.5.6.Z.Z.G.X.F.5.5.6.W.G.G.Z.Z.Z.G.Z.Z#a.Z.Z#a#e.G.W#d.5.5#Z#Y.b.b.q.C.K.J.z.l.hQtQt.b.b.b.o#X#0#x#x#x#R#R#R#R#R#u#K#V#T#V#T#T#T#T#T#b.Z.G.X.F.5.5.6.W.G.G.Z.Z.Z.G.Z.Z#a.Z.Z#a#e.G.W#d.5.5#Z#Y.b.b.q.C.K.J.z.l.hQtQt",
".b.b.b.o.C.M.M.V.X.5.7.6.X.G.G.Z.G.Z.G.Z.6.5.5.6.Z.G.G.Z.6.5.7.6.W.G.Z.Z.Z.Z.Z.Z#a.Z#a#a#a.G.G.Z.F.5.5.7#Y.b.b.o.C.K.K.z.k.4.3Qt.b.b.b.o#X#1#T#T#T#K#x#x#x#K#K#T#T#T#T#V#V#V#T#T#b.G.G.Z.6.5.7.6.W.G.Z.Z.Z.Z.Z.Z#a.Z#a#a#a.G.G.Z.F.5.5.7#Y.b.b.o.C.K.K.z.k.4.3Qt",
".a.a.a.r.C.M.M.U.Z.6.6.8.Z.G.G.G.x.Z.X.X.8.6.6.8.8.Z.X.X.F.6.6.F.G.G.G.Z.G.Z.G.Z.Z#a.Z.Z.Z.x.W.8.F.5.5#2#Y.b.b.o.C.K.J.z.l.4QtQt.a.a.a#X#0#0#x#x#x#T#T#T#T#T#T#V#V#V#V#T#T#T.6.8#i.Z.X.X.F.6.6.F.G.G.G.Z.G.Z.G.Z.Z#a.Z.Z.Z.x.W.8.F.5.5#2#Y.b.b.o.C.K.J.z.l.4QtQt",
".d.d.e.r.z.J.K.U.P.X.X.Z.Z.Z.Z.Z.F.6.6.F.8.W.Z.8.F.F.6.F.X.Z.W.Z.Z.Z#a.Z.Z.Z.Z.Z.G.Z.G.G.F.F.F.F.5.6.5.7#Y.b.b.n.C.J.J.B.l.g.gQt#3#3#X#0#1#1#0#4#X#K#K#K#V#V#V#1#T#T#1#T#C#X#X.8.F.F.6.F.X.Z.W.Z.Z.Z#a.Z.Z.Z.Z.Z.G.Z.G.G.F.F.F.F.5.6.5.7#Y.b.b.n.C.J.J.B.l.g.gQt",
"Qt.g#S.l.z.J.K.I.H.G.Z.G.Z.G.G.X.F.5.5.F.W.G.Z.Z.6.7.5.6.X.G.G.G#a#a.Z#a#a.G.Z.Z.Z.Z.G.W.6.5.5.5.5.5.5#2#Y.b.b.q.C.J.J.z.l.gQt#3#W#5#3#X#0#1#X#X#6#6#6#6#6#6#6#6#i#1#1#C#1#1#X#X#6#6#6.6.X.G.G.G#a#a.Z#a#a.G.Z.Z.Z.Z.G.W.6.5.5.5.5.5.5#2#Y.b.b.q.C.J.J.z.l.gQtQt",
"Qt.g#S.l.z.M.M.U.H.G.G.Z.G.G.G.Z.6.5.5.6.W.G.G.W.F.5.5.6.x.G#a#a.Z.Z#a.Z.Z#a.Z.G.Z.G.G.W.F.5.5.5.5.5.5#7#8.b.b.n.C.J.J.z.l#6#X#1#3#3#3#1#1#0#4#6#6#6#6#6#6#6#6#6#6#6#1#3#3#1#1#X#X#6#6#6#6.G#a#a.Z.Z#a.Z.Z#a.Z.G.Z.G.G.W.F.5.5.5.5.5.5#7#8.b.b.n.C.J.J.z.l.g.gQt",
".d.d.e.m.z.M.M.I.H.O.W.G.W.W.x.8.F.5.5.F.W.G.G.Z.F.6.6.8.Z#a.Z.Z.Z#a.Z.Z#a.Z.Z.Z.W.x.W.X.6.5.5.5.F.F.F.5.q#Y#Y.7.C.J.K.B#6#6#6#i#X#1#3#1#1#X#X#6#6#6#6#6#6#6#6#6#6#1#X#3#W#3#1#1#X#6#6#6#6#6.Z.Z.Z#a.Z.Z#a.Z.Z.Z.W.x.W.X.6.5.5.5.F.F.F.5.q#Y#Y.7.C.J.K.B.m.d.d.d",
".t.a#9.n.C.K.M.I.H.Z.G.W.8.F.6.6.6.5.5.F.W.G.G.W.W.W.Z.Z.Z.Z.Z#a#a.Z#a.Z.Z.G.Z.Z#G.6.6.6.6.5.5.F#G.W.Z.8.7.o#2.F.T.K.K#6#6#6#6#6#6#i#X#1#X#i#6#6#6#6#6#6#6#6#6#6#3#3#K#W#W#3#3#X#6#6#6#6#6#6#6#a#a.Z#a.Z.Z.G.Z.Z#G.6.6.6.6.5.5.F#G.W.Z.8.7.o#2.F.T.K.K.B.n.a.a.a",
".b.b#A.p.C.K.M.I.H.Z.G.Z.6.5.5.5.5.5.5.F.Z.Z.G.Z.G.G#a.Z.Z.Z.Z#a#a.Z#a#a.Z.G.G.X.F.5.5.5.5.5.5.F.W.G.G.W.F.5.5.W.T.K#6#6#6#6#6#6#6#6#6#i#X#i#6#6#6#6#6#6#6#6#6#6#1#K#W#W#3#3#X#6#6#6#6#6#6#6#6#6#a.Z#a#a.Z.G.G.X.F.5.5.5.5.5.5.F.W.G.G.W.F.5.5.W.T.K.K.C.p.b.c.c",
".c.c#A.p.C.M.M#m.H.Z.G.W.6.5.5.6.5.5.5#d.R.G.Z.G.G.Z.G.G.Z.Z.Z.Z.G.G.Z#a.G.G.G.W.F.5.5.5.5.5.5.F.W.G.G.Z.F.5.5.W.T.K#6#6#6#6#6#6#6#6#6#6#6#6#6#6#6#6#6#6#6#6#6#6#1#K#K#W#X#i#6#6#6#6#6#6#6#6#6#6.G.G.Z#a.G.G.G.W.F.5.5.5.5.5.5.F.W.G.G.Z.F.5.5.W.T.K.K.C.p#A#A.c",
".a.a.a.n.H.I.I.C.Y.X.W.X.6.6.5.5.6.6.F.8.W.Z.G.O.Z.Z.Z.Z.Z.Z#a.Z.W.W.x.Z.O.W.W.X.F.5.5.6.6.6.F.F.W.O.W.8.5#2#2.F#I.I#6#6#6#6#6#6#6#6#6#6#6#6#6#6#6#6#6#6#6#6#6#6#i#X#X#i#6#6#6#6#6#6#6#6#6#6#6#6.W.W.x.Z.O.W.W.X.F.5.5.6.6.6.F.F.W.O.W.8.5#2#2.F#I.I.I.0a..a.a.t",
".#.d.ea#.x.H.H.G.X.F.6.6.6.6.5.6.X.W.O.W.G.G.G.G.Z.Z.Z.Z.Z.G.G.O.8.6.F.F.6.F.F.6.5.5.6.6#G.O.W.X.F.F.F.7.E#Yaa.p.W#I#6#6#6#6#6#6#6#6#6#6#6#6#6#6#6#6#6#6#6#6#6#6#6#6#6#6#6#6#6#6#6#6#6#6#6#6#6#6.8.6.F.F.6.F.F.6.5.5.6.6#G.O.W.X.F.F.F.7.E#Yaa.p.W#I#I.Ra#ab.d.d",
".e.g.g.kac.G.G.Z.6.6.5.6.5.5.6.6.W.G.G.G.G.G.G.O.G.G.G.G.G.G.G.W.F.5.5.5.5.5.5.5.6.5.5.F.O.O.G.O.F.5.5#7aa.b#Aad.F.G.O#6#6#6#6#6#6#6#6#6#6#6#6#6#6#6#6#6#6#6#6#6#6#6#6#6#6#6#6#6#6#6#6#6#6#6#6.W.F.5.5.5.5.5.5.5.6.5.5.F.O.O.G.O.F.5.5#7aa.b#Aad.F.G.O.w.k.3QtQt",
".e.e.e.kae.G.G.X.6.6.5.5.5.6.5.6.O.G.G.G.Z.G.G.G.G.G.G.G.Z.G.G.W.6.5.5.6.5.6.6.5.6.5.5.F.O.G.G.W.6.6.5.7aa.b.bad.F.Y.Y.w#6#6#6#6#6#6#6#6#6#6#6#6#6#6#6#6#6#6#6#6#6#6#6#6#6#6#6#6#6#6#6#6#6#6.G.W.6.5.5.6.5.6.6.5.6.5.5.F.O.G.G.W.6.6.5.7aa.b.bad.F.Y.Y.w.k.3QtQt",
".e.f.daf.v.8.6.6.v.n.oag#2.5#Z#Z.vacae.w.w.F#d.w.wae.w.w.F.w.F.6.7#Z#Z#Z#2#2#2#2#2#2#2.7.6aeac.v.v.oaha.#Y.a.a.Qai.F.R.vaj#6#6#6#6#6#6#6#6#6#6#6#6#6#6#6#6#6#6#6#6#6#6#6#6#6#6#6#6#6#6#6#6.w.F.6.7#Z#Z#Z#2#2#2#2#2#2#2.7.6aeac.v.v.oaha.#Y.a.a.Qai.F.R.vaj.3QtQt",
".t.a.a.tak.E.E.Qalamafan#Yakak.ua#.k.ja#.Q.E.E.Qa#.k.k.j.Q#8.q.Q#8#8#8#8#8#8#8#8#8#8#8.ua#.k.k.j.jafaf.i.i.d.d.#.u.E.q.u.fQtQt#6#6#6#6#6#6#6#6#6#6#6#6#6#6#6#6#6#6#6#6#6#6#6#6#6#6#6#6.j.Q#8.q.Q#8#8#8#8#8#8#8#8#8#8#8.ua#.k.k.j.jafaf.i.i.d.d.#.u.E.q.u.fQtQtQt",
".b.c.c.c.b.b.b#9.e.e.e.e.a.b.c.a.dQt#Sab.a.b.b.a.d#S.g.d.a.b.b.b.c.c.t.b.c.b.b.c.b.b.c.a.d.g.g.g.gQtQtQt.h.h.h.d.a.b.b.a.dQtQtQt.b.c.c#6#6#6#6#6#6#6#6#6#6#6#6#6#6#6#6#6#6#6#6.a.d#S.g.d.a.b.b.b.c.c.t.b.c.b.b.c.b.b.c.a.d.g.g.g.gQtQtQt.h.h.h.d.a.b.b.a.dQtQtQt",
".c.c.c.c.b.c.b.t.#.e.e.f.a.c.c.a.dQtQt.d.a#A.b.a.d.hQt.d.a.c.b.b.b.c.b.b.b.b.c.b.b.b.b.a.d.g.gQtQtQtQtQtQt.h.h.d.a.c.b.a.d.h.hQt.c.c.c.c.b.c.b.t.#.e.e.f.a.c.c.a.dQtQt.d.a#A.b.a.d.hQt.d.a.c.b.b.b.c.b.b.b.b.c.b.b.b.b.a.d.g.gQtQtQtQtQtQt.h.h.d.a.c.b.a.d.h.hQt",
".b.b.c.b.b.c.b.t.e.e.g.e.t.c.c.a.dQtQt.d.a.c.b.a.d.hQt.d.a.c.c.c.c.b.c.b.c.c.b.c.c.b.b.t.dQtQtQtQtQtQtQtQtQt.h.d.a.c.c.a.dQtQtQt.b.b.c.b.b.c.b.t.e.e.g.e.t.c.c.a.dQtQt.d.a.c.b.a.d.hQt.d.a.c.c.c.c.b.c.b.c.c.b.c.c.b.b.t.dQtQtQtQtQtQtQtQtQt.h.d.a.c.c.a.dQtQtQt"};
