/* XPM */
static char *dummy[]={
"128 64 144 2",
"#2 c #000000",
"#t c #001111",
"#s c #002b2b",
"#B c #005e7f",
"#F c #007faa",
"#i c #080808",
"#V c #0f0e11",
"#A c #1e424f",
"#W c #212828",
"#r c #260c0c",
"#1 c #26252c",
"#5 c #35353a",
"#3 c #371812",
".4 c #383f4a",
".g c #383f4b",
"#U c #383f4c",
".3 c #38404c",
".e c #393f4b",
"Qt c #3a404b",
".h c #3a404c",
"ab c #3d4046",
".d c #3d4047",
"#v c #3d5358",
".f c #3f4148",
".i c #404248",
"aj c #424349",
".# c #434245",
"am c #43434a",
"af c #44434a",
"#a c #444448",
".j c #44444b",
"#9 c #46413d",
".a c #46413e",
"#O c #470000",
".s c #474242",
"al c #474548",
".k c #47464d",
"#n c #494482",
"a# c #494649",
"#p c #4a2121",
"#C c #4a4138",
".b c #4a423a",
".t c #4a433e",
"an c #4b4440",
".l c #4b4951",
".c c #4c423a",
".m c #4d484c",
".u c #4e4541",
"#Y c #4f443c",
"aa c #50443c",
"#8 c #50453d",
"ak c #51453d",
".Q c #514743",
"#4 c #51545b",
"ad c #53463f",
"#X c #535353",
".E c #54473f",
"a. c #544845",
".n c #544946",
".q c #554840",
".r c #554a47",
"#6 c #562f1d",
".p c #584a43",
".o c #584a44",
"ah c #584a47",
".D c #584d4d",
".v c #5a4d4b",
"#Z c #5b4b44",
"ag c #5b4c48",
"#0 c #5c4b43",
"#7 c #5d4b43",
".8 c #5e4d45",
"ai c #5e4d48",
"ae c #5f4f4d",
".5 c #614d45",
".w c #61514f",
"#f c #635049",
"#E c #637a82",
".6 c #644f48",
"ac c #645352",
".x c #655451",
".F c #66514a",
".9 c #67524b",
".R c #67544f",
"#I c #68524b",
".Z c #68534c",
"#G c #69534d",
".Y c #69544d",
".O c #6c564f",
".1 c #6c5650",
".y c #6c5959",
".X c #6d3300",
"#g c #6d5650",
"#b c #6e5651",
".0 c #6e5751",
".G c #6f5750",
".2 c #6f5a56",
".P c #705853",
".A c #705c5c",
".z c #705c5d",
".B c #715c5b",
"#D c #72472d",
".H c #725a55",
"#k c #7291ea",
"#K c #735a54",
".N c #745b56",
".C c #745d59",
"#u c #750000",
"#J c #755c57",
".S c #785e5a",
"#T c #797a7c",
".V c #7a5f5b",
".T c #7a605b",
".U c #7a605c",
"#. c #7c615d",
"#q c #7d625e",
".I c #7e625e",
".M c #826663",
".K c #836663",
".L c #836764",
"#w c #838384",
"#h c #84393a",
".J c #846763",
"#z c #871e38",
"#M c #8e3314",
"#H c #946c45",
"#o c #96b2ff",
".W c #996314",
"#S c #9e99a6",
"#x c #adb2af",
"#Q c #af001c",
"#P c #c09d7b",
"#j c #c1bfbc",
"#e c #c46555",
"#N c #c65619",
".7 c #d19e30",
"#l c #e5f4ff",
"#R c #ef0c23",
"#L c #f78c6b",
"#c c #f9edd6",
"## c #fcd670",
"#y c #ff7084",
"#d c #ffa893",
"#m c #ffd8ce",
"QtQtQtQtQtQtQtQtQtQtQtQtQtQtQtQtQtQtQt.#.a.b.b.b.b.b.b.c.b.b.b.b.b.b.b.a.d.e.f.g.f.e.h.hQtQt.f.gQt.f.e.h.f.gQtQtQtQt.f.d.a.c.c.bQtQtQtQtQtQtQtQtQtQtQtQtQtQtQtQtQtQtQt.#.a.b.b.b.b.b.b.c.b.b.b.b.b.b.b.a.d.e.f.g.f.e.h.hQtQt.f.gQt.f.e.h.f.gQtQtQtQt.f.d.a.c.c.b",
"QtQtQtQtQtQtQt.gQt.gQt.g.gQt.g.g.g.g.g.d.a.b.b.b.b.b.b.b.b.b.b.b.b.b.b.a.e.e.g.g.g.g.e.gQt.g.g.g.g.g.e.e.g.g.g.g.gQt.g.d.a.c.c.cQtQtQtQtQtQtQt.gQt.gQt.g.gQt.g.g.g.g.g.d.a.b.b.b.b.b.b.b.b.b.b.b.b.b.b.a.e.e.g.g.g.g.e.gQt.g.g.g.g.g.e.e.g.g.g.g.gQt.g.d.a.c.c.c",
".h.hQtQtQt.g.gQt.gQtQt.g.g.g.g.g.g.g.g.d.a.b.b.b.b.b.b.b.b.b.b.b.b.b.b.a.e.g.g.g.g.g.g.g.g.g.g.g.g.g.e.e.g.g.g.g.g.g.g.d.a.c.c.c.h.hQtQtQt.g.gQt.gQtQt.g.g.g.g.g.g.g.g.d.a.b.b.b.b.b.b.b.b.b.b.b.b.b.b.a.e.g.g.g.g.g.g.g.g.g.g.g.g.g.e.e.g.g.g.g.g.g.g.d.a.c.c.c",
".d.d.d.i.j.j.k.k.k.l.l.l.m.l.l.m.l.l.l.m.n.o.p.o.o.o.q.p.o.o.o.o.o.o.p.n.r.l.l.l.l.l.l.l.l.l.l.l.l.l.l.l.l.l.l.l.k.k.k.j.s.a.t.a.d.d.d.i.j.j.k.k.k.l.l.l.m.l.l.m.l.l.l.m.n.o.p.o.o.o.q.p.o.o.o.o.o.o.p.n.r.l.l.l.l.l.l.l.l.l.l.l.l.l.l.l.l.l.l.l.k.k.k.j.s.a.t.a",
".t.a.a.u.v.w.w.x.y.z.z.z.y.z.z.z.z.A.A.B.B.C.C.C.C.C.C.C.C.C.C.C.C.C.C.C.z.A.A.A.y.z.z.z.z.z.z.y.A.A.z.z.z.z.z.y.x.w.w.D.j.d.d.d.t.a.a.u.v.w.w.x.y.z.z.z.y.z.z.z.z.A.A.B.B.C.C.C.C.C.C.C.C.C.C.C.C.C.C.C.z.A.A.A.y.z.z.z.z.z.z.y.A.A.z.z.z.z.z.y.x.w.w.D.j.d.d.d",
".c.b.b.E.F.G.G.H.I.J.J.K.L.L.L.L.K.J.K.K.J.M.M.M.M.M.L.M.M.M.M.M.M.M.M.L.J.J.K.J.K.K.L.M.J.L.L.K.K.K.K.J.K.J.L.I.N.G.G.w.k.gQtQt.c.b.b.E.F.G.G.H.I.J.J.K.L.L.L.L.K.J.K.K.J.M.M.M.M.M.L.M.M.M.M.M.M.M.M.L.J.J.K.J.K.K.L.M.J.L.L.K.K.K.K.J.K.J.L.I.N.G.G.w.k.gQtQt",
".c.c.b.E.F.G.O.H.I.J.K.K.K.K.J.J.L.K.K.K.K.K.M.M.M.M.M.M.M.M.M.M.M.M.M.M.K.K.K.K.K.K.K.K.K.K.K.K.K.M.M.K.K.K.K.I.P.O.O.w.kQtQt.h.c.c.b.E.F.G.O.H.I.J.K.K.K.K.J.J.L.K.K.K.K.K.M.M.M.M.M.M.M.M.M.M.M.M.M.M.K.K.K.K.K.K.K.K.K.K.K.K.K.M.M.K.K.K.K.I.P.O.O.w.kQtQt.h",
".a.a.a.Q.R.H.H.N.S.T.T.T.T.T.T.T.U.V.S.V.U.I.U.I.V.V.V.V.V.V.V.V.V.V.V.V.V.I.V.I.I.U.I.U.I.I.I.U.V.V.V.U.I.I.U.S.N.N.H.x.k.g.gQt.a.a.a.Q.R.H.H.N.S.T.T.T.T.T.T.T.U.V.W.W.W.W.U.I.X.X.X.X.X.V.V.V.V.V.V.V.V.I.V.I.I.U.I.U.I.I.I.U.V.V.V.U.I.I.U.S.N.N.H.x.k.g.gQt",
".d.d.d.m.y.I.I.S.G.Y.Y.Y.Y.Y.Y.Y.Z.Z.Y.G.0.H.H.P.1.Z.Z.Z.Z.Z.Z.Z.Z.Z.Y.G.H.H.H.H.H.H.H.H.H.H.H.2.1.Z.Z.1.G.H.H.H.V.M.I.y.k.g.g.f.d.d.d.m.y.I.I.S.G.Y.Y.Y.Y.Y.Y.Y.Z.W.X.X.X.W.X.W.W.W.W.W.W.W.X.Z.Z.Z.Y.G.H.H.H.H.H.H.H.H.H.H.H.2.1.Z.Z.1.G.H.H.H.V.M.I.y.k.g.g.f",
"Qt.3.4.l.z.J.K.T.Z.5.5.5.5.5.5.5.5.5.5.6.Z.G.G.x.6.5.6.5.6.5.6.5.5.5.5.6.x.1.G.Y.G.1.1.1.1.1.1.Z.6.5.5.6.Z.1.G.H.V.M.K.B.l.g.e.eQt.3.4.l.z.J.K.T.Z.5.5.5.5.5.5.5.5.X.5.6.W.7.7.W.7.7.W.7.7.W.W.X.5.5.5.6.x.1.G.Y.G.1.1.1.1.1.1.Z.6.5.5.6.Z.1.G.H.V.M.K.B.l.g.e.e",
"QtQt.4.l.z.J.K.T.Y.5.5.5.5.5.5.5.5.5.8.6.1.G.1.Z.6.5.8.5.5.5.5.5.5.5.5.6.9.G.1.1.1.1.1.1.1.1.G.x.6.5.8.6.1.1.Y.H#..K.J.B.l.e.e.eQtQt.4.l.z.J.K.T.Y.5.5.5.5.5.5.5.5.5.8.W.7####.7####.7.W.7.7.W.W.X.5.5.6.9.G.1.1.1.1.1.1.1.1.G.x.6.5.8.6.1.1.Y.H#..K.J.B.l.e.e.e",
"Qt.4Qt.l.B.J.K.T.Y.5.5.5.6.5.5.6.6.F.6.F.9.1.1.9.6.5.6.5.5.6.5.6.6.6.6.F.1.1.G.1.1.1.G.1.1.1.G.1.F.6.6.F.1.1.G.2.I.J.K.B.l.e.e.hQt.4Qt.l.B.J.K.T.Y.5.5.5.6.5.5.6.6#a.W.7####.7##########.W.7.7.W.W.X.6.F.1.1.G.1.1.1.G.1.1.1.G.1.F.6.6.F.1.1.G.2.I.J.K.B.l.e.e.h",
"Qt.4.4.l.z.K.K.T.Y.5.5.6.5.5.5.F.9.Z.1.9.F.F.6.6.6.6.5.5.5.6.5.6.Z.1.x.Y.G.G.G.1.1.G.1.1#b.1.1.1.Y.Z.1.1.1.1.1.H.I.K.L.z.l.g.gQtQt.4.4.l.z.K.K.T.Y.5.5.6.5.5.5.F.9.W.7.W.7###c#####c.7####.7.7.X.W.X.x.Y.G.G.G.1.1.G.1.1#b.1.1.1.Y.Z.1.1.1.1.1.H.I.K.L.z.l.g.gQt",
"QtQt.4.l.z.J.K.T.Y.5.5.5.5.6.5.F.1.G.G.1.6.5.5.6.5.5.5.6.5.5.5.6.Z.G.G.1.1.G.1.1.1.1.G.1.1#b#b.1.G.G.1.1.G.1.1.H.U.K.L.z.l.g.gQtQtQt.4.l.z.J.K.T.Y.5.5.5.5.6.5.F.X.X.X.7#####c##.7#c##.7##.7.7.7.X.W.X.1.1.G.1.1.1.1.G.1.1#b#b.1.G.G.1.1.G.1.1.H.U.K.L.z.l.g.gQt",
"Qt.4.4.l.z.K.K.U.Y.5.5.5.5.5.5.F.1.G.G.Y.F.5.5.5.5.5.5.5.5.6.5.6.1.G.G.1.G.1.1.1.1.1.1.1.1#b.1#b.1.1.G.1.1.1.G.H.I.K.L.z.l.e.g.fQt.4.4.l.z.K.K.U.Y.5.5.5.5.5.5.F.1.G.7###c###c#c.W.7#c######.W.7.W.X.X.1.G.1.1.1.1.1.1.1.1#b.1#b.1.1.G.1.1.1.G.H.I.K.L.z.l.e.g.f",
"QtQt.4.l.z.K.K.U.Y.5.5.5.6.F.6.F.Z.Z.1.Z.6.5.5.6.5.6.5.6.6.F.6.9.Z.Z.1.1.1.1.1.G.G.1.G.1#b.1#b.1.1.G.1.1.1.G.1.H.U.K.L.y.l.e.e.eQtQt.4.l.z.K.K.U.Y.5.5.5.6.F.6.F.Z.W.7###c##.7#c#d#e.W##.7##.X.W.W.X.X.X.1.1.1.G.G.1.G.1#b.1#b.1.1.G.1.1.1.G.1.H.U.K.L.y.l.e.e.e",
"Qt.gQt.m.y.L.L.U.Y.5.5.6.9.Y.1.9.F#f.6.6.6.5.6.5.8.5.6.6.9.1.1.9.F.F.F.F.x#g.1#b.1#b.1#b#b.1.1#b.G.1.0.1.1.1.1.H.U.M.L.z.l.g.gQtQt.gQt.m.y.L.L.U.Y.5.5.6.9.Y.1.9.W.7.W###c.7.W###h#i#i#j.W##.W.X.W.W.X.F.x#g.1#b.1#b.1#b#b.1.1#b.G.1.0.1.1.1.1.H.U.M.L.z.l.g.gQt",
"QtQtQt.l.z.L.K.U.Y.5.5.F.Y.G.G.Y.F.5.6.5.5.5.6.5.6.5.5.6.Z.G.G.Z.6.5.8.F.1#g#g.1#b.1#b.1.1.1#b.1.1.1.1#b.1.1.1.H.I.M.M.z.l.gQtQtQtQtQt.l.z.L.K.U.Y.5.5.F.Y.G.G.Y.F.5.W.7#c.X#e.7#d#i#k#l#i.7#e.W.X.W.X.F.1#g#g.1#b.1#b.1.1.1#b.1.1.1.1#b.1.1.1.H.I.M.M.z.l.gQtQt",
"Qt.g.g.l.z.K.K.U.Y.5.5.F.1.G.G.1.6.5.5.5.5.6.5.5.6.5.5.6.1.0.0.1.6.5.5#f.Y.0.1#b.1#b#b.1#b.1.1#b.1#b.1.0.G.1.1.H.U.M.M.z.m.g.gQtQt.g.g.l.z.K.K.U.Y.5.5.F.1.G.G.1.6.5.5.7##.X#d#d#m#n#o#d#p.7#e.W.X.5.X#f.Y.0.1#b.1#b#b.1#b.1.1#b.1#b.1.0.G.1.1.H.U.M.M.z.m.g.gQt",
"Qt.g.g.k.z.K.K.U.Y.6.6.F.Z.Y.1.9.6.5.6.5.5.5.5.6.6.6.6.9.Z.Z.1.Z.F.6#f.F.1.1#b.1.1.1.1#b.1#b#b.1.1.1#b.1.1.1.1.H#q.M.M.z.l.gQtQtQt.g.g.k.z.K.K.U.Y.6.6.F.Z.Y.1.9.6.5.6.W##.X#d#m#m#m#m#e#p.W.X.W.X.6#f.F.1.1#b.1.1.1.1#b.1#b#b.1.1.1#b.1.1.1.1.H#q.M.M.z.l.gQtQt",
"QtQtQt.l.z.K.K.I.0.Y.Y.Y.F.F.6.F.5.6.5.6.6.5.5.F.9.1.Z.9.F.6.6.F.Y.Y.Y.Y.1#b.1#b#b.1#b.1#b.1#b#b.0.1#b.1#b.1.G.H.I.K.J.z.l.g.gQtQtQtQt.l.z.K.K.I.0.Y.Y.Y.F.F.6.F.5.6.5.6.7.X#e#m#m#m#d#h#p.X.X.X.Y.Y.Y.Y.1#b.1#b#b.1#b.1#b.1#b#b.0.1#b.1#b.1.G.H.I.K.J.z.l.g.gQt",
"QtQtQt.l.z.K.K.U.H.G.0.1.6.5.5.5.5.5.5.5.5.5.5#f.1.G.G.1.6.5.5.F.Y.G.0.0.1#b#b.1.1#b.1#b.1#b.1.1.1#b.1#b#b.1.Y.H.I.K.J.z.l.e.g.hQtQtQt.l.z.K.K.U.H.G.0.1.6.5.5.5.5.5.5.5.W#p#p#e#d#e#h#p#r.X#s#t.Y.G.0.0.1#b#b.1.1#b.1#b.1#b.1.1.1#b.1#b#b.1.Y.H.I.K.J.z.l.e.g.h",
"QtQt.4.k.z.K.K.I.H.G.G.Y.6.5.5.5.6.5.6.5.5.5.5.F.Y.G.G.1.F.8.5.6.Y.1.G.G.1.1.1#b.1#b#b.1#b.1.1#b.1#b.1.1.1#b.1.H.T.K.J.z.l.g.g.hQtQt.4.k.z.K.K.I.H.G.G.Y.6.5.5.5.6.5.6.5.5#u#s#v#p#p#p#r#s#s#t#t#t.1.G.G.1.1.1#b.1#b#b.1#b.1.1#b.1#b.1.1.1#b.1.H.T.K.J.z.l.g.g.h",
"Qt.4Qt.l.z.K.K.U.P.Y.Y.Z.F.6#f.F.6.5.5.5.6.F.6.F.Z.1.Z.Z.F.6.6#f.1.G.1.G#b.1#b.1#b.1#b.1.1#b.1.1.0.1#b.1.1.1.1.B.I.K.J.z.m.d.d.dQt.4Qt.l.z.K.K.U.P.Y.Y.Z.F.6#f.F.6.5.5.5.6#t#w#x#x#y#z#A#v#s#s#t#t.G.1.G#b.1#b.1#b.1#b.1.1#b.1.1.0.1#b.1.1.1.1.B.I.K.J.z.m.d.d.d",
"QtQt.4.k.z.J.J.U.O.6.6.F.Y.Y.O.Y.F.5.5.F.9.Y.1.Z.9.F.6.F.Z.1.Y.1.1.1.1.1.1.1.1.1.1#b.1.1#b.1.1#b#b.1.1.1.1.1.1.H.U.K.K.B.n.a.a.tQtQt.4.k.z.J.J.U.O.6.6.F.Y.Y.O.Y.F.5.5.F#t#v#s#s#v#s#s#A#v#s#B#s#t.1.1.1.1.1.1.1.1#b.1.1#b.1.1#b#b.1.1.1.1.1.1.H.U.K.K.B.n.a.a.t",
"Qt.3Qt.l.z.L.K.T.Y.5.5.6.Y.0.G.Y.6.5.5.F.1.G.G.Z.6.5.5.6.Z.G.G.G.1.1.G.1.2.1.G.1#b.1.1#b.1#b#b.1.1.1#b.G.G.1.1.H.U.K.K.C.p.c#C.bQt.3Qt.l.z.L.K.T.Y.5.5.6.Y.0.G.Y.6.5.5.F#t#D#s#v#E#F#s#s#v#F#s#s#s.1.G.1.2.1.G.1#b.1.1#b.1#b#b.1.1.1#b.G.G.1.1.H.U.K.K.C.p.c#C.b",
"Qt.3.3.l.y.L.L.U#G.5.5.6.O.0.0.Y.F.5.5.6.1.G.G.Y.F.5.5.6.x.G#b#b.G.1.1.1.1.1.1.1.1#b.1.1#b.1.1#b#b.1.1.1.1.1.1.H.I.K.K.H.p#C.b.bQt.3.3.l.y.L.L.U#G.5.5.6.O.0.0.Y.F.5.5.6#t#A#s#H#D#v#s#v#s#v#A#A#s.1.1.1.1.1.1.1.1#b.1.1#b.1.1#b#b.1.1.1.1.1.1.H.I.K.K.H.p#C.b.b",
".d.d.d.m.z.K.L.U.Y.6.6.F.Y.Y.Y#I.6.5.5.6.Z.Y.Y.Z.F.6.6.9.1#b.1.1.1.1.G.1.G.1.G.1#b.1#b#b.1#b#b.1.1#b.1.G.1.1.1.H.I.K.K.B.p.b.b.b.d.d.d.m.z.K.L.U.Y.6.6.F.Y.Y.Y#I.6.5.5.6#t#D#s#v#A#A#s#s#v#v#D#A#s.1.G.1.G.1.G.1#b.1#b#b.1#b#b.1.1#b.1.G.1.1.1.H.I.K.K.B.p.b.b.b",
".a.a.a.n.B.J.L.U.P.Y.Y.Y.F.F.F.6.5.5.5.6.F.6.F.F.9.Y.1.1.1.1.1#b#g.1.1#b.1.G.1.1#b.1#b.1#b.1#b.1#b.1.1#b.1.1.1.H.I.M.M.C.p.b.b.b.a.a.a.n.B.J.L.U.P.Y.Y.Y.F.F.F.6.5.5.5.6#t#A#s#H#D#A#s#s#A#A#s#s#h.1.1#b.1.G.1.1#b.1#b.1#b.1#b.1#b.1.1#b.1.1.1.H.I.M.M.C.p.b.b.b",
".b.b#C.p#J.K.L.U#K.0.0.Y.F.5.5.6.5.6.5.6.5.5.5.6.1.G.G.1.1.1.G.1#g.1#b.1.1.1.1#b.1#b.1#b.1#b.1#b.1#b#b.1.1.1.1.H.U.M.M.C.p.b.b.b.b.b#C.p#J.K.L.U#K.0.0.Y.F.5.5.6.5.6.5.6.5#t#t#t#A#s#s#s#s#h#L#e#h.1#b.1.1.1.1#b.1#b.1#b.1#b.1#b.1#b#b.1.1.1.1.H.U.M.M.C.p.b.b.b",
".b.b.b.p#J.K.K.I.H.0.O.Y#f.5.5.5.5.5.6.5.5.5.5.F.Z.1.1.1.1.1.1.0#g#b.1#b.1.1#b.1.1.1.1#b.1#b#b.1.1#b.1#b.1.1.G.H.I.M.M.C.q.b.b.b.b.b.b.p#J.K.K.I.H.0.O.Y#f.5.5.5.5.5.6.5.5#s#v#M#t#t#t#t#h#L#m#L#e#b.1#b.1.1#b.1.1.1.1#b.1#b#b.1.1#b.1#b.1.1.G.H.I.M.M.C.q.b.b.b",
".c.b.b.p#J.K.K.U.H.O.G.Y.F.5.5.5.6.5.5.5.5.6.5.F.1.G.G.1.1.1.1.1#b.1#b.1#b#b.1#b#b.1#b.1#b.1.1.1#b.1#b.1.G.1.1.H.U.M.M.C.o#C.b.b.c.b.b.p#J.K.K.U.H.O.G.Y.F.5.5.5.6.5.5.5.5#N#N#s#O#O#O#u#h#H#P#P#H#a#b.1#b#b.1#b#b.1#b.1#b.1.1.1#b.1#b.1.G.1.1.H.U.M.M.C.o#C.b.b",
".b.b.b.p.B.K.K.I.H.1.G.Y.6.6.5.6.5.6.6.5.5.5.5.6.1#b#b#b.G.1.1.0.1#b.1#b.1.1#g#g.1#b.1#b.1.1.1#b.1#b.1#b.1.1.1.H.U.M.M.C.o.b.b.b.b.b.b.p.B.K.K.I.H.1.G.Y.6.6.5.6.5.6.6.5.5#s#A#s#u#Q#R#R#s#v#E#E#H#a#O#b.1.1#g#g.1#b.1#b.1.1.1#b.1#b.1#b.1.1.1.H.U.M.M.C.o.b.b.b",
".c.b#C.p.N.K.K.U.H.1.G.Z.6.5.5.5.5.5.5.5.6.5.6.6.x#b.1.1.1.0.1.1#b.1#b#g#b.1#g#g#b.1#b.1.1#b#b.1#b.1.1.1.G.1.1.H.U.M.K.C.o.b.b.b.c.b#C.p.N.K.K.U.H.1.G.Z.6.5.5.5.5.5.5.5#s#v#v#s#O#O#O#O#H#P#P#E#s#S#a#O#O.1#g#g#b.1#b.1.1#b#b.1#b.1.1.1.G.1.1.H.U.M.K.C.o.b.b.b",
".c#C.b.p.C.K.K.I.H.G.G.1.F.5.5.5.6.5.5.6.5.5.5.F.Z.G#b.1#b.1.1.1.1.1#g#g#g#g#g#g.1#b#b.1#b.1#b.1#b.1#b.1.1.1.1.H#q.M.M.C.p.b.b.c.c#C.b.p.C.K.K.I.H.G.G.1.F.5.5.5.6.5.5.6#s#D#s#s#u#O#L#e#v#E#v#H#s#S#S#O#O#O#O#g.1#b#b.1#b.1#b.1#b.1#b.1.1.1.1.H#q.M.M.C.p.b.b.c",
".a.a.a.n.B.K.K.V.2.Z.Y.Z.6.5.6.5.5.5.5.6.6.6.6.9.Y.G#b.1#b.1.G.1#b.1#g#g#g#g#g#g.1#b.1#b.1#b.1#b.1#b.1#b.1.G.1.H#q.M.M.z.n.a.a.a.a.a.a.n.B.K.K.V.2.Z.Y.Z.6.5.6.5.5.5.5#s#D#H#t#s#Q#e#h#h#H#P#s#D#O#a#S#T#a#u#u#u.1#b.1#b.1#b.1#b.1#b.1#b.1.G.1.H#q.M.M.z.n.a.a.a",
".d.d.e.r.z.J.J.I.Y.6.F.6.6.5.5.5.6.5.6.6.9.x.Y.Y.G.G.1.1.1.1.G.1.G.1.1.1#g.1#b.1.1.1#b.1.1.1.1.1#b.1#b.1.1.1.G.H.I.K.J.z.m.d.d.d.d.d.e.r.z.J.J.I.Y.6.F.6.6.5.5.5.6.5.6#s#H#t#t#H#Q#L#m#L#e#h#p#u#O#i#a#S#T#O#u#u#Q.1#b.1.1.1.1.1#b.1#b.1.1.1.G.H.I.K.J.z.m.d.d.d",
"Qt.g#U.l.z.L.K.S.Z.5.5.5.5.6.5.6.5.5.5.6.1.G.G.G.1.1.1.G.1.G.1.1.1.1.G.1#g#b#g.1#b.1.1#b.1.G.1.1#b.1.1#b#g#g.Y.H.U.K.K.z.lQtQtQtQt.g#U.l.z.L.K.S.Z.5.5.5.5.6.5.6.5.5.5.6#t.G#t#H#R#e#e#L#h#h#p#u#O#i#i#S#S#a#O#Q#R#R.1#b.1.G.1.1#b.1.1#b#g#g.Y.H.U.K.K.z.lQtQtQt",
"Qt.g#U.l.z.L.M.U.Z.5.5.6.5.5.5.6.5.5.5.6.9.G.1.G.G.G.1.G.1.1.1.1.1.0.G.G#g#g#g#g.1#b.1.G.1.G.1.2.1#b.1.1#g.G.1.H.I.K.L.z.l.4QtQtQt.g#U.l.z.L.M.U.Z.5.5.6.5.5.5.6.5.5.5.6#e#V#W#R#R#L#m#L#h#h#p#u#u#O#i#T#S#a#O#O#O#Q#Q.G.1.G.1.2.1#b.1.1#g.G.1.H.I.K.L.z.l.4QtQt",
".d.d.e.m.z.L.M.U.Z.5.5.5.6.5.5.5.6.F.6.9.1.G.1.G.Y.Z.x.1.1.1.G.G.1.1.x.1.1#g#g#g.G.1.1.1.1.1.1#b#b.1#b.1.1.x.Y.2.U.K.M.y.l.4QtQt.d.d.e.m.z.L.M.U.Z.5.5.5.6.5.5.5.6.F.6.9.1#V#W#R#R#L#m#L#h#p#u#u#u#O#i#a#S#a#O#O#u#W.1#x.1.1.1#b#b.1#b.1.1.x.Y.2.U.K.M.y.l.4QtQt",
".t.a.a.n.B.K.K.S.Z.6.5.5.5.6.6.6.Z.Y.1.x.G.1.1.Z.9.6.6.9.1.G.G.1#f#f.F.F.Y.G.1.1.1.1.1.1.1.1.G.1.G.1.G.O.F.F.F.Y.U.K.J.z.lQtQtQt.t.a.a.n.B.K.K.S.Z.6.5.5.5.6.6.6.Z.Y.1.x.G#W#W#R#R#Q#O#O#O#O#O#u#u#u#O#a#T#a.1#O#O#u#W#x.1.1.G.1.G.1.G.O.F.F.F.Y.U.K.J.z.lQtQtQt",
".b.b#C.p#J.J.J.S.Z.5.5.6.5.5.5.6.1.G.1.1.G.G.G.Y.6.5.5.6.Z.G.G.Z#f.5.5.F.Y.G.G.1.1.G.1.G.1.G.1.1.1.G.G.Y.F.5.5.Y.T.K.L.z.lQtQtQt.b.b#C.p#J.J.J.S.Z.5.5.6.5.5.5.6.1.G.1.1.G#W#W#R#R#R#Q#Q#u#u#O#u#u#u#O#O#T#a.G.1#O#O#w#x#O#O#X.1.1.G.G.Y.F.5.5.Y.T.K.L.z.lQtQtQt",
".c.b#C.p.C.M.J.T.Z.6.5.5.5.6.8.6.Z.G.1.G.G.G.G.1.6.8.6.6.x.G.G.O.5.5.5.6.x.G.1#b.1#b.1#b.1.1.1.1.1.G.G.Y.F.5.5.Y.T.K.K.z.k.g.3Qt.c.b#C.p.C.M.J.T.Z.6.5.5.5.6.8.6.Z.G.1.G.G#W#W#R#R#R#Q#Q#Q#u#u#u#u#O#W#W#T#a.1#b.1#b#O#w#O#O#X#X.1.G.G.Y.F.5.5.Y.T.K.K.z.k.g.3Qt",
".b.b.b.p.C.K.K.T.Z.5.5.6.6.6.6.9.1.G.1.1.1.Z.1.9.F.6.6.9.Z.O.Z.Z.F.F#f.F.1#b#b.1.1.1#b.1.1.1.1.1.Y.Y.Y.F.5.p.o.9.T.K.K.y.l.g.gQt.b.b.b.p.C.K.K.T.Z.5.5.6.6.6.6.9.1.G.1.1.1#V#W#R#R#R#R#Q#Q#u#u#u#u#W#X#W#W#a#b.1.1.1#b.1#X#X#X#X#X.Y.Y.F.5.p.o.9.T.K.K.y.l.g.gQt",
".b.b.b.o.C.M.M.V.Z.6.5.6.Z.Z.1.Z.1.1.G.1.9.6.6.F.9.Y.1.Z.F.6.6.9.Y.Y.Y.1.1.1.1#b#b.1#b.1#b.1.G.1.9.F.F.8.E#Y#Y.8.C.J.J.z.mQtQtQt.b.b.b.o.C.M.M.V.Z.6.5.6.Z.Z.1.Z.1.1.G.1.9#V#V#R#R#R#R#Q#Q#u#X#T#X#W#W#X#W#a.1#b#b.1#b.1#b.1.G.1.9.F.F.8.E#Y#Y.8.C.J.J.z.mQtQtQt",
".b.b.b.o.C.K.M.V.Z.5.5.6.1.1.G.1.1.1.G.Z.6.8.5.6.1.1.G.Z.F.5.5.6.Y.G.G.1.1.1.G.1.1#b.1.1#b#g.G.Y#f.5.5#Z#Y.b.b.q.C.K.J.z.l.hQtQt.b.b.b.o.C.K.M.V.Z.5.5.6.1.1.G.1.1.1.G.Z.6#V#T#x#x#x#T#T#T#X#W#W#W#X#X#W#W#a.G.1.1#b.1.1#b#g.G.Y#f.5.5#Z#Y.b.b.q.C.K.J.z.l.hQtQt",
".b.b.b.o.C.M.M.V.Z.5.8.6.Z.G.G.1.G.1.G.1.6.5.5.6.1.G.G.1.6.5.8.6.Y.G.1.1.1.1.1.1#b.1#b#b#b.G.G.1.F.5.5.8#Y.b.b.o.C.K.K.z.k.4.3Qt.b.b.b.o.C.M.M.V.Z.5.8.6.Z.G.G.1.G.1.G.1.6#V#W#W#W#W#W#W#W#W#T#T#X#W#W.1.1#i.1.1#b.1#b#b#b.G.G.1.F.5.5.8#Y.b.b.o.C.K.K.z.k.4.3Qt",
".a.a.a.r.C.M.M.U.1.6.6.9.1.G.G.G.x.1.Z.Z.9.6.6.9.9.1.Z.Z.F.6.6.F.G.G.G.1.G.1.G.1.1#b.1.1.1.x.Y.9.F.5.5#0#Y.b.b.o.C.K.J.z.l.4QtQt.a.a.a.r.C.M.M.U.1.6.6.9.1.G.G.G.x.1.Z.Z.9#V#T#x#x#x#x#x#x#T#W#1#W.G.G.1.G.1.G.1.1#b.1.1.1.x.Y.9.F.5.5#0#Y.b.b.o.C.K.J.z.l.4QtQt",
".d.d.e.r.z.J.K.U.P.Z.Z.1.1.1.1.1.F.6.6.F.9.Y.1.9.F.F.6.F.Z.1.Y.1.1.1#b.1.1.1.1.1.G.1.G.G.F.F.F.F.5.6.5.8#Y.b.b.n.C.J.J.B.l.g.gQt.d.d.e.r.z.J.K.U.P.Z.Z.1.1.1.1.1#2#2#2#2#2#2#V#V#1#3#V#1#4#5#5#1#3#2#2#2.1.1.1.1.G.1.G.G.F.F.F.F.5.6.5.8#Y.b.b.n.C.J.J.B.l.g.gQt",
"Qt.g#U.l.z.J.K.I.H.G.1.G.1.G.G.Z.F.5.5.F.Y.G.1.1.6.8.5.6.Z.G.G.G#b#b.1#b#b.G.1.1.1.1.G.Y.6.5.5.5.5.5.5#0#Y.b.b.q.C.J.J.z.l.gQtQtQt.g#U.l.z.J.K.I.H.G.1.G#2#2#2#2#2#2#2#2#2#2#V#6#6#V#V#D#H#D#6#3#V#2#2#2#2#2#2#2.1.1.G.Y.6.5.5.5.5.5.5#0#Y.b.b.q.C.J.J.z.l.gQtQt",
"Qt.g#U.l.z.M.M.U.H.G.G.1.G.G.G.1.6.5.5.6.Y.G.G.Y.F.5.5.6.x.G#b#b.1.1#b.1.1#b.1.G.1.G.G.Y.F.5.5.5.5.5.5#7#8.b.b.n.C.J.J.z.l.g.gQtQt.g#U.l.z.M.M.U.H.G#2#2#2#2#2#2#2#2#2#2#5#5#5#1#1#V#V#5#4#5#5#5#V#2#2#2#2#2#2#2#2#2.G.Y.F.5.5.5.5.5.5#7#8.b.b.n.C.J.J.z.l.g.gQt",
".d.d.e.m.z.M.M.I.H.O.Y.G.Y.Y.x.9.F.5.5.F.Y.G.G.1.F.6.6.9.1#b.1.1.1#b.1.1#b.1.1.1.Y.x.Y.Z.6.5.5.5.F.F.F.5.q#Y#Y.8.C.J.K.B.m.d.d.d.d.d.e.m.z.M.M.I.H#2#2#2#2#2#2#2#2#2#2#5#5#5#1#1#1#V#V#1#5#4#5#3#3#V#2#2#2#2#2#2#2#2#2.Z.6.5.5.5.F.F.F.5.q#Y#Y.8.C.J.K.B.m.d.d.d",
".t.a#9.n.C.K.M.I.H.1.G.Y.9.F.6.6.6.5.5.F.Y.G.G.Y.Y.Y.1.1.1.1.1#b#b.1#b.1.1.G.1.1#I.6.6.6.6.5.5.F#I.Y.1.9.8.o#0.F.T.K.K.B.n.a.a.a.t.a#9.n.C.K.M.I#2#2#2#2#2#2#2#2#2#2#2#1#1#1#1#1#1#V#4#6#D#6#3#1#V#V#2#2#2#2#2#2#2#2#2#2.6.5.5.F#I.Y.1.9.8.o#0.F.T.K.K.B.n.a.a.a",
".b.b#C.p.C.K.M.I.H.1.G.1.6.5.5.5.5.5.5.F.1.1.G.1.G.G#b.1.1.1.1#b#b.1#b#b.1.G.G.Z.F.5.5.5.5.5.5.F.Y.G.G.Y.F.5.5.Y.T.K.K.C.p.b.c.c.b.b#C.p.C.K.M#2#2#2#2#2#2#2#2#2#2#2#2#i#V#V#V#V#V#4#T#4#5#1#1#1#V#i#2#2#2#2#2#2#2#2#2#2#2.5.5.F.Y.G.G.Y.F.5.5.Y.T.K.K.C.p.b.c.c",
".c.c#C.p.C.M.M#q.H.1.G.Y.6.5.5.6.5.5.5#f.R.G.1.G.G.1.G.G.1.1.1.1.G.G.1#b.G.G.G.Y.F.5.5.5.5.5.5.F.Y.G.G.1.F.5.5.Y.T.K.K.C.p#C#C.c.c.c#C.p.C.M.M#2#2#2#2#2#2#2#2#2#2#2#2#2#2#2#2#2#2#4#T#T#4#5#1#V#V#i#2#2#2#2#2#2#2#2#2#2#2.5.5.F.Y.G.G.1.F.5.5.Y.T.K.K.C.p#C#C.c",
".a.a.a.n.H.I.I.C.0.Z.Y.Z.6.6.5.5.6.6.F.9.Y.1.G.O.1.1.1.1.1.1#b.1.Y.Y.x.1.O.Y.Y.Z.F.5.5.6.6.6.F.F.Y.O.Y.9.5#0#0.F#J.I.I.2a..a.a.t.a.a.a.n.H.I.I#2#2#2#2#2#2#2#2#2#2#2#2#2#2#2#2#2#2#i#V#V#V#V#i#2#2#2#2#2#2#2#2#2#2#2#2#2#2.6.F.F.Y.O.Y.9.5#0#0.F#J.I.I.2a..a.a.t",
".#.d.ea#.x.H.H.G.Z.F.6.6.6.6.5.6.Z.Y.O.Y.G.G.G.G.1.1.1.1.1.G.G.O.9.6.F.F.6.F.F.6.5.5.6.6#I.O.Y.Z.F.F.F.8.E#Yaa.p.Y#J#J.Ra#ab.d.d.#.d.ea#.x.H.H#2#2#2#2#2#2#2#2#2#2#2#2#2#2#2#2#2#2#2#2#2#2#2#2#2#2#2#2#2#2#2#2#2#2#2#2#2#2.O.Y.Z.F.F.F.8.E#Yaa.p.Y#J#J.Ra#ab.d.d",
".e.g.g.kac.G.G.1.6.6.5.6.5.5.6.6.Y.G.G.G.G.G.G.O.G.G.G.G.G.G.G.Y.F.5.5.5.5.5.5.5.6.5.5.F.O.O.G.O.F.5.5#7aa.b#Cad.F.G.O.w.k.3QtQt.e.g.g.kac.G.G.1#2#2#2#2#2#2#2#2#2#2#2#2#2#2#2#2#2#2#2#2#2#2#2#2#2#2#2#2#2#2#2#2#2#2#2#2.O.O.G.O.F.5.5#7aa.b#Cad.F.G.O.w.k.3QtQt",
".e.e.e.kae.G.G.Z.6.6.5.5.5.6.5.6.O.G.G.G.1.G.G.G.G.G.G.G.1.G.G.Y.6.5.5.6.5.6.6.5.6.5.5.F.O.G.G.Y.6.6.5.8aa.b.bad.F.0.0.w.k.3QtQt.e.e.e.kae.G.G.Z.6#2#2#2#2#2#2#2#2#2#2#2#2#2#2#2#2#2#2#2#2#2#2#2#2#2#2#2#2#2#2#2#2#2#2.F.O.G.G.Y.6.6.5.8aa.b.bad.F.0.0.w.k.3QtQt",
".e.f.daf.v.9.6.6.v.n.oag#0.5#Z#Z.vacae.w.w.F#f.w.wae.w.w.F.w.F.6.8#Z#Z#Z#0#0#0#0#0#0#0.8.6aeac.v.v.oaha.#Y.a.a.Qai.F.R.vaj.3QtQt.e.f.daf.v.9.6.6.v.n#2#2#2#2#2#2#2#2#2#2#2#2#2#2#2#2#2#2#2#2#2#2#2#2#2#2#2#2#2#2#2#2#0.8.6aeac.v.v.oaha.#Y.a.a.Qai.F.R.vaj.3QtQt",
".t.a.a.tak.E.E.Qalamafan#Yakak.ua#.k.ja#.Q.E.E.Qa#.k.k.j.Q#8.q.Q#8#8#8#8#8#8#8#8#8#8#8.ua#.k.k.j.jafaf.i.i.d.d.#.u.E.q.u.fQtQtQt.t.a.a.tak.E.E.Qalamafan#2#2#2#2#2#2#2#2#2#2#2#2#2#2#2#2#2#2#2#2#2#2#2#2#2#2#2#2#8#8#8.ua#.k.k.j.jafaf.i.i.d.d.#.u.E.q.u.fQtQtQt",
".b.c.c.c.b.b.b#9.e.e.e.e.a.b.c.a.dQt#Uab.a.b.b.a.d#U.g.d.a.b.b.b.c.c.t.b.c.b.b.c.b.b.c.a.d.g.g.g.gQtQtQt.h.h.h.d.a.b.b.a.dQtQtQt.b.c.c.c.b.b.b#9.e.e.e.e.a.b.c.a#2#2#2#2#2#2#2#2#2#2#2#2#2#2#2#2#2#2#2#2.c.b.b.c.b.b.c.a.d.g.g.g.gQtQtQt.h.h.h.d.a.b.b.a.dQtQtQt",
".c.c.c.c.b.c.b.t.#.e.e.f.a.c.c.a.dQtQt.d.a#C.b.a.d.hQt.d.a.c.b.b.b.c.b.b.b.b.c.b.b.b.b.a.d.g.gQtQtQtQtQtQt.h.h.d.a.c.b.a.d.h.hQt.c.c.c.c.b.c.b.t.#.e.e.f.a.c.c.a.dQtQt.d.a#C.b.a.d.hQt.d.a.c.b.b.b.c.b.b.b.b.c.b.b.b.b.a.d.g.gQtQtQtQtQtQt.h.h.d.a.c.b.a.d.h.hQt",
".b.b.c.b.b.c.b.t.e.e.g.e.t.c.c.a.dQtQt.d.a.c.b.a.d.hQt.d.a.c.c.c.c.b.c.b.c.c.b.c.c.b.b.t.dQtQtQtQtQtQtQtQtQt.h.d.a.c.c.a.dQtQtQt.b.b.c.b.b.c.b.t.e.e.g.e.t.c.c.a.dQtQt.d.a.c.b.a.d.hQt.d.a.c.c.c.c.b.c.b.c.c.b.c.c.b.b.t.dQtQtQtQtQtQtQtQtQt.h.d.a.c.c.a.dQtQtQt"};
