/* XPM */
static char *dummy[]={
"64 64 118 2",
"Qt c None",
".O c #000000",
"#X c #000000",
".R c #000000",
"#z c #000000",
".6 c #000000",
"#r c #000000",
".S c #000000",
"#Y c #000000",
".X c #000000",
".W c #000000",
"#Z c #000000",
".P c #000000",
".Q c #000000",
"#P c #000000",
"#g c #000000",
".7 c #000000",
"#B c #000000",
".Y c #000000",
"#Q c #000000",
"#s c #000000",
"#x c #000000",
"#R c #000000",
".Z c #000000",
"#S c #000000",
".8 c #000000",
"#f c #000000",
"#T c #000000",
".0 c #000000",
"#U c #000000",
"#h c #000000",
"#V c #000000",
"#W c #000000",
".T c #000000",
".U c #000000",
".V c #000000",
".5 c #000000",
".9 c #000000",
"#C c #000000",
".4 c #000000",
"#t c #000000",
"#y c #000000",
"#J c #000000",
"#. c #000000",
"#i c #000000",
"#K c #000000",
"#L c #000000",
"## c #000000",
"#D c #000000",
"#M c #000000",
"#N c #000000",
"#j c #000000",
".1 c #000000",
"#O c #000000",
".2 c #000000",
".3 c #000000",
"#a c #000000",
"#k c #000000",
"#e c #000000",
"#I c #000000",
"#H c #000000",
"#u c #000000",
"#l c #000000",
"#E c #000000",
"#F c #000000",
"#G c #000000",
"#m c #000000",
"#b c #000000",
"#c c #000000",
"#d c #000000",
"#q c #000000",
"#v c #000000",
"#A c #000000",
"#n c #000000",
"#o c #000000",
"#p c #000000",
"#w c #000000",
".L c #000000",
".y c #000003",
".e c #00000f",
".N c #00070c",
".m c #07050d",
".z c #141d32",
".k c #1baba8",
".M c #1c0000",
".I c #1e232c",
".h c #25424b",
".u c #280500",
".r c #2b2c38",
".C c #303a55",
".G c #362700",
".H c #3f4449",
".D c #4b5e7f",
".p c #4f211e",
".x c #4f5463",
".b c #52300c",
".o c #5b0a00",
".B c #684700",
".J c #6c7273",
".F c #708ea7",
".n c #757c87",
".t c #841914",
".i c #8b4435",
".# c #946230",
".K c #99a09e",
".A c #9e7b10",
".s c #b1b5be",
".g c #b5bfce",
".q c #c26552",
".w c #c91b26",
".a c #d1a049",
".E c #dfba18",
".c c #f0e883",
".j c #f2ffff",
".v c #f4fffe",
".f c #fd9370",
".l c #ffe5ba",
".d c #fffffa",
"QtQtQtQtQtQtQtQtQtQtQtQtQtQtQtQtQtQtQtQtQtQtQtQtQtQtQtQtQtQtQtQtQtQtQtQtQtQtQtQtQtQtQtQtQtQtQtQtQtQtQtQtQtQtQtQtQtQtQtQtQtQtQtQt",
"QtQtQtQtQtQtQtQtQtQtQtQtQtQtQtQtQtQtQtQtQtQtQtQtQtQtQtQtQtQtQtQtQtQtQtQtQtQtQtQtQtQtQtQtQtQtQtQtQtQtQtQtQtQtQtQtQtQtQtQtQtQtQtQt",
"QtQtQtQtQtQtQtQtQtQtQtQtQtQtQtQtQtQtQtQtQtQtQtQtQtQtQtQt.#.a.#QtQtQtQtQtQtQtQtQtQtQtQtQtQtQtQtQtQtQtQtQtQtQtQtQtQtQtQtQtQtQtQtQt",
"QtQtQtQtQtQtQtQtQtQtQtQtQtQtQtQtQtQtQtQtQtQtQtQtQtQtQtQt.#.a.#.#.#.#QtQtQtQtQtQtQtQtQtQtQtQtQtQtQtQtQtQtQtQtQtQtQtQtQtQtQtQtQtQt",
"QtQtQtQtQtQtQtQtQtQtQtQtQtQtQtQtQtQtQtQtQtQtQtQtQtQt.#.#.b.b.a.#.#.#.a.#QtQtQtQtQtQtQtQtQtQtQtQtQtQtQtQtQtQtQtQtQtQtQtQtQtQtQtQt",
"QtQtQtQtQtQtQtQtQtQtQtQtQtQtQtQtQtQtQtQtQtQtQtQtQt.b.#.#.a.#.b.a.#.a.a.#.bQtQtQtQtQtQtQtQtQtQtQtQtQtQtQtQtQtQtQtQtQtQtQtQtQtQtQt",
"QtQtQtQtQtQtQtQtQtQtQtQtQtQtQtQtQtQtQtQtQtQtQtQt.b.b.#.a.c.a.#.a.a.c.a.a.b.bQtQtQtQtQtQtQtQtQtQtQtQtQtQtQtQtQtQtQtQtQtQtQtQtQtQt",
"QtQtQtQtQtQtQtQtQtQtQtQtQtQtQtQtQtQtQtQtQtQtQt.#.b.#.c.c.a.c.a.c.c.a.c.a.#.bQtQtQtQtQtQtQtQtQtQtQtQtQtQtQtQtQtQtQtQtQtQtQtQtQtQt",
"QtQtQtQtQtQtQtQtQtQtQtQtQtQtQtQtQtQtQtQtQtQtQt.#.#.a.c.a.d.a.c.c.a.d.a.#.a.#.#QtQtQtQtQtQtQtQtQtQtQtQtQtQtQtQtQtQtQtQtQtQtQtQtQt",
"QtQtQtQtQtQtQtQtQtQtQtQtQtQtQtQtQtQtQtQtQtQtQtQt.b.b.a.d.c.a.d.c.a.c.d.a.#.a.#.#QtQtQtQtQtQtQtQtQtQtQtQtQtQtQtQtQtQtQtQtQtQtQtQt",
"QtQtQtQtQtQtQtQtQtQtQtQtQtQtQtQtQtQtQtQtQtQtQt.a.#.a.c.c.a.#.d.d.#.a.c.a.b.#.a.#QtQtQtQtQtQtQtQtQtQtQtQtQtQtQtQtQtQtQtQtQtQtQtQt",
"QtQtQtQtQtQtQtQtQtQtQtQtQtQtQtQtQtQtQtQtQtQtQt.a.a.c.#.a.#.b.a.d.b.#.a.c.b.b.bQtQtQtQtQtQtQtQtQtQtQtQtQtQtQtQtQtQtQtQtQtQtQtQtQt",
"QtQtQtQtQtQtQtQtQtQtQtQtQtQtQtQtQtQtQtQtQtQtQt.b.b.b.a.a.e.e.#.c.f.e.e.a.b.a.bQtQtQtQtQtQtQtQtQtQtQtQtQtQtQtQtQtQtQtQtQtQtQtQtQt",
"QtQtQtQtQtQtQtQtQtQtQtQtQtQtQtQtQtQtQtQtQtQtQtQtQt.b.a.#.g.h.#.a.e.h.g.#.f.#.bQtQtQtQtQtQtQtQtQtQtQtQtQtQtQtQtQtQtQtQtQtQtQtQtQt",
"QtQtQtQtQtQtQtQtQtQtQtQtQtQtQtQtQtQtQtQtQtQtQtQtQt.#.a.i.j.k.l.#.l.k.j.b.f.b.#QtQtQtQtQtQtQtQtQtQtQtQtQtQtQtQtQtQtQtQtQtQtQtQtQt",
"QtQtQtQtQtQtQtQtQtQtQtQtQtQtQtQtQtQtQtQtQtQtQtQt.m.#.b.i.f.l.l.l.l.l.i.i.b.m.mQtQtQtQtQtQtQtQtQtQtQtQtQtQtQtQtQtQtQtQtQtQtQtQtQt",
"QtQtQtQtQtQtQtQtQtQtQtQtQtQtQtQtQtQtQtQtQtQtQt.m.m.n.o.p.q.l.l.l.l.l.q.p.r.n.mQtQtQtQtQtQtQtQtQtQtQtQtQtQtQtQtQtQtQtQtQtQtQtQtQt",
"QtQtQtQtQtQtQtQtQtQtQtQtQtQtQtQtQtQtQtQtQtQt.m.m.s.t.t.u.p.q.f.f.f.q.p.t.t.r.s.mQtQtQtQtQtQtQtQtQtQtQtQtQtQtQtQtQtQtQtQtQtQtQtQt",
"QtQtQtQtQtQtQtQtQtQtQtQtQtQtQtQtQtQtQtQtQtQt.m.v.n.w.w.u.r.p.i.i.i.p.r.w.w.r.v.mQtQtQtQtQtQtQtQtQtQtQtQtQtQtQtQtQtQtQtQtQtQtQtQt",
"QtQtQtQtQtQtQtQtQtQtQtQtQtQtQtQtQtQtQtQtQtQt.m.x.v.n.w.t.r.n.y.m.y.n.r.w.r.v.x.m.zQtQtQtQtQtQtQtQtQtQtQtQtQtQtQtQtQtQtQtQtQtQtQt",
"QtQtQtQtQtQtQtQtQtQtQtQtQtQtQtQtQtQtQtQtQt.z.z.m.x.v.w.t.n.r.y.y.r.x.n.w.v.n.m.z.zQtQtQtQtQtQtQtQtQtQtQtQtQtQtQtQtQtQtQtQtQtQtQt",
"QtQtQtQtQtQtQtQtQtQtQtQtQtQtQtQtQtQtQtQtQt.z.A.z.m.n.v.w.r.s.y.x.s.s.u.t.s.m.z.z.A.BQtQtQtQtQtQtQtQtQtQtQtQtQtQtQtQtQtQtQtQtQtQt",
"QtQtQtQtQtQtQtQtQtQtQtQtQtQtQtQtQtQtQtQtQt.B.A.z.z.m.s.w.t.y.x.s.r.u.t.s.n.z.z.C.A.BQtQtQtQtQtQtQtQtQtQtQtQtQtQtQtQtQtQtQtQtQtQt",
"QtQtQtQtQtQtQtQtQtQtQtQtQtQtQtQtQtQtQtQtQt.B.C.C.z.m.n.s.t.u.s.z.r.u.t.v.y.z.C.C.z.BQtQtQtQtQtQtQtQtQtQtQtQtQtQtQtQtQtQtQtQtQtQt",
"QtQtQtQtQtQtQtQtQtQtQtQtQtQtQtQtQtQtQtQt.z.C.C.C.z.m.m.v.t.u.r.x.r.u.t.s.m.z.C.C.C.zQtQtQtQtQtQtQtQtQtQtQtQtQtQtQtQtQtQtQtQtQtQt",
"QtQtQtQtQtQtQtQtQtQtQtQtQtQtQtQtQtQtQtQt.z.D.C.C.z.y.m.s.t.z.A.x.E.z.s.x.m.y.C.C.C.z.zQtQtQtQtQtQtQtQtQtQtQtQtQtQtQtQtQtQtQtQtQt",
"QtQtQtQtQtQtQtQtQtQtQtQtQtQtQtQtQtQtQt.z.z.D.D.C.yQt.m.m.s.z.r.x.x.z.v.m.mQt.z.C.C.C.zQtQtQtQtQtQtQtQtQtQtQtQtQtQtQtQtQtQtQtQtQt",
"QtQtQtQtQtQtQtQtQtQtQtQtQtQtQtQtQtQtQt.z.C.F.D.z.yQt.m.m.v.z.B.x.A.z.v.m.mQt.y.C.C.D.zQtQtQtQtQtQtQtQtQtQtQtQtQtQtQtQtQtQtQtQtQt",
"QtQtQtQtQtQtQtQtQtQtQtQtQtQtQtQtQtQtQt.z.D.F.D.zQtQt.m.m.v.z.r.x.x.z.s.m.mQt.y.z.D.D.C.zQtQtQtQtQtQtQtQtQtQtQtQtQtQtQtQtQtQtQtQt",
"QtQtQtQtQtQtQtQtQtQtQtQtQtQtQtQtQtQt.s.C.F.F.C.yQt.y.m.m.s.y.E.A.B.z.n.m.m.mQt.z.D.F.D.z.xQtQtQtQtQtQtQtQtQtQtQtQtQtQtQtQtQtQtQt",
"QtQtQtQtQtQtQtQtQtQtQtQtQtQtQtQtQtQt.s.z.F.D.C.yQt.y.x.m.n.y.A.B.G.z.n.m.x.mQt.r.F.F.D.C.xQtQtQtQtQtQtQtQtQtQtQtQtQtQtQtQtQtQtQt",
"QtQtQtQtQtQtQtQtQtQtQtQtQtQtQtQtQtQt.C.s.v.s.s.nQt.y.y.x.n.B.r.z.z.z.n.x.m.yQt.x.n.s.s.n.zQtQtQtQtQtQtQtQtQtQtQtQtQtQtQtQtQtQtQt",
"QtQtQtQtQtQtQtQtQtQtQtQtQtQtQtQtQtQt.n.C.D.D.C.z.y.z.y.m.n.z.A.A.B.z.n.m.y.z.y.r.z.D.D.C.xQtQtQtQtQtQtQtQtQtQtQtQtQtQtQtQtQtQtQt",
"QtQtQtQtQtQtQtQtQtQtQtQtQtQtQtQtQtQt.y.s.v.s.n.n.y.z.z.m.n.z.z.z.z.z.n.y.z.z.y.x.n.s.n.x.yQtQtQtQtQtQtQtQtQtQtQtQtQtQtQtQtQtQtQt",
"QtQtQtQtQtQtQtQtQtQtQtQtQtQtQtQtQtQt.y.H.I.H.H.y.y.C.z.y.n.B.z.z.z.m.s.y.z.z.y.y.I.y.y.H.IQtQtQtQtQtQtQtQtQtQtQtQtQtQtQtQtQtQtQt",
"QtQtQtQtQtQtQtQtQtQtQtQtQtQtQtQtQtQt.I.J.y.y.J.y.z.C.z.y.n.m.A.B.B.m.s.y.z.C.z.y.J.y.H.J.yQtQtQtQtQtQtQtQtQtQtQtQtQtQtQtQtQtQtQt",
"QtQtQtQtQtQtQtQtQtQtQtQtQtQtQtQtQtQt.y.K.J.y.J.y.z.C.m.n.x.z.m.m.z.z.s.y.z.C.I.y.y.y.I.yQtQtQtQtQtQtQtQtQtQtQtQtQtQtQtQtQtQtQtQt",
"QtQtQtQtQtQtQtQtQtQtQtQtQtQtQtQtQtQtQt.y.y.y.y.z.C.C.m.s.m.x.n.n.n.x.x.s.m.C.C.yQtQtQtQtQtQtQtQtQtQtQtQtQtQtQtQtQtQtQtQtQtQtQtQt",
"QtQtQtQtQtQtQtQtQtQtQtQtQtQtQtQtQtQtQtQtQtQt.y.z.C.I.m.s.m.m.m.m.m.m.z.v.m.C.C.I.yQtQtQtQtQtQtQtQtQtQtQtQtQtQtQtQtQtQtQtQtQtQtQt",
"QtQtQtQtQtQtQtQtQtQtQtQtQtQtQtQtQtQtQtQtQt.y.z.C.D.z.m.n.z.z.m.y.m.z.z.v.m.z.C.C.y.yQtQtQtQtQtQtQtQtQtQtQtQtQtQtQtQtQtQtQtQtQtQt",
"QtQtQtQtQtQtQtQtQtQtQtQtQtQtQtQtQtQtQtQt.y.y.z.C.D.m.n.z.C.z.m.y.m.z.C.s.m.z.C.D.z.y.yQtQtQtQtQtQtQtQtQtQtQtQtQtQtQtQtQtQtQtQtQt",
"QtQtQtQtQtQtQtQtQtQtQtQtQtQtQtQtQtQtQtQt.y.z.C.D.D.m.s.z.C.z.m.L.L.y.C.C.v.m.C.D.C.z.y.zQtQtQtQtQtQtQtQtQtQtQtQtQtQtQtQtQtQtQtQt",
"QtQtQtQtQtQtQtQtQtQtQtQtQtQtQtQtQtQtQt.y.z.z.C.D.D.m.v.z.C.z.m.y.M.m.z.C.v.m.z.C.D.C.C.z.zQtQtQtQtQtQtQtQtQtQtQtQtQtQtQtQtQtQtQt",
"QtQtQtQtQtQtQtQtQtQtQtQtQtQtQtQtQtQt.r.y.z.C.D.D.C.m.v.z.z.m.y.o.u.y.N.N.s.m.z.C.D.D.C.C.z.mQtQtQtQtQtQtQtQtQtQtQtQtQtQtQtQtQtQt",
"QtQtQtQtQtQtQtQtQtQtQtQtQtQtQtQtQtQt.r.z.C.C.D.F.C.m.v.y.z.N.y.o.o.N.I.H.I.v.m.z.D.D.D.C.z.mQtQtQtQtQtQtQtQtQtQtQtQtQtQtQtQtQtQt",
"QtQtQtQtQtQtQtQtQtQtQtQtQtQtQtQtQtQt.x.z.C.D.D.F.z.m.s.I.N.N.y.o.o.I.H.H.H.v.m.z.C.F.D.D.r.mQtQtQtQtQtQtQtQtQtQtQtQtQtQtQtQtQtQt",
"QtQtQtQtQtQtQtQtQtQtQtQtQtQtQtQtQtQt.r.n.n.D.F.F.m.s.J.J.I.N.y.o.o.I.H.J.J.s.m.m.C.F.F.n.x.mQtQtQtQtQtQtQtQtQtQtQtQtQtQtQtQtQtQt",
"QtQtQtQtQtQtQtQtQtQtQtQtQtQtQtQtQtQt.r.x.n.n.n.s.m.s.J.H.I.m.u.u.u.m.N.H.J.I.v.m.z.D.s.n.xQtQtQtQtQtQtQtQtQtQtQtQtQtQtQtQtQtQtQt",
"QtQtQtQtQtQtQtQtQtQtQtQtQtQtQtQtQtQt.m.r.r.r.x.s.v.s.H.I.N.N.O.O.O.m.I.N.H.I.s.s.s.s.n.n.mQtQtQtQtQtQtQtQtQtQtQtQtQtQtQtQtQtQtQt",
"QtQtQtQtQtQtQtQtQtQtQtQtQtQtQtQtQtQt.O.m.r.r.r.s.v.n.I.N.N.N.P.Q.Q.N.I.I.I.N.n.v.x.x.r.r.O.OQtQtQtQtQtQtQtQtQtQtQtQtQtQtQtQtQtQt",
"QtQtQtQtQtQtQtQtQtQtQtQtQtQtQtQt.O.O.R.S.m.m.r.s.v.N.N.I.m.T.U.V.V.m.I.H.J.H.N.v.x.r.r.W.S.R.O.OQtQtQtQtQtQtQtQtQtQtQtQtQtQtQtQt",
"QtQtQtQtQtQtQtQtQtQtQtQtQtQtQt.O.R.X.Y.Z.0.V.m.x.s.H.H.I.N.1.2.3.3.2.N.N.r.I.N.r.m.4.5.0.Z.Y.X.R.OQtQtQtQtQtQtQtQtQtQtQtQtQtQtQt",
"QtQtQtQtQtQtQtQtQtQtQtQtQtQt.O.6.7.8.9#.##.1#a.m.m.I.N.N.N#b#c#d#d#c.N.I.H.H.I.N#e#a.1###..9#f.7.6.OQtQtQtQtQtQtQtQtQtQtQtQtQtQt",
"QtQtQtQtQtQtQtQtQtQtQtQtQt.O.R#g#h#i#j#k#l#m.N.N.J.H.I.m#n#o#o#p#p#o.m.I.I.I.N.N.m#q#m#l#k#j#i#h#g.R.OQtQtQtQtQtQtQtQtQtQtQtQtQt",
"QtQtQtQtQtQtQtQtQtQtQtQtQt.O#r#s#t.2#u#q#v.N.N.I.I.H.I.N#w#w#w#w#w#w.N.I.N.H.H.H.N#p#n#v#q#u.2#t#s#r.OQtQtQtQtQtQtQtQtQtQtQtQtQt",
"QtQtQtQtQtQtQtQtQtQtQtQtQt.O#r#x#t.2#l#q#v.N.J.J.H.r.I.m#w#w#w#w#w#w.y.N.I.I.I.I.N#p#n#v#q#l.2#y#x#r.OQtQtQtQtQtQtQtQtQtQtQtQtQt",
"QtQtQtQtQtQtQtQtQtQtQtQtQt.O#z#g#h#i#j#k#l.I.H.H.H.I.m#A#n#o#o#p#p#o#o#n.y.y.N.y.y#q#m#l#k#j#i#h#g#z.OQtQtQtQtQtQtQtQtQtQtQtQtQt",
"QtQtQtQtQtQtQtQtQtQtQtQtQtQt.O.6#B#f#C#i#D.m.I.I.I.m#E#F#G#b#d#d#d#d#b#G#F#E#H#I#e#a.1#D#i#C#f#B.6.OQtQtQtQtQtQtQtQtQtQtQtQtQtQt",
"QtQtQtQtQtQtQtQtQtQtQtQtQtQtQt.O#z.W.Y.Z.0.5.4#J#K#L#M#N#j#O.2.3.3.2#O#j#N#M#L#K#J.4.5.0.Z.Y.W#z.OQtQtQtQtQtQtQtQtQtQtQtQtQtQtQt",
"QtQtQtQtQtQtQtQtQtQtQtQtQtQtQtQt.O.O.R.S.W#P#Q#R#S#T#U#V#W.T.U.V.V.U.T#W#V#U#T#S#R#Q#g.W.S.R.O.OQtQtQtQtQtQtQtQtQtQtQtQtQtQtQtQt",
"QtQtQtQtQtQtQtQtQtQtQtQtQtQtQtQtQtQt.O.O.O#X.R.6.S#Y.W#Z.P.P.P.Q.Q.P.P.P#Z.W#Y.S.6.R#X.O.O.OQtQtQtQtQtQtQtQtQtQtQtQtQtQtQtQtQtQt",
"QtQtQtQtQtQtQtQtQtQtQtQtQtQtQtQtQtQtQtQtQtQt.O.O.O.O.O.O.O.O.O.O.O.O.O.O.O.O.O.O.O.OQtQtQtQtQtQtQtQtQtQtQtQtQtQtQtQtQtQtQtQtQtQt",
"QtQtQtQtQtQtQtQtQtQtQtQtQtQtQtQtQtQtQtQtQtQtQtQtQtQtQtQtQtQtQtQtQtQtQtQtQtQtQtQtQtQtQtQtQtQtQtQtQtQtQtQtQtQtQtQtQtQtQtQtQtQtQtQt",
"QtQtQtQtQtQtQtQtQtQtQtQtQtQtQtQtQtQtQtQtQtQtQtQtQtQtQtQtQtQtQtQtQtQtQtQtQtQtQtQtQtQtQtQtQtQtQtQtQtQtQtQtQtQtQtQtQtQtQtQtQtQtQtQt"};
