/* XPM */
static char *dummy[]={
"64 64 110 2",
"Qt c None",
".K c #000000",
".M c #000000",
".N c #000000",
"#y c #000000",
".O c #000000",
"#n c #000000",
".P c #000000",
"#O c #000000",
".X c #000000",
".Q c #000000",
"#P c #000000",
"#Q c #000000",
"#R c #000000",
".R c #000000",
"#d c #000000",
".5 c #000000",
"#A c #000000",
".Y c #000000",
".S c #000000",
"#o c #000000",
"#v c #000000",
".T c #000000",
".Z c #000000",
".U c #000000",
".6 c #000000",
"#c c #000000",
".V c #000000",
".0 c #000000",
".W c #000000",
"#e c #000000",
"#M c #000000",
"#N c #000000",
".1 c #000000",
"#H c #000000",
".7 c #000000",
"#B c #000000",
".2 c #000000",
"#I c #000000",
"#p c #000000",
"#x c #000000",
".3 c #000000",
".8 c #000000",
"#f c #000000",
".4 c #000000",
"#J c #000000",
".9 c #000000",
"#C c #000000",
"#K c #000000",
"#L c #000000",
"#g c #000000",
"#. c #000000",
"#q c #000000",
"## c #000000",
"#h c #000000",
"#a c #000000",
"#b c #000000",
"#D c #000000",
"#r c #000000",
"#i c #000000",
"#E c #000000",
"#F c #000000",
"#G c #000000",
"#j c #000000",
"#k c #000000",
"#l c #000000",
"#m c #000000",
"#s c #000000",
"#z c #000000",
"#t c #000000",
"#u c #000000",
"#w c #000000",
".L c #000000",
".p c #000003",
".F c #00070c",
".v c #07050d",
".s c #141d32",
".j c #1baba8",
".f c #1c0000",
".D c #1e232c",
".g c #25424b",
".J c #280500",
".l c #2b2c38",
".y c #303a55",
".I c #3f4449",
".z c #4b5e7f",
".m c #4f211e",
".t c #4f5463",
".b c #52300c",
".r c #5b0a00",
".C c #684700",
".G c #6c7273",
".E c #708ea7",
".q c #757c87",
".u c #841914",
".o c #8b4435",
".a c #946230",
".H c #99a09e",
".A c #9e7b10",
".x c #b1b5be",
".h c #b5bfce",
".n c #c26552",
".# c #d1a049",
".B c #dfba18",
".c c #f0e883",
".k c #f2ffff",
".w c #f4fffe",
".e c #fd9370",
".i c #ffe5ba",
".d c #fffffa",
"QtQtQtQtQtQtQtQtQtQtQtQtQtQtQtQtQtQtQtQtQtQtQtQtQtQtQtQtQtQtQtQtQtQtQtQtQtQtQtQtQtQtQtQtQtQtQtQtQtQtQtQtQtQtQtQtQtQtQtQtQtQtQtQt",
"QtQtQtQtQtQtQtQtQtQtQtQtQtQtQtQtQtQtQtQtQtQtQtQtQtQtQtQtQtQtQtQtQtQtQtQtQtQtQtQtQtQtQtQtQtQtQtQtQtQtQtQtQtQtQtQtQtQtQtQtQtQtQtQt",
"QtQtQtQtQtQtQtQtQtQtQtQtQtQtQtQtQtQtQtQtQtQtQtQtQtQtQtQtQt.#.aQtQtQtQtQtQtQtQtQtQtQtQtQtQtQtQtQtQtQtQtQtQtQtQtQtQtQtQtQtQtQtQtQt",
"QtQtQtQtQtQtQtQtQtQtQtQtQtQtQtQtQtQtQtQtQtQtQtQtQtQtQtQt.b.#.a.a.a.aQtQtQtQtQtQtQtQtQtQtQtQtQtQtQtQtQtQtQtQtQtQtQtQtQtQtQtQtQtQt",
"QtQtQtQtQtQtQtQtQtQtQtQtQtQtQtQtQtQtQtQtQtQtQtQtQtQt.b.a.b.b.#.a.a.a.#.aQtQtQtQtQtQtQtQtQtQtQtQtQtQtQtQtQtQtQtQtQtQtQtQtQtQtQtQt",
"QtQtQtQtQtQtQtQtQtQtQtQtQtQtQtQtQtQtQtQtQtQtQtQtQt.b.b.a.a.#.a.a.#.#.#.a.aQtQtQtQtQtQtQtQtQtQtQtQtQtQtQtQtQtQtQtQtQtQtQtQtQtQtQt",
"QtQtQtQtQtQtQtQtQtQtQtQtQtQtQtQtQtQtQtQtQtQtQtQtQt.b.a.#.c.#.#.#.c.#.c.#.a.aQtQtQtQtQtQtQtQtQtQtQtQtQtQtQtQtQtQtQtQtQtQtQtQtQtQt",
"QtQtQtQtQtQtQtQtQtQtQtQtQtQtQtQtQtQtQtQtQtQtQtQt.a.#.d.c.c.#.c.#.c.c.#.c.c.aQtQtQtQtQtQtQtQtQtQtQtQtQtQtQtQtQtQtQtQtQtQtQtQtQtQt",
"QtQtQtQtQtQtQtQtQtQtQtQtQtQtQtQtQtQtQtQtQtQtQtQt.a.d.c.#.c.#.c.c.#.c.#.#.c.#.bQtQtQtQtQtQtQtQtQtQtQtQtQtQtQtQtQtQtQtQtQtQtQtQtQt",
"QtQtQtQtQtQtQtQtQtQtQtQtQtQtQtQtQtQtQtQtQtQtQt.#.c.#.#.d.c.a.#.d.c.a.#.a.a.#.bQtQtQtQtQtQtQtQtQtQtQtQtQtQtQtQtQtQtQtQtQtQtQtQtQt",
"QtQtQtQtQtQtQtQtQtQtQtQtQtQtQtQtQtQtQtQtQtQtQt.#.#.a.d.c.a.b.a.c.d.a.#.#.b.a.#.aQtQtQtQtQtQtQtQtQtQtQtQtQtQtQtQtQtQtQtQtQtQtQtQt",
"QtQtQtQtQtQtQtQtQtQtQtQtQtQtQtQtQtQtQtQtQtQtQtQt.b.b.d.#.b.e.a.#.c.#.a.#.a.b.b.aQtQtQtQtQtQtQtQtQtQtQtQtQtQtQtQtQtQtQtQtQtQtQtQt",
"QtQtQtQtQtQtQtQtQtQtQtQtQtQtQtQtQtQtQtQtQtQtQtQtQt.b.c.a.e.f.f.b.#.#.b.a.b.a.a.aQtQtQtQtQtQtQtQtQtQtQtQtQtQtQtQtQtQtQtQtQtQtQtQt",
"QtQtQtQtQtQtQtQtQtQtQtQtQtQtQtQtQtQtQtQtQtQtQtQtQt.b.#.b.f.g.h.b.#.a.e.a.b.b.b.aQtQtQtQtQtQtQtQtQtQtQtQtQtQtQtQtQtQtQtQtQtQtQtQt",
"QtQtQtQtQtQtQtQtQtQtQtQtQtQtQtQtQtQtQtQtQtQtQtQtQtQt.b.e.i.j.k.e.a.b.e.a.b.bQtQtQtQtQtQtQtQtQtQtQtQtQtQtQtQtQtQtQtQtQtQtQtQtQtQt",
"QtQtQtQtQtQtQtQtQtQtQtQtQtQtQtQtQtQtQtQtQtQtQtQtQt.l.m.i.i.i.n.i.b.o.o.b.b.pQtQtQtQtQtQtQtQtQtQtQtQtQtQtQtQtQtQtQtQtQtQtQtQtQtQt",
"QtQtQtQtQtQtQtQtQtQtQtQtQtQtQtQtQtQtQtQtQtQtQtQtQt.l.m.n.i.i.i.o.n.o.b.b.p.pQtQtQtQtQtQtQtQtQtQtQtQtQtQtQtQtQtQtQtQtQtQtQtQtQtQt",
"QtQtQtQtQtQtQtQtQtQtQtQtQtQtQtQtQtQtQtQtQtQtQtQtQt.q.r.m.n.e.e.n.o.b.p.p.s.pQtQtQtQtQtQtQtQtQtQtQtQtQtQtQtQtQtQtQtQtQtQtQtQtQtQt",
"QtQtQtQtQtQtQtQtQtQtQtQtQtQtQtQtQtQtQtQtQtQtQtQtQt.t.u.l.m.o.o.m.p.p.q.t.sQtQtQtQtQtQtQtQtQtQtQtQtQtQtQtQtQtQtQtQtQtQtQtQtQtQtQt",
"QtQtQtQtQtQtQtQtQtQtQtQtQtQtQtQtQtQtQtQtQtQtQtQtQt.v.t.q.p.p.v.q.w.x.t.s.pQtQtQtQtQtQtQtQtQtQtQtQtQtQtQtQtQtQtQtQtQtQtQtQtQtQtQt",
"QtQtQtQtQtQtQtQtQtQtQtQtQtQtQtQtQtQtQtQtQtQtQtQtQt.v.t.x.l.t.q.w.s.s.p.p.pQtQtQtQtQtQtQtQtQtQtQtQtQtQtQtQtQtQtQtQtQtQtQtQtQtQtQt",
"QtQtQtQtQtQtQtQtQtQtQtQtQtQtQtQtQtQtQtQtQtQtQtQtQt.t.v.x.q.l.w.s.s.y.y.y.sQtQtQtQtQtQtQtQtQtQtQtQtQtQtQtQtQtQtQtQtQtQtQtQtQtQtQt",
"QtQtQtQtQtQtQtQtQtQtQtQtQtQtQtQtQtQtQtQtQtQtQtQtQt.q.v.l.t.l.x.s.z.A.B.A.yQtQtQtQtQtQtQtQtQtQtQtQtQtQtQtQtQtQtQtQtQtQtQtQtQtQtQt",
"QtQtQtQtQtQtQtQtQtQtQtQtQtQtQtQtQtQtQtQtQtQtQtQtQt.q.l.l.v.x.q.s.z.B.B.B.y.sQtQtQtQtQtQtQtQtQtQtQtQtQtQtQtQtQtQtQtQtQtQtQtQtQtQt",
"QtQtQtQtQtQtQtQtQtQtQtQtQtQtQtQtQtQtQtQtQtQtQtQtQt.q.C.t.v.w.p.s.y.A.B.B.y.sQtQtQtQtQtQtQtQtQtQtQtQtQtQtQtQtQtQtQtQtQtQtQtQtQtQt",
"QtQtQtQtQtQtQtQtQtQtQtQtQtQtQtQtQtQtQtQtQtQtQtQtQt.q.l.A.v.w.p.p.y.z.z.z.y.sQtQtQtQtQtQtQtQtQtQtQtQtQtQtQtQtQtQtQtQtQtQtQtQtQtQt",
"QtQtQtQtQtQtQtQtQtQtQtQtQtQtQtQtQtQtQtQtQtQtQtQtQt.t.C.t.v.x.p.s.D.y.z.y.y.sQtQtQtQtQtQtQtQtQtQtQtQtQtQtQtQtQtQtQtQtQtQtQtQtQtQt",
"QtQtQtQtQtQtQtQtQtQtQtQtQtQtQtQtQtQtQtQtQtQtQtQtQt.t.v.A.l.x.p.v.s.y.y.y.y.pQtQtQtQtQtQtQtQtQtQtQtQtQtQtQtQtQtQtQtQtQtQtQtQtQtQt",
"QtQtQtQtQtQtQtQtQtQtQtQtQtQtQtQtQtQtQtQtQtQtQtQtQtQt.v.v.l.q.p.p.s.y.y.y.s.pQtQtQtQtQtQtQtQtQtQtQtQtQtQtQtQtQtQtQtQtQtQtQtQtQtQt",
"QtQtQtQtQtQtQtQtQtQtQtQtQtQtQtQtQtQtQtQtQtQtQtQtQtQt.B.A.v.t.p.p.y.z.y.y.sQtQtQtQtQtQtQtQtQtQtQtQtQtQtQtQtQtQtQtQtQtQtQtQtQtQtQt",
"QtQtQtQtQtQtQtQtQtQtQtQtQtQtQtQtQtQtQtQtQtQtQtQtQt.C.A.C.v.v.t.s.z.E.y.y.pQtQtQtQtQtQtQtQtQtQtQtQtQtQtQtQtQtQtQtQtQtQtQtQtQtQtQt",
"QtQtQtQtQtQtQtQtQtQtQtQtQtQtQtQtQtQtQtQtQtQtQtQtQt.C.C.l.l.v.q.y.E.E.z.y.pQtQtQtQtQtQtQtQtQtQtQtQtQtQtQtQtQtQtQtQtQtQtQtQtQtQtQt",
"QtQtQtQtQtQtQtQtQtQtQtQtQtQtQtQtQtQtQtQtQtQtQtQtQt.v.B.A.C.v.x.w.z.z.z.s.p.pQtQtQtQtQtQtQtQtQtQtQtQtQtQtQtQtQtQtQtQtQtQtQtQtQtQt",
"QtQtQtQtQtQtQtQtQtQtQtQtQtQtQtQtQtQtQtQtQtQtQtQtQt.C.t.t.t.l.s.y.w.w.x.q.p.pQtQtQtQtQtQtQtQtQtQtQtQtQtQtQtQtQtQtQtQtQtQtQtQtQtQt",
"QtQtQtQtQtQtQtQtQtQtQtQtQtQtQtQtQtQtQtQtQtQtQtQtQt.v.C.A.C.l.q.x.y.y.s.p.p.pQtQtQtQtQtQtQtQtQtQtQtQtQtQtQtQtQtQtQtQtQtQtQtQtQtQt",
"QtQtQtQtQtQtQtQtQtQtQtQtQtQtQtQtQtQtQtQtQtQtQtQtQt.l.x.t.t.v.F.F.x.q.t.t.s.pQtQtQtQtQtQtQtQtQtQtQtQtQtQtQtQtQtQtQtQtQtQtQtQtQtQt",
"QtQtQtQtQtQtQtQtQtQtQtQtQtQtQtQtQtQtQtQtQtQtQtQtQt.t.l.x.q.F.G.F.D.F.F.F.s.s.pQtQtQtQtQtQtQtQtQtQtQtQtQtQtQtQtQtQtQtQtQtQtQtQtQt",
"QtQtQtQtQtQtQtQtQtQtQtQtQtQtQtQtQtQtQtQtQtQtQtQtQt.p.v.l.l.F.H.D.I.I.D.F.s.s.pQtQtQtQtQtQtQtQtQtQtQtQtQtQtQtQtQtQtQtQtQtQtQtQtQt",
"QtQtQtQtQtQtQtQtQtQtQtQtQtQtQtQtQtQtQtQtQtQtQtQtQt.p.p.p.v.v.F.I.G.G.F.s.s.y.D.pQtQtQtQtQtQtQtQtQtQtQtQtQtQtQtQtQtQtQtQtQtQtQtQt",
"QtQtQtQtQtQtQtQtQtQtQtQtQtQtQtQtQtQtQtQtQtQtQtQt.t.p.v.p.s.s.G.F.F.F.y.s.s.y.y.pQtQtQtQtQtQtQtQtQtQtQtQtQtQtQtQtQtQtQtQtQtQtQtQt",
"QtQtQtQtQtQtQtQtQtQtQtQtQtQtQtQtQtQtQtQtQtQtQtQt.t.p.s.p.y.y.x.p.y.z.y.y.s.y.y.D.pQtQtQtQtQtQtQtQtQtQtQtQtQtQtQtQtQtQtQtQtQtQtQt",
"QtQtQtQtQtQtQtQtQtQtQtQtQtQtQtQtQtQtQtQtQtQtQtQt.q.p.s.p.s.z.x.s.z.z.z.y.y.y.y.y.p.tQtQtQtQtQtQtQtQtQtQtQtQtQtQtQtQtQtQtQtQtQtQt",
"QtQtQtQtQtQtQtQtQtQtQtQtQtQtQtQtQtQtQtQtQtQtQtQt.q.D.p.v.s.z.w.y.z.E.z.z.y.y.z.y.s.t.tQtQtQtQtQtQtQtQtQtQtQtQtQtQtQtQtQtQtQtQtQt",
"QtQtQtQtQtQtQtQtQtQtQtQtQtQtQtQtQtQtQtQtQtQtQt.t.q.D.s.p.p.y.w.z.z.E.z.z.y.y.z.z.s.p.tQtQtQtQtQtQtQtQtQtQtQtQtQtQtQtQtQtQtQtQtQt",
"QtQtQtQtQtQtQtQtQtQtQtQtQtQtQtQtQtQtQtQtQtQtQt.t.t.l.D.D.p.p.w.z.E.E.z.z.z.y.y.z.y.s.t.vQtQtQtQtQtQtQtQtQtQtQtQtQtQtQtQtQtQtQtQt",
"QtQtQtQtQtQtQtQtQtQtQtQtQtQtQtQtQtQtQtQtQtQtQt.q.J.D.D.D.F.I.w.y.E.E.E.z.z.y.y.l.y.s.t.vQtQtQtQtQtQtQtQtQtQtQtQtQtQtQtQtQtQtQtQt",
"QtQtQtQtQtQtQtQtQtQtQtQtQtQtQtQtQtQtQtQtQtQtQt.x.J.J.D.F.F.I.x.y.E.E.E.z.z.z.y.s.y.t.l.vQtQtQtQtQtQtQtQtQtQtQtQtQtQtQtQtQtQtQtQt",
"QtQtQtQtQtQtQtQtQtQtQtQtQtQtQtQtQtQtQtQtQtQtQt.x.J.f.v.F.F.I.H.x.E.E.E.E.z.z.y.s.s.q.l.vQtQtQtQtQtQtQtQtQtQtQtQtQtQtQtQtQtQtQtQt",
"QtQtQtQtQtQtQtQtQtQtQtQtQtQtQtQtQtQtQtQt.K.K.K.t.J.J.L.F.F.I.G.w.z.E.E.E.E.z.y.q.q.t.l.vQtQtQtQtQtQtQtQtQtQtQtQtQtQtQtQtQtQtQtQt",
"QtQtQtQtQtQtQtQtQtQtQtQtQtQtQtQt.K.K.K.M.N.O.P.v.v.v.s.F.F.F.I.w.x.x.x.x.x.x.q.l.t.t.l.vQtQtQtQtQtQtQtQtQtQtQtQtQtQtQtQtQtQtQtQt",
"QtQtQtQtQtQtQtQtQtQtQtQtQtQt.K.K.N.P.Q.R.S.T.U.V.W.F.D.D.F.F.p.w.q.q.q.q.t.t.l.l.l.t.v.N.K.KQtQtQtQtQtQtQtQtQtQtQtQtQtQtQtQtQtQt",
"QtQtQtQtQtQtQtQtQtQtQtQtQt.K.N.X.Y.Z.0.1.2.3.4.F.F.v.F.F.F.F.F.w.q.q.q.q.t.t.l.l.l.v.Z.Y.X.N.KQtQtQtQtQtQtQtQtQtQtQtQtQtQtQtQtQt",
"QtQtQtQtQtQtQtQtQtQtQtQt.K.O.5.6.7.8.9#.###a#b.v.F.D.D.F.F.F.F.x.t.t.t.l.l.l.v.v#..9.8.7#c.5.O.KQtQtQtQtQtQtQtQtQtQtQtQtQtQtQtQt",
"QtQtQtQtQtQtQtQtQtQtQt.K.N#d#e#f#g#h#i#j#k#l#m.D.D.D.F.F.F.F.F.v.v.v.v.v.v#m#l#k#j#i#h#g#f#e#d.N.KQtQtQtQtQtQtQtQtQtQtQtQtQtQtQt",
"QtQtQtQtQtQtQtQtQtQtQt.K#n#o#p#q#r#k#s#t#u#u#u.p.p.F.p.F.F.F.G.H.G.I.D.v#u#u#u#u#t#s#k#r#q#p#o#n.KQtQtQtQtQtQtQtQtQtQtQtQtQtQtQt",
"QtQtQtQtQtQtQtQtQtQtQt.K#n#v#p#q#i#k#s#t#u#u#u#u#u#w#w#w#w.D.D.D.D.I.D.v#u#u#u#u#t#s#k#i#q#x#v#n.KQtQtQtQtQtQtQtQtQtQtQtQtQtQtQt",
"QtQtQtQtQtQtQtQtQtQtQt.K#y#d#e#f#g#h#i#j#k#l#m#s#z#z#t.I.H.D.I.I.I.l.D.v#s#m#l#k#j#i#h#g#f#e#d#y.KQtQtQtQtQtQtQtQtQtQtQtQtQtQtQt",
"QtQtQtQtQtQtQtQtQtQtQtQt.K.O#A#c#B#f#C#.###a#b#D#E#F#G.I.H.G.G.I.D.D.D.v#D#b#a###.#C#f#B#c#A.O.KQtQtQtQtQtQtQtQtQtQtQtQtQtQtQtQt",
"QtQtQtQtQtQtQtQtQtQtQtQtQt.K#y.Q.Y.Z.0#H#I.3.4#J#K#L#g.D.I.I.I.I.p.p.p.p#J.4.3#I#H.0.Z.Y.Q#y.KQtQtQtQtQtQtQtQtQtQtQtQtQtQtQtQtQt",
"QtQtQtQtQtQtQtQtQtQtQtQtQtQt.K.K.N.P.Q.R.S.T.U.V.W#M#N.p.p.p.p.p.p#N#M.W.V.U.T.S#d.Q.P.N.K.KQtQtQtQtQtQtQtQtQtQtQtQtQtQtQtQtQtQt",
"QtQtQtQtQtQtQtQtQtQtQtQtQtQtQtQt.K.K.K.M.N.O.P#O.Q#P#Q#Q#Q#R#R#Q#Q#Q#P.Q#O.P.O.N.M.K.K.KQtQtQtQtQtQtQtQtQtQtQtQtQtQtQtQtQtQtQtQt",
"QtQtQtQtQtQtQtQtQtQtQtQtQtQtQtQtQtQtQtQt.K.K.K.K.K.K.K.K.K.K.K.K.K.K.K.K.K.K.K.KQtQtQtQtQtQtQtQtQtQtQtQtQtQtQtQtQtQtQtQtQtQtQtQt",
"QtQtQtQtQtQtQtQtQtQtQtQtQtQtQtQtQtQtQtQtQtQtQtQtQtQtQtQtQtQtQtQtQtQtQtQtQtQtQtQtQtQtQtQtQtQtQtQtQtQtQtQtQtQtQtQtQtQtQtQtQtQtQtQt",
"QtQtQtQtQtQtQtQtQtQtQtQtQtQtQtQtQtQtQtQtQtQtQtQtQtQtQtQtQtQtQtQtQtQtQtQtQtQtQtQtQtQtQtQtQtQtQtQtQtQtQtQtQtQtQtQtQtQtQtQtQtQtQtQt"};
