/* XPM */
static char *dummy[]={
"64 64 146 2",
"Qt c None",
"#c c #000000",
"#i c #000000",
"#h c #000000",
"aa c #000000",
"#g c #000000",
"#3 c #000000",
"#f c #000000",
"an c #000000",
"#q c #000000",
"#d c #000000",
"#e c #000000",
"ao c #000000",
"ap c #000000",
"#j c #000000",
"#Q c #000000",
"#D c #000000",
"ac c #000000",
"#r c #000000",
"#k c #000000",
"#4 c #000000",
"a. c #000000",
"#p c #000000",
"#s c #000000",
"#o c #000000",
"#E c #000000",
"#P c #000000",
"#n c #000000",
"#t c #000000",
"#l c #000000",
"#R c #000000",
"#m c #000000",
"ak c #000000",
"al c #000000",
"am c #000000",
"#u c #000000",
"#C c #000000",
"#F c #000000",
"ad c #000000",
"#v c #000000",
"#B c #000000",
"#5 c #000000",
"a# c #000000",
"#w c #000000",
"#G c #000000",
"#S c #000000",
"#x c #000000",
"#y c #000000",
"#H c #000000",
"ae c #000000",
"#A c #000000",
"#z c #000000",
"#T c #000000",
"#I c #000000",
"ai c #000000",
"#6 c #000000",
"aj c #000000",
"#J c #000000",
"#U c #000000",
"#K c #000000",
"#L c #000000",
"#M c #000000",
"#7 c #000000",
"#V c #000000",
"#O c #000000",
"#N c #000000",
"af c #000000",
"#W c #000000",
"ag c #000000",
"ah c #000000",
"#X c #000000",
"#Y c #000000",
"#Z c #000000",
"#2 c #000000",
"#1 c #000000",
"#0 c #000000",
"ab c #000000",
"#8 c #000000",
"#9 c #000000",
".L c #000008",
".j c #00b39e",
"## c #020101",
".u c #060808",
".H c #061e11",
".l c #06eba8",
".Y c #080014",
".s c #080808",
".f c #0c1211",
".z c #0f0e11",
".C c #131314",
".q c #137177",
".y c #140500",
".b c #1a2520",
".N c #1e194b",
".e c #212828",
".D c #250001",
".M c #260c0c",
".5 c #26252c",
".6 c #282829",
".# c #2b3932",
".c c #313539",
".0 c #35353a",
".Q c #382966",
".d c #3a4a42",
".4 c #3d3d3d",
".k c #444448",
".2 c #463626",
".K c #47474e",
".E c #490008",
".3 c #4a2121",
".8 c #51545b",
".7 c #525351",
".t c #535353",
".V c #554783",
".Z c #562f1d",
".a c #585c5e",
".9 c #655324",
".X c #665e9a",
".v c #6d2029",
".G c #6e0023",
".S c #6f6f76",
".U c #72472d",
".B c #7291ea",
".x c #797a7c",
".g c #798487",
".T c #822d1e",
".i c #838384",
"#. c #8b682a",
".W c #946c45",
"#b c #9e7e55",
".p c #9e99a6",
".1 c #a3a3aa",
".R c #ad473d",
".h c #adb2af",
".J c #b00a35",
".w c #b14432",
"#a c #b1c4ce",
".o c #ccd3d6",
".n c #e49e87",
".A c #e5f4ff",
".m c #e67160",
".F c #e87252",
".r c #f7e0d0",
".O c #ff2f58",
".I c #ffbf75",
".P c #ffef7c",
"QtQtQtQtQtQtQtQtQtQtQtQtQtQtQtQtQtQtQtQtQtQtQtQtQtQtQtQtQtQtQtQtQtQtQtQtQtQtQtQtQtQtQtQtQtQtQtQtQtQtQtQtQtQtQtQtQtQtQtQtQtQtQtQt",
"QtQtQtQtQtQtQtQtQtQtQtQtQtQtQtQtQtQtQtQtQtQtQtQtQtQtQtQtQtQtQtQtQtQtQtQtQtQtQtQtQtQtQtQtQtQtQtQtQtQtQtQtQtQtQtQtQtQtQtQtQtQtQtQt",
"QtQtQtQtQtQtQtQtQtQtQtQtQtQtQtQtQtQtQtQtQtQtQtQtQtQtQtQtQtQt.#.a.bQtQtQtQtQtQtQtQtQtQtQtQtQtQtQtQtQtQtQtQtQtQtQtQtQtQtQtQtQtQtQt",
"QtQtQtQtQtQtQtQtQtQtQtQtQtQtQtQtQtQtQtQtQtQtQtQtQtQtQtQtQt.c.d.e.#.bQtQtQtQtQtQtQtQtQtQtQtQtQtQtQtQtQtQtQtQtQtQtQtQtQtQtQtQtQtQt",
"QtQtQtQtQtQtQtQtQtQtQtQtQtQtQtQtQtQtQtQtQtQtQtQtQtQtQtQt.f.b.f.b.f.b.fQtQtQtQtQtQtQtQtQtQtQtQtQtQtQtQtQtQtQtQtQtQtQtQtQtQtQtQtQt",
"QtQtQtQtQtQtQtQtQtQtQtQtQtQtQtQtQtQtQtQtQtQtQtQtQtQt.b.f.b.#.b.a.b.#.b.f.bQtQtQtQtQtQtQtQtQtQtQtQtQtQtQtQtQtQtQtQtQtQtQtQtQtQtQt",
"QtQtQtQtQtQtQtQtQtQtQtQtQtQtQtQtQtQtQtQtQtQtQtQtQtQt.f.b.a.b.#.a.#.b.a.b.fQtQtQtQtQtQtQtQtQtQtQtQtQtQtQtQtQtQtQtQtQtQtQtQtQtQtQt",
"QtQtQtQtQtQtQtQtQtQtQtQtQtQtQtQtQtQtQtQtQtQtQtQtQtQt.b.f.b.g.#.g.#.g.b.f.bQtQtQtQtQtQtQtQtQtQtQtQtQtQtQtQtQtQtQtQtQtQtQtQtQtQtQt",
"QtQtQtQtQtQtQtQtQtQtQtQtQtQtQtQtQtQtQt.h.i.jQtQtQt.f.a.g.b.a.b.a.b.a.b.g.a.fQtQtQtQt.k.k.kQtQtQtQtQtQtQtQtQtQtQtQtQtQtQtQtQtQtQt",
"QtQtQtQtQtQtQtQtQtQtQtQtQtQtQtQtQtQtQt.i.l.iQtQtQt.a.b.#.a.m.b.n.n.m.a.#.b.aQtQtQt.k.o.p.kQtQtQtQtQtQtQtQtQtQtQtQtQtQtQtQtQtQtQt",
"QtQtQtQtQtQtQtQtQtQtQtQtQtQtQtQtQtQtQt.q.i.h.jQt.b.f.b.b.#.n.b.r.r.n.#.b.b.fQtQt.k.o.s.o.kQtQtQtQtQtQtQtQtQtQtQtQtQtQtQtQtQtQtQt",
"QtQtQtQtQtQtQtQtQtQtQtQtQtQtQtQtQtQtQtQt.t.j.lQtQt.b.f.#.n.r.n.b.r.r.n.#.f.b.uQt.k.p.o.kQtQtQtQtQtQtQtQtQtQtQtQtQtQtQtQtQtQtQtQt",
"QtQtQtQtQtQtQtQtQtQtQtQtQtQtQtQtQtQtQtQtQt.q.h.iQt.u.f.#.v.w.r.r.r.w.v.#.f.s.u.k.x.p.kQtQtQtQtQtQtQtQtQtQtQtQtQtQtQtQtQtQtQtQtQt",
"QtQtQtQtQtQtQtQtQtQtQtQtQtQtQtQtQtQtQtQtQtQt.t.h.i.u.f.a.h.y.w.n.w.y.h.a.f.z.s.u.x.sQtQtQtQtQtQtQtQtQtQtQtQtQtQtQtQtQtQtQtQtQtQt",
"QtQtQtQtQtQtQtQtQtQtQtQtQtQtQtQtQtQtQtQtQtQtQt.i.i.i.f.g.A.B.n.n.n.B.A.g.f.C.s.D.sQtQtQtQtQtQtQtQtQtQtQtQtQtQtQtQtQtQtQtQtQtQtQt",
"QtQtQtQtQtQtQtQtQtQtQtQtQtQtQtQtQtQtQtQtQtQtQt.t.i.i.f.a.n.r.r.r.r.r.n.a.f.b.k.E.DQtQtQtQtQtQtQtQtQtQtQtQtQtQtQtQtQtQtQtQtQtQtQt",
"QtQtQtQtQtQtQtQtQtQtQtQtQtQtQtQtQtQtQtQtQtQtQtQt.i.i.f.#.w.n.r.r.r.n.w.#.f.k.x.F.G.EQtQtQtQtQtQtQtQtQtQtQtQtQtQtQtQtQtQtQtQtQtQt",
"QtQtQtQtQtQtQtQtQtQtQtQtQtQtQtQtQtQtQtQtQtQtQtQt.i.H.f.#.v.w.n.n.n.w.v.#.f.I.G.J.I.GQtQtQtQtQtQtQtQtQtQtQtQtQtQtQtQtQtQtQtQtQtQt",
"QtQtQtQtQtQtQtQtQtQtQtQtQtQtQtQtQtQtQtQtQtQtQtQt.H.K.f.b.L.M.v.v.v.M.L.b.f.N.I.O.J.F.DQtQtQtQtQtQtQtQtQtQtQtQtQtQtQtQtQtQtQtQtQt",
"QtQtQtQtQtQtQtQtQtQtQtQtQtQtQtQtQtQtQtQtQtQtQt.H.K.K.K.b.e.L.v.w.v.L.e.b.K.N.P.G.O.J.DQtQtQtQtQtQtQtQtQtQtQtQtQtQtQtQtQtQtQtQtQt",
"QtQtQtQtQtQtQtQtQtQtQtQtQtQtQtQtQtQtQtQtQtQtQt.Q.N.F.R.f.b.H.v.w.v.H.b.f.K.N.R.P.I.J.EQtQtQtQtQtQtQtQtQtQtQtQtQtQtQtQtQtQtQtQtQt",
"QtQtQtQtQtQtQtQtQtQtQtQtQtQtQtQtQtQtQtQtQtQt.N.Q.Q.N.N.f.K.b.H.v.H.H.b.f.R.N.F.D.E.I.FQtQtQtQtQtQtQtQtQtQtQtQtQtQtQtQtQtQtQtQtQt",
"QtQtQtQtQtQtQtQtQtQtQtQtQtQtQtQtQtQtQtQtQtQt.Q.Q.Q.N.N.N.k.S.K.H.K.S.S.Q.N.Q.N.I.G.J.EQtQtQtQtQtQtQtQtQtQtQtQtQtQtQtQtQtQtQtQtQt",
"QtQtQtQtQtQtQtQtQtQtQtQtQtQtQtQtQtQtQtQtQtQt.T.F.R.N.U.Q.b.S.K.L.S.S.f.V.N.F.I.N.F.G.GQtQtQtQtQtQtQtQtQtQtQtQtQtQtQtQtQtQtQtQtQt",
"QtQtQtQtQtQtQtQtQtQtQtQtQtQtQtQtQtQtQtQtQt.N.Q.V.Q.N.N.W.f.S.K.L.k.S.V.W.N.R.U.V.N.R.TQtQtQtQtQtQtQtQtQtQtQtQtQtQtQtQtQtQtQtQtQt",
"QtQtQtQtQtQtQtQtQtQtQtQtQtQtQtQtQtQtQtQtQt.Q.V.Q.N.N.N.Q.Q.S.U.U.k.K.V.Q.N.N.U.X.V.N.NQtQtQtQtQtQtQtQtQtQtQtQtQtQtQtQtQtQtQtQtQt",
"QtQtQtQtQtQtQtQtQtQtQtQtQtQtQtQtQtQtQtQtQt.N.V.Q.N.Y.N.Q.V.K.H.H.K.V.V.N.Y.N.Q.X.X.QQtQtQtQtQtQtQtQtQtQtQtQtQtQtQtQtQtQtQtQtQtQt",
"QtQtQtQtQtQtQtQtQtQtQtQtQtQtQtQtQtQtQtQtQt.N.V.Q.N.Y.N.N.Q.K.c.H.c.Q.Q.N.z.f.c.V.X.V.NQtQtQtQtQtQtQtQtQtQtQtQtQtQtQtQtQtQtQtQtQt",
"QtQtQtQtQtQtQtQtQtQtQtQtQtQtQtQtQtQtQtQtQt.N.Q.Q.N.Y.Y.N.N.K.K.h.h.K.N.Y.Y.f.Q.V.X.V.NQtQtQtQtQtQtQtQtQtQtQtQtQtQtQtQtQtQtQtQtQt",
"QtQtQtQtQtQtQtQtQtQtQtQtQtQtQtQtQtQtQtQtQt.K.S.S.K.Y.Z.U.U.U.S.t.t.0.H.Z.Y.f.Q.V.X.X.NQtQtQtQtQtQtQtQtQtQtQtQtQtQtQtQtQtQtQtQtQt",
"QtQtQtQtQtQtQtQtQtQtQtQtQtQtQtQtQtQtQtQtQt.c.Q.Q.N.Y.Y.N.U.c.U.W.U.K.N.Y.Y.f.Z.K.1.1.KQtQtQtQtQtQtQtQtQtQtQtQtQtQtQtQtQtQtQtQtQt",
"QtQtQtQtQtQtQtQtQtQtQtQtQtQtQtQtQtQtQtQtQt.N.#.C.s.Y.Z.U.2.K.c.L.H.K.3.Y.C.Z.Z.c.Q.Q.cQtQtQtQtQtQtQtQtQtQtQtQtQtQtQtQtQtQtQtQtQt",
"QtQtQtQtQtQtQtQtQtQtQtQtQtQtQtQtQtQtQtQtQt.C.4.5.C.Z.N.H.2.K.#.H.H.K.H.N.Y.Y.Y.6.6.6.QQtQtQtQtQtQtQtQtQtQtQtQtQtQtQtQtQtQtQtQtQt",
"QtQtQtQtQtQtQtQtQtQtQtQtQtQtQtQtQtQtQtQt.t.6.C.C.v.N.N.Q.2.K.c.H.H.K.k.N.N.N.w.n.4.7.6QtQtQtQtQtQtQtQtQtQtQtQtQtQtQtQtQtQtQtQtQt",
"QtQtQtQtQtQtQtQtQtQtQtQtQtQtQtQtQtQtQt.8.x.C.w.v.w.Y.Q.Q.2.K.Z.L.Z.K.S.N.N.Y.r.v.4.a.6QtQtQtQtQtQtQtQtQtQtQtQtQtQtQtQtQtQtQtQtQt",
"QtQtQtQtQtQtQtQtQtQtQtQtQtQtQtQtQtQt.8.x.x.x.v.m.Y.N.Q.2.K.S.U.L.Z.K.S.N.N.Y.n.v.n.w.6QtQtQtQtQtQtQtQtQtQtQtQtQtQtQtQtQtQtQtQtQt",
"QtQtQtQtQtQtQtQtQtQtQtQtQtQtQtQtQt.8.x.p.x.k.s.s.N.Q.Q.2.K.S.W.L.U.Z.S.N.Q.NQt.m.m.wQtQtQtQtQtQtQtQtQtQtQtQtQtQtQtQtQtQtQtQtQtQt",
"QtQtQtQtQtQtQtQtQtQtQtQtQtQtQtQtQt.k.x.p.x.s.s.Y.N.Q.V.9.S.K.K.L.u.H.S.K.Q.N.Y.t.b.f.hQtQtQtQtQtQtQtQtQtQtQtQtQtQtQtQtQtQtQtQtQt",
"QtQtQtQtQtQtQtQtQtQtQtQtQtQtQtQt.k.x.p.p.K.sQt.N.Q.Q.V#..S.K.c.H.L.H.S.S.Q.Q.YQt.t.b.#.hQtQtQtQtQtQtQtQtQtQtQtQtQtQtQtQtQtQtQtQt",
"QtQtQtQtQtQtQtQtQtQtQtQtQtQtQtQt.k.x.p.x.k.s.Y.N.Q.Q.9.S.1.h.h##.L.H.H.S.N.Q.NQtQt.8.f.#.iQtQtQtQtQtQtQtQtQtQtQtQtQtQtQtQtQtQtQt",
"QtQtQtQtQtQtQtQtQtQtQtQtQtQtQtQt.8.p#a.x.s.k.N.Q.Q.V.9.1.1.h.h.i.H.H.H.1.N.Q.N.YQtQt.b#b.#QtQtQtQtQtQtQtQtQtQtQtQtQtQtQtQtQtQtQt",
"QtQtQtQtQtQtQtQtQtQtQtQtQtQtQtQt.8.p#a.k.x.Y.N.Q.Q.V#..1.t.i.i.t##.i.h.1.S.V.Q.YQtQt.t.b#b.iQtQtQtQtQtQtQtQtQtQtQtQtQtQtQtQtQtQt",
"QtQtQtQtQtQtQtQtQtQtQtQtQtQtQt.8.x#a#a.p.x.N.N.Q.V.V#..1.i.i.i.t##.i.i.1.1.V.Q.N.YQtQt.t.b.#QtQtQtQtQtQtQtQtQtQtQtQtQtQtQtQtQtQt",
"QtQtQtQtQtQtQtQtQtQtQtQtQtQtQt.8.x#a#a.p.Y.N.Q.Q.V.9.S.1.t.t.t.e##.t.t.t.1.S.V.N.YQtQtQt.t.b.iQtQtQtQtQtQtQtQtQtQtQtQtQtQtQtQtQt",
"QtQtQtQtQtQtQtQtQtQtQtQtQtQtQt.8.x#a#a.x.N.N.Q.Q.V#..1.1####.s####.t.e.e.1.S.V.Q.NQtQtQtQt.t.tQtQtQtQtQtQtQtQtQtQtQtQtQtQtQtQtQt",
"QtQtQtQtQtQtQtQtQtQtQtQtQtQtQt.k.x.x.x.Y.N.Q.Q.V.V#..1.C.C.C.C.z.s######.1.1.V.Q.N.YQtQtQtQt.t.iQtQtQtQtQtQtQtQtQtQtQtQtQtQtQtQt",
"QtQtQtQtQtQtQtQtQtQtQtQtQtQtQt.k.k.k.k.N.N.Q.Q.V.V#..1.C.8.6.6##.C.6.6##.1.1.V.Q.N.NQtQtQtQtQt.tQtQtQtQtQtQtQtQtQtQtQtQtQtQtQtQt",
"QtQtQtQtQtQtQtQtQtQtQtQtQtQtQtQtQtQtQt.N.N.Q.Q.V.9.S.1.C.8.x.x##.C.8.8##Qt.1.Q.Q.NQtQtQtQtQtQtQtQtQtQtQtQtQtQtQtQtQtQtQtQtQtQtQt",
"QtQtQtQtQtQtQtQtQtQtQtQtQtQtQtQtQtQtQt.N.Q.Q.V.V#..1.1.C.6.8.6##.C.6.6.s#c.1.S.N#c#cQtQtQtQtQtQtQtQtQtQtQtQtQtQtQtQtQtQtQtQtQtQt",
"QtQtQtQtQtQtQtQtQtQtQtQtQtQtQtQtQtQt#c#c#c.Q.V.V#..1#d##.6.t.6##.C.z.s.s#e.1.S#f#g#h#i#c#c#cQtQtQtQtQtQtQtQtQtQtQtQtQtQtQtQtQtQt",
"QtQtQtQtQtQtQtQtQtQtQtQtQtQtQtQt#c#c#h#f#d#j#k.V#..1#l.8.x.x.x##.s##.C###m#l#n#o#p#k#j#d#f#h#c#cQtQtQtQtQtQtQtQtQtQtQtQtQtQtQtQt",
"QtQtQtQtQtQtQtQtQtQtQtQtQtQtQt#c#h#q#r#s#t#u#v#w#x#y####.6.8.6##.C.C.8###z#A#y#x#w#B#C#t#s#r#q#h#cQtQtQtQtQtQtQtQtQtQtQtQtQtQtQt",
"QtQtQtQtQtQtQtQtQtQtQtQtQtQt#c#g#D#E#F#G#H#I#J#K#L#M.5.x.h.h.x##.C.8.8###N#O#M#L#K#J#I#H#G#F#P#D#g#cQtQtQtQtQtQtQtQtQtQtQtQtQtQt",
"QtQtQtQtQtQtQtQtQtQtQtQtQt#c#h#Q#R#S#T#U#V#W#X#Y#Z.u##.6.C#############0#1#1#2#Z#Y#X#W#V#U#T#S#R#Q#h#cQtQtQtQtQtQtQtQtQtQtQtQtQt",
"QtQtQtQtQtQtQtQtQtQtQtQtQt#c#3#4#5#6#7#X#2#0#8#8#8##.6.8.x.x.i###9#9#9#9#9#8#8#8#8#8#0#2#X#7#6#5#4#3#cQtQtQtQtQtQtQtQtQtQtQtQtQt",
"QtQtQtQtQtQtQtQtQtQtQtQtQt#c#3a.#5#6#V#X#2#0#8#8#8##.6.8.8.8.8###9#9#9#9#9#8#8#8#8#8#0#2#X#V#6a#a.#3#cQtQtQtQtQtQtQtQtQtQtQtQtQt",
"QtQtQtQtQtQtQtQtQtQtQtQtQt#caa#Q#R#S#T#U#V#W#X#Y#Z###############8abab#0#1#1#2#Z#Y#X#W#V#U#T#S#R#Qaa#cQtQtQtQtQtQtQtQtQtQtQtQtQt",
"QtQtQtQtQtQtQtQtQtQtQtQtQtQt#c#gac#Pad#Sae#I#J#K#L#M#O#Nafagahahahahagaf#N#O#M#L#K#J#Iae#Sad#Pac#g#cQtQtQtQtQtQtQtQtQtQtQtQtQtQt",
"QtQtQtQtQtQtQtQtQtQtQtQtQtQtQt#caa#d#r#s#t#C#B#w#x#y#A#z#Tai#6ajaj#6ai#T#z#A#y#x#w#B#C#t#s#r#daa#cQtQtQtQtQtQtQtQtQtQtQtQtQtQtQt",
"QtQtQtQtQtQtQtQtQtQtQtQtQtQtQtQt#c#c#h#f#d#j#k#p#o#n#l#makalam#u#uamalak#m#l#n#o#p#k#Q#d#f#h#c#cQtQtQtQtQtQtQtQtQtQtQtQtQtQtQtQt",
"QtQtQtQtQtQtQtQtQtQtQtQtQtQtQtQtQtQt#c#c#c#i#h#g#fan#d#eaoaoaoapapaoaoao#e#dan#f#g#h#i#c#c#cQtQtQtQtQtQtQtQtQtQtQtQtQtQtQtQtQtQt",
"QtQtQtQtQtQtQtQtQtQtQtQtQtQtQtQtQtQtQtQtQtQt#c#c#c#c#c#c#c#c#c#c#c#c#c#c#c#c#c#c#c#cQtQtQtQtQtQtQtQtQtQtQtQtQtQtQtQtQtQtQtQtQtQt",
"QtQtQtQtQtQtQtQtQtQtQtQtQtQtQtQtQtQtQtQtQtQtQtQtQtQtQtQtQtQtQtQtQtQtQtQtQtQtQtQtQtQtQtQtQtQtQtQtQtQtQtQtQtQtQtQtQtQtQtQtQtQtQtQt",
"QtQtQtQtQtQtQtQtQtQtQtQtQtQtQtQtQtQtQtQtQtQtQtQtQtQtQtQtQtQtQtQtQtQtQtQtQtQtQtQtQtQtQtQtQtQtQtQtQtQtQtQtQtQtQtQtQtQtQtQtQtQtQtQt"};
