/* XPM */
static char *dummy[]={
"64 128 134 2",
"ad c #000000",
"#D c #000003",
"#k c #00000f",
"#V c #00070c",
"#s c #07050d",
"#I c #141d32",
"#q c #1baba8",
"#M c #1e232c",
"#n c #25424b",
"#x c #280500",
"#u c #2b2c38",
"#B c #303a55",
"#T c #362700",
".2 c #383f4a",
".g c #383f4b",
"#t c #383f4c",
".1 c #38404c",
".e c #393f4b",
"Qt c #3a404b",
".h c #3a404c",
"#2 c #3d4046",
".d c #3d4047",
".f c #3f4148",
"#W c #3f4449",
".i c #404248",
"a. c #424349",
".# c #434245",
"ab c #43434a",
"#6 c #44434a",
".j c #44444b",
"#U c #46413d",
".a c #46413e",
".s c #474242",
"aa c #474548",
".k c #47464d",
"#Z c #494649",
"#d c #4a4138",
".b c #4a423a",
".t c #4a433e",
"ac c #4b4440",
".l c #4b4951",
"#L c #4b5e7f",
".c c #4c423a",
".m c #4d484c",
".u c #4e4541",
"#v c #4f211e",
"#N c #4f443c",
"#y c #4f5463",
"#1 c #50443c",
"#S c #50453d",
"a# c #51453d",
".Q c #514743",
"#c c #52300c",
"#4 c #53463f",
".E c #54473f",
"#Y c #544845",
".n c #544946",
".q c #554840",
".r c #554a47",
".p c #584a43",
".o c #584a44",
"#8 c #584a47",
".D c #584d4d",
".v c #5a4d4b",
"#z c #5b0a00",
"#O c #5b4b44",
"#7 c #5b4c48",
"#Q c #5c4b43",
"#R c #5d4b43",
".5 c #5e4d45",
"#9 c #5e4d48",
"#5 c #5f4f4d",
".3 c #614d45",
".w c #61514f",
".9 c #635049",
".4 c #644f48",
"#3 c #645352",
".x c #655451",
".F c #66514a",
".6 c #67524b",
".R c #67544f",
"#J c #684700",
"#f c #68524b",
".X c #68534c",
"#e c #69534d",
".W c #69544d",
".O c #6c564f",
".Z c #6c5650",
".y c #6c5959",
"#X c #6c7273",
"#. c #6d5650",
".8 c #6e5651",
".Y c #6e5751",
".G c #6f5750",
".0 c #6f5a56",
".P c #705853",
".A c #705c5c",
".z c #705c5d",
"#P c #708ea7",
".B c #715c5b",
".H c #725a55",
"#i c #735a54",
".N c #745b56",
".C c #745d59",
"#h c #755c57",
"#C c #757c87",
".S c #785e5a",
".V c #7a5f5b",
".T c #7a605b",
".U c #7a605c",
".7 c #7c615d",
"## c #7d625e",
".I c #7e625e",
".M c #826663",
".K c #836663",
".L c #836764",
"#A c #841914",
".J c #846763",
"#o c #8b4435",
"#a c #946230",
"#0 c #99a09e",
"#K c #9e7b10",
"#E c #b1b5be",
"#m c #b5bfce",
"#w c #c26552",
"#G c #c91b26",
"#b c #d1a049",
"#H c #dfba18",
"#g c #f0e883",
"#p c #f2ffff",
"#F c #f4fffe",
"#l c #fd9370",
"#r c #ffe5ba",
"#j c #fffffa",
"QtQtQtQtQtQtQtQtQtQtQtQtQtQtQtQtQtQtQt.#.a.b.b.b.b.b.b.c.b.b.b.b.b.b.b.a.d.e.f.g.f.e.h.hQtQt.f.gQt.f.e.h.f.gQtQtQtQt.f.d.a.c.c.b",
"QtQtQtQtQtQtQt.gQt.gQt.g.gQt.g.g.g.g.g.d.a.b.b.b.b.b.b.b.b.b.b.b.b.b.b.a.e.e.g.g.g.g.e.gQt.g.g.g.g.g.e.e.g.g.g.g.gQt.g.d.a.c.c.c",
".h.hQtQtQt.g.gQt.gQtQt.g.g.g.g.g.g.g.g.d.a.b.b.b.b.b.b.b.b.b.b.b.b.b.b.a.e.g.g.g.g.g.g.g.g.g.g.g.g.g.e.e.g.g.g.g.g.g.g.d.a.c.c.c",
".d.d.d.i.j.j.k.k.k.l.l.l.m.l.l.m.l.l.l.m.n.o.p.o.o.o.q.p.o.o.o.o.o.o.p.n.r.l.l.l.l.l.l.l.l.l.l.l.l.l.l.l.l.l.l.l.k.k.k.j.s.a.t.a",
".t.a.a.u.v.w.w.x.y.z.z.z.y.z.z.z.z.A.A.B.B.C.C.C.C.C.C.C.C.C.C.C.C.C.C.C.z.A.A.A.y.z.z.z.z.z.z.y.A.A.z.z.z.z.z.y.x.w.w.D.j.d.d.d",
".c.b.b.E.F.G.G.H.I.J.J.K.L.L.L.L.K.J.K.K.J.M.M.M.M.M.L.M.M.M.M.M.M.M.M.L.J.J.K.J.K.K.L.M.J.L.L.K.K.K.K.J.K.J.L.I.N.G.G.w.k.gQtQt",
".c.c.b.E.F.G.O.H.I.J.K.K.K.K.J.J.L.K.K.K.K.K.M.M.M.M.M.M.M.M.M.M.M.M.M.M.K.K.K.K.K.K.K.K.K.K.K.K.K.M.M.K.K.K.K.I.P.O.O.w.kQtQt.h",
".a.a.a.Q.R.H.H.N.S.T.T.T.T.T.T.T.U.V.S.V.U.I.U.I.V.V.V.V.V.V.V.V.V.V.V.V.V.I.V.I.I.U.I.U.I.I.I.U.V.V.V.U.I.I.U.S.N.N.H.x.k.g.gQt",
".d.d.d.m.y.I.I.S.G.W.W.W.W.W.W.W.X.X.W.G.Y.H.H.P.Z.X.X.X.X.X.X.X.X.X.W.G.H.H.H.H.H.H.H.H.H.H.H.0.Z.X.X.Z.G.H.H.H.V.M.I.y.k.g.g.f",
"Qt.1.2.l.z.J.K.T.X.3.3.3.3.3.3.3.3.3.3.4.X.G.G.x.4.3.4.3.4.3.4.3.3.3.3.4.x.Z.G.W.G.Z.Z.Z.Z.Z.Z.X.4.3.3.4.X.Z.G.H.V.M.K.B.l.g.e.e",
"QtQt.2.l.z.J.K.T.W.3.3.3.3.3.3.3.3.3.5.4.Z.G.Z.X.4.3.5.3.3.3.3.3.3.3.3.4.6.G.Z.Z.Z.Z.Z.Z.Z.Z.G.x.4.3.5.4.Z.Z.W.H.7.K.J.B.l.e.e.e",
"Qt.2Qt.l.B.J.K.T.W.3.3.3.4.3.3.4.4.F.4.F.6.Z.Z.6.4.3.4.3.3.4.3.4.4.4.4.F.Z.Z.G.Z.Z.Z.G.Z.Z.Z.G.Z.F.4.4.F.Z.Z.G.0.I.J.K.B.l.e.e.h",
"Qt.2.2.l.z.K.K.T.W.3.3.4.3.3.3.F.6.X.Z.6.F.F.4.4.4.4.3.3.3.4.3.4.X.Z.x.W.G.G.G.Z.Z.G.Z.Z.8.Z.Z.Z.W.X.Z.Z.Z.Z.Z.H.I.K.L.z.l.g.gQt",
"QtQt.2.l.z.J.K.T.W.3.3.3.3.4.3.F.Z.G.G.Z.4.3.3.4.3.3.3.4.3.3.3.4.X.G.G.Z.Z.G.Z.Z.Z.Z.G.Z.Z.8.8.Z.G.G.Z.Z.G.Z.Z.H.U.K.L.z.l.g.gQt",
"Qt.2.2.l.z.K.K.U.W.3.3.3.3.3.3.F.Z.G.G.W.F.3.3.3.3.3.3.3.3.4.3.4.Z.G.G.Z.G.Z.Z.Z.Z.Z.Z.Z.Z.8.Z.8.Z.Z.G.Z.Z.Z.G.H.I.K.L.z.l.e.g.f",
"QtQt.2.l.z.K.K.U.W.3.3.3.4.F.4.F.X.X.Z.X.4.3.3.4.3.4.3.4.4.F.4.6.X.X.Z.Z.Z.Z.Z.G.G.Z.G.Z.8.Z.8.Z.Z.G.Z.Z.Z.G.Z.H.U.K.L.y.l.e.e.e",
"Qt.gQt.m.y.L.L.U.W.3.3.4.6.W.Z.6.F.9.4.4.4.3.4.3.5.3.4.4.6.Z.Z.6.F.F.F.F.x#..Z.8.Z.8.Z.8.8.Z.Z.8.G.Z.Y.Z.Z.Z.Z.H.U.M.L.z.l.g.gQt",
"QtQtQt.l.z.L.K.U.W.3.3.F.W.G.G.W.F.3.4.3.3.3.4.3.4.3.3.4.X.G.G.X.4.3.5.F.Z#.#..Z.8.Z.8.Z.Z.Z.8.Z.Z.Z.Z.8.Z.Z.Z.H.I.M.M.z.l.gQtQt",
"Qt.g.g.l.z.K.K.U.W.3.3.F.Z.G.G.Z.4.3.3.3.3.4.3.3.4.3.3.4.Z.Y.Y.Z.4.3.3.9.W.Y.Z.8.Z.8.8.Z.8.Z.Z.8.Z.8.Z.Y.G.Z.Z.H.U.M.M.z.m.g.gQt",
"Qt.g.g.k.z.K.K.U.W.4.4.F.X.W.Z.6.4.3.4.3.3.3.3.4.4.4.4.6.X.X.Z.X.F.4.9.F.Z.Z.8.Z.Z.Z.Z.8.Z.8.8.Z.Z.Z.8.Z.Z.Z.Z.H##.M.M.z.l.gQtQt",
"QtQtQt.l.z.K.K.I.Y.W.W.W.F.F.4.F.3.4.3.4.4.3.3.F.6.Z.X.6.F.4.4.F.W.W.W.W.Z.8.Z.8.8.Z.8.Z.8.Z.8.8.Y.Z.8.Z.8.Z.G.H.I.K.J.z.l.g.gQt",
"QtQtQt.l.z.K.K.U.H.G.Y.Z.4.3.3.3.3.3.3.3.3.3.3.9.Z.G.G.Z.4.3.3.F.W.G.Y.Y.Z.8.8.Z.Z.8.Z.8.Z.8.Z.Z.Z.8.Z.8.8.Z.W.H.I.K.J.z.l.e.g.h",
"QtQt.2.k.z.K.K.I.H.G.G.W.4.3.3.3.4.3.4.3.3.3.3.F.W.G.G.Z.F.5.3.4.W.Z.G.G.Z.Z.Z.8.Z.8.8.Z.8.Z.Z.8.Z.8.Z.Z.Z.8.Z.H.T.K.J.z.l.g.g.h",
"Qt.2Qt.l.z.K.K.U.P.W.W.X.F.4.9.F.4.3.3.3.4.F.4.F.X.Z.X.X#a#b#a.9.Z.G.Z.G.8.Z.8.Z.8.Z.8.Z.Z.8.Z.Z.Y.Z.8.Z.Z.Z.Z.B.I.K.J.z.m.d.d.d",
"QtQt.2.k.z.J.J.U.O.4.4.F.W.W.O.W.F.3.3.F.6.W.Z.X.6.F.4.F#a#b#a#a#a#a.Z.Z.Z.Z.Z.Z.Z.8.Z.Z.8.Z.Z.8.8.Z.Z.Z.Z.Z.Z.H.U.K.K.B.n.a.a.t",
"Qt.1Qt.l.z.L.K.T.W.3.3.4.W.Y.G.W.4.3.3.F.Z.G.G.X.4.3#a#a#c#c#b#a#a#a#b#a.0.Z.G.Z.8.Z.Z.8.Z.8.8.Z.Z.Z.8.G.G.Z.Z.H.U.K.K.C.p.c#d.b",
"Qt.1.1.l.y.L.L.U#e.3.3.4.O.Y.Y.W.F.3.3.4.Z.G.G.W.F#c#a#a#b#a#c#b#a#b#b#a#c.Z.Z.Z.Z.8.Z.Z.8.Z.Z.8.8.Z.Z.Z.Z.Z.Z.H.I.K.K.H.p#d.b.b",
".d.d.d.m.z.K.L.U.W.4.4.F.W.W.W#f.4.3.3.4.X.W.W.X#c#c#a#b#g#b#a#b#b#g#b#b#c#c.G.Z.8.Z.8.8.Z.8.8.Z.Z.8.Z.G.Z.Z.Z.H.I.K.K.B.p.b.b.b",
".a.a.a.n.B.J.L.U.P.W.W.W.F.F.F.4.3.3.3.4.F.4.F#a#c#a#g#g#b#g#b#g#g#b#g#b#a#c.Z.Z.8.Z.8.Z.8.Z.8.Z.8.Z.Z.8.Z.Z.Z.H.I.M.M.C.p.b.b.b",
".b.b#d.p#h.K.L.U#i.Y.Y.W.F.3.3.4.3.4.3.4.3.3.3#a#a#b#g#b#j#b#g#g#b#j#b#a#b#a#a.8.Z.8.Z.8.Z.8.Z.8.Z.8.8.Z.Z.Z.Z.H.U.M.M.C.p.b.b.b",
".b.b.b.p#h.K.K.I.H.Y.O.W.9.3.3.3.3.3.4.3.3.3.3.F#c#c#b#j#g#b#j#g#b#g#j#b#a#b#a#a.Z.Z.Z.8.Z.8.8.Z.Z.8.Z.8.Z.Z.G.H.I.M.M.C.q.b.b.b",
".c.b.b.p#h.K.K.U.H.O.G.W.F.3.3.3.4.3.3.3.3.4.3#b#a#b#g#g#b#a#j#j#a#b#g#b#c#a#b#a.8.Z.8.Z.8.Z.Z.Z.8.Z.8.Z.G.Z.Z.H.U.M.M.C.o#d.b.b",
".b.b.b.p.B.K.K.I.H.Z.G.W.4.4.3.4.3.4.4.3.3.3.3#b#b#g#a#b#a#c#b#j#c#a#b#g#c#c#c#..Z.8.Z.8.Z.Z.Z.8.Z.8.Z.8.Z.Z.Z.H.U.M.M.C.o.b.b.b",
".c.b#d.p.N.K.K.U.H.Z.G.X.4.3.3.3.3.3.3.3.4.3.4#c#c#c#b#b#k#k#a#g#l#k#k#b#c#b#c#..8.Z.8.Z.Z.8.8.Z.8.Z.Z.Z.G.Z.Z.H.U.M.K.C.o.b.b.b",
".c#d.b.p.C.K.K.I.H.G.G.Z.F.3.3.3.4.3.3.4.3.3.3.F.X#c#b#a#m#n#a#b#k#n#m#a#l#a#c#..Z.8.8.Z.8.Z.8.Z.8.Z.8.Z.Z.Z.Z.H##.M.M.C.p.b.b.c",
".a.a.a.n.B.K.K.V.0.X.W.X.4.3.4.3.3.3.3.4.4.4.4.6.W#a#b#o#p#q#r#a#r#q#p#c#l#c#a#..Z.8.Z.8.Z.8.Z.8.Z.8.Z.8.Z.G.Z.H##.M.M.z.n.a.a.a",
".d.d.e.r.z.J.J.I.W.4.F.4.4.3.3.3.4.3.4.4.6.x.W.W.G#a#c#o#l#r#r#r#r#r#o#o#c#s.8.Z.Z.Z.8.Z.Z.Z.Z.Z.8.Z.8.Z.Z.Z.G.H.I.K.J.z.m.d.d.d",
"Qt.g#t.l.z.L.K.S.X.3.3.3.3.4.3.4.3.3.3.4.Z.G.G.G#s#s#u#v#w#r#r#r#r#r#w#v#x#s#s.Z.8.Z.Z.8.Z.G.Z.Z.8.Z.Z.8#.#..W.H.U.K.K.z.lQtQtQt",
"Qt.g#t.l.z.L.M.U.X.3.3.4.3.3.3.4.3.3.3.4.6.G.Z#s#s#y#z#x#v#w#l#l#l#w#v#x#x#y#s#s.Z.8.Z.G.Z.G.Z.0.Z.8.Z.Z#..G.Z.H.I.K.L.z.l.2QtQt",
".d.d.e.m.z.L.M.U.X.3.3.3.4.3.3.3.4.F.4.6.Z.G.Z#s#y#z#A#x#u#v#o#o#o#v#u#x#z#x#y#s#s.Z.Z.Z.Z.Z.Z.8.8.Z.8.Z.Z.x.W.0.U.K.M.y.l.2QtQt",
".t.a.a.n.B.K.K.S.X.4.3.3.3.4.4.4.X.W.Z.x.G.Z#B#s#C#z#A#x#u#C#D#s#D#C#u#x#A#z#C#E#s.Z.Z.Z.Z.Z.G.Z.G.Z.G.O.F.F.F.W.U.K.J.z.lQtQtQt",
".b.b#d.p#h.J.J.S.X.3.3.4.3.3.3.4.Z.G.Z.Z.G#B#B#s#E#F#G#A#C#u#D#D#u#y#C#z#G#z#E#u#s.G.Z.G.Z.G.Z.Z.Z.G.G.W.F.3.3.W.T.K.L.z.lQtQtQt",
".c.b#d.p.C.M.J.T.X.4.3.3.3.4.5.4.X.G.Z.G.G#B#H#B#s#y#F#G#u#E#D#y#E#E#x#A#A#F#u#s#I#J.Z.8.Z.Z.Z.Z.Z.G.G.W.F.3.3.W.T.K.K.z.k.g.1Qt",
".b.b.b.p.C.K.K.T.X.3.3.4.4.4.4.6.Z.G.Z.Z.Z#K#H#B#B#I#C#E#A#D#y#E#u#x#z#G#F#y#s#I#K#J.8.Z.Z.Z.Z.Z.W.W.W.F.3.p.o.6.T.K.K.y.l.g.gQt",
".b.b.b.o.C.M.M.V.X.4.3.4.X.X.Z.X.Z.Z.G.Z.6#K#B#L#B#M#s#F#G#x#E#I#u#x#A#A#E#u#I#I#B#J.8.Z.8.Z.G.Z.6.F.F.5.E#N#N.5.C.J.J.z.mQtQtQt",
".b.b.b.o.C.K.M.V.X.3.3.4.Z.Z.G.Z.Z.Z.G.X#B#B#L#B#B#I#I#E#A#x#u#y#u#x#G#F#y#D#I#I#B#I#D.Z.8#..G.W.9.3.3#O#N.b.b.q.C.K.J.z.l.hQtQt",
".b.b.b.o.C.M.M.V.X.3.5.4.X.G.G.Z.G.Z.G.Z#B#L#L#B#I#D#I#C#E#I#K#y#H#I#A#E#D#D#I#B#L#B#D.8.8.G.G.Z.F.3.3.5#N.b.b.o.C.K.K.z.k.2.1Qt",
".a.a.a.r.C.M.M.U.Z.4.4.6.Z.G.G.G.x.Z.X#I#B#P#L#B#D#D#M#D#F#I#u#y#y#I#C#C#D.Z#D#B#L#B#D.Z.Z.x.W.6.F.3.3#Q#N.b.b.o.C.K.J.z.l.2QtQt",
".d.d.e.r.z.J.K.U.P.X.X.Z.Z.Z.Z.Z.F.4.4#I#L#P#B#I#D.F#I#I#F#I#J#y#K#I#F#D#s.Z#D#B#L#L#D.G.F.F.F.F.3.4.3.5#N.b.b.n.C.J.J.B.l.g.gQt",
"Qt.g#t.l.z.J.K.I.H.G.Z.G.Z.G.G.X.F.3#I#B#P#P#B#D.4.5#D#I#E#I#u#y#y#I#F#s#s.G#D#M#L#L#D#y.4.3.3.3.3.3.3#Q#N.b.b.q.C.J.J.z.l.gQtQt",
"Qt.g#t.l.z.M.M.U.H.G.G.Z.G.G.G.Z.4.3#I#B#P#L#I#D.F.3#D#D#E#D#H#K#J#D#E#s#s#s#D#I#B#L#I#y.F.3.3.3.3.3.3#R#S.b.b.n.C.J.J.z.l.g.gQt",
".d.d.e.m.z.M.M.I.H.O.W.G.W.W.x.6.F.3#C#E#F#E#y#s.F#D#u#D#C#D#K#J#T#D#E#s#u#D#s#y#C#E#y#I.4.3.3.3.F.F.F.3.q#N#N.5.C.J.K.B.m.d.d.d",
".t.a#U.n.C.K.M.I.H.Z.G.W.6.F.4.4.4.3#I#B#B#B#I#s.W#D#D#y#C#J#u#I#I#I#C#u#D#D#u#D#I#I#I#s.4.3.3.F#f.W.Z.6.5.o#Q.F.T.K.K.B.n.a.a.a",
".b.b#d.p.C.K.M.I.H.Z.G.Z.4.3.3.3.3.3#C#E#E#C#y.Z#D#I#I#D#y#I#K#K#J#I#C#D#I#s#s#u#y#C#y#D.3.3.3.F.W.G.G.W.F.3.3.W.T.K.K.C.p.b.c.c",
".c.c#d.p.C.M.M##.H.Z.G.W.4.3.3.4.3.3#D#D#D#D#s#s#s#I#I#D#y#I#I#I#I#I#C#D#I#D#V#I#M#W#W.3.3.3.3.F.W.G.G.Z.F.3.3.W.T.K.K.C.p#d#d.c",
".a.a.a.n.H.I.I.C.Y.X.W.X.4.4.3.3.4.4#M#M#W#M#M#D#D#I#I#D#C#J#I#I#I#s#C#I#M#I#V#W#V#X#V.4.4.4.F.F.W.O.W.6.3#Q#Q.F#h.I.I.0#Y.a.a.t",
".#.d.e#Z.x.H.H.G.X.F.4.4.4.4.3.4.X.W#D#W#X#D#0#D#I#M#I#D#C#s#K#J#J#s#C#I#B#I#D#V#V#V.4.4#f.O.W.X.F.F.F.5.E#N#1.p.W#h#h.R#Z#2.d.d",
".e.g.g.k#3.G.G.Z.4.4.3.4.3.3.4.4.W.G.G#W#0#D#X#D#I#B#I#D#E#I#s#s#I#I#E#I#B#I#D.3.4.3.3.F.O.O.G.O.F.3.3#R#1.b#d#4.F.G.O.w.k.1QtQt",
".e.e.e.k#5.G.G.X.4.4.3.3.3.4.3.4.O.G.G#D#M#M#D#D#I#B#I#D#E#y#C#C#C#y#E#D#B#I#D.3.4.3.3.F.O.G.G.W.4.4.3.5#1.b.b#4.F.Y.Y.w.k.1QtQt",
".e.f.d#6.v.6.4.4.v.n.o#7#Q.3#O#O.v#3#5.w.w.F.9#D#I#B#I#D#C#s#D#s#s#s#E#D#I#M#I#D#Q#Q#Q.5.4#5#3.v.v.o#8#Y#N.a.a.Q#9.F.R.va..1QtQt",
".t.a.a.ta#.E.E.Qaaab#6ac#Na#a#.u#Z.k.j#Z.Q.E.E#I#B#B#I#C#y#D#D#s#I#I#C#C#I#B#I#D#S#S#S.u#Z.k.k.j.j#6#6.i.i.d.d.#.u.E.q.u.fQtQtQt",
".b.c.c.c.b.b.b#U.e.e.e.e.a.b.c.a.dQt#t#2.a.b#D#M#B#B#D#E#M#s#D#s#I#D#y#E#I#B#I#D.b.b.c.a.d.g.g.g.gQtQtQt.h.h.h.d.a.b.b.a.dQtQtQt",
".c.c.c.c.b.c.b.t.#.e.e.f.a.c.c.a.dQtQt.d.a#d#D#I#L#B#D#E#M#s#s#D#M#W#M#E#D#B#B#M#D.b.b.a.d.g.gQtQtQtQtQtQt.h.h.d.a.c.b.a.d.h.hQt",
".b.b.c.b.b.c.b.t.e.e.g.e.t.c.c.a.dQtQt.d.a#D#M#B#L#I#C#C#I#s#D#M#X#M#W#C#D#B#L#I#D#D.b.t.dQtQtQtQtQtQtQtQtQt.h.d.a.c.c.a.dQtQtQt",
"QtQtQtQtQtQtQtQtQtQtQtQtQtQtQtQtQtQtQt.#.a#D#I#L#L#D#E#y#M#D#D#W#M#X#X#y#C#I#L#B#I#D.h.hQtQt.f.gQt.f.e.h.f.gQtQtQtQt.f.d.a.c.c.b",
"QtQtQtQtQtQtQt.gQt.gQt.g.gQt.g.g.g.g.g.d#s#I#B#L#B#D#F#X#X#W#V#M#W#X#W#M#E#D#B#L#B#D#s.gQt.g.g.g.g.g.e.e.g.g.g.g.gQt.g.d.a.c.c.c",
".h.hQtQtQt.g.gQt.gQtQt.g.g.g.g.g.g.g.g.d#s#I#B#L#I#C#E#X#W#V#V#V#M#W#M#M#y#E#I#L#B#y#s.g.g.g.g.g.g.g.e.e.g.g.g.g.g.g.g.d.a.c.c.c",
".d.d.d.i.j.j.k.k.k.l.l.l.m.l.l.m.l.l.l.m#u#D#I#B#D#F#y#W#V#M#V#V#V#M#u#V#V#F#D#B#I#C#s.l.l.l.l.l.l.l.l.l.l.l.l.l.k.k.k.j.s.a.t.a",
".t.a.a.u.v.w.w.x.y.z.z.z.y.z.z.z.z.A.A.B#u#y#D#D#C#F#y#M#V#M#V#M#M#W#W#M#M#y#F#I#E#y#s.z.z.z.z.y.A.A.z.z.z.z.z.y.x.w.w.D.j.d.d.d",
".c.b.b.E.F.G.G.H.I.J.J.K.L.L.L.L.K.J.K.K#u#u#y#C#E#E#V#V#V#V#V#V#W#X#X#X#W#s#F#E#C#y#s.M.J.L.L.K.K.K.K.J.K.J.L.I.N.G.G.w.k.gQtQt",
".c.c.b.E.F.G.O.H.I.J.K.K.K.K.J.J.Ladadad#s#u#u#y#F#y#V#V#V#V#V#V#u#M#W#Madad#C#F#y#sadadad.K.K.K.K.M.M.K.K.K.K.I.P.O.O.w.kQtQt.h",
".a.a.a.Q.R.H.H.N.S.T.T.T.T.T.Tadadadadadad#s#u#y#F#y#V#M#V#V#V#V#W#X#X#W#Vad#y#F#sadadadadadad.U.V.V.V.U.I.I.U.S.N.N.H.x.k.g.gQt",
".d.d.d.m.y.I.I.S.G.W.W.W.W.Wadadadadadadadadad#s#Ead#V#W#M#M#V#V#M#M#M#u#Vad#D#sadadadadadadadad.Z.X.X.Z.G.H.H.H.V.M.I.y.k.g.g.f",
"Qt.1.2.l.z.J.K.T.X.3.3.3.3adadadadadadadadadadadadad#s#W#W#M#V#V#W#0#X#W#V#Vadadadadadadadadadadad.3.3.4.X.Z.G.H.V.M.K.B.l.g.e.e",
"QtQt.2.l.z.J.K.T.W.3.3.3adadadadadadadadadadadadadadad#D#V#D#V#V#V#M#W#M#V#Vadadadadadadadadadadadad.5.4.Z.Z.W.H.7.K.J.B.l.e.e.e",
"Qt.2Qt.l.B.J.K.T.W.3.3.3adadadadadadadadadadadadadadadadadadad#V#W#X#X#X#W#Madadadadadadadadadadadad.4.F.Z.Z.G.0.I.J.K.B.l.e.e.h",
"Qt.2.2.l.z.K.K.T.W.3.3.4adadadadadadadadadadadadadadadadadadad#V#M#W#W#W#W#Madadadadadadadadadadadad.Z.Z.Z.Z.Z.H.I.K.L.z.l.g.gQt",
"QtQt.2.l.z.J.K.T.W.3.3.3adadadadadadadadadadadadadadadadadadad#D#D#V#M#M#s#Dadadadadadadadadadadadad.Z.Z.G.Z.Z.H.U.K.L.z.l.g.gQt",
"Qt.2.2.l.z.K.K.U.W.3.3.3.3adadadadadadadadadadadadadadadadadadadadadadadadadadadadadadadadadadadad.Z.G.Z.Z.Z.G.H.I.K.L.z.l.e.g.f",
"QtQt.2.l.z.K.K.U.W.3.3.3.4.Fadadadadadadadadadadadadadadadadadadadadadadadadadadadadadadadadadad.Z.G.Z.Z.Z.G.Z.H.U.K.L.y.l.e.e.e",
"Qt.gQt.m.y.L.L.U.W.3.3.4.6.W.Zadadadadadadadadadadadadadadadadadadadadadadadadadadadadadadadad.8.G.Z.Y.Z.Z.Z.Z.H.U.M.L.z.l.g.gQt",
"QtQtQt.l.z.L.K.U.W.3.3.F.W.G.G.W.Fadadadadadadadadadadadadadadadadadadadadadadadadadadadad.Z.8.Z.Z.Z.Z.8.Z.Z.Z.H.I.M.M.z.l.gQtQt",
"Qt.g.g.l.z.K.K.U.W.3.3.F.Z.G.G.Z.4.3.3.3.3adadadadadadadadadadadadadadadadadadadad.8.8.Z.8.Z.Z.8.Z.8.Z.Y.G.Z.Z.H.U.M.M.z.m.g.gQt",
"Qt.g.g.k.z.K.K.U.W.4.4.F.X.W.Z.6.4.3.4.3.3.3.3.4.4.4.4.6.X.X.Z.X.F.4.9.F.Z.Z.8.Z.Z.Z.Z.8.Z.8.8.Z.Z.Z.8.Z.Z.Z.Z.H##.M.M.z.l.gQtQt",
"QtQtQt.l.z.K.K.I.Y.W.W.W.F.F.4.F.3.4.3.4.4.3.3.F.6.Z.X.6.F.4.4.F.W.W.W.W.Z.8.Z.8.8.Z.8.Z.8.Z.8.8.Y.Z.8.Z.8.Z.G.H.I.K.J.z.l.g.gQt",
"QtQtQt.l.z.K.K.U.H.G.Y.Z.4.3.3.3.3.3.3.3.3.3.3.9.Z.G.G.Z.4.3.3.F.W.G.Y.Y.Z.8.8.Z.Z.8.Z.8.Z.8.Z.Z.Z.8.Z.8.8.Z.W.H.I.K.J.z.l.e.g.h",
"QtQt.2.k.z.K.K.I.H.G.G.W.4.3.3.3.4.3.4.3.3.3.3.F.W.G.G.Z.F.5.3.4.W.Z.G.G.Z.Z.Z.8.Z.8.8.Z.8.Z.Z.8.Z.8.Z.Z.Z.8.Z.H.T.K.J.z.l.g.g.h",
"Qt.2Qt.l.z.K.K.U.P.W.W.X.F.4.9.F.4.3.3.3.4.F.4.F.X.Z.X.X.F.4.4.9.Z.G.Z.G.8.Z.8.Z.8.Z.8.Z.Z.8.Z.Z.Y.Z.8.Z.Z.Z.Z.B.I.K.J.z.m.d.d.d",
"QtQt.2.k.z.J.J.U.O.4.4.F.W.W.O.W.F.3.3.F.6.W.Z.X.6.F.4.F.X.Z.W.Z.Z.Z.Z.Z.Z.Z.Z.Z.Z.8.Z.Z.8.Z.Z.8.8.Z.Z.Z.Z.Z.Z.H.U.K.K.B.n.a.a.t",
"Qt.1Qt.l.z.L.K.T.W.3.3.4.W.Y.G.W.4.3.3.F.Z.G.G.X.4.3.3.4.X.G.G.G.Z.Z.G.Z.0.Z.G.Z.8.Z.Z.8.Z.8.8.Z.Z.Z.8.G.G.Z.Z.H.U.K.K.C.p.c#d.b",
"Qt.1.1.l.y.L.L.U#e.3.3.4.O.Y.Y.W.F.3.3.4.Z.G.G.W.F.3.3.4.x.G.8.8.G.Z.Z.Z.Z.Z.Z.Z.Z.8.Z.Z.8.Z.Z.8.8.Z.Z.Z.Z.Z.Z.H.I.K.K.H.p#d.b.b",
".d.d.d.m.z.K.L.U.W.4.4.F.W.W.W#f.4.3.3.4.X.W.W.X.F.4.4.6.Z.8.Z.Z.Z.Z.G.Z.G.Z.G.Z.8.Z.8.8.Z.8.8.Z.Z.8.Z.G.Z.Z.Z.H.I.K.K.B.p.b.b.b",
".a.a.a.n.B.J.L.U.P.W.W.W.F.F.F.4.3.3.3.4.F.4.F.F.6.W.Z.Z.Z.Z.Z.8#..Z.Z.8.Z.G.Z.Z.8.Z.8.Z.8.Z.8.Z.8.Z.Z.8.Z.Z.Z.H.I.M.M.C.p.b.b.b",
".b.b#d.p#h.K.L.U#i.Y.Y.W.F.3.3.4.3.4.3.4.3.3.3.4.Z.G.G.Z.Z.Z.G.Z#..Z.8.Z.Z.Z.Z.8.Z.8.Z.8.Z.8.Z.8.Z.8.8.Z.Z.Z.Z.H.U.M.M.C.p.b.b.b",
".b.b.b.p#h.K.K.I.H.Y.O.W.9.3.3.3.3.3.4.3.3.3.3.F.X.Z.Z.Z.Z.Z.Z.Y#..8.Z.8.Z.Z.8.Z.Z.Z.Z.8.Z.8.8.Z.Z.8.Z.8.Z.Z.G.H.I.M.M.C.q.b.b.b",
".c.b.b.p#h.K.K.U.H.O.G.W.F.3.3.3.4.3.3.3.3.4.3.F.Z.G.G.Z.Z.Z.Z.Z.8.Z.8.Z.8.8.Z.8.8.Z.8.Z.8.Z.Z.Z.8.Z.8.Z.G.Z.Z.H.U.M.M.C.o#d.b.b",
".b.b.b.p.B.K.K.I.H.Z.G.W.4.4.3.4.3.4.4.3.3.3.3.4.Z.8.8.8.G.Z.Z.Y.Z.8.Z.8.Z.Z#.#..Z.8.Z.8.Z.Z.Z.8.Z.8.Z.8.Z.Z.Z.H.U.M.M.C.o.b.b.b",
".c.b#d.p.N.K.K.U.H.Z.G.X.4.3.3.3.3.3.3.3.4.3.4.4.x.8.Z.Z.Z.Y.Z.Z.8.Z.8#..8.Z#.#..8.Z.8.Z.Z.8.8.Z.8.Z.Z.Z.G.Z.Z.H.U.M.K.C.o.b.b.b",
".c#d.b.p.C.K.K.I.H.G.G.Z.F.3.3.3.4.3.3.4.3.3.3.F.X.G.8.Z.8.Z.Z.Z.Z.Z#.#.#.#.#.#..Z.8.8.Z.8.Z.8.Z.8.Z.8.Z.Z.Z.Z.H##.M.M.C.p.b.b.c",
".a.a.a.n.B.K.K.V.0.X.W.X.4.3.4.3.3.3.3.4.4.4.4.6.W.G.8.Z.8.Z.G.Z.8.Z#.#.#.#.#.#..Z.8.Z.8.Z.8.Z.8.Z.8.Z.8.Z.G.Z.H##.M.M.z.n.a.a.a",
".d.d.e.r.z.J.J.I.W.4.F.4.4.3.3.3.4.3.4.4.6.x.W.W.G.G.Z.Z.Z.Z.G.Z.G.Z.Z.Z#..Z.8.Z.Z.Z.8.Z.Z.Z.Z.Z.8.Z.8.Z.Z.Z.G.H.I.K.J.z.m.d.d.d",
"Qt.g#t.l.z.L.K.S.X.3.3.3.3.4.3.4.3.3.3.4.Z.G.G.G.Z.Z.Z.G.Z.G.Z.Z.Z.Z.G.Z#..8#..Z.8.Z.Z.8.Z.G.Z.Z.8.Z.Z.8#.#..W.H.U.K.K.z.lQtQtQt",
"Qt.g#t.l.z.L.M.U.X.3.3.4.3.3.3.4.3.3.3.4.6.G.Z.G.G.G.Z.G.Z.Z.Z.Z.Z.Y.G.G#.#.#.#..Z.8.Z.G.Z.G.Z.0.Z.8.Z.Z#..G.Z.H.I.K.L.z.l.2QtQt",
".d.d.e.m.z.L.M.U.X.3.3.3.4.3.3.3.4.F.4.6.Z.G.Z.G.W.X.x.Z.Z.Z.G.G.Z.Z.x.Z.Z#.#.#..G.Z.Z.Z.Z.Z.Z.8.8.Z.8.Z.Z.x.W.0.U.K.M.y.l.2QtQt",
".t.a.a.n.B.K.K.S.X.4.3.3.3.4.4.4.X.W.Z.x.G.Z.Z.X.6.4.4.6.Z.G.G.Z.9.9.F.F.W.G.Z.Z.Z.Z.Z.Z.Z.Z.G.Z.G.Z.G.O.F.F.F.W.U.K.J.z.lQtQtQt",
".b.b#d.p#h.J.J.S.X.3.3.4.3.3.3.4.Z.G.Z.Z.G.G.G.W.4.3.3.4.X.G.G.X.9.3.3.F.W.G.G.Z.Z.G.Z.G.Z.G.Z.Z.Z.G.G.W.F.3.3.W.T.K.L.z.lQtQtQt",
".c.b#d.p.C.M.J.T.X.4.3.3.3.4.5.4.X.G.Z.G.G.G.G.Z.4.5.4.4.x.G.G.O.3.3.3.4.x.G.Z.8.Z.8.Z.8.Z.Z.Z.Z.Z.G.G.W.F.3.3.W.T.K.K.z.k.g.1Qt",
".b.b.b.p.C.K.K.T.X.3.3.4.4.4.4.6.Z.G.Z.Z.Z.X.Z.6.F.4.4.6.X.O.X.X.F.F.9.F.Z.8.8.Z.Z.Z.8.Z.Z.Z.Z.Z.W.W.W.F.3.p.o.6.T.K.K.y.l.g.gQt",
".b.b.b.o.C.M.M.V.X.4.3.4.X.X.Z.X.Z.Z.G.Z.6.4.4.F.6.W.Z.X.F.4.4.6.W.W.W.Z.Z.Z.Z.8.8.Z.8.Z.8.Z.G.Z.6.F.F.5.E#N#N.5.C.J.J.z.mQtQtQt",
".b.b.b.o.C.K.M.V.X.3.3.4.Z.Z.G.Z.Z.Z.G.X.4.5.3.4.Z.Z.G.X.F.3.3.4.W.G.G.Z.Z.Z.G.Z.Z.8.Z.Z.8#..G.W.9.3.3#O#N.b.b.q.C.K.J.z.l.hQtQt",
".b.b.b.o.C.M.M.V.X.3.5.4.X.G.G.Z.G.Z.G.Z.4.3.3.4.Z.G.G.Z.4.3.5.4.W.G.Z.Z.Z.Z.Z.Z.8.Z.8.8.8.G.G.Z.F.3.3.5#N.b.b.o.C.K.K.z.k.2.1Qt",
".a.a.a.r.C.M.M.U.Z.4.4.6.Z.G.G.G.x.Z.X.X.6.4.4.6.6.Z.X.X.F.4.4.F.G.G.G.Z.G.Z.G.Z.Z.8.Z.Z.Z.x.W.6.F.3.3#Q#N.b.b.o.C.K.J.z.l.2QtQt",
".d.d.e.r.z.J.K.U.P.X.X.Z.Z.Z.Z.Z.F.4.4.F.6.W.Z.6.F.F.4.F.X.Z.W.Z.Z.Z.8.Z.Z.Z.Z.Z.G.Z.G.G.F.F.F.F.3.4.3.5#N.b.b.n.C.J.J.B.l.g.gQt",
"Qt.g#t.l.z.J.K.I.H.G.Z.G.Z.G.G.X.F.3.3.F.W.G.Z.Z.4.5.3.4.X.G.G.G.8.8.Z.8.8.G.Z.Z.Z.Z.G.W.4.3.3.3.3.3.3#Q#N.b.b.q.C.J.J.z.l.gQtQt",
"Qt.g#t.l.z.M.M.U.H.G.G.Z.G.G.G.Z.4.3.3.4.W.G.G.W.F.3.3.4.x.G.8.8.Z.Z.8.Z.Z.8.Z.G.Z.G.G.W.F.3.3.3.3.3.3#R#S.b.b.n.C.J.J.z.l.g.gQt",
".d.d.e.m.z.M.M.I.H.O.W.G.W.W.x.6.F.3.3.F.W.G.G.Z.F.4.4.6.Z.8.Z.Z.Z.8.Z.Z.8.Z.Z.Z.W.x.W.X.4.3.3.3.F.F.F.3.q#N#N.5.C.J.K.B.m.d.d.d",
".t.a#U.n.C.K.M.I.H.Z.G.W.6.F.4.4.4.3.3.F.W.G.G.W.W.W.Z.Z.Z.Z.Z.8.8.Z.8.Z.Z.G.Z.Z#f.4.4.4.4.3.3.F#f.W.Z.6.5.o#Q.F.T.K.K.B.n.a.a.a",
".b.b#d.p.C.K.M.I.H.Z.G.Z.4.3.3.3.3.3.3.F.Z.Z.G.Z.G.G.8.Z.Z.Z.Z.8.8.Z.8.8.Z.G.G.X.F.3.3.3.3.3.3.F.W.G.G.W.F.3.3.W.T.K.K.C.p.b.c.c",
".c.c#d.p.C.M.M##.H.Z.G.W.4.3.3.4.3.3.3.9.R.G.Z.G.G.Z.G.G.Z.Z.Z.Z.G.G.Z.8.G.G.G.W.F.3.3.3.3.3.3.F.W.G.G.Z.F.3.3.W.T.K.K.C.p#d#d.c",
".a.a.a.n.H.I.I.C.Y.X.W.X.4.4.3.3.4.4.F.6.W.Z.G.O.Z.Z.Z.Z.Z.Z.8.Z.W.W.x.Z.O.W.W.X.F.3.3.4.4.4.F.F.W.O.W.6.3#Q#Q.F#h.I.I.0#Y.a.a.t",
".#.d.e#Z.x.H.H.G.X.F.4.4.4.4.3.4.X.W.O.W.G.G.G.G.Z.Z.Z.Z.Z.G.G.O.6.4.F.F.4.F.F.4.3.3.4.4#f.O.W.X.F.F.F.5.E#N#1.p.W#h#h.R#Z#2.d.d",
".e.g.g.k#3.G.G.Z.4.4.3.4.3.3.4.4.W.G.G.G.G.G.G.O.G.G.G.G.G.G.G.W.F.3.3.3.3.3.3.3.4.3.3.F.O.O.G.O.F.3.3#R#1.b#d#4.F.G.O.w.k.1QtQt",
".e.e.e.k#5.G.G.X.4.4.3.3.3.4.3.4.O.G.G.G.Z.G.G.G.G.G.G.G.Z.G.G.W.4.3.3.4.3.4.4.3.4.3.3.F.O.G.G.W.4.4.3.5#1.b.b#4.F.Y.Y.w.k.1QtQt",
".e.f.d#6.v.6.4.4.v.n.o#7#Q.3#O#O.v#3#5.w.w.F.9.w.w#5.w.w.F.w.F.4.5#O#O#O#Q#Q#Q#Q#Q#Q#Q.5.4#5#3.v.v.o#8#Y#N.a.a.Q#9.F.R.va..1QtQt",
".t.a.a.ta#.E.E.Qaaab#6ac#Na#a#.u#Z.k.j#Z.Q.E.E.Q#Z.k.k.j.Q#S.q.Q#S#S#S#S#S#S#S#S#S#S#S.u#Z.k.k.j.j#6#6.i.i.d.d.#.u.E.q.u.fQtQtQt",
".b.c.c.c.b.b.b#U.e.e.e.e.a.b.c.a.dQt#t#2.a.b.b.a.d#t.g.d.a.b.b.b.c.c.t.b.c.b.b.c.b.b.c.a.d.g.g.g.gQtQtQt.h.h.h.d.a.b.b.a.dQtQtQt",
".c.c.c.c.b.c.b.t.#.e.e.f.a.c.c.a.dQtQt.d.a#d.b.a.d.hQt.d.a.c.b.b.b.c.b.b.b.b.c.b.b.b.b.a.d.g.gQtQtQtQtQtQt.h.h.d.a.c.b.a.d.h.hQt",
".b.b.c.b.b.c.b.t.e.e.g.e.t.c.c.a.dQtQt.d.a.c.b.a.d.hQt.d.a.c.c.c.c.b.c.b.c.c.b.c.c.b.b.t.dQtQtQtQtQtQtQtQtQt.h.d.a.c.c.a.dQtQtQt"};
