/* XPM */
static char *dummy[]={
"64 128 135 2",
"#7 c #000000",
"#E c #000003",
"#f c #00000f",
"#O c #00070c",
"#p c #07050d",
"#G c #141d32",
"#l c #1baba8",
"#M c #1e232c",
"#i c #25424b",
"#u c #280500",
"#x c #2b2c38",
"#C c #303a55",
"#P c #362700",
".2 c #383f4a",
".g c #383f4b",
"#N c #383f4c",
".1 c #38404c",
".e c #393f4b",
"Qt c #3a404b",
".h c #3a404c",
"#3 c #3d4046",
".d c #3d4047",
".f c #3f4148",
"#Q c #3f4449",
".i c #404248",
"aa c #424349",
".# c #434245",
"ad c #43434a",
"#8 c #44434a",
".j c #44444b",
"#Y c #46413d",
".a c #46413e",
".s c #474242",
"ac c #474548",
".k c #47464d",
"#1 c #494649",
"#n c #4a4138",
".b c #4a423a",
".t c #4a433e",
"ae c #4b4440",
".l c #4b4951",
"#K c #4b5e7f",
".c c #4c423a",
".m c #4d484c",
".u c #4e4541",
"#s c #4f211e",
"#R c #4f443c",
"#r c #4f5463",
"#2 c #50443c",
"#X c #50453d",
"ab c #51453d",
".Q c #514743",
"## c #52300c",
"#5 c #53463f",
".E c #54473f",
"#0 c #544845",
".n c #544946",
".q c #554840",
".r c #554a47",
".p c #584a43",
".o c #584a44",
"a. c #584a47",
".D c #584d4d",
".v c #5a4d4b",
"#w c #5b0a00",
"#T c #5b4b44",
"#9 c #5b4c48",
"#V c #5c4b43",
"#W c #5d4b43",
".5 c #5e4d45",
"a# c #5e4d48",
"#6 c #5f4f4d",
".3 c #614d45",
".w c #61514f",
"#a c #635049",
".4 c #644f48",
"#4 c #645352",
".x c #655451",
".F c #66514a",
".6 c #67524b",
".R c #67544f",
"#I c #684700",
"#q c #68524b",
".X c #68534c",
"#o c #69534d",
".W c #69544d",
".O c #6c564f",
".Z c #6c5650",
".y c #6c5959",
"#S c #6c7273",
"#b c #6d5650",
".8 c #6e5651",
".Y c #6e5751",
".G c #6f5750",
".0 c #6f5a56",
".P c #705853",
".A c #705c5c",
".z c #705c5d",
"#L c #708ea7",
".B c #715c5b",
".H c #725a55",
"#z c #735a54",
".N c #745b56",
".C c #745d59",
"#y c #755c57",
"#v c #757c87",
".S c #785e5a",
".V c #7a5f5b",
".T c #7a605b",
".U c #7a605c",
".7 c #7c615d",
"#e c #7d625e",
".I c #7e625e",
".M c #826663",
".K c #836663",
".L c #836764",
"#A c #841914",
".J c #846763",
"#j c #8b4435",
".9 c #946230",
"#U c #99a09e",
"#J c #9e7b10",
"#B c #b1b5be",
"#h c #b5bfce",
"#t c #c26552",
"#D c #c91b26",
"#. c #d1a049",
"#H c #dfba18",
"#Z c #e2e5e5",
"#c c #f0e883",
"#k c #f2ffff",
"#F c #f4fffe",
"#g c #fd9370",
"#m c #ffe5ba",
"#d c #fffffa",
"QtQtQtQtQtQtQtQtQtQtQtQtQtQtQtQtQtQtQt.#.a.b.b.b.b.b.b.c.b.b.b.b.b.b.b.a.d.e.f.g.f.e.h.hQtQt.f.gQt.f.e.h.f.gQtQtQtQt.f.d.a.c.c.b",
"QtQtQtQtQtQtQt.gQt.gQt.g.gQt.g.g.g.g.g.d.a.b.b.b.b.b.b.b.b.b.b.b.b.b.b.a.e.e.g.g.g.g.e.gQt.g.g.g.g.g.e.e.g.g.g.g.gQt.g.d.a.c.c.c",
".h.hQtQtQt.g.gQt.gQtQt.g.g.g.g.g.g.g.g.d.a.b.b.b.b.b.b.b.b.b.b.b.b.b.b.a.e.g.g.g.g.g.g.g.g.g.g.g.g.g.e.e.g.g.g.g.g.g.g.d.a.c.c.c",
".d.d.d.i.j.j.k.k.k.l.l.l.m.l.l.m.l.l.l.m.n.o.p.o.o.o.q.p.o.o.o.o.o.o.p.n.r.l.l.l.l.l.l.l.l.l.l.l.l.l.l.l.l.l.l.l.k.k.k.j.s.a.t.a",
".t.a.a.u.v.w.w.x.y.z.z.z.y.z.z.z.z.A.A.B.B.C.C.C.C.C.C.C.C.C.C.C.C.C.C.C.z.A.A.A.y.z.z.z.z.z.z.y.A.A.z.z.z.z.z.y.x.w.w.D.j.d.d.d",
".c.b.b.E.F.G.G.H.I.J.J.K.L.L.L.L.K.J.K.K.J.M.M.M.M.M.L.M.M.M.M.M.M.M.M.L.J.J.K.J.K.K.L.M.J.L.L.K.K.K.K.J.K.J.L.I.N.G.G.w.k.gQtQt",
".c.c.b.E.F.G.O.H.I.J.K.K.K.K.J.J.L.K.K.K.K.K.M.M.M.M.M.M.M.M.M.M.M.M.M.M.K.K.K.K.K.K.K.K.K.K.K.K.K.M.M.K.K.K.K.I.P.O.O.w.kQtQt.h",
".a.a.a.Q.R.H.H.N.S.T.T.T.T.T.T.T.U.V.S.V.U.I.U.I.V.V.V.V.V.V.V.V.V.V.V.V.V.I.V.I.I.U.I.U.I.I.I.U.V.V.V.U.I.I.U.S.N.N.H.x.k.g.gQt",
".d.d.d.m.y.I.I.S.G.W.W.W.W.W.W.W.X.X.W.G.Y.H.H.P.Z.X.X.X.X.X.X.X.X.X.W.G.H.H.H.H.H.H.H.H.H.H.H.0.Z.X.X.Z.G.H.H.H.V.M.I.y.k.g.g.f",
"Qt.1.2.l.z.J.K.T.X.3.3.3.3.3.3.3.3.3.3.4.X.G.G.x.4.3.4.3.4.3.4.3.3.3.3.4.x.Z.G.W.G.Z.Z.Z.Z.Z.Z.X.4.3.3.4.X.Z.G.H.V.M.K.B.l.g.e.e",
"QtQt.2.l.z.J.K.T.W.3.3.3.3.3.3.3.3.3.5.4.Z.G.Z.X.4.3.5.3.3.3.3.3.3.3.3.4.6.G.Z.Z.Z.Z.Z.Z.Z.Z.G.x.4.3.5.4.Z.Z.W.H.7.K.J.B.l.e.e.e",
"Qt.2Qt.l.B.J.K.T.W.3.3.3.4.3.3.4.4.F.4.F.6.Z.Z.6.4.3.4.3.3.4.3.4.4.4.4.F.Z.Z.G.Z.Z.Z.G.Z.Z.Z.G.Z.F.4.4.F.Z.Z.G.0.I.J.K.B.l.e.e.h",
"Qt.2.2.l.z.K.K.T.W.3.3.4.3.3.3.F.6.X.Z.6.F.F.4.4.4.4.3.3.3.4.3.4.X.Z.x.W.G.G.G.Z.Z.G.Z.Z.8.Z.Z.Z.W.X.Z.Z.Z.Z.Z.H.I.K.L.z.l.g.gQt",
"QtQt.2.l.z.J.K.T.W.3.3.3.3.4.3.F.Z.G.G.Z.4.3.3.4.3.3.3.4.9#..9.4.X.G.G.Z.Z.G.Z.Z.Z.Z.G.Z.Z.8.8.Z.G.G.Z.Z.G.Z.Z.H.U.K.L.z.l.g.gQt",
"Qt.2.2.l.z.K.K.U.W.3.3.3.3.3.3.F.Z.G.G.W.F.3.3.3.3.3.3.3.9#..9.9.9.9.G.Z.G.Z.Z.Z.Z.Z.Z.Z.Z.8.Z.8.Z.Z.G.Z.Z.Z.G.H.I.K.L.z.l.e.g.f",
"QtQt.2.l.z.K.K.U.W.3.3.3.4.F.4.F.X.X.Z.X.4.3.3.4.3.4.9.9#####..9.9.9#..9.Z.Z.Z.G.G.Z.G.Z.8.Z.8.Z.Z.G.Z.Z.Z.G.Z.H.U.K.L.y.l.e.e.e",
"Qt.gQt.m.y.L.L.U.W.3.3.4.6.W.Z.6.F#a.4.4.4.3.4.3.5##.9.9#..9###..9#.#..9###b.Z.8.Z.8.Z.8.8.Z.Z.8.G.Z.Y.Z.Z.Z.Z.H.U.M.L.z.l.g.gQt",
"QtQtQt.l.z.L.K.U.W.3.3.F.W.G.G.W.F.3.4.3.3.3.4.3####.9#.#c#..9#.#.#c#.#.#####b.Z.8.Z.8.Z.Z.Z.8.Z.Z.Z.Z.8.Z.Z.Z.H.I.M.M.z.l.gQtQt",
"Qt.g.g.l.z.K.K.U.W.3.3.F.Z.G.G.Z.4.3.3.3.3.4.3.9##.9#c#c#.#c#.#c#c#.#c#..9##.Z.8.Z.8.8.Z.8.Z.Z.8.Z.8.Z.Y.G.Z.Z.H.U.M.M.z.m.g.gQt",
"Qt.g.g.k.z.K.K.U.W.4.4.F.X.W.Z.6.4.3.4.3.3.3.3.9.9#.#c#.#d#.#c#c#.#d#..9#..9.9.Z.Z.Z.Z.8.Z.8.8.Z.Z.Z.8.Z.Z.Z.Z.H#e.M.M.z.l.gQtQt",
"QtQtQt.l.z.K.K.I.Y.W.W.W.F.F.4.F.3.4.3.4.4.3.3.F#####.#d#c#.#d#c#.#c#d#..9#..9.9.8.Z.8.Z.8.Z.8.8.Y.Z.8.Z.8.Z.G.H.I.K.J.z.l.g.gQt",
"QtQtQt.l.z.K.K.U.H.G.Y.Z.4.3.3.3.3.3.3.3.3.3.3#..9#.#c#c#..9#d#d.9#.#c#.##.9#..9.Z.8.Z.8.Z.8.Z.Z.Z.8.Z.8.8.Z.W.H.I.K.J.z.l.e.g.h",
"QtQt.2.k.z.K.K.I.H.G.G.W.4.3.3.3.4.3.4.3.3.3.3#.#.#c.9#..9###.#d##.9#.#c######.8.Z.8.8.Z.8.Z.Z.8.Z.8.Z.Z.Z.8.Z.H.T.K.J.z.l.g.g.h",
"Qt.2Qt.l.z.K.K.U.P.W.W.X.F.4#a.F.4.3.3.3.4.F.4#######.#.#f#f.9#c#g#f#f#.###.##.Z.8.Z.8.Z.Z.8.Z.Z.Y.Z.8.Z.Z.Z.Z.B.I.K.J.z.m.d.d.d",
"QtQt.2.k.z.J.J.U.O.4.4.F.W.W.O.W.F.3.3.F.6.W.Z.X.6###..9#h#i.9#.#f#i#h.9#g.9##.Z.Z.8.Z.Z.8.Z.Z.8.8.Z.Z.Z.Z.Z.Z.H.U.K.K.B.n.a.a.t",
"Qt.1Qt.l.z.L.K.T.W.3.3.4.W.Y.G.W.4.3.3.F.Z.G.G.X.4.9#.#j#k#l#m.9#m#l#k###g##.9.Z.8.Z.Z.8.Z.8.8.Z.Z.Z.8.G.G.Z.Z.H.U.K.K.C.p.c#n.b",
"Qt.1.1.l.y.L.L.U#o.3.3.4.O.Y.Y.W.F.3.3.4.Z.G.G.W.F.9###j#g#m#m#m#m#m#j#j###p#p.Z.Z.8.Z.Z.8.Z.Z.8.8.Z.Z.Z.Z.Z.Z.H.I.K.K.H.p#n.b.b",
".d.d.d.m.z.K.L.U.W.4.4.F.W.W.W#q.4.3.3.4.X.W.W.X#p#p#r#s#t#m#m#m#m#m#t#s#u#r#p#p.8.Z.8.8.Z.8.8.Z.Z.8.Z.G.Z.Z.Z.H.I.K.K.B.p.b.b.b",
".a.a.a.n.B.J.L.U.P.W.W.W.F.F.F.4.3.3.3.4.F.4.F.F#p#v#w#u#s#t#g#g#g#t#s#u#w#x#v#p#p.Z.8.Z.8.Z.8.Z.8.Z.Z.8.Z.Z.Z.H.I.M.M.C.p.b.b.b",
".b.b#n.p#y.K.L.U#z.Y.Y.W.F.3.3.4.3.4.3.4.3.3.3#p#v#w#A#w#x#s#j#j#j#s#x#u#A#w#x#B#p.8.Z.8.Z.8.Z.8.Z.8.8.Z.Z.Z.Z.H.U.M.M.C.p.b.b.b",
".b.b.b.p#y.K.K.I.H.Y.O.W#a.3.3.3.3.3.4.3.3.3#C#p#B#v#D#D#u#v#x#E#E#r#v#u#A#w#F#r#p.Z.Z.8.Z.8.8.Z.Z.8.Z.8.Z.Z.G.H.I.M.M.C.q.b.b.b",
".c.b.b.p#y.K.K.U.H.O.G.W.F.3.3.3.4.3.3.3.3#C#C#p#r#B#F#D#A#v#x#E#E#r#v#w#D#F#r#p#G.Z.8.Z.8.Z.Z.Z.8.Z.8.Z.G.Z.Z.H.U.M.M.C.o#n.b.b",
".b.b.b.p.B.K.K.I.H.Z.G.W.4.4.3.4.3.4.4.3.3#C#H#C#G#E#r#F#D#x#B#E#r#B#B#A#D#v#p#E#I.8.Z.8.Z.Z.Z.8.Z.8.Z.8.Z.Z.Z.H.U.M.M.C.o.b.b.b",
".c.b#n.p.N.K.K.U.H.Z.G.X.4.3.3.3.3.3.3.3.4#J#H#C#C#G#E#B#D#A#E#r#B#x#u#D#F#r#E#G#E.Z.8.Z.Z.8.8.Z.8.Z.Z.Z.G.Z.Z.H.U.M.K.C.o.b.b.b",
".c#n.b.p.C.K.K.I.H.G.G.Z.F.3.3.3.4.3.3.4.3#J#C#K#C#G#E#r#F#A#u#B#G#x#u#D#B#p#E#G#E.8.8.Z.8.Z.8.Z.8.Z.8.Z.Z.Z.Z.H#e.M.M.C.p.b.b.c",
".a.a.a.n.B.K.K.V.0.X.W.X.4.3.4.3.3.3.3.4.4#C#K#K#C#G#p#E#F#A#u#x#r#x#u#A#v#p#G#G#G#E.Z.8.Z.8.Z.8.Z.8.Z.8.Z.G.Z.H#e.M.M.z.n.a.a.a",
".d.d.e.r.z.J.J.I.W.4.F.4.4.3.3.3.4.3.4.4#G#K#L#K#C#E#E#E#B#A#G#J#r#H#G#v#r#E#G#C#M#E.8.Z.Z.Z.Z.Z.8.Z.8.Z.Z.Z.G.H.I.K.J.z.m.d.d.d",
"Qt.g#N.l.z.L.K.S.X.3.3.3.3.4.3.4.3.3.3.4#G#L#L#K#G#E#E#G#r#v#G#x#r#r#G#F#p#p#G#C#C#E#x.8.Z.G.Z.Z.8.Z.Z.8#b#b.W.H.U.K.K.z.lQtQtQt",
"Qt.g#N.l.z.L.M.U.X.3.3.4.3.3.3.4.3.3.3#G#C#L#L#C#G.G#E#G#G#B#G#I#r#J#r#B#p#E#G#G#C#E#x.G.Z.G.Z.0.Z.8.Z.Z#b.G.Z.H.I.K.L.z.l.2QtQt",
".d.d.e.m.z.L.M.U.X.3.3.3.4.3.3.3.4.F.4#G#K#L#K#C#E.X#E#G#G#B#x#r#r#G#v#r#p#O#x#r#v#r#O.Z.Z.Z.Z.8.8.Z.8.Z.Z.x.W.0.U.K.M.y.l.2QtQt",
".t.a.a.n.B.K.K.S.X.4.3.3.3.4.4.4.X.W.Z#G#B#F#B#G#E.4#E#E#G#B#E#I#H#J#B#E#p#x#O#O#O#O#x.Z.Z.Z.G.Z.G.Z.G.O.F.F.F.W.U.K.J.z.lQtQtQt",
".b.b#n.p#y.J.J.S.X.3.3.4.3.3.3.4.Z.G.Z#v#C#K#C#r#p.3#x#E#G#v#E#P#I#P#B#E#p#O#p#x#r#x#E.G.Z.G.Z.Z.Z.G.G.W.F.3.3.W.T.K.L.z.lQtQtQt",
".c.b#n.p.C.M.J.T.X.4.3.3.3.4.5.4.X.G.Z#G#F#F#B#v#p#p#E#r#E#v#x#G#G#G#v#E#x#p#O#O#O#M#M.8.Z.Z.Z.Z.Z.G.G.W.F.3.3.W.T.K.K.z.k.g.1Qt",
".b.b.b.p.C.K.K.T.X.3.3.4.4.4.4.6.Z.G.Z#B#E#G#E#E#r#E#p#E#r#v#G#I#J#J#v#r#E#O#p#M#O#M#O.Z.Z.Z.Z.Z.W.W.W.F.3.p.o.6.T.K.K.y.l.g.gQt",
".b.b.b.o.C.M.M.V.X.4.3.4.X.X.Z.X.Z.Z.G#E#M#Q#M#M#E#p#G#E#r#v#G#G#G#G#G#v#E#G#E#O#O#O.8.Z.8.Z.G.Z.6.F.F.5.E#R#R.5.C.J.J.z.mQtQtQt",
".b.b.b.o.C.K.M.V.X.3.3.4.Z.Z.G.Z.Z.Z.G#E#Q#S#Q#S#E#E#G#E#r#r#I#G#G#G#P#v#G#G#E.Z.Z.8.Z.Z.8#b.G.W#a.3.3#T#R.b.b.q.C.K.J.z.l.hQtQt",
".b.b.b.o.C.M.M.V.X.3.5.4.X.G.G.Z.G.Z.G#M#S#U#E#U#E#G#G#E#v#p#p#J#I#I#p#B#G#C#E.Z.8.Z.8.8.8.G.G.Z.F.3.3.5#R.b.b.o.C.K.K.z.k.2.1Qt",
".a.a.a.r.C.M.M.U.Z.4.4.6.Z.G.G.G.x.Z.X#E#S#U#E#Q#E#G#G#E#v#p#G#G#p#p#G#B#E#C#G#E.Z.8.Z.Z.Z.x.W.6.F.3.3#V#R.b.b.o.C.K.J.z.l.2QtQt",
".d.d.e.r.z.J.K.U.P.X.X.Z.Z.Z.Z.Z.F.4.4.F#E#M#M#E#E#G#G#E#B#p#r#v#v#v#r#B#E#G#G#E.G.Z.G.G.F.F.F.F.3.4.3.5#R.b.b.n.C.J.J.B.l.g.gQt",
"Qt.g#N.l.z.J.K.I.H.G.Z.G.Z.G.G.X.F.3.3.F.W.G.Z.Z#G#G#G#E#B#G#p#p#p#p#p#v#v#G#C#M#E.Z.G.W.4.3.3.3.3.3.3#V#R.b.b.q.C.J.J.z.l.gQtQt",
"Qt.g#N.l.z.M.M.U.H.G.G.Z.G.G.G.Z.4.3.3.4.W.G.G#E#G#C#G#E#F#E#p#O#G#M#G#r#B#G#C#C#E#E.G.W.F.3.3.3.3.3.3#W#X.b.b.n.C.J.J.z.l.g.gQt",
".d.d.e.m.z.M.M.I.H.O.W.G.W.W.x.6.F.3.3.F.W.G.G#E#M#C#M#E#F#G#p#p#G#C#G#O#B#E#C#C#G#E.W.X.4.3.3.3.F.F.F.3.q#R#R.5.C.J.K.B.m.d.d.d",
".t.a#Y.n.C.K.M.I.H.Z.G.W.6.F.4.4.4.3.3.F.W.G.G#E#G#K#G#E#B#M#p#O#G#E#M#O#B#E#G#K#G#G#E.4.4.3.3.F#q.W.Z.6.5.o#V.F.T.K.K.B.n.a.a.a",
".b.b#n.p.C.K.M.I.H.Z.G.Z.4.3.3.3.3.3.3.F.Z.Z#E#G#C#K#G#v#v#M#p#E#E#S#Q#M#v#v#G#K#C#G#E#x.3.3.3.F.W.G.G.W.F.3.3.W.T.K.K.C.p.b.c.c",
".c.c#n.p.C.M.M#e.H.Z.G.W.4.3.3.4.3.3.3#a.R#E#E#G#C#K#E#B#O#O#E#M#S#Q#Z#M#M#B#E#C#K#C#E#x.3.3.3.F.W.G.G.Z.F.3.3.W.T.K.K.C.p#n#n.c",
".a.a.a.n.H.I.I.C.Y.X.W.X.4.4.3.3.4.4.F.6#r#E#G#C#K#C#E#F#M#O#O#Q#M#U#Z#Q#M#v#v#G#K#C#E#r.4.4.F.F.W.O.W.6.3#V#V.F#y.I.I.0#0.a.a.t",
".#.d.e#1.x.H.H.G.X.F.4.4.4.4.3.4.X.W.O.W#r#G#C#K#K#G#E#F#M#O#O#M#Q#S#U#Q#M#O#B#E#C#G#v#r#q.O.W.X.F.F.F.5.E#R#2.p.W#y#y.R#1#3.d.d",
".e.g.g.k#4.G.G.Z.4.4.3.4.3.3.4.4.W.G.G.G#r#E#C#C#K#G#E#B#O#O#O#O#M#Q#S#Q#O#O#v#v#G#E#v#x.O.O.G.O.F.3.3#W#2.b#n#5.F.G.O.w.k.1QtQt",
".e.e.e.k#6.G.G.X.4.4.3.3.3.4.3.4.O.G.G.G#x#r#G#C#C#G#v#v#O#O#O#O#O#M#x#O#p#7#p#F#E#B#r#p.O.G.G.W.4.4.3.5#2.b.b#5.F.Y.Y.w.k.1QtQt",
".e.f.d#8.v.6.4.4.v.n.o#9#V.3#T#T.v#7#7#7#x#x#r#v#v#v#B#M#M#O#O#M#M#Q#Q#M#M#7#7#B#B#v#x#7#7#6#4.v.v.oa.#0#R.a.a.Qa#.F.R.vaa.1QtQt",
".t.a.a.tab.E.E.Qacad#8ae#Rabab#7#7#7#7#7#p#x#x#x#r#B#F#M#M#O#O#O#Q#U#S#S#Q#7#7#p#F#v#p#7#7#7#7.j.j#8#8.i.i.d.d.#.u.E.q.u.fQtQtQt",
".b.c.c.c.b.b.b#Y.e.e.e.e.a.b#7#7#7#7#7#7#7#p#x#M#r#B#F#O#O#E#O#O#M#M#Q#M#7#7#7#7#B#p#7#7#7#7#7#7.gQtQtQt.h.h.h.d.a.b.b.a.dQtQtQt",
".c.c.c.c.b.c.b.t.#.e.e.f.a#7#7#7#7#7#7#7#7#7#7#p#x#v#F#7#7#7#7#O#Q#U#S#Q#O#7#7#7#p#7#7#7#7#7#7#7#7QtQtQtQt.h.h.d.a.c.b.a.d.h.hQt",
".b.b.c.b.b.c.b.t.e.e.g.e#7#7#7#7#7#7#7#7#7#7#7#7#7#7#7#7#7#7#7#O#M#Q#Q#M#O#7#7#7#7#7#7#7#7#7#7#7#7#7QtQtQtQt.h.d.a.c.c.a.dQtQtQt",
"QtQtQtQtQtQtQtQtQtQtQtQt#7#7#7#7#7#7#7#7#7#7#7#7#7#7#7#7#7#7#7#O#Q#M#M#M#O#O#7#7#7#7#7#7#7#7#7#7#7#7.e.h.f.gQtQtQtQt.f.d.a.c.c.b",
"QtQtQtQtQtQtQt.gQt.gQt.g#7#7#7#7#7#7#7#7#7#7#7#7#7#7#7#7#7#7#7#O#S#U#U#U#S#O#7#7#7#7#7#7#7#7#7#7#7#7.e.e.g.g.g.g.gQt.g.d.a.c.c.c",
".h.hQtQtQt.g.gQt.gQtQt.g#7#7#7#7#7#7#7#7#7#7#7#7#7#7#7#7#7#7#7#O#Q#S#S#S#Q#M#7#7#7#7#7#7#7#7#7#7#7#7.e.e.g.g.g.g.g.g.g.d.a.c.c.c",
".d.d.d.i.j.j.k.k.k.l.l.l.m#7#7#7#7#7#7#7#7#7#7#7#7#7#7#7#7#7#7#p#M#O#O#O#M#M#7#7#7#7#7#7#7#7#7#7#7.l.l.l.l.l.l.l.k.k.k.j.s.a.t.a",
".t.a.a.u.v.w.w.x.y.z.z.z.y.z#7#7#7#7#7#7#7#7#7#7#7#7#7#7#7#7#7#7#E#E#O#E#E#7#7#7#7#7#7#7#7#7#7#7.A.A.z.z.z.z.z.y.x.w.w.D.j.d.d.d",
".c.b.b.E.F.G.G.H.I.J.J.K.L.L.L#7#7#7#7#7#7#7#7#7#7#7#7#7#7#7#7#7#7#7#7#7#7#7#7#7#7#7#7#7#7#7#7.K.K.K.K.J.K.J.L.I.N.G.G.w.k.gQtQt",
".c.c.b.E.F.G.O.H.I.J.K.K.K.K.J.J.L#7#7#7#7#7#7#7#7#7#7#7#7#7#7#7#7#7#7#7#7#7#7#7#7#7#7#7#7.K.K.K.K.M.M.K.K.K.K.I.P.O.O.w.kQtQt.h",
".a.a.a.Q.R.H.H.N.S.T.T.T.T.T.T.T.U.V.S.V.U#7#7#7#7#7#7#7#7#7#7#7#7#7#7#7#7#7#7#7#7.U.I.U.I.I.I.U.V.V.V.U.I.I.U.S.N.N.H.x.k.g.gQt",
".d.d.d.m.y.I.I.S.G.W.W.W.W.W.W.W.X.X.W.G.Y.H.H.P.Z.X.X.X.X.X.X.X.X.X.W.G.H.H.H.H.H.H.H.H.H.H.H.0.Z.X.X.Z.G.H.H.H.V.M.I.y.k.g.g.f",
"Qt.1.2.l.z.J.K.T.X.3.3.3.3.3.3.3.3.3.3.4.X.G.G.x.4.3.4.3.4.3.4.3.3.3.3.4.x.Z.G.W.G.Z.Z.Z.Z.Z.Z.X.4.3.3.4.X.Z.G.H.V.M.K.B.l.g.e.e",
"QtQt.2.l.z.J.K.T.W.3.3.3.3.3.3.3.3.3.5.4.Z.G.Z.X.4.3.5.3.3.3.3.3.3.3.3.4.6.G.Z.Z.Z.Z.Z.Z.Z.Z.G.x.4.3.5.4.Z.Z.W.H.7.K.J.B.l.e.e.e",
"Qt.2Qt.l.B.J.K.T.W.3.3.3.4.3.3.4.4.F.4.F.6.Z.Z.6.4.3.4.3.3.4.3.4.4.4.4.F.Z.Z.G.Z.Z.Z.G.Z.Z.Z.G.Z.F.4.4.F.Z.Z.G.0.I.J.K.B.l.e.e.h",
"Qt.2.2.l.z.K.K.T.W.3.3.4.3.3.3.F.6.X.Z.6.F.F.4.4.4.4.3.3.3.4.3.4.X.Z.x.W.G.G.G.Z.Z.G.Z.Z.8.Z.Z.Z.W.X.Z.Z.Z.Z.Z.H.I.K.L.z.l.g.gQt",
"QtQt.2.l.z.J.K.T.W.3.3.3.3.4.3.F.Z.G.G.Z.4.3.3.4.3.3.3.4.3.3.3.4.X.G.G.Z.Z.G.Z.Z.Z.Z.G.Z.Z.8.8.Z.G.G.Z.Z.G.Z.Z.H.U.K.L.z.l.g.gQt",
"Qt.2.2.l.z.K.K.U.W.3.3.3.3.3.3.F.Z.G.G.W.F.3.3.3.3.3.3.3.3.4.3.4.Z.G.G.Z.G.Z.Z.Z.Z.Z.Z.Z.Z.8.Z.8.Z.Z.G.Z.Z.Z.G.H.I.K.L.z.l.e.g.f",
"QtQt.2.l.z.K.K.U.W.3.3.3.4.F.4.F.X.X.Z.X.4.3.3.4.3.4.3.4.4.F.4.6.X.X.Z.Z.Z.Z.Z.G.G.Z.G.Z.8.Z.8.Z.Z.G.Z.Z.Z.G.Z.H.U.K.L.y.l.e.e.e",
"Qt.gQt.m.y.L.L.U.W.3.3.4.6.W.Z.6.F#a.4.4.4.3.4.3.5.3.4.4.6.Z.Z.6.F.F.F.F.x#b.Z.8.Z.8.Z.8.8.Z.Z.8.G.Z.Y.Z.Z.Z.Z.H.U.M.L.z.l.g.gQt",
"QtQtQt.l.z.L.K.U.W.3.3.F.W.G.G.W.F.3.4.3.3.3.4.3.4.3.3.4.X.G.G.X.4.3.5.F.Z#b#b.Z.8.Z.8.Z.Z.Z.8.Z.Z.Z.Z.8.Z.Z.Z.H.I.M.M.z.l.gQtQt",
"Qt.g.g.l.z.K.K.U.W.3.3.F.Z.G.G.Z.4.3.3.3.3.4.3.3.4.3.3.4.Z.Y.Y.Z.4.3.3#a.W.Y.Z.8.Z.8.8.Z.8.Z.Z.8.Z.8.Z.Y.G.Z.Z.H.U.M.M.z.m.g.gQt",
"Qt.g.g.k.z.K.K.U.W.4.4.F.X.W.Z.6.4.3.4.3.3.3.3.4.4.4.4.6.X.X.Z.X.F.4#a.F.Z.Z.8.Z.Z.Z.Z.8.Z.8.8.Z.Z.Z.8.Z.Z.Z.Z.H#e.M.M.z.l.gQtQt",
"QtQtQt.l.z.K.K.I.Y.W.W.W.F.F.4.F.3.4.3.4.4.3.3.F.6.Z.X.6.F.4.4.F.W.W.W.W.Z.8.Z.8.8.Z.8.Z.8.Z.8.8.Y.Z.8.Z.8.Z.G.H.I.K.J.z.l.g.gQt",
"QtQtQt.l.z.K.K.U.H.G.Y.Z.4.3.3.3.3.3.3.3.3.3.3#a.Z.G.G.Z.4.3.3.F.W.G.Y.Y.Z.8.8.Z.Z.8.Z.8.Z.8.Z.Z.Z.8.Z.8.8.Z.W.H.I.K.J.z.l.e.g.h",
"QtQt.2.k.z.K.K.I.H.G.G.W.4.3.3.3.4.3.4.3.3.3.3.F.W.G.G.Z.F.5.3.4.W.Z.G.G.Z.Z.Z.8.Z.8.8.Z.8.Z.Z.8.Z.8.Z.Z.Z.8.Z.H.T.K.J.z.l.g.g.h",
"Qt.2Qt.l.z.K.K.U.P.W.W.X.F.4#a.F.4.3.3.3.4.F.4.F.X.Z.X.X.F.4.4#a.Z.G.Z.G.8.Z.8.Z.8.Z.8.Z.Z.8.Z.Z.Y.Z.8.Z.Z.Z.Z.B.I.K.J.z.m.d.d.d",
"QtQt.2.k.z.J.J.U.O.4.4.F.W.W.O.W.F.3.3.F.6.W.Z.X.6.F.4.F.X.Z.W.Z.Z.Z.Z.Z.Z.Z.Z.Z.Z.8.Z.Z.8.Z.Z.8.8.Z.Z.Z.Z.Z.Z.H.U.K.K.B.n.a.a.t",
"Qt.1Qt.l.z.L.K.T.W.3.3.4.W.Y.G.W.4.3.3.F.Z.G.G.X.4.3.3.4.X.G.G.G.Z.Z.G.Z.0.Z.G.Z.8.Z.Z.8.Z.8.8.Z.Z.Z.8.G.G.Z.Z.H.U.K.K.C.p.c#n.b",
"Qt.1.1.l.y.L.L.U#o.3.3.4.O.Y.Y.W.F.3.3.4.Z.G.G.W.F.3.3.4.x.G.8.8.G.Z.Z.Z.Z.Z.Z.Z.Z.8.Z.Z.8.Z.Z.8.8.Z.Z.Z.Z.Z.Z.H.I.K.K.H.p#n.b.b",
".d.d.d.m.z.K.L.U.W.4.4.F.W.W.W#q.4.3.3.4.X.W.W.X.F.4.4.6.Z.8.Z.Z.Z.Z.G.Z.G.Z.G.Z.8.Z.8.8.Z.8.8.Z.Z.8.Z.G.Z.Z.Z.H.I.K.K.B.p.b.b.b",
".a.a.a.n.B.J.L.U.P.W.W.W.F.F.F.4.3.3.3.4.F.4.F.F.6.W.Z.Z.Z.Z.Z.8#b.Z.Z.8.Z.G.Z.Z.8.Z.8.Z.8.Z.8.Z.8.Z.Z.8.Z.Z.Z.H.I.M.M.C.p.b.b.b",
".b.b#n.p#y.K.L.U#z.Y.Y.W.F.3.3.4.3.4.3.4.3.3.3.4.Z.G.G.Z.Z.Z.G.Z#b.Z.8.Z.Z.Z.Z.8.Z.8.Z.8.Z.8.Z.8.Z.8.8.Z.Z.Z.Z.H.U.M.M.C.p.b.b.b",
".b.b.b.p#y.K.K.I.H.Y.O.W#a.3.3.3.3.3.4.3.3.3.3.F.X.Z.Z.Z.Z.Z.Z.Y#b.8.Z.8.Z.Z.8.Z.Z.Z.Z.8.Z.8.8.Z.Z.8.Z.8.Z.Z.G.H.I.M.M.C.q.b.b.b",
".c.b.b.p#y.K.K.U.H.O.G.W.F.3.3.3.4.3.3.3.3.4.3.F.Z.G.G.Z.Z.Z.Z.Z.8.Z.8.Z.8.8.Z.8.8.Z.8.Z.8.Z.Z.Z.8.Z.8.Z.G.Z.Z.H.U.M.M.C.o#n.b.b",
".b.b.b.p.B.K.K.I.H.Z.G.W.4.4.3.4.3.4.4.3.3.3.3.4.Z.8.8.8.G.Z.Z.Y.Z.8.Z.8.Z.Z#b#b.Z.8.Z.8.Z.Z.Z.8.Z.8.Z.8.Z.Z.Z.H.U.M.M.C.o.b.b.b",
".c.b#n.p.N.K.K.U.H.Z.G.X.4.3.3.3.3.3.3.3.4.3.4.4.x.8.Z.Z.Z.Y.Z.Z.8.Z.8#b.8.Z#b#b.8.Z.8.Z.Z.8.8.Z.8.Z.Z.Z.G.Z.Z.H.U.M.K.C.o.b.b.b",
".c#n.b.p.C.K.K.I.H.G.G.Z.F.3.3.3.4.3.3.4.3.3.3.F.X.G.8.Z.8.Z.Z.Z.Z.Z#b#b#b#b#b#b.Z.8.8.Z.8.Z.8.Z.8.Z.8.Z.Z.Z.Z.H#e.M.M.C.p.b.b.c",
".a.a.a.n.B.K.K.V.0.X.W.X.4.3.4.3.3.3.3.4.4.4.4.6.W.G.8.Z.8.Z.G.Z.8.Z#b#b#b#b#b#b.Z.8.Z.8.Z.8.Z.8.Z.8.Z.8.Z.G.Z.H#e.M.M.z.n.a.a.a",
".d.d.e.r.z.J.J.I.W.4.F.4.4.3.3.3.4.3.4.4.6.x.W.W.G.G.Z.Z.Z.Z.G.Z.G.Z.Z.Z#b.Z.8.Z.Z.Z.8.Z.Z.Z.Z.Z.8.Z.8.Z.Z.Z.G.H.I.K.J.z.m.d.d.d",
"Qt.g#N.l.z.L.K.S.X.3.3.3.3.4.3.4.3.3.3.4.Z.G.G.G.Z.Z.Z.G.Z.G.Z.Z.Z.Z.G.Z#b.8#b.Z.8.Z.Z.8.Z.G.Z.Z.8.Z.Z.8#b#b.W.H.U.K.K.z.lQtQtQt",
"Qt.g#N.l.z.L.M.U.X.3.3.4.3.3.3.4.3.3.3.4.6.G.Z.G.G.G.Z.G.Z.Z.Z.Z.Z.Y.G.G#b#b#b#b.Z.8.Z.G.Z.G.Z.0.Z.8.Z.Z#b.G.Z.H.I.K.L.z.l.2QtQt",
".d.d.e.m.z.L.M.U.X.3.3.3.4.3.3.3.4.F.4.6.Z.G.Z.G.W.X.x.Z.Z.Z.G.G.Z.Z.x.Z.Z#b#b#b.G.Z.Z.Z.Z.Z.Z.8.8.Z.8.Z.Z.x.W.0.U.K.M.y.l.2QtQt",
".t.a.a.n.B.K.K.S.X.4.3.3.3.4.4.4.X.W.Z.x.G.Z.Z.X.6.4.4.6.Z.G.G.Z#a#a.F.F.W.G.Z.Z.Z.Z.Z.Z.Z.Z.G.Z.G.Z.G.O.F.F.F.W.U.K.J.z.lQtQtQt",
".b.b#n.p#y.J.J.S.X.3.3.4.3.3.3.4.Z.G.Z.Z.G.G.G.W.4.3.3.4.X.G.G.X#a.3.3.F.W.G.G.Z.Z.G.Z.G.Z.G.Z.Z.Z.G.G.W.F.3.3.W.T.K.L.z.lQtQtQt",
".c.b#n.p.C.M.J.T.X.4.3.3.3.4.5.4.X.G.Z.G.G.G.G.Z.4.5.4.4.x.G.G.O.3.3.3.4.x.G.Z.8.Z.8.Z.8.Z.Z.Z.Z.Z.G.G.W.F.3.3.W.T.K.K.z.k.g.1Qt",
".b.b.b.p.C.K.K.T.X.3.3.4.4.4.4.6.Z.G.Z.Z.Z.X.Z.6.F.4.4.6.X.O.X.X.F.F#a.F.Z.8.8.Z.Z.Z.8.Z.Z.Z.Z.Z.W.W.W.F.3.p.o.6.T.K.K.y.l.g.gQt",
".b.b.b.o.C.M.M.V.X.4.3.4.X.X.Z.X.Z.Z.G.Z.6.4.4.F.6.W.Z.X.F.4.4.6.W.W.W.Z.Z.Z.Z.8.8.Z.8.Z.8.Z.G.Z.6.F.F.5.E#R#R.5.C.J.J.z.mQtQtQt",
".b.b.b.o.C.K.M.V.X.3.3.4.Z.Z.G.Z.Z.Z.G.X.4.5.3.4.Z.Z.G.X.F.3.3.4.W.G.G.Z.Z.Z.G.Z.Z.8.Z.Z.8#b.G.W#a.3.3#T#R.b.b.q.C.K.J.z.l.hQtQt",
".b.b.b.o.C.M.M.V.X.3.5.4.X.G.G.Z.G.Z.G.Z.4.3.3.4.Z.G.G.Z.4.3.5.4.W.G.Z.Z.Z.Z.Z.Z.8.Z.8.8.8.G.G.Z.F.3.3.5#R.b.b.o.C.K.K.z.k.2.1Qt",
".a.a.a.r.C.M.M.U.Z.4.4.6.Z.G.G.G.x.Z.X.X.6.4.4.6.6.Z.X.X.F.4.4.F.G.G.G.Z.G.Z.G.Z.Z.8.Z.Z.Z.x.W.6.F.3.3#V#R.b.b.o.C.K.J.z.l.2QtQt",
".d.d.e.r.z.J.K.U.P.X.X.Z.Z.Z.Z.Z.F.4.4.F.6.W.Z.6.F.F.4.F.X.Z.W.Z.Z.Z.8.Z.Z.Z.Z.Z.G.Z.G.G.F.F.F.F.3.4.3.5#R.b.b.n.C.J.J.B.l.g.gQt",
"Qt.g#N.l.z.J.K.I.H.G.Z.G.Z.G.G.X.F.3.3.F.W.G.Z.Z.4.5.3.4.X.G.G.G.8.8.Z.8.8.G.Z.Z.Z.Z.G.W.4.3.3.3.3.3.3#V#R.b.b.q.C.J.J.z.l.gQtQt",
"Qt.g#N.l.z.M.M.U.H.G.G.Z.G.G.G.Z.4.3.3.4.W.G.G.W.F.3.3.4.x.G.8.8.Z.Z.8.Z.Z.8.Z.G.Z.G.G.W.F.3.3.3.3.3.3#W#X.b.b.n.C.J.J.z.l.g.gQt",
".d.d.e.m.z.M.M.I.H.O.W.G.W.W.x.6.F.3.3.F.W.G.G.Z.F.4.4.6.Z.8.Z.Z.Z.8.Z.Z.8.Z.Z.Z.W.x.W.X.4.3.3.3.F.F.F.3.q#R#R.5.C.J.K.B.m.d.d.d",
".t.a#Y.n.C.K.M.I.H.Z.G.W.6.F.4.4.4.3.3.F.W.G.G.W.W.W.Z.Z.Z.Z.Z.8.8.Z.8.Z.Z.G.Z.Z#q.4.4.4.4.3.3.F#q.W.Z.6.5.o#V.F.T.K.K.B.n.a.a.a",
".b.b#n.p.C.K.M.I.H.Z.G.Z.4.3.3.3.3.3.3.F.Z.Z.G.Z.G.G.8.Z.Z.Z.Z.8.8.Z.8.8.Z.G.G.X.F.3.3.3.3.3.3.F.W.G.G.W.F.3.3.W.T.K.K.C.p.b.c.c",
".c.c#n.p.C.M.M#e.H.Z.G.W.4.3.3.4.3.3.3#a.R.G.Z.G.G.Z.G.G.Z.Z.Z.Z.G.G.Z.8.G.G.G.W.F.3.3.3.3.3.3.F.W.G.G.Z.F.3.3.W.T.K.K.C.p#n#n.c",
".a.a.a.n.H.I.I.C.Y.X.W.X.4.4.3.3.4.4.F.6.W.Z.G.O.Z.Z.Z.Z.Z.Z.8.Z.W.W.x.Z.O.W.W.X.F.3.3.4.4.4.F.F.W.O.W.6.3#V#V.F#y.I.I.0#0.a.a.t",
".#.d.e#1.x.H.H.G.X.F.4.4.4.4.3.4.X.W.O.W.G.G.G.G.Z.Z.Z.Z.Z.G.G.O.6.4.F.F.4.F.F.4.3.3.4.4#q.O.W.X.F.F.F.5.E#R#2.p.W#y#y.R#1#3.d.d",
".e.g.g.k#4.G.G.Z.4.4.3.4.3.3.4.4.W.G.G.G.G.G.G.O.G.G.G.G.G.G.G.W.F.3.3.3.3.3.3.3.4.3.3.F.O.O.G.O.F.3.3#W#2.b#n#5.F.G.O.w.k.1QtQt",
".e.e.e.k#6.G.G.X.4.4.3.3.3.4.3.4.O.G.G.G.Z.G.G.G.G.G.G.G.Z.G.G.W.4.3.3.4.3.4.4.3.4.3.3.F.O.G.G.W.4.4.3.5#2.b.b#5.F.Y.Y.w.k.1QtQt",
".e.f.d#8.v.6.4.4.v.n.o#9#V.3#T#T.v#4#6.w.w.F#a.w.w#6.w.w.F.w.F.4.5#T#T#T#V#V#V#V#V#V#V.5.4#6#4.v.v.oa.#0#R.a.a.Qa#.F.R.vaa.1QtQt",
".t.a.a.tab.E.E.Qacad#8ae#Rabab.u#1.k.j#1.Q.E.E.Q#1.k.k.j.Q#X.q.Q#X#X#X#X#X#X#X#X#X#X#X.u#1.k.k.j.j#8#8.i.i.d.d.#.u.E.q.u.fQtQtQt",
".b.c.c.c.b.b.b#Y.e.e.e.e.a.b.c.a.dQt#N#3.a.b.b.a.d#N.g.d.a.b.b.b.c.c.t.b.c.b.b.c.b.b.c.a.d.g.g.g.gQtQtQt.h.h.h.d.a.b.b.a.dQtQtQt",
".c.c.c.c.b.c.b.t.#.e.e.f.a.c.c.a.dQtQt.d.a#n.b.a.d.hQt.d.a.c.b.b.b.c.b.b.b.b.c.b.b.b.b.a.d.g.gQtQtQtQtQtQt.h.h.d.a.c.b.a.d.h.hQt",
".b.b.c.b.b.c.b.t.e.e.g.e.t.c.c.a.dQtQt.d.a.c.b.a.d.hQt.d.a.c.c.c.c.b.c.b.c.c.b.c.c.b.b.t.dQtQtQtQtQtQtQtQtQt.h.d.a.c.c.a.dQtQtQt"};
