/* XPM */
static char *dummy[]={
"64 64 146 2",
"Qt c None",
"#a c #000000",
"#e c #000000",
"#d c #000000",
"#Y c #000000",
"#x c #000000",
"#P c #000000",
"#f c #000000",
"ao c #000000",
"#m c #000000",
"#g c #000000",
"ap c #000000",
"#b c #000000",
"#c c #000000",
"#h c #000000",
"#H c #000000",
"#y c #000000",
"#4 c #000000",
"#n c #000000",
"#i c #000000",
"#Q c #000000",
"#W c #000000",
"ai c #000000",
"#o c #000000",
"aj c #000000",
"#z c #000000",
"#G c #000000",
"ak c #000000",
"#p c #000000",
"al c #000000",
"#I c #000000",
"am c #000000",
"an c #000000",
"#j c #000000",
"#k c #000000",
"#l c #000000",
"#w c #000000",
"#A c #000000",
"#5 c #000000",
"#q c #000000",
"#v c #000000",
"#R c #000000",
"#X c #000000",
"ac c #000000",
"#B c #000000",
"#J c #000000",
"ad c #000000",
"ae c #000000",
"#C c #000000",
"#6 c #000000",
"af c #000000",
"ag c #000000",
"#K c #000000",
"#s c #000000",
"ah c #000000",
"#t c #000000",
"#u c #000000",
"#7 c #000000",
"#L c #000000",
"#8 c #000000",
"#9 c #000000",
"a. c #000000",
"#S c #000000",
"#M c #000000",
"a# c #000000",
"aa c #000000",
"ab c #000000",
"#Z c #000000",
"#D c #000000",
"#E c #000000",
"#F c #000000",
"#T c #000000",
"#0 c #000000",
"#1 c #000000",
"#U c #000000",
"#2 c #000000",
"#3 c #000000",
"#N c #000000",
"#O c #000000",
"#V c #000000",
".H c #000008",
".j c #00b39e",
"## c #020101",
".s c #060808",
".G c #061e11",
".n c #06eba8",
".W c #080014",
".t c #080808",
".f c #0c1211",
".X c #0f0e11",
".5 c #131314",
".r c #137177",
".x c #140500",
".b c #1a2520",
".M c #1e194b",
".e c #212828",
".B c #250001",
".I c #260c0c",
"#r c #26252c",
".3 c #282829",
".# c #2b3932",
".c c #313539",
".2 c #35353a",
".D c #382966",
".d c #3a4a42",
".1 c #3d3d3d",
".m c #444448",
".L c #47474e",
".C c #490008",
".Z c #4a2121",
".4 c #51545b",
".7 c #525351",
".u c #535353",
".O c #554783",
".Y c #562f1d",
".a c #585c5e",
".6 c #655324",
".Q c #665e9a",
".v c #6d2029",
".F c #6e0023",
".S c #6f6f76",
".T c #72472d",
".A c #7291ea",
".y c #797a7c",
".g c #798487",
".V c #822d1e",
".i c #838384",
"#. c #8b682a",
".U c #946c45",
".9 c #9e7e55",
".q c #9e99a6",
".0 c #a3a3aa",
".R c #ad473d",
".h c #adb2af",
".K c #b00a35",
".w c #b14432",
".8 c #b1c4ce",
".p c #ccd3d6",
".l c #e49e87",
".z c #e5f4ff",
".k c #e67160",
".E c #e87252",
".o c #f7e0d0",
".N c #ff2f58",
".J c #ffbf75",
".P c #ffef7c",
"QtQtQtQtQtQtQtQtQtQtQtQtQtQtQtQtQtQtQtQtQtQtQtQtQtQtQtQtQtQtQtQtQtQtQtQtQtQtQtQtQtQtQtQtQtQtQtQtQtQtQtQtQtQtQtQtQtQtQtQtQtQtQtQt",
"QtQtQtQtQtQtQtQtQtQtQtQtQtQtQtQtQtQtQtQtQtQtQtQtQtQtQtQtQtQt.#.a.bQtQtQtQtQtQtQtQtQtQtQtQtQtQtQtQtQtQtQtQtQtQtQtQtQtQtQtQtQtQtQt",
"QtQtQtQtQtQtQtQtQtQtQtQtQtQtQtQtQtQtQtQtQtQtQtQtQtQtQtQtQt.c.d.e.#.bQtQtQtQtQtQtQtQtQtQtQtQtQtQtQtQtQtQtQtQtQtQtQtQtQtQtQtQtQtQt",
"QtQtQtQtQtQtQtQtQtQtQtQtQtQtQtQtQtQtQtQtQtQtQtQtQtQtQtQt.f.b.f.b.f.b.fQtQtQtQtQtQtQtQtQtQtQtQtQtQtQtQtQtQtQtQtQtQtQtQtQtQtQtQtQt",
"QtQtQtQtQtQtQtQtQtQtQtQtQtQtQtQtQtQtQtQtQtQtQtQtQtQt.b.f.b.#.b.a.b.#.b.f.bQtQtQtQtQtQtQtQtQtQtQtQtQtQtQtQtQtQtQtQtQtQtQtQtQtQtQt",
"QtQtQtQtQtQtQtQtQtQtQtQtQtQtQtQtQtQtQtQtQtQtQtQtQtQt.f.b.a.b.#.a.#.b.a.b.fQtQtQtQtQtQtQtQtQtQtQtQtQtQtQtQtQtQtQtQtQtQtQtQtQtQtQt",
"QtQtQtQtQtQtQtQtQtQtQtQtQtQtQtQtQtQtQtQtQtQtQtQtQtQt.b.f.b.g.#.g.#.g.b.f.bQtQtQtQtQtQtQtQtQtQtQtQtQtQtQtQtQtQtQtQtQtQtQtQtQtQtQt",
"QtQtQtQtQtQtQtQtQtQtQtQtQtQtQtQtQtQtQtQtQtQtQtQtQt.f.a.g.b.a.b.a.b.a.b.g.a.fQtQtQtQtQtQtQtQtQtQtQtQtQtQtQtQtQtQtQtQtQtQtQtQtQtQt",
"QtQtQtQtQtQtQtQtQtQtQtQtQtQtQtQtQtQtQt.h.i.jQtQtQt.a.b.#.a.k.b.l.l.k.a.#.b.aQtQtQtQt.m.m.mQtQtQtQtQtQtQtQtQtQtQtQtQtQtQtQtQtQtQt",
"QtQtQtQtQtQtQtQtQtQtQtQtQtQtQtQtQtQtQt.i.n.iQtQt.b.f.b.b.#.l.b.o.o.l.#.b.b.fQtQtQt.m.p.q.mQtQtQtQtQtQtQtQtQtQtQtQtQtQtQtQtQtQtQt",
"QtQtQtQtQtQtQtQtQtQtQtQtQtQtQtQtQtQtQt.r.i.h.jQtQt.b.f.#.l.o.f.o.o.o.l.#.f.b.sQt.m.p.t.p.mQtQtQtQtQtQtQtQtQtQtQtQtQtQtQtQtQtQtQt",
"QtQtQtQtQtQtQtQtQtQtQtQtQtQtQtQtQtQtQtQt.u.j.nQtQt.s.f.#.v.w.o.o.o.w.v.#.f.s.sQt.m.q.p.mQtQtQtQtQtQtQtQtQtQtQtQtQtQtQtQtQtQtQtQt",
"QtQtQtQtQtQtQtQtQtQtQtQtQtQtQtQtQtQtQtQtQt.r.h.iQt.s.f.a.h.x.w.l.w.x.h.a.f.sQt.s.y.q.mQtQtQtQtQtQtQtQtQtQtQtQtQtQtQtQtQtQtQtQtQt",
"QtQtQtQtQtQtQtQtQtQtQtQtQtQtQtQtQtQtQtQtQtQt.u.h.iQt.f.g.z.A.l.l.l.A.z.g.f.f.t.m.y.tQtQtQtQtQtQtQtQtQtQtQtQtQtQtQtQtQtQtQtQtQtQt",
"QtQtQtQtQtQtQtQtQtQtQtQtQtQtQtQtQtQtQtQtQtQtQt.i.i.i.f.a.l.o.o.o.o.o.l.a.f.b.t.B.tQtQtQtQtQtQtQtQtQtQtQtQtQtQtQtQtQtQtQtQtQtQtQt",
"QtQtQtQtQtQtQtQtQtQtQtQtQtQtQtQtQtQtQtQtQtQtQt.u.i.i.f.#.w.l.o.o.o.l.w.#.f.t.m.C.BQtQtQtQtQtQtQtQtQtQtQtQtQtQtQtQtQtQtQtQtQtQtQt",
"QtQtQtQtQtQtQtQtQtQtQtQtQtQtQtQtQtQtQtQtQtQtQtQt.i.D.f.#.v.w.l.l.l.w.v.#.f.D.y.E.F.CQtQtQtQtQtQtQtQtQtQtQtQtQtQtQtQtQtQtQtQtQtQt",
"QtQtQtQtQtQtQtQtQtQtQtQtQtQtQtQtQtQtQtQtQtQtQtQt.G.G.f.b.H.I.v.v.v.I.H.b.f.J.F.K.J.FQtQtQtQtQtQtQtQtQtQtQtQtQtQtQtQtQtQtQtQtQtQt",
"QtQtQtQtQtQtQtQtQtQtQtQtQtQtQtQtQtQtQtQtQtQtQt.G.L.L.L.b.e.H.v.w.v.H.e.b.D.M.J.N.K.E.BQtQtQtQtQtQtQtQtQtQtQtQtQtQtQtQtQtQtQtQtQt",
"QtQtQtQtQtQtQtQtQtQtQtQtQtQtQtQtQtQtQtQtQtQtQt.D.O.J.E.f.b.G.w.k.w.G.b.f.J.M.P.F.N.K.BQtQtQtQtQtQtQtQtQtQtQtQtQtQtQtQtQtQtQtQtQt",
"QtQtQtQtQtQtQtQtQtQtQtQtQtQtQtQtQtQtQtQtQtQt.s.D.Q.O.D.f.b.G.G.w.G.G.b.f.D.M.R.P.J.K.CQtQtQtQtQtQtQtQtQtQtQtQtQtQtQtQtQtQtQtQtQt",
"QtQtQtQtQtQtQtQtQtQtQtQtQtQtQtQtQtQtQtQtQtQt.D.O.Q.O.D.D.b.S.L.G.L.S.b.D.D.M.E.B.C.J.EQtQtQtQtQtQtQtQtQtQtQtQtQtQtQtQtQtQtQtQtQt",
"QtQtQtQtQtQtQtQtQtQtQtQtQtQtQtQtQtQtQtQtQt.s.J.P.E.T.D.O.f.S.S.H.S.S.f.O.D.D.M.J.F.K.CQtQtQtQtQtQtQtQtQtQtQtQtQtQtQtQtQtQtQtQtQt",
"QtQtQtQtQtQtQtQtQtQtQtQtQtQtQtQtQtQtQtQtQt.f.O.Q.T.D.T.U.f.S.L.H.L.S.f.U.T.M.O.M.E.F.FQtQtQtQtQtQtQtQtQtQtQtQtQtQtQtQtQtQtQtQtQt",
"QtQtQtQtQtQtQtQtQtQtQtQtQtQtQtQtQtQtQtQtQt.D.Q.Q.O.D.M.D.O.S.T.T.T.S.O.D.M.D.D.O.M.R.VQtQtQtQtQtQtQtQtQtQtQtQtQtQtQtQtQtQtQtQtQt",
"QtQtQtQtQtQtQtQtQtQtQtQtQtQtQtQtQtQtQtQtQt.D.Q.O.O.D.W.M.O.L.G.G.G.L.O.D.M.W.D.O.Q.M.MQtQtQtQtQtQtQtQtQtQtQtQtQtQtQtQtQtQtQtQtQt",
"QtQtQtQtQtQtQtQtQtQtQtQtQtQtQtQtQtQtQtQt.s.M.Q.O.D.f.X.M.D.L.c.G.c.L.D.M.M.W.s.O.O.O.DQtQtQtQtQtQtQtQtQtQtQtQtQtQtQtQtQtQtQtQtQt",
"QtQtQtQtQtQtQtQtQtQtQtQtQtQtQtQtQtQtQtQt.s.M.O.O.D.f.W.W.M.L.h.h.L.L.M.M.W.W.s.D.O.O.DQtQtQtQtQtQtQtQtQtQtQtQtQtQtQtQtQtQtQtQtQt",
"QtQtQtQtQtQtQtQtQtQtQtQtQtQtQtQtQtQtQtQt.s.M.O.D.M.s.Y.Y.u.Y.u.u.S.T.T.Y.T.Y.s.D.O.O.DQtQtQtQtQtQtQtQtQtQtQtQtQtQtQtQtQtQtQtQtQt",
"QtQtQtQtQtQtQtQtQtQtQtQtQtQtQtQtQtQtQtQt.s.M.O.D.M.s.X.M.G.c.T.U.T.c.G.M.Y.T.Y.D.O.O.DQtQtQtQtQtQtQtQtQtQtQtQtQtQtQtQtQtQtQtQtQt",
"QtQtQtQtQtQtQtQtQtQtQtQtQtQtQtQtQtQtQtQt.s.M.D.D.M.s.W.M.T.T.c.H.c.Z.G.M.Y.T.Y.L.0.0.LQtQtQtQtQtQtQtQtQtQtQtQtQtQtQtQtQtQtQtQtQt",
"QtQtQtQtQtQtQtQtQtQtQtQtQtQtQtQtQtQtQtQtQt.L.S.S.L.Y.Y.T.L.1.c.G.c.c.Z.Z.Z.Y.Y.c.D.D.cQtQtQtQtQtQtQtQtQtQtQtQtQtQtQtQtQtQtQtQtQt",
"QtQtQtQtQtQtQtQtQtQtQtQtQtQtQtQtQtQtQtQtQt.c.D.D.M.W.D.G.L.2.c.G.c.G.L.G.D.M.W.3.3.3.DQtQtQtQtQtQtQtQtQtQtQtQtQtQtQtQtQtQtQtQtQt",
"QtQtQtQtQtQtQtQtQtQtQtQtQtQtQtQtQtQtQtQt.4.M.#.5.t.M.O.c.6.G.Y.G.Y.G.6.c.O.D.w.l.1.7.3QtQtQtQtQtQtQtQtQtQtQtQtQtQtQtQtQtQtQtQtQt",
"QtQtQtQtQtQtQtQtQtQtQtQtQtQtQtQtQtQtQt.4.y.1.1.3.v.M.O.c.6.G.T.G.T.T.6.c.O.D.o.v.1.a.3QtQtQtQtQtQtQtQtQtQtQtQtQtQtQtQtQtQtQtQtQt",
"QtQtQtQtQtQtQtQtQtQtQtQtQtQtQtQtQtQt.4.y.y.1.3.1.W.D.c.6.6.G.U.H.U.T.c.6.c.D.w.v.a.l.3QtQtQtQtQtQtQtQtQtQtQtQtQtQtQtQtQtQtQtQtQt",
"QtQtQtQtQtQtQtQtQtQtQtQtQtQtQtQtQt.4.y.q.y.3.1.l.M.O.c.S.1.G.G.s.G.H.c.6.c.O.D.o.o.wQtQtQtQtQtQtQtQtQtQtQtQtQtQtQtQtQtQtQtQtQtQt",
"QtQtQtQtQtQtQtQtQtQtQtQtQtQtQtQtQt.m.y.q.y.t.v.w.M.O.6.S.2.H.H.H.H.H.G.S.6.O.D.M.w.f.hQtQtQtQtQtQtQtQtQtQtQtQtQtQtQtQtQtQtQtQtQt",
"QtQtQtQtQtQtQtQtQtQtQtQtQtQtQtQt.m.y.q.q.L.tQt.W.D.O.6.S.1.H.H.H.s.G.G.S.6.O.D.M.H.b.#.hQtQtQtQtQtQtQtQtQtQtQtQtQtQtQtQtQtQtQtQt",
"QtQtQtQtQtQtQtQtQtQtQtQtQtQtQtQt.m.y.q.y.m.t.t.M.D.6.S.S.c.G.s.W.W.G.c.S.S.6.O.D.M.H.f.#.iQtQtQtQtQtQtQtQtQtQtQtQtQtQtQtQtQtQtQt",
"QtQtQtQtQtQtQtQtQtQtQtQtQtQtQtQt.4.q.8.y.t.m.y.D.O.6.S.6.G.G.s.H.X.G.c.c.0.6.O.D.M.H.b.9.#QtQtQtQtQtQtQtQtQtQtQtQtQtQtQtQtQtQtQt",
"QtQtQtQtQtQtQtQtQtQtQtQtQtQtQtQt.4.q.8.m.y.y.W.D.O.6.0.L.G.H.G.s.s.G.c.G.0#..O.D.D.H.u.b.9.iQtQtQtQtQtQtQtQtQtQtQtQtQtQtQtQtQtQt",
"QtQtQtQtQtQtQtQtQtQtQtQtQtQtQt.4.y.8.8.q.y.y.M.D.O#..0.i.2.H.G.W.W.f.G.i.0.S.6.O.D.M.H.u.b.#QtQtQtQtQtQtQtQtQtQtQtQtQtQtQtQtQtQt",
"QtQtQtQtQtQtQtQtQtQtQtQtQtQtQt.4.y.8.8.q.q.W.D.O.O#..0.i.G.H.f.f.W.5.G.u.S.0#..O.D.M.HQt.u.b.iQtQtQtQtQtQtQtQtQtQtQtQtQtQtQtQtQt",
"QtQtQtQtQtQtQtQtQtQtQtQtQtQtQt.4.y.8.8.y.y.M.D.O.6.S.0.u.H.s.G.G.G.H.u.e.7.0#..O.O.D.MQtQt.u.uQtQtQtQtQtQtQtQtQtQtQtQtQtQtQtQtQt",
"QtQtQtQtQtQtQtQtQtQtQtQtQtQtQt.m.y.y.y.m.m.D.D.O#..0.S.u.H.s.G.H.G.W.G.c##.0.S.6.O.D.MQtQtQt.u.iQtQtQtQtQtQtQtQtQtQtQtQtQtQtQtQt",
"QtQtQtQtQtQtQtQtQtQtQtQtQtQtQt.m.m.m.mQt.M.D.D.O#..0.e.X.G.H.f.G.G.W.s.H##.0.0#..O.D.D.MQtQtQt.uQtQtQtQtQtQtQtQtQtQtQtQtQtQtQtQt",
"QtQtQtQtQtQtQtQtQtQtQtQtQtQtQtQtQtQtQtQt.M.D.O.O#..0########.f.G.G.f.s.t.W.S.0#..O.O.D.MQtQtQtQtQtQtQtQtQtQtQtQtQtQtQtQtQtQtQtQt",
"QtQtQtQtQtQtQtQtQtQtQtQtQtQtQtQtQtQtQtQt.D.D.O#..S.0.i.i.4##.G.f.G.G.s##.c.W.0.S#..O.D.MQtQtQtQtQtQtQtQtQtQtQtQtQtQtQtQtQtQtQtQt",
"QtQtQtQtQtQtQtQtQtQtQtQtQtQtQtQtQtQtQt#a#a#a.O#..0.0.3.4.5.s.G#b#c#c#b.G.c.4.0.0#..O#d#e#a#a#aQtQtQtQtQtQtQtQtQtQtQtQtQtQtQtQtQt",
"QtQtQtQtQtQtQtQtQtQtQtQtQtQtQtQtQt#a#a#d#f#g#h#i.0.0.4.4.5###j#k#l#l#k#j####.0.0.5###i#h#g#f#d#a#aQtQtQtQtQtQtQtQtQtQtQtQtQtQtQt",
"QtQtQtQtQtQtQtQtQtQtQtQtQtQtQtQt#a#d#m#n#o#p#l#q##.G.h.i#r###s#t#u#u#t#s##.t.5.3.a###v#w#p#o#n#m#d#aQtQtQtQtQtQtQtQtQtQtQtQtQtQt",
"QtQtQtQtQtQtQtQtQtQtQtQtQtQtQt#a#x#y#z#A#B#C#s##.5.3.3.b.t###D#E#F#F#E#D#####r.u.h.h.4#s#C#B#A#G#y#x#aQtQtQtQtQtQtQtQtQtQtQtQtQt",
"QtQtQtQtQtQtQtQtQtQtQtQtQtQt#a#d#H#I#J#K#L#M##.4.y.y.3.3.5.t#N#N#O#O#N#N####.3.3.3.3##.t#M#L#K#J#I#H#d#aQtQtQtQtQtQtQtQtQtQtQtQt",
"QtQtQtQtQtQtQtQtQtQtQtQtQtQt#a#P#Q#R#t#S#T#U##.3.3.3.5.t.5###V#V#V#V#V#V#V.t.3.4.y.y.4###U#T#S#t#R#Q#P#aQtQtQtQtQtQtQtQtQtQtQtQt",
"QtQtQtQtQtQtQtQtQtQtQtQtQtQt#a#P#W#R#t#M#T#U#############V#V#V#V#V#V#V#V#V#V.5.5.3.3.3###U#T#M#t#X#W#P#aQtQtQtQtQtQtQtQtQtQtQtQt",
"QtQtQtQtQtQtQtQtQtQtQtQtQtQt#a#Y#H#I#J#K#L#M#Z#T#0#1#U#2#2#3#N#N#O#O#N#N#3#2#############M#L#K#J#I#H#Y#aQtQtQtQtQtQtQtQtQtQtQtQt",
"QtQtQtQtQtQtQtQtQtQtQtQtQtQtQt#a#x#4#G#5#J#6#s#7#8#9a.a#aaab#D#F#F#F#F#Dabaaa#a.#9#8#7#s#6#J#5#G#4#x#aQtQtQtQtQtQtQtQtQtQtQtQtQt",
"QtQtQtQtQtQtQtQtQtQtQtQtQtQtQtQt#a#Y#g#n#o#p#w#vacadaeafag#Kah#t#u#u#tah#Kagafaeadac#v#w#p#o#n#g#Y#aQtQtQtQtQtQtQtQtQtQtQtQtQtQt",
"QtQtQtQtQtQtQtQtQtQtQtQtQtQtQtQtQt#a#a#d#f#g#h#iaiajakalaman#j#k#l#l#k#janamalakajai#i#H#g#f#d#a#aQtQtQtQtQtQtQtQtQtQtQtQtQtQtQt",
"QtQtQtQtQtQtQtQtQtQtQtQtQtQtQtQtQtQtQt#a#a#a#e#d#x#fao#gap#b#b#b#c#c#b#b#bap#gao#f#x#d#e#a#a#aQtQtQtQtQtQtQtQtQtQtQtQtQtQtQtQtQt",
"QtQtQtQtQtQtQtQtQtQtQtQtQtQtQtQtQtQtQtQtQtQtQt#a#a#a#a#a#a#a#a#a#a#a#a#a#a#a#a#a#a#a#aQtQtQtQtQtQtQtQtQtQtQtQtQtQtQtQtQtQtQtQtQt",
"QtQtQtQtQtQtQtQtQtQtQtQtQtQtQtQtQtQtQtQtQtQtQtQtQtQtQtQtQtQtQtQtQtQtQtQtQtQtQtQtQtQtQtQtQtQtQtQtQtQtQtQtQtQtQtQtQtQtQtQtQtQtQtQt",
"QtQtQtQtQtQtQtQtQtQtQtQtQtQtQtQtQtQtQtQtQtQtQtQtQtQtQtQtQtQtQtQtQtQtQtQtQtQtQtQtQtQtQtQtQtQtQtQtQtQtQtQtQtQtQtQtQtQtQtQtQtQtQtQt"};
