/* XPM */
static char *dummy[]={
"64 64 134 2",
"Qt c None",
".Y c #000000",
"a# c #000000",
".1 c #000000",
"#N c #000000",
"#i c #000000",
"#D c #000000",
".2 c #000000",
"aa c #000000",
"#. c #000000",
".3 c #000000",
"ab c #000000",
"ac c #000000",
"ad c #000000",
"#4 c #000000",
"#t c #000000",
"#j c #000000",
"#P c #000000",
"## c #000000",
"#5 c #000000",
"#E c #000000",
"#L c #000000",
"#6 c #000000",
"#a c #000000",
"#7 c #000000",
"#k c #000000",
"#s c #000000",
"#8 c #000000",
"#b c #000000",
"#9 c #000000",
"#u c #000000",
"a. c #000000",
".6 c #000000",
".7 c #000000",
".8 c #000000",
".9 c #000000",
"#h c #000000",
"#l c #000000",
"#Q c #000000",
"#g c #000000",
"#F c #000000",
"#M c #000000",
"#Y c #000000",
"#m c #000000",
"#v c #000000",
"#Z c #000000",
"#0 c #000000",
"#n c #000000",
"#R c #000000",
"#1 c #000000",
"#2 c #000000",
"#c c #000000",
"#d c #000000",
"#3 c #000000",
"#e c #000000",
"#f c #000000",
"#S c #000000",
"#w c #000000",
"#T c #000000",
"#U c #000000",
"#V c #000000",
"#G c #000000",
"#C c #000000",
"#W c #000000",
"#X c #000000",
"#o c #000000",
"#B c #000000",
"#p c #000000",
"#q c #000000",
"#r c #000000",
"#H c #000000",
"#O c #000000",
"#K c #000000",
"#x c #000000",
"#y c #000000",
"#z c #000000",
"#A c #000000",
"#I c #000000",
".Z c #000008",
".Q c #005477",
".k c #00b39e",
".4 c #020101",
".P c #060808",
".A c #061e11",
".o c #06eba8",
".0 c #080014",
".q c #080808",
".# c #0c1211",
"#J c #0f0e11",
".s c #131314",
".t c #137177",
".a c #1a2520",
".y c #1e194b",
".f c #212828",
".x c #250001",
".5 c #26252c",
".U c #282829",
".b c #2b3932",
".r c #313539",
".C c #382966",
".c c #3a4a42",
".v c #3d3d3d",
".j c #444448",
".e c #47474e",
".F c #490008",
".h c #51545b",
".W c #525351",
".u c #535353",
".I c #554783",
".R c #562f1d",
".d c #585c5e",
".X c #655324",
".O c #665e9a",
".z c #6e0023",
".S c #6f6f76",
".w c #797a7c",
".g c #798487",
".M c #822d1e",
".l c #838384",
".i c #9ca9ae",
".V c #9e7e55",
".n c #9e99a6",
".T c #a3a3aa",
".L c #ad473d",
".m c #adb2af",
".D c #b00a35",
".H c #bea375",
".N c #c91c23",
".p c #ccd3d6",
".J c #e5f4ff",
".B c #e87252",
".E c #ff2f58",
".G c #ffbf75",
".K c #ffef7c",
"QtQtQtQtQtQtQtQtQtQtQtQtQtQtQtQtQtQtQtQtQtQtQtQtQtQtQtQtQtQtQtQtQtQtQtQtQtQtQtQtQtQtQtQtQtQtQtQtQtQtQtQtQtQtQtQtQtQtQtQtQtQtQtQt",
"QtQtQtQtQtQtQtQtQtQtQtQtQtQtQtQtQtQtQtQtQtQtQtQtQtQtQtQtQtQtQtQtQtQtQtQtQtQtQtQtQtQtQtQtQtQtQtQtQtQtQtQtQtQtQtQtQtQtQtQtQtQtQtQt",
"QtQtQtQtQtQtQtQtQtQtQtQtQtQtQtQtQtQtQtQtQtQtQtQtQtQtQtQtQtQt.#.#.#QtQtQtQtQtQtQtQtQtQtQtQtQtQtQtQtQtQtQtQtQtQtQtQtQtQtQtQtQtQtQt",
"QtQtQtQtQtQtQtQtQtQtQtQtQtQtQtQtQtQtQtQtQtQtQtQtQtQtQtQt.#.a.b.a.a.a.#QtQtQtQtQtQtQtQtQtQtQtQtQtQtQtQtQtQtQtQtQtQtQtQtQtQtQtQtQt",
"QtQtQtQtQtQtQtQtQtQtQtQtQtQtQtQtQtQtQtQtQtQtQtQtQtQt.a.#.a.c.a.c.c.a.a.#.aQtQtQtQtQtQtQtQtQtQtQtQtQtQtQtQtQtQtQtQtQtQtQtQtQtQtQt",
"QtQtQtQtQtQtQtQtQtQtQtQtQtQtQtQtQtQtQtQtQtQtQtQtQtQt.#.a.d.d.b.d.d.e.a.f.#QtQtQtQtQtQtQtQtQtQtQtQtQtQtQtQtQtQtQtQtQtQtQtQtQtQtQt",
"QtQtQtQtQtQtQtQtQtQtQtQtQtQtQtQtQtQtQtQtQtQtQtQtQtQt.a.d.c.a.b.g.g.h.a.c.aQtQtQtQtQtQtQtQtQtQtQtQtQtQtQtQtQtQtQtQtQtQtQtQtQtQtQt",
"QtQtQtQtQtQtQtQtQtQtQtQtQtQtQtQtQtQtQtQtQtQtQtQtQt.#.b.c.a.a.c.i.g.h.b.a.b.#QtQtQtQtQtQtQtQtQtQtQtQtQtQtQtQtQtQtQtQtQtQtQtQtQtQt",
"QtQtQtQtQtQtQtQtQtQtQtQtQtQtQtQtQtQtQtQtQtQtQtQtQt.a.c.b.#.b.c.i.g.c.b.#.c.aQtQtQtQtQtQtQtQtQtQtQtQtQtQtQtQtQtQtQtQtQtQtQtQtQtQt",
"QtQtQtQtQtQtQtQtQtQtQtQtQtQtQtQtQtQt.j.jQtQtQtQt.a.#.b.a.#.b.c.g.d.c.f.#.b.#QtQtQt.k.l.mQtQtQtQtQtQtQtQtQtQtQtQtQtQtQtQtQtQtQtQt",
"QtQtQtQtQtQtQtQtQtQtQtQtQtQtQtQtQt.j.n.n.jQtQtQt.#.b.a.#.a.b.c.g.h.b.a.#.a.bQtQtQt.l.o.lQtQtQtQtQtQtQtQtQtQtQtQtQtQtQtQtQtQtQtQt",
"QtQtQtQtQtQtQtQtQtQtQtQtQtQtQtQtQt.j.p.q.p.qQt.#Qt.#.a.#.a.r.d.g.c.b.#.s.a.#QtQt.k.m.l.tQtQtQtQtQtQtQtQtQtQtQtQtQtQtQtQtQtQtQtQt",
"QtQtQtQtQtQtQtQtQtQtQtQtQtQtQtQtQtQt.j.p.n.jQtQtQt.#.#.#.a.a.d.d.e.b.#.#.#.#QtQt.o.k.uQtQtQtQtQtQtQtQtQtQtQtQtQtQtQtQtQtQtQtQtQt",
"QtQtQtQtQtQtQtQtQtQtQtQtQtQtQtQtQtQtQt.q.v.w.q.xQt.q.j.v.v.a.d.c.d.r.#.s.#QtQt.u.m.uQtQtQtQtQtQtQtQtQtQtQtQtQtQtQtQtQtQtQtQtQtQt",
"QtQtQtQtQtQtQtQtQtQtQtQtQtQtQtQtQtQtQtQt.q.j.n.qQt.y.y.q.n.#.d.b.d.b.#.y.y.y.l.t.uQtQtQtQtQtQtQtQtQtQtQtQtQtQtQtQtQtQtQtQtQtQtQt",
"QtQtQtQtQtQtQtQtQtQtQtQtQtQtQtQtQtQtQtQtQt.q.j.j.q.e.e.y.j.#.c.b.d.a.#.y.y.u.l.uQtQtQtQtQtQtQtQtQtQtQtQtQtQtQtQtQtQtQtQtQtQtQtQt",
"QtQtQtQtQtQtQtQtQtQtQtQtQtQtQtQtQtQtQtQtQt.z.q.n.j.q.A.y.q.#.b.v.c.f.#.m.m.m.u.rQtQtQtQtQtQtQtQtQtQtQtQtQtQtQtQtQtQtQtQtQtQtQtQt",
"QtQtQtQtQtQtQtQtQtQtQtQtQtQtQtQtQtQtQtQt.x.B.q.n.j.q.q.C.C.#.b.c.b.a.a.a.a.l.m.AQtQtQtQtQtQtQtQtQtQtQtQtQtQtQtQtQtQtQtQtQtQtQtQt",
"QtQtQtQtQtQtQtQtQtQtQtQtQtQtQtQtQtQtQtQt.x.D.E.q.j.n.w.q.C.#.a.c.b.a.b.#.l.a.m.yQtQtQtQtQtQtQtQtQtQtQtQtQtQtQtQtQtQtQtQtQtQtQtQt",
"QtQtQtQtQtQtQtQtQtQtQtQtQtQtQtQtQtQtQtQt.F.D.G.q.n.w.w.w.q.#.a.d.b.a.c.#.H.a.l.y.yQtQtQtQtQtQtQtQtQtQtQtQtQtQtQtQtQtQtQtQtQtQtQt",
"QtQtQtQtQtQtQtQtQtQtQtQtQtQtQtQtQtQtQtQt.B.G.F.q.w.n.j.w.w.#.b.d.b.v.c.a.u.u.u.C.yQtQtQtQtQtQtQtQtQtQtQtQtQtQtQtQtQtQtQtQtQtQtQt",
"QtQtQtQtQtQtQtQtQtQtQtQtQtQtQtQtQtQtQtQt.F.D.z.G.j.p.w.e.j.#.v.d.b.c.b.a.u.C.I.I.CQtQtQtQtQtQtQtQtQtQtQtQtQtQtQtQtQtQtQtQtQtQtQt",
"QtQtQtQtQtQtQtQtQtQtQtQtQtQtQtQtQtQtQtQt.z.q.B.y.q.J.n.q.#.f.v.d.b.d.a.b.y.y.B.K.B.LQtQtQtQtQtQtQtQtQtQtQtQtQtQtQtQtQtQtQtQtQtQt",
"QtQtQtQtQtQtQtQtQtQtQtQtQtQtQtQtQtQtQtQt.M.q.q.q.q.p.n.q.s.a.c.d.a.d.#.b.j.y.C.I.I.yQtQtQtQtQtQtQtQtQtQtQtQtQtQtQtQtQtQtQtQtQtQt",
"QtQtQtQtQtQtQtQtQtQtQtQtQtQtQtQtQtQtQtQt.y.N.q.j.q.j.J.q.#.b.c.d.a.c.#.b.j.y.y.I.O.yQtQtQtQtQtQtQtQtQtQtQtQtQtQtQtQtQtQtQtQtQtQt",
"QtQtQtQtQtQtQtQtQtQtQtQtQtQtQtQtQtQtQtQt.y.q.q.w.q.w.j.n.a.b.b.d.#.c.P.b.a.j.y.I.O.yQtQtQtQtQtQtQtQtQtQtQtQtQtQtQtQtQtQtQtQtQtQt",
"QtQtQtQtQtQtQtQtQtQtQtQtQtQtQtQtQtQtQtQt.C.q.N.j.Q.j.j.p.b.a.b.c.#.b.P.b.a.w.y.O.O.yQtQtQtQtQtQtQtQtQtQtQtQtQtQtQtQtQtQtQtQtQtQt",
"QtQtQtQtQtQtQtQtQtQtQtQtQtQtQtQtQtQtQtQt.y.C.q.wQt.Q.q.w.b.#.b.c.P.b.P.a.b.n.y.O.O.CQtQtQtQtQtQtQtQtQtQtQtQtQtQtQtQtQtQtQtQtQtQt",
"QtQtQtQtQtQtQtQtQtQtQtQtQtQtQtQtQtQtQtQt.y.C.q.j.w.q.j.P.b.#.f.c.P.a.P.#.b.p.j.I.O.CQtQtQtQtQtQtQtQtQtQtQtQtQtQtQtQtQtQtQtQtQtQt",
"QtQtQtQtQtQtQtQtQtQtQtQtQtQtQtQtQtQtQtQt.y.y.C.y.q.h.m.P.b.f.a.b.P.a.#.s.b.w.w.I.I.CQtQtQtQtQtQtQtQtQtQtQtQtQtQtQtQtQtQtQtQtQtQt",
"QtQtQtQtQtQtQtQtQtQtQtQtQtQtQtQtQtQtQtQt.y.y.y.y.R.q.l.P.b.a.#.b.P.q.P.P.b.w.j.I.I.CQtQtQtQtQtQtQtQtQtQtQtQtQtQtQtQtQtQtQtQtQtQt",
"QtQtQtQtQtQtQtQtQtQtQtQtQtQtQtQtQtQtQtQt.e.S.S.j.R.m.#.P.a.b.#.b.#.P.P.J.a.n.j.T.T.eQtQtQtQtQtQtQtQtQtQtQtQtQtQtQtQtQtQtQtQtQtQt",
"QtQtQtQtQtQtQtQtQtQtQtQtQtQtQtQtQtQtQtQt.y.s.s.q.m.b.#.P.#.b.#.b.#.P.J.q.a.J.w.j.C.rQtQtQtQtQtQtQtQtQtQtQtQtQtQtQtQtQtQtQtQtQtQt",
"QtQtQtQtQtQtQtQtQtQtQtQtQtQtQtQtQtQtQtQt.s.v.U.s.b.#.u.C.#.b.#.a.#.j.p.J.q.J.p.n.j.CQtQtQtQtQtQtQtQtQtQtQtQtQtQtQtQtQtQtQtQtQtQt",
"QtQtQtQtQtQtQtQtQtQtQtQtQtQtQtQtQtQtQtQt.s.v.s.m.#.a.u.C.#.b.#.a.#.j.w.J.j.q.J.J.n.jQtQtQtQtQtQtQtQtQtQtQtQtQtQtQtQtQtQtQtQtQtQt",
"QtQtQtQtQtQtQtQtQtQtQtQtQtQtQtQtQtQtQtQt.s.U.m.b.a.u.C.A.#.b.#.a.P.C.w.p.J.q.j.J.p.p.nQtQtQtQtQtQtQtQtQtQtQtQtQtQtQtQtQtQtQtQtQt",
"QtQtQtQtQtQtQtQtQtQtQtQtQtQtQtQtQtQtQtQtQt.m.b.#.u.C.C.A.I.a.#.s.y.C.j.n.J.j.j.p.J.J.J.wQtQtQtQtQtQtQtQtQtQtQtQtQtQtQtQtQtQtQtQt",
"QtQtQtQtQtQtQtQtQtQtQtQtQtQtQtQtQtQtQtQtQt.b.#.a.u.C.C.r.I.#.s.P.C.C.r.j.p.p.q.q.j.n.J.n.wQtQtQtQtQtQtQtQtQtQtQtQtQtQtQtQtQtQtQt",
"QtQtQtQtQtQtQtQtQtQtQtQtQtQtQtQtQtQtQtQt.m.#.a.u.C.C.C.r.I.#.#.C.C.C.r.j.p.J.j.q.q.q.n.J.n.wQtQtQtQtQtQtQtQtQtQtQtQtQtQtQtQtQtQt",
"QtQtQtQtQtQtQtQtQtQtQtQtQtQtQtQtQtQtQt.m.b.a.u.I.I.C.r.I.I.I.#.I.C.C.I.j.n.J.n.qQt.q.q.J.J.wQtQtQtQtQtQtQtQtQtQtQtQtQtQtQtQtQtQt",
"QtQtQtQtQtQtQtQtQtQtQtQtQtQtQtQtQtQt.l.b.#.u.C.I.I.C.r.I.I.I.I.I.C.C.I.r.w.p.J.j.q.q.q.n.J.p.jQtQtQtQtQtQtQtQtQtQtQtQtQtQtQtQtQt",
"QtQtQtQtQtQtQtQtQtQtQtQtQtQtQtQtQtQt.b.V.a.u.C.I.I.C.r.I.I.O.I.I.C.C.I.r.w.p.J.n.q.q.q.w.p.J.jQtQtQtQtQtQtQtQtQtQtQtQtQtQtQtQtQt",
"QtQtQtQtQtQtQtQtQtQtQtQtQtQtQtQtQt.b.V.a.W.u.C.I.I.C.r.I.I.O.I.I.C.C.I.r.I.j.p.J.J.n.w.w.p.J.jQtQtQtQtQtQtQtQtQtQtQtQtQtQtQtQtQt",
"QtQtQtQtQtQtQtQtQtQtQtQtQtQtQtQtQt.a.a.hQt.C.I.I.I.r.I.I.O.O.I.I.C.C.I.I.r.C.j.n.J.J.p.n.p.J.w.jQtQtQtQtQtQtQtQtQtQtQtQtQtQtQtQt",
"QtQtQtQtQtQtQtQtQtQtQtQtQtQtQtQt.l.a.uQt.y.C.I.I.I.r.I.I.O.O.O.I.I.C.I.O.r.C.I.j.w.n.J.p.p.J.n.jQtQtQtQtQtQtQtQtQtQtQtQtQtQtQtQt",
"QtQtQtQtQtQtQtQtQtQtQtQtQtQtQtQt.u.uQtQt.C.C.I.I.O.r.I.I.O.O.O.I.I.C.I.O.r.I.I.I.j.w.n.J.J.J.p.jQtQtQtQtQtQtQtQtQtQtQtQtQtQtQtQt",
"QtQtQtQtQtQtQtQtQtQtQtQtQtQtQt.l.uQtQt.y.C.I.I.I.O.r.I.O.O.O.O.I.I.C.I.O.r.I.I.I.I.j.w.p.p.J.p.jQtQtQtQtQtQtQtQtQtQtQtQtQtQtQtQt",
"QtQtQtQtQtQtQtQtQtQtQtQtQtQtQt.uQtQtQt.y.C.I.I.O.O.X.I.O.O.O.O.I.I.C.I.O.X.O.I.I.I.C.y.j.w.n.p.wQtQtQtQtQtQtQtQtQtQtQtQtQtQtQtQt",
"QtQtQtQtQtQtQtQtQtQtQtQtQtQtQtQtQtQtQt.y.C.I.I.O.O.X.I.O.O.O.O.I.I.C.I.O.X.O.I.I.I.C.yQt.j.w.n.jQtQtQtQtQtQtQtQtQtQtQtQtQtQtQtQt",
"QtQtQtQtQtQtQtQtQtQtQtQtQtQtQtQtQt.Y.Y.Z.0.C.I.O.O.X.I.O.O.O.O.I.I.C.I.O.X.O.I.I.C.0.Z.Y.YQt.j.jQtQtQtQtQtQtQtQtQtQtQtQtQtQtQtQt",
"QtQtQtQtQtQtQtQtQtQtQtQtQtQtQt.Y.Y.1.2.3.4.U.h.h.5.4.s.6.7.8.9.9.8.s.s.h.U.s.0.0.0.Z.3.2.1.Y.YQtQtQtQtQtQtQtQtQtQtQtQtQtQtQtQtQt",
"QtQtQtQtQtQtQtQtQtQtQtQtQtQt.Y.1#.###a#b.9.4.s.U.U.s.q#c#d#e#f#f#e.P.4.s.s.4.q.q#g#h#b#a###..1.YQtQtQtQtQtQtQtQtQtQtQtQtQtQtQtQt",
"QtQtQtQtQtQtQtQtQtQtQtQtQt.Y#i#j#k#l#m#n.h.U.h.h.h.s.q#o#p#q#r#r#q.q.U.h.U.s.U.4.4#d#n#m#l#s#j#i.YQtQtQtQtQtQtQtQtQtQtQtQtQtQtQt",
"QtQtQtQtQtQtQtQtQtQtQtQt.Y.1#t#u#v#c#w.P.4.w.s.u.U.4#x#y#z#z#A#A#z.4.s.U.U.h.s.s.4#B#C#w#c#v#u#t.1.YQtQtQtQtQtQtQtQtQtQtQtQtQtQt",
"QtQtQtQtQtQtQtQtQtQtQtQt.Y#D#E#F#e#G#H.4.U.h.w.w.h.s#I#I#I#I#I#I#I.q.U.h.h.U#J.P.4#y#K#H#G#e#F#E#D.YQtQtQtQtQtQtQtQtQtQtQtQtQtQt",
"QtQtQtQtQtQtQtQtQtQtQtQt.Y#D#L#F#e#C#H.4.4.s.h.h.U.4#I#I#I#I#I#I#I.4#J.U.U.U.4.4#A#y#K#H#C#e#M#L#D.YQtQtQtQtQtQtQtQtQtQtQtQtQtQt",
"QtQtQtQtQtQtQtQtQtQtQtQt.Y#N#t#u#v#c#w#C#B.4.4.4.4.4#x#y#z#z#A#A#z#z.4.4.4.4.4#O#H#B#C#w#c#v#u#t#N.YQtQtQtQtQtQtQtQtQtQtQtQtQtQt",
"QtQtQtQtQtQtQtQtQtQtQtQtQt.Y#i#P#s#Q#v#R#d#S#T#U#V#W#X#o#p#r#r#r#r#p#o#X#W#V#U#T#S#d#R#v#Q#s#P#i.YQtQtQtQtQtQtQtQtQtQtQtQtQtQtQt",
"QtQtQtQtQtQtQtQtQtQtQtQtQtQt.Y#N.3###a#b#h#g#Y#Z#0#1#2#c#3#e#f#f#e#3#c#2#1#0#Z#Y#g#h#b#a##.3#N.YQtQtQtQtQtQtQtQtQtQtQtQtQtQtQtQt",
"QtQtQtQtQtQtQtQtQtQtQtQtQtQtQt.Y.Y.1.2.3#4#5#6#7#8#9a..6.7.8.9.9.8.7.6a.#9#8#7#6#5#t.3.2.1.Y.YQtQtQtQtQtQtQtQtQtQtQtQtQtQtQtQtQt",
"QtQtQtQtQtQtQtQtQtQtQtQtQtQtQtQtQt.Y.Y.Ya#.1#i.2aa.3abacacacadadacacacab.3aa.2#i.1a#.Y.Y.YQtQtQtQtQtQtQtQtQtQtQtQtQtQtQtQtQtQtQt",
"QtQtQtQtQtQtQtQtQtQtQtQtQtQtQtQtQtQtQtQtQt.Y.Y.Y.Y.Y.Y.Y.Y.Y.Y.Y.Y.Y.Y.Y.Y.Y.Y.Y.YQtQtQtQtQtQtQtQtQtQtQtQtQtQtQtQtQtQtQtQtQtQtQt",
"QtQtQtQtQtQtQtQtQtQtQtQtQtQtQtQtQtQtQtQtQtQtQtQtQtQtQtQtQtQtQtQtQtQtQtQtQtQtQtQtQtQtQtQtQtQtQtQtQtQtQtQtQtQtQtQtQtQtQtQtQtQtQtQt",
"QtQtQtQtQtQtQtQtQtQtQtQtQtQtQtQtQtQtQtQtQtQtQtQtQtQtQtQtQtQtQtQtQtQtQtQtQtQtQtQtQtQtQtQtQtQtQtQtQtQtQtQtQtQtQtQtQtQtQtQtQtQtQtQt"};
