/* XPM */
static char *dummy[]={
"64 64 138 2",
"Qt c None",
".6 c #000000",
".7 c #000000",
".8 c #000000",
"#R c #000000",
".9 c #000000",
"#I c #000000",
"#. c #000000",
"ae c #000000",
"#d c #000000",
"## c #000000",
"af c #000000",
"ag c #000000",
"ah c #000000",
"#a c #000000",
"#x c #000000",
"#n c #000000",
"#U c #000000",
"#e c #000000",
"#b c #000000",
"#J c #000000",
"#P c #000000",
"#c c #000000",
"#f c #000000",
"#9 c #000000",
"#o c #000000",
"#w c #000000",
"a. c #000000",
"#g c #000000",
"a# c #000000",
"#y c #000000",
"aa c #000000",
"ab c #000000",
"ac c #000000",
"ad c #000000",
"#h c #000000",
"#m c #000000",
"#p c #000000",
"#V c #000000",
"#i c #000000",
"#3 c #000000",
"#K c #000000",
"#Q c #000000",
"#j c #000000",
"#q c #000000",
"#z c #000000",
"#4 c #000000",
"#5 c #000000",
"#r c #000000",
"#W c #000000",
"#6 c #000000",
"#7 c #000000",
"#A c #000000",
"#s c #000000",
"#8 c #000000",
"#k c #000000",
"#l c #000000",
"#t c #000000",
"#B c #000000",
"#u c #000000",
"#X c #000000",
"#Y c #000000",
"#L c #000000",
"#C c #000000",
"#Z c #000000",
"#0 c #000000",
"#1 c #000000",
"#D c #000000",
"#2 c #000000",
"#v c #000000",
"#E c #000000",
"#F c #000000",
"#S c #000000",
"#M c #000000",
"#T c #000000",
"#N c #000000",
"#H c #000000",
"#G c #000000",
"#O c #000000",
".1 c #000008",
".s c #00b39e",
".4 c #020101",
".g c #060808",
".C c #061e11",
".r c #06eba8",
".Y c #080014",
".u c #080808",
".d c #0c1211",
".A c #0f0e11",
".e c #131314",
".q c #137177",
".v c #140500",
".a c #1a2520",
".D c #1e194b",
".h c #212828",
".o c #26252c",
".0 c #282829",
".c c #2b3932",
".I c #313539",
".R c #35353a",
".H c #382966",
".# c #3a4a42",
".i c #3d3d3d",
".B c #444448",
".j c #463626",
".E c #47474e",
".Z c #4a2121",
".L c #51545b",
".2 c #525351",
".x c #535353",
".J c #554783",
".P c #562f1d",
".G c #563521",
".b c #585c5e",
".3 c #655324",
".K c #665e9a",
".t c #6d2029",
".M c #6f6f76",
".N c #72472d",
".z c #7291ea",
".X c #797a7c",
".f c #798487",
".m c #838384",
".5 c #8b682a",
".Q c #946c45",
".F c #9e7e55",
".V c #9e99a6",
".O c #a3a3aa",
".S c #ad473d",
".n c #adb2af",
".w c #b14432",
".W c #ccd3d6",
".l c #e49e87",
".y c #e5f4ff",
".k c #e67160",
".T c #e87252",
".p c #f7e0d0",
".U c #ffbf75",
"QtQtQtQtQtQtQtQtQtQtQtQtQtQtQtQtQtQtQtQtQtQtQtQtQtQtQtQtQtQtQtQtQtQtQtQtQtQtQtQtQtQtQtQtQtQtQtQtQtQtQtQtQtQtQtQtQtQtQtQtQtQtQtQt",
"QtQtQtQtQtQtQtQtQtQtQtQtQtQtQtQtQtQtQtQtQtQt.#.a.aQtQtQtQtQtQtQtQtQtQtQtQtQtQtQtQtQtQtQtQtQtQtQtQtQtQtQtQtQtQtQtQtQtQtQtQtQtQtQt",
"QtQtQtQtQtQtQtQtQtQtQtQtQtQtQtQtQtQtQtQtQt.#.b.#.c.aQtQtQt.d.e.d.d.dQtQtQtQtQtQtQtQtQtQtQtQtQtQtQtQtQtQtQtQtQtQtQtQtQtQtQtQtQtQt",
"QtQtQtQtQtQtQtQtQtQtQtQtQtQtQtQtQtQtQtQt.b.f.b.c.a.b.f.g.e.a.h.a.#.#.aQtQtQtQtQtQtQtQtQtQtQtQtQtQtQtQtQtQtQtQtQtQtQtQtQtQtQtQtQt",
"QtQtQtQtQtQtQtQtQtQtQtQtQtQtQtQtQtQtQtQt.f.b.#.a.c.f.g.d.h.a.i.c.a.c.b.cQtQtQtQtQtQtQtQtQtQtQtQtQtQtQtQtQtQtQtQtQtQtQtQtQtQtQtQt",
"QtQtQtQtQtQtQtQtQtQtQtQtQtQtQtQtQtQtQt.a.f.c.#.h.d.g.d.a.c.#.#.b.c.a.c.f.cQt.dQtQtQtQtQtQtQtQtQtQtQtQtQtQtQtQtQtQtQtQtQtQtQtQtQt",
"QtQtQtQtQtQtQtQtQtQtQtQtQtQtQtQtQtQtQt.a.b.c.#.d.d.d.a.c.d.a.a.a.f.c.c.f.c.aQtQtQtQtQtQtQtQtQtQtQtQtQtQtQtQtQtQtQtQtQtQtQtQtQtQt",
"QtQtQtQtQtQtQtQtQtQtQtQtQtQtQtQtQtQtQt.c.b.a.#.d.d.a.a.d.a.#.b.f.a.b.c.b.aQtQtQtQtQtQtQtQtQtQtQtQtQtQtQtQtQtQtQtQtQtQtQtQtQtQtQt",
"QtQtQtQtQtQtQtQtQtQtQtQtQtQtQtQtQtQtQt.c.#.a.cQt.d.j.d.a.c.h.c.a.b.k.l.l.a.dQtQtQtQtQtQtQtQtQtQtQtQtQtQtQtQtQtQtQtQtQtQtQtQtQtQt",
"QtQtQtQtQtQtQtQtQtQtQtQtQtQtQtQtQtQtQt.a.#.m.nQtQt.d.d.c.a.d.o.c.l.p.p.p.aQt.dQtQtQtQtQtQtQtQtQtQtQtQtQtQtQtQtQtQtQtQtQtQtQtQtQt",
"QtQtQtQtQtQtQtQtQtQtQtQtQtQtQtQtQtQtQt.a.c.q.r.s.d.e.a.a.d.d.c.t.t.k.p.p.dQt.dQtQtQtQtQtQtQtQtQtQtQtQtQtQtQtQtQtQtQtQtQtQtQtQtQt",
"QtQtQtQtQtQtQtQtQtQtQtQtQtQtQtQtQtQtQt.a.c.m.n.m.d.d.a.d.l.d.c.u.n.v.w.l.kQtQtQtQtQtQtQtQtQtQtQtQtQtQtQtQtQtQtQtQtQtQtQtQtQtQtQt",
"QtQtQtQtQtQtQtQtQtQtQtQtQtQtQtQtQtQtQt.c.a.x.s.rQt.a.d.a.k.d.#.u.y.z.l.l.kQtQtQtQtQtQtQtQtQtQtQtQtQtQtQtQtQtQtQtQtQtQtQtQtQtQtQt",
"QtQtQtQtQtQtQtQtQtQtQtQtQtQtQtQtQtQt.a.#.d.c.q.n.mQt.a.d.A.d.#.l.p.p.p.p.w.BQtQtQtQtQtQtQtQtQtQtQtQtQtQtQtQtQtQtQtQtQtQtQtQtQtQt",
"QtQtQtQtQtQtQtQtQtQtQtQtQtQtQtQtQtQt.c.#.d.c.d.n.mQt.d.d.g.d.#.l.p.p.p.l.w.BQtQtQtQtQtQtQtQtQtQtQtQtQtQtQtQtQtQtQtQtQtQtQtQtQtQt",
"QtQtQtQtQtQtQtQtQtQtQtQtQtQtQtQtQtQt.#.c.d.c.d.m.n.x.g.C.C.D.d.#.l.p.l.w.d.uQtQtQtQtQtQtQtQtQtQtQtQtQtQtQtQtQtQtQtQtQtQtQtQtQtQt",
"QtQtQtQtQtQtQtQtQtQtQtQtQtQtQtQtQtQt.E.c.a.a.d.x.m.m.C.C.E.E.d.c.k.l.w.C.dQtQtQtQtQtQtQtQtQtQtQtQtQtQtQtQtQtQtQtQtQtQtQtQtQtQtQt",
"QtQtQtQtQtQtQtQtQtQtQtQtQtQtQtQtQt.a.b.a.c.aQt.x.x.F.C.E.E.B.E.a.#.D.t.E.g.dQtQtQtQtQtQtQtQtQtQtQtQtQtQtQtQtQtQtQtQtQtQtQtQtQtQt",
"QtQtQtQtQtQtQtQtQtQtQtQtQtQtQtQtQt.c.b.a.c.dQtQt.G.s.D.D.H.E.E.d.c.D.w.I.E.dQtQtQtQtQtQtQtQtQtQtQtQtQtQtQtQtQtQtQtQtQtQtQtQtQtQt",
"QtQtQtQtQtQtQtQtQtQtQtQtQtQtQtQtQt.#.b.d.a.dQtQt.q.F.D.H.J.D.H.E.d.#.E.C.I.gQtQtQtQtQtQtQtQtQtQtQtQtQtQtQtQtQtQtQtQtQtQtQtQtQtQt",
"QtQtQtQtQtQtQtQtQtQtQtQtQtQtQtQt.a.#.b.d.a.dQtQtQt.x.H.J.K.J.H.D.D.L.M.E.C.BQtQtQtQtQtQtQtQtQtQtQtQtQtQtQtQtQtQtQtQtQtQtQtQtQtQt",
"QtQtQtQtQtQtQtQtQtQtQtQtQtQtQtQt.a.c.#.h.e.dQtQtQtQt.N.M.O.M.P.D.Q.a.R.E.C.IQtQtQtQtQtQtQtQtQtQtQtQtQtQtQtQtQtQtQtQtQtQtQtQtQtQt",
"QtQtQtQtQtQtQtQtQtQtQtQtQtQtQtQt.c.a.#.h.d.dQtQtQtQt.S.T.U.T.H.D.J.d.M.C.C.CQtQtQtQtQtQtQtQtQtQtQtQtQtQtQtQtQtQtQtQtQtQtQtQtQtQt",
"QtQtQtQtQtQtQtQtQtQtQtQtQtQtQtQt.E.a.c.a.a.dQtQtQt.D.H.J.J.S.D.H.J.J.M.N.N.PQtQtQtQtQtQtQtQtQtQtQtQtQtQtQtQtQtQtQtQtQtQtQtQtQtQt",
"QtQtQtQtQtQtQtQtQtQtQtQtQtQtQtQt.E.d.c.d.a.dQtQtQt.B.D.J.K.D.D.H.H.J.M.I.I.CQtQtQtQtQtQtQtQtQtQtQtQtQtQtQtQtQtQtQtQtQtQtQtQtQtQt",
"QtQtQtQtQtQtQtQtQtQtQtQtQtQtQtQt.#.d.c.d.a.dQtQtQt.V.H.J.K.J.D.H.H.J.E.C.I.CQtQtQtQtQtQtQtQtQtQtQtQtQtQtQtQtQtQtQtQtQtQtQtQtQtQt",
"QtQtQtQtQtQtQtQtQtQtQtQtQtQtQtQt.E.d.a.e.d.dQtQt.B.W.H.K.K.J.N.G.G.P.E.N.n.mQtQtQtQtQtQtQtQtQtQtQtQtQtQtQtQtQtQtQtQtQtQtQtQtQtQt",
"QtQtQtQtQtQtQtQtQtQtQtQtQtQtQtQt.#.d.a.e.dQtQtQt.X.W.D.J.K.J.Y.G.N.P.Q.Q.N.PQtQtQtQtQtQtQtQtQtQtQtQtQtQtQtQtQtQtQtQtQtQtQtQtQtQt",
"QtQtQtQtQtQtQtQtQtQtQtQtQtQtQt.a.#.d.a.e.dQtQtQt.X.W.D.J.J.J.P.N.N.P.E.C.Z.C.EQtQtQtQtQtQtQtQtQtQtQtQtQtQtQtQtQtQtQtQtQtQtQtQtQt",
"QtQtQtQtQtQtQtQtQtQtQtQtQtQtQt.a.c.d.a.e.dQtQt.B.V.V.D.J.J.J.J.N.Q.I.E.Z.C.I.EQtQtQtQtQtQtQtQtQtQtQtQtQtQtQtQtQtQtQtQtQtQtQtQtQt",
"QtQtQtQtQtQtQtQtQtQtQtQtQtQtQt.c.a.d.d.d.dQtQt.B.V.X.d.H.J.J.J.P.P.Z.Z.P.C.P.IQtQtQtQtQtQtQtQtQtQtQtQtQtQtQtQtQtQtQtQtQtQtQtQtQt",
"QtQtQtQtQtQtQtQtQtQtQtQtQtQtQt.c.d.d.d.dQtQt.B.X.V.d.Y.H.O.O.M.H.H.R.E.N.C.N.PQtQtQtQtQtQtQtQtQtQtQtQtQtQtQtQtQtQtQtQtQtQtQtQtQt",
"QtQtQtQtQtQtQtQtQtQtQtQtQtQt.c.aQt.d.d.dQtQt.B.V.B.e.Y.E.H.0.0.w.H.I.c.Q.1.P.CQtQtQtQtQtQtQtQtQtQtQtQtQtQtQtQtQtQtQtQtQtQtQtQtQt",
"QtQtQtQtQtQtQtQtQtQtQtQtQtQt.aQtQt.d.d.dQt.B.V.V.u.g.Y.h.0.x.2.l.k.I.M.C.1.C.1QtQtQtQtQtQtQtQtQtQtQtQtQtQtQtQtQtQtQtQtQtQtQtQtQt",
"QtQtQtQtQtQtQtQtQtQtQtQtQtQtQtQtQtQt.d.dQt.B.V.X.d.Y.d.h.0.L.b.0.l.I.M.1.Y.C.g.YQtQtQtQtQtQtQtQtQtQtQtQtQtQtQtQtQtQtQtQtQtQtQtQt",
"QtQtQtQtQtQtQtQtQtQtQtQtQtQtQtQtQtQt.dQt.B.V.V.B.Y.Y.C.e.o.2.i.b.0.I.M.1.a.C.g.YQtQtQtQtQtQtQtQtQtQtQtQtQtQtQtQtQtQtQtQtQtQtQtQt",
"QtQtQtQtQtQtQtQtQtQtQtQtQtQtQtQtQtQtQtQt.V.V.V.B.Y.C.D.D.e.0.k.l.w.E.1.C.E.C.g.YQtQtQtQtQtQtQtQtQtQtQtQtQtQtQtQtQtQtQtQtQtQtQtQt",
"QtQtQtQtQtQtQtQtQtQtQtQtQtQtQtQtQtQt.B.X.V.B.u.c.Y.C.D.D.H.t.w.t.3.E.C.I.E.C.Y.YQtQtQtQtQtQtQtQtQtQtQtQtQtQtQtQtQtQtQtQtQtQtQtQt",
"QtQtQtQtQtQtQtQtQtQtQtQtQtQtQtQtQtQt.X.V.B.u.B.Y.C.D.D.H.H.H.H.J.3.M.C.I.I.1.A.YQtQtQtQtQtQtQtQtQtQtQtQtQtQtQtQtQtQtQtQtQtQtQtQt",
"QtQtQtQtQtQtQtQtQtQtQtQtQtQtQtQtQt.B.V.V.u.u.B.Y.C.D.D.H.H.H.H.J.3.M.C.C.0.x.Y.YQtQtQtQtQtQtQtQtQtQtQtQtQtQtQtQtQtQtQtQtQtQtQtQt",
"QtQtQtQtQtQtQtQtQtQtQtQtQtQtQtQtQt.B.V.X.u.u.Y.Y.C.D.H.H.J.H.H.J.3.M.C.0.m.L.Y.Y.YQtQtQtQtQtQtQtQtQtQtQtQtQtQtQtQtQtQtQtQtQtQtQt",
"QtQtQtQtQtQtQtQtQtQtQtQtQtQtQtQtQt.B.V.B.u.B.Y.C.D.D.H.H.H.H.J.J.3.O.0.m.m.x.Y.Y.YQtQtQtQtQtQtQtQtQtQtQtQtQtQtQtQtQtQtQtQtQtQtQt",
"QtQtQtQtQtQtQtQtQtQtQtQtQtQtQtQtQt.B.X.B.B.X.Y.C.D.D.H.J.H.H.J.J.3.O.x.x.x.0.Y.Y.YQtQtQtQtQtQtQtQtQtQtQtQtQtQtQtQtQtQtQtQtQtQtQt",
"QtQtQtQtQtQtQtQtQtQtQtQtQtQtQtQtQt.B.X.B.X.Y.Y.C.D.H.H.J.H.H.J.K.3.O.0.x.0.u.Y.Y.YQtQtQtQtQtQtQtQtQtQtQtQtQtQtQtQtQtQtQtQtQtQtQt",
"QtQtQtQtQtQtQtQtQtQtQtQtQtQtQtQtQt.B.X.X.X.Y.C.D.D.H.J.J.H.J.J.K.M.4.4.4.u.Y.Y.Y.YQtQtQtQtQtQtQtQtQtQtQtQtQtQtQtQtQtQtQtQtQtQtQt",
"QtQtQtQtQtQtQtQtQtQtQtQtQtQtQtQtQt.B.X.X.B.Y.C.D.D.H.J.H.H.J.J.5.M.e.e.e.e.Y.Y.Y.YQtQtQtQtQtQtQtQtQtQtQtQtQtQtQtQtQtQtQtQtQtQtQt",
"QtQtQtQtQtQtQtQtQtQtQtQtQtQtQtQtQt.B.X.BQtQt.C.D.H.H.J.H.H.J.K.5.O.0.L.m.L.Y.Y.Y.YQtQtQtQtQtQtQtQtQtQtQtQtQtQtQtQtQtQtQtQtQtQtQt",
"QtQtQtQtQtQtQtQtQtQtQtQtQtQtQtQtQt.E.uQtQtQtQt.D.H.J.J.H.J.J.K.5.O.e.0.0.4Qt.Y.Y.YQtQtQtQtQtQtQtQtQtQtQtQtQtQtQtQtQtQtQtQtQtQtQt",
"QtQtQtQtQtQtQtQtQtQtQtQtQtQtQtQtQt.uQtQtQt.6.6.4.H.J.J.H.J.J.K.5.O.e.L.2.e.6.6.Y.YQtQtQtQtQtQtQtQtQtQtQtQtQtQtQtQtQtQtQtQtQtQtQt",
"QtQtQtQtQtQtQtQtQtQtQtQtQtQtQtQtQt.6.6.6.7.8.9.4.e.L.J.H.J.K.K.5.O.0.L.m.L.4#..9.4.7.6.6.6QtQtQtQtQtQtQtQtQtQtQtQtQtQtQtQtQtQtQt",
"QtQtQtQtQtQtQtQtQtQtQtQtQtQtQt.6.6.8#.###a#b#c.u.0.o.e.4.J.K.K.5.O.4.e.I.0.e.4#c#b#a###..8.6.6QtQtQtQtQtQtQtQtQtQtQtQtQtQtQtQtQt",
"QtQtQtQtQtQtQtQtQtQtQtQtQtQt.6.8#d#e#f#g#h#i#j.u.A.e.L.L.e#k#l.5.O.e.0.0.X.X.L.0.4#m#g#f#e#d.8.6QtQtQtQtQtQtQtQtQtQtQtQtQtQtQtQt",
"QtQtQtQtQtQtQtQtQtQtQtQtQt.6.9#n#o#p#q#r#s#t#u.u.e.0.x.n.n.L#v#v.4.e.u.e.0.0.0.4.4#s#r#q#p#w#n.9.6QtQtQtQtQtQtQtQtQtQtQtQtQtQtQt",
"QtQtQtQtQtQtQtQtQtQtQtQt.6.8#x#y#z#A#B#C#D#E#F.u.e.0.0.0.0.e#G#G#H.4.4.4.4.4.4.4.4#D#C#B#A#z#y#x.8.6QtQtQtQtQtQtQtQtQtQtQtQtQtQt",
"QtQtQtQtQtQtQtQtQtQtQtQt.6#I#J#K#k#L#E#M#N#G#G.4.e.0.L.X.X.L.4#O#O#O#O#O#G#G#G#G#G#N#M#E#L#k#K#J#I.6QtQtQtQtQtQtQtQtQtQtQtQtQtQt",
"QtQtQtQtQtQtQtQtQtQtQtQt.6#I#P#K#k#C#E#M#N#G#G.4.4.e.e.0.0.0.4#O#O#O#O#O#G#G#G#G#G#N#M#E#C#k#Q#P#I.6QtQtQtQtQtQtQtQtQtQtQtQtQtQt",
"QtQtQtQtQtQtQtQtQtQtQtQt.6#R#x#y#z#A#B#C#D#E#F#S#M.4.4.4.4.4.4#G#H#H#N#T#T#M#S#F#E#D#C#B#A#z#y#x#R.6QtQtQtQtQtQtQtQtQtQtQtQtQtQt",
"QtQtQtQtQtQtQtQtQtQtQtQtQt.6.9#U#w#V#z#W#s#t#u#X#Y#Z#0#1#2#v#v#v#v#2#1#0#Z#Y#X#u#t#s#W#z#V#w#U.9.6QtQtQtQtQtQtQtQtQtQtQtQtQtQtQt",
"QtQtQtQtQtQtQtQtQtQtQtQtQtQt.6#R###e#f#g#m#3#j#4#5#6#7#A#8#k#l#l#k#8#A#7#6#5#4#j#3#m#g#f#e###R.6QtQtQtQtQtQtQtQtQtQtQtQtQtQtQtQt",
"QtQtQtQtQtQtQtQtQtQtQtQtQtQtQt.6.6.8#.###a#b#c#9a.a#aaabacad#h#hadacabaaa#a.#9#c#b#x###..8.6.6QtQtQtQtQtQtQtQtQtQtQtQtQtQtQtQtQt",
"QtQtQtQtQtQtQtQtQtQtQtQtQtQtQtQtQt.6.6.6.7.8.9#.ae##afagagagahahagagagaf##ae#..9.8.7.6.6.6QtQtQtQtQtQtQtQtQtQtQtQtQtQtQtQtQtQtQt",
"QtQtQtQtQtQtQtQtQtQtQtQtQtQtQtQtQtQtQtQtQt.6.6.6.6.6.6.6.6.6.6.6.6.6.6.6.6.6.6.6.6QtQtQtQtQtQtQtQtQtQtQtQtQtQtQtQtQtQtQtQtQtQtQt",
"QtQtQtQtQtQtQtQtQtQtQtQtQtQtQtQtQtQtQtQtQtQtQtQtQtQtQtQtQtQtQtQtQtQtQtQtQtQtQtQtQtQtQtQtQtQtQtQtQtQtQtQtQtQtQtQtQtQtQtQtQtQtQtQt",
"QtQtQtQtQtQtQtQtQtQtQtQtQtQtQtQtQtQtQtQtQtQtQtQtQtQtQtQtQtQtQtQtQtQtQtQtQtQtQtQtQtQtQtQtQtQtQtQtQtQtQtQtQtQtQtQtQtQtQtQtQtQtQtQt"};
