/* XPM */
static char *dummy[]={
"64 64 113 2",
"Qt c None",
".K c #000000",
".L c #000000",
".M c #000000",
"#o c #000000",
".Z c #000000",
"#e c #000000",
".N c #000000",
"#R c #000000",
".S c #000000",
".O c #000000",
"#S c #000000",
"#T c #000000",
"#U c #000000",
".P c #000000",
".8 c #000000",
".0 c #000000",
"#r c #000000",
".T c #000000",
".Q c #000000",
"#f c #000000",
"#m c #000000",
"#K c #000000",
".U c #000000",
"#L c #000000",
".1 c #000000",
".7 c #000000",
"#M c #000000",
".V c #000000",
"#N c #000000",
".9 c #000000",
"#O c #000000",
"#P c #000000",
".R c #000000",
"#Q c #000000",
".W c #000000",
"#B c #000000",
".2 c #000000",
"#s c #000000",
".X c #000000",
"#C c #000000",
"#g c #000000",
"#n c #000000",
"#D c #000000",
".3 c #000000",
"#. c #000000",
"#E c #000000",
"#F c #000000",
".6 c #000000",
"#t c #000000",
"#G c #000000",
"#H c #000000",
"## c #000000",
".Y c #000000",
"#I c #000000",
"#h c #000000",
"#J c #000000",
"#A c #000000",
"#d c #000000",
"#z c #000000",
"#y c #000000",
"#x c #000000",
"#i c #000000",
"#c c #000000",
"#w c #000000",
"#v c #000000",
".4 c #000000",
"#q c #000000",
".5 c #000000",
"#u c #000000",
"#l c #000000",
"#k c #000000",
"#a c #000000",
"#b c #000000",
"#p c #000000",
"#j c #000000",
".o c #000003",
".E c #00070c",
".q c #07050d",
".s c #141d32",
".j c #1baba8",
".f c #1c0000",
".D c #1e232c",
".g c #25424b",
".p c #2b2c38",
".y c #303a55",
".F c #3f4449",
".z c #4b5e7f",
".l c #4f211e",
".u c #4f5463",
".b c #52300c",
".r c #5b0a00",
".C c #684700",
".H c #6c7273",
".G c #708ea7",
".t c #757c87",
".v c #841914",
".n c #8b4435",
".a c #946230",
".I c #99a09e",
".A c #9e7b10",
".w c #b1b5be",
".h c #b5bfce",
".m c #c26552",
".# c #d1a049",
".B c #dfba18",
".J c #e2e5e5",
".c c #f0e883",
".k c #f2ffff",
".x c #f4fffe",
".e c #fd9370",
".i c #ffe5ba",
".d c #fffffa",
"QtQtQtQtQtQtQtQtQtQtQtQtQtQtQtQtQtQtQtQtQtQtQtQtQtQtQtQtQtQtQtQtQtQtQtQtQtQtQtQtQtQtQtQtQtQtQtQtQtQtQtQtQtQtQtQtQtQtQtQtQtQtQtQt",
"QtQtQtQtQtQtQtQtQtQtQtQtQtQtQtQtQtQtQtQtQtQtQtQtQtQtQtQtQtQtQtQtQtQtQtQtQtQtQtQtQtQtQtQtQtQtQtQtQtQtQtQtQtQtQtQtQtQtQtQtQtQtQtQt",
"QtQtQtQtQtQtQtQtQtQtQtQtQtQtQtQtQtQtQtQtQtQtQtQtQtQtQtQtQtQtQtQtQtQtQtQtQtQtQtQtQtQtQtQtQtQtQtQtQtQtQtQtQtQtQtQtQtQtQtQtQtQtQtQt",
"QtQtQtQtQtQtQtQtQtQtQtQtQtQtQtQtQtQtQtQtQtQtQtQtQtQtQtQtQt.#.aQtQtQtQtQtQtQtQtQtQtQtQtQtQtQtQtQtQtQtQtQtQtQtQtQtQtQtQtQtQtQtQtQt",
"QtQtQtQtQtQtQtQtQtQtQtQtQtQtQtQtQtQtQtQtQtQtQtQtQtQtQtQt.b.#.a.a.a.aQtQtQtQtQtQtQtQtQtQtQtQtQtQtQtQtQtQtQtQtQtQtQtQtQtQtQtQtQtQt",
"QtQtQtQtQtQtQtQtQtQtQtQtQtQtQtQtQtQtQtQtQtQtQtQtQtQt.b.a.b.b.#.a.a.a.#.aQtQtQtQtQtQtQtQtQtQtQtQtQtQtQtQtQtQtQtQtQtQtQtQtQtQtQtQt",
"QtQtQtQtQtQtQtQtQtQtQtQtQtQtQtQtQtQtQtQtQtQtQtQtQt.b.b.a.a.#.a.a.#.#.#.a.aQtQtQtQtQtQtQtQtQtQtQtQtQtQtQtQtQtQtQtQtQtQtQtQtQtQtQt",
"QtQtQtQtQtQtQtQtQtQtQtQtQtQtQtQtQtQtQtQtQtQtQtQtQt.b.a.#.c.#.#.#.c.#.c.#.a.aQtQtQtQtQtQtQtQtQtQtQtQtQtQtQtQtQtQtQtQtQtQtQtQtQtQt",
"QtQtQtQtQtQtQtQtQtQtQtQtQtQtQtQtQtQtQtQtQtQtQtQt.a.#.d.c.c.#.c.#.c.c.#.c.c.aQtQtQtQtQtQtQtQtQtQtQtQtQtQtQtQtQtQtQtQtQtQtQtQtQtQt",
"QtQtQtQtQtQtQtQtQtQtQtQtQtQtQtQtQtQtQtQtQtQtQtQt.a.d.c.#.c.#.c.c.#.c.#.#.c.#.bQtQtQtQtQtQtQtQtQtQtQtQtQtQtQtQtQtQtQtQtQtQtQtQtQt",
"QtQtQtQtQtQtQtQtQtQtQtQtQtQtQtQtQtQtQtQtQtQtQt.#.c.#.#.d.c.a.#.d.c.a.#.a.a.#.bQtQtQtQtQtQtQtQtQtQtQtQtQtQtQtQtQtQtQtQtQtQtQtQtQt",
"QtQtQtQtQtQtQtQtQtQtQtQtQtQtQtQtQtQtQtQtQtQtQt.#.#.a.d.c.a.b.a.c.d.a.#.#.b.a.#.aQtQtQtQtQtQtQtQtQtQtQtQtQtQtQtQtQtQtQtQtQtQtQtQt",
"QtQtQtQtQtQtQtQtQtQtQtQtQtQtQtQtQtQtQtQtQtQtQtQt.b.b.d.#.b.e.a.#.c.#.a.#.a.b.b.aQtQtQtQtQtQtQtQtQtQtQtQtQtQtQtQtQtQtQtQtQtQtQtQt",
"QtQtQtQtQtQtQtQtQtQtQtQtQtQtQtQtQtQtQtQtQtQtQtQtQt.b.c.a.e.f.f.b.#.#.b.a.b.a.a.aQtQtQtQtQtQtQtQtQtQtQtQtQtQtQtQtQtQtQtQtQtQtQtQt",
"QtQtQtQtQtQtQtQtQtQtQtQtQtQtQtQtQtQtQtQtQtQtQtQtQt.b.#.b.f.g.h.b.#.a.e.a.b.b.b.aQtQtQtQtQtQtQtQtQtQtQtQtQtQtQtQtQtQtQtQtQtQtQtQt",
"QtQtQtQtQtQtQtQtQtQtQtQtQtQtQtQtQtQtQtQtQtQtQtQtQtQt.b.e.i.j.k.e.a.b.e.a.b.bQtQtQtQtQtQtQtQtQtQtQtQtQtQtQtQtQtQtQtQtQtQtQtQtQtQt",
"QtQtQtQtQtQtQtQtQtQtQtQtQtQtQtQtQtQtQtQtQtQtQtQtQtQt.l.i.i.i.m.i.b.n.n.b.b.oQtQtQtQtQtQtQtQtQtQtQtQtQtQtQtQtQtQtQtQtQtQtQtQtQtQt",
"QtQtQtQtQtQtQtQtQtQtQtQtQtQtQtQtQtQtQtQtQtQtQtQtQt.p.l.m.i.i.i.n.m.n.b.b.o.oQtQtQtQtQtQtQtQtQtQtQtQtQtQtQtQtQtQtQtQtQtQtQtQtQtQt",
"QtQtQtQtQtQtQtQtQtQtQtQtQtQtQtQtQtQtQtQtQtQtQtQt.q.p.r.l.m.e.e.m.n.b.b.o.s.oQtQtQtQtQtQtQtQtQtQtQtQtQtQtQtQtQtQtQtQtQtQtQtQtQtQt",
"QtQtQtQtQtQtQtQtQtQtQtQtQtQtQtQtQtQtQtQtQtQtQtQt.q.t.r.p.l.n.n.l.o.o.s.t.u.sQtQtQtQtQtQtQtQtQtQtQtQtQtQtQtQtQtQtQtQtQtQtQtQtQtQt",
"QtQtQtQtQtQtQtQtQtQtQtQtQtQtQtQtQtQtQtQtQtQtQtQt.q.u.v.t.o.p.w.q.t.w.t.u.s.oQtQtQtQtQtQtQtQtQtQtQtQtQtQtQtQtQtQtQtQtQtQtQtQtQtQt",
"QtQtQtQtQtQtQtQtQtQtQtQtQtQtQtQtQtQtQtQtQtQtQtQt.s.q.u.w.o.w.q.t.x.s.s.o.o.oQtQtQtQtQtQtQtQtQtQtQtQtQtQtQtQtQtQtQtQtQtQtQtQtQtQt",
"QtQtQtQtQtQtQtQtQtQtQtQtQtQtQtQtQtQtQtQtQtQtQtQt.s.q.q.w.p.t.p.x.t.s.y.y.y.s.sQtQtQtQtQtQtQtQtQtQtQtQtQtQtQtQtQtQtQtQtQtQtQtQtQt",
"QtQtQtQtQtQtQtQtQtQtQtQtQtQtQtQtQtQtQtQtQtQtQt.o.y.u.q.p.u.p.w.x.s.s.z.A.B.A.sQtQtQtQtQtQtQtQtQtQtQtQtQtQtQtQtQtQtQtQtQtQtQtQtQt",
"QtQtQtQtQtQtQtQtQtQtQtQtQtQtQtQtQtQtQtQtQtQtQt.o.y.t.p.p.p.q.x.w.y.s.z.A.B.B.y.sQtQtQtQtQtQtQtQtQtQtQtQtQtQtQtQtQtQtQtQtQtQtQtQt",
"QtQtQtQtQtQtQtQtQtQtQtQtQtQtQtQtQtQtQtQtQtQtQt.o.s.t.C.u.u.q.x.y.y.s.y.z.B.B.z.sQtQtQtQtQtQtQtQtQtQtQtQtQtQtQtQtQtQtQtQtQtQtQtQt",
"QtQtQtQtQtQtQtQtQtQtQtQtQtQtQtQtQtQtQtQtQtQt.s.D.s.t.p.A.p.q.x.y.y.o.y.y.z.z.y.sQtQtQtQtQtQtQtQtQtQtQtQtQtQtQtQtQtQtQtQtQtQtQtQt",
"QtQtQtQtQtQtQtQtQtQtQtQtQtQtQtQtQtQtQtQtQtQt.s.y.s.u.A.u.u.q.w.y.s.o.s.y.y.y.y.sQtQtQtQtQtQtQtQtQtQtQtQtQtQtQtQtQtQtQtQtQtQtQtQt",
"QtQtQtQtQtQtQtQtQtQtQtQtQtQtQtQtQtQtQtQtQt.s.y.y.s.u.q.A.p.p.w.s.s.q.E.D.z.y.y.y.sQtQtQtQtQtQtQtQtQtQtQtQtQtQtQtQtQtQtQtQtQtQtQt",
"QtQtQtQtQtQtQtQtQtQtQtQtQtQtQtQtQtQtQtQt.E.s.y.D.s.o.q.q.p.p.t.s.q.o.o.o.z.z.y.y.sQtQtQtQtQtQtQtQtQtQtQtQtQtQtQtQtQtQtQtQtQtQtQt",
"QtQtQtQtQtQtQtQtQtQtQtQtQtQtQtQtQtQtQt.F.E.E.s.s.s.o.B.B.q.o.u.o.o.q.o.o.z.G.y.y.sQtQtQtQtQtQtQtQtQtQtQtQtQtQtQtQtQtQtQtQtQtQtQt",
"QtQtQtQtQtQtQtQtQtQtQtQtQtQtQtQtQtQt.E.F.H.D.E.s.o.E.B.A.q.q.u.o.o.o.u.s.G.G.z.y.sQtQtQtQtQtQtQtQtQtQtQtQtQtQtQtQtQtQtQtQtQtQtQt",
"QtQtQtQtQtQtQtQtQtQtQtQtQtQtQtQtQtQt.E.H.E.E.E.E.o.C.C.p.p.q.t.u.u.u.u.t.z.z.z.y.uQtQtQtQtQtQtQtQtQtQtQtQtQtQtQtQtQtQtQtQtQtQtQt",
"QtQtQtQtQtQtQtQtQtQtQtQtQtQtQtQtQtQt.E.D.F.D.D.E.o.q.B.A.C.q.t.o.o.s.s.s.w.x.x.w.tQtQtQtQtQtQtQtQtQtQtQtQtQtQtQtQtQtQtQtQtQtQtQt",
"QtQtQtQtQtQtQtQtQtQtQtQtQtQtQtQtQtQtQt.E.H.F.D.EQt.C.u.u.u.p.w.s.s.D.s.t.y.y.y.s.oQtQtQtQtQtQtQtQtQtQtQtQtQtQtQtQtQtQtQtQtQtQtQt",
"QtQtQtQtQtQtQtQtQtQtQtQtQtQtQtQtQtQtQtQt.E.E.EQtQt.q.C.A.C.q.w.s.s.y.s.E.t.w.w.t.uQtQtQtQtQtQtQtQtQtQtQtQtQtQtQtQtQtQtQtQtQtQtQt",
"QtQtQtQtQtQtQtQtQtQtQtQtQtQtQtQtQtQtQtQtQtQtQtQt.E.p.w.u.u.q.w.s.y.y.E.D.E.D.E.E.EQtQtQtQtQtQtQtQtQtQtQtQtQtQtQtQtQtQtQtQtQtQtQt",
"QtQtQtQtQtQtQtQtQtQtQtQtQtQtQtQtQtQtQtQtQtQtQtQt.E.E.p.w.t.q.x.s.y.y.E.H.E.F.F.D.EQtQtQtQtQtQtQtQtQtQtQtQtQtQtQtQtQtQtQtQtQtQtQt",
"QtQtQtQtQtQtQtQtQtQtQtQtQtQtQtQtQtQtQtQtQtQtQtQt.E.s.E.p.p.q.x.s.y.z.E.I.D.H.H.EQtQtQtQtQtQtQtQtQtQtQtQtQtQtQtQtQtQtQtQtQtQtQtQt",
"QtQtQtQtQtQtQtQtQtQtQtQtQtQtQtQtQtQtQtQtQtQtQt.s.s.y.s.E.E.E.x.s.z.z.y.E.E.E.E.oQtQtQtQtQtQtQtQtQtQtQtQtQtQtQtQtQtQtQtQtQtQtQtQt",
"QtQtQtQtQtQtQtQtQtQtQtQtQtQtQtQtQtQtQtQtQtQtQt.s.y.y.y.s.E.E.x.y.z.z.y.s.y.s.s.oQtQtQtQtQtQtQtQtQtQtQtQtQtQtQtQtQtQtQtQtQtQtQtQt",
"QtQtQtQtQtQtQtQtQtQtQtQtQtQtQtQtQtQtQtQtQtQt.D.s.z.y.D.s.E.E.x.y.G.z.y.s.y.y.s.s.oQtQtQtQtQtQtQtQtQtQtQtQtQtQtQtQtQtQtQtQtQtQtQt",
"QtQtQtQtQtQtQtQtQtQtQtQtQtQtQtQtQtQtQtQtQtQt.D.s.y.y.s.E.E.E.x.z.G.z.z.y.y.z.s.s.oQtQtQtQtQtQtQtQtQtQtQtQtQtQtQtQtQtQtQtQtQtQtQt",
"QtQtQtQtQtQtQtQtQtQtQtQtQtQtQtQtQtQtQtQtQt.D.F.J.y.s.s.E.E.w.w.z.G.G.z.y.y.z.y.s.oQtQtQtQtQtQtQtQtQtQtQtQtQtQtQtQtQtQtQtQtQtQtQt",
"QtQtQtQtQtQtQtQtQtQtQtQtQtQtQtQtQtQtQtQtQt.D.J.H.I.E.E.E.E.x.y.z.G.G.z.y.y.y.z.s.s.oQtQtQtQtQtQtQtQtQtQtQtQtQtQtQtQtQtQtQtQtQtQt",
"QtQtQtQtQtQtQtQtQtQtQtQtQtQtQtQtQtQtQtQtQt.F.J.J.H.D.F.D.E.x.y.z.G.G.G.y.y.s.z.y.s.q.qQtQtQtQtQtQtQtQtQtQtQtQtQtQtQtQtQtQtQtQtQt",
"QtQtQtQtQtQtQtQtQtQtQtQtQtQtQtQtQtQtQtQtQt.D.I.H.p.D.E.E.E.x.y.z.G.G.G.z.y.s.y.y.s.o.qQtQtQtQtQtQtQtQtQtQtQtQtQtQtQtQtQtQtQtQtQt",
"QtQtQtQtQtQtQtQtQtQtQtQtQtQtQtQtQtQtQtQtQt.D.F.D.E.E.F.F.E.x.y.z.G.G.G.z.s.D.y.s.o.p.p.qQtQtQtQtQtQtQtQtQtQtQtQtQtQtQtQtQtQtQtQt",
"QtQtQtQtQtQtQtQtQtQtQtQtQtQtQtQtQtQtQtQtQt.K.D.E.E.F.E.E.E.x.y.z.z.G.G.z.s.s.s.o.u.p.p.qQtQtQtQtQtQtQtQtQtQtQtQtQtQtQtQtQtQtQtQt",
"QtQtQtQtQtQtQtQtQtQtQtQtQtQtQtQtQt.K.K.K.L.M.E.E.s.E.D.D.E.x.w.w.w.w.w.t.u.p.p.u.p.p.p.q.KQtQtQtQtQtQtQtQtQtQtQtQtQtQtQtQtQtQtQt",
"QtQtQtQtQtQtQtQtQtQtQtQtQtQtQt.K.K.M.N.O.P.Q.D.F.D.D.D.E.R.x.t.t.t.u.u.u.u.p.p.p.p.p.q.N.M.K.KQtQtQtQtQtQtQtQtQtQtQtQtQtQtQtQtQt",
"QtQtQtQtQtQtQtQtQtQtQtQtQtQt.K.M.S.T.U.V.W.X.I.H.F.D.q.E.Y.w.t.t.t.t.u.u.p.p.p.p.q.o.V.U.T.S.M.KQtQtQtQtQtQtQtQtQtQtQtQtQtQtQtQt",
"QtQtQtQtQtQtQtQtQtQtQtQtQt.K.Z.0.1.2.3.D.D.H.D.F.D.D.E.4.5.w.t.u.u.p.p.p.p.q.q.E.E.E.6.3.2.7.0.Z.KQtQtQtQtQtQtQtQtQtQtQtQtQtQtQt",
"QtQtQtQtQtQtQtQtQtQtQtQt.K.M.8.9#.##.F.D.D.H.I.H.F.D.q#a#b.u.p.p.q.q.q.q.E.E.E.E.E.E#c#d###..9.8.M.KQtQtQtQtQtQtQtQtQtQtQtQtQtQt",
"QtQtQtQtQtQtQtQtQtQtQtQt.K#e#f#g#h#i.F.I.H.D.D.D.F.D.E#j#j#j#j#j#j#j.D.D.D.D.E.E.E.E#k#l#i#h#g#f#e.KQtQtQtQtQtQtQtQtQtQtQtQtQtQt",
"QtQtQtQtQtQtQtQtQtQtQtQt.K#e#m#g#h#c.F.F.H.H.F.F.p.D.q#j#j#j#j#j#j#j.D.E.E.E.E.E.E.o#k#l#c#h#n#m#e.KQtQtQtQtQtQtQtQtQtQtQtQtQtQt",
"QtQtQtQtQtQtQtQtQtQtQtQt.K#o.8.9#.##.D.D.D.E.E.D.D.D.E#a#b#b#p#p#b#b.o.o.E.o.E.o.o#q#c#d###..9.8#o.KQtQtQtQtQtQtQtQtQtQtQtQtQtQt",
"QtQtQtQtQtQtQtQtQtQtQtQtQt.K.Z#r.7#s#.#t.Y.o.o.o.E.o.o.4.5#u#u#u#u.5.4#v#w#x#y#z#A.Y#t#.#s.7#r.Z.KQtQtQtQtQtQtQtQtQtQtQtQtQtQtQt",
"QtQtQtQtQtQtQtQtQtQtQtQtQtQt.K#o.O.T.U.V#B#C#D#E#F#G#H###I#h#J#J#h#I###H#G#F#E#D#C#B.V.U.T.O#o.KQtQtQtQtQtQtQtQtQtQtQtQtQtQtQtQt",
"QtQtQtQtQtQtQtQtQtQtQtQtQtQtQt.K.K.M.N.O.P.Q#K#L#M#N#O#P.R#Q.W.W#Q.R#P#O#N#M#L#K.Q.8.O.N.M.K.KQtQtQtQtQtQtQtQtQtQtQtQtQtQtQtQtQt",
"QtQtQtQtQtQtQtQtQtQtQtQtQtQtQtQtQt.K.K.K.L.M.Z.N#R.O#S#T#T#T#U#U#T#T#T#S.O#R.N.Z.M.L.K.K.KQtQtQtQtQtQtQtQtQtQtQtQtQtQtQtQtQtQtQt",
"QtQtQtQtQtQtQtQtQtQtQtQtQtQtQtQtQtQtQtQtQt.K.K.K.K.K.K.K.K.K.K.K.K.K.K.K.K.K.K.K.KQtQtQtQtQtQtQtQtQtQtQtQtQtQtQtQtQtQtQtQtQtQtQt",
"QtQtQtQtQtQtQtQtQtQtQtQtQtQtQtQtQtQtQtQtQtQtQtQtQtQtQtQtQtQtQtQtQtQtQtQtQtQtQtQtQtQtQtQtQtQtQtQtQtQtQtQtQtQtQtQtQtQtQtQtQtQtQtQt",
"QtQtQtQtQtQtQtQtQtQtQtQtQtQtQtQtQtQtQtQtQtQtQtQtQtQtQtQtQtQtQtQtQtQtQtQtQtQtQtQtQtQtQtQtQtQtQtQtQtQtQtQtQtQtQtQtQtQtQtQtQtQtQtQt"};
