/* XPM */
static char *dummy[]={
"64 64 114 2",
"Qt c None",
".K c #000000",
".L c #000000",
".M c #000000",
"#B c #000000",
".N c #000000",
"#r c #000000",
".O c #000000",
".P c #000000",
".X c #000000",
".Q c #000000",
"#T c #000000",
"#U c #000000",
"#V c #000000",
".R c #000000",
"#i c #000000",
".9 c #000000",
"#E c #000000",
".Y c #000000",
".S c #000000",
"#s c #000000",
"#z c #000000",
".T c #000000",
".Z c #000000",
".U c #000000",
"#. c #000000",
"#h c #000000",
".V c #000000",
".0 c #000000",
".W c #000000",
"#j c #000000",
"#P c #000000",
"#Q c #000000",
"#R c #000000",
"#S c #000000",
".1 c #000000",
".8 c #000000",
"## c #000000",
"#F c #000000",
".2 c #000000",
".7 c #000000",
"#t c #000000",
"#A c #000000",
".3 c #000000",
"#a c #000000",
"#k c #000000",
".4 c #000000",
".5 c #000000",
"#b c #000000",
"#G c #000000",
".6 c #000000",
"#M c #000000",
"#l c #000000",
"#c c #000000",
"#N c #000000",
"#u c #000000",
"#O c #000000",
"#d c #000000",
"#m c #000000",
"#e c #000000",
"#f c #000000",
"#g c #000000",
"#v c #000000",
"#n c #000000",
"#L c #000000",
"#K c #000000",
"#J c #000000",
"#o c #000000",
"#H c #000000",
"#I c #000000",
"#p c #000000",
"#q c #000000",
"#D c #000000",
"#w c #000000",
"#C c #000000",
"#x c #000000",
"#y c #000000",
".o c #000003",
".C c #00070c",
".x c #07050d",
".r c #141d32",
".j c #1baba8",
".f c #1c0000",
".D c #1e232c",
".g c #25424b",
".p c #2b2c38",
".y c #303a55",
".G c #3f4449",
".z c #4b5e7f",
".l c #4f211e",
".t c #4f5463",
".b c #52300c",
".q c #5b0a00",
".E c #684700",
".H c #6c7273",
".F c #708ea7",
".s c #757c87",
".u c #841914",
".n c #8b4435",
".a c #946230",
".I c #99a09e",
".A c #9e7b10",
".w c #b1b5be",
".h c #b5bfce",
".m c #c26552",
".# c #d1a049",
".B c #dfba18",
".J c #e2e5e5",
".c c #f0e883",
".k c #f2ffff",
".v c #f4fffe",
".e c #fd9370",
".i c #ffe5ba",
".d c #fffffa",
"QtQtQtQtQtQtQtQtQtQtQtQtQtQtQtQtQtQtQtQtQtQtQtQtQtQtQtQtQtQtQtQtQtQtQtQtQtQtQtQtQtQtQtQtQtQtQtQtQtQtQtQtQtQtQtQtQtQtQtQtQtQtQtQt",
"QtQtQtQtQtQtQtQtQtQtQtQtQtQtQtQtQtQtQtQtQtQtQtQtQtQtQtQtQtQtQtQtQtQtQtQtQtQtQtQtQtQtQtQtQtQtQtQtQtQtQtQtQtQtQtQtQtQtQtQtQtQtQtQt",
"QtQtQtQtQtQtQtQtQtQtQtQtQtQtQtQtQtQtQtQtQtQtQtQtQtQtQtQtQt.#.aQtQtQtQtQtQtQtQtQtQtQtQtQtQtQtQtQtQtQtQtQtQtQtQtQtQtQtQtQtQtQtQtQt",
"QtQtQtQtQtQtQtQtQtQtQtQtQtQtQtQtQtQtQtQtQtQtQtQtQtQtQtQt.b.#.a.a.a.aQtQtQtQtQtQtQtQtQtQtQtQtQtQtQtQtQtQtQtQtQtQtQtQtQtQtQtQtQtQt",
"QtQtQtQtQtQtQtQtQtQtQtQtQtQtQtQtQtQtQtQtQtQtQtQtQtQt.b.a.b.b.#.a.a.a.#.aQtQtQtQtQtQtQtQtQtQtQtQtQtQtQtQtQtQtQtQtQtQtQtQtQtQtQtQt",
"QtQtQtQtQtQtQtQtQtQtQtQtQtQtQtQtQtQtQtQtQtQtQtQtQt.b.b.a.a.#.a.a.#.#.#.a.aQtQtQtQtQtQtQtQtQtQtQtQtQtQtQtQtQtQtQtQtQtQtQtQtQtQtQt",
"QtQtQtQtQtQtQtQtQtQtQtQtQtQtQtQtQtQtQtQtQtQtQtQtQt.b.a.#.c.#.#.#.c.#.c.#.a.aQtQtQtQtQtQtQtQtQtQtQtQtQtQtQtQtQtQtQtQtQtQtQtQtQtQt",
"QtQtQtQtQtQtQtQtQtQtQtQtQtQtQtQtQtQtQtQtQtQtQtQt.a.#.d.c.c.#.c.#.c.c.#.c.c.aQtQtQtQtQtQtQtQtQtQtQtQtQtQtQtQtQtQtQtQtQtQtQtQtQtQt",
"QtQtQtQtQtQtQtQtQtQtQtQtQtQtQtQtQtQtQtQtQtQtQtQt.a.d.c.#.c.#.c.c.#.c.#.#.c.#.bQtQtQtQtQtQtQtQtQtQtQtQtQtQtQtQtQtQtQtQtQtQtQtQtQt",
"QtQtQtQtQtQtQtQtQtQtQtQtQtQtQtQtQtQtQtQtQtQtQt.#.c.#.#.d.c.a.#.d.c.a.#.a.a.#.bQtQtQtQtQtQtQtQtQtQtQtQtQtQtQtQtQtQtQtQtQtQtQtQtQt",
"QtQtQtQtQtQtQtQtQtQtQtQtQtQtQtQtQtQtQtQtQtQtQt.#.#.a.d.c.a.b.a.c.d.a.#.#.b.a.#.aQtQtQtQtQtQtQtQtQtQtQtQtQtQtQtQtQtQtQtQtQtQtQtQt",
"QtQtQtQtQtQtQtQtQtQtQtQtQtQtQtQtQtQtQtQtQtQtQtQt.b.b.d.#.b.e.a.#.c.#.a.#.a.b.b.aQtQtQtQtQtQtQtQtQtQtQtQtQtQtQtQtQtQtQtQtQtQtQtQt",
"QtQtQtQtQtQtQtQtQtQtQtQtQtQtQtQtQtQtQtQtQtQtQtQtQt.b.c.a.e.f.f.b.#.#.b.a.b.a.a.aQtQtQtQtQtQtQtQtQtQtQtQtQtQtQtQtQtQtQtQtQtQtQtQt",
"QtQtQtQtQtQtQtQtQtQtQtQtQtQtQtQtQtQtQtQtQtQtQtQtQt.b.#.b.f.g.h.b.#.a.e.a.b.b.b.aQtQtQtQtQtQtQtQtQtQtQtQtQtQtQtQtQtQtQtQtQtQtQtQt",
"QtQtQtQtQtQtQtQtQtQtQtQtQtQtQtQtQtQtQtQtQtQtQtQtQtQt.b.e.i.j.k.e.a.b.e.a.b.bQtQtQtQtQtQtQtQtQtQtQtQtQtQtQtQtQtQtQtQtQtQtQtQtQtQt",
"QtQtQtQtQtQtQtQtQtQtQtQtQtQtQtQtQtQtQtQtQtQtQtQtQtQt.l.i.i.i.m.i.b.n.n.b.b.oQtQtQtQtQtQtQtQtQtQtQtQtQtQtQtQtQtQtQtQtQtQtQtQtQtQt",
"QtQtQtQtQtQtQtQtQtQtQtQtQtQtQtQtQtQtQtQtQtQtQtQtQt.p.l.m.i.i.i.n.m.n.b.b.o.oQtQtQtQtQtQtQtQtQtQtQtQtQtQtQtQtQtQtQtQtQtQtQtQtQtQt",
"QtQtQtQtQtQtQtQtQtQtQtQtQtQtQtQtQtQtQtQtQtQtQtQtQt.p.q.l.m.e.e.m.n.b.o.o.r.oQtQtQtQtQtQtQtQtQtQtQtQtQtQtQtQtQtQtQtQtQtQtQtQtQtQt",
"QtQtQtQtQtQtQtQtQtQtQtQtQtQtQtQtQtQtQtQtQtQtQtQtQt.s.q.p.l.n.n.l.o.o.s.t.rQtQtQtQtQtQtQtQtQtQtQtQtQtQtQtQtQtQtQtQtQtQtQtQtQtQtQt",
"QtQtQtQtQtQtQtQtQtQtQtQtQtQtQtQtQtQtQtQtQtQtQtQtQt.t.u.s.p.p.p.s.v.w.t.r.oQtQtQtQtQtQtQtQtQtQtQtQtQtQtQtQtQtQtQtQtQtQtQtQtQtQtQt",
"QtQtQtQtQtQtQtQtQtQtQtQtQtQtQtQtQtQtQtQtQtQtQtQtQt.x.t.w.p.p.s.v.r.r.o.o.o.rQtQtQtQtQtQtQtQtQtQtQtQtQtQtQtQtQtQtQtQtQtQtQtQtQtQt",
"QtQtQtQtQtQtQtQtQtQtQtQtQtQtQtQtQtQtQtQtQtQtQtQtQt.x.x.w.s.p.v.r.r.r.y.y.y.rQtQtQtQtQtQtQtQtQtQtQtQtQtQtQtQtQtQtQtQtQtQtQtQtQtQt",
"QtQtQtQtQtQtQtQtQtQtQtQtQtQtQtQtQtQtQtQtQtQtQtQtQt.t.x.p.s.w.w.o.r.z.A.B.A.yQtQtQtQtQtQtQtQtQtQtQtQtQtQtQtQtQtQtQtQtQtQtQtQtQtQt",
"QtQtQtQtQtQtQtQtQtQtQtQtQtQtQtQtQtQtQtQtQtQtQtQtQt.s.p.p.p.v.o.C.D.z.B.B.B.y.rQtQtQtQtQtQtQtQtQtQtQtQtQtQtQtQtQtQtQtQtQtQtQtQtQt",
"QtQtQtQtQtQtQtQtQtQtQtQtQtQtQtQtQtQtQtQtQtQtQtQtQt.s.E.t.t.v.o.x.r.y.A.B.B.y.rQtQtQtQtQtQtQtQtQtQtQtQtQtQtQtQtQtQtQtQtQtQtQtQtQt",
"QtQtQtQtQtQtQtQtQtQtQtQtQtQtQtQtQtQtQtQtQtQtQtQtQt.s.p.A.p.w.o.o.o.y.z.z.z.y.rQtQtQtQtQtQtQtQtQtQtQtQtQtQtQtQtQtQtQtQtQtQtQtQtQt",
"QtQtQtQtQtQtQtQtQtQtQtQtQtQtQtQtQtQtQtQtQtQtQtQtQt.t.E.t.t.w.o.x.r.D.y.z.y.y.rQtQtQtQtQtQtQtQtQtQtQtQtQtQtQtQtQtQtQtQtQtQtQtQtQt",
"QtQtQtQtQtQtQtQtQtQtQtQtQtQtQtQtQtQtQtQtQtQtQtQt.o.t.x.A.p.s.o.o.x.r.y.y.y.y.oQtQtQtQtQtQtQtQtQtQtQtQtQtQtQtQtQtQtQtQtQtQtQtQtQt",
"QtQtQtQtQtQtQtQtQtQtQtQtQtQtQtQtQtQtQtQtQtQtQtQt.o.y.x.x.p.s.o.x.o.r.y.y.y.r.oQtQtQtQtQtQtQtQtQtQtQtQtQtQtQtQtQtQtQtQtQtQtQtQtQt",
"QtQtQtQtQtQtQtQtQtQtQtQtQtQtQtQtQtQtQtQtQtQtQtQt.o.y.B.A.x.w.p.o.o.y.z.y.y.rQtQtQtQtQtQtQtQtQtQtQtQtQtQtQtQtQtQtQtQtQtQtQtQtQtQt",
"QtQtQtQtQtQtQtQtQtQtQtQtQtQtQtQtQtQtQtQtQtQtQt.C.r.r.A.E.x.x.w.o.r.z.F.y.y.oQtQtQtQtQtQtQtQtQtQtQtQtQtQtQtQtQtQtQtQtQtQtQtQtQtQt",
"QtQtQtQtQtQtQtQtQtQtQtQtQtQtQtQtQtQtQtQtQtQtQt.C.o.E.E.p.p.x.s.s.y.F.F.z.y.oQtQtQtQtQtQtQtQtQtQtQtQtQtQtQtQtQtQtQtQtQtQtQtQtQtQt",
"QtQtQtQtQtQtQtQtQtQtQtQtQtQtQtQtQtQtQtQtQtQtQt.C.D.x.B.A.E.x.s.w.v.z.z.z.r.oQtQtQtQtQtQtQtQtQtQtQtQtQtQtQtQtQtQtQtQtQtQtQtQtQtQt",
"QtQtQtQtQtQtQtQtQtQtQtQtQtQtQtQtQtQtQtQtQtQtQt.C.D.E.t.t.t.p.s.r.y.v.v.w.s.oQtQtQtQtQtQtQtQtQtQtQtQtQtQtQtQtQtQtQtQtQtQtQtQtQtQt",
"QtQtQtQtQtQtQtQtQtQtQtQtQtQtQtQtQtQtQtQtQtQtQt.C.G.x.E.A.E.x.w.s.w.y.y.r.o.r.oQtQtQtQtQtQtQtQtQtQtQtQtQtQtQtQtQtQtQtQtQtQtQtQtQt",
"QtQtQtQtQtQtQtQtQtQtQtQtQtQtQtQtQtQtQtQtQtQtQtQt.C.p.w.t.t.x.w.C.C.w.s.t.t.r.oQtQtQtQtQtQtQtQtQtQtQtQtQtQtQtQtQtQtQtQtQtQtQtQtQt",
"QtQtQtQtQtQtQtQtQtQtQtQtQtQtQtQtQtQtQtQtQtQtQtQtQt.o.p.w.s.x.C.H.C.D.C.C.C.r.r.oQtQtQtQtQtQtQtQtQtQtQtQtQtQtQtQtQtQtQtQtQtQtQtQt",
"QtQtQtQtQtQtQtQtQtQtQtQtQtQtQtQtQtQtQtQtQtQtQtQtQt.o.o.p.p.x.C.I.D.G.G.D.C.y.r.oQtQtQtQtQtQtQtQtQtQtQtQtQtQtQtQtQtQtQtQtQtQtQtQt",
"QtQtQtQtQtQtQtQtQtQtQtQtQtQtQtQtQtQtQtQtQtQtQtQtQt.o.r.o.x.o.s.C.G.H.H.C.r.y.r.o.oQtQtQtQtQtQtQtQtQtQtQtQtQtQtQtQtQtQtQtQtQtQtQt",
"QtQtQtQtQtQtQtQtQtQtQtQtQtQtQtQtQtQtQtQtQtQtQtQtQt.o.y.r.r.o.s.o.C.C.C.y.r.y.y.D.oQtQtQtQtQtQtQtQtQtQtQtQtQtQtQtQtQtQtQtQtQtQtQt",
"QtQtQtQtQtQtQtQtQtQtQtQtQtQtQtQtQtQtQtQtQtQtQtQtQt.r.y.y.r.o.w.r.y.z.z.z.r.y.z.r.oQtQtQtQtQtQtQtQtQtQtQtQtQtQtQtQtQtQtQtQtQtQtQt",
"QtQtQtQtQtQtQtQtQtQtQtQtQtQtQtQtQtQtQtQtQtQtQtQtQt.r.z.z.r.r.w.r.y.z.z.z.y.y.z.y.r.oQtQtQtQtQtQtQtQtQtQtQtQtQtQtQtQtQtQtQtQtQtQt",
"QtQtQtQtQtQtQtQtQtQtQtQtQtQtQtQtQtQtQtQtQtQtQtQtQt.r.z.y.r.r.w.y.y.z.F.z.z.y.y.y.r.x.xQtQtQtQtQtQtQtQtQtQtQtQtQtQtQtQtQtQtQtQtQt",
"QtQtQtQtQtQtQtQtQtQtQtQtQtQtQtQtQtQtQtQtQtQtQtQtQt.o.r.y.y.r.v.y.y.z.F.F.z.y.r.y.r.o.xQtQtQtQtQtQtQtQtQtQtQtQtQtQtQtQtQtQtQtQtQt",
"QtQtQtQtQtQtQtQtQtQtQtQtQtQtQtQtQtQtQtQtQtQtQtQt.G.G.I.o.o.o.v.y.z.z.F.F.z.z.r.r.r.o.p.xQtQtQtQtQtQtQtQtQtQtQtQtQtQtQtQtQtQtQtQt",
"QtQtQtQtQtQtQtQtQtQtQtQtQtQtQtQtQtQtQtQtQtQtQtQt.G.J.G.I.H.G.v.y.z.z.F.F.F.z.y.r.r.p.p.xQtQtQtQtQtQtQtQtQtQtQtQtQtQtQtQtQtQtQtQt",
"QtQtQtQtQtQtQtQtQtQtQtQtQtQtQtQtQtQtQtQtQtQtQtQt.G.I.H.G.D.o.v.y.z.z.F.F.F.z.z.y.t.p.p.xQtQtQtQtQtQtQtQtQtQtQtQtQtQtQtQtQtQtQtQt",
"QtQtQtQtQtQtQtQtQtQtQtQtQtQtQtQtQtQtQtQtQtQtQtQt.G.H.G.o.o.G.v.r.z.z.F.F.F.z.w.s.p.D.p.xQtQtQtQtQtQtQtQtQtQtQtQtQtQtQtQtQtQtQtQt",
"QtQtQtQtQtQtQtQtQtQtQtQtQtQtQtQtQtQtQtQtQt.K.K.K.K.G.o.o.G.o.v.r.y.z.z.s.w.w.s.t.p.p.xQtQtQtQtQtQtQtQtQtQtQtQtQtQtQtQtQtQtQtQtQt",
"QtQtQtQtQtQtQtQtQtQtQtQtQtQtQtQtQt.K.K.K.L.M.N.O.P.o.o.r.o.D.v.w.w.s.s.t.t.t.t.t.p.x.K.K.KQtQtQtQtQtQtQtQtQtQtQtQtQtQtQtQtQtQtQt",
"QtQtQtQtQtQtQtQtQtQtQtQtQtQtQt.K.K.M.O.Q.R.S.T.U.V.W.D.G.D.D.v.w.s.s.s.t.t.t.t.p.x.R.Q.O.M.K.KQtQtQtQtQtQtQtQtQtQtQtQtQtQtQtQtQt",
"QtQtQtQtQtQtQtQtQtQtQtQtQtQt.K.M.X.Y.Z.0.1.2.3.4.5.6.I.H.G.D.w.s.s.t.t.t.p.p.x.3.7.8.0.Z.Y.X.M.KQtQtQtQtQtQtQtQtQtQtQtQtQtQtQtQt",
"QtQtQtQtQtQtQtQtQtQtQtQtQt.K.N.9#.###a#b#c#d#e#f#g.G.D.G.D.D.x.x.x.x.x.x.C.C.C#e#d#c#b#a###h.9.N.KQtQtQtQtQtQtQtQtQtQtQtQtQtQtQt",
"QtQtQtQtQtQtQtQtQtQtQtQt.K.M#i#j#k#l#m#n#o#p#q.D.D.G.I.H.G.D.o.D.C.C.C.C.C.C.C#q#p#o#n#m#l#k#j#i.M.KQtQtQtQtQtQtQtQtQtQtQtQtQtQt",
"QtQtQtQtQtQtQtQtQtQtQtQt.K#r#s#t#u#v#p#w#x#y.G.D.D.D.D.G.G.D.o.D.D.D.D.C.C.C.C#y#y#x#w#p#v#u#t#s#r.KQtQtQtQtQtQtQtQtQtQtQtQtQtQt",
"QtQtQtQtQtQtQtQtQtQtQtQt.K#r#z#t#u#n#p#w#x#y.G.I.H.H.G.G.D.x.x.D.C.C.C.C.C.o.o#y#y#x#w#p#n#u#A#z#r.KQtQtQtQtQtQtQtQtQtQtQtQtQtQt",
"QtQtQtQtQtQtQtQtQtQtQtQt.K#B#i#j#k#l#m#n#o#p.D.G.H.G.D.D.x.o#y.o.o.C.o.o#C#w#D#q#p#o#n#m#l#k#j#i#B.KQtQtQtQtQtQtQtQtQtQtQtQtQtQt",
"QtQtQtQtQtQtQtQtQtQtQtQtQt.K.N#E#h#F#k#G#c#d.D.D.D.x.o.o#H#I#I#I#I#H#J#K#L#g#f#e#d#c#G#k#F#h#E.N.KQtQtQtQtQtQtQtQtQtQtQtQtQtQtQt",
"QtQtQtQtQtQtQtQtQtQtQtQtQtQt.K#B.Q.Y.Z.0.8.7.3.4.5.6#M#l#N#u#O#O#u#N#l#M.6.5.4.3.7.8.0.Z.Y.Q#B.KQtQtQtQtQtQtQtQtQtQtQtQtQtQtQtQt",
"QtQtQtQtQtQtQtQtQtQtQtQtQtQtQt.K.K.M.O.Q.R.S.T.U.V.W#P#Q#R#S.1.1#S#R#Q#P.W.V.U.T.S#i.Q.O.M.K.KQtQtQtQtQtQtQtQtQtQtQtQtQtQtQtQtQt",
"QtQtQtQtQtQtQtQtQtQtQtQtQtQtQtQtQt.K.K.K.L.M.N.O.P.Q#T#U#U#U#V#V#U#U#U#T.Q.P.O.N.M.L.K.K.KQtQtQtQtQtQtQtQtQtQtQtQtQtQtQtQtQtQtQt",
"QtQtQtQtQtQtQtQtQtQtQtQtQtQtQtQtQtQtQtQtQt.K.K.K.K.K.K.K.K.K.K.K.K.K.K.K.K.K.K.K.KQtQtQtQtQtQtQtQtQtQtQtQtQtQtQtQtQtQtQtQtQtQtQt",
"QtQtQtQtQtQtQtQtQtQtQtQtQtQtQtQtQtQtQtQtQtQtQtQtQtQtQtQtQtQtQtQtQtQtQtQtQtQtQtQtQtQtQtQtQtQtQtQtQtQtQtQtQtQtQtQtQtQtQtQtQtQtQtQt",
"QtQtQtQtQtQtQtQtQtQtQtQtQtQtQtQtQtQtQtQtQtQtQtQtQtQtQtQtQtQtQtQtQtQtQtQtQtQtQtQtQtQtQtQtQtQtQtQtQtQtQtQtQtQtQtQtQtQtQtQtQtQtQtQt"};
