/* XPM */
static char *dummy[]={
"64 64 112 2",
"Qt c None",
".I c #000000",
".J c #000000",
".K c #000000",
"#t c #000000",
".L c #000000",
"#j c #000000",
".M c #000000",
"#Q c #000000",
".T c #000000",
".N c #000000",
"#R c #000000",
"#S c #000000",
"#T c #000000",
".O c #000000",
"## c #000000",
".1 c #000000",
"#v c #000000",
".U c #000000",
".P c #000000",
"#k c #000000",
"#r c #000000",
".Q c #000000",
".V c #000000",
".R c #000000",
".2 c #000000",
"#. c #000000",
"#K c #000000",
".W c #000000",
"#L c #000000",
"#a c #000000",
"#M c #000000",
"#N c #000000",
"#O c #000000",
"#P c #000000",
".S c #000000",
"#E c #000000",
".3 c #000000",
"#w c #000000",
".X c #000000",
"#F c #000000",
"#l c #000000",
"#s c #000000",
".Y c #000000",
".4 c #000000",
"#b c #000000",
".Z c #000000",
"#G c #000000",
".5 c #000000",
"#x c #000000",
"#H c #000000",
"#I c #000000",
"#c c #000000",
".6 c #000000",
"#J c #000000",
"#m c #000000",
".0 c #000000",
".7 c #000000",
"#d c #000000",
".8 c #000000",
"#y c #000000",
"#z c #000000",
"#n c #000000",
"#e c #000000",
"#A c #000000",
"#B c #000000",
"#C c #000000",
"#f c #000000",
"#D c #000000",
".9 c #000000",
"#i c #000000",
"#h c #000000",
"#g c #000000",
"#o c #000000",
"#p c #000000",
"#u c #000000",
"#q c #000000",
".p c #000003",
".E c #00070c",
".t c #07050d",
".r c #141d32",
".j c #1baba8",
".f c #1c0000",
".x c #1e232c",
".g c #25424b",
".l c #2b2c38",
".y c #303a55",
".H c #3f4449",
".B c #4b5e7f",
".m c #4f211e",
".s c #4f5463",
".b c #52300c",
".q c #5b0a00",
".C c #684700",
".F c #6c7273",
".D c #708ea7",
".u c #757c87",
".o c #8b4435",
".a c #946230",
".G c #99a09e",
".A c #9e7b10",
".w c #b1b5be",
".h c #b5bfce",
".n c #c26552",
".# c #d1a049",
".z c #dfba18",
".c c #f0e883",
".k c #f2ffff",
".v c #f4fffe",
".e c #fd9370",
".i c #ffe5ba",
".d c #fffffa",
"QtQtQtQtQtQtQtQtQtQtQtQtQtQtQtQtQtQtQtQtQtQtQtQtQtQtQtQtQtQtQtQtQtQtQtQtQtQtQtQtQtQtQtQtQtQtQtQtQtQtQtQtQtQtQtQtQtQtQtQtQtQtQtQt",
"QtQtQtQtQtQtQtQtQtQtQtQtQtQtQtQtQtQtQtQtQtQtQtQtQtQtQtQtQtQtQtQtQtQtQtQtQtQtQtQtQtQtQtQtQtQtQtQtQtQtQtQtQtQtQtQtQtQtQtQtQtQtQtQt",
"QtQtQtQtQtQtQtQtQtQtQtQtQtQtQtQtQtQtQtQtQtQtQtQtQtQtQtQtQt.#.aQtQtQtQtQtQtQtQtQtQtQtQtQtQtQtQtQtQtQtQtQtQtQtQtQtQtQtQtQtQtQtQtQt",
"QtQtQtQtQtQtQtQtQtQtQtQtQtQtQtQtQtQtQtQtQtQtQtQtQtQtQtQt.b.#.a.a.a.aQtQtQtQtQtQtQtQtQtQtQtQtQtQtQtQtQtQtQtQtQtQtQtQtQtQtQtQtQtQt",
"QtQtQtQtQtQtQtQtQtQtQtQtQtQtQtQtQtQtQtQtQtQtQtQtQtQt.b.a.b.b.#.a.a.a.#.aQtQtQtQtQtQtQtQtQtQtQtQtQtQtQtQtQtQtQtQtQtQtQtQtQtQtQtQt",
"QtQtQtQtQtQtQtQtQtQtQtQtQtQtQtQtQtQtQtQtQtQtQtQtQt.b.b.a.a.#.a.a.#.#.#.a.aQtQtQtQtQtQtQtQtQtQtQtQtQtQtQtQtQtQtQtQtQtQtQtQtQtQtQt",
"QtQtQtQtQtQtQtQtQtQtQtQtQtQtQtQtQtQtQtQtQtQtQtQtQt.b.a.#.c.#.#.#.c.#.c.#.a.aQtQtQtQtQtQtQtQtQtQtQtQtQtQtQtQtQtQtQtQtQtQtQtQtQtQt",
"QtQtQtQtQtQtQtQtQtQtQtQtQtQtQtQtQtQtQtQtQtQtQtQt.a.#.d.c.c.#.c.#.c.c.#.c.c.aQtQtQtQtQtQtQtQtQtQtQtQtQtQtQtQtQtQtQtQtQtQtQtQtQtQt",
"QtQtQtQtQtQtQtQtQtQtQtQtQtQtQtQtQtQtQtQtQtQtQtQt.a.d.c.#.c.#.c.c.#.c.#.#.c.#.bQtQtQtQtQtQtQtQtQtQtQtQtQtQtQtQtQtQtQtQtQtQtQtQtQt",
"QtQtQtQtQtQtQtQtQtQtQtQtQtQtQtQtQtQtQtQtQtQtQt.#.c.#.#.d.c.a.#.d.c.a.#.a.a.#.bQtQtQtQtQtQtQtQtQtQtQtQtQtQtQtQtQtQtQtQtQtQtQtQtQt",
"QtQtQtQtQtQtQtQtQtQtQtQtQtQtQtQtQtQtQtQtQtQtQt.#.#.a.d.c.a.b.a.c.d.a.#.#.b.a.#.aQtQtQtQtQtQtQtQtQtQtQtQtQtQtQtQtQtQtQtQtQtQtQtQt",
"QtQtQtQtQtQtQtQtQtQtQtQtQtQtQtQtQtQtQtQtQtQtQtQt.b.b.d.#.b.e.a.#.c.#.a.#.a.b.b.aQtQtQtQtQtQtQtQtQtQtQtQtQtQtQtQtQtQtQtQtQtQtQtQt",
"QtQtQtQtQtQtQtQtQtQtQtQtQtQtQtQtQtQtQtQtQtQtQtQtQt.b.c.a.e.f.f.b.#.#.b.a.b.a.a.aQtQtQtQtQtQtQtQtQtQtQtQtQtQtQtQtQtQtQtQtQtQtQtQt",
"QtQtQtQtQtQtQtQtQtQtQtQtQtQtQtQtQtQtQtQtQtQtQtQtQt.b.#.b.f.g.h.b.#.a.e.a.b.b.b.aQtQtQtQtQtQtQtQtQtQtQtQtQtQtQtQtQtQtQtQtQtQtQtQt",
"QtQtQtQtQtQtQtQtQtQtQtQtQtQtQtQtQtQtQtQtQtQtQtQtQtQt.b.e.i.j.k.e.a.b.e.a.b.bQtQtQtQtQtQtQtQtQtQtQtQtQtQtQtQtQtQtQtQtQtQtQtQtQtQt",
"QtQtQtQtQtQtQtQtQtQtQtQtQtQtQtQtQtQtQtQtQtQtQtQtQt.l.m.i.i.i.n.i.b.o.o.b.b.pQtQtQtQtQtQtQtQtQtQtQtQtQtQtQtQtQtQtQtQtQtQtQtQtQtQt",
"QtQtQtQtQtQtQtQtQtQtQtQtQtQtQtQtQtQtQtQtQtQtQtQtQt.l.m.n.i.i.i.o.n.o.b.b.p.pQtQtQtQtQtQtQtQtQtQtQtQtQtQtQtQtQtQtQtQtQtQtQtQtQtQt",
"QtQtQtQtQtQtQtQtQtQtQtQtQtQtQtQtQtQtQtQtQtQtQtQtQt.l.q.m.n.e.e.n.o.b.p.p.r.pQtQtQtQtQtQtQtQtQtQtQtQtQtQtQtQtQtQtQtQtQtQtQtQtQtQt",
"QtQtQtQtQtQtQtQtQtQtQtQtQtQtQtQtQtQtQtQtQtQtQtQtQt.s.q.l.m.o.o.m.p.p.r.s.r.pQtQtQtQtQtQtQtQtQtQtQtQtQtQtQtQtQtQtQtQtQtQtQtQtQtQt",
"QtQtQtQtQtQtQtQtQtQtQtQtQtQtQtQtQtQtQtQtQtQtQtQtQt.t.q.u.p.l.u.v.w.u.s.x.rQtQtQtQtQtQtQtQtQtQtQtQtQtQtQtQtQtQtQtQtQtQtQtQtQtQtQt",
"QtQtQtQtQtQtQtQtQtQtQtQtQtQtQtQtQtQtQtQtQtQtQtQtQt.t.s.w.p.u.v.r.r.r.r.r.pQtQtQtQtQtQtQtQtQtQtQtQtQtQtQtQtQtQtQtQtQtQtQtQtQtQtQt",
"QtQtQtQtQtQtQtQtQtQtQtQtQtQtQtQtQtQtQtQtQtQtQtQtQt.l.t.w.l.v.r.r.y.y.y.r.pQtQtQtQtQtQtQtQtQtQtQtQtQtQtQtQtQtQtQtQtQtQtQtQtQtQtQt",
"QtQtQtQtQtQtQtQtQtQtQtQtQtQtQtQtQtQtQtQtQtQtQtQtQt.s.t.l.l.v.p.y.y.z.A.r.pQtQtQtQtQtQtQtQtQtQtQtQtQtQtQtQtQtQtQtQtQtQtQtQtQtQtQt",
"QtQtQtQtQtQtQtQtQtQtQtQtQtQtQtQtQtQtQtQtQtQtQtQtQt.u.l.l.l.v.r.B.A.z.z.y.pQtQtQtQtQtQtQtQtQtQtQtQtQtQtQtQtQtQtQtQtQtQtQtQtQtQtQt",
"QtQtQtQtQtQtQtQtQtQtQtQtQtQtQtQtQtQtQtQtQtQtQtQtQt.s.C.s.s.w.y.B.z.z.A.r.pQtQtQtQtQtQtQtQtQtQtQtQtQtQtQtQtQtQtQtQtQtQtQtQtQtQtQt",
"QtQtQtQtQtQtQtQtQtQtQtQtQtQtQtQtQtQtQtQtQtQtQtQtQt.s.l.C.l.w.y.B.B.B.y.rQtQtQtQtQtQtQtQtQtQtQtQtQtQtQtQtQtQtQtQtQtQtQtQtQtQtQtQt",
"QtQtQtQtQtQtQtQtQtQtQtQtQtQtQtQtQtQtQtQtQtQtQtQtQt.l.C.s.s.u.r.y.B.y.y.p.pQtQtQtQtQtQtQtQtQtQtQtQtQtQtQtQtQtQtQtQtQtQtQtQtQtQtQt",
"QtQtQtQtQtQtQtQtQtQtQtQtQtQtQtQtQtQtQtQtQtQtQtQtQtQt.t.C.l.u.r.y.y.y.r.t.pQtQtQtQtQtQtQtQtQtQtQtQtQtQtQtQtQtQtQtQtQtQtQtQtQtQtQt",
"QtQtQtQtQtQtQtQtQtQtQtQtQtQtQtQtQtQtQtQtQtQtQtQtQtQt.t.t.l.r.y.B.y.y.r.p.pQtQtQtQtQtQtQtQtQtQtQtQtQtQtQtQtQtQtQtQtQtQtQtQtQtQtQt",
"QtQtQtQtQtQtQtQtQtQtQtQtQtQtQtQtQtQtQtQtQtQtQtQtQtQt.A.C.t.r.B.D.y.y.p.p.pQtQtQtQtQtQtQtQtQtQtQtQtQtQtQtQtQtQtQtQtQtQtQtQtQtQtQt",
"QtQtQtQtQtQtQtQtQtQtQtQtQtQtQtQtQtQtQtQtQtQtQtQtQt.C.A.C.u.y.D.D.B.r.p.s.pQtQtQtQtQtQtQtQtQtQtQtQtQtQtQtQtQtQtQtQtQtQtQtQtQtQtQt",
"QtQtQtQtQtQtQtQtQtQtQtQtQtQtQtQtQtQtQtQtQtQtQtQtQt.C.C.l.w.v.B.B.B.r.s.p.pQtQtQtQtQtQtQtQtQtQtQtQtQtQtQtQtQtQtQtQtQtQtQtQtQtQtQt",
"QtQtQtQtQtQtQtQtQtQtQtQtQtQtQtQtQtQtQtQtQtQtQtQtQt.t.A.C.r.y.v.w.u.s.r.E.p.pQtQtQtQtQtQtQtQtQtQtQtQtQtQtQtQtQtQtQtQtQtQtQtQtQtQt",
"QtQtQtQtQtQtQtQtQtQtQtQtQtQtQtQtQtQtQtQtQtQtQtQtQt.C.s.l.u.w.y.y.r.p.t.t.t.t.pQtQtQtQtQtQtQtQtQtQtQtQtQtQtQtQtQtQtQtQtQtQtQtQtQt",
"QtQtQtQtQtQtQtQtQtQtQtQtQtQtQtQtQtQtQtQtQtQtQtQtQt.t.C.E.E.l.w.u.s.l.r.p.r.r.pQtQtQtQtQtQtQtQtQtQtQtQtQtQtQtQtQtQtQtQtQtQtQtQtQt",
"QtQtQtQtQtQtQtQtQtQtQtQtQtQtQtQtQtQtQtQtQtQtQtQtQt.l.E.F.E.x.E.E.E.y.r.p.r.r.p.pQtQtQtQtQtQtQtQtQtQtQtQtQtQtQtQtQtQtQtQtQtQtQtQt",
"QtQtQtQtQtQtQtQtQtQtQtQtQtQtQtQtQtQtQtQtQtQtQtQtQtQt.E.G.x.H.H.x.E.y.y.r.r.y.r.pQtQtQtQtQtQtQtQtQtQtQtQtQtQtQtQtQtQtQtQtQtQtQtQt",
"QtQtQtQtQtQtQtQtQtQtQtQtQtQtQtQtQtQtQtQtQtQtQtQtQt.p.p.t.H.F.F.E.r.y.y.y.r.y.y.r.pQtQtQtQtQtQtQtQtQtQtQtQtQtQtQtQtQtQtQtQtQtQtQt",
"QtQtQtQtQtQtQtQtQtQtQtQtQtQtQtQtQtQtQtQtQtQtQtQtQt.p.t.p.E.E.E.u.r.y.y.y.r.r.y.r.pQtQtQtQtQtQtQtQtQtQtQtQtQtQtQtQtQtQtQtQtQtQtQt",
"QtQtQtQtQtQtQtQtQtQtQtQtQtQtQtQtQtQtQtQtQtQtQtQtQt.p.r.r.r.r.p.u.r.y.B.y.y.r.y.y.r.pQtQtQtQtQtQtQtQtQtQtQtQtQtQtQtQtQtQtQtQtQtQt",
"QtQtQtQtQtQtQtQtQtQtQtQtQtQtQtQtQtQtQtQtQtQtQtQt.p.p.r.p.y.r.r.w.r.y.B.B.y.y.r.B.y.pQtQtQtQtQtQtQtQtQtQtQtQtQtQtQtQtQtQtQtQtQtQt",
"QtQtQtQtQtQtQtQtQtQtQtQtQtQtQtQtQtQtQtQtQtQtQtQt.p.r.r.p.B.y.r.w.r.y.B.B.B.y.y.y.B.r.pQtQtQtQtQtQtQtQtQtQtQtQtQtQtQtQtQtQtQtQtQt",
"QtQtQtQtQtQtQtQtQtQtQtQtQtQtQtQtQtQtQtQtQtQtQtQt.p.r.r.p.y.y.y.u.u.y.B.B.B.y.y.r.y.y.p.pQtQtQtQtQtQtQtQtQtQtQtQtQtQtQtQtQtQtQtQt",
"QtQtQtQtQtQtQtQtQtQtQtQtQtQtQtQtQtQtQtQtQtQtQtQt.p.r.r.E.r.y.r.l.w.y.B.D.B.B.y.y.r.y.r.p.tQtQtQtQtQtQtQtQtQtQtQtQtQtQtQtQtQtQtQt",
"QtQtQtQtQtQtQtQtQtQtQtQtQtQtQtQtQtQtQtQtQtQtQt.F.F.r.p.t.p.p.F.p.w.B.B.D.D.B.B.y.y.r.x.r.tQtQtQtQtQtQtQtQtQtQtQtQtQtQtQtQtQtQtQt",
"QtQtQtQtQtQtQtQtQtQtQtQtQtQtQtQtQtQtQtQtQtQtQt.F.H.F.x.p.p.F.x.H.v.B.D.D.D.B.B.y.y.y.r.l.tQtQtQtQtQtQtQtQtQtQtQtQtQtQtQtQtQtQtQt",
"QtQtQtQtQtQtQtQtQtQtQtQtQtQtQtQtQtQtQtQtQtQtQt.F.F.x.H.x.p.x.F.F.v.B.D.D.D.D.B.B.y.r.l.l.tQtQtQtQtQtQtQtQtQtQtQtQtQtQtQtQtQtQtQt",
"QtQtQtQtQtQtQtQtQtQtQtQtQtQtQtQtQtQtQtQtQtQtQt.x.H.H.x.t.p.p.F.H.v.y.y.y.B.B.y.y.r.s.l.l.tQtQtQtQtQtQtQtQtQtQtQtQtQtQtQtQtQtQtQt",
"QtQtQtQtQtQtQtQtQtQtQtQtQtQtQtQtQtQtQtQtQt.I.I.I.x.E.x.E.E.p.p.p.v.w.w.u.F.u.w.w.u.l.l.tQtQtQtQtQtQtQtQtQtQtQtQtQtQtQtQtQtQtQtQt",
"QtQtQtQtQtQtQtQtQtQtQtQtQtQtQtQtQt.I.I.I.J.K.L.M.t.E.E.E.E.E.t.p.v.w.u.u.u.s.s.s.l.l.l.t.IQtQtQtQtQtQtQtQtQtQtQtQtQtQtQtQtQtQtQt",
"QtQtQtQtQtQtQtQtQtQtQtQtQtQtQt.I.I.K.M.N.O.P.Q.R.E.x.E.E.E.p.S.x.v.u.u.u.s.s.s.s.l.l.t.M.K.I.IQtQtQtQtQtQtQtQtQtQtQtQtQtQtQtQtQt",
"QtQtQtQtQtQtQtQtQtQtQtQtQtQt.I.K.T.U.V.W.S.X.Y.Z.t.E.E.E.p.E.0.0.w.u.u.u.s.s.l.l.t.t.W.V.U.T.K.IQtQtQtQtQtQtQtQtQtQtQtQtQtQtQtQt",
"QtQtQtQtQtQtQtQtQtQtQtQtQt.I.L.1.2.3.4.5.6.7.8.E.x.x.E.E.E.E.9.9.x.t.t.t.t.t.p.t.7.6.5.4.3#..1.L.IQtQtQtQtQtQtQtQtQtQtQtQtQtQtQt",
"QtQtQtQtQtQtQtQtQtQtQtQt.I.K###a#b#c#d#e#f.x.H.E.E.E.E.E.E.E.x.l.H.F.H.H.x.t#g#h#i#f#e#d#c#b#a##.K.IQtQtQtQtQtQtQtQtQtQtQtQtQtQt",
"QtQtQtQtQtQtQtQtQtQtQtQt.I#j#k#l#m#n#i#o#p.x.H.H.x.x.E.E.E.E.x.x.x.x.p.p.t.t#q#q#q#p#o#i#n#m#l#k#j.IQtQtQtQtQtQtQtQtQtQtQtQtQtQt",
"QtQtQtQtQtQtQtQtQtQtQtQt.I#j#r#l#m#e#i#o#p.x.x.x.E.E.E.E.E.H.F.F.H.H.H.x.x.t#q#q#q#p#o#i#e#m#s#r#j.IQtQtQtQtQtQtQtQtQtQtQtQtQtQt",
"QtQtQtQtQtQtQtQtQtQtQtQt.I#t###a#b#c#d#e#f.p.p.E.p.E.p#p#u.H.H.H.p.t.x.t.p.p#g#h#i#f#e#d#c#b#a###t.IQtQtQtQtQtQtQtQtQtQtQtQtQtQt",
"QtQtQtQtQtQtQtQtQtQtQtQtQt.I.L#v#.#w#b#x.6.7.8#y#z#A#B#C#D.x.x.x.t.p.p.p#A#z#y.8.7.6#x#b#w#.#v.L.IQtQtQtQtQtQtQtQtQtQtQtQtQtQtQt",
"QtQtQtQtQtQtQtQtQtQtQtQtQtQt.I#t.N.U.V.W#E#F.Y.Z#G#H#I#c#J#m.0.0#m#J#c#I#H#G.Z.Y#F#E.W.V.U.N#t.IQtQtQtQtQtQtQtQtQtQtQtQtQtQtQtQt",
"QtQtQtQtQtQtQtQtQtQtQtQtQtQtQt.I.I.K.M.N.O.P.Q.R#K#L#M#N#O#P.S.S#P#O#N#M#L#K.R.Q.P##.N.M.K.I.IQtQtQtQtQtQtQtQtQtQtQtQtQtQtQtQtQt",
"QtQtQtQtQtQtQtQtQtQtQtQtQtQtQtQtQt.I.I.I.J.K.L.M#Q.N#R#S#S#S#T#T#S#S#S#R.N#Q.M.L.K.J.I.I.IQtQtQtQtQtQtQtQtQtQtQtQtQtQtQtQtQtQtQt",
"QtQtQtQtQtQtQtQtQtQtQtQtQtQtQtQtQtQtQtQtQt.I.I.I.I.I.I.I.I.I.I.I.I.I.I.I.I.I.I.I.IQtQtQtQtQtQtQtQtQtQtQtQtQtQtQtQtQtQtQtQtQtQtQt",
"QtQtQtQtQtQtQtQtQtQtQtQtQtQtQtQtQtQtQtQtQtQtQtQtQtQtQtQtQtQtQtQtQtQtQtQtQtQtQtQtQtQtQtQtQtQtQtQtQtQtQtQtQtQtQtQtQtQtQtQtQtQtQtQt",
"QtQtQtQtQtQtQtQtQtQtQtQtQtQtQtQtQtQtQtQtQtQtQtQtQtQtQtQtQtQtQtQtQtQtQtQtQtQtQtQtQtQtQtQtQtQtQtQtQtQtQtQtQtQtQtQtQtQtQtQtQtQtQtQt"};
