/* XPM */
static char *dummy[]={
"64 64 118 2",
"Qt c None",
".M c #000000",
"#W c #000000",
".P c #000000",
"#y c #000000",
".3 c #000000",
"#o c #000000",
".Q c #000000",
".O c #000000",
".T c #000000",
".N c #000000",
"#X c #000000",
"#Y c #000000",
"#Z c #000000",
".R c #000000",
"#c c #000000",
".4 c #000000",
"#A c #000000",
".U c #000000",
"#O c #000000",
"#p c #000000",
"#w c #000000",
"#P c #000000",
".V c #000000",
"#Q c #000000",
".5 c #000000",
"#b c #000000",
".S c #000000",
".W c #000000",
"#R c #000000",
"#d c #000000",
"#S c #000000",
"#T c #000000",
"#U c #000000",
"#V c #000000",
".X c #000000",
".2 c #000000",
".6 c #000000",
"#B c #000000",
".Y c #000000",
"#J c #000000",
"#q c #000000",
"#x c #000000",
".Z c #000000",
".7 c #000000",
"#e c #000000",
".1 c #000000",
".0 c #000000",
".8 c #000000",
"#C c #000000",
"#K c #000000",
"#L c #000000",
"#f c #000000",
".9 c #000000",
"#M c #000000",
"#r c #000000",
"#N c #000000",
"#. c #000000",
"#g c #000000",
"## c #000000",
"#a c #000000",
"#D c #000000",
"#s c #000000",
"#h c #000000",
"#E c #000000",
"#F c #000000",
"#G c #000000",
"#i c #000000",
"#H c #000000",
"#I c #000000",
"#j c #000000",
"#k c #000000",
"#l c #000000",
"#m c #000000",
"#n c #000000",
"#t c #000000",
"#z c #000000",
"#u c #000000",
"#v c #000000",
".x c #000003",
".e c #00000f",
".L c #00070c",
".m c #07050d",
".v c #141d32",
".k c #1baba8",
".H c #1e232c",
".h c #25424b",
".q c #280500",
".u c #2b2c38",
".D c #303a55",
".G c #362700",
".I c #3f4449",
".E c #4b5e7f",
".o c #4f211e",
".n c #4f5463",
".b c #52300c",
".s c #5b0a00",
".C c #684700",
".J c #6c7273",
".F c #708ea7",
".r c #757c87",
".t c #841914",
".i c #8b4435",
".# c #946230",
".K c #99a09e",
".A c #9e7b10",
".w c #b1b5be",
".g c #b5bfce",
".p c #c26552",
".z c #c91b26",
".a c #d1a049",
".B c #dfba18",
".c c #f0e883",
".j c #f2ffff",
".y c #f4fffe",
".f c #fd9370",
".l c #ffe5ba",
".d c #fffffa",
"QtQtQtQtQtQtQtQtQtQtQtQtQtQtQtQtQtQtQtQtQtQtQtQtQtQtQtQtQtQtQtQtQtQtQtQtQtQtQtQtQtQtQtQtQtQtQtQtQtQtQtQtQtQtQtQtQtQtQtQtQtQtQtQt",
"QtQtQtQtQtQtQtQtQtQtQtQtQtQtQtQtQtQtQtQtQtQtQtQtQtQtQtQtQtQtQtQtQtQtQtQtQtQtQtQtQtQtQtQtQtQtQtQtQtQtQtQtQtQtQtQtQtQtQtQtQtQtQtQt",
"QtQtQtQtQtQtQtQtQtQtQtQtQtQtQtQtQtQtQtQtQtQtQtQtQtQtQtQt.#.a.#QtQtQtQtQtQtQtQtQtQtQtQtQtQtQtQtQtQtQtQtQtQtQtQtQtQtQtQtQtQtQtQtQt",
"QtQtQtQtQtQtQtQtQtQtQtQtQtQtQtQtQtQtQtQtQtQtQtQtQtQtQtQt.#.a.#.#.#.#QtQtQtQtQtQtQtQtQtQtQtQtQtQtQtQtQtQtQtQtQtQtQtQtQtQtQtQtQtQt",
"QtQtQtQtQtQtQtQtQtQtQtQtQtQtQtQtQtQtQtQtQtQtQtQtQtQt.#.#.b.b.a.#.#.#.a.#QtQtQtQtQtQtQtQtQtQtQtQtQtQtQtQtQtQtQtQtQtQtQtQtQtQtQtQt",
"QtQtQtQtQtQtQtQtQtQtQtQtQtQtQtQtQtQtQtQtQtQtQtQtQt.b.#.#.a.#.b.a.#.a.a.#.bQtQtQtQtQtQtQtQtQtQtQtQtQtQtQtQtQtQtQtQtQtQtQtQtQtQtQt",
"QtQtQtQtQtQtQtQtQtQtQtQtQtQtQtQtQtQtQtQtQtQtQtQt.b.b.#.a.c.a.#.a.a.c.a.a.b.bQtQtQtQtQtQtQtQtQtQtQtQtQtQtQtQtQtQtQtQtQtQtQtQtQtQt",
"QtQtQtQtQtQtQtQtQtQtQtQtQtQtQtQtQtQtQtQtQtQtQt.#.b.#.c.c.a.c.a.c.c.a.c.a.#.bQtQtQtQtQtQtQtQtQtQtQtQtQtQtQtQtQtQtQtQtQtQtQtQtQtQt",
"QtQtQtQtQtQtQtQtQtQtQtQtQtQtQtQtQtQtQtQtQtQtQt.#.#.a.c.a.d.a.c.c.a.d.a.#.a.#.#QtQtQtQtQtQtQtQtQtQtQtQtQtQtQtQtQtQtQtQtQtQtQtQtQt",
"QtQtQtQtQtQtQtQtQtQtQtQtQtQtQtQtQtQtQtQtQtQtQtQt.b.b.a.d.c.a.d.c.a.c.d.a.#.a.#.#QtQtQtQtQtQtQtQtQtQtQtQtQtQtQtQtQtQtQtQtQtQtQtQt",
"QtQtQtQtQtQtQtQtQtQtQtQtQtQtQtQtQtQtQtQtQtQtQt.a.#.a.c.c.a.#.d.d.#.a.c.a.b.#.a.#QtQtQtQtQtQtQtQtQtQtQtQtQtQtQtQtQtQtQtQtQtQtQtQt",
"QtQtQtQtQtQtQtQtQtQtQtQtQtQtQtQtQtQtQtQtQtQtQt.a.a.c.#.a.#.b.a.d.b.#.a.c.b.b.bQtQtQtQtQtQtQtQtQtQtQtQtQtQtQtQtQtQtQtQtQtQtQtQtQt",
"QtQtQtQtQtQtQtQtQtQtQtQtQtQtQtQtQtQtQtQtQtQtQt.b.b.b.a.a.e.e.#.c.f.e.e.a.b.a.bQtQtQtQtQtQtQtQtQtQtQtQtQtQtQtQtQtQtQtQtQtQtQtQtQt",
"QtQtQtQtQtQtQtQtQtQtQtQtQtQtQtQtQtQtQtQtQtQtQtQtQt.b.a.#.g.h.#.a.e.h.g.#.f.#.bQtQtQtQtQtQtQtQtQtQtQtQtQtQtQtQtQtQtQtQtQtQtQtQtQt",
"QtQtQtQtQtQtQtQtQtQtQtQtQtQtQtQtQtQtQtQtQtQtQtQtQt.#.a.i.j.k.l.#.l.k.j.b.f.b.#QtQtQtQtQtQtQtQtQtQtQtQtQtQtQtQtQtQtQtQtQtQtQtQtQt",
"QtQtQtQtQtQtQtQtQtQtQtQtQtQtQtQtQtQtQtQtQtQtQtQtQt.#.b.i.f.l.l.l.l.l.i.i.b.mQtQtQtQtQtQtQtQtQtQtQtQtQtQtQtQtQtQtQtQtQtQtQtQtQtQt",
"QtQtQtQtQtQtQtQtQtQtQtQtQtQtQtQtQtQtQtQtQtQtQtQt.m.m.n.o.p.l.l.l.l.l.p.o.q.m.mQtQtQtQtQtQtQtQtQtQtQtQtQtQtQtQtQtQtQtQtQtQtQtQtQt",
"QtQtQtQtQtQtQtQtQtQtQtQtQtQtQtQtQtQtQtQtQtQtQt.m.m.r.s.q.o.p.f.f.f.p.o.q.q.n.m.mQtQtQtQtQtQtQtQtQtQtQtQtQtQtQtQtQtQtQtQtQtQtQtQt",
"QtQtQtQtQtQtQtQtQtQtQtQtQtQtQtQtQtQtQtQtQtQtQt.m.r.s.t.q.u.o.i.i.i.o.u.q.s.u.n.m.mQtQtQtQtQtQtQtQtQtQtQtQtQtQtQtQtQtQtQtQtQtQtQt",
"QtQtQtQtQtQtQtQtQtQtQtQtQtQtQtQtQtQtQtQtQtQt.v.m.w.r.t.q.u.n.x.m.x.u.u.q.t.s.u.r.mQtQtQtQtQtQtQtQtQtQtQtQtQtQtQtQtQtQtQtQtQtQtQt",
"QtQtQtQtQtQtQtQtQtQtQtQtQtQtQtQtQtQtQtQtQtQt.v.m.n.y.z.t.r.n.x.x.u.u.r.q.t.u.w.n.mQtQtQtQtQtQtQtQtQtQtQtQtQtQtQtQtQtQtQtQtQtQtQt",
"QtQtQtQtQtQtQtQtQtQtQtQtQtQtQtQtQtQtQtQtQt.A.v.x.m.r.y.z.u.w.x.n.w.w.q.t.z.y.n.m.vQtQtQtQtQtQtQtQtQtQtQtQtQtQtQtQtQtQtQtQtQtQtQt",
"QtQtQtQtQtQtQtQtQtQtQtQtQtQtQtQtQtQtQtQtQt.A.B.v.x.x.w.z.t.q.n.w.u.x.t.z.y.r.m.v.CQtQtQtQtQtQtQtQtQtQtQtQtQtQtQtQtQtQtQtQtQtQtQt",
"QtQtQtQtQtQtQtQtQtQtQtQtQtQtQtQtQtQtQtQtQt.A.B.D.v.v.x.w.z.q.w.v.u.q.z.z.w.m.D.v.C.vQtQtQtQtQtQtQtQtQtQtQtQtQtQtQtQtQtQtQtQtQtQt",
"QtQtQtQtQtQtQtQtQtQtQtQtQtQtQtQtQtQtQtQtQt.v.D.D.D.v.v.y.z.q.u.n.u.q.t.y.m.x.v.D.v.vQtQtQtQtQtQtQtQtQtQtQtQtQtQtQtQtQtQtQtQtQtQt",
"QtQtQtQtQtQtQtQtQtQtQtQtQtQtQtQtQtQtQtQt.v.D.E.D.D.x.v.w.t.v.A.n.B.v.r.w.v.x.v.D.D.v.vQtQtQtQtQtQtQtQtQtQtQtQtQtQtQtQtQtQtQtQtQt",
"QtQtQtQtQtQtQtQtQtQtQtQtQtQtQtQtQtQtQtQt.v.E.E.D.v.x.v.v.r.v.u.n.n.v.w.n.v.x.v.D.E.D.vQtQtQtQtQtQtQtQtQtQtQtQtQtQtQtQtQtQtQtQtQt",
"QtQtQtQtQtQtQtQtQtQtQtQtQtQtQtQtQtQtQt.v.D.F.E.D.vQt.v.v.r.v.C.n.A.v.y.v.vQt.x.D.E.E.vQtQtQtQtQtQtQtQtQtQtQtQtQtQtQtQtQtQtQtQtQt",
"QtQtQtQtQtQtQtQtQtQtQtQtQtQtQtQtQtQtQt.v.E.F.E.D.xQt.x.v.w.v.u.n.n.v.y.v.xQt.x.v.D.E.v.uQtQtQtQtQtQtQtQtQtQtQtQtQtQtQtQtQtQtQtQt",
"QtQtQtQtQtQtQtQtQtQtQtQtQtQtQtQtQtQtQt.v.w.w.n.v.xQt.x.x.w.x.B.A.C.x.w.x.x.u.x.v.D.D.v.uQtQtQtQtQtQtQtQtQtQtQtQtQtQtQtQtQtQtQtQt",
"QtQtQtQtQtQtQtQtQtQtQtQtQtQtQtQtQtQt.v.r.D.E.D.n.mQt.n.x.r.x.A.C.G.x.r.x.n.u.m.n.r.w.n.vQtQtQtQtQtQtQtQtQtQtQtQtQtQtQtQtQtQtQtQt",
"QtQtQtQtQtQtQtQtQtQtQtQtQtQtQtQtQtQt.v.w.y.w.r.v.m.x.m.u.r.C.u.v.v.v.r.n.x.x.m.v.D.D.D.uQtQtQtQtQtQtQtQtQtQtQtQtQtQtQtQtQtQtQtQt",
"QtQtQtQtQtQtQtQtQtQtQtQtQtQtQtQtQtQt.w.x.v.x.x.nQt.x.m.x.r.v.A.A.C.G.n.x.v.v.u.u.n.n.u.xQtQtQtQtQtQtQtQtQtQtQtQtQtQtQtQtQtQtQtQt",
"QtQtQtQtQtQtQtQtQtQtQtQtQtQtQtQtQtQt.x.H.I.H.H.xQt.x.v.x.r.v.v.v.v.v.n.x.v.v.x.m.x.x.H.HQtQtQtQtQtQtQtQtQtQtQtQtQtQtQtQtQtQtQtQt",
"QtQtQtQtQtQtQtQtQtQtQtQtQtQtQtQtQtQt.H.I.J.I.J.x.x.m.v.v.r.C.v.v.v.G.r.x.v.v.x.H.x.I.H.xQtQtQtQtQtQtQtQtQtQtQtQtQtQtQtQtQtQtQtQt",
"QtQtQtQtQtQtQtQtQtQtQtQtQtQtQtQtQtQt.x.J.K.x.K.x.x.x.v.v.r.m.C.A.C.G.r.x.v.v.x.x.x.H.xQtQtQtQtQtQtQtQtQtQtQtQtQtQtQtQtQtQtQtQtQt",
"QtQtQtQtQtQtQtQtQtQtQtQtQtQtQtQtQtQt.x.J.K.x.I.x.x.v.v.v.r.v.m.m.v.v.w.x.v.D.v.xQtQtQtQtQtQtQtQtQtQtQtQtQtQtQtQtQtQtQtQtQtQtQtQt",
"QtQtQtQtQtQtQtQtQtQtQtQtQtQtQtQtQtQtQt.x.H.H.xQt.x.v.D.v.w.n.r.r.r.n.r.n.v.D.v.xQtQtQtQtQtQtQtQtQtQtQtQtQtQtQtQtQtQtQtQtQtQtQtQt",
"QtQtQtQtQtQtQtQtQtQtQtQtQtQtQtQtQtQtQtQtQtQtQtQt.x.v.D.x.w.m.x.m.m.m.n.r.x.D.D.H.xQtQtQtQtQtQtQtQtQtQtQtQtQtQtQtQtQtQtQtQtQtQtQt",
"QtQtQtQtQtQtQtQtQtQtQtQtQtQtQtQtQtQtQtQtQtQtQtQt.v.D.D.x.w.x.x.m.v.v.D.w.x.D.D.D.xQtQtQtQtQtQtQtQtQtQtQtQtQtQtQtQtQtQtQtQtQtQtQt",
"QtQtQtQtQtQtQtQtQtQtQtQtQtQtQtQtQtQtQtQtQtQtQt.x.H.D.v.r.r.x.x.m.v.x.H.r.r.v.E.D.H.xQtQtQtQtQtQtQtQtQtQtQtQtQtQtQtQtQtQtQtQtQtQt",
"QtQtQtQtQtQtQtQtQtQtQtQtQtQtQtQtQtQtQtQtQtQtQt.x.D.D.v.w.n.x.m.x.H.I.H.n.w.x.E.D.D.xQtQtQtQtQtQtQtQtQtQtQtQtQtQtQtQtQtQtQtQtQtQt",
"QtQtQtQtQtQtQtQtQtQtQtQtQtQtQtQtQtQtQtQtQtQt.x.v.D.D.x.w.v.m.x.H.J.H.I.H.w.x.D.E.D.v.xQtQtQtQtQtQtQtQtQtQtQtQtQtQtQtQtQtQtQtQtQt",
"QtQtQtQtQtQtQtQtQtQtQtQtQtQtQtQtQtQtQtQtQt.x.x.D.E.v.x.r.H.x.x.I.H.K.J.I.r.r.v.E.E.D.x.mQtQtQtQtQtQtQtQtQtQtQtQtQtQtQtQtQtQtQtQt",
"QtQtQtQtQtQtQtQtQtQtQtQtQtQtQtQtQtQtQtQt.u.x.v.E.E.v.r.n.J.I.L.H.I.J.I.H.n.w.v.E.E.D.v.mQtQtQtQtQtQtQtQtQtQtQtQtQtQtQtQtQtQtQtQt",
"QtQtQtQtQtQtQtQtQtQtQtQtQtQtQtQtQtQtQtQt.u.x.H.E.D.x.w.J.I.L.L.L.H.I.H.H.n.w.r.E.D.v.x.uQtQtQtQtQtQtQtQtQtQtQtQtQtQtQtQtQtQtQtQt",
"QtQtQtQtQtQtQtQtQtQtQtQtQtQtQtQtQtQtQtQt.u.x.v.D.D.x.y.I.L.H.L.L.L.H.u.L.L.r.w.v.x.x.n.uQtQtQtQtQtQtQtQtQtQtQtQtQtQtQtQtQtQtQtQt",
"QtQtQtQtQtQtQtQtQtQtQtQtQtQtQtQtQtQtQtQt.m.n.x.v.D.r.w.H.L.H.L.H.H.I.I.H.H.n.y.r.r.n.u.uQtQtQtQtQtQtQtQtQtQtQtQtQtQtQtQtQtQtQtQt",
"QtQtQtQtQtQtQtQtQtQtQtQtQtQtQtQtQtQtQtQt.m.u.r.w.r.y.m.L.L.L.L.L.I.J.J.J.I.n.y.w.n.u.u.mQtQtQtQtQtQtQtQtQtQtQtQtQtQtQtQtQtQtQtQt",
"QtQtQtQtQtQtQtQtQtQtQtQtQtQtQtQtQt.M.M.M.m.u.u.n.w.y.L.L.L.L.L.L.u.H.I.H.N.O.r.y.n.u.m.M.MQtQtQtQtQtQtQtQtQtQtQtQtQtQtQtQtQtQtQt",
"QtQtQtQtQtQtQtQtQtQtQtQtQtQtQt.M.M.P.Q.N.R.m.u.n.y.r.L.H.L.L.L.L.I.J.J.I.L.S.n.y.u.m.N.Q.P.M.MQtQtQtQtQtQtQtQtQtQtQtQtQtQtQtQtQt",
"QtQtQtQtQtQtQtQtQtQtQtQtQtQt.M.P.T.U.V.W.X.Y.Z.m.y.n.L.I.H.H.L.L.H.H.H.u.L.0.1.w.m.2.W.V.U.T.P.MQtQtQtQtQtQtQtQtQtQtQtQtQtQtQtQt",
"QtQtQtQtQtQtQtQtQtQtQtQtQt.M.3.4.5.6.7.8.9#.###a.m.x.L.I.I.H.L.L.I.K.J.I.L.L#a###..9.8.7.6#b.4.3.MQtQtQtQtQtQtQtQtQtQtQtQtQtQtQt",
"QtQtQtQtQtQtQtQtQtQtQtQt.M.P#c#d#e#f#g#h#i#j#k#l#m#n#n.x.L.x.L.L.L.H.I.H.L.L#l#k#j#i#h#g#f#e#d#c.P.MQtQtQtQtQtQtQtQtQtQtQtQtQtQt",
"QtQtQtQtQtQtQtQtQtQtQtQt.M#o#p#q#r#s#j#m#t#u#u#u#u#u#v#v#v#v#v.L.I.J.J.J.I.H#u#u#u#t#m#j#s#r#q#p#o.MQtQtQtQtQtQtQtQtQtQtQtQtQtQt",
"QtQtQtQtQtQtQtQtQtQtQtQt.M#o#w#q#r#h#j#m#t#u#u#u#u#u#v#v#v#v#v.L.H.I.I.I.I.H#u#u#u#t#m#j#h#r#x#w#o.MQtQtQtQtQtQtQtQtQtQtQtQtQtQt",
"QtQtQtQtQtQtQtQtQtQtQtQt.M#y#c#d#e#f#g#h#i#j#k#l#m#n#n#t#z#z#u.x.x.L.H.H.m.x#l#k#j#i#h#g#f#e#d#c#y.MQtQtQtQtQtQtQtQtQtQtQtQtQtQt",
"QtQtQtQtQtQtQtQtQtQtQtQtQt.M.3#A#b#B#e#C.9#.###a#D#E#F#G#H#I#I#I#I#H#G#F#E#D#a###..9#C#e#B#b#A.3.MQtQtQtQtQtQtQtQtQtQtQtQtQtQtQt",
"QtQtQtQtQtQtQtQtQtQtQtQtQtQt.M#y.N.U.V.W.2#J.Z.1.0#K#L#f#M#r#N#N#r#M#f#L#K.0.1.Z#J.2.W.V.U.N#y.MQtQtQtQtQtQtQtQtQtQtQtQtQtQtQtQt",
"QtQtQtQtQtQtQtQtQtQtQtQtQtQtQt.M.M.P.Q.N.R#O#P#Q.S#R#S#T#U#V.X.X#V#U#T#S#R.S#Q#P#O#c.N.Q.P.M.MQtQtQtQtQtQtQtQtQtQtQtQtQtQtQtQtQt",
"QtQtQtQtQtQtQtQtQtQtQtQtQtQtQtQtQt.M.M.M#W.P.3.Q.O.N#X#Y#Y#Y#Z#Z#Y#Y#Y#X.N.O.Q.3.P#W.M.M.MQtQtQtQtQtQtQtQtQtQtQtQtQtQtQtQtQtQtQt",
"QtQtQtQtQtQtQtQtQtQtQtQtQtQtQtQtQtQtQtQtQt.M.M.M.M.M.M.M.M.M.M.M.M.M.M.M.M.M.M.M.MQtQtQtQtQtQtQtQtQtQtQtQtQtQtQtQtQtQtQtQtQtQtQt",
"QtQtQtQtQtQtQtQtQtQtQtQtQtQtQtQtQtQtQtQtQtQtQtQtQtQtQtQtQtQtQtQtQtQtQtQtQtQtQtQtQtQtQtQtQtQtQtQtQtQtQtQtQtQtQtQtQtQtQtQtQtQtQtQt",
"QtQtQtQtQtQtQtQtQtQtQtQtQtQtQtQtQtQtQtQtQtQtQtQtQtQtQtQtQtQtQtQtQtQtQtQtQtQtQtQtQtQtQtQtQtQtQtQtQtQtQtQtQtQtQtQtQtQtQtQtQtQtQtQt"};
