/* XPM */
static char *dummy[]={
"64 64 118 2",
"Qt c None",
".M c #000000",
"#W c #000000",
".P c #000000",
"#B c #000000",
".4 c #000000",
"#r c #000000",
".Q c #000000",
".O c #000000",
".T c #000000",
".N c #000000",
"#X c #000000",
"#Y c #000000",
"#Z c #000000",
".R c #000000",
"#f c #000000",
".5 c #000000",
"#D c #000000",
".U c #000000",
"#O c #000000",
"#s c #000000",
"#z c #000000",
"#P c #000000",
".V c #000000",
"#Q c #000000",
".6 c #000000",
"#e c #000000",
".S c #000000",
".W c #000000",
"#R c #000000",
"#g c #000000",
"#S c #000000",
"#T c #000000",
"#U c #000000",
"#V c #000000",
".X c #000000",
".3 c #000000",
".7 c #000000",
"#E c #000000",
".Y c #000000",
".2 c #000000",
"#t c #000000",
"#A c #000000",
".Z c #000000",
".8 c #000000",
"#h c #000000",
"#K c #000000",
".1 c #000000",
".9 c #000000",
"#F c #000000",
".0 c #000000",
"#L c #000000",
"#i c #000000",
"#. c #000000",
"#M c #000000",
"#u c #000000",
"#N c #000000",
"## c #000000",
"#j c #000000",
"#a c #000000",
"#b c #000000",
"#c c #000000",
"#v c #000000",
"#k c #000000",
"#d c #000000",
"#G c #000000",
"#H c #000000",
"#l c #000000",
"#I c #000000",
"#J c #000000",
"#m c #000000",
"#n c #000000",
"#o c #000000",
"#p c #000000",
"#q c #000000",
"#w c #000000",
"#C c #000000",
"#x c #000000",
"#y c #000000",
".w c #000003",
".e c #00000f",
".I c #00070c",
".m c #07050d",
".B c #141d32",
".k c #1baba8",
".F c #1e232c",
".h c #25424b",
".q c #280500",
".n c #2b2c38",
".u c #303a55",
".H c #362700",
".J c #3f4449",
".E c #4b5e7f",
".o c #4f211e",
".r c #4f5463",
".b c #52300c",
".s c #5b0a00",
".C c #684700",
".K c #6c7273",
".G c #708ea7",
".v c #757c87",
".t c #841914",
".i c #8b4435",
".# c #946230",
".L c #99a09e",
".D c #9e7b10",
".x c #b1b5be",
".g c #b5bfce",
".p c #c26552",
".z c #c91b26",
".a c #d1a049",
".A c #dfba18",
".c c #f0e883",
".j c #f2ffff",
".y c #f4fffe",
".f c #fd9370",
".l c #ffe5ba",
".d c #fffffa",
"QtQtQtQtQtQtQtQtQtQtQtQtQtQtQtQtQtQtQtQtQtQtQtQtQtQtQtQtQtQtQtQtQtQtQtQtQtQtQtQtQtQtQtQtQtQtQtQtQtQtQtQtQtQtQtQtQtQtQtQtQtQtQtQt",
"QtQtQtQtQtQtQtQtQtQtQtQtQtQtQtQtQtQtQtQtQtQtQtQtQtQtQtQtQtQtQtQtQtQtQtQtQtQtQtQtQtQtQtQtQtQtQtQtQtQtQtQtQtQtQtQtQtQtQtQtQtQtQtQt",
"QtQtQtQtQtQtQtQtQtQtQtQtQtQtQtQtQtQtQtQtQtQtQtQtQtQtQtQt.#.a.#QtQtQtQtQtQtQtQtQtQtQtQtQtQtQtQtQtQtQtQtQtQtQtQtQtQtQtQtQtQtQtQtQt",
"QtQtQtQtQtQtQtQtQtQtQtQtQtQtQtQtQtQtQtQtQtQtQtQtQtQtQtQt.#.a.#.#.#.#QtQtQtQtQtQtQtQtQtQtQtQtQtQtQtQtQtQtQtQtQtQtQtQtQtQtQtQtQtQt",
"QtQtQtQtQtQtQtQtQtQtQtQtQtQtQtQtQtQtQtQtQtQtQtQtQtQt.#.#.b.b.a.#.#.#.a.#QtQtQtQtQtQtQtQtQtQtQtQtQtQtQtQtQtQtQtQtQtQtQtQtQtQtQtQt",
"QtQtQtQtQtQtQtQtQtQtQtQtQtQtQtQtQtQtQtQtQtQtQtQtQt.b.#.#.a.#.b.a.#.a.a.#.bQtQtQtQtQtQtQtQtQtQtQtQtQtQtQtQtQtQtQtQtQtQtQtQtQtQtQt",
"QtQtQtQtQtQtQtQtQtQtQtQtQtQtQtQtQtQtQtQtQtQtQtQt.b.b.#.a.c.a.#.a.a.c.a.a.b.bQtQtQtQtQtQtQtQtQtQtQtQtQtQtQtQtQtQtQtQtQtQtQtQtQtQt",
"QtQtQtQtQtQtQtQtQtQtQtQtQtQtQtQtQtQtQtQtQtQtQt.#.b.#.c.c.a.c.a.c.c.a.c.a.#.bQtQtQtQtQtQtQtQtQtQtQtQtQtQtQtQtQtQtQtQtQtQtQtQtQtQt",
"QtQtQtQtQtQtQtQtQtQtQtQtQtQtQtQtQtQtQtQtQtQtQt.#.#.a.c.a.d.a.c.c.a.d.a.#.a.#.#QtQtQtQtQtQtQtQtQtQtQtQtQtQtQtQtQtQtQtQtQtQtQtQtQt",
"QtQtQtQtQtQtQtQtQtQtQtQtQtQtQtQtQtQtQtQtQtQtQtQt.b.b.a.d.c.a.d.c.a.c.d.a.#.a.#.#QtQtQtQtQtQtQtQtQtQtQtQtQtQtQtQtQtQtQtQtQtQtQtQt",
"QtQtQtQtQtQtQtQtQtQtQtQtQtQtQtQtQtQtQtQtQtQtQt.a.#.a.c.c.a.#.d.d.#.a.c.a.b.#.a.#QtQtQtQtQtQtQtQtQtQtQtQtQtQtQtQtQtQtQtQtQtQtQtQt",
"QtQtQtQtQtQtQtQtQtQtQtQtQtQtQtQtQtQtQtQtQtQtQt.a.a.c.#.a.#.b.a.d.b.#.a.c.b.b.bQtQtQtQtQtQtQtQtQtQtQtQtQtQtQtQtQtQtQtQtQtQtQtQtQt",
"QtQtQtQtQtQtQtQtQtQtQtQtQtQtQtQtQtQtQtQtQtQtQt.b.b.b.a.a.e.e.#.c.f.e.e.a.b.a.bQtQtQtQtQtQtQtQtQtQtQtQtQtQtQtQtQtQtQtQtQtQtQtQtQt",
"QtQtQtQtQtQtQtQtQtQtQtQtQtQtQtQtQtQtQtQtQtQtQtQtQt.b.a.#.g.h.#.a.e.h.g.#.f.#.bQtQtQtQtQtQtQtQtQtQtQtQtQtQtQtQtQtQtQtQtQtQtQtQtQt",
"QtQtQtQtQtQtQtQtQtQtQtQtQtQtQtQtQtQtQtQtQtQtQtQtQt.#.a.i.j.k.l.#.l.k.j.b.f.b.#QtQtQtQtQtQtQtQtQtQtQtQtQtQtQtQtQtQtQtQtQtQtQtQtQt",
"QtQtQtQtQtQtQtQtQtQtQtQtQtQtQtQtQtQtQtQtQtQtQtQtQt.#.b.i.f.l.l.l.l.l.i.i.b.mQtQtQtQtQtQtQtQtQtQtQtQtQtQtQtQtQtQtQtQtQtQtQtQtQtQt",
"QtQtQtQtQtQtQtQtQtQtQtQtQtQtQtQtQtQtQtQtQtQtQtQt.m.m.n.o.p.l.l.l.l.l.p.o.q.m.mQtQtQtQtQtQtQtQtQtQtQtQtQtQtQtQtQtQtQtQtQtQtQtQtQt",
"QtQtQtQtQtQtQtQtQtQtQtQtQtQtQtQtQtQtQtQtQtQtQt.m.m.r.s.q.o.p.f.f.f.p.o.q.q.r.m.mQtQtQtQtQtQtQtQtQtQtQtQtQtQtQtQtQtQtQtQtQtQtQtQt",
"QtQtQtQtQtQtQtQtQtQtQtQtQtQtQtQtQtQtQtQtQtQtQt.m.r.s.t.q.n.o.i.i.i.o.n.q.s.q.r.m.mQtQtQtQtQtQtQtQtQtQtQtQtQtQtQtQtQtQtQtQtQtQtQt",
"QtQtQtQtQtQtQtQtQtQtQtQtQtQtQtQtQtQtQtQtQtQt.u.m.v.s.t.q.n.v.w.m.w.v.n.q.t.s.v.x.mQtQtQtQtQtQtQtQtQtQtQtQtQtQtQtQtQtQtQtQtQtQtQt",
"QtQtQtQtQtQtQtQtQtQtQtQtQtQtQtQtQtQtQtQtQt.u.u.m.x.y.z.t.v.n.w.w.n.r.v.s.z.s.x.n.mQtQtQtQtQtQtQtQtQtQtQtQtQtQtQtQtQtQtQtQtQtQtQt",
"QtQtQtQtQtQtQtQtQtQtQtQtQtQtQtQtQtQtQtQtQt.u.A.u.m.r.y.z.n.x.w.r.x.x.q.t.t.y.n.m.B.CQtQtQtQtQtQtQtQtQtQtQtQtQtQtQtQtQtQtQtQtQtQt",
"QtQtQtQtQtQtQtQtQtQtQtQtQtQtQtQtQtQtQtQtQt.D.A.u.u.B.v.x.t.w.r.x.n.q.s.z.y.r.m.B.D.CQtQtQtQtQtQtQtQtQtQtQtQtQtQtQtQtQtQtQtQtQtQt",
"QtQtQtQtQtQtQtQtQtQtQtQtQtQtQtQtQtQtQtQtQt.D.u.E.u.F.m.y.z.q.x.B.n.q.t.t.x.n.B.B.u.CQtQtQtQtQtQtQtQtQtQtQtQtQtQtQtQtQtQtQtQtQtQt",
"QtQtQtQtQtQtQtQtQtQtQtQtQtQtQtQtQtQtQtQt.u.u.E.u.u.B.B.x.t.q.n.r.n.q.z.y.r.w.B.B.u.B.wQtQtQtQtQtQtQtQtQtQtQtQtQtQtQtQtQtQtQtQtQt",
"QtQtQtQtQtQtQtQtQtQtQtQtQtQtQtQtQtQtQtQt.u.E.E.u.B.w.B.v.x.B.D.r.A.B.t.x.w.w.B.u.E.u.wQtQtQtQtQtQtQtQtQtQtQtQtQtQtQtQtQtQtQtQtQt",
"QtQtQtQtQtQtQtQtQtQtQtQtQtQtQtQtQtQtQt.B.u.G.E.u.w.w.F.w.y.B.n.r.r.B.v.v.wQt.w.u.E.u.wQtQtQtQtQtQtQtQtQtQtQtQtQtQtQtQtQtQtQtQtQt",
"QtQtQtQtQtQtQtQtQtQtQtQtQtQtQtQtQtQtQt.B.E.G.u.B.wQt.B.B.y.B.C.r.D.B.y.w.mQt.w.u.E.E.wQtQtQtQtQtQtQtQtQtQtQtQtQtQtQtQtQtQtQtQtQt",
"QtQtQtQtQtQtQtQtQtQtQtQtQtQtQtQtQtQt.B.u.G.G.u.wQtQt.w.B.x.B.n.r.r.B.y.m.mQt.w.F.E.E.w.rQtQtQtQtQtQtQtQtQtQtQtQtQtQtQtQtQtQtQtQt",
"QtQtQtQtQtQtQtQtQtQtQtQtQtQtQtQtQtQt.B.u.G.E.B.wQtQt.w.w.x.w.A.D.C.w.x.m.m.m.w.B.u.E.B.rQtQtQtQtQtQtQtQtQtQtQtQtQtQtQtQtQtQtQtQt",
"QtQtQtQtQtQtQtQtQtQtQtQtQtQtQtQtQtQt.v.x.y.x.r.mQt.w.n.w.v.w.D.C.H.w.x.m.n.w.m.r.v.x.r.BQtQtQtQtQtQtQtQtQtQtQtQtQtQtQtQtQtQtQtQt",
"QtQtQtQtQtQtQtQtQtQtQtQtQtQtQtQtQtQt.B.u.u.u.B.mQt.w.w.r.v.C.n.B.B.B.v.n.w.w.n.w.B.B.B.mQtQtQtQtQtQtQtQtQtQtQtQtQtQtQtQtQtQtQtQt",
"QtQtQtQtQtQtQtQtQtQtQtQtQtQtQtQtQtQt.v.x.x.v.rQt.w.B.B.w.r.B.D.D.C.B.v.w.B.m.m.n.r.v.r.wQtQtQtQtQtQtQtQtQtQtQtQtQtQtQtQtQtQtQtQt",
"QtQtQtQtQtQtQtQtQtQtQtQtQtQtQtQtQtQt.w.w.w.w.m.m.m.B.B.w.r.B.B.B.B.B.v.w.B.w.I.B.F.J.JQtQtQtQtQtQtQtQtQtQtQtQtQtQtQtQtQtQtQtQtQt",
"QtQtQtQtQtQtQtQtQtQtQtQtQtQtQtQtQtQt.F.F.J.F.F.w.w.B.B.w.v.C.B.B.B.m.v.B.F.B.I.J.I.K.IQtQtQtQtQtQtQtQtQtQtQtQtQtQtQtQtQtQtQtQtQt",
"QtQtQtQtQtQtQtQtQtQtQtQtQtQtQtQtQtQt.w.J.K.w.L.w.B.F.B.w.v.m.D.C.C.m.v.B.u.B.w.I.I.IQtQtQtQtQtQtQtQtQtQtQtQtQtQtQtQtQtQtQtQtQtQt",
"QtQtQtQtQtQtQtQtQtQtQtQtQtQtQtQtQtQtQt.J.L.w.K.w.B.u.B.w.x.B.m.m.B.B.x.B.u.B.wQtQtQtQtQtQtQtQtQtQtQtQtQtQtQtQtQtQtQtQtQtQtQtQtQt",
"QtQtQtQtQtQtQtQtQtQtQtQtQtQtQtQtQtQtQt.w.F.F.w.w.B.u.B.w.x.r.v.v.v.r.x.w.u.B.wQtQtQtQtQtQtQtQtQtQtQtQtQtQtQtQtQtQtQtQtQtQtQtQtQt",
"QtQtQtQtQtQtQtQtQtQtQtQtQtQtQtQtQtQtQtQtQtQtQt.w.B.u.B.w.v.m.w.m.m.m.x.w.B.F.B.wQtQtQtQtQtQtQtQtQtQtQtQtQtQtQtQtQtQtQtQtQtQtQtQt",
"QtQtQtQtQtQtQtQtQtQtQtQtQtQtQtQtQtQtQtQtQtQtQt.B.u.u.B.v.r.w.w.m.B.B.v.v.B.u.B.wQtQtQtQtQtQtQtQtQtQtQtQtQtQtQtQtQtQtQtQtQtQtQtQt",
"QtQtQtQtQtQtQtQtQtQtQtQtQtQtQtQtQtQtQtQtQtQt.w.F.u.u.w.x.F.m.w.m.B.w.r.x.B.u.B.wQtQtQtQtQtQtQtQtQtQtQtQtQtQtQtQtQtQtQtQtQtQtQtQt",
"QtQtQtQtQtQtQtQtQtQtQtQtQtQtQtQtQtQtQtQtQtQt.w.B.E.u.w.x.F.m.m.w.F.J.F.x.w.u.u.F.wQtQtQtQtQtQtQtQtQtQtQtQtQtQtQtQtQtQtQtQtQtQtQt",
"QtQtQtQtQtQtQtQtQtQtQtQtQtQtQtQtQtQtQtQtQt.w.F.u.E.B.v.v.B.m.w.F.K.F.J.v.w.u.E.B.w.wQtQtQtQtQtQtQtQtQtQtQtQtQtQtQtQtQtQtQtQtQtQt",
"QtQtQtQtQtQtQtQtQtQtQtQtQtQtQtQtQtQtQtQtQt.w.B.E.E.w.x.r.F.w.w.J.F.K.K.r.v.B.E.u.B.wQtQtQtQtQtQtQtQtQtQtQtQtQtQtQtQtQtQtQtQtQtQt",
"QtQtQtQtQtQtQtQtQtQtQtQtQtQtQtQtQtQtQtQt.m.B.u.E.u.w.y.K.K.J.I.F.J.K.J.F.x.w.u.E.u.w.mQtQtQtQtQtQtQtQtQtQtQtQtQtQtQtQtQtQtQtQtQt",
"QtQtQtQtQtQtQtQtQtQtQtQtQtQtQtQtQtQtQtQt.m.B.u.E.B.v.x.K.J.I.I.I.F.J.F.F.r.x.B.E.u.r.mQtQtQtQtQtQtQtQtQtQtQtQtQtQtQtQtQtQtQtQtQt",
"QtQtQtQtQtQtQtQtQtQtQtQtQtQtQtQtQtQtQtQt.n.w.B.u.w.y.r.J.I.F.I.I.I.F.n.I.I.y.w.u.B.v.mQtQtQtQtQtQtQtQtQtQtQtQtQtQtQtQtQtQtQtQtQt",
"QtQtQtQtQtQtQtQtQtQtQtQtQtQtQtQtQtQtQtQt.n.r.w.w.v.y.r.F.I.F.I.F.F.J.J.F.F.r.y.B.x.r.mQtQtQtQtQtQtQtQtQtQtQtQtQtQtQtQtQtQtQtQtQt",
"QtQtQtQtQtQtQtQtQtQtQtQtQtQtQtQtQtQtQtQt.n.n.r.v.x.x.I.I.I.I.I.I.J.K.K.K.J.m.y.x.v.r.mQtQtQtQtQtQtQtQtQtQtQtQtQtQtQtQtQtQtQtQtQt",
"QtQtQtQtQtQtQtQtQtQtQtQtQtQtQtQtQt.M.M.M.m.n.n.r.y.r.I.I.I.I.I.I.n.F.J.F.N.O.v.y.r.m.M.M.MQtQtQtQtQtQtQtQtQtQtQtQtQtQtQtQtQtQtQt",
"QtQtQtQtQtQtQtQtQtQtQtQtQtQtQt.M.M.P.Q.N.R.m.n.r.y.r.I.F.I.I.I.I.J.K.K.J.I.S.r.y.m.R.N.Q.P.M.MQtQtQtQtQtQtQtQtQtQtQtQtQtQtQtQtQt",
"QtQtQtQtQtQtQtQtQtQtQtQtQtQt.M.P.T.U.V.W.X.Y.Z.m.x.0.I.J.F.F.I.I.F.F.F.n.I.1.w.m.2.3.W.V.U.T.P.MQtQtQtQtQtQtQtQtQtQtQtQtQtQtQtQt",
"QtQtQtQtQtQtQtQtQtQtQtQtQt.M.4.5.6.7.8.9#.###a#b#c#d.m.J.J.F.I.I.J.L.K.J.I.I#b#a###..9.8.7#e.5.4.MQtQtQtQtQtQtQtQtQtQtQtQtQtQtQt",
"QtQtQtQtQtQtQtQtQtQtQtQt.M.P#f#g#h#i#j#k#l#m#n#o#p#q#q.w.I.w.I.I.I.F.J.F.I.I#o#n#m#l#k#j#i#h#g#f.P.MQtQtQtQtQtQtQtQtQtQtQtQtQtQt",
"QtQtQtQtQtQtQtQtQtQtQtQt.M#r#s#t#u#v#m#p#w#x#x#x#x#x#y#y#y#y#y.I.J.K.K.K.J.F#x#x#x#w#p#m#v#u#t#s#r.MQtQtQtQtQtQtQtQtQtQtQtQtQtQt",
"QtQtQtQtQtQtQtQtQtQtQtQt.M#r#z#t#u#k#m#p#w#x#x#x#x#x#y#y#y#y#y.I.F.J.J.J.J.F#x#x#x#w#p#m#k#u#A#z#r.MQtQtQtQtQtQtQtQtQtQtQtQtQtQt",
"QtQtQtQtQtQtQtQtQtQtQtQt.M#B#f#g#h#i#j#k#l#m#n#o#p#q#q#w#C#C#x.w.w.I.F.F.m.w#o#n#m#l#k#j#i#h#g#f#B.MQtQtQtQtQtQtQtQtQtQtQtQtQtQt",
"QtQtQtQtQtQtQtQtQtQtQtQtQt.M.4#D#e#E#h#F#.###a#b#c#d#G#H#I#J#J#J#J#I#H#G#d#c#b#a###.#F#h#E#e#D.4.MQtQtQtQtQtQtQtQtQtQtQtQtQtQtQt",
"QtQtQtQtQtQtQtQtQtQtQtQtQtQt.M#B.N.U.V.W.3.2.Z#K.1.0#L#i#M#u#N#N#u#M#i#L.0.1#K.Z.2.3.W.V.U.N#B.MQtQtQtQtQtQtQtQtQtQtQtQtQtQtQtQt",
"QtQtQtQtQtQtQtQtQtQtQtQtQtQtQt.M.M.P.Q.N.R#O#P#Q.S#R#S#T#U#V.X.X#V#U#T#S#R.S#Q#P#O#f.N.Q.P.M.MQtQtQtQtQtQtQtQtQtQtQtQtQtQtQtQtQt",
"QtQtQtQtQtQtQtQtQtQtQtQtQtQtQtQtQt.M.M.M#W.P.4.Q.O.N#X#Y#Y#Y#Z#Z#Y#Y#Y#X.N.O.Q.4.P#W.M.M.MQtQtQtQtQtQtQtQtQtQtQtQtQtQtQtQtQtQtQt",
"QtQtQtQtQtQtQtQtQtQtQtQtQtQtQtQtQtQtQtQtQt.M.M.M.M.M.M.M.M.M.M.M.M.M.M.M.M.M.M.M.MQtQtQtQtQtQtQtQtQtQtQtQtQtQtQtQtQtQtQtQtQtQtQt",
"QtQtQtQtQtQtQtQtQtQtQtQtQtQtQtQtQtQtQtQtQtQtQtQtQtQtQtQtQtQtQtQtQtQtQtQtQtQtQtQtQtQtQtQtQtQtQtQtQtQtQtQtQtQtQtQtQtQtQtQtQtQtQtQt",
"QtQtQtQtQtQtQtQtQtQtQtQtQtQtQtQtQtQtQtQtQtQtQtQtQtQtQtQtQtQtQtQtQtQtQtQtQtQtQtQtQtQtQtQtQtQtQtQtQtQtQtQtQtQtQtQtQtQtQtQtQtQtQtQt"};
