/* XPM */
static char *dummy[]={
"64 64 119 2",
"Qt c None",
".N c #000000",
"#X c #000000",
".Q c #000000",
"#E c #000000",
".3 c #000000",
"#v c #000000",
".R c #000000",
".O c #000000",
".U c #000000",
".P c #000000",
"#Y c #000000",
"#Z c #000000",
"#0 c #000000",
"#P c #000000",
"#h c #000000",
".4 c #000000",
"#F c #000000",
".V c #000000",
"#Q c #000000",
"#w c #000000",
"#C c #000000",
"#R c #000000",
".W c #000000",
"#S c #000000",
".5 c #000000",
"#g c #000000",
".S c #000000",
".X c #000000",
".T c #000000",
"#i c #000000",
"#T c #000000",
"#U c #000000",
"#V c #000000",
"#W c #000000",
".Y c #000000",
"#K c #000000",
".6 c #000000",
"#G c #000000",
"#L c #000000",
"#x c #000000",
"#D c #000000",
"#M c #000000",
".7 c #000000",
"#j c #000000",
".Z c #000000",
".0 c #000000",
".8 c #000000",
"#H c #000000",
".1 c #000000",
".2 c #000000",
"#k c #000000",
".9 c #000000",
"#O c #000000",
"#y c #000000",
"#N c #000000",
"#. c #000000",
"#l c #000000",
"#I c #000000",
"## c #000000",
"#a c #000000",
"#z c #000000",
"#m c #000000",
"#b c #000000",
"#f c #000000",
"#e c #000000",
"#n c #000000",
"#d c #000000",
"#c c #000000",
"#J c #000000",
"#o c #000000",
"#p c #000000",
"#q c #000000",
"#r c #000000",
"#s c #000000",
"#u c #000000",
"#t c #000000",
"#A c #000000",
"#B c #000000",
".x c #000003",
".e c #00000f",
".H c #00070c",
".m c #07050d",
".A c #141d32",
".k c #1baba8",
".F c #1e232c",
".h c #25424b",
".o c #280500",
".s c #2b2c38",
".z c #303a55",
".I c #362700",
".J c #3f4449",
".E c #4b5e7f",
".p c #4f211e",
".n c #4f5463",
".b c #52300c",
".t c #5b0a00",
".B c #684700",
".K c #6c7273",
".G c #708ea7",
".r c #757c87",
".v c #841914",
".i c #8b4435",
".# c #946230",
".L c #99a09e",
".D c #9e7b10",
".u c #b1b5be",
".g c #b5bfce",
".q c #c26552",
".y c #c91b26",
".a c #d1a049",
".C c #dfba18",
".M c #e2e5e5",
".c c #f0e883",
".j c #f2ffff",
".w c #f4fffe",
".f c #fd9370",
".l c #ffe5ba",
".d c #fffffa",
"QtQtQtQtQtQtQtQtQtQtQtQtQtQtQtQtQtQtQtQtQtQtQtQtQtQtQtQtQtQtQtQtQtQtQtQtQtQtQtQtQtQtQtQtQtQtQtQtQtQtQtQtQtQtQtQtQtQtQtQtQtQtQtQt",
"QtQtQtQtQtQtQtQtQtQtQtQtQtQtQtQtQtQtQtQtQtQtQtQtQtQtQtQtQtQtQtQtQtQtQtQtQtQtQtQtQtQtQtQtQtQtQtQtQtQtQtQtQtQtQtQtQtQtQtQtQtQtQtQt",
"QtQtQtQtQtQtQtQtQtQtQtQtQtQtQtQtQtQtQtQtQtQtQtQtQtQtQtQtQtQtQtQtQtQtQtQtQtQtQtQtQtQtQtQtQtQtQtQtQtQtQtQtQtQtQtQtQtQtQtQtQtQtQtQt",
"QtQtQtQtQtQtQtQtQtQtQtQtQtQtQtQtQtQtQtQtQtQtQtQtQtQtQtQt.#.a.#QtQtQtQtQtQtQtQtQtQtQtQtQtQtQtQtQtQtQtQtQtQtQtQtQtQtQtQtQtQtQtQtQt",
"QtQtQtQtQtQtQtQtQtQtQtQtQtQtQtQtQtQtQtQtQtQtQtQtQtQtQtQt.#.a.#.#.#.#QtQtQtQtQtQtQtQtQtQtQtQtQtQtQtQtQtQtQtQtQtQtQtQtQtQtQtQtQtQt",
"QtQtQtQtQtQtQtQtQtQtQtQtQtQtQtQtQtQtQtQtQtQtQtQtQtQt.#.#.b.b.a.#.#.#.a.#QtQtQtQtQtQtQtQtQtQtQtQtQtQtQtQtQtQtQtQtQtQtQtQtQtQtQtQt",
"QtQtQtQtQtQtQtQtQtQtQtQtQtQtQtQtQtQtQtQtQtQtQtQtQt.b.#.#.a.#.b.a.#.a.a.#.bQtQtQtQtQtQtQtQtQtQtQtQtQtQtQtQtQtQtQtQtQtQtQtQtQtQtQt",
"QtQtQtQtQtQtQtQtQtQtQtQtQtQtQtQtQtQtQtQtQtQtQtQt.b.b.#.a.c.a.#.a.a.c.a.a.b.bQtQtQtQtQtQtQtQtQtQtQtQtQtQtQtQtQtQtQtQtQtQtQtQtQtQt",
"QtQtQtQtQtQtQtQtQtQtQtQtQtQtQtQtQtQtQtQtQtQtQt.#.b.#.c.c.a.c.a.c.c.a.c.a.#.bQtQtQtQtQtQtQtQtQtQtQtQtQtQtQtQtQtQtQtQtQtQtQtQtQtQt",
"QtQtQtQtQtQtQtQtQtQtQtQtQtQtQtQtQtQtQtQtQtQtQt.#.#.a.c.a.d.a.c.c.a.d.a.#.a.#.#QtQtQtQtQtQtQtQtQtQtQtQtQtQtQtQtQtQtQtQtQtQtQtQtQt",
"QtQtQtQtQtQtQtQtQtQtQtQtQtQtQtQtQtQtQtQtQtQtQtQt.b.b.a.d.c.a.d.c.a.c.d.a.#.a.#.#QtQtQtQtQtQtQtQtQtQtQtQtQtQtQtQtQtQtQtQtQtQtQtQt",
"QtQtQtQtQtQtQtQtQtQtQtQtQtQtQtQtQtQtQtQtQtQtQt.a.#.a.c.c.a.#.d.d.#.a.c.a.b.#.a.#QtQtQtQtQtQtQtQtQtQtQtQtQtQtQtQtQtQtQtQtQtQtQtQt",
"QtQtQtQtQtQtQtQtQtQtQtQtQtQtQtQtQtQtQtQtQtQtQt.a.a.c.#.a.#.b.a.d.b.#.a.c.b.b.bQtQtQtQtQtQtQtQtQtQtQtQtQtQtQtQtQtQtQtQtQtQtQtQtQt",
"QtQtQtQtQtQtQtQtQtQtQtQtQtQtQtQtQtQtQtQtQtQtQt.b.b.b.a.a.e.e.#.c.f.e.e.a.b.a.bQtQtQtQtQtQtQtQtQtQtQtQtQtQtQtQtQtQtQtQtQtQtQtQtQt",
"QtQtQtQtQtQtQtQtQtQtQtQtQtQtQtQtQtQtQtQtQtQtQtQtQt.b.a.#.g.h.#.a.e.h.g.#.f.#.bQtQtQtQtQtQtQtQtQtQtQtQtQtQtQtQtQtQtQtQtQtQtQtQtQt",
"QtQtQtQtQtQtQtQtQtQtQtQtQtQtQtQtQtQtQtQtQtQtQtQtQt.#.a.i.j.k.l.#.l.k.j.b.f.b.#QtQtQtQtQtQtQtQtQtQtQtQtQtQtQtQtQtQtQtQtQtQtQtQtQt",
"QtQtQtQtQtQtQtQtQtQtQtQtQtQtQtQtQtQtQtQtQtQtQtQt.m.#.b.i.f.l.l.l.l.l.i.i.b.mQtQtQtQtQtQtQtQtQtQtQtQtQtQtQtQtQtQtQtQtQtQtQtQtQtQt",
"QtQtQtQtQtQtQtQtQtQtQtQtQtQtQtQtQtQtQtQtQtQtQt.m.m.n.o.p.q.l.l.l.l.l.q.p.n.m.mQtQtQtQtQtQtQtQtQtQtQtQtQtQtQtQtQtQtQtQtQtQtQtQtQt",
"QtQtQtQtQtQtQtQtQtQtQtQtQtQtQtQtQtQtQtQtQtQt.m.m.r.s.t.o.p.q.f.f.f.q.p.o.t.r.mQtQtQtQtQtQtQtQtQtQtQtQtQtQtQtQtQtQtQtQtQtQtQtQtQt",
"QtQtQtQtQtQtQtQtQtQtQtQtQtQtQtQtQtQtQtQtQtQt.m.u.s.t.v.o.s.p.i.i.i.p.s.t.v.t.r.mQtQtQtQtQtQtQtQtQtQtQtQtQtQtQtQtQtQtQtQtQtQtQtQt",
"QtQtQtQtQtQtQtQtQtQtQtQtQtQtQtQtQtQtQtQtQtQt.m.n.w.t.v.o.s.x.m.x.s.r.o.y.y.r.u.m.zQtQtQtQtQtQtQtQtQtQtQtQtQtQtQtQtQtQtQtQtQtQtQt",
"QtQtQtQtQtQtQtQtQtQtQtQtQtQtQtQtQtQtQtQtQtQt.A.m.n.w.y.t.n.x.x.n.n.r.v.y.w.u.n.m.z.zQtQtQtQtQtQtQtQtQtQtQtQtQtQtQtQtQtQtQtQtQtQt",
"QtQtQtQtQtQtQtQtQtQtQtQtQtQtQtQtQtQtQtQtQtQt.B.x.m.r.y.v.r.x.n.u.u.s.y.w.n.x.A.z.C.zQtQtQtQtQtQtQtQtQtQtQtQtQtQtQtQtQtQtQtQtQtQt",
"QtQtQtQtQtQtQtQtQtQtQtQtQtQtQtQtQtQtQtQtQtQt.x.A.x.n.w.y.o.n.u.s.x.v.y.u.x.A.z.z.C.DQtQtQtQtQtQtQtQtQtQtQtQtQtQtQtQtQtQtQtQtQtQt",
"QtQtQtQtQtQtQtQtQtQtQtQtQtQtQtQtQtQtQtQtQtQt.x.A.x.m.u.y.o.u.A.s.o.v.w.n.x.A.z.E.z.DQtQtQtQtQtQtQtQtQtQtQtQtQtQtQtQtQtQtQtQtQtQt",
"QtQtQtQtQtQtQtQtQtQtQtQtQtQtQtQtQtQtQtQtQt.x.A.F.A.m.r.v.o.s.n.s.o.v.w.x.m.A.z.E.E.zQtQtQtQtQtQtQtQtQtQtQtQtQtQtQtQtQtQtQtQtQtQt",
"QtQtQtQtQtQtQtQtQtQtQtQtQtQtQtQtQtQtQtQtQt.x.F.z.A.x.n.r.A.C.n.D.A.v.u.x.x.x.z.E.G.E.AQtQtQtQtQtQtQtQtQtQtQtQtQtQtQtQtQtQtQtQtQt",
"QtQtQtQtQtQtQtQtQtQtQtQtQtQtQtQtQtQtQtQt.s.x.z.z.A.m.m.w.A.n.n.s.A.r.n.A.x.x.A.E.G.G.AQtQtQtQtQtQtQtQtQtQtQtQtQtQtQtQtQtQtQtQtQt",
"QtQtQtQtQtQtQtQtQtQtQtQtQtQtQtQtQtQtQtQt.s.x.z.A.A.x.m.u.n.D.n.B.A.u.A.A.xQt.A.z.G.G.z.AQtQtQtQtQtQtQtQtQtQtQtQtQtQtQtQtQtQtQtQt",
"QtQtQtQtQtQtQtQtQtQtQtQtQtQtQtQtQtQtQtQt.H.n.r.n.s.H.m.n.r.A.n.n.s.u.A.A.xQt.x.z.E.G.E.AQtQtQtQtQtQtQtQtQtQtQtQtQtQtQtQtQtQtQtQt",
"QtQtQtQtQtQtQtQtQtQtQtQtQtQtQtQtQtQtQtQt.s.H.H.H.H.s.m.x.u.x.C.D.B.u.A.x.xQt.x.A.u.w.u.AQtQtQtQtQtQtQtQtQtQtQtQtQtQtQtQtQtQtQtQt",
"QtQtQtQtQtQtQtQtQtQtQtQtQtQtQtQtQtQtQtQt.x.s.n.s.m.H.m.x.u.x.B.I.I.r.A.x.sQt.m.n.z.E.z.rQtQtQtQtQtQtQtQtQtQtQtQtQtQtQtQtQtQtQtQt",
"QtQtQtQtQtQtQtQtQtQtQtQtQtQtQtQtQtQtQtQt.F.F.H.H.H.m.s.x.r.A.A.A.s.r.x.n.x.m.m.r.u.w.w.AQtQtQtQtQtQtQtQtQtQtQtQtQtQtQtQtQtQtQtQt",
"QtQtQtQtQtQtQtQtQtQtQtQtQtQtQtQtQtQtQtQt.H.F.H.F.m.H.x.n.r.D.D.B.A.r.n.x.m.x.n.x.x.A.x.uQtQtQtQtQtQtQtQtQtQtQtQtQtQtQtQtQtQtQtQt",
"QtQtQtQtQtQtQtQtQtQtQtQtQtQtQtQtQtQtQtQtQt.H.H.H.x.A.x.r.A.A.A.A.A.r.n.x.A.m.x.F.F.J.F.xQtQtQtQtQtQtQtQtQtQtQtQtQtQtQtQtQtQtQtQt",
"QtQtQtQtQtQtQtQtQtQtQtQtQtQtQtQtQtQtQtQtQtQtQtQt.x.A.A.r.I.A.A.A.B.n.r.x.A.x.x.K.J.K.J.xQtQtQtQtQtQtQtQtQtQtQtQtQtQtQtQtQtQtQtQt",
"QtQtQtQtQtQtQtQtQtQtQtQtQtQtQtQtQtQtQtQtQtQtQtQt.x.z.A.u.m.B.B.D.m.m.r.x.A.A.x.L.x.L.K.FQtQtQtQtQtQtQtQtQtQtQtQtQtQtQtQtQtQtQtQt",
"QtQtQtQtQtQtQtQtQtQtQtQtQtQtQtQtQtQtQtQtQtQtQt.x.A.z.x.u.A.m.m.A.A.m.u.x.A.A.x.J.x.L.K.xQtQtQtQtQtQtQtQtQtQtQtQtQtQtQtQtQtQtQtQt",
"QtQtQtQtQtQtQtQtQtQtQtQtQtQtQtQtQtQtQtQtQtQtQt.x.A.A.x.u.n.r.r.r.n.m.u.x.A.A.x.x.F.F.xQtQtQtQtQtQtQtQtQtQtQtQtQtQtQtQtQtQtQtQtQt",
"QtQtQtQtQtQtQtQtQtQtQtQtQtQtQtQtQtQtQtQtQtQt.x.F.z.A.r.r.m.m.m.m.m.A.w.x.A.F.AQtQtQtQtQtQtQtQtQtQtQtQtQtQtQtQtQtQtQtQtQtQtQtQtQt",
"QtQtQtQtQtQtQtQtQtQtQtQtQtQtQtQtQtQtQtQtQt.x.x.z.z.A.u.n.A.F.A.m.m.x.w.x.A.z.A.xQtQtQtQtQtQtQtQtQtQtQtQtQtQtQtQtQtQtQtQtQtQtQtQt",
"QtQtQtQtQtQtQtQtQtQtQtQtQtQtQtQtQtQtQtQtQt.x.A.z.z.x.u.H.A.z.A.H.m.A.w.x.F.z.F.xQtQtQtQtQtQtQtQtQtQtQtQtQtQtQtQtQtQtQtQtQtQtQtQt",
"QtQtQtQtQtQtQtQtQtQtQtQtQtQtQtQtQtQtQtQt.x.A.A.E.A.x.u.H.F.x.A.m.m.F.u.x.A.E.A.xQtQtQtQtQtQtQtQtQtQtQtQtQtQtQtQtQtQtQtQtQtQtQtQt",
"QtQtQtQtQtQtQtQtQtQtQtQtQtQtQtQtQtQtQt.s.x.A.z.E.A.r.r.F.J.K.x.x.m.F.r.r.A.E.z.A.xQtQtQtQtQtQtQtQtQtQtQtQtQtQtQtQtQtQtQtQtQtQtQt",
"QtQtQtQtQtQtQtQtQtQtQtQtQtQtQtQtQtQtQt.s.x.z.E.z.x.u.F.F.M.J.K.F.x.H.H.u.x.E.z.A.x.xQtQtQtQtQtQtQtQtQtQtQtQtQtQtQtQtQtQtQtQtQtQt",
"QtQtQtQtQtQtQtQtQtQtQtQtQtQtQtQtQtQtQt.n.x.z.E.A.r.r.F.J.M.L.F.J.H.H.F.w.x.z.E.z.A.x.nQtQtQtQtQtQtQtQtQtQtQtQtQtQtQtQtQtQtQtQtQt",
"QtQtQtQtQtQtQtQtQtQtQtQtQtQtQtQtQtQtQt.n.r.A.z.x.u.H.F.J.L.K.J.F.H.H.F.w.x.A.E.E.z.A.nQtQtQtQtQtQtQtQtQtQtQtQtQtQtQtQtQtQtQtQtQt",
"QtQtQtQtQtQtQtQtQtQtQtQtQtQtQtQtQtQtQt.s.r.x.A.r.r.H.H.J.K.J.F.H.H.H.H.u.x.A.E.z.z.x.nQtQtQtQtQtQtQtQtQtQtQtQtQtQtQtQtQtQtQtQtQt",
"QtQtQtQtQtQtQtQtQtQtQtQtQtQtQtQtQtQtQt.m.n.u.x.w.m.N.m.H.F.s.H.H.H.H.H.r.r.A.z.z.A.n.sQtQtQtQtQtQtQtQtQtQtQtQtQtQtQtQtQtQtQtQtQt",
"QtQtQtQtQtQtQtQtQtQtQtQtQtQtQtQtQt.N.N.N.s.r.u.u.O.P.F.F.J.J.F.F.H.H.F.F.u.r.r.r.n.s.s.N.NQtQtQtQtQtQtQtQtQtQtQtQtQtQtQtQtQtQtQt",
"QtQtQtQtQtQtQtQtQtQtQtQtQtQtQt.N.N.Q.R.P.m.r.w.m.S.T.J.K.K.L.J.H.H.H.F.F.w.u.n.s.F.s.m.R.Q.N.NQtQtQtQtQtQtQtQtQtQtQtQtQtQtQtQtQt",
"QtQtQtQtQtQtQtQtQtQtQtQtQtQt.N.Q.U.V.W.X.Y.m.u.Z.0.1.2.F.J.F.F.H.H.H.x.H.w.u.n.s.s.m.X.W.V.U.Q.NQtQtQtQtQtQtQtQtQtQtQtQtQtQtQtQt",
"QtQtQtQtQtQtQtQtQtQtQtQtQt.N.3.4.5.6.7.8.9#..m###a#b.H.J.K.L.J.H#c#d#e#f.w.r.s.m#..9.8.7.6#g.4.3.NQtQtQtQtQtQtQtQtQtQtQtQtQtQtQt",
"QtQtQtQtQtQtQtQtQtQtQtQt.N.Q#h#i#j#k#l#m#n#o#p#q#r#s.H.F.J.J.F.H#t#t#u#s#s#r#q#p#o#n#m#l#k#j#i#h.Q.NQtQtQtQtQtQtQtQtQtQtQtQtQtQt",
"QtQtQtQtQtQtQtQtQtQtQtQt.N#v#w#x#y#z#o#r#u#A#A#A#A.H.H.F.F.F.J.H#B#B#B#B#A#A#A#A#A#u#r#o#z#y#x#w#v.NQtQtQtQtQtQtQtQtQtQtQtQtQtQt",
"QtQtQtQtQtQtQtQtQtQtQtQt.N#v#C#x#y#m#o#r#u#A#A#A#A.H.K.L.L.L.K.H#B#B#B#B#A#A#A#A#A#u#r#o#m#y#D#C#v.NQtQtQtQtQtQtQtQtQtQtQtQtQtQt",
"QtQtQtQtQtQtQtQtQtQtQtQt.N#E#h#i#j#k#l#m#n#o#p#q#r.F.J.K.K.K.J.H#t#t#u#s#s#r#q#p#o#n#m#l#k#j#i#h#E.NQtQtQtQtQtQtQtQtQtQtQtQtQtQt",
"QtQtQtQtQtQtQtQtQtQtQtQtQt.N.3#F#g#G#j#H.9#.#I###a.F.F.H.H.H.F.m#J#d#e#f#b#a###I#..9#H#j#G#g#F.3.NQtQtQtQtQtQtQtQtQtQtQtQtQtQtQt",
"QtQtQtQtQtQtQtQtQtQtQtQtQtQt.N#E.P.V.W.X#K#L#M.Z.0.1.x.x.H.x.x#N#y#O#k.2.1.0.Z#M#L#K.X.W.V.P#E.NQtQtQtQtQtQtQtQtQtQtQtQtQtQtQtQt",
"QtQtQtQtQtQtQtQtQtQtQtQtQtQtQt.N.N.Q.R.P#P#Q#R#S.S.T#T#U#V#W.Y.Y#W#V#U#T.T.S#S#R#Q#h.P.R.Q.N.NQtQtQtQtQtQtQtQtQtQtQtQtQtQtQtQtQt",
"QtQtQtQtQtQtQtQtQtQtQtQtQtQtQtQtQt.N.N.N#X.Q.3.R.O.P#Y#Z#Z#Z#0#0#Z#Z#Z#Y.P.O.R.3.Q#X.N.N.NQtQtQtQtQtQtQtQtQtQtQtQtQtQtQtQtQtQtQt",
"QtQtQtQtQtQtQtQtQtQtQtQtQtQtQtQtQtQtQtQtQt.N.N.N.N.N.N.N.N.N.N.N.N.N.N.N.N.N.N.N.NQtQtQtQtQtQtQtQtQtQtQtQtQtQtQtQtQtQtQtQtQtQtQt",
"QtQtQtQtQtQtQtQtQtQtQtQtQtQtQtQtQtQtQtQtQtQtQtQtQtQtQtQtQtQtQtQtQtQtQtQtQtQtQtQtQtQtQtQtQtQtQtQtQtQtQtQtQtQtQtQtQtQtQtQtQtQtQtQt",
"QtQtQtQtQtQtQtQtQtQtQtQtQtQtQtQtQtQtQtQtQtQtQtQtQtQtQtQtQtQtQtQtQtQtQtQtQtQtQtQtQtQtQtQtQtQtQtQtQtQtQtQtQtQtQtQtQtQtQtQtQtQtQtQt"};
