/* XPM */
static char *dummy[]={
"64 64 118 2",
"Qt c None",
".M c #000000",
"#W c #000000",
".P c #000000",
"#z c #000000",
".3 c #000000",
"#p c #000000",
".Q c #000000",
"#X c #000000",
".T c #000000",
".N c #000000",
".O c #000000",
"#Y c #000000",
"#Z c #000000",
".R c #000000",
"#d c #000000",
".4 c #000000",
"#B c #000000",
".U c #000000",
"#O c #000000",
"#q c #000000",
"#x c #000000",
"#P c #000000",
".V c #000000",
"#Q c #000000",
".5 c #000000",
"#c c #000000",
"#R c #000000",
".W c #000000",
".S c #000000",
"#e c #000000",
"#S c #000000",
"#T c #000000",
"#U c #000000",
"#V c #000000",
".X c #000000",
".2 c #000000",
".6 c #000000",
"#C c #000000",
".Y c #000000",
".1 c #000000",
"#r c #000000",
"#y c #000000",
"#J c #000000",
".7 c #000000",
"#f c #000000",
"#K c #000000",
".Z c #000000",
".8 c #000000",
"#D c #000000",
".0 c #000000",
"#L c #000000",
"#g c #000000",
".9 c #000000",
"#M c #000000",
"#s c #000000",
"#N c #000000",
"#. c #000000",
"#h c #000000",
"## c #000000",
"#a c #000000",
"#b c #000000",
"#t c #000000",
"#i c #000000",
"#E c #000000",
"#F c #000000",
"#G c #000000",
"#j c #000000",
"#H c #000000",
"#I c #000000",
"#k c #000000",
"#l c #000000",
"#m c #000000",
"#n c #000000",
"#o c #000000",
"#u c #000000",
"#A c #000000",
"#v c #000000",
"#w c #000000",
".w c #000003",
".e c #00000f",
".L c #00070c",
".m c #07050d",
".x c #141d32",
".k c #1baba8",
".H c #1e232c",
".h c #25424b",
".n c #280500",
".t c #2b2c38",
".D c #303a55",
".G c #362700",
".I c #3f4449",
".E c #4b5e7f",
".o c #4f211e",
".q c #4f5463",
".b c #52300c",
".r c #5b0a00",
".B c #684700",
".J c #6c7273",
".F c #708ea7",
".s c #757c87",
".u c #841914",
".i c #8b4435",
".# c #946230",
".K c #99a09e",
".A c #9e7b10",
".v c #b1b5be",
".g c #b5bfce",
".p c #c26552",
".y c #c91b26",
".a c #d1a049",
".C c #dfba18",
".c c #f0e883",
".j c #f2ffff",
".z c #f4fffe",
".f c #fd9370",
".l c #ffe5ba",
".d c #fffffa",
"QtQtQtQtQtQtQtQtQtQtQtQtQtQtQtQtQtQtQtQtQtQtQtQtQtQtQtQtQtQtQtQtQtQtQtQtQtQtQtQtQtQtQtQtQtQtQtQtQtQtQtQtQtQtQtQtQtQtQtQtQtQtQtQt",
"QtQtQtQtQtQtQtQtQtQtQtQtQtQtQtQtQtQtQtQtQtQtQtQtQtQtQtQtQtQtQtQtQtQtQtQtQtQtQtQtQtQtQtQtQtQtQtQtQtQtQtQtQtQtQtQtQtQtQtQtQtQtQtQt",
"QtQtQtQtQtQtQtQtQtQtQtQtQtQtQtQtQtQtQtQtQtQtQtQtQtQtQtQt.#.a.#QtQtQtQtQtQtQtQtQtQtQtQtQtQtQtQtQtQtQtQtQtQtQtQtQtQtQtQtQtQtQtQtQt",
"QtQtQtQtQtQtQtQtQtQtQtQtQtQtQtQtQtQtQtQtQtQtQtQtQtQtQtQt.#.a.#.#.#.#QtQtQtQtQtQtQtQtQtQtQtQtQtQtQtQtQtQtQtQtQtQtQtQtQtQtQtQtQtQt",
"QtQtQtQtQtQtQtQtQtQtQtQtQtQtQtQtQtQtQtQtQtQtQtQtQtQt.#.#.b.b.a.#.#.#.a.#QtQtQtQtQtQtQtQtQtQtQtQtQtQtQtQtQtQtQtQtQtQtQtQtQtQtQtQt",
"QtQtQtQtQtQtQtQtQtQtQtQtQtQtQtQtQtQtQtQtQtQtQtQtQt.b.#.#.a.#.b.a.#.a.a.#.bQtQtQtQtQtQtQtQtQtQtQtQtQtQtQtQtQtQtQtQtQtQtQtQtQtQtQt",
"QtQtQtQtQtQtQtQtQtQtQtQtQtQtQtQtQtQtQtQtQtQtQtQt.b.b.#.a.c.a.#.a.a.c.a.a.b.bQtQtQtQtQtQtQtQtQtQtQtQtQtQtQtQtQtQtQtQtQtQtQtQtQtQt",
"QtQtQtQtQtQtQtQtQtQtQtQtQtQtQtQtQtQtQtQtQtQtQt.#.b.#.c.c.a.c.a.c.c.a.c.a.#.bQtQtQtQtQtQtQtQtQtQtQtQtQtQtQtQtQtQtQtQtQtQtQtQtQtQt",
"QtQtQtQtQtQtQtQtQtQtQtQtQtQtQtQtQtQtQtQtQtQtQt.#.#.a.c.a.d.a.c.c.a.d.a.#.a.#.#QtQtQtQtQtQtQtQtQtQtQtQtQtQtQtQtQtQtQtQtQtQtQtQtQt",
"QtQtQtQtQtQtQtQtQtQtQtQtQtQtQtQtQtQtQtQtQtQtQtQt.b.b.a.d.c.a.d.c.a.c.d.a.#.a.#.#QtQtQtQtQtQtQtQtQtQtQtQtQtQtQtQtQtQtQtQtQtQtQtQt",
"QtQtQtQtQtQtQtQtQtQtQtQtQtQtQtQtQtQtQtQtQtQtQt.a.#.a.c.c.a.#.d.d.#.a.c.a.b.#.a.#QtQtQtQtQtQtQtQtQtQtQtQtQtQtQtQtQtQtQtQtQtQtQtQt",
"QtQtQtQtQtQtQtQtQtQtQtQtQtQtQtQtQtQtQtQtQtQtQt.a.a.c.#.a.#.b.a.d.b.#.a.c.b.b.bQtQtQtQtQtQtQtQtQtQtQtQtQtQtQtQtQtQtQtQtQtQtQtQtQt",
"QtQtQtQtQtQtQtQtQtQtQtQtQtQtQtQtQtQtQtQtQtQtQt.b.b.b.a.a.e.e.#.c.f.e.e.a.b.a.bQtQtQtQtQtQtQtQtQtQtQtQtQtQtQtQtQtQtQtQtQtQtQtQtQt",
"QtQtQtQtQtQtQtQtQtQtQtQtQtQtQtQtQtQtQtQtQtQtQtQtQt.b.a.#.g.h.#.a.e.h.g.#.f.#.bQtQtQtQtQtQtQtQtQtQtQtQtQtQtQtQtQtQtQtQtQtQtQtQtQt",
"QtQtQtQtQtQtQtQtQtQtQtQtQtQtQtQtQtQtQtQtQtQtQtQtQt.#.a.i.j.k.l.#.l.k.j.b.f.b.#QtQtQtQtQtQtQtQtQtQtQtQtQtQtQtQtQtQtQtQtQtQtQtQtQt",
"QtQtQtQtQtQtQtQtQtQtQtQtQtQtQtQtQtQtQtQtQtQtQtQtQt.#.b.i.f.l.l.l.l.l.i.i.b.mQtQtQtQtQtQtQtQtQtQtQtQtQtQtQtQtQtQtQtQtQtQtQtQtQtQt",
"QtQtQtQtQtQtQtQtQtQtQtQtQtQtQtQtQtQtQtQtQtQtQtQt.m.m.n.o.p.l.l.l.l.l.p.o.q.m.mQtQtQtQtQtQtQtQtQtQtQtQtQtQtQtQtQtQtQtQtQtQtQtQtQt",
"QtQtQtQtQtQtQtQtQtQtQtQtQtQtQtQtQtQtQtQtQtQtQt.m.m.q.n.n.o.p.f.f.f.p.o.n.r.s.m.mQtQtQtQtQtQtQtQtQtQtQtQtQtQtQtQtQtQtQtQtQtQtQtQt",
"QtQtQtQtQtQtQtQtQtQtQtQtQtQtQtQtQtQtQtQtQtQt.m.m.s.t.r.n.t.o.i.i.i.o.t.n.u.r.s.mQtQtQtQtQtQtQtQtQtQtQtQtQtQtQtQtQtQtQtQtQtQtQtQt",
"QtQtQtQtQtQtQtQtQtQtQtQtQtQtQtQtQtQtQtQtQtQt.m.v.t.r.u.n.t.s.w.m.w.s.t.n.u.s.v.m.xQtQtQtQtQtQtQtQtQtQtQtQtQtQtQtQtQtQtQtQtQtQtQt",
"QtQtQtQtQtQtQtQtQtQtQtQtQtQtQtQtQtQtQtQtQtQt.m.q.v.t.u.n.s.t.w.w.t.q.s.u.y.v.q.m.xQtQtQtQtQtQtQtQtQtQtQtQtQtQtQtQtQtQtQtQtQtQtQt",
"QtQtQtQtQtQtQtQtQtQtQtQtQtQtQtQtQtQtQtQtQtQt.x.m.q.z.y.u.n.v.w.q.v.v.t.y.z.s.m.w.x.AQtQtQtQtQtQtQtQtQtQtQtQtQtQtQtQtQtQtQtQtQtQt",
"QtQtQtQtQtQtQtQtQtQtQtQtQtQtQtQtQtQtQtQtQtQt.B.x.m.s.z.y.u.w.q.v.t.n.u.y.v.w.w.x.C.AQtQtQtQtQtQtQtQtQtQtQtQtQtQtQtQtQtQtQtQtQtQt",
"QtQtQtQtQtQtQtQtQtQtQtQtQtQtQtQtQtQtQtQtQt.x.B.x.D.m.v.y.y.n.v.x.t.n.y.v.w.x.x.D.C.AQtQtQtQtQtQtQtQtQtQtQtQtQtQtQtQtQtQtQtQtQtQt",
"QtQtQtQtQtQtQtQtQtQtQtQtQtQtQtQtQtQtQtQtQt.x.x.D.x.w.m.z.u.n.t.q.t.n.y.z.x.x.D.D.D.xQtQtQtQtQtQtQtQtQtQtQtQtQtQtQtQtQtQtQtQtQtQt",
"QtQtQtQtQtQtQtQtQtQtQtQtQtQtQtQtQtQtQtQt.x.x.D.D.x.w.x.v.s.x.C.q.A.x.u.v.x.w.D.D.E.D.xQtQtQtQtQtQtQtQtQtQtQtQtQtQtQtQtQtQtQtQtQt",
"QtQtQtQtQtQtQtQtQtQtQtQtQtQtQtQtQtQtQtQt.x.D.E.D.x.w.x.q.v.x.q.q.t.x.s.x.x.w.x.D.E.E.xQtQtQtQtQtQtQtQtQtQtQtQtQtQtQtQtQtQtQtQtQt",
"QtQtQtQtQtQtQtQtQtQtQtQtQtQtQtQtQtQtQtQt.x.E.E.D.wQt.x.x.z.x.A.q.B.x.s.x.xQt.x.D.E.F.D.xQtQtQtQtQtQtQtQtQtQtQtQtQtQtQtQtQtQtQtQt",
"QtQtQtQtQtQtQtQtQtQtQtQtQtQtQtQtQtQtQt.t.x.E.D.x.wQt.w.x.z.x.q.q.t.x.v.x.wQt.w.D.E.F.E.xQtQtQtQtQtQtQtQtQtQtQtQtQtQtQtQtQtQtQtQt",
"QtQtQtQtQtQtQtQtQtQtQtQtQtQtQtQtQtQtQt.t.x.D.D.x.w.t.w.w.v.w.C.A.B.w.v.w.wQt.w.x.q.v.v.xQtQtQtQtQtQtQtQtQtQtQtQtQtQtQtQtQtQtQtQt",
"QtQtQtQtQtQtQtQtQtQtQtQtQtQtQtQtQtQtQt.x.q.v.s.q.m.t.q.w.s.w.A.B.G.w.s.w.qQt.m.q.D.E.D.s.xQtQtQtQtQtQtQtQtQtQtQtQtQtQtQtQtQtQtQt",
"QtQtQtQtQtQtQtQtQtQtQtQtQtQtQtQtQtQtQt.t.D.D.D.x.m.w.w.q.s.x.x.x.t.B.s.t.m.w.m.x.s.v.z.v.xQtQtQtQtQtQtQtQtQtQtQtQtQtQtQtQtQtQtQt",
"QtQtQtQtQtQtQtQtQtQtQtQtQtQtQtQtQtQtQt.w.t.q.s.t.t.x.x.w.q.G.B.A.A.x.s.w.m.wQt.q.w.w.x.w.vQtQtQtQtQtQtQtQtQtQtQtQtQtQtQtQtQtQtQt",
"QtQtQtQtQtQtQtQtQtQtQtQtQtQtQtQtQtQtQt.H.H.w.w.m.w.x.x.w.q.x.x.x.x.x.s.w.x.wQt.w.H.H.I.H.wQtQtQtQtQtQtQtQtQtQtQtQtQtQtQtQtQtQtQt",
"QtQtQtQtQtQtQtQtQtQtQtQtQtQtQtQtQtQtQt.w.H.I.w.H.w.x.x.w.s.G.x.x.x.B.s.x.x.m.w.w.J.I.J.I.HQtQtQtQtQtQtQtQtQtQtQtQtQtQtQtQtQtQtQt",
"QtQtQtQtQtQtQtQtQtQtQtQtQtQtQtQtQtQtQtQt.w.H.w.w.w.x.x.w.s.G.B.A.B.m.s.x.x.w.w.w.K.w.K.J.wQtQtQtQtQtQtQtQtQtQtQtQtQtQtQtQtQtQtQt",
"QtQtQtQtQtQtQtQtQtQtQtQtQtQtQtQtQtQtQtQtQtQtQt.w.x.D.x.w.v.x.x.m.m.x.s.x.H.x.w.w.I.w.K.J.wQtQtQtQtQtQtQtQtQtQtQtQtQtQtQtQtQtQtQt",
"QtQtQtQtQtQtQtQtQtQtQtQtQtQtQtQtQtQtQtQtQtQtQt.w.x.D.x.q.s.q.s.s.s.q.v.x.D.x.wQt.w.H.H.wQtQtQtQtQtQtQtQtQtQtQtQtQtQtQtQtQtQtQtQt",
"QtQtQtQtQtQtQtQtQtQtQtQtQtQtQtQtQtQtQtQtQtQt.w.H.D.D.w.s.q.m.m.m.m.m.v.w.D.x.wQtQtQtQtQtQtQtQtQtQtQtQtQtQtQtQtQtQtQtQtQtQtQtQtQt",
"QtQtQtQtQtQtQtQtQtQtQtQtQtQtQtQtQtQtQtQtQtQt.w.D.D.D.w.v.D.x.x.m.w.w.v.w.D.D.xQtQtQtQtQtQtQtQtQtQtQtQtQtQtQtQtQtQtQtQtQtQtQtQtQt",
"QtQtQtQtQtQtQtQtQtQtQtQtQtQtQtQtQtQtQtQtQt.w.H.D.E.x.s.s.H.w.x.m.w.w.s.s.x.D.H.wQtQtQtQtQtQtQtQtQtQtQtQtQtQtQtQtQtQtQtQtQtQtQtQt",
"QtQtQtQtQtQtQtQtQtQtQtQtQtQtQtQtQtQtQtQtQt.w.D.D.E.w.v.q.H.I.H.w.m.w.q.v.x.D.D.wQtQtQtQtQtQtQtQtQtQtQtQtQtQtQtQtQtQtQtQtQtQtQtQt",
"QtQtQtQtQtQtQtQtQtQtQtQtQtQtQtQtQtQtQtQt.w.x.D.E.D.w.v.H.I.H.J.H.w.m.x.v.w.D.D.x.wQtQtQtQtQtQtQtQtQtQtQtQtQtQtQtQtQtQtQtQtQtQtQt",
"QtQtQtQtQtQtQtQtQtQtQtQtQtQtQtQtQtQtQt.m.w.D.E.E.x.s.s.I.J.J.H.I.w.w.H.s.w.x.E.D.w.wQtQtQtQtQtQtQtQtQtQtQtQtQtQtQtQtQtQtQtQtQtQt",
"QtQtQtQtQtQtQtQtQtQtQtQtQtQtQtQtQtQtQt.m.x.D.E.E.x.v.q.H.I.J.I.H.L.I.J.q.s.x.E.E.x.w.tQtQtQtQtQtQtQtQtQtQtQtQtQtQtQtQtQtQtQtQtQt",
"QtQtQtQtQtQtQtQtQtQtQtQtQtQtQtQtQtQtQt.t.w.x.D.E.s.v.q.H.H.I.H.L.L.L.I.J.v.w.D.E.H.w.tQtQtQtQtQtQtQtQtQtQtQtQtQtQtQtQtQtQtQtQtQt",
"QtQtQtQtQtQtQtQtQtQtQtQtQtQtQtQtQtQtQt.t.q.w.w.x.v.s.L.L.H.t.L.L.L.H.L.I.z.w.D.D.x.w.tQtQtQtQtQtQtQtQtQtQtQtQtQtQtQtQtQtQtQtQtQt",
"QtQtQtQtQtQtQtQtQtQtQtQtQtQtQtQtQtQtQt.t.t.q.s.s.z.q.H.H.I.I.H.H.L.H.L.H.v.s.D.x.w.q.mQtQtQtQtQtQtQtQtQtQtQtQtQtQtQtQtQtQtQtQtQt",
"QtQtQtQtQtQtQtQtQtQtQtQtQtQtQtQtQtQtQt.m.t.t.q.v.z.q.I.J.J.J.I.L.L.L.L.L.m.z.s.v.s.t.mQtQtQtQtQtQtQtQtQtQtQtQtQtQtQtQtQtQtQtQtQt",
"QtQtQtQtQtQtQtQtQtQtQtQtQtQtQtQtQt.M.M.M.m.t.q.z.s.N.O.H.I.H.t.L.L.L.L.L.L.z.v.q.t.t.m.M.MQtQtQtQtQtQtQtQtQtQtQtQtQtQtQtQtQtQtQt",
"QtQtQtQtQtQtQtQtQtQtQtQtQtQtQt.M.M.P.Q.N.R.m.t.z.q.S.L.I.J.J.I.L.L.L.L.H.L.s.z.q.t.m.N.Q.P.M.MQtQtQtQtQtQtQtQtQtQtQtQtQtQtQtQtQt",
"QtQtQtQtQtQtQtQtQtQtQtQtQtQt.M.P.T.U.V.W.X.Y.m.v.Z.0.L.t.H.H.H.L.L.H.H.I.L.q.z.m.1.2.W.V.U.T.P.MQtQtQtQtQtQtQtQtQtQtQtQtQtQtQtQt",
"QtQtQtQtQtQtQtQtQtQtQtQtQt.M.3.4.5.6.7.8.9#.###a#b.L.L.I.J.K.I.L.L.H.I.I.L.w.m###..9.8.7.6#c.4.3.MQtQtQtQtQtQtQtQtQtQtQtQtQtQtQt",
"QtQtQtQtQtQtQtQtQtQtQtQt.M.P#d#e#f#g#h#i#j#k#l#m#n.L.L.H.I.H.L.L.L.L.w.w#o#n#m#l#k#j#i#h#g#f#e#d.P.MQtQtQtQtQtQtQtQtQtQtQtQtQtQt",
"QtQtQtQtQtQtQtQtQtQtQtQt.M#p#q#r#s#t#k#n#u#v#v#v#v.H.I.J.J.J.I.L#w#w#w#w#v#v#v#v#v#u#n#k#t#s#r#q#p.MQtQtQtQtQtQtQtQtQtQtQtQtQtQt",
"QtQtQtQtQtQtQtQtQtQtQtQt.M#p#x#r#s#i#k#n#u#v#v#v#v.H.I.I.I.I.H.L#w#w#w#w#v#v#v#v#v#u#n#k#i#s#y#x#p.MQtQtQtQtQtQtQtQtQtQtQtQtQtQt",
"QtQtQtQtQtQtQtQtQtQtQtQt.M#z#d#e#f#g#h#i#j#k#l#m#n.w.m.H.H.m.L.w#A#A#u#o#o#n#m#l#k#j#i#h#g#f#e#d#z.MQtQtQtQtQtQtQtQtQtQtQtQtQtQt",
"QtQtQtQtQtQtQtQtQtQtQtQtQt.M.3#B#c#C#f#D.9#.###a#b#E#F#G#H#I#I#I#I#H#G#F#E#b#a###..9#D#f#C#c#B.3.MQtQtQtQtQtQtQtQtQtQtQtQtQtQtQt",
"QtQtQtQtQtQtQtQtQtQtQtQtQtQt.M#z.N.U.V.W.2.1#J#K.Z.0#L#g#M#s#N#N#s#M#g#L.0.Z#K#J.1.2.W.V.U.N#z.MQtQtQtQtQtQtQtQtQtQtQtQtQtQtQtQt",
"QtQtQtQtQtQtQtQtQtQtQtQtQtQtQt.M.M.P.Q.N.R#O#P#Q#R.S#S#T#U#V.X.X#V#U#T#S.S#R#Q#P#O#d.N.Q.P.M.MQtQtQtQtQtQtQtQtQtQtQtQtQtQtQtQtQt",
"QtQtQtQtQtQtQtQtQtQtQtQtQtQtQtQtQt.M.M.M#W.P.3.Q#X.N.O#Y#Y#Y#Z#Z#Y#Y#Y.O.N#X.Q.3.P#W.M.M.MQtQtQtQtQtQtQtQtQtQtQtQtQtQtQtQtQtQtQt",
"QtQtQtQtQtQtQtQtQtQtQtQtQtQtQtQtQtQtQtQtQt.M.M.M.M.M.M.M.M.M.M.M.M.M.M.M.M.M.M.M.MQtQtQtQtQtQtQtQtQtQtQtQtQtQtQtQtQtQtQtQtQtQtQt",
"QtQtQtQtQtQtQtQtQtQtQtQtQtQtQtQtQtQtQtQtQtQtQtQtQtQtQtQtQtQtQtQtQtQtQtQtQtQtQtQtQtQtQtQtQtQtQtQtQtQtQtQtQtQtQtQtQtQtQtQtQtQtQtQt",
"QtQtQtQtQtQtQtQtQtQtQtQtQtQtQtQtQtQtQtQtQtQtQtQtQtQtQtQtQtQtQtQtQtQtQtQtQtQtQtQtQtQtQtQtQtQtQtQtQtQtQtQtQtQtQtQtQtQtQtQtQtQtQtQt"};
