/* XPM */
static char *dummy[]={
"64 64 118 2",
"Qt c None",
".M c #000000",
".N c #000000",
".Q c #000000",
"#C c #000000",
".6 c #000000",
"#s c #000000",
".R c #000000",
"#X c #000000",
".V c #000000",
".O c #000000",
".P c #000000",
"#Y c #000000",
"#Z c #000000",
".S c #000000",
"#g c #000000",
".7 c #000000",
"#E c #000000",
".W c #000000",
".T c #000000",
"#t c #000000",
"#A c #000000",
"#Q c #000000",
".X c #000000",
"#R c #000000",
".8 c #000000",
"#f c #000000",
"#S c #000000",
".Y c #000000",
".U c #000000",
"#h c #000000",
"#T c #000000",
"#U c #000000",
"#V c #000000",
"#W c #000000",
".Z c #000000",
".5 c #000000",
".9 c #000000",
"#F c #000000",
".0 c #000000",
".4 c #000000",
"#u c #000000",
"#B c #000000",
".1 c #000000",
"#. c #000000",
"#i c #000000",
"#M c #000000",
".3 c #000000",
"## c #000000",
"#G c #000000",
".2 c #000000",
"#N c #000000",
"#j c #000000",
"#a c #000000",
"#O c #000000",
"#v c #000000",
"#P c #000000",
"#b c #000000",
"#k c #000000",
"#c c #000000",
"#d c #000000",
"#e c #000000",
"#w c #000000",
"#l c #000000",
"#H c #000000",
"#I c #000000",
"#J c #000000",
"#m c #000000",
"#K c #000000",
"#L c #000000",
"#n c #000000",
"#o c #000000",
"#p c #000000",
"#q c #000000",
"#r c #000000",
"#x c #000000",
"#D c #000000",
"#y c #000000",
"#z c #000000",
".w c #000003",
".e c #00000f",
".J c #00070c",
".m c #07050d",
".B c #141d32",
".k c #1baba8",
".E c #1e232c",
".h c #25424b",
".n c #280500",
".r c #2b2c38",
".x c #303a55",
".H c #362700",
".I c #3f4449",
".F c #4b5e7f",
".o c #4f211e",
".q c #4f5463",
".b c #52300c",
".s c #5b0a00",
".A c #684700",
".K c #6c7273",
".G c #708ea7",
".t c #757c87",
".u c #841914",
".i c #8b4435",
".# c #946230",
".L c #99a09e",
".D c #9e7b10",
".v c #b1b5be",
".g c #b5bfce",
".p c #c26552",
".z c #c91b26",
".a c #d1a049",
".C c #dfba18",
".c c #f0e883",
".j c #f2ffff",
".y c #f4fffe",
".f c #fd9370",
".l c #ffe5ba",
".d c #fffffa",
"QtQtQtQtQtQtQtQtQtQtQtQtQtQtQtQtQtQtQtQtQtQtQtQtQtQtQtQtQtQtQtQtQtQtQtQtQtQtQtQtQtQtQtQtQtQtQtQtQtQtQtQtQtQtQtQtQtQtQtQtQtQtQtQt",
"QtQtQtQtQtQtQtQtQtQtQtQtQtQtQtQtQtQtQtQtQtQtQtQtQtQtQtQtQtQtQtQtQtQtQtQtQtQtQtQtQtQtQtQtQtQtQtQtQtQtQtQtQtQtQtQtQtQtQtQtQtQtQtQt",
"QtQtQtQtQtQtQtQtQtQtQtQtQtQtQtQtQtQtQtQtQtQtQtQtQtQtQtQt.#.a.#QtQtQtQtQtQtQtQtQtQtQtQtQtQtQtQtQtQtQtQtQtQtQtQtQtQtQtQtQtQtQtQtQt",
"QtQtQtQtQtQtQtQtQtQtQtQtQtQtQtQtQtQtQtQtQtQtQtQtQtQtQtQt.#.a.#.#.#.#QtQtQtQtQtQtQtQtQtQtQtQtQtQtQtQtQtQtQtQtQtQtQtQtQtQtQtQtQtQt",
"QtQtQtQtQtQtQtQtQtQtQtQtQtQtQtQtQtQtQtQtQtQtQtQtQtQt.#.#.b.b.a.#.#.#.a.#QtQtQtQtQtQtQtQtQtQtQtQtQtQtQtQtQtQtQtQtQtQtQtQtQtQtQtQt",
"QtQtQtQtQtQtQtQtQtQtQtQtQtQtQtQtQtQtQtQtQtQtQtQtQt.b.#.#.a.#.b.a.#.a.a.#.bQtQtQtQtQtQtQtQtQtQtQtQtQtQtQtQtQtQtQtQtQtQtQtQtQtQtQt",
"QtQtQtQtQtQtQtQtQtQtQtQtQtQtQtQtQtQtQtQtQtQtQtQt.b.b.#.a.c.a.#.a.a.c.a.a.b.bQtQtQtQtQtQtQtQtQtQtQtQtQtQtQtQtQtQtQtQtQtQtQtQtQtQt",
"QtQtQtQtQtQtQtQtQtQtQtQtQtQtQtQtQtQtQtQtQtQtQt.#.b.#.c.c.a.c.a.c.c.a.c.a.#.bQtQtQtQtQtQtQtQtQtQtQtQtQtQtQtQtQtQtQtQtQtQtQtQtQtQt",
"QtQtQtQtQtQtQtQtQtQtQtQtQtQtQtQtQtQtQtQtQtQtQt.#.#.a.c.a.d.a.c.c.a.d.a.#.a.#.#QtQtQtQtQtQtQtQtQtQtQtQtQtQtQtQtQtQtQtQtQtQtQtQtQt",
"QtQtQtQtQtQtQtQtQtQtQtQtQtQtQtQtQtQtQtQtQtQtQtQt.b.b.a.d.c.a.d.c.a.c.d.a.#.a.#.#QtQtQtQtQtQtQtQtQtQtQtQtQtQtQtQtQtQtQtQtQtQtQtQt",
"QtQtQtQtQtQtQtQtQtQtQtQtQtQtQtQtQtQtQtQtQtQtQt.a.#.a.c.c.a.#.d.d.#.a.c.a.b.#.a.#QtQtQtQtQtQtQtQtQtQtQtQtQtQtQtQtQtQtQtQtQtQtQtQt",
"QtQtQtQtQtQtQtQtQtQtQtQtQtQtQtQtQtQtQtQtQtQtQt.a.a.c.#.a.#.b.a.d.b.#.a.c.b.b.bQtQtQtQtQtQtQtQtQtQtQtQtQtQtQtQtQtQtQtQtQtQtQtQtQt",
"QtQtQtQtQtQtQtQtQtQtQtQtQtQtQtQtQtQtQtQtQtQtQt.b.b.b.a.a.e.e.#.c.f.e.e.a.b.a.bQtQtQtQtQtQtQtQtQtQtQtQtQtQtQtQtQtQtQtQtQtQtQtQtQt",
"QtQtQtQtQtQtQtQtQtQtQtQtQtQtQtQtQtQtQtQtQtQtQtQtQt.b.a.#.g.h.#.a.e.h.g.#.f.#.bQtQtQtQtQtQtQtQtQtQtQtQtQtQtQtQtQtQtQtQtQtQtQtQtQt",
"QtQtQtQtQtQtQtQtQtQtQtQtQtQtQtQtQtQtQtQtQtQtQtQtQt.#.a.i.j.k.l.#.l.k.j.b.f.b.#QtQtQtQtQtQtQtQtQtQtQtQtQtQtQtQtQtQtQtQtQtQtQtQtQt",
"QtQtQtQtQtQtQtQtQtQtQtQtQtQtQtQtQtQtQtQtQtQtQtQtQt.#.b.i.f.l.l.l.l.l.i.i.b.mQtQtQtQtQtQtQtQtQtQtQtQtQtQtQtQtQtQtQtQtQtQtQtQtQtQt",
"QtQtQtQtQtQtQtQtQtQtQtQtQtQtQtQtQtQtQtQtQtQtQtQt.m.m.n.o.p.l.l.l.l.l.p.o.q.m.mQtQtQtQtQtQtQtQtQtQtQtQtQtQtQtQtQtQtQtQtQtQtQtQtQt",
"QtQtQtQtQtQtQtQtQtQtQtQtQtQtQtQtQtQtQtQtQtQtQt.m.m.r.n.n.o.p.f.f.f.p.o.n.s.q.m.mQtQtQtQtQtQtQtQtQtQtQtQtQtQtQtQtQtQtQtQtQtQtQtQt",
"QtQtQtQtQtQtQtQtQtQtQtQtQtQtQtQtQtQtQtQtQtQt.m.m.t.n.s.n.r.o.i.i.i.o.r.n.u.s.q.mQtQtQtQtQtQtQtQtQtQtQtQtQtQtQtQtQtQtQtQtQtQtQtQt",
"QtQtQtQtQtQtQtQtQtQtQtQtQtQtQtQtQtQtQtQtQtQt.m.v.q.s.u.n.r.q.w.m.w.q.r.n.u.s.t.m.xQtQtQtQtQtQtQtQtQtQtQtQtQtQtQtQtQtQtQtQtQtQtQt",
"QtQtQtQtQtQtQtQtQtQtQtQtQtQtQtQtQtQtQtQtQtQt.m.r.y.s.z.s.t.r.w.w.r.q.t.u.z.y.v.m.x.xQtQtQtQtQtQtQtQtQtQtQtQtQtQtQtQtQtQtQtQtQtQt",
"QtQtQtQtQtQtQtQtQtQtQtQtQtQtQtQtQtQtQtQtQt.A.B.m.r.y.u.u.n.v.w.q.v.v.r.z.y.q.m.x.C.xQtQtQtQtQtQtQtQtQtQtQtQtQtQtQtQtQtQtQtQtQtQt",
"QtQtQtQtQtQtQtQtQtQtQtQtQtQtQtQtQtQtQtQtQt.A.D.B.m.q.y.z.s.w.q.v.r.n.u.v.t.B.x.x.C.DQtQtQtQtQtQtQtQtQtQtQtQtQtQtQtQtQtQtQtQtQtQt",
"QtQtQtQtQtQtQtQtQtQtQtQtQtQtQtQtQtQtQtQtQt.A.x.B.B.r.v.u.u.n.v.B.r.n.z.y.m.E.x.F.x.DQtQtQtQtQtQtQtQtQtQtQtQtQtQtQtQtQtQtQtQtQtQt",
"QtQtQtQtQtQtQtQtQtQtQtQtQtQtQtQtQtQtQtQt.w.B.x.B.B.m.q.y.z.n.r.q.r.n.u.v.B.B.x.x.F.x.xQtQtQtQtQtQtQtQtQtQtQtQtQtQtQtQtQtQtQtQtQt",
"QtQtQtQtQtQtQtQtQtQtQtQtQtQtQtQtQtQtQtQt.w.x.F.x.B.m.m.v.u.B.C.q.D.B.v.t.B.w.B.x.F.F.xQtQtQtQtQtQtQtQtQtQtQtQtQtQtQtQtQtQtQtQtQt",
"QtQtQtQtQtQtQtQtQtQtQtQtQtQtQtQtQtQtQtQt.w.x.F.x.wQt.m.t.t.B.q.q.r.B.y.w.E.w.w.x.F.G.x.BQtQtQtQtQtQtQtQtQtQtQtQtQtQtQtQtQtQtQtQt",
"QtQtQtQtQtQtQtQtQtQtQtQtQtQtQtQtQtQtQtQt.w.F.F.x.wQt.m.w.y.B.D.q.A.B.y.B.BQt.w.B.x.G.F.BQtQtQtQtQtQtQtQtQtQtQtQtQtQtQtQtQtQtQtQt",
"QtQtQtQtQtQtQtQtQtQtQtQtQtQtQtQtQtQtQt.q.w.F.F.E.wQt.m.m.y.B.q.q.r.B.v.B.wQtQt.w.x.G.G.x.BQtQtQtQtQtQtQtQtQtQtQtQtQtQtQtQtQtQtQt",
"QtQtQtQtQtQtQtQtQtQtQtQtQtQtQtQtQtQtQt.q.B.F.x.B.w.m.m.m.v.w.C.D.A.w.v.w.wQtQt.w.B.F.G.x.BQtQtQtQtQtQtQtQtQtQtQtQtQtQtQtQtQtQtQt",
"QtQtQtQtQtQtQtQtQtQtQtQtQtQtQtQtQtQtQt.B.q.v.t.q.m.w.r.m.v.w.D.A.H.w.t.w.r.wQt.m.q.v.y.v.tQtQtQtQtQtQtQtQtQtQtQtQtQtQtQtQtQtQtQt",
"QtQtQtQtQtQtQtQtQtQtQtQtQtQtQtQtQtQtQt.m.B.B.B.w.r.w.w.r.t.B.B.B.r.A.t.q.w.wQt.m.B.x.x.x.BQtQtQtQtQtQtQtQtQtQtQtQtQtQtQtQtQtQtQt",
"QtQtQtQtQtQtQtQtQtQtQtQtQtQtQtQtQtQtQt.w.q.t.q.r.m.m.B.w.t.B.A.D.D.B.q.w.B.B.wQt.q.t.v.v.tQtQtQtQtQtQtQtQtQtQtQtQtQtQtQtQtQtQtQt",
"QtQtQtQtQtQtQtQtQtQtQtQtQtQtQtQtQtQtQtQt.I.I.E.B.J.w.B.w.t.B.B.B.B.B.q.w.B.B.J.m.m.w.w.w.wQtQtQtQtQtQtQtQtQtQtQtQtQtQtQtQtQtQtQt",
"QtQtQtQtQtQtQtQtQtQtQtQtQtQtQtQtQtQtQtQt.J.K.J.I.J.B.E.B.t.m.B.B.B.A.t.w.B.B.w.w.E.E.I.E.EQtQtQtQtQtQtQtQtQtQtQtQtQtQtQtQtQtQtQt",
"QtQtQtQtQtQtQtQtQtQtQtQtQtQtQtQtQtQtQtQtQt.J.J.J.w.B.x.B.t.m.A.A.D.m.t.w.B.E.B.w.L.w.K.I.wQtQtQtQtQtQtQtQtQtQtQtQtQtQtQtQtQtQtQt",
"QtQtQtQtQtQtQtQtQtQtQtQtQtQtQtQtQtQtQtQtQtQtQtQt.w.B.x.B.v.B.B.m.m.B.v.w.B.x.B.w.K.w.L.IQtQtQtQtQtQtQtQtQtQtQtQtQtQtQtQtQtQtQtQt",
"QtQtQtQtQtQtQtQtQtQtQtQtQtQtQtQtQtQtQtQtQtQtQtQt.w.B.x.w.v.q.t.t.t.q.v.w.B.x.B.w.w.E.E.wQtQtQtQtQtQtQtQtQtQtQtQtQtQtQtQtQtQtQtQt",
"QtQtQtQtQtQtQtQtQtQtQtQtQtQtQtQtQtQtQtQtQtQtQt.w.B.B.B.w.v.m.m.m.m.m.t.w.B.x.B.wQtQtQtQtQtQtQtQtQtQtQtQtQtQtQtQtQtQtQtQtQtQtQtQt",
"QtQtQtQtQtQtQtQtQtQtQtQtQtQtQtQtQtQtQtQtQtQtQt.w.B.x.B.t.t.B.B.m.w.w.q.t.B.x.x.BQtQtQtQtQtQtQtQtQtQtQtQtQtQtQtQtQtQtQtQtQtQtQtQt",
"QtQtQtQtQtQtQtQtQtQtQtQtQtQtQtQtQtQtQtQtQtQtQt.w.B.x.B.v.q.w.B.m.w.m.E.v.w.x.x.E.wQtQtQtQtQtQtQtQtQtQtQtQtQtQtQtQtQtQtQtQtQtQtQt",
"QtQtQtQtQtQtQtQtQtQtQtQtQtQtQtQtQtQtQtQtQtQt.w.E.x.x.w.v.E.I.E.w.m.m.E.v.w.x.F.B.wQtQtQtQtQtQtQtQtQtQtQtQtQtQtQtQtQtQtQtQtQtQtQt",
"QtQtQtQtQtQtQtQtQtQtQtQtQtQtQtQtQtQtQtQtQt.w.w.B.F.x.w.t.I.E.K.E.w.m.B.t.t.B.F.x.E.wQtQtQtQtQtQtQtQtQtQtQtQtQtQtQtQtQtQtQtQtQtQt",
"QtQtQtQtQtQtQtQtQtQtQtQtQtQtQtQtQtQtQtQtQt.w.B.x.F.B.t.q.K.L.E.I.w.w.E.q.v.w.F.F.B.wQtQtQtQtQtQtQtQtQtQtQtQtQtQtQtQtQtQtQtQtQtQt",
"QtQtQtQtQtQtQtQtQtQtQtQtQtQtQtQtQtQtQtQt.m.w.x.F.x.w.v.E.I.K.I.E.J.I.K.K.y.w.x.F.x.B.mQtQtQtQtQtQtQtQtQtQtQtQtQtQtQtQtQtQtQtQtQt",
"QtQtQtQtQtQtQtQtQtQtQtQtQtQtQtQtQtQtQtQt.m.q.x.F.B.v.q.E.E.I.E.J.J.J.I.K.v.t.B.F.x.B.mQtQtQtQtQtQtQtQtQtQtQtQtQtQtQtQtQtQtQtQtQt",
"QtQtQtQtQtQtQtQtQtQtQtQtQtQtQtQtQtQtQtQt.m.t.B.x.w.y.J.J.E.r.J.J.J.E.J.I.q.y.w.x.B.w.rQtQtQtQtQtQtQtQtQtQtQtQtQtQtQtQtQtQtQtQtQt",
"QtQtQtQtQtQtQtQtQtQtQtQtQtQtQtQtQtQtQtQt.m.q.v.B.y.q.E.E.I.I.E.E.J.E.J.E.q.y.t.w.w.q.rQtQtQtQtQtQtQtQtQtQtQtQtQtQtQtQtQtQtQtQtQt",
"QtQtQtQtQtQtQtQtQtQtQtQtQtQtQtQtQtQtQtQt.m.q.t.v.y.m.I.K.K.K.I.J.J.J.J.J.J.v.v.t.q.r.rQtQtQtQtQtQtQtQtQtQtQtQtQtQtQtQtQtQtQtQtQt",
"QtQtQtQtQtQtQtQtQtQtQtQtQtQtQtQtQt.M.M.M.N.m.q.y.t.O.P.E.I.E.r.J.J.J.J.J.J.q.y.q.r.r.m.M.MQtQtQtQtQtQtQtQtQtQtQtQtQtQtQtQtQtQtQt",
"QtQtQtQtQtQtQtQtQtQtQtQtQtQtQt.M.M.Q.R.O.S.T.m.y.q.U.J.I.K.K.I.J.J.J.J.E.J.q.y.q.r.m.O.R.Q.M.MQtQtQtQtQtQtQtQtQtQtQtQtQtQtQtQtQt",
"QtQtQtQtQtQtQtQtQtQtQtQtQtQt.M.Q.V.W.X.Y.Z.0.1.m.m.2.J.r.E.E.E.J.J.E.E.I.J.3.v.m.4.5.Y.X.W.V.Q.MQtQtQtQtQtQtQtQtQtQtQtQtQtQtQtQt",
"QtQtQtQtQtQtQtQtQtQtQtQtQt.M.6.7.8.9#.###a#b#c#d#e.J.J.I.K.L.I.J.J.E.I.I.m#e#d#c#b#a###..9#f.7.6.MQtQtQtQtQtQtQtQtQtQtQtQtQtQtQt",
"QtQtQtQtQtQtQtQtQtQtQtQt.M.Q#g#h#i#j#k#l#m#n#o#p#q.J.J.E.I.E.J.J.J.J.w.w#r#q#p#o#n#m#l#k#j#i#h#g.Q.MQtQtQtQtQtQtQtQtQtQtQtQtQtQt",
"QtQtQtQtQtQtQtQtQtQtQtQt.M#s#t#u#v#w#n#q#x#y#y#y#y.E.I.K.K.K.I.J#z#z#z#z#y#y#y#y#y#x#q#n#w#v#u#t#s.MQtQtQtQtQtQtQtQtQtQtQtQtQtQt",
"QtQtQtQtQtQtQtQtQtQtQtQt.M#s#A#u#v#l#n#q#x#y#y#y#y.E.I.I.I.I.E.J#z#z#z#z#y#y#y#y#y#x#q#n#l#v#B#A#s.MQtQtQtQtQtQtQtQtQtQtQtQtQtQt",
"QtQtQtQtQtQtQtQtQtQtQtQt.M#C#g#h#i#j#k#l#m#n#o#p#q.w.m.E.E.m.J.w#D#D#x#r#r#q#p#o#n#m#l#k#j#i#h#g#C.MQtQtQtQtQtQtQtQtQtQtQtQtQtQt",
"QtQtQtQtQtQtQtQtQtQtQtQtQt.M.6#E#f#F#i#G#a#b#c#d#e#H#I#J#K#L#L#L#L#K#J#I#H#e#d#c#b#a#G#i#F#f#E.6.MQtQtQtQtQtQtQtQtQtQtQtQtQtQtQt",
"QtQtQtQtQtQtQtQtQtQtQtQtQtQt.M#C.O.W.X.Y.5.4.1#M.3.2#N#j#O#v#P#P#v#O#j#N.2.3#M.1.4.5.Y.X.W.O#C.MQtQtQtQtQtQtQtQtQtQtQtQtQtQtQtQt",
"QtQtQtQtQtQtQtQtQtQtQtQtQtQtQt.M.M.Q.R.O.S.T#Q#R#S.U#T#U#V#W.Z.Z#W#V#U#T.U#S#R#Q.T#g.O.R.Q.M.MQtQtQtQtQtQtQtQtQtQtQtQtQtQtQtQtQt",
"QtQtQtQtQtQtQtQtQtQtQtQtQtQtQtQtQt.M.M.M.N.Q.6.R#X.O.P#Y#Y#Y#Z#Z#Y#Y#Y.P.O#X.R.6.Q.N.M.M.MQtQtQtQtQtQtQtQtQtQtQtQtQtQtQtQtQtQtQt",
"QtQtQtQtQtQtQtQtQtQtQtQtQtQtQtQtQtQtQtQtQt.M.M.M.M.M.M.M.M.M.M.M.M.M.M.M.M.M.M.M.MQtQtQtQtQtQtQtQtQtQtQtQtQtQtQtQtQtQtQtQtQtQtQt",
"QtQtQtQtQtQtQtQtQtQtQtQtQtQtQtQtQtQtQtQtQtQtQtQtQtQtQtQtQtQtQtQtQtQtQtQtQtQtQtQtQtQtQtQtQtQtQtQtQtQtQtQtQtQtQtQtQtQtQtQtQtQtQtQt",
"QtQtQtQtQtQtQtQtQtQtQtQtQtQtQtQtQtQtQtQtQtQtQtQtQtQtQtQtQtQtQtQtQtQtQtQtQtQtQtQtQtQtQtQtQtQtQtQtQtQtQtQtQtQtQtQtQtQtQtQtQtQtQtQt"};
