/* XPM */
static char *dummy[]={
"64 64 135 2",
"Qt c None",
".3 c #000000",
"aa c #000000",
"#a c #000000",
"#T c #000000",
"#n c #000000",
"#K c #000000",
"## c #000000",
"ab c #000000",
"#m c #000000",
"#. c #000000",
"ac c #000000",
"ad c #000000",
"ae c #000000",
"#6 c #000000",
"#A c #000000",
"#o c #000000",
"#W c #000000",
"#l c #000000",
"#7 c #000000",
"#L c #000000",
"#R c #000000",
"#8 c #000000",
"#k c #000000",
"#9 c #000000",
"#z c #000000",
"a. c #000000",
"#j c #000000",
"a# c #000000",
"#B c #000000",
".5 c #000000",
".6 c #000000",
".7 c #000000",
".8 c #000000",
".9 c #000000",
"#i c #000000",
"#y c #000000",
"#X c #000000",
"#h c #000000",
"#M c #000000",
"#S c #000000",
"#2 c #000000",
"#x c #000000",
"#J c #000000",
"#3 c #000000",
"#4 c #000000",
"#w c #000000",
"#Y c #000000",
"#b c #000000",
"#c c #000000",
"#d c #000000",
"#e c #000000",
"#5 c #000000",
"#f c #000000",
"#g c #000000",
"#v c #000000",
"#I c #000000",
"#Z c #000000",
"#0 c #000000",
"#1 c #000000",
"#N c #000000",
"#H c #000000",
"#p c #000000",
"#q c #000000",
"#r c #000000",
"#G c #000000",
"#s c #000000",
"#t c #000000",
"#u c #000000",
"#O c #000000",
"#U c #000000",
"#V c #000000",
"#Q c #000000",
"#C c #000000",
"#D c #000000",
"#E c #000000",
"#F c #000000",
"#P c #000000",
".4 c #000008",
".Y c #020101",
".g c #060808",
".C c #061e11",
".P c #080014",
".r c #080808",
".b c #0c1211",
".U c #0f0e11",
".c c #131314",
".u c #140500",
".# c #1a2520",
".Q c #1e194b",
".f c #212828",
".n c #26252c",
".X c #282829",
".d c #2b3932",
".E c #313539",
".L c #382966",
".a c #3a4a42",
".i c #3d3d3d",
".p c #444448",
".l c #463626",
".F c #47474e",
".A c #490008",
".M c #51545b",
".Z c #525351",
".0 c #535353",
".N c #554783",
".R c #562f1d",
".e c #585c5e",
".1 c #655324",
".T c #665e9a",
".q c #6d2029",
".z c #6e0023",
".H c #6f6f76",
".S c #72472d",
".x c #7291ea",
".o c #797a7c",
".h c #798487",
".O c #822d1e",
".V c #838384",
".2 c #8b682a",
".s c #9e99a6",
".W c #a3a3aa",
".K c #ad473d",
".v c #adb2af",
".B c #b00a35",
".t c #b14432",
".w c #ccd3d6",
".j c #e49e87",
".y c #e5f4ff",
".k c #e67160",
".I c #e87252",
".m c #f7e0d0",
".D c #ff2f58",
".G c #ffbf75",
".J c #ffef7c",
"QtQtQtQtQtQtQtQtQtQtQtQtQtQtQtQtQtQtQtQtQtQtQtQtQtQtQtQtQtQtQtQtQtQtQtQtQtQtQtQtQtQtQtQtQtQtQtQtQtQtQtQtQtQtQtQtQtQtQtQtQtQtQtQt",
"QtQtQtQtQtQtQtQtQtQtQtQtQtQtQtQtQtQtQtQtQtQtQtQtQtQtQtQtQtQtQtQtQtQtQtQtQtQtQtQtQtQtQtQtQtQtQtQtQtQtQtQtQtQtQtQtQtQtQtQtQtQtQtQt",
"QtQtQtQtQtQtQtQtQtQtQtQtQtQtQtQtQtQtQtQtQtQtQtQtQtQtQtQtQtQtQtQtQtQtQtQtQtQtQtQtQtQtQtQtQtQtQtQtQtQtQtQtQtQtQtQtQtQtQtQtQtQtQtQt",
"QtQtQtQtQtQtQtQtQtQtQtQtQtQtQtQtQtQtQtQtQtQtQtQtQtQtQtQtQtQtQtQtQtQtQtQtQtQt.#.#.aQtQtQtQtQtQtQtQtQtQtQtQtQtQtQtQtQtQtQtQtQtQtQt",
"QtQtQtQtQtQtQtQtQtQtQtQtQtQtQtQtQtQtQtQtQtQtQtQtQtQtQtQtQt.b.b.b.c.bQtQtQt.#.d.a.e.aQtQtQtQtQtQtQtQtQtQtQtQtQtQtQtQtQtQtQtQtQtQt",
"QtQtQtQtQtQtQtQtQtQtQtQtQtQtQtQtQtQtQtQtQtQtQtQtQtQtQtQt.#.a.a.#.f.#.c.g.h.e.#.d.e.h.eQtQtQtQtQtQtQtQtQtQtQtQtQtQtQtQtQtQtQtQtQt",
"QtQtQtQtQtQtQtQtQtQtQtQtQtQtQtQtQtQtQtQtQtQtQtQtQtQtQt.d.e.d.#.i.d.#.f.b.g.h.d.#.a.e.hQtQtQtQtQtQtQtQtQtQtQtQtQtQtQtQtQtQtQtQtQt",
"QtQtQtQtQtQtQtQtQtQtQtQtQtQtQtQtQtQtQtQtQtQtQtQt.bQt.d.h.d.#.d.e.a.a.d.#.b.g.c.#.a.d.h.#QtQtQtQtQtQtQtQtQtQtQtQtQtQtQtQtQtQtQtQt",
"QtQtQtQtQtQtQtQtQtQtQtQtQtQtQtQtQtQtQtQtQtQtQtQtQt.#.d.h.d.d.h.#.#.#.b.d.#.b.b.b.a.d.e.#QtQtQtQtQtQtQtQtQtQtQtQtQtQtQtQtQtQtQtQt",
"QtQtQtQtQtQtQtQtQtQtQtQtQtQtQtQtQtQtQtQtQtQtQtQtQtQt.#.e.d.e.#.h.e.a.#.b.#.#.b.b.a.#.e.dQtQtQtQtQtQtQtQtQtQtQtQtQtQtQtQtQtQtQtQt",
"QtQtQtQtQtQtQtQtQtQtQtQtQtQtQtQtQtQtQtQtQtQtQtQtQt.b.#.j.j.k.e.#.d.f.d.#.b.l.b.#.d.#.a.dQtQtQtQtQtQtQtQtQtQtQtQtQtQtQtQtQtQtQtQt",
"QtQtQtQtQtQtQtQtQtQtQtQtQtQtQtQtQtQtQtQtQtQtQtQt.bQt.#.m.m.m.j.d.n.b.#.d.b.bQt.#.#.o.o.pQtQtQtQtQtQtQtQtQtQtQtQtQtQtQtQtQtQtQtQt",
"QtQtQtQtQtQtQtQtQtQtQtQtQtQtQtQtQtQtQtQtQtQtQtQt.bQt.b.m.m.k.q.q.d.b.b.#.#.c.bQt.o.r.s.pQtQtQtQtQtQtQtQtQtQtQtQtQtQtQtQtQtQtQtQt",
"QtQtQtQtQtQtQtQtQtQtQtQtQtQtQtQtQtQtQtQtQtQtQtQtQtQt.k.j.t.u.v.r.d.b.j.b.#.b.bQt.o.r.w.pQtQtQtQtQtQtQtQtQtQtQtQtQtQtQtQtQtQtQtQt",
"QtQtQtQtQtQtQtQtQtQtQtQtQtQtQtQtQtQtQtQtQtQtQtQtQtQt.k.j.j.x.y.r.a.b.k.#.b.#Qt.r.p.s.s.pQtQtQtQtQtQtQtQtQtQtQtQtQtQtQtQtQtQtQtQt",
"QtQtQtQtQtQtQtQtQtQtQtQtQtQtQtQtQtQtQtQtQtQtQtQtQtQt.t.m.m.m.m.j.a.b.r.b.#QtQt.r.o.r.r.a.#QtQtQtQtQtQtQtQtQtQtQtQtQtQtQtQtQtQtQt",
"QtQtQtQtQtQtQtQtQtQtQtQtQtQtQtQtQtQtQtQtQtQtQtQtQtQt.t.j.m.m.m.j.z.A.g.b.bQt.r.p.p.r.b.a.dQtQtQtQtQtQtQtQtQtQtQtQtQtQtQtQtQtQtQt",
"QtQtQtQtQtQtQtQtQtQtQtQtQtQtQtQtQtQtQtQtQtQtQtQtQtQt.b.t.j.m.j.a.B.z.C.C.g.b.r.o.r.d.b.d.aQtQtQtQtQtQtQtQtQtQtQtQtQtQtQtQtQtQtQt",
"QtQtQtQtQtQtQtQtQtQtQtQtQtQtQtQtQtQtQtQtQtQtQtQtQtQt.b.C.t.j.k.B.D.z.A.E.C.r.p.o.r.d.#.d.aQtQtQtQtQtQtQtQtQtQtQtQtQtQtQtQtQtQtQt",
"QtQtQtQtQtQtQtQtQtQtQtQtQtQtQtQtQtQtQtQtQtQtQtQtQt.b.g.F.q.t.B.G.D.G.z.A.C.s.p.r.#.#.b.e.#QtQtQtQtQtQtQtQtQtQtQtQtQtQtQtQtQtQtQt",
"QtQtQtQtQtQtQtQtQtQtQtQtQtQtQtQtQtQtQtQtQtQtQtQtQt.b.F.H.E.I.B.J.D.G.z.A.K.s.r.r.c.#.b.e.dQtQtQtQtQtQtQtQtQtQtQtQtQtQtQtQtQtQtQt",
"QtQtQtQtQtQtQtQtQtQtQtQtQtQtQtQtQtQtQtQtQtQtQtQtQt.g.H.F.C.I.z.G.B.I.A.A.K.s.r.p.r.r.a.e.dQtQtQtQtQtQtQtQtQtQtQtQtQtQtQtQtQtQtQt",
"QtQtQtQtQtQtQtQtQtQtQtQtQtQtQtQtQtQtQtQtQtQtQtQtQt.H.F.C.L.M.J.z.B.A.A.I.K.p.o.p.q.r.a.d.#QtQtQtQtQtQtQtQtQtQtQtQtQtQtQtQtQtQtQt",
"QtQtQtQtQtQtQtQtQtQtQtQtQtQtQtQtQtQtQtQtQtQtQtQtQt.E.C.L.N.#.I.G.z.K.K.O.L.P.o.F.r.r.e.d.#QtQtQtQtQtQtQtQtQtQtQtQtQtQtQtQtQtQtQt",
"QtQtQtQtQtQtQtQtQtQtQtQtQtQtQtQtQtQtQtQtQtQtQtQtQt.C.C.N.N.b.G.B.G.A.A.K.N.Q.o.p.q.r.a.#.dQtQtQtQtQtQtQtQtQtQtQtQtQtQtQtQtQtQtQt",
"QtQtQtQtQtQtQtQtQtQtQtQtQtQtQtQtQtQtQtQtQtQtQtQtQt.R.S.N.N.L.G.z.A.A.K.P.N.L.P.r.r.r.d.#.FQtQtQtQtQtQtQtQtQtQtQtQtQtQtQtQtQtQtQt",
"QtQtQtQtQtQtQtQtQtQtQtQtQtQtQtQtQtQtQtQtQtQtQtQtQt.C.E.N.N.N.T.I.K.K.b.P.N.N.Q.P.r.b.d.b.FQtQtQtQtQtQtQtQtQtQtQtQtQtQtQtQtQtQtQt",
"QtQtQtQtQtQtQtQtQtQtQtQtQtQtQtQtQtQtQtQtQtQtQtQtQtQt.E.Q.Q.N.N.N.L.b.P.T.T.N.L.P.U.c.d.b.aQtQtQtQtQtQtQtQtQtQtQtQtQtQtQtQtQtQtQt",
"QtQtQtQtQtQtQtQtQtQtQtQtQtQtQtQtQtQtQtQtQtQtQtQtQtQt.V.F.N.T.N.N.Q.b.P.T.T.T.N.Q.P.b.#.b.FQtQtQtQtQtQtQtQtQtQtQtQtQtQtQtQtQtQtQt",
"QtQtQtQtQtQtQtQtQtQtQtQtQtQtQtQtQtQtQtQtQtQtQtQtQtQt.S.Q.T.T.N.L.b.S.P.N.T.T.N.L.P.b.#.b.aQtQtQtQtQtQtQtQtQtQtQtQtQtQtQtQtQtQtQt",
"QtQtQtQtQtQtQtQtQtQtQtQtQtQtQtQtQtQtQtQtQtQtQtQtQt.C.L.T.T.N.L.L.b.S.L.P.H.W.H.F.F.b.#.b.a.#QtQtQtQtQtQtQtQtQtQtQtQtQtQtQtQtQtQt",
"QtQtQtQtQtQtQtQtQtQtQtQtQtQtQtQtQtQtQtQtQtQtQtQtQt.L.F.W.N.L.L.Q.Q.Q.L.Q.P.L.Q.Q.U.b.#.b.d.#QtQtQtQtQtQtQtQtQtQtQtQtQtQtQtQtQtQt",
"QtQtQtQtQtQtQtQtQtQtQtQtQtQtQtQtQtQtQtQtQtQtQtQt.r.X.N.L.H.L.Q.b.Q.Q.L.Q.Q.X.X.Y.P.c.#.b.#.dQtQtQtQtQtQtQtQtQtQtQtQtQtQtQtQtQtQt",
"QtQtQtQtQtQtQtQtQtQtQtQtQtQtQtQtQtQtQtQtQtQtQt.r.r.M.X.N.L.F.P.C.n.Q.Q.L.Q.P.X.Y.Y.#.#.b.b.dQtQtQtQtQtQtQtQtQtQtQtQtQtQtQtQtQtQt",
"QtQtQtQtQtQtQtQtQtQtQtQtQtQtQtQtQtQtQtQtQtQt.q.m.t.h.M.r.L.Q.P.l.L.Q.Q.L.Q.n.Z.X.Y.#.c.bQt.#QtQtQtQtQtQtQtQtQtQtQtQtQtQtQtQtQtQt",
"QtQtQtQtQtQtQtQtQtQtQtQtQtQtQtQtQtQtQtQtQtQt.q.k.t.q.M.M.r.r.E.l.L.L.Q.L.Q.Q.P.Y.Y.#.b.bQt.#QtQtQtQtQtQtQtQtQtQtQtQtQtQtQtQtQtQt",
"QtQtQtQtQtQtQtQtQtQtQtQtQtQtQtQtQtQtQtQtQtQt.q.q.k.k.t.M.X.r.i.p.L.L.L.Q.L.Q.Q.X.Y.bQtQtQtQtQtQtQtQtQtQtQtQtQtQtQtQtQtQtQtQtQtQt",
"QtQtQtQtQtQtQtQtQtQtQtQtQtQtQtQtQtQtQtQtQtQtQt.q.q.t.k.X.r.F.E.H.l.N.L.Q.L.Q.Q.P.#QtQtQtQtQtQtQtQtQtQtQtQtQtQtQtQtQtQtQtQtQtQtQt",
"QtQtQtQtQtQtQtQtQtQtQtQtQtQtQtQtQtQtQtQtQtQt.0.e.Y.q.q.r.Y.F.E.H.l.N.L.L.Q.L.Q.Q.b.#QtQtQtQtQtQtQtQtQtQtQtQtQtQtQtQtQtQtQtQtQtQt",
"QtQtQtQtQtQtQtQtQtQtQtQtQtQtQtQtQtQtQtQtQt.0.v.V.Z.C.C.b.Y.E.F.H.1.N.L.L.Q.Q.L.Q.P.#QtQtQtQtQtQtQtQtQtQtQtQtQtQtQtQtQtQtQtQtQtQt",
"QtQtQtQtQtQtQtQtQtQtQtQtQtQtQtQtQtQtQtQtQt.V.V.V.e.C.C.C.r.Y.E.H.F.1.N.L.L.Q.L.Q.Q.PQtQtQtQtQtQtQtQtQtQtQtQtQtQtQtQtQtQtQtQtQtQt",
"QtQtQtQtQtQtQtQtQtQtQtQtQtQtQtQtQtQtQtQtQt.0.V.V.V.C.#.b.r.V.w.H.H.1.N.L.L.Q.Q.L.Q.Q.PQtQtQtQtQtQtQtQtQtQtQtQtQtQtQtQtQtQtQtQtQt",
"QtQtQtQtQtQtQtQtQtQtQtQtQtQtQtQtQtQtQtQtQt.0.e.0.0.0.C.C.r.V.w.H.W.2.N.L.L.L.Q.Q.L.Q.Q.PQtQtQtQtQtQtQtQtQtQtQtQtQtQtQtQtQtQtQtQt",
"QtQtQtQtQtQtQtQtQtQtQtQtQtQtQtQtQtQtQtQtQtQt.0.0.X.r.U.r.r.V.w.v.W.2.N.N.L.L.L.Q.Q.L.Q.Q.PQtQtQtQtQtQtQtQtQtQtQtQtQtQtQtQtQtQtQt",
"QtQtQtQtQtQtQtQtQtQtQtQtQtQtQtQtQtQtQtQtQtQt.Y.f.f.#.r.r.P.P.V.v.W.F.1.N.L.L.L.L.Q.L.Q.Q.PQtQtQtQtQtQtQtQtQtQtQtQtQtQtQtQtQtQtQt",
"QtQtQtQtQtQtQtQtQtQtQtQtQtQtQtQtQtQtQtQtQtQt.M.f.X.f.f.c.P.P.P.V.W.H.1.N.L.L.N.L.Q.Q.L.Q.Q.PQtQtQtQtQtQtQtQtQtQtQtQtQtQtQtQtQtQt",
"QtQtQtQtQtQtQtQtQtQtQtQtQtQtQtQtQtQtQtQtQtQt.Y.M.f.X.f.U.P.P.P.0.H.W.2.N.N.L.N.L.L.Q.Q.L.Q.Q.PQtQtQtQtQtQtQtQtQtQtQtQtQtQtQtQtQt",
"QtQtQtQtQtQtQtQtQtQtQtQtQtQtQtQtQtQtQtQtQt.Y.Y.X.M.X.f.r.P.P.P.P.Y.W.F.1.N.L.L.N.L.L.Q.L.Q.QQtQtQtQtQtQtQtQtQtQtQtQtQtQtQtQtQtQt",
"QtQtQtQtQtQtQtQtQtQtQtQtQtQtQtQtQtQtQtQtQt.M.f.X.f.f.Y.P.P.P.P.P.P.W.H.2.N.L.L.L.N.L.L.Q.QQtQtQtQtQtQtQtQtQtQtQtQtQtQtQtQtQtQtQt",
"QtQtQtQtQtQtQtQtQtQtQtQtQtQtQtQtQtQt.3.3.3.Y.M.f.X.f.Y.Y.4.4.P.4.P.H.W.H.N.N.L.L.N.L.L.L.v.3QtQtQtQtQtQtQtQtQtQtQtQtQtQtQtQtQtQt",
"QtQtQtQtQtQtQtQtQtQtQtQtQtQtQtQt.3.3.Y.Y.o.f.f.M.X.f.Y.5.6.7.8.9.9.8.W.H.1.N.L.L.L.N.L#.###a.3.3QtQtQtQtQtQtQtQtQtQtQtQtQtQtQtQt",
"QtQtQtQtQtQtQtQtQtQtQtQtQtQtQt.3#a.U.X.M.f.M.f.X.f.U#b#c#d#e#f#g#g#f.H.W.2.N.L.L.L#h#i#j#k#l#m#a.3QtQtQtQtQtQtQtQtQtQtQtQtQtQtQt",
"QtQtQtQtQtQtQtQtQtQtQtQtQtQt.3#n#o.Y.f.M.X.f.M.f.f.U#p#q#r#s#t#u#u#t#s.W.H.N.L.c.U#v#e#w#x#y#z#o#n.3QtQtQtQtQtQtQtQtQtQtQtQtQtQt",
"QtQtQtQtQtQtQtQtQtQtQtQtQt.3#a#A#B.Y.Y.Y.f.f.f.f.f.Y#C#C#D#E#E#F#F#E.Y.W.W.M.X.c.c.r#G#H#I#d#J#B#A#a.3QtQtQtQtQtQtQtQtQtQtQtQtQt",
"QtQtQtQtQtQtQtQtQtQtQtQtQt.3#K#L#M#f#N#O.Y.Y.Y.Y.Y.Y#F#P#P#P#P#P#P.Y.X.o.X.X.M.X.c.r#D#Q#O#N#f#M#L#K.3QtQtQtQtQtQtQtQtQtQtQtQtQt",
"QtQtQtQtQtQtQtQtQtQtQtQtQt.3#K#R#M#f#H#O#Q#D#F#F#F#F#F#P#P#P#P#P#P.Y.X.n.M.#.X.X.U.r#D#Q#O#H#f#S#R#K.3QtQtQtQtQtQtQtQtQtQtQtQtQt",
"QtQtQtQtQtQtQtQtQtQtQtQtQt.3#T#A#B#J#d#I#H#G#O#U#V#Q#C#C#D#E#E#F#F.Y.r.Y.g.Y.g.r#U#O#G#H#I#d#J#B#A#T.3QtQtQtQtQtQtQtQtQtQtQtQtQt",
"QtQtQtQtQtQtQtQtQtQtQtQtQtQt.3#n#W#z#X#J#Y#e#v#Z#0#1#p#q#r#s#u#u#u#u#s#r#q#p#1#0#Z#v#e#Y#J#X#z#W#n.3QtQtQtQtQtQtQtQtQtQtQtQtQtQt",
"QtQtQtQtQtQtQtQtQtQtQtQtQtQtQt.3#T#.#l#k#j#i#h#2#3#4#b#c#d#5#f#g#g#f#5#d#c#b#4#3#2#h#i#j#k#l#.#T.3QtQtQtQtQtQtQtQtQtQtQtQtQtQtQt",
"QtQtQtQtQtQtQtQtQtQtQtQtQtQtQtQt.3.3#a###.#6#7#8#9a.a#.5.6.7.8.9.9.8.7.6.5a#a.#9#8#7#A#.###a.3.3QtQtQtQtQtQtQtQtQtQtQtQtQtQtQtQt",
"QtQtQtQtQtQtQtQtQtQtQtQtQtQtQtQtQtQt.3.3.3aa#a#n##ab#.acadadadaeaeadadadac#.ab###n#aaa.3.3.3QtQtQtQtQtQtQtQtQtQtQtQtQtQtQtQtQtQt",
"QtQtQtQtQtQtQtQtQtQtQtQtQtQtQtQtQtQtQtQtQtQt.3.3.3.3.3.3.3.3.3.3.3.3.3.3.3.3.3.3.3.3QtQtQtQtQtQtQtQtQtQtQtQtQtQtQtQtQtQtQtQtQtQt",
"QtQtQtQtQtQtQtQtQtQtQtQtQtQtQtQtQtQtQtQtQtQtQtQtQtQtQtQtQtQtQtQtQtQtQtQtQtQtQtQtQtQtQtQtQtQtQtQtQtQtQtQtQtQtQtQtQtQtQtQtQtQtQtQt",
"QtQtQtQtQtQtQtQtQtQtQtQtQtQtQtQtQtQtQtQtQtQtQtQtQtQtQtQtQtQtQtQtQtQtQtQtQtQtQtQtQtQtQtQtQtQtQtQtQtQtQtQtQtQtQtQtQtQtQtQtQtQtQtQt"};
