/* XPM */
static char *dummy[]={
"64 64 139 2",
"Qt c None",
".8 c #000000",
".9 c #000000",
"#. c #000000",
"#U c #000000",
"## c #000000",
"#K c #000000",
"#a c #000000",
"af c #000000",
"#f c #000000",
"#b c #000000",
"ag c #000000",
"ah c #000000",
"ai c #000000",
"#c c #000000",
"#A c #000000",
"#o c #000000",
"#W c #000000",
"#g c #000000",
"#d c #000000",
"#L c #000000",
"#R c #000000",
"#e c #000000",
"#h c #000000",
"a. c #000000",
"#p c #000000",
"#z c #000000",
"a# c #000000",
"#i c #000000",
"aa c #000000",
"#B c #000000",
"ab c #000000",
"ac c #000000",
"ad c #000000",
"ae c #000000",
"#j c #000000",
"#n c #000000",
"#q c #000000",
"#X c #000000",
"#m c #000000",
"#M c #000000",
"#T c #000000",
"#4 c #000000",
"#r c #000000",
"#C c #000000",
"#5 c #000000",
"#6 c #000000",
"#s c #000000",
"#Y c #000000",
"#7 c #000000",
"#8 c #000000",
"#D c #000000",
"#y c #000000",
"#9 c #000000",
"#k c #000000",
"#l c #000000",
"#x c #000000",
"#E c #000000",
"#w c #000000",
"#v c #000000",
"#Z c #000000",
"#N c #000000",
"#F c #000000",
"#0 c #000000",
"#1 c #000000",
"#2 c #000000",
"#J c #000000",
"#3 c #000000",
"#t c #000000",
"#u c #000000",
"#I c #000000",
"#H c #000000",
"#G c #000000",
"#O c #000000",
"#V c #000000",
"#Q c #000000",
"#P c #000000",
"#S c #000000",
".Y c #000008",
".V c #005477",
".0 c #020101",
".g c #060808",
".C c #061e11",
".U c #080014",
".r c #080808",
".b c #0c1211",
".z c #0f0e11",
".c c #131314",
".u c #140500",
".# c #1a2520",
".S c #1e194b",
".f c #212828",
".n c #26252c",
".1 c #282829",
".d c #2b3932",
".E c #313539",
".N c #382966",
".a c #3a4a42",
".i c #3d3d3d",
".p c #444448",
".l c #463626",
".F c #47474e",
".B c #490008",
".X c #4a2121",
".M c #51545b",
".2 c #525351",
".3 c #535353",
".R c #554783",
".P c #562f1d",
".6 c #563521",
".e c #585c5e",
".5 c #655324",
".T c #665e9a",
".q c #6d2029",
".A c #6e0023",
".I c #6f6f76",
".Q c #72472d",
".x c #7291ea",
".o c #797a7c",
".h c #798487",
".7 c #7a603f",
".O c #822d1e",
".4 c #838384",
".W c #946c45",
".s c #9e99a6",
".Z c #a3a3aa",
".L c #ad473d",
".v c #adb2af",
".D c #b00a35",
".t c #b14432",
".w c #ccd3d6",
".j c #e49e87",
".y c #e5f4ff",
".k c #e67160",
".J c #e87252",
".m c #f7e0d0",
".G c #ff2f58",
".H c #ffbf75",
".K c #ffef7c",
"QtQtQtQtQtQtQtQtQtQtQtQtQtQtQtQtQtQtQtQtQtQtQtQtQtQtQtQtQtQtQtQtQtQtQtQtQtQtQtQtQtQtQtQtQtQtQtQtQtQtQtQtQtQtQtQtQtQtQtQtQtQtQtQt",
"QtQtQtQtQtQtQtQtQtQtQtQtQtQtQtQtQtQtQtQtQtQtQtQtQtQtQtQtQtQtQtQtQtQtQtQtQtQtQtQtQtQtQtQtQtQtQtQtQtQtQtQtQtQtQtQtQtQtQtQtQtQtQtQt",
"QtQtQtQtQtQtQtQtQtQtQtQtQtQtQtQtQtQtQtQtQtQtQtQtQtQtQtQtQtQtQtQtQtQtQtQtQtQt.#.#.aQtQtQtQtQtQtQtQtQtQtQtQtQtQtQtQtQtQtQtQtQtQtQt",
"QtQtQtQtQtQtQtQtQtQtQtQtQtQtQtQtQtQtQtQtQtQtQtQtQtQtQtQtQt.b.b.b.c.bQtQtQt.#.d.a.e.aQtQtQtQtQtQtQtQtQtQtQtQtQtQtQtQtQtQtQtQtQtQt",
"QtQtQtQtQtQtQtQtQtQtQtQtQtQtQtQtQtQtQtQtQtQtQtQtQtQtQtQt.#.a.a.#.f.#.c.g.h.e.#.d.e.h.eQtQtQtQtQtQtQtQtQtQtQtQtQtQtQtQtQtQtQtQtQt",
"QtQtQtQtQtQtQtQtQtQtQtQtQtQtQtQtQtQtQtQtQtQtQtQtQtQtQt.d.e.d.#.d.i.#.f.b.g.h.d.#.a.e.hQtQtQtQtQtQtQtQtQtQtQtQtQtQtQtQtQtQtQtQtQt",
"QtQtQtQtQtQtQtQtQtQtQtQtQtQtQtQtQtQtQtQtQtQtQtQt.bQt.d.h.d.#.d.e.a.a.d.#.b.g.b.f.a.d.h.#QtQtQtQtQtQtQtQtQtQtQtQtQtQtQtQtQtQtQtQt",
"QtQtQtQtQtQtQtQtQtQtQtQtQtQtQtQtQtQtQtQtQtQtQtQtQt.#.d.h.d.d.h.#.#.#.b.d.#.b.b.b.a.d.e.#QtQtQtQtQtQtQtQtQtQtQtQtQtQtQtQtQtQtQtQt",
"QtQtQtQtQtQtQtQtQtQtQtQtQtQtQtQtQtQtQtQtQtQtQtQtQtQt.#.e.d.e.#.h.e.a.#.b.#.#.b.b.a.#.e.dQtQtQtQtQtQtQtQtQtQtQtQtQtQtQtQtQtQtQtQt",
"QtQtQtQtQtQtQtQtQtQtQtQtQtQtQtQtQtQtQtQtQtQtQtQtQt.b.#.j.j.k.e.#.d.f.d.#.b.l.bQt.d.#.a.dQtQtQtQtQtQtQtQtQtQtQtQtQtQtQtQtQtQtQtQt",
"QtQtQtQtQtQtQtQtQtQtQtQtQtQtQtQtQtQtQtQtQtQtQtQt.bQt.#.m.m.m.j.d.n.b.#.d.b.bQtQt.#.o.o.pQtQtQtQtQtQtQtQtQtQtQtQtQtQtQtQtQtQtQtQt",
"QtQtQtQtQtQtQtQtQtQtQtQtQtQtQtQtQtQtQtQtQtQtQtQt.bQt.b.m.m.k.q.q.d.b.b.#.#.c.bQt.o.r.s.pQtQtQtQtQtQtQtQtQtQtQtQtQtQtQtQtQtQtQtQt",
"QtQtQtQtQtQtQtQtQtQtQtQtQtQtQtQtQtQtQtQtQtQtQtQtQtQt.k.j.t.u.v.r.d.b.j.b.#.b.bQt.o.r.w.pQtQtQtQtQtQtQtQtQtQtQtQtQtQtQtQtQtQtQtQt",
"QtQtQtQtQtQtQtQtQtQtQtQtQtQtQtQtQtQtQtQtQtQtQtQtQtQt.k.j.j.x.y.r.a.b.k.#.b.#Qt.r.p.s.s.pQtQtQtQtQtQtQtQtQtQtQtQtQtQtQtQtQtQtQtQt",
"QtQtQtQtQtQtQtQtQtQtQtQtQtQtQtQtQtQtQtQtQtQtQtQtQtQt.t.m.m.m.m.j.a.b.z.b.#QtQt.r.o.r.r.#QtQtQtQtQtQtQtQtQtQtQtQtQtQtQtQtQtQtQtQt",
"QtQtQtQtQtQtQtQtQtQtQtQtQtQtQtQtQtQtQtQtQtQtQtQtQtQt.t.j.m.m.m.j.a.b.g.z.bQt.r.p.p.r.a.dQtQtQtQtQtQtQtQtQtQtQtQtQtQtQtQtQtQtQtQt",
"QtQtQtQtQtQtQtQtQtQtQtQtQtQtQtQtQtQtQtQtQtQtQtQtQtQt.b.t.j.m.j.a.b.A.B.C.g.b.r.o.r.b.d.aQtQtQtQtQtQtQtQtQtQtQtQtQtQtQtQtQtQtQtQt",
"QtQtQtQtQtQtQtQtQtQtQtQtQtQtQtQtQtQtQtQtQtQtQtQtQtQt.b.C.t.j.k.d.b.D.A.E.C.r.p.o.r.#.d.aQtQtQtQtQtQtQtQtQtQtQtQtQtQtQtQtQtQtQtQt",
"QtQtQtQtQtQtQtQtQtQtQtQtQtQtQtQtQtQtQtQtQtQtQtQtQt.b.g.F.q.t.a.#.D.G.A.B.b.s.p.r.d.#.e.#QtQtQtQtQtQtQtQtQtQtQtQtQtQtQtQtQtQtQtQt",
"QtQtQtQtQtQtQtQtQtQtQtQtQtQtQtQtQtQtQtQtQtQtQtQtQt.b.F.E.F.F.d.D.H.G.H.A.B.s.r.r.d.#.e.dQtQtQtQtQtQtQtQtQtQtQtQtQtQtQtQtQtQtQtQt",
"QtQtQtQtQtQtQtQtQtQtQtQtQtQtQtQtQtQtQtQtQtQtQtQtQt.g.C.I.I.a.J.D.K.G.H.A.B.L.r.p.r.r.e.aQtQtQtQtQtQtQtQtQtQtQtQtQtQtQtQtQtQtQtQt",
"QtQtQtQtQtQtQtQtQtQtQtQtQtQtQtQtQtQtQtQtQtQtQtQtQt.F.I.p.E.M.J.A.H.D.J.B.B.L.o.p.q.r.e.a.#QtQtQtQtQtQtQtQtQtQtQtQtQtQtQtQtQtQtQt",
"QtQtQtQtQtQtQtQtQtQtQtQtQtQtQtQtQtQtQtQtQtQtQtQtQt.E.F.E.E.#.N.K.A.D.B.B.J.L.o.F.r.r.a.d.#QtQtQtQtQtQtQtQtQtQtQtQtQtQtQtQtQtQtQt",
"QtQtQtQtQtQtQtQtQtQtQtQtQtQtQtQtQtQtQtQtQtQtQtQtQt.C.C.I.E.b.N.J.H.A.L.L.O.s.o.p.q.r.a.#.dQtQtQtQtQtQtQtQtQtQtQtQtQtQtQtQtQtQtQt",
"QtQtQtQtQtQtQtQtQtQtQtQtQtQtQtQtQtQtQtQtQtQtQtQtQt.P.Q.I.R.N.N.H.D.H.B.B.L.s.o.r.r.r.d.#.FQtQtQtQtQtQtQtQtQtQtQtQtQtQtQtQtQtQtQt",
"QtQtQtQtQtQtQtQtQtQtQtQtQtQtQtQtQtQtQtQtQtQtQtQtQt.C.E.I.R.N.S.H.A.B.B.L.S.r.o.b.r.b.d.b.FQtQtQtQtQtQtQtQtQtQtQtQtQtQtQtQtQtQtQt",
"QtQtQtQtQtQtQtQtQtQtQtQtQtQtQtQtQtQtQtQtQtQtQtQtQtQt.C.F.R.N.N.T.J.L.L.U.S.#.r.V.r.c.d.b.aQtQtQtQtQtQtQtQtQtQtQtQtQtQtQtQtQtQtQt",
"QtQtQtQtQtQtQtQtQtQtQtQtQtQtQtQtQtQtQtQtQtQtQtQtQtQt.Q.F.S.S.R.R.R.R.S.R.S.#.p.r.b.c.#.b.FQtQtQtQtQtQtQtQtQtQtQtQtQtQtQtQtQtQtQt",
"QtQtQtQtQtQtQtQtQtQtQtQtQtQtQtQtQtQtQtQtQtQtQtQtQt.P.Q.W.W.S.T.T.R.N.U.R.U.#.p.r.b.c.#.b.aQtQtQtQtQtQtQtQtQtQtQtQtQtQtQtQtQtQtQt",
"QtQtQtQtQtQtQtQtQtQtQtQtQtQtQtQtQtQtQtQtQtQtQtQtQt.C.X.C.X.N.T.T.R.S.U.R.U.b.#Qt.b.c.#.b.a.#QtQtQtQtQtQtQtQtQtQtQtQtQtQtQtQtQtQt",
"QtQtQtQtQtQtQtQtQtQtQtQtQtQtQtQtQtQtQtQtQtQtQtQtQt.P.Y.C.N.T.T.R.N.S.U.I.F.b.#Qt.b.c.#.b.d.#QtQtQtQtQtQtQtQtQtQtQtQtQtQtQtQtQtQt",
"QtQtQtQtQtQtQtQtQtQtQtQtQtQtQtQtQtQtQtQtQtQtQtQtQt.Q.Y.N.R.I.Z.R.N.S.S.U.U.d.#Qt.b.b.b.b.#.iQtQtQtQtQtQtQtQtQtQtQtQtQtQtQtQtQtQt",
"QtQtQtQtQtQtQtQtQtQtQtQtQtQtQtQtQtQtQtQtQtQtQtQtQt.P.Y.0.R.R.N.I.N.S.N.S.U.d.b.#.b.b.b.b.b.d.dQtQtQtQtQtQtQtQtQtQtQtQtQtQtQtQtQt",
"QtQtQtQtQtQtQtQtQtQtQtQtQtQtQtQtQtQtQtQtQtQtQtQtQtQt.0.0.i.1.R.N.F.U.N.S.S.U.d.#Qt.b.b.bQt.#.dQtQtQtQtQtQtQtQtQtQtQtQtQtQtQtQtQt",
"QtQtQtQtQtQtQtQtQtQtQtQtQtQtQtQtQtQtQtQtQtQtQtQtQt.0.j.0.i.2.0.0.#.N.S.N.S.U.d.#Qt.b.b.bQtQt.#QtQtQtQtQtQtQtQtQtQtQtQtQtQtQtQtQt",
"QtQtQtQtQtQtQtQtQtQtQtQtQtQtQtQtQtQtQtQtQtQtQtQtQt.0.j.t.1.1.M.0.0.N.N.N.S.S.U.c.#Qt.b.bQtQtQtQtQtQtQtQtQtQtQtQtQtQtQtQtQtQtQtQt",
"QtQtQtQtQtQtQtQtQtQtQtQtQtQtQtQtQtQtQtQtQtQtQtQtQt.Y.t.k.k.1.1.1.0.N.N.N.S.S.U.d.#QtQt.bQtQtQtQtQtQtQtQtQtQtQtQtQtQtQtQtQtQtQtQt",
"QtQtQtQtQtQtQtQtQtQtQtQtQtQtQtQtQtQtQtQtQtQtQtQtQt.Y.C.q.q.t.q.0.R.N.N.S.N.S.S.d.b.#Qt.bQtQtQtQtQtQtQtQtQtQtQtQtQtQtQtQtQtQtQtQt",
"QtQtQtQtQtQtQtQtQtQtQtQtQtQtQtQtQtQtQtQtQtQtQtQtQt.Y.C.C.q.q.q.I.l.R.N.N.N.S.S.U.d.#QtQtQtQtQtQtQtQtQtQtQtQtQtQtQtQtQtQtQtQtQtQt",
"QtQtQtQtQtQtQtQtQtQtQtQtQtQtQtQtQtQtQtQtQtQtQtQt.3.3.f.C.C.E.Z.I.l.R.N.N.N.N.S.S.d.bQtQtQtQtQtQtQtQtQtQtQtQtQtQtQtQtQtQtQtQtQtQt",
"QtQtQtQtQtQtQtQtQtQtQtQtQtQtQtQtQtQtQtQtQtQtQt.3.v.4.3.f.C.v.w.Z.5.R.N.N.N.N.S.S.U.d.#QtQtQtQtQtQtQtQtQtQtQtQtQtQtQtQtQtQtQtQtQt",
"QtQtQtQtQtQtQtQtQtQtQtQtQtQtQtQtQtQtQtQtQtQtQt.4.4.4.M.3.4.y.w.Z.5.T.R.N.N.N.N.S.S.d.#QtQtQtQtQtQtQtQtQtQtQtQtQtQtQtQtQtQtQtQtQt",
"QtQtQtQtQtQtQtQtQtQtQtQtQtQtQtQtQtQtQtQtQtQtQt.3.3.3.3.f.v.w.w.Z.I.T.R.N.R.N.N.S.S.U.6.#QtQtQtQtQtQtQtQtQtQtQtQtQtQtQtQtQtQtQtQt",
"QtQtQtQtQtQtQtQtQtQtQtQtQtQtQtQtQtQtQtQtQtQtQt.3.3.3.#.r.3.4.4.Z.Z.l.R.N.N.N.N.N.S.S.7.#QtQtQtQtQtQtQtQtQtQtQtQtQtQtQtQtQtQtQtQt",
"QtQtQtQtQtQtQtQtQtQtQtQtQtQtQtQtQtQtQtQtQtQtQtQt.f.f.r.z.c.3.4.Z.Z.l.T.N.N.R.N.N.S.S.S.#QtQtQtQtQtQtQtQtQtQtQtQtQtQtQtQtQtQtQtQt",
"QtQtQtQtQtQtQtQtQtQtQtQtQtQtQtQtQtQtQtQtQtQtQtQt.0.r.z.c.z.r.3.3.Z.5.T.R.N.R.N.N.N.S.S.U.3QtQtQtQtQtQtQtQtQtQtQtQtQtQtQtQtQtQtQt",
"QtQtQtQtQtQtQtQtQtQtQtQtQtQtQtQtQtQtQtQtQtQtQtQt.0.c.c.c.c.r.r.0.Z.I.T.R.N.N.R.N.N.S.S.S.3QtQtQtQtQtQtQtQtQtQtQtQtQtQtQtQtQtQtQt",
"QtQtQtQtQtQtQtQtQtQtQtQtQtQtQtQtQtQtQtQtQtQtQtQt.M.M.M.#.c.z.r.0.Z.I.l.R.N.N.R.N.N.N.S.S.UQtQtQtQtQtQtQtQtQtQtQtQtQtQtQtQtQtQtQt",
"QtQtQtQtQtQtQtQtQtQtQtQtQtQtQtQtQtQtQtQtQtQt.8.8.0.c.c.c.z.r.r.c.Z.Z.l.T.N.N.R.N.N.N.S.S.SQtQtQtQtQtQtQtQtQtQtQtQtQtQtQtQtQtQtQt",
"QtQtQtQtQtQtQtQtQtQtQtQtQtQtQtQtQtQt.8.8.8.9#.##.r.c.c.c.c.r.r.c.Z.Z.5.T.R.N.N.R.N.N.N.S.8.8QtQtQtQtQtQtQtQtQtQtQtQtQtQtQtQtQtQt",
"QtQtQtQtQtQtQtQtQtQtQtQtQtQtQtQt.8.8#.#a#b#c#d#e.M.M.M.c.z.r.Y.U.c.Z.5.T.R.N.N.R.N.N.N#b#a#..8.8QtQtQtQtQtQtQtQtQtQtQtQtQtQtQtQt",
"QtQtQtQtQtQtQtQtQtQtQtQtQtQtQt.8#.#f#g#h#i#j.0.0.M.r.c.c.z.r#k#l.v.Z.I.5.T.R.N.R.N#m#n#i#h#g#f#..8QtQtQtQtQtQtQtQtQtQtQtQtQtQtQt",
"QtQtQtQtQtQtQtQtQtQtQtQtQtQt.8###o#p#q#r#s.0.M.c.c.M.c.c.z.r#t#u.0.Z.I.5.T.R.0#v#w#x#y#s#r#q#z#o##.8QtQtQtQtQtQtQtQtQtQtQtQtQtQt",
"QtQtQtQtQtQtQtQtQtQtQtQtQt.8#.#A#B#C#D#E#F.0.c.M.c.r.z.r.c.r.0.0.v.o.1.1.c.z.r#G#H#I#J#F#E#D#C#B#A#..8QtQtQtQtQtQtQtQtQtQtQtQtQt",
"QtQtQtQtQtQtQtQtQtQtQtQtQt.8#K#L#M#k#N#I#O.0.0.0.0.0.0.0.0.0.1.o.1.1.M.M.c.z.r#P#P#P#Q#O#I#N#k#M#L#K.8QtQtQtQtQtQtQtQtQtQtQtQtQt",
"QtQtQtQtQtQtQtQtQtQtQtQtQt.8#K#R#M#k#F#I#O#Q#P#P#P#P#P#S#S.r.1.#.M.#.1.1.c.r.r#P#P#P#Q#O#I#F#k#T#R#K.8QtQtQtQtQtQtQtQtQtQtQtQtQt",
"QtQtQtQtQtQtQtQtQtQtQtQtQt.8#U#A#B#C#D#E#F#J#I#H#G#O#V#V#Q.r.0.g.0.g.0.g.r#V#O#G#H#I#J#F#E#D#C#B#A#U.8QtQtQtQtQtQtQtQtQtQtQtQtQt",
"QtQtQtQtQtQtQtQtQtQtQtQtQtQt.8###W#z#X#C#Y#y#x#w#v#Z#0#1#2#3#u#u#u#u#3#2#1#0#Z#v#w#x#y#Y#C#X#z#W##.8QtQtQtQtQtQtQtQtQtQtQtQtQtQt",
"QtQtQtQtQtQtQtQtQtQtQtQtQtQtQt.8#U#b#g#h#i#n#m#4#5#6#7#8#D#9#k#l#l#k#9#D#8#7#6#5#4#m#n#i#h#g#b#U.8QtQtQtQtQtQtQtQtQtQtQtQtQtQtQt",
"QtQtQtQtQtQtQtQtQtQtQtQtQtQtQtQt.8.8#.#a#b#c#d#ea.a#aaabacadae#j#jaeadacabaaa#a.#e#d#A#b#a#..8.8QtQtQtQtQtQtQtQtQtQtQtQtQtQtQtQt",
"QtQtQtQtQtQtQtQtQtQtQtQtQtQtQtQtQtQt.8.8.8.9#.###aaf#bagahahahaiaiahahahag#baf#a###..9.8.8.8QtQtQtQtQtQtQtQtQtQtQtQtQtQtQtQtQtQt",
"QtQtQtQtQtQtQtQtQtQtQtQtQtQtQtQtQtQtQtQtQtQt.8.8.8.8.8.8.8.8.8.8.8.8.8.8.8.8.8.8.8.8QtQtQtQtQtQtQtQtQtQtQtQtQtQtQtQtQtQtQtQtQtQt",
"QtQtQtQtQtQtQtQtQtQtQtQtQtQtQtQtQtQtQtQtQtQtQtQtQtQtQtQtQtQtQtQtQtQtQtQtQtQtQtQtQtQtQtQtQtQtQtQtQtQtQtQtQtQtQtQtQtQtQtQtQtQtQtQt",
"QtQtQtQtQtQtQtQtQtQtQtQtQtQtQtQtQtQtQtQtQtQtQtQtQtQtQtQtQtQtQtQtQtQtQtQtQtQtQtQtQtQtQtQtQtQtQtQtQtQtQtQtQtQtQtQtQtQtQtQtQtQtQtQt"};
