/* XPM */
static char *dummy[]={
"64 64 135 2",
"Qt c None",
".1 c #000000",
".2 c #000000",
".3 c #000000",
"#S c #000000",
"#i c #000000",
"#I c #000000",
".4 c #000000",
"ab c #000000",
"#. c #000000",
".5 c #000000",
"ac c #000000",
"ad c #000000",
"ae c #000000",
".6 c #000000",
"#v c #000000",
"#j c #000000",
"#U c #000000",
"## c #000000",
".7 c #000000",
"#J c #000000",
"#Q c #000000",
".8 c #000000",
"#a c #000000",
"#6 c #000000",
"#k c #000000",
"#u c #000000",
"#7 c #000000",
"#b c #000000",
"#8 c #000000",
"#w c #000000",
"#9 c #000000",
"a. c #000000",
"a# c #000000",
"aa c #000000",
"#c c #000000",
"#h c #000000",
"#l c #000000",
"#V c #000000",
"#d c #000000",
"#1 c #000000",
"#K c #000000",
"#R c #000000",
"#e c #000000",
"#m c #000000",
"#x c #000000",
"#f c #000000",
"#g c #000000",
"#n c #000000",
"#W c #000000",
"#2 c #000000",
"#3 c #000000",
"#y c #000000",
"#o c #000000",
"#4 c #000000",
"#L c #000000",
"#5 c #000000",
"#p c #000000",
"#z c #000000",
"#q c #000000",
"#r c #000000",
"#s c #000000",
"#M c #000000",
"#A c #000000",
"#t c #000000",
"#X c #000000",
"#Y c #000000",
"#B c #000000",
"#Z c #000000",
"#0 c #000000",
"#C c #000000",
"#D c #000000",
"#E c #000000",
"#F c #000000",
"#G c #000000",
"#N c #000000",
"#T c #000000",
"#O c #000000",
"#P c #000000",
".R c #005477",
".j c #00b39e",
"#H c #020101",
".Q c #060808",
".y c #061e11",
".n c #06eba8",
".S c #080014",
".p c #080808",
".# c #0c1211",
".Z c #0f0e11",
".0 c #120034",
".s c #131314",
".t c #137177",
".a c #1a2520",
".x c #1e194b",
".f c #212828",
".B c #250001",
".U c #282829",
".b c #2b3932",
".q c #313539",
".W c #35353a",
".H c #382966",
".c c #3a4a42",
".v c #3d3d3d",
".i c #444448",
".e c #47474e",
".z c #490008",
".r c #51545b",
".V c #525351",
".u c #535353",
".I c #554783",
".T c #562f1d",
".d c #585c5e",
".9 c #655324",
".P c #665e9a",
".A c #6e0023",
".M c #6f6f76",
".w c #797a7c",
".g c #798487",
".N c #822d1e",
".k c #838384",
".h c #9ca9ae",
".Y c #9e7e55",
".m c #9e99a6",
".L c #a3a3aa",
".J c #ad473d",
".l c #adb2af",
".D c #b00a35",
".F c #bea375",
".O c #c91c23",
".o c #ccd3d6",
".X c #e49e87",
".K c #e5f4ff",
".C c #e87252",
".E c #ff2f58",
".G c #ffbf75",
"QtQtQtQtQtQtQtQtQtQtQtQtQtQtQtQtQtQtQtQtQtQtQtQtQtQtQtQtQtQtQtQtQtQtQtQtQtQtQtQtQtQtQtQtQtQtQtQtQtQtQtQtQtQtQtQtQtQtQtQtQtQtQtQt",
"QtQtQtQtQtQtQtQtQtQtQtQtQtQtQtQtQtQtQtQtQtQtQtQtQtQtQtQtQtQtQtQtQtQtQtQtQtQtQtQtQtQtQtQtQtQtQtQtQtQtQtQtQtQtQtQtQtQtQtQtQtQtQtQt",
"QtQtQtQtQtQtQtQtQtQtQtQtQtQtQtQtQtQtQtQtQtQtQtQtQtQtQtQtQtQt.#.#.#QtQtQtQtQtQtQtQtQtQtQtQtQtQtQtQtQtQtQtQtQtQtQtQtQtQtQtQtQtQtQt",
"QtQtQtQtQtQtQtQtQtQtQtQtQtQtQtQtQtQtQtQtQtQtQtQtQtQtQtQt.#.a.b.a.a.a.#QtQtQtQtQtQtQtQtQtQtQtQtQtQtQtQtQtQtQtQtQtQtQtQtQtQtQtQtQt",
"QtQtQtQtQtQtQtQtQtQtQtQtQtQtQtQtQtQtQtQtQtQtQtQtQtQt.a.#.a.c.a.c.c.a.a.#.aQtQtQtQtQtQtQtQtQtQtQtQtQtQtQtQtQtQtQtQtQtQtQtQtQtQtQt",
"QtQtQtQtQtQtQtQtQtQtQtQtQtQtQtQtQtQtQtQtQtQtQtQtQtQt.#.a.d.d.b.d.d.e.a.f.#QtQtQtQtQtQtQtQtQtQtQtQtQtQtQtQtQtQtQtQtQtQtQtQtQtQtQt",
"QtQtQtQtQtQtQtQtQtQtQtQtQtQtQtQtQtQtQtQtQtQtQtQtQtQt.a.d.c.a.b.g.g.d.a.c.aQtQtQtQtQtQtQtQtQtQtQtQtQtQtQtQtQtQtQtQtQtQtQtQtQtQtQt",
"QtQtQtQtQtQtQtQtQtQtQtQtQtQtQtQtQtQtQtQtQtQtQtQtQt.#.b.c.a.a.c.g.h.d.b.a.b.#QtQtQtQtQtQtQtQtQtQtQtQtQtQtQtQtQtQtQtQtQtQtQtQtQtQt",
"QtQtQtQtQtQtQtQtQtQtQtQtQtQtQtQtQtQtQtQtQtQtQtQtQt.a.c.b.#.b.c.g.h.c.b.#.c.aQtQtQtQtQtQtQtQtQtQtQtQtQtQtQtQtQtQtQtQtQtQtQtQtQtQt",
"QtQtQtQtQtQtQtQtQtQtQtQtQtQtQtQtQtQt.i.iQtQtQtQt.a.#.b.a.#.b.c.d.g.c.f.#.b.#QtQtQt.j.k.lQtQtQtQtQtQtQtQtQtQtQtQtQtQtQtQtQtQtQtQt",
"QtQtQtQtQtQtQtQtQtQtQtQtQtQtQtQtQt.i.m.m.iQtQtQt.#.b.a.#.a.b.c.d.g.b.a.#.a.bQtQtQt.k.n.kQtQtQtQtQtQtQtQtQtQtQtQtQtQtQtQtQtQtQtQt",
"QtQtQtQtQtQtQtQtQtQtQtQtQtQtQtQtQt.i.o.p.o.pQt.#Qt.#.a.#.a.q.d.r.d.q.#.s.a.#QtQt.j.l.k.tQtQtQtQtQtQtQtQtQtQtQtQtQtQtQtQtQtQtQtQt",
"QtQtQtQtQtQtQtQtQtQtQtQtQtQtQtQtQtQt.i.o.m.iQtQtQt.#.#.#.a.a.d.c.d.q.#.#.#.#QtQt.n.j.uQtQtQtQtQtQtQtQtQtQtQtQtQtQtQtQtQtQtQtQtQt",
"QtQtQtQtQtQtQtQtQtQtQtQtQtQtQtQtQtQtQt.p.v.w.pQtQt.p.i.v.v.a.d.c.d.q.#.s.#QtQt.u.l.uQtQtQtQtQtQtQtQtQtQtQtQtQtQtQtQtQtQtQtQtQtQt",
"QtQtQtQtQtQtQtQtQtQtQtQtQtQtQtQtQtQtQtQt.p.i.m.pQtQt.x.p.m.#.c.c.d.b.#.x.xQt.k.t.uQtQtQtQtQtQtQtQtQtQtQtQtQtQtQtQtQtQtQtQtQtQtQt",
"QtQtQtQtQtQtQtQtQtQtQtQtQtQtQtQtQtQtQtQtQt.p.i.i.p.y.x.x.i.#.c.b.c.f.#.x.x.u.k.uQtQtQtQtQtQtQtQtQtQtQtQtQtQtQtQtQtQtQtQtQtQtQtQt",
"QtQtQtQtQtQtQtQtQtQtQtQtQtQtQtQtQtQtQtQtQt.z.p.m.i.p.x.x.p.#.b.v.c.f.#.l.l.l.uQtQtQtQtQtQtQtQtQtQtQtQtQtQtQtQtQtQtQtQtQtQtQtQtQt",
"QtQtQtQtQtQtQtQtQtQtQtQtQtQtQtQtQtQtQtQtQt.A.p.m.i.p.p.x.x.#.b.c.b.a.f.a.a.k.lQtQtQtQtQtQtQtQtQtQtQtQtQtQtQtQtQtQtQtQtQtQtQtQtQt",
"QtQtQtQtQtQtQtQtQtQtQtQtQtQtQtQtQtQtQtQt.B.C.D.p.i.m.w.p.x.s.a.c.b.c.b.#.k.a.lQtQtQtQtQtQtQtQtQtQtQtQtQtQtQtQtQtQtQtQtQtQtQtQtQt",
"QtQtQtQtQtQtQtQtQtQtQtQtQtQtQtQtQtQtQtQt.B.D.E.p.m.w.w.w.p.#.a.d.b.c.b.#.F.a.k.yQtQtQtQtQtQtQtQtQtQtQtQtQtQtQtQtQtQtQtQtQtQtQtQt",
"QtQtQtQtQtQtQtQtQtQtQtQtQtQtQtQtQtQtQtQt.z.D.G.p.w.m.i.w.w.#.b.d.b.c.b.a.u.u.u.HQtQtQtQtQtQtQtQtQtQtQtQtQtQtQtQtQtQtQtQtQtQtQtQt",
"QtQtQtQtQtQtQtQtQtQtQtQtQtQtQtQtQtQtQtQt.C.G.z.B.i.o.w.e.i.#.v.d.b.c.a.a.u.x.I.I.JQtQtQtQtQtQtQtQtQtQtQtQtQtQtQtQtQtQtQtQtQtQtQt",
"QtQtQtQtQtQtQtQtQtQtQtQtQtQtQtQtQtQtQtQt.z.p.A.G.p.K.m.p.p.f.c.d.b.d.a.q.H.x.J.C.IQtQtQtQtQtQtQtQtQtQtQtQtQtQtQtQtQtQtQtQtQtQtQt",
"QtQtQtQtQtQtQtQtQtQtQtQtQtQtQtQtQtQtQtQt.A.p.p.p.p.o.m.p.H.#.c.b.b.d.a.d.#.x.I.L.MQtQtQtQtQtQtQtQtQtQtQtQtQtQtQtQtQtQtQtQtQtQtQt",
"QtQtQtQtQtQtQtQtQtQtQtQtQtQtQtQtQtQtQtQt.N.O.p.i.p.i.K.p.p.#.c.a.v.d.a.c.#.b.H.P.I.HQtQtQtQtQtQtQtQtQtQtQtQtQtQtQtQtQtQtQtQtQtQt",
"QtQtQtQtQtQtQtQtQtQtQtQtQtQtQtQtQtQtQtQt.x.p.p.w.p.w.i.m.p.#.c.a.v.d.#.c.Q.b.x.I.P.HQtQtQtQtQtQtQtQtQtQtQtQtQtQtQtQtQtQtQtQtQtQt",
"QtQtQtQtQtQtQtQtQtQtQtQtQtQtQtQtQtQtQtQtQt.p.O.i.R.i.i.o.K.#.c.a.b.d.#.b.Q.b.a.I.x.HQtQtQtQtQtQtQtQtQtQtQtQtQtQtQtQtQtQtQtQtQtQt",
"QtQtQtQtQtQtQtQtQtQtQtQtQtQtQtQtQtQtQtQt.S.x.p.w.x.R.p.w.l.#.b.#.b.c.Q.b.Q.a.b.H.H.HQtQtQtQtQtQtQtQtQtQtQtQtQtQtQtQtQtQtQtQtQtQt",
"QtQtQtQtQtQtQtQtQtQtQtQtQtQtQtQtQtQtQtQt.S.x.p.i.w.p.i.l.k.#.b.#.f.c.Q.a.Q.#.b.x.x.HQtQtQtQtQtQtQtQtQtQtQtQtQtQtQtQtQtQtQtQtQtQt",
"QtQtQtQtQtQtQtQtQtQtQtQtQtQtQtQtQtQtQtQt.x.x.x.x.p.r.l.k.f.Q.b.f.f.b.Q.a.#.s.q.M.M.eQtQtQtQtQtQtQtQtQtQtQtQtQtQtQtQtQtQtQtQtQtQt",
"QtQtQtQtQtQtQtQtQtQtQtQtQtQtQtQtQtQtQtQt.e.L.L.e.T.p.k.#.#.Q.b.a.#.c.Q.p.Q.Q.b.x.x.qQtQtQtQtQtQtQtQtQtQtQtQtQtQtQtQtQtQtQtQtQtQt",
"QtQtQtQtQtQtQtQtQtQtQtQtQtQtQtQtQtQtQtQt.q.x.x.q.T.l.#.a.u.Q.a.b.#.b.#.Q.Q.m.a.s.b.xQtQtQtQtQtQtQtQtQtQtQtQtQtQtQtQtQtQtQtQtQtQt",
"QtQtQtQtQtQtQtQtQtQtQtQtQtQtQtQtQtQtQtQt.x.U.U.U.l.b.#.u.T.Q.#.b.#.b.#.Q.K.K.a.i.v.sQtQtQtQtQtQtQtQtQtQtQtQtQtQtQtQtQtQtQtQtQtQt",
"QtQtQtQtQtQtQtQtQtQtQtQtQtQtQtQtQtQtQtQt.U.V.v.V.W.#.u.x.#.#.#.b.#.a.#.K.p.K.o.m.i.vQtQtQtQtQtQtQtQtQtQtQtQtQtQtQtQtQtQtQtQtQtQt",
"QtQtQtQtQtQtQtQtQtQtQtQtQtQtQtQtQtQtQtQt.U.g.v.l.#.a.u.x.x.y.#.b.#.a.#.K.i.p.K.K.m.iQtQtQtQtQtQtQtQtQtQtQtQtQtQtQtQtQtQtQtQtQtQt",
"QtQtQtQtQtQtQtQtQtQtQtQtQtQtQtQtQtQtQtQt.U.X.l.b.a.u.x.x.y.x.#.b.#.a.Q.o.K.p.i.K.o.o.mQtQtQtQtQtQtQtQtQtQtQtQtQtQtQtQtQtQtQtQtQt",
"QtQtQtQtQtQtQtQtQtQtQtQtQtQtQtQtQtQtQtQtQt.l.b.#.u.x.x.y.y.x.a.a.#.#.v.m.K.i.i.o.K.K.K.wQtQtQtQtQtQtQtQtQtQtQtQtQtQtQtQtQtQtQtQt",
"QtQtQtQtQtQtQtQtQtQtQtQtQtQtQtQtQtQtQtQtQt.b.#.a.u.x.H.y.q.x.x.#.s.Q.q.i.o.o.p.p.i.m.K.m.wQtQtQtQtQtQtQtQtQtQtQtQtQtQtQtQtQtQtQt",
"QtQtQtQtQtQtQtQtQtQtQtQtQtQtQtQtQtQtQtQt.l.#.a.u.x.x.H.y.q.x.H.#.#.H.H.i.o.K.i.p.p.p.m.K.m.wQtQtQtQtQtQtQtQtQtQtQtQtQtQtQtQtQtQt",
"QtQtQtQtQtQtQtQtQtQtQtQtQtQtQtQtQtQtQt.l.b.a.u.S.x.x.H.q.x.x.H.x.#.I.H.i.m.K.m.pQt.p.p.K.K.wQtQtQtQtQtQtQtQtQtQtQtQtQtQtQtQtQtQt",
"QtQtQtQtQtQtQtQtQtQtQtQtQtQtQtQtQtQt.k.b.#.u.S.S.x.x.H.q.x.x.H.x.H.I.H.q.w.o.K.i.p.p.p.m.K.o.iQtQtQtQtQtQtQtQtQtQtQtQtQtQtQtQtQt",
"QtQtQtQtQtQtQtQtQtQtQtQtQtQtQtQtQtQt.b.Y.a.u.S.x.x.x.H.q.x.x.H.x.H.I.H.q.w.o.K.m.p.p.p.w.o.K.iQtQtQtQtQtQtQtQtQtQtQtQtQtQtQtQtQt",
"QtQtQtQtQtQtQtQtQtQtQtQtQtQtQtQtQt.b.Y.a.VQt.S.x.x.x.q.x.x.x.H.H.H.I.H.q.H.i.o.K.K.m.w.w.o.K.iQtQtQtQtQtQtQtQtQtQtQtQtQtQtQtQtQt",
"QtQtQtQtQtQtQtQtQtQtQtQtQtQtQtQtQt.a.a.uQt.S.S.x.x.H.q.x.x.x.H.H.I.I.H.q.H.I.i.m.K.K.o.m.o.K.w.iQtQtQtQtQtQtQtQtQtQtQtQtQtQtQtQt",
"QtQtQtQtQtQtQtQtQtQtQtQtQtQtQtQt.k.a.uQtQt.S.x.x.x.H.q.x.x.x.H.H.I.I.I.q.H.I.H.i.w.m.K.o.o.K.m.iQtQtQtQtQtQtQtQtQtQtQtQtQtQtQtQt",
"QtQtQtQtQtQtQtQtQtQtQtQtQtQtQtQt.u.uQtQt.S.Z.x.x.x.H.q.x.x.H.H.H.I.P.I.H.q.P.H.H.i.w.m.K.K.K.o.iQtQtQtQtQtQtQtQtQtQtQtQtQtQtQtQt",
"QtQtQtQtQtQtQtQtQtQtQtQtQtQtQt.k.uQtQtQt.S.0.x.x.x.q.H.x.x.H.H.H.I.P.I.H.q.P.H.H.H.i.w.o.o.K.o.iQtQtQtQtQtQtQtQtQtQtQtQtQtQtQtQt",
"QtQtQtQtQtQtQtQtQtQtQtQtQtQtQt.uQtQtQtQt.S.S.x.x.x.q.I.x.x.H.H.H.I.P.I.H.q.P.I.H.H.x.x.i.w.m.o.wQtQtQtQtQtQtQtQtQtQtQtQtQtQtQtQt",
"QtQtQtQtQtQtQtQtQtQtQtQtQtQtQtQtQtQtQtQtQt.S.x.x.H.q.I.x.x.H.H.H.I.P.I.H.q.P.I.H.H.x.xQt.i.w.m.iQtQtQtQtQtQtQtQtQtQtQtQtQtQtQtQt",
"QtQtQtQtQtQtQtQtQtQtQtQtQtQtQtQtQtQt.1.1.1.2.S.x.H.q.I.x.x.H.H.H.I.P.P.H.q.P.I.H.H.H.x.Z.1.1.i.iQtQtQtQtQtQtQtQtQtQtQtQtQtQtQtQt",
"QtQtQtQtQtQtQtQtQtQtQtQtQtQtQtQt.1.1.3.4.5.6.7.8.H.q.I.x.x.H.H.H.I.P.P.I.9.P.P.I.H.H.x.5.4.3.1.1QtQtQtQtQtQtQtQtQtQtQtQtQtQtQtQt",
"QtQtQtQtQtQtQtQtQtQtQtQtQtQtQt.1.3#.###a#b#c#d#e#f#g.H.x.x.H.H.I.I.P.P.I.9.P.P.I.x.x#h#b#a###..3.1QtQtQtQtQtQtQtQtQtQtQtQtQtQtQt",
"QtQtQtQtQtQtQtQtQtQtQtQtQtQt.1#i#j#k#l#m#n#o#p#q#r#s#t.Q.x.H.H.I.I.P.P.I.9.P.I.H#q#p#o#n#m#l#u#j#i.1QtQtQtQtQtQtQtQtQtQtQtQtQtQt",
"QtQtQtQtQtQtQtQtQtQtQtQtQt.1.3#v#w#x#y#z#A#B#C#D#E#F#G#G#H#H#H#H#H#H.s.U#H.Q#F#E#D#C#B#A#z#y#x#w#v.3.1QtQtQtQtQtQtQtQtQtQtQtQtQt",
"QtQtQtQtQtQtQtQtQtQtQtQtQt.1#I#J#K#L#M#C#F#N#O#O#O#O#O#P#P#P#P#H.k.w.w.r.U#H#O#O#O#O#N#F#C#M#L#K#J#I.1QtQtQtQtQtQtQtQtQtQtQtQtQt",
"QtQtQtQtQtQtQtQtQtQtQtQtQt.1#I#Q#K#L#A#C#F#N#O#O#O#O#O#P#P#P#P#H.r.r.r.r.U#H#O#O#O#O#N#F#C#A#L#R#Q#I.1QtQtQtQtQtQtQtQtQtQtQtQtQt",
"QtQtQtQtQtQtQtQtQtQtQtQtQt.1#S#v#w#x#y#z#A#B#C#D#E#F#G#G#N#T#T#H#H#H#H#H#H#H#F#E#D#C#B#A#z#y#x#w#v#S.1QtQtQtQtQtQtQtQtQtQtQtQtQt",
"QtQtQtQtQtQtQtQtQtQtQtQtQtQt.1#i#U#u#V#x#W#o#p#q#r#s#t#X#Y#Z#0#0#0#0#Z#Y#X#t#s#r#q#p#o#W#x#V#u#U#i.1QtQtQtQtQtQtQtQtQtQtQtQtQtQt",
"QtQtQtQtQtQtQtQtQtQtQtQtQtQtQt.1#S.5###a#b#h#1#e#f#g#2#3#y#4#L#5#5#L#4#y#3#2#g#f#e#1#h#b#a##.5#S.1QtQtQtQtQtQtQtQtQtQtQtQtQtQtQt",
"QtQtQtQtQtQtQtQtQtQtQtQtQtQtQtQt.1.1.3.4.5.6.7.8#6#7#8#9a.a#aa#c#caaa#a.#9#8#7#6.8.7#v.5.4.3.1.1QtQtQtQtQtQtQtQtQtQtQtQtQtQtQtQt",
"QtQtQtQtQtQtQtQtQtQtQtQtQtQtQtQtQtQt.1.1.1.2.3#i.4ab.5acadadadaeaeadadadac.5ab.4#i.3.2.1.1.1QtQtQtQtQtQtQtQtQtQtQtQtQtQtQtQtQtQt",
"QtQtQtQtQtQtQtQtQtQtQtQtQtQtQtQtQtQtQtQtQtQt.1.1.1.1.1.1.1.1.1.1.1.1.1.1.1.1.1.1.1.1QtQtQtQtQtQtQtQtQtQtQtQtQtQtQtQtQtQtQtQtQtQt",
"QtQtQtQtQtQtQtQtQtQtQtQtQtQtQtQtQtQtQtQtQtQtQtQtQtQtQtQtQtQtQtQtQtQtQtQtQtQtQtQtQtQtQtQtQtQtQtQtQtQtQtQtQtQtQtQtQtQtQtQtQtQtQtQt",
"QtQtQtQtQtQtQtQtQtQtQtQtQtQtQtQtQtQtQtQtQtQtQtQtQtQtQtQtQtQtQtQtQtQtQtQtQtQtQtQtQtQtQtQtQtQtQtQtQtQtQtQtQtQtQtQtQtQtQtQtQtQtQtQt"};
