/* XPM */
static char *dummy[]={
"64 64 131 2",
"Qt c None",
".Y c #000000",
".0 c #000000",
".Z c #000000",
"#R c #000000",
"#g c #000000",
"#I c #000000",
".1 c #000000",
"#9 c #000000",
".8 c #000000",
".7 c #000000",
"a. c #000000",
"a# c #000000",
"aa c #000000",
".6 c #000000",
"#u c #000000",
"#h c #000000",
"#T c #000000",
".9 c #000000",
".5 c #000000",
"#J c #000000",
"#P c #000000",
".4 c #000000",
"#. c #000000",
".3 c #000000",
"#i c #000000",
"#t c #000000",
"#2 c #000000",
"## c #000000",
"#3 c #000000",
"#v c #000000",
"#4 c #000000",
"#5 c #000000",
"#6 c #000000",
"#7 c #000000",
"#8 c #000000",
"#f c #000000",
"#j c #000000",
"#U c #000000",
"#e c #000000",
"#K c #000000",
"#Q c #000000",
"#d c #000000",
"#k c #000000",
"#w c #000000",
"#c c #000000",
"#b c #000000",
"#l c #000000",
"#V c #000000",
"#a c #000000",
"#Z c #000000",
"#x c #000000",
"#m c #000000",
"#0 c #000000",
"#L c #000000",
"#1 c #000000",
"#n c #000000",
"#y c #000000",
"#s c #000000",
"#r c #000000",
"#q c #000000",
"#M c #000000",
"#z c #000000",
"#p c #000000",
"#o c #000000",
"#W c #000000",
"#A c #000000",
"#X c #000000",
"#Y c #000000",
"#B c #000000",
"#C c #000000",
"#D c #000000",
"#H c #000000",
"#G c #000000",
"#F c #000000",
"#S c #000000",
"#N c #000000",
"#O c #000000",
".R c #005477",
".k c #00b39e",
"#E c #020101",
".Q c #060808",
".C c #061e11",
".o c #06eba8",
".K c #080014",
".q c #080808",
".# c #0c1211",
".s c #131314",
".t c #137177",
".a c #1a2520",
".y c #1e194b",
".f c #212828",
".x c #250001",
".U c #282829",
".b c #2b3932",
".r c #313539",
".X c #35353a",
".N c #382966",
".c c #3a4a42",
".v c #3d3d3d",
".j c #444448",
".e c #47474e",
".D c #490008",
".h c #51545b",
".J c #525351",
".u c #535353",
".E c #554783",
".T c #562f1d",
".d c #585c5e",
".2 c #655324",
".L c #665e9a",
".H c #6e0023",
".M c #6f6f76",
".P c #72472d",
".w c #797a7c",
".g c #798487",
".l c #838384",
".i c #9ca9ae",
".W c #9e7e55",
".n c #9e99a6",
".S c #a3a3aa",
".G c #ad473d",
".m c #adb2af",
".A c #b00a35",
".V c #b14432",
".B c #bea375",
".O c #c91c23",
".p c #ccd3d6",
".I c #e5f4ff",
".z c #e87252",
".F c #ffbf75",
"QtQtQtQtQtQtQtQtQtQtQtQtQtQtQtQtQtQtQtQtQtQtQtQtQtQtQtQtQtQtQtQtQtQtQtQtQtQtQtQtQtQtQtQtQtQtQtQtQtQtQtQtQtQtQtQtQtQtQtQtQtQtQtQt",
"QtQtQtQtQtQtQtQtQtQtQtQtQtQtQtQtQtQtQtQtQtQtQtQtQtQtQtQtQtQtQtQtQtQtQtQtQtQtQtQtQtQtQtQtQtQtQtQtQtQtQtQtQtQtQtQtQtQtQtQtQtQtQtQt",
"QtQtQtQtQtQtQtQtQtQtQtQtQtQtQtQtQtQtQtQtQtQtQtQtQtQtQtQtQtQt.#.#.#QtQtQtQtQtQtQtQtQtQtQtQtQtQtQtQtQtQtQtQtQtQtQtQtQtQtQtQtQtQtQt",
"QtQtQtQtQtQtQtQtQtQtQtQtQtQtQtQtQtQtQtQtQtQtQtQtQtQtQtQt.#.a.b.a.a.a.#QtQtQtQtQtQtQtQtQtQtQtQtQtQtQtQtQtQtQtQtQtQtQtQtQtQtQtQtQt",
"QtQtQtQtQtQtQtQtQtQtQtQtQtQtQtQtQtQtQtQtQtQtQtQtQtQt.a.#.a.c.a.c.c.a.a.#.aQtQtQtQtQtQtQtQtQtQtQtQtQtQtQtQtQtQtQtQtQtQtQtQtQtQtQt",
"QtQtQtQtQtQtQtQtQtQtQtQtQtQtQtQtQtQtQtQtQtQtQtQtQtQt.#.a.d.d.b.d.d.e.a.f.#QtQtQtQtQtQtQtQtQtQtQtQtQtQtQtQtQtQtQtQtQtQtQtQtQtQtQt",
"QtQtQtQtQtQtQtQtQtQtQtQtQtQtQtQtQtQtQtQtQtQtQtQtQtQt.a.d.c.a.b.g.g.h.a.c.aQtQtQtQtQtQtQtQtQtQtQtQtQtQtQtQtQtQtQtQtQtQtQtQtQtQtQt",
"QtQtQtQtQtQtQtQtQtQtQtQtQtQtQtQtQtQtQtQtQtQtQtQtQt.#.b.c.a.a.c.i.g.h.b.a.b.#QtQtQtQtQtQtQtQtQtQtQtQtQtQtQtQtQtQtQtQtQtQtQtQtQtQt",
"QtQtQtQtQtQtQtQtQtQtQtQtQtQtQtQtQtQtQtQtQtQtQtQtQt.a.c.b.#.b.c.i.g.c.b.#.c.aQtQtQtQtQtQtQtQtQtQtQtQtQtQtQtQtQtQtQtQtQtQtQtQtQtQt",
"QtQtQtQtQtQtQtQtQtQtQtQtQtQtQtQtQtQt.j.jQtQtQtQt.a.#.b.a.#.b.c.g.d.c.f.#.b.#QtQtQt.k.l.mQtQtQtQtQtQtQtQtQtQtQtQtQtQtQtQtQtQtQtQt",
"QtQtQtQtQtQtQtQtQtQtQtQtQtQtQtQtQt.j.n.n.jQtQtQt.#.b.a.#.a.b.c.g.h.b.a.#.a.bQtQtQt.l.o.lQtQtQtQtQtQtQtQtQtQtQtQtQtQtQtQtQtQtQtQt",
"QtQtQtQtQtQtQtQtQtQtQtQtQtQtQtQtQt.j.p.q.p.qQt.#Qt.#.a.#.a.r.d.g.c.b.#.s.a.#QtQt.k.m.l.tQtQtQtQtQtQtQtQtQtQtQtQtQtQtQtQtQtQtQtQt",
"QtQtQtQtQtQtQtQtQtQtQtQtQtQtQtQtQtQt.j.p.n.jQtQtQt.#.#.#.a.a.d.d.e.b.#.#.#.#QtQt.o.k.uQtQtQtQtQtQtQtQtQtQtQtQtQtQtQtQtQtQtQtQtQt",
"QtQtQtQtQtQtQtQtQtQtQtQtQtQtQtQtQtQtQt.q.v.w.qQtQt.q.j.v.v.a.d.c.d.r.#.s.#QtQt.u.m.uQtQtQtQtQtQtQtQtQtQtQtQtQtQtQtQtQtQtQtQtQtQt",
"QtQtQtQtQtQtQtQtQtQtQtQtQtQtQtQtQtQtQtQt.q.j.n.q.xQt.y.q.n.#.d.b.d.b.#.y.yQt.l.t.uQtQtQtQtQtQtQtQtQtQtQtQtQtQtQtQtQtQtQtQtQtQtQt",
"QtQtQtQtQtQtQtQtQtQtQtQtQtQtQtQtQtQtQtQtQt.q.v.j.q.y.y.y.j.#.c.b.d.a.#.y.y.u.l.uQtQtQtQtQtQtQtQtQtQtQtQtQtQtQtQtQtQtQtQtQtQtQtQt",
"QtQtQtQtQtQtQtQtQtQtQtQtQtQtQtQtQtQtQtQtQtQt.q.n.j.q.y.y.q.#.b.b.c.f.#.m.m.m.uQtQtQtQtQtQtQtQtQtQtQtQtQtQtQtQtQtQtQtQtQtQtQtQtQt",
"QtQtQtQtQtQtQtQtQtQtQtQtQtQtQtQtQtQtQtQtQtQt.q.n.j.q.q.y.y.#.b.c.b.f.a.a.a.l.mQtQtQtQtQtQtQtQtQtQtQtQtQtQtQtQtQtQtQtQtQtQtQtQtQt",
"QtQtQtQtQtQtQtQtQtQtQtQtQtQtQtQtQtQtQtQtQt.x.z.q.j.n.w.q.#.a.c.b.a.b.#.a.l.a.mQtQtQtQtQtQtQtQtQtQtQtQtQtQtQtQtQtQtQtQtQtQtQtQtQt",
"QtQtQtQtQtQtQtQtQtQtQtQtQtQtQtQtQtQtQtQtQt.x.A.q.n.w.w.w.#.a.d.b.a.c.#.B.B.a.l.CQtQtQtQtQtQtQtQtQtQtQtQtQtQtQtQtQtQtQtQtQtQtQtQt",
"QtQtQtQtQtQtQtQtQtQtQtQtQtQtQtQtQtQtQtQtQt.D.A.q.w.n.j.w.#.b.d.b.v.c.a.B.u.u.u.CQtQtQtQtQtQtQtQtQtQtQtQtQtQtQtQtQtQtQtQtQtQtQtQt",
"QtQtQtQtQtQtQtQtQtQtQtQtQtQtQtQtQtQtQtQtQt.z.z.D.j.p.w.v.#.v.d.b.c.b.a.u.u.E.F.z.GQtQtQtQtQtQtQtQtQtQtQtQtQtQtQtQtQtQtQtQtQtQtQt",
"QtQtQtQtQtQtQtQtQtQtQtQtQtQtQtQtQtQtQtQtQt.q.H.H.q.I.n.q.f.v.d.b.d.a.b.J.K.z.L.E.#QtQtQtQtQtQtQtQtQtQtQtQtQtQtQtQtQtQtQtQtQtQtQt",
"QtQtQtQtQtQtQtQtQtQtQtQtQtQtQtQtQtQtQtQtQt.q.q.q.q.p.n.#.a.c.d.a.d.#.b.p.j.E.M.L.NQtQtQtQtQtQtQtQtQtQtQtQtQtQtQtQtQtQtQtQtQtQtQt",
"QtQtQtQtQtQtQtQtQtQtQtQtQtQtQtQtQtQtQtQtQt.O.q.j.q.j.I.#.b.c.d.a.c.#.b.p.j.P.P.L.E.#QtQtQtQtQtQtQtQtQtQtQtQtQtQtQtQtQtQtQtQtQtQt",
"QtQtQtQtQtQtQtQtQtQtQtQtQtQtQtQtQtQtQtQtQt.q.q.w.q.w.j.a.b.b.d.#.c.Q.b.a.n.j.P.L.L.aQtQtQtQtQtQtQtQtQtQtQtQtQtQtQtQtQtQtQtQtQtQt",
"QtQtQtQtQtQtQtQtQtQtQtQtQtQtQtQtQtQtQtQtQt.q.O.j.R.j.j.b.a.b.c.#.b.Q.b.a.I.w.N.L.L.yQtQtQtQtQtQtQtQtQtQtQtQtQtQtQtQtQtQtQtQtQtQt",
"QtQtQtQtQtQtQtQtQtQtQtQtQtQtQtQtQtQtQtQtQt.N.q.w.y.R.q.b.#.b.c.Q.b.Q.a.b.I.n.y.E.N.y.KQtQtQtQtQtQtQtQtQtQtQtQtQtQtQtQtQtQtQtQtQt",
"QtQtQtQtQtQtQtQtQtQtQtQtQtQtQtQtQtQtQtQtQt.N.q.e.w.q.j.Q.b.#.f.c.Q.a.Q.b.I.p.j.E.N.y.KQtQtQtQtQtQtQtQtQtQtQtQtQtQtQtQtQtQtQtQtQt",
"QtQtQtQtQtQtQtQtQtQtQtQtQtQtQtQtQtQtQtQtQt.e.M.M.q.h.m.Q.b.f.a.b.Q.a.Q.b.p.w.w.y.y.y.yQtQtQtQtQtQtQtQtQtQtQtQtQtQtQtQtQtQtQtQtQt",
"QtQtQtQtQtQtQtQtQtQtQtQtQtQtQtQtQtQtQtQtQt.r.y.y.a.q.l.Q.b.a.#.b.Q.q.Q.b.j.w.j.e.S.S.eQtQtQtQtQtQtQtQtQtQtQtQtQtQtQtQtQtQtQtQtQt",
"QtQtQtQtQtQtQtQtQtQtQtQtQtQtQtQtQtQtQtQtQt.y.b.s.T.m.#.Q.a.b.#.b.#.Q.Q.a.I.n.j.r.y.y.rQtQtQtQtQtQtQtQtQtQtQtQtQtQtQtQtQtQtQtQtQt",
"QtQtQtQtQtQtQtQtQtQtQtQtQtQtQtQtQtQtQtQtQt.s.v.U.m.b.#.Q.#.b.#.b.#.Q.I.a.I.I.w.j.U.U.yQtQtQtQtQtQtQtQtQtQtQtQtQtQtQtQtQtQtQtQtQt",
"QtQtQtQtQtQtQtQtQtQtQtQtQtQtQtQtQtQtQtQtQt.v.U.V.b.#.u.T.#.b.#.a.#.j.p.I.q.I.p.n.j.J.UQtQtQtQtQtQtQtQtQtQtQtQtQtQtQtQtQtQtQtQtQt",
"QtQtQtQtQtQtQtQtQtQtQtQtQtQtQtQtQtQtQtQtQt.s.V.m.#.a.u.y.#.b.#.a.#.j.w.I.j.q.I.I.n.j.UQtQtQtQtQtQtQtQtQtQtQtQtQtQtQtQtQtQtQtQtQt",
"QtQtQtQtQtQtQtQtQtQtQtQtQtQtQtQtQtQtQtQtQtQt.m.b.a.u.N.y.#.b.#.a.Q.y.w.p.I.q.j.I.p.p.nQtQtQtQtQtQtQtQtQtQtQtQtQtQtQtQtQtQtQtQtQt",
"QtQtQtQtQtQtQtQtQtQtQtQtQtQtQtQtQtQtQtQtQt.m.b.#.u.y.N.y.C.a.#.s.y.y.e.n.I.j.j.p.I.I.I.wQtQtQtQtQtQtQtQtQtQtQtQtQtQtQtQtQtQtQtQt",
"QtQtQtQtQtQtQtQtQtQtQtQtQtQtQtQtQtQtQtQtQt.b.#.a.u.y.N.y.r.#.#.Q.y.y.r.j.p.p.q.q.j.n.I.n.wQtQtQtQtQtQtQtQtQtQtQtQtQtQtQtQtQtQtQt",
"QtQtQtQtQtQtQtQtQtQtQtQtQtQtQtQtQtQtQtQt.m.#.a.u.y.N.N.r.N.#.#.y.N.y.r.j.p.I.j.q.q.q.n.I.n.wQtQtQtQtQtQtQtQtQtQtQtQtQtQtQtQtQtQt",
"QtQtQtQtQtQtQtQtQtQtQtQtQtQtQtQtQtQtQt.m.b.a.u.K.y.N.N.r.N.E.#.y.N.y.y.j.n.I.n.qQt.q.q.I.I.wQtQtQtQtQtQtQtQtQtQtQtQtQtQtQtQtQtQt",
"QtQtQtQtQtQtQtQtQtQtQtQtQtQtQtQtQtQt.l.b.#.JQt.y.y.N.N.r.N.E.N.y.N.y.y.r.w.p.I.j.q.q.q.n.I.p.jQtQtQtQtQtQtQtQtQtQtQtQtQtQtQtQtQt",
"QtQtQtQtQtQtQtQtQtQtQtQtQtQtQtQtQtQt.b.W.a.JQt.y.N.N.N.r.N.E.N.y.N.y.y.X.w.p.I.n.q.q.q.w.p.I.jQtQtQtQtQtQtQtQtQtQtQtQtQtQtQtQtQt",
"QtQtQtQtQtQtQtQtQtQtQtQtQtQtQtQtQt.b.W.a.uQt.K.y.N.N.N.r.N.E.N.N.N.y.y.y.r.j.p.I.I.n.w.w.p.I.jQtQtQtQtQtQtQtQtQtQtQtQtQtQtQtQtQt",
"QtQtQtQtQtQtQtQtQtQtQtQtQtQtQtQtQt.a.a.uQtQt.y.y.N.E.N.r.N.E.E.N.N.y.y.y.r.N.j.n.I.I.p.n.p.I.w.jQtQtQtQtQtQtQtQtQtQtQtQtQtQtQtQt",
"QtQtQtQtQtQtQtQtQtQtQtQtQtQtQtQt.l.a.uQtQt.K.y.N.N.E.N.r.E.E.E.N.N.y.y.y.r.N.y.j.w.n.I.p.p.I.n.jQtQtQtQtQtQtQtQtQtQtQtQtQtQtQtQt",
"QtQtQtQtQtQtQtQtQtQtQtQtQtQtQtQt.u.uQtQtQt.y.y.N.N.L.r.N.E.L.E.N.N.N.y.y.r.N.y.y.j.w.n.I.I.I.p.jQtQtQtQtQtQtQtQtQtQtQtQtQtQtQtQt",
"QtQtQtQtQtQtQtQtQtQtQtQtQtQtQt.l.uQtQtQt.K.y.N.N.N.L.r.N.E.L.E.N.N.N.y.y.N.r.y.y.y.j.w.p.p.I.p.jQtQtQtQtQtQtQtQtQtQtQtQtQtQtQtQt",
"QtQtQtQtQtQtQtQtQtQtQtQtQtQtQt.uQtQtQtQt.y.y.N.N.E.L.r.N.E.L.E.N.N.N.y.y.E.r.y.y.y.K.K.j.w.n.p.wQtQtQtQtQtQtQtQtQtQtQtQtQtQtQtQt",
"QtQtQtQtQtQtQtQtQtQtQtQtQtQtQtQtQtQtQtQt.y.y.N.N.E.L.r.N.E.L.E.N.N.N.y.y.E.r.N.y.y.KQtQt.j.w.n.jQtQtQtQtQtQtQtQtQtQtQtQtQtQtQtQt",
"QtQtQtQtQtQtQtQtQtQtQtQtQtQtQtQtQtQt.Y.K.y.N.N.N.E.L.r.N.L.L.E.N.N.N.y.y.E.r.N.y.K.Z.0.Y.Y.Y.j.jQtQtQtQtQtQtQtQtQtQtQtQtQtQtQtQt",
"QtQtQtQtQtQtQtQtQtQtQtQtQtQtQtQt.Y.Y.Z.1.y.N.N.E.L.L.2.E.L.L.E.N.N.N.y.y.E.r.N.3.4.5.6.7.1.Z.Y.YQtQtQtQtQtQtQtQtQtQtQtQtQtQtQtQt",
"QtQtQtQtQtQtQtQtQtQtQtQtQtQtQt.Y.Z.8.9#.##.y.y.E.L.L.2.E.L.L.E.E.N.N.y.y.N#a#b#c#d#e#f###..9.8.Z.YQtQtQtQtQtQtQtQtQtQtQtQtQtQtQt",
"QtQtQtQtQtQtQtQtQtQtQtQtQtQt.Y#g#h#i#j#k#l#m#n.N.E.L.2.E.L.L.E.E.N.N.y.Q#o#p#q#r#s#n#m#l#k#j#t#h#g.YQtQtQtQtQtQtQtQtQtQtQtQtQtQt",
"QtQtQtQtQtQtQtQtQtQtQtQtQt.Y.Z#u#v#w#x#y#z#A#B#C#D.Q#E.U.s#E#E#E#E#E#E#F#G#G#H#D#C#B#A#z#y#x#w#v#u.Z.YQtQtQtQtQtQtQtQtQtQtQtQtQt",
"QtQtQtQtQtQtQtQtQtQtQtQtQt.Y#I#J#K#L#M#B#H#F#N#N#N#E.U.h.w.w.l#E#O#O#O#O#O#N#N#N#N#N#F#H#B#M#L#K#J#I.YQtQtQtQtQtQtQtQtQtQtQtQtQt",
"QtQtQtQtQtQtQtQtQtQtQtQtQt.Y#I#P#K#L#z#B#H#F#N#N#N#E.U.h.h.h.h#E#O#O#O#O#O#N#N#N#N#N#F#H#B#z#L#Q#P#I.YQtQtQtQtQtQtQtQtQtQtQtQtQt",
"QtQtQtQtQtQtQtQtQtQtQtQtQt.Y#R#u#v#w#x#y#z#A#B#C#D#E#E#E#E#E#E#E#N#S#S#F#G#G#H#D#C#B#A#z#y#x#w#v#u#R.YQtQtQtQtQtQtQtQtQtQtQtQtQt",
"QtQtQtQtQtQtQtQtQtQtQtQtQtQt.Y#g#T#t#U#w#V#m#n#s#r#q#p#o#W#X#Y#Y#Y#Y#X#W#o#p#q#r#s#n#m#V#w#U#t#T#g.YQtQtQtQtQtQtQtQtQtQtQtQtQtQt",
"QtQtQtQtQtQtQtQtQtQtQtQtQtQtQt.Y#R.7.9#.###f#e#d#c#b#a#Z#x#0#L#1#1#L#0#x#Z#a#b#c#d#e#f###..9.7#R.YQtQtQtQtQtQtQtQtQtQtQtQtQtQtQt",
"QtQtQtQtQtQtQtQtQtQtQtQtQtQtQtQt.Y.Y.Z.1.7.6.5.4.3#2#3#4#5#6#7#8#8#7#6#5#4#3#2.3.4.5#u.7.1.Z.Y.YQtQtQtQtQtQtQtQtQtQtQtQtQtQtQtQt",
"QtQtQtQtQtQtQtQtQtQtQtQtQtQtQtQtQtQt.Y.Y.Y.0.Z#g.1#9.7a.a#a#a#aaaaa#a#a#a..7#9.1#g.Z.0.Y.Y.YQtQtQtQtQtQtQtQtQtQtQtQtQtQtQtQtQtQt",
"QtQtQtQtQtQtQtQtQtQtQtQtQtQtQtQtQtQtQtQtQtQt.Y.Y.Y.Y.Y.Y.Y.Y.Y.Y.Y.Y.Y.Y.Y.Y.Y.Y.Y.YQtQtQtQtQtQtQtQtQtQtQtQtQtQtQtQtQtQtQtQtQtQt",
"QtQtQtQtQtQtQtQtQtQtQtQtQtQtQtQtQtQtQtQtQtQtQtQtQtQtQtQtQtQtQtQtQtQtQtQtQtQtQtQtQtQtQtQtQtQtQtQtQtQtQtQtQtQtQtQtQtQtQtQtQtQtQtQt",
"QtQtQtQtQtQtQtQtQtQtQtQtQtQtQtQtQtQtQtQtQtQtQtQtQtQtQtQtQtQtQtQtQtQtQtQtQtQtQtQtQtQtQtQtQtQtQtQtQtQtQtQtQtQtQtQtQtQtQtQtQtQtQtQt"};
