/* XPM */
static char *dummy[]={
"64 64 139 2",
"Qt c None",
".6 c #000000",
".7 c #000000",
".8 c #000000",
"#S c #000000",
"#j c #000000",
"#J c #000000",
".9 c #000000",
"af c #000000",
"#c c #000000",
"#. c #000000",
"ag c #000000",
"ah c #000000",
"ai c #000000",
"## c #000000",
"#x c #000000",
"#k c #000000",
"#V c #000000",
"#d c #000000",
"#a c #000000",
"#K c #000000",
"#Q c #000000",
"#b c #000000",
"#e c #000000",
"a. c #000000",
"#l c #000000",
"#w c #000000",
"a# c #000000",
"#f c #000000",
"aa c #000000",
"#y c #000000",
"ab c #000000",
"ac c #000000",
"ad c #000000",
"ae c #000000",
"#g c #000000",
"#i c #000000",
"#m c #000000",
"#W c #000000",
"#h c #000000",
"#2 c #000000",
"#L c #000000",
"#R c #000000",
"#3 c #000000",
"#n c #000000",
"#z c #000000",
"#4 c #000000",
"#5 c #000000",
"#o c #000000",
"#X c #000000",
"#6 c #000000",
"#7 c #000000",
"#A c #000000",
"#p c #000000",
"#8 c #000000",
"#M c #000000",
"#9 c #000000",
"#q c #000000",
"#B c #000000",
"#Y c #000000",
"#Z c #000000",
"#0 c #000000",
"#N c #000000",
"#C c #000000",
"#1 c #000000",
"#v c #000000",
"#u c #000000",
"#D c #000000",
"#t c #000000",
"#s c #000000",
"#r c #000000",
"#E c #000000",
"#T c #000000",
"#U c #000000",
"#O c #000000",
"#I c #000000",
"#H c #000000",
"#G c #000000",
"#F c #000000",
"#P c #000000",
".s c #00b39e",
".0 c #020101",
".g c #060808",
".A c #061e11",
".r c #06eba8",
".F c #080014",
".u c #080808",
".d c #0c1211",
".U c #0f0e11",
".V c #120034",
".e c #131314",
".q c #137177",
".v c #140500",
".a c #1a2520",
".G c #1e194b",
".h c #212828",
".o c #26252c",
".Y c #282829",
".c c #2b3932",
".I c #313539",
".H c #382966",
".# c #3a4a42",
".i c #3d3d3d",
".K c #444448",
".j c #463626",
".B c #47474e",
".W c #4a2121",
".O c #51545b",
".1 c #525351",
".x c #535353",
".J c #554783",
".T c #562f1d",
".E c #563521",
".b c #585c5e",
".2 c #655324",
".N c #665e9a",
".t c #6d2029",
".P c #6f6f76",
".S c #72472d",
".z c #7291ea",
".X c #797a7c",
".f c #798487",
".D c #7a603f",
".m c #838384",
".5 c #8b682a",
".R c #946c45",
".C c #9e7e55",
".3 c #9e99a6",
".Z c #a3a3aa",
".L c #ad473d",
".n c #adb2af",
".w c #b14432",
".4 c #ccd3d6",
".l c #e49e87",
".y c #e5f4ff",
".k c #e67160",
".M c #e87252",
".p c #f7e0d0",
".Q c #ffbf75",
"QtQtQtQtQtQtQtQtQtQtQtQtQtQtQtQtQtQtQtQtQtQtQtQtQtQtQtQtQtQtQtQtQtQtQtQtQtQtQtQtQtQtQtQtQtQtQtQtQtQtQtQtQtQtQtQtQtQtQtQtQtQtQtQt",
"QtQtQtQtQtQtQtQtQtQtQtQtQtQtQtQtQtQtQtQtQtQtQtQtQtQtQtQtQtQtQtQtQtQtQtQtQtQtQtQtQtQtQtQtQtQtQtQtQtQtQtQtQtQtQtQtQtQtQtQtQtQtQtQt",
"QtQtQtQtQtQtQtQtQtQtQtQtQtQtQtQtQtQtQtQtQtQtQtQtQtQtQtQtQtQtQtQtQtQtQtQtQtQtQtQtQtQtQtQtQtQtQtQtQtQtQtQtQtQtQtQtQtQtQtQtQtQtQtQt",
"QtQtQtQtQtQtQtQtQtQtQtQtQtQtQtQtQtQtQtQtQtQtQt.#.a.aQtQtQtQtQtQtQtQtQtQtQtQtQtQtQtQtQtQtQtQtQtQtQtQtQtQtQtQtQtQtQtQtQtQtQtQtQtQt",
"QtQtQtQtQtQtQtQtQtQtQtQtQtQtQtQtQtQtQtQtQtQt.#.b.#.c.aQtQtQt.d.e.d.d.dQtQtQtQtQtQtQtQtQtQtQtQtQtQtQtQtQtQtQtQtQtQtQtQtQtQtQtQtQt",
"QtQtQtQtQtQtQtQtQtQtQtQtQtQtQtQtQtQtQtQtQt.b.f.b.c.a.b.f.g.e.a.h.a.#.#.aQtQtQtQtQtQtQtQtQtQtQtQtQtQtQtQtQtQtQtQtQtQtQtQtQtQtQtQt",
"QtQtQtQtQtQtQtQtQtQtQtQtQtQtQtQtQtQtQtQtQt.f.b.#.a.c.f.g.d.h.a.i.c.a.c.b.cQtQtQtQtQtQtQtQtQtQtQtQtQtQtQtQtQtQtQtQtQtQtQtQtQtQtQt",
"QtQtQtQtQtQtQtQtQtQtQtQtQtQtQtQtQtQtQtQt.a.f.c.#.h.d.g.d.a.c.#.#.b.c.a.c.f.cQt.dQtQtQtQtQtQtQtQtQtQtQtQtQtQtQtQtQtQtQtQtQtQtQtQt",
"QtQtQtQtQtQtQtQtQtQtQtQtQtQtQtQtQtQtQtQt.a.b.c.#.d.d.d.a.c.d.a.a.a.f.c.c.f.c.aQtQtQtQtQtQtQtQtQtQtQtQtQtQtQtQtQtQtQtQtQtQtQtQtQt",
"QtQtQtQtQtQtQtQtQtQtQtQtQtQtQtQtQtQtQtQt.c.b.a.#.d.d.a.a.d.a.#.b.f.a.b.c.b.aQtQtQtQtQtQtQtQtQtQtQtQtQtQtQtQtQtQtQtQtQtQtQtQtQtQt",
"QtQtQtQtQtQtQtQtQtQtQtQtQtQtQtQtQtQtQtQt.c.#.a.cQt.d.j.d.a.c.h.c.a.b.k.l.l.a.dQtQtQtQtQtQtQtQtQtQtQtQtQtQtQtQtQtQtQtQtQtQtQtQtQt",
"QtQtQtQtQtQtQtQtQtQtQtQtQtQtQtQtQtQtQtQt.a.m.n.aQtQt.d.d.c.a.d.o.c.l.p.p.p.aQt.dQtQtQtQtQtQtQtQtQtQtQtQtQtQtQtQtQtQtQtQtQtQtQtQt",
"QtQtQtQtQtQtQtQtQtQtQtQtQtQtQtQtQtQtQtQt.a.q.r.sQt.d.e.a.a.d.d.c.t.t.k.p.p.dQt.dQtQtQtQtQtQtQtQtQtQtQtQtQtQtQtQtQtQtQtQtQtQtQtQt",
"QtQtQtQtQtQtQtQtQtQtQtQtQtQtQtQtQtQtQt.a.a.m.n.mQt.d.d.a.d.l.d.c.u.n.v.w.l.kQtQtQtQtQtQtQtQtQtQtQtQtQtQtQtQtQtQtQtQtQtQtQtQtQtQt",
"QtQtQtQtQtQtQtQtQtQtQtQtQtQtQtQtQtQtQt.a.c.x.s.rQtQt.a.d.a.k.d.#.u.y.z.l.l.kQtQtQtQtQtQtQtQtQtQtQtQtQtQtQtQtQtQtQtQtQtQtQtQtQtQt",
"QtQtQtQtQtQtQtQtQtQtQtQtQtQtQtQtQtQtQt.#.d.c.q.n.mQtQt.a.d.g.d.#.l.p.p.p.p.wQtQtQtQtQtQtQtQtQtQtQtQtQtQtQtQtQtQtQtQtQtQtQtQtQtQt",
"QtQtQtQtQtQtQtQtQtQtQtQtQtQtQtQtQtQt.c.#.d.c.d.n.mQtQt.d.d.d.d.#.l.p.p.p.l.wQtQtQtQtQtQtQtQtQtQtQtQtQtQtQtQtQtQtQtQtQtQtQtQtQtQt",
"QtQtQtQtQtQtQtQtQtQtQtQtQtQtQtQtQtQt.c.c.d.c.d.m.n.xQt.g.A.A.A.d.#.l.p.l.w.dQtQtQtQtQtQtQtQtQtQtQtQtQtQtQtQtQtQtQtQtQtQtQtQtQtQt",
"QtQtQtQtQtQtQtQtQtQtQtQtQtQtQtQtQtQt.#.b.a.a.d.x.m.mQt.A.A.B.B.d.c.k.l.w.A.dQtQtQtQtQtQtQtQtQtQtQtQtQtQtQtQtQtQtQtQtQtQtQtQtQtQt",
"QtQtQtQtQtQtQtQtQtQtQtQtQtQtQtQtQtQt.a.b.a.c.a.x.x.C.D.A.B.B.B.B.a.#.w.t.B.g.dQtQtQtQtQtQtQtQtQtQtQtQtQtQtQtQtQtQtQtQtQtQtQtQtQt",
"QtQtQtQtQtQtQtQtQtQtQtQtQtQtQtQtQtQt.c.b.a.c.dQt.E.s.q.F.G.G.G.H.d.c.I.w.I.B.dQtQtQtQtQtQtQtQtQtQtQtQtQtQtQtQtQtQtQtQtQtQtQtQtQt",
"QtQtQtQtQtQtQtQtQtQtQtQtQtQtQtQtQtQt.#.b.d.a.dQt.q.C.m.G.H.J.H.G.H.d.K.B.A.I.gQtQtQtQtQtQtQtQtQtQtQtQtQtQtQtQtQtQtQtQtQtQtQtQtQt",
"QtQtQtQtQtQtQtQtQtQtQtQtQtQtQtQtQt.a.#.#.d.a.dQtQt.x.G.L.M.N.J.H.J.K.O.P.B.A.KQtQtQtQtQtQtQtQtQtQtQtQtQtQtQtQtQtQtQtQtQtQtQtQtQt",
"QtQtQtQtQtQtQtQtQtQtQtQtQtQtQtQtQt.a.c.#.h.d.dQtQt.F.H.J.N.Q.N.H.R.a.a.I.B.A.IQtQtQtQtQtQtQtQtQtQtQtQtQtQtQtQtQtQtQtQtQtQtQtQtQt",
"QtQtQtQtQtQtQtQtQtQtQtQtQtQtQtQtQt.c.a.#.h.dQtQt.F.H.J.N.N.H.M.G.J.H.d.A.A.A.AQtQtQtQtQtQtQtQtQtQtQtQtQtQtQtQtQtQtQtQtQtQtQtQtQt",
"QtQtQtQtQtQtQtQtQtQtQtQtQtQtQtQtQt.#.a.c.a.aQtQt.G.H.N.N.N.J.G.G.H.J.P.S.S.T.AQtQtQtQtQtQtQtQtQtQtQtQtQtQtQtQtQtQtQtQtQtQtQtQtQt",
"QtQtQtQtQtQtQtQtQtQtQtQtQtQtQtQt.B.d.c.d.a.dQt.F.G.J.N.N.J.G.G.G.H.J.P.I.I.IQtQtQtQtQtQtQtQtQtQtQtQtQtQtQtQtQtQtQtQtQtQtQtQtQtQt",
"QtQtQtQtQtQtQtQtQtQtQtQtQtQtQtQt.#.d.c.d.a.d.F.G.H.J.J.N.G.G.F.G.G.H.H.K.A.IQtQtQtQtQtQtQtQtQtQtQtQtQtQtQtQtQtQtQtQtQtQtQtQtQtQt",
"QtQtQtQtQtQtQtQtQtQtQtQtQtQtQtQt.B.d.a.e.d.d.F.G.H.J.J.G.U.V.G.S.E.E.T.B.n.m.GQtQtQtQtQtQtQtQtQtQtQtQtQtQtQtQtQtQtQtQtQtQtQtQtQt",
"QtQtQtQtQtQtQtQtQtQtQtQtQtQtQtQt.#.d.a.e.dQt.F.H.J.J.H.G.u.F.G.F.T.S.T.R.S.S.B.GQtQtQtQtQtQtQtQtQtQtQtQtQtQtQtQtQtQtQtQtQtQtQtQt",
"QtQtQtQtQtQtQtQtQtQtQtQtQtQtQt.a.#.d.a.e.U.F.G.H.J.J.H.K.F.G.G.T.S.S.T.B.A.W.J.u.uQtQtQtQtQtQtQtQtQtQtQtQtQtQtQtQtQtQtQtQtQtQtQt",
"QtQtQtQtQtQtQtQtQtQtQtQtQtQtQt.a.c.d.a.d.U.F.G.J.J.H.G.X.F.G.G.H.S.R.I.B.W.A.I.Y.u.uQtQtQtQtQtQtQtQtQtQtQtQtQtQtQtQtQtQtQtQtQtQt",
"QtQtQtQtQtQtQtQtQtQtQtQtQtQtQt.c.h.e.d.d.d.F.B.P.Z.H.G.F.G.G.G.H.H.H.j.B.T.A.T.O.u.Y.uQtQtQtQtQtQtQtQtQtQtQtQtQtQtQtQtQtQtQtQtQt",
"QtQtQtQtQtQtQtQtQtQtQtQtQtQtQt.c.c.d.d.dQt.F.G.o.H.P.B.F.G.G.H.G.H.J.j.B.R.A.S.e.o.u.uQtQtQtQtQtQtQtQtQtQtQtQtQtQtQtQtQtQtQtQtQt",
"QtQtQtQtQtQtQtQtQtQtQtQtQtQt.c.a.a.d.d.dQt.F.0.Y.Y.0.G.G.G.G.H.H.H.J.j.B.K.A.T.f.e.eQtQtQtQtQtQtQtQtQtQtQtQtQtQtQtQtQtQtQtQtQtQt",
"QtQtQtQtQtQtQtQtQtQtQtQtQtQt.aQtQt.d.d.dQt.0.Y.1.K.Y.0.G.G.G.H.H.H.J.2.B.P.I.O.Y.uQtQtQtQtQtQtQtQtQtQtQtQtQtQtQtQtQtQtQtQtQtQtQt",
"QtQtQtQtQtQtQtQtQtQtQtQtQtQtQtQtQtQt.d.dQt.0.O.f.Y.i.k.0.G.H.G.H.H.J.2.P.P.B.A.uQtQtQtQtQtQtQtQtQtQtQtQtQtQtQtQtQtQtQtQtQtQtQtQt",
"QtQtQtQtQtQtQtQtQtQtQtQtQtQtQtQtQtQt.d.d.K.0.1.Y.w.w.l.Y.G.G.H.H.H.J.N.j.P.B.IQtQtQtQtQtQtQtQtQtQtQtQtQtQtQtQtQtQtQtQtQtQtQtQtQt",
"QtQtQtQtQtQtQtQtQtQtQtQtQtQtQtQtQtQt.dQt.3.0.Y.w.k.k.Y.G.H.G.H.G.H.J.N.j.P.B.B.AQtQtQtQtQtQtQtQtQtQtQtQtQtQtQtQtQtQtQtQtQtQtQtQt",
"QtQtQtQtQtQtQtQtQtQtQtQtQtQtQtQtQtQt.K.X.3.K.0.k.w.G.G.G.H.H.H.G.H.H.N.j.P.B.B.AQtQtQtQtQtQtQtQtQtQtQtQtQtQtQtQtQtQtQtQtQtQtQtQt",
"QtQtQtQtQtQtQtQtQtQtQtQtQtQtQtQtQtQt.X.3.K.u.K.X.F.G.G.G.H.H.J.G.H.H.J.2.P.P.m.nQtQtQtQtQtQtQtQtQtQtQtQtQtQtQtQtQtQtQtQtQtQtQtQt",
"QtQtQtQtQtQtQtQtQtQtQtQtQtQtQtQtQt.K.3.3.u.u.K.X.G.G.G.H.H.H.J.G.H.H.J.2.P.Z.4.y.nQtQtQtQtQtQtQtQtQtQtQtQtQtQtQtQtQtQtQtQtQtQtQt",
"QtQtQtQtQtQtQtQtQtQtQtQtQtQtQtQtQt.K.3.X.u.u.X.F.G.G.G.H.H.H.J.G.H.H.J.2.P.Z.4.4.4QtQtQtQtQtQtQtQtQtQtQtQtQtQtQtQtQtQtQtQtQtQtQt",
"QtQtQtQtQtQtQtQtQtQtQtQtQtQtQtQtQt.K.3.K.u.K.X.G.G.G.G.H.H.J.J.G.G.H.J.N.2.Z.m.m.xQtQtQtQtQtQtQtQtQtQtQtQtQtQtQtQtQtQtQtQtQtQtQt",
"QtQtQtQtQtQtQtQtQtQtQtQtQtQtQtQtQt.K.X.K.K.X.F.G.G.H.H.H.H.J.J.G.G.H.H.N.5.Z.m.m.mQtQtQtQtQtQtQtQtQtQtQtQtQtQtQtQtQtQtQtQtQtQtQt",
"QtQtQtQtQtQtQtQtQtQtQtQtQtQtQtQtQt.K.X.K.X.X.G.G.G.H.H.H.H.J.J.G.G.H.H.N.5.P.Z.m.xQtQtQtQtQtQtQtQtQtQtQtQtQtQtQtQtQtQtQtQtQtQtQt",
"QtQtQtQtQtQtQtQtQtQtQtQtQtQtQtQtQt.K.X.X.X.K.G.G.G.H.H.H.J.J.H.G.H.H.H.J.2.P.Z.Y.0QtQtQtQtQtQtQtQtQtQtQtQtQtQtQtQtQtQtQtQtQtQtQt",
"QtQtQtQtQtQtQtQtQtQtQtQtQtQtQtQtQt.K.X.X.B.F.G.G.H.G.H.H.J.J.H.G.G.H.H.J.N.2.Z.X.XQtQtQtQtQtQtQtQtQtQtQtQtQtQtQtQtQtQtQtQtQtQtQt",
"QtQtQtQtQtQtQtQtQtQtQtQtQtQtQtQtQt.K.X.KQt.G.G.G.H.H.H.H.J.J.H.H.G.H.H.J.N.2.Z.Y.0.6QtQtQtQtQtQtQtQtQtQtQtQtQtQtQtQtQtQtQtQtQtQt",
"QtQtQtQtQtQtQtQtQtQtQtQtQtQtQtQtQt.K.u.6.6.G.G.G.H.H.H.J.J.J.H.G.G.H.H.J.N.5.P.Z.0.e.7.6.6.6QtQtQtQtQtQtQtQtQtQtQtQtQtQtQtQtQtQt",
"QtQtQtQtQtQtQtQtQtQtQtQtQtQtQtQt.6.u.8.9#.###a#b.u.H.H.J.J.J.H.G.G.G.H.J.N.5.P.Z.X.e###..9.8.6.6QtQtQtQtQtQtQtQtQtQtQtQtQtQtQtQt",
"QtQtQtQtQtQtQtQtQtQtQtQtQtQtQt.6.8#c#d#e#f#g#h.u.U.e.e.e.J.J.H.G.G.G.H.J.N.5.P.Z.Y.e#i#f#e#d#c.8.6QtQtQtQtQtQtQtQtQtQtQtQtQtQtQt",
"QtQtQtQtQtQtQtQtQtQtQtQtQtQt.6#j#k#l#m#n#o#p#q.u.U.U.e.O.e.U.u.0#r#s#t#u#v.u.e.Y.O.n.e.e.e#m#w#k#j.6QtQtQtQtQtQtQtQtQtQtQtQtQtQt",
"QtQtQtQtQtQtQtQtQtQtQtQtQt.6.8#x#y#z#A#B#C#D#E.u.u.U.e.e.e.e.e.g#F#G#G#H#I.u.e.O.X.Y.Y.X.Y.e#z#y#x.8.6QtQtQtQtQtQtQtQtQtQtQtQtQt",
"QtQtQtQtQtQtQtQtQtQtQtQtQt.6#J#K#L#M#N#E#O#H#F#F#F.u.0.g.0.g.u.0#P#P#P#P#P.u.e.O.Y.Y.O.o.Y.U#M#L#K#J.6QtQtQtQtQtQtQtQtQtQtQtQtQt",
"QtQtQtQtQtQtQtQtQtQtQtQtQt.6#J#Q#L#M#C#E#O#H#F#F#F#F#F#P#P#P#P#P#P#P#P#P#P.0.e.e.Y.Y.Y.0.0.0#M#R#Q#J.6QtQtQtQtQtQtQtQtQtQtQtQtQt",
"QtQtQtQtQtQtQtQtQtQtQtQtQt.6#S#x#y#z#A#B#C#D#E#T#U#O#I#I#H#G#G#F#F#G#G#H#I.0.0.0.0.0.0#C#B#A#z#y#x#S.6QtQtQtQtQtQtQtQtQtQtQtQtQt",
"QtQtQtQtQtQtQtQtQtQtQtQtQtQt.6#j#V#w#W#z#X#p#q#Y#Z#0#1#v#u#t#r#r#r#r#t#u#v#1#0#Z#Y#q#p#X#z#W#w#V#j.6QtQtQtQtQtQtQtQtQtQtQtQtQtQt",
"QtQtQtQtQtQtQtQtQtQtQtQtQtQtQt.6#S#.#d#e#f#i#2#3#4#5#6#7#A#8#M#9#9#M#8#A#7#6#5#4#3#2#i#f#e#d#.#S.6QtQtQtQtQtQtQtQtQtQtQtQtQtQtQt",
"QtQtQtQtQtQtQtQtQtQtQtQtQtQtQtQt.6.6.8.9#.###a#ba.a#aaabacadae#g#gaeadacabaaa#a.#b#a#x#..9.8.6.6QtQtQtQtQtQtQtQtQtQtQtQtQtQtQtQt",
"QtQtQtQtQtQtQtQtQtQtQtQtQtQtQtQtQtQt.6.6.6.7.8#j.9af#.agahahahaiaiahahahag#.af.9#j.8.7.6.6.6QtQtQtQtQtQtQtQtQtQtQtQtQtQtQtQtQtQt",
"QtQtQtQtQtQtQtQtQtQtQtQtQtQtQtQtQtQtQtQtQtQt.6.6.6.6.6.6.6.6.6.6.6.6.6.6.6.6.6.6.6.6QtQtQtQtQtQtQtQtQtQtQtQtQtQtQtQtQtQtQtQtQtQt",
"QtQtQtQtQtQtQtQtQtQtQtQtQtQtQtQtQtQtQtQtQtQtQtQtQtQtQtQtQtQtQtQtQtQtQtQtQtQtQtQtQtQtQtQtQtQtQtQtQtQtQtQtQtQtQtQtQtQtQtQtQtQtQtQt",
"QtQtQtQtQtQtQtQtQtQtQtQtQtQtQtQtQtQtQtQtQtQtQtQtQtQtQtQtQtQtQtQtQtQtQtQtQtQtQtQtQtQtQtQtQtQtQtQtQtQtQtQtQtQtQtQtQtQtQtQtQtQtQtQt"};
