/* XPM */
static char *dummy[]={
"64 64 140 2",
"Qt c None",
".8 c #000000",
"## c #000000",
"#. c #000000",
"#U c #000000",
".9 c #000000",
"#K c #000000",
"#a c #000000",
"ag c #000000",
"#f c #000000",
"#b c #000000",
"ah c #000000",
"ai c #000000",
"aj c #000000",
"#e c #000000",
"#A c #000000",
"#o c #000000",
"#W c #000000",
"#g c #000000",
"#d c #000000",
"#L c #000000",
"#R c #000000",
"#c c #000000",
"#h c #000000",
"a# c #000000",
"#p c #000000",
"#z c #000000",
"aa c #000000",
"#i c #000000",
"ab c #000000",
"#B c #000000",
"ac c #000000",
"ad c #000000",
"ae c #000000",
"af c #000000",
"#j c #000000",
"#n c #000000",
"#q c #000000",
"#X c #000000",
"#k c #000000",
"#4 c #000000",
"#M c #000000",
"#T c #000000",
"#5 c #000000",
"#r c #000000",
"#C c #000000",
"#6 c #000000",
"#7 c #000000",
"#s c #000000",
"#Y c #000000",
"#8 c #000000",
"#9 c #000000",
"#D c #000000",
"#t c #000000",
"a. c #000000",
"#m c #000000",
"#l c #000000",
"#u c #000000",
"#E c #000000",
"#v c #000000",
"#w c #000000",
"#Z c #000000",
"#N c #000000",
"#F c #000000",
"#0 c #000000",
"#1 c #000000",
"#2 c #000000",
"#G c #000000",
"#3 c #000000",
"#y c #000000",
"#x c #000000",
"#H c #000000",
"#I c #000000",
"#J c #000000",
"#O c #000000",
"#V c #000000",
"#P c #000000",
"#Q c #000000",
"#S c #000000",
".1 c #000008",
".s c #00b39e",
".3 c #020101",
".g c #060808",
".B c #061e11",
".r c #06eba8",
".H c #080014",
".u c #080808",
".d c #0c1211",
".7 c #0f0e11",
".e c #131314",
".q c #137177",
".v c #140500",
".a c #1a2520",
".I c #1e194b",
".h c #212828",
".o c #26252c",
".4 c #282829",
".c c #2b3932",
".A c #313539",
".D c #35353a",
".J c #382966",
".# c #3a4a42",
".i c #3d3d3d",
".L c #444448",
".j c #463626",
".C c #47474e",
".0 c #4a2121",
".O c #51545b",
".5 c #525351",
".x c #535353",
".K c #554783",
".V c #562f1d",
".G c #563521",
".b c #585c5e",
".6 c #655324",
".N c #665e9a",
".t c #6d2029",
".M c #6f6f76",
".U c #72472d",
".z c #7291ea",
".Y c #797a7c",
".f c #798487",
".F c #7a603f",
".m c #838384",
".Z c #946c45",
".E c #9e7e55",
".X c #9e99a6",
".2 c #a3a3aa",
".T c #ad473d",
".n c #adb2af",
".w c #b14432",
".W c #b1c4ce",
".S c #ccd3d6",
".l c #e49e87",
".y c #e5f4ff",
".k c #e67160",
".R c #e87252",
".p c #f7e0d0",
".Q c #ffbf75",
".P c #ffef7c",
"QtQtQtQtQtQtQtQtQtQtQtQtQtQtQtQtQtQtQtQtQtQtQtQtQtQtQtQtQtQtQtQtQtQtQtQtQtQtQtQtQtQtQtQtQtQtQtQtQtQtQtQtQtQtQtQtQtQtQtQtQtQtQtQt",
"QtQtQtQtQtQtQtQtQtQtQtQtQtQtQtQtQtQtQtQtQtQtQtQtQtQtQtQtQtQtQtQtQtQtQtQtQtQtQtQtQtQtQtQtQtQtQtQtQtQtQtQtQtQtQtQtQtQtQtQtQtQtQtQt",
"QtQtQtQtQtQtQtQtQtQtQtQtQtQtQtQtQtQtQtQtQtQtQt.#.a.aQtQtQtQtQtQtQtQtQtQtQtQtQtQtQtQtQtQtQtQtQtQtQtQtQtQtQtQtQtQtQtQtQtQtQtQtQtQt",
"QtQtQtQtQtQtQtQtQtQtQtQtQtQtQtQtQtQtQtQtQtQt.#.b.#.c.aQtQtQt.d.e.d.d.dQtQtQtQtQtQtQtQtQtQtQtQtQtQtQtQtQtQtQtQtQtQtQtQtQtQtQtQtQt",
"QtQtQtQtQtQtQtQtQtQtQtQtQtQtQtQtQtQtQtQtQt.b.f.b.c.a.b.f.g.e.a.h.a.#.#.aQtQtQtQtQtQtQtQtQtQtQtQtQtQtQtQtQtQtQtQtQtQtQtQtQtQtQtQt",
"QtQtQtQtQtQtQtQtQtQtQtQtQtQtQtQtQtQtQtQtQt.f.b.#.a.c.f.g.d.h.a.c.i.a.c.b.cQtQtQtQtQtQtQtQtQtQtQtQtQtQtQtQtQtQtQtQtQtQtQtQtQtQtQt",
"QtQtQtQtQtQtQtQtQtQtQtQtQtQtQtQtQtQtQtQt.a.f.c.#.a.e.g.d.a.c.#.#.b.c.a.c.f.cQt.dQtQtQtQtQtQtQtQtQtQtQtQtQtQtQtQtQtQtQtQtQtQtQtQt",
"QtQtQtQtQtQtQtQtQtQtQtQtQtQtQtQtQtQtQtQt.a.b.c.#.d.d.d.a.c.d.a.a.a.f.c.c.f.c.aQtQtQtQtQtQtQtQtQtQtQtQtQtQtQtQtQtQtQtQtQtQtQtQtQt",
"QtQtQtQtQtQtQtQtQtQtQtQtQtQtQtQtQtQtQtQt.c.b.a.#.d.d.a.a.d.a.#.b.f.a.b.c.b.aQtQtQtQtQtQtQtQtQtQtQtQtQtQtQtQtQtQtQtQtQtQtQtQtQtQt",
"QtQtQtQtQtQtQtQtQtQtQtQtQtQtQtQtQtQtQtQt.c.c.#.a.c.d.j.d.a.c.h.c.a.b.k.l.l.a.dQtQtQtQtQtQtQtQtQtQtQtQtQtQtQtQtQtQtQtQtQtQtQtQtQt",
"QtQtQtQtQtQtQtQtQtQtQtQtQtQtQtQtQtQtQt.a.c.m.n.d.aQt.d.d.c.a.d.o.c.l.p.p.p.aQt.dQtQtQtQtQtQtQtQtQtQtQtQtQtQtQtQtQtQtQtQtQtQtQtQt",
"QtQtQtQtQtQtQtQtQtQtQtQtQtQtQtQtQtQtQt.a.c.q.r.s.a.d.e.a.a.d.d.c.t.t.k.p.p.dQt.dQtQtQtQtQtQtQtQtQtQtQtQtQtQtQtQtQtQtQtQtQtQtQtQt",
"QtQtQtQtQtQtQtQtQtQtQtQtQtQtQtQtQtQtQt.a.a.m.n.mQt.d.d.a.d.l.d.c.u.n.v.w.l.kQtQtQtQtQtQtQtQtQtQtQtQtQtQtQtQtQtQtQtQtQtQtQtQtQtQt",
"QtQtQtQtQtQtQtQtQtQtQtQtQtQtQtQtQtQtQt.c.a.x.s.rQtQt.a.d.a.k.d.#.u.y.z.l.l.kQtQtQtQtQtQtQtQtQtQtQtQtQtQtQtQtQtQtQtQtQtQtQtQtQtQt",
"QtQtQtQtQtQtQtQtQtQtQtQtQtQtQtQtQtQt.a.#.d.c.q.n.mQtQt.a.d.g.d.#.l.p.p.p.p.wQtQtQtQtQtQtQtQtQtQtQtQtQtQtQtQtQtQtQtQtQtQtQtQtQtQt",
"QtQtQtQtQtQtQtQtQtQtQtQtQtQtQtQtQtQt.a.#.d.a.d.n.mQtQt.d.g.g.d.#.l.p.p.p.l.wQtQtQtQtQtQtQtQtQtQtQtQtQtQtQtQtQtQtQtQtQtQtQtQtQtQt",
"QtQtQtQtQtQtQtQtQtQtQtQtQtQtQtQtQtQt.a.a.c.a.d.m.n.xQt.g.A.B.B.d.#.l.p.l.w.dQtQtQtQtQtQtQtQtQtQtQtQtQtQtQtQtQtQtQtQtQtQtQtQtQtQt",
"QtQtQtQtQtQtQtQtQtQtQtQtQtQtQtQtQtQt.#.a.c.h.d.x.m.mQt.B.c.C.D.d.c.k.l.w.B.dQtQtQtQtQtQtQtQtQtQtQtQtQtQtQtQtQtQtQtQtQtQtQtQtQtQt",
"QtQtQtQtQtQtQtQtQtQtQtQtQtQtQtQtQtQt.b.a.c.a.a.x.x.E.F.B.A.C.C.A.a.#.w.t.C.g.dQtQtQtQtQtQtQtQtQtQtQtQtQtQtQtQtQtQtQtQtQtQtQtQtQt",
"QtQtQtQtQtQtQtQtQtQtQtQtQtQtQtQtQt.c.b.a.c.d.aQt.G.s.q.B.H.d.I.I.d.c.C.C.A.C.dQtQtQtQtQtQtQtQtQtQtQtQtQtQtQtQtQtQtQtQtQtQtQtQtQt",
"QtQtQtQtQtQtQtQtQtQtQtQtQtQtQtQtQt.c.b.c.a.d.aQt.q.E.m.A.d.J.K.J.J.d.L.M.M.B.gQtQtQtQtQtQtQtQtQtQtQtQtQtQtQtQtQtQtQtQtQtQtQtQtQt",
"QtQtQtQtQtQtQtQtQtQtQtQtQtQtQtQtQt.a.#.#.d.e.aQtQt.x.m.d.I.K.K.N.I.J.O.D.L.M.CQtQtQtQtQtQtQtQtQtQtQtQtQtQtQtQtQtQtQtQtQtQtQtQtQt",
"QtQtQtQtQtQtQtQtQtQtQtQtQtQtQtQtQt.a.c.b.a.d.aQtQtQt.x.d.I.J.P.Q.I.J.o.a.D.C.AQtQtQtQtQtQtQtQtQtQtQtQtQtQtQtQtQtQtQtQtQtQtQtQtQt",
"QtQtQtQtQtQtQtQtQtQtQtQtQtQtQtQtQt.c.a.#.a.a.aQtQtQt.x.d.I.R.J.K.J.J.d.a.M.B.BQtQtQtQtQtQtQtQtQtQtQtQtQtQtQtQtQtQtQtQtQtQtQtQtQt",
"QtQtQtQtQtQtQtQtQtQtQtQtQtQtQtQtQt.C.a.c.a.c.dQtQtQt.S.H.T.J.K.N.K.J.J.K.M.U.VQtQtQtQtQtQtQtQtQtQtQtQtQtQtQtQtQtQtQtQtQtQtQtQtQt",
"QtQtQtQtQtQtQtQtQtQtQtQtQtQtQtQtQt.C.d.c.d.c.dQtQt.L.S.I.H.I.K.N.N.I.J.K.M.A.BQtQtQtQtQtQtQtQtQtQtQtQtQtQtQtQtQtQtQtQtQtQtQtQtQt",
"QtQtQtQtQtQtQtQtQtQtQtQtQtQtQtQtQt.#.d.c.d.a.dQtQt.W.S.I.H.I.K.K.N.J.J.K.C.BQtQtQtQtQtQtQtQtQtQtQtQtQtQtQtQtQtQtQtQtQtQtQtQtQtQt",
"QtQtQtQtQtQtQtQtQtQtQtQtQtQtQtQtQt.C.d.a.d.a.dQt.L.S.X.I.K.I.K.K.K.K.I.I.C.UQtQtQtQtQtQtQtQtQtQtQtQtQtQtQtQtQtQtQtQtQtQtQtQtQtQt",
"QtQtQtQtQtQtQtQtQtQtQtQtQtQtQtQtQt.a.#.d.a.e.e.d.Y.S.Y.H.K.H.J.K.N.N.I.Z.Z.U.VQtQtQtQtQtQtQtQtQtQtQtQtQtQtQtQtQtQtQtQtQtQtQtQtQt",
"QtQtQtQtQtQtQtQtQtQtQtQtQtQtQtQtQt.a.#.d.a.a.d.d.Y.S.Y.H.K.H.I.K.N.N.J.0.B.0.BQtQtQtQtQtQtQtQtQtQtQtQtQtQtQtQtQtQtQtQtQtQtQtQtQt",
"QtQtQtQtQtQtQtQtQtQtQtQtQtQtQtQtQt.a.c.d.a.d.a.L.X.X.Y.L.M.H.I.J.K.N.N.J.B.1.VQtQtQtQtQtQtQtQtQtQtQtQtQtQtQtQtQtQtQtQtQtQtQtQtQt",
"QtQtQtQtQtQtQtQtQtQtQtQtQtQtQtQtQt.c.a.d.a.d.a.L.X.Y.L.H.H.I.I.J.K.2.M.K.J.1.UQtQtQtQtQtQtQtQtQtQtQtQtQtQtQtQtQtQtQtQtQtQtQtQtQt",
"QtQtQtQtQtQtQtQtQtQtQtQtQtQtQtQtQt.c.d.d.a.d.C.Y.X.L.u.H.I.J.I.J.M.J.K.K.3.1.VQtQtQtQtQtQtQtQtQtQtQtQtQtQtQtQtQtQtQtQtQtQtQtQtQt",
"QtQtQtQtQtQtQtQtQtQtQtQtQtQtQtQtQt.aQt.d.d.d.L.X.L.X.H.I.I.J.H.C.J.K.4.i.3.3QtQtQtQtQtQtQtQtQtQtQtQtQtQtQtQtQtQtQtQtQtQtQtQtQtQt",
"QtQtQtQtQtQtQtQtQtQtQtQtQtQtQtQtQtQt.aQt.d.L.X.X.u.X.H.I.J.I.J.a.3.3.5.i.3.l.3QtQtQtQtQtQtQtQtQtQtQtQtQtQtQtQtQtQtQtQtQtQtQtQtQt",
"QtQtQtQtQtQtQtQtQtQtQtQtQtQtQtQtQtQtQtQtQt.L.X.Y.u.H.I.I.J.J.J.3.3.O.4.4.w.l.3QtQtQtQtQtQtQtQtQtQtQtQtQtQtQtQtQtQtQtQtQtQtQtQtQt",
"QtQtQtQtQtQtQtQtQtQtQtQtQtQtQtQtQtQtQtQt.L.X.X.L.Y.H.I.I.J.J.J.3.4.4.4.k.k.w.1QtQtQtQtQtQtQtQtQtQtQtQtQtQtQtQtQtQtQtQtQtQtQtQtQt",
"QtQtQtQtQtQtQtQtQtQtQtQtQtQtQtQtQtQtQtQt.X.X.X.L.Y.I.I.J.I.J.J.K.3.t.w.t.t.B.1QtQtQtQtQtQtQtQtQtQtQtQtQtQtQtQtQtQtQtQtQtQtQtQtQt",
"QtQtQtQtQtQtQtQtQtQtQtQtQtQtQtQtQtQt.L.Y.X.L.u.Y.H.I.I.J.J.J.K.j.M.t.t.t.B.B.1QtQtQtQtQtQtQtQtQtQtQtQtQtQtQtQtQtQtQtQtQtQtQtQtQt",
"QtQtQtQtQtQtQtQtQtQtQtQtQtQtQtQtQtQt.Y.X.L.u.L.Y.I.I.J.J.J.J.K.j.M.2.A.B.B.h.x.xQtQtQtQtQtQtQtQtQtQtQtQtQtQtQtQtQtQtQtQtQtQtQtQt",
"QtQtQtQtQtQtQtQtQtQtQtQtQtQtQtQtQt.L.X.X.u.u.L.H.I.I.J.J.J.J.K.6.2.S.n.B.h.x.m.n.xQtQtQtQtQtQtQtQtQtQtQtQtQtQtQtQtQtQtQtQtQtQtQt",
"QtQtQtQtQtQtQtQtQtQtQtQtQtQtQtQtQt.L.X.Y.u.u.Y.I.I.J.J.J.J.K.N.6.2.S.y.m.x.O.m.m.mQtQtQtQtQtQtQtQtQtQtQtQtQtQtQtQtQtQtQtQtQtQtQt",
"QtQtQtQtQtQtQtQtQtQtQtQtQtQtQtQtQt.L.X.L.u.L.H.I.I.J.J.K.J.K.N.M.2.S.S.n.h.x.x.x.xQtQtQtQtQtQtQtQtQtQtQtQtQtQtQtQtQtQtQtQtQtQtQt",
"QtQtQtQtQtQtQtQtQtQtQtQtQtQtQtQtQt.L.Y.L.L.Y.I.I.J.J.J.J.J.K.j.2.2.m.m.x.u.a.x.x.xQtQtQtQtQtQtQtQtQtQtQtQtQtQtQtQtQtQtQtQtQtQtQt",
"QtQtQtQtQtQtQtQtQtQtQtQtQtQtQtQtQt.L.Y.L.Y.I.I.I.J.J.K.J.J.N.j.2.2.m.x.e.7.u.h.hQtQtQtQtQtQtQtQtQtQtQtQtQtQtQtQtQtQtQtQtQtQtQtQt",
"QtQtQtQtQtQtQtQtQtQtQtQtQtQtQtQtQt.L.Y.Y.H.I.I.J.J.J.K.J.K.N.6.2.x.x.u.7.e.7.u.3QtQtQtQtQtQtQtQtQtQtQtQtQtQtQtQtQtQtQtQtQtQtQtQt",
"QtQtQtQtQtQtQtQtQtQtQtQtQtQtQtQtQt.L.Y.Y.I.I.I.J.J.K.J.J.K.N.M.2.3.g.u.e.e.e.e.3QtQtQtQtQtQtQtQtQtQtQtQtQtQtQtQtQtQtQtQtQtQtQtQt",
"QtQtQtQtQtQtQtQtQtQtQtQtQtQtQtQtQt.L.Y.H.I.I.J.J.J.K.J.J.K.j.M.2.3.u.u.e.a.O.O.OQtQtQtQtQtQtQtQtQtQtQtQtQtQtQtQtQtQtQtQtQtQtQtQt",
"QtQtQtQtQtQtQtQtQtQtQtQtQtQtQtQtQt.L.u.I.I.I.J.J.J.K.J.J.N.j.2.2.e.u.7.7.e.e.e.3.8.8QtQtQtQtQtQtQtQtQtQtQtQtQtQtQtQtQtQtQtQtQtQt",
"QtQtQtQtQtQtQtQtQtQtQtQtQtQtQtQtQt.u.8.8.I.J.J.J.K.J.J.K.N.6.2.2.e.H.u.e.e.e.e.u.9#.##.8.8.8QtQtQtQtQtQtQtQtQtQtQtQtQtQtQtQtQtQt",
"QtQtQtQtQtQtQtQtQtQtQtQtQtQtQtQt.8.8#.#a#b.J.J.J.K.J.J.K.N.6.2.e.H.1.u.7.e.O.O.O#c#d#e#b#a#..8.8QtQtQtQtQtQtQtQtQtQtQtQtQtQtQtQt",
"QtQtQtQtQtQtQtQtQtQtQtQtQtQtQt.8#.#f#g#h#i#j#k.J.K.J.K.N.6.M.2.n#l#m.g.7.e.e.u.O.3.3#n#i#h#g#f#..8QtQtQtQtQtQtQtQtQtQtQtQtQtQtQt",
"QtQtQtQtQtQtQtQtQtQtQtQtQtQt.8.9#o#p#q#r#s#t#u#v#w.3.K.N.6.M.2.3#x#y.u.7.e.e.O.e.e.O.3#s#r#q#z#o.9.8QtQtQtQtQtQtQtQtQtQtQtQtQtQt",
"QtQtQtQtQtQtQtQtQtQtQtQtQt.8#.#A#B#C#D#E#F#G#H#I#J.u.7.e.4.4.Y.n.3.3.u.e.7.u.7.e.O.e.3#F#E#D#C#B#A#..8QtQtQtQtQtQtQtQtQtQtQtQtQt",
"QtQtQtQtQtQtQtQtQtQtQtQtQt.8#K#L#M#m#N#H#O#P#Q#Q#Q.u.7.e.O.O.4.4.Y.4.3.3.3.3.3.3.3.3.3#O#H#N#m#M#L#K.8QtQtQtQtQtQtQtQtQtQtQtQtQt",
"QtQtQtQtQtQtQtQtQtQtQtQtQt.8#K#R#M#m#F#H#O#P#Q#Q#Q.u.u.e.4.4.a.O.a.4.u#S#S#Q#Q#Q#Q#Q#P#O#H#F#m#T#R#K.8QtQtQtQtQtQtQtQtQtQtQtQtQt",
"QtQtQtQtQtQtQtQtQtQtQtQtQt.8#U#A#B#C#D#E#F#G#H#I#J#O#V.u.3.g.3.g.3.g.u#P#V#V#O#J#I#H#G#F#E#D#C#B#A#U.8QtQtQtQtQtQtQtQtQtQtQtQtQt",
"QtQtQtQtQtQtQtQtQtQtQtQtQtQt.8.9#W#z#X#C#Y#t#u#v#w#Z#0#1#2#3#x#x#x#x#3#2#1#0#Z#w#v#u#t#Y#C#X#z#W.9.8QtQtQtQtQtQtQtQtQtQtQtQtQtQt",
"QtQtQtQtQtQtQtQtQtQtQtQtQtQtQt.8#U#b#g#h#i#n#4#5#6#7#8#9#Da.#m#l#l#ma.#D#9#8#7#6#5#4#n#i#h#g#b#U.8QtQtQtQtQtQtQtQtQtQtQtQtQtQtQt",
"QtQtQtQtQtQtQtQtQtQtQtQtQtQtQtQt.8.8#.#a#b#e#d#ca#aaabacadaeaf#j#jafaeadacabaaa##c#d#A#b#a#..8.8QtQtQtQtQtQtQtQtQtQtQtQtQtQtQtQt",
"QtQtQtQtQtQtQtQtQtQtQtQtQtQtQtQtQtQt.8.8.8###..9#aag#bahaiaiaiajajaiaiaiah#bag#a.9#.##.8.8.8QtQtQtQtQtQtQtQtQtQtQtQtQtQtQtQtQtQt",
"QtQtQtQtQtQtQtQtQtQtQtQtQtQtQtQtQtQtQtQtQtQt.8.8.8.8.8.8.8.8.8.8.8.8.8.8.8.8.8.8.8.8QtQtQtQtQtQtQtQtQtQtQtQtQtQtQtQtQtQtQtQtQtQt",
"QtQtQtQtQtQtQtQtQtQtQtQtQtQtQtQtQtQtQtQtQtQtQtQtQtQtQtQtQtQtQtQtQtQtQtQtQtQtQtQtQtQtQtQtQtQtQtQtQtQtQtQtQtQtQtQtQtQtQtQtQtQtQtQt",
"QtQtQtQtQtQtQtQtQtQtQtQtQtQtQtQtQtQtQtQtQtQtQtQtQtQtQtQtQtQtQtQtQtQtQtQtQtQtQtQtQtQtQtQtQtQtQtQtQtQtQtQtQtQtQtQtQtQtQtQtQtQtQtQt"};
