/* XPM */
static char *dummy[]={
"64 64 146 2",
"Qt c None",
"#b c #000000",
"#c c #000000",
"#d c #000000",
"ab c #000000",
"#z c #000000",
"#4 c #000000",
"#g c #000000",
"#e c #000000",
"#o c #000000",
"#f c #000000",
"an c #000000",
"ao c #000000",
"ap c #000000",
"#h c #000000",
"#Q c #000000",
"#A c #000000",
"ac c #000000",
"#p c #000000",
"#i c #000000",
"#5 c #000000",
"a# c #000000",
"#j c #000000",
"#q c #000000",
"#k c #000000",
"#B c #000000",
"#P c #000000",
"#l c #000000",
"#r c #000000",
"#m c #000000",
"#R c #000000",
"#n c #000000",
"ak c #000000",
"al c #000000",
"am c #000000",
"#s c #000000",
"ag c #000000",
"#C c #000000",
"ad c #000000",
"#t c #000000",
"ah c #000000",
"#6 c #000000",
"aa c #000000",
"#u c #000000",
"#D c #000000",
"#S c #000000",
"#v c #000000",
"#w c #000000",
"#E c #000000",
"ae c #000000",
"#x c #000000",
"#y c #000000",
"#T c #000000",
"#F c #000000",
"ai c #000000",
"#7 c #000000",
"aj c #000000",
"#G c #000000",
"#U c #000000",
"#H c #000000",
"#I c #000000",
"#J c #000000",
"#8 c #000000",
"#V c #000000",
"#K c #000000",
"#L c #000000",
"#M c #000000",
"#W c #000000",
"#N c #000000",
"#O c #000000",
"af c #000000",
"#X c #000000",
"#Y c #000000",
"#Z c #000000",
"#0 c #000000",
"#1 c #000000",
"#2 c #000000",
"#3 c #000000",
"#9 c #000000",
"a. c #000000",
".L c #000008",
".j c #00b39e",
".3 c #020101",
".u c #060808",
".G c #061e11",
".l c #06eba8",
".W c #080014",
".s c #080808",
".f c #0c1211",
".1 c #0f0e11",
".2 c #131314",
".q c #137177",
".y c #140500",
".b c #1a2520",
".H c #1e194b",
".e c #212828",
".C c #250001",
".M c #260c0c",
".R c #26252c",
".S c #282829",
".# c #2b3932",
".c c #313539",
".7 c #35353a",
".P c #382966",
".d c #3a4a42",
".5 c #3d3d3d",
".k c #444448",
".8 c #463626",
".K c #47474e",
".B c #490008",
".6 c #51545b",
".4 c #525351",
".t c #535353",
".T c #554783",
".0 c #562f1d",
".a c #585c5e",
".9 c #655324",
".Y c #665e9a",
".v c #6d2029",
".E c #6e0023",
".Q c #6f6f76",
".V c #72472d",
".A c #7291ea",
".x c #797a7c",
".g c #798487",
".N c #822d1e",
".i c #838384",
"#a c #8b682a",
".X c #946c45",
"## c #9e7e55",
".p c #9e99a6",
".Z c #a3a3aa",
".I c #ad473d",
".h c #adb2af",
".F c #b00a35",
".w c #b14432",
"#. c #b1c4ce",
".o c #ccd3d6",
".n c #e49e87",
".z c #e5f4ff",
".m c #e67160",
".D c #e87252",
".r c #f7e0d0",
".J c #ff2f58",
".O c #ffbf75",
".U c #ffef7c",
"QtQtQtQtQtQtQtQtQtQtQtQtQtQtQtQtQtQtQtQtQtQtQtQtQtQtQtQtQtQtQtQtQtQtQtQtQtQtQtQtQtQtQtQtQtQtQtQtQtQtQtQtQtQtQtQtQtQtQtQtQtQtQtQt",
"QtQtQtQtQtQtQtQtQtQtQtQtQtQtQtQtQtQtQtQtQtQtQtQtQtQtQtQtQtQtQtQtQtQtQtQtQtQtQtQtQtQtQtQtQtQtQtQtQtQtQtQtQtQtQtQtQtQtQtQtQtQtQtQt",
"QtQtQtQtQtQtQtQtQtQtQtQtQtQtQtQtQtQtQtQtQtQtQtQtQtQtQtQtQtQtQtQtQtQtQtQtQtQtQtQtQtQtQtQtQtQtQtQtQtQtQtQtQtQtQtQtQtQtQtQtQtQtQtQt",
"QtQtQtQtQtQtQtQtQtQtQtQtQtQtQtQtQtQtQtQtQtQtQtQtQtQtQtQtQtQt.#.a.bQtQtQtQtQtQtQtQtQtQtQtQtQtQtQtQtQtQtQtQtQtQtQtQtQtQtQtQtQtQtQt",
"QtQtQtQtQtQtQtQtQtQtQtQtQtQtQtQtQtQtQtQtQtQtQtQtQtQtQtQtQt.c.d.e.#.bQtQtQtQtQtQtQtQtQtQtQtQtQtQtQtQtQtQtQtQtQtQtQtQtQtQtQtQtQtQt",
"QtQtQtQtQtQtQtQtQtQtQtQtQtQtQtQtQtQtQtQtQtQtQtQtQtQtQtQt.f.b.f.b.f.b.fQtQtQtQtQtQtQtQtQtQtQtQtQtQtQtQtQtQtQtQtQtQtQtQtQtQtQtQtQt",
"QtQtQtQtQtQtQtQtQtQtQtQtQtQtQtQtQtQtQtQtQtQtQtQtQtQt.b.f.b.#.b.a.b.#.b.f.bQtQtQtQtQtQtQtQtQtQtQtQtQtQtQtQtQtQtQtQtQtQtQtQtQtQtQt",
"QtQtQtQtQtQtQtQtQtQtQtQtQtQtQtQtQtQtQtQtQtQtQtQtQtQt.f.b.a.b.#.a.#.b.a.b.fQtQtQtQtQtQtQtQtQtQtQtQtQtQtQtQtQtQtQtQtQtQtQtQtQtQtQt",
"QtQtQtQtQtQtQtQtQtQtQtQtQtQtQtQtQtQtQtQtQtQtQtQtQtQt.b.f.b.g.#.g.#.g.b.f.bQtQtQtQtQtQtQtQtQtQtQtQtQtQtQtQtQtQtQtQtQtQtQtQtQtQtQt",
"QtQtQtQtQtQtQtQtQtQtQtQtQtQtQtQtQtQtQt.h.i.jQtQtQt.f.a.g.b.a.b.a.b.a.b.g.a.fQtQtQtQt.k.k.kQtQtQtQtQtQtQtQtQtQtQtQtQtQtQtQtQtQtQt",
"QtQtQtQtQtQtQtQtQtQtQtQtQtQtQtQtQtQtQt.i.l.iQtQtQt.a.b.#.a.m.b.n.n.m.a.#.b.aQtQtQt.k.o.p.kQtQtQtQtQtQtQtQtQtQtQtQtQtQtQtQtQtQtQt",
"QtQtQtQtQtQtQtQtQtQtQtQtQtQtQtQtQtQtQt.q.i.h.jQt.b.f.b.b.#.b.n.r.r.n.#.b.b.fQtQt.k.o.s.o.kQtQtQtQtQtQtQtQtQtQtQtQtQtQtQtQtQtQtQt",
"QtQtQtQtQtQtQtQtQtQtQtQtQtQtQtQtQtQtQtQt.t.j.lQtQt.b.f.#.n.b.r.r.r.r.n.#.f.b.uQt.k.p.o.kQtQtQtQtQtQtQtQtQtQtQtQtQtQtQtQtQtQtQtQt",
"QtQtQtQtQtQtQtQtQtQtQtQtQtQtQtQtQtQtQtQtQt.q.h.iQt.u.f.#.v.w.r.r.r.w.v.#.f.s.u.k.x.p.kQtQtQtQtQtQtQtQtQtQtQtQtQtQtQtQtQtQtQtQtQt",
"QtQtQtQtQtQtQtQtQtQtQtQtQtQtQtQtQtQtQtQtQtQt.t.h.i.u.f.a.h.y.w.n.w.y.h.a.f.y.s.u.x.sQtQtQtQtQtQtQtQtQtQtQtQtQtQtQtQtQtQtQtQtQtQt",
"QtQtQtQtQtQtQtQtQtQtQtQtQtQtQtQtQtQtQtQtQtQtQt.i.i.i.f.g.z.A.n.n.n.A.z.g.f.B.C.p.sQtQtQtQtQtQtQtQtQtQtQtQtQtQtQtQtQtQtQtQtQtQtQt",
"QtQtQtQtQtQtQtQtQtQtQtQtQtQtQtQtQtQtQtQtQtQtQt.t.i.i.f.a.n.r.r.r.r.r.n.a.f.D.E.B.sQtQtQtQtQtQtQtQtQtQtQtQtQtQtQtQtQtQtQtQtQtQtQt",
"QtQtQtQtQtQtQtQtQtQtQtQtQtQtQtQtQtQtQtQtQtQtQtQt.i.i.f.#.w.n.r.r.r.n.w.#.E.F.D.EQtQtQtQtQtQtQtQtQtQtQtQtQtQtQtQtQtQtQtQtQtQtQtQt",
"QtQtQtQtQtQtQtQtQtQtQtQtQtQtQtQtQtQtQtQtQtQtQtQt.i.G.f.#.v.w.n.n.n.w.v.H.I.J.F.D.CQtQtQtQtQtQtQtQtQtQtQtQtQtQtQtQtQtQtQtQtQtQtQt",
"QtQtQtQtQtQtQtQtQtQtQtQtQtQtQtQtQtQtQtQtQtQtQtQt.G.K.f.b.L.M.v.v.v.M.L.H.D.E.E.F.CQtQtQtQtQtQtQtQtQtQtQtQtQtQtQtQtQtQtQtQtQtQtQt",
"QtQtQtQtQtQtQtQtQtQtQtQtQtQtQtQtQtQtQtQtQtQtQtQt.K.K.K.b.e.L.v.w.w.v.e.H.N.O.D.E.BQtQtQtQtQtQtQtQtQtQtQtQtQtQtQtQtQtQtQtQtQtQtQt",
"QtQtQtQtQtQtQtQtQtQtQtQtQtQtQtQtQtQtQtQtQtQtQt.G.P.O.Q.f.K.k.G.v.w.v.R.H.N.C.B.D.IQtQtQtQtQtQtQtQtQtQtQtQtQtQtQtQtQtQtQtQtQtQtQt",
"QtQtQtQtQtQtQtQtQtQtQtQtQtQtQtQtQtQtQtQtQtQtQt.P.P.H.D.f.Q.K.K.G.v.S.b.f.H.I.E.B.C.sQtQtQtQtQtQtQtQtQtQtQtQtQtQtQtQtQtQtQtQtQtQt",
"QtQtQtQtQtQtQtQtQtQtQtQtQtQtQtQtQtQtQtQtQtQt.D.O.T.P.H.P.Q.Q.K.G.e.b.b.H.H.H.I.N.N.sQtQtQtQtQtQtQtQtQtQtQtQtQtQtQtQtQtQtQtQtQtQt",
"QtQtQtQtQtQtQtQtQtQtQtQtQtQtQtQtQtQtQtQtQtQt.P.T.U.D.H.T.f.Q.Q.L.K.K.Q.P.V.W.H.H.H.sQtQtQtQtQtQtQtQtQtQtQtQtQtQtQtQtQtQtQtQtQtQt",
"QtQtQtQtQtQtQtQtQtQtQtQtQtQtQtQtQtQtQtQtQt.f.T.T.T.D.V.X.T.Q.k.L.K.Q.f.X.H.W.H.P.H.sQtQtQtQtQtQtQtQtQtQtQtQtQtQtQtQtQtQtQtQtQtQt",
"QtQtQtQtQtQtQtQtQtQtQtQtQtQtQtQtQtQtQtQtQt.b.T.Y.V.P.H.P.T.T.k.V.V.Q.P.P.H.W.H.P.PQtQtQtQtQtQtQtQtQtQtQtQtQtQtQtQtQtQtQtQtQtQtQt",
"QtQtQtQtQtQtQtQtQtQtQtQtQtQtQtQtQtQtQtQtQt.P.Y.Y.T.H.W.H.T.T.K.G.G.K.T.P.H.W.H.P.HQtQtQtQtQtQtQtQtQtQtQtQtQtQtQtQtQtQtQtQtQtQtQt",
"QtQtQtQtQtQtQtQtQtQtQtQtQtQtQtQtQtQtQtQt.H.T.Y.Y.T.H.W.H.P.P.c.G.c.K.P.P.H.W.Q.Q.KQtQtQtQtQtQtQtQtQtQtQtQtQtQtQtQtQtQtQtQtQtQtQt",
"QtQtQtQtQtQtQtQtQtQtQtQtQtQtQtQtQtQtQtQt.H.T.Y.Y.T.H.W.W.H.K.K.h.h.K.H.H.W.H.P.P.HQtQtQtQtQtQtQtQtQtQtQtQtQtQtQtQtQtQtQtQtQtQtQt",
"QtQtQtQtQtQtQtQtQtQtQtQtQtQtQtQtQtQtQtQt.H.T.Z.K.P.f.W.0.W.1.W.t.Q.V.V.0.W.H.2.#.HQtQtQtQtQtQtQtQtQtQtQtQtQtQtQtQtQtQtQtQtQtQtQt",
"QtQtQtQtQtQtQtQtQtQtQtQtQtQtQtQtQtQtQtQt.H.Q.P.P.H.0.W.W.H.G.W.X.V.G.T.V.H.W.2.S.3QtQtQtQtQtQtQtQtQtQtQtQtQtQtQtQtQtQtQtQtQtQtQt",
"QtQtQtQtQtQtQtQtQtQtQtQtQtQtQtQtQtQtQtQt.K.P.S.S.S.W.s.H.H.K.G.L.c.Z.c.K.V.0.S.2.3QtQtQtQtQtQtQtQtQtQtQtQtQtQtQtQtQtQtQtQtQtQtQt",
"QtQtQtQtQtQtQtQtQtQtQtQtQtQtQtQtQtQtQtQtQt.S.4.5.n.w.W.H.G.K.G.G.c.Z.c.G.H.w.2.S.3QtQtQtQtQtQtQtQtQtQtQtQtQtQtQtQtQtQtQtQtQtQtQt",
"QtQtQtQtQtQtQtQtQtQtQtQtQtQtQtQtQtQtQtQt.6.S.a.5.v.r.W.H.c.K.G.G.0.G.c.P.P.H.3.3QtQtQtQtQtQtQtQtQtQtQtQtQtQtQtQtQtQtQtQtQtQtQtQt",
"QtQtQtQtQtQtQtQtQtQtQtQtQtQtQtQtQtQtQt.6.x.S.n.a.v.W.H.H.7.K.0.G.V.V.Q.8.P.H.W.7.hQtQtQtQtQtQtQtQtQtQtQtQtQtQtQtQtQtQtQtQtQtQtQt",
"QtQtQtQtQtQtQtQtQtQtQtQtQtQtQtQtQtQt.6.x.x.w.m.r.r.W.H.H.K.K.V.G.X.V.Q.8.T.P.H.W.c.iQtQtQtQtQtQtQtQtQtQtQtQtQtQtQtQtQtQtQtQtQtQt",
"QtQtQtQtQtQtQtQtQtQtQtQtQtQtQtQtQt.6.x.p.x.k.w.m.W.H.P.c.K.L.0.L.c.K.Q.9.T.T.P.H.f.#QtQtQtQtQtQtQtQtQtQtQtQtQtQtQtQtQtQtQtQtQtQt",
"QtQtQtQtQtQtQtQtQtQtQtQtQtQtQtQtQt.k.x.p.x.s.s.s.W.H.P.9.Q.L.L.L.K.k.K.Q.9.T.P.H.W.f.hQtQtQtQtQtQtQtQtQtQtQtQtQtQtQtQtQtQtQtQtQt",
"QtQtQtQtQtQtQtQtQtQtQtQtQtQtQtQt.k.x.p.p.K.sQt.W.H.H.P.9.Q.L.s.L.c.K.c.Z.Q.T.T.P.H.b.#.hQtQtQtQtQtQtQtQtQtQtQtQtQtQtQtQtQtQtQtQt",
"QtQtQtQtQtQtQtQtQtQtQtQtQtQtQtQt.k.x.p.x.k.s.s.W.H.P.9.Q.i.t.L.3.o.o.h.Q.Z.9.T.P.H.W.f.#.iQtQtQtQtQtQtQtQtQtQtQtQtQtQtQtQtQtQtQt",
"QtQtQtQtQtQtQtQtQtQtQtQtQtQtQtQt.6.p#..x.s.k.W.H.H.P.9.Q.i.t.3.i.o.o.h.i.Z.Q.T.P.P.H.W##.#QtQtQtQtQtQtQtQtQtQtQtQtQtQtQtQtQtQtQt",
"QtQtQtQtQtQtQtQtQtQtQtQtQtQtQtQt.6.p#..k.x.x.W.H.P.P.Q.e.t.e.3.4.h.h.t.a.Q.Z.9.T.P.H.H.b##.iQtQtQtQtQtQtQtQtQtQtQtQtQtQtQtQtQtQt",
"QtQtQtQtQtQtQtQtQtQtQtQtQtQtQt.6.x#.#..p.x.W.W.H.P.9.Q.R.e.e.3.t.i.i.i.t.e.Z#a.T.P.P.H.W.b.#QtQtQtQtQtQtQtQtQtQtQtQtQtQtQtQtQtQt",
"QtQtQtQtQtQtQtQtQtQtQtQtQtQtQt.6.x#.#..p.p.W.H.H.P.9.W.3.3.3.3.b.i.i.t.S.e.Z.Z.T.T.P.H.H.t.b.iQtQtQtQtQtQtQtQtQtQtQtQtQtQtQtQtQt",
"QtQtQtQtQtQtQtQtQtQtQtQtQtQtQt.6.x#.#..x.x.W.H.P.9.QQt.3.6.R.3.s.3.3.3.2.e.Q.Z.9.T.P.P.H.W.t.tQtQtQtQtQtQtQtQtQtQtQtQtQtQtQtQtQt",
"QtQtQtQtQtQtQtQtQtQtQtQtQtQtQt.k.x.x.x.k.kQt.H.P.9.QQt.3.S.S.3.1.2.2.2.e.eQt.Z#a.T.T.H.H.WQt.t.iQtQtQtQtQtQtQtQtQtQtQtQtQtQtQtQt",
"QtQtQtQtQtQtQtQtQtQtQtQtQtQtQt.k.k.k.kQtQtQt.H.P.QQtQt.3.S.3.3.2.S.S.S.S.3Qt.Z.Z.9.T.H.P.HQtQt.tQtQtQtQtQtQtQtQtQtQtQtQtQtQtQtQt",
"QtQtQtQtQtQtQtQtQtQtQtQtQtQtQtQtQtQtQtQtQtQt#b.9.Q#b#b.3.6.2.3.2.x.x.6.S.3#b.Q.Z#a.T.P.H.HQtQtQtQtQtQtQtQtQtQtQtQtQtQtQtQtQtQtQt",
"QtQtQtQtQtQtQtQtQtQtQtQtQtQtQtQtQtQt#b#b#b#c#d.9.Q#e#f.3.6.6.2.3.t.t.6.S.1#f.Q.Z#a.T.T.H.P#bQtQtQtQtQtQtQtQtQtQtQtQtQtQtQtQtQtQt",
"QtQtQtQtQtQtQtQtQtQtQtQtQtQtQtQt#b#b#d#g#f#h#i#j#k#l#m.3.6.6.2.3.t.S.S.2#n#m#l.Z.Z.T.T.H#g#d#b#bQtQtQtQtQtQtQtQtQtQtQtQtQtQtQtQt",
"QtQtQtQtQtQtQtQtQtQtQtQtQtQtQt#b#d#o#p#q#r#s#t#u#v#w#x#y.3.3.3.3.x.x.6.2#y#x#w.Q.Z.T.T#r#q#p#o#d#bQtQtQtQtQtQtQtQtQtQtQtQtQtQtQt",
"QtQtQtQtQtQtQtQtQtQtQtQtQtQt#b#z#A#B#C#D#E#F#G#H#I#J#K#L#M#N#O.3.6.S.S.2#L#K#J.Q.Z#G#F#E#D#C#P#A#z#bQtQtQtQtQtQtQtQtQtQtQtQtQtQt",
"QtQtQtQtQtQtQtQtQtQtQtQtQt#b#d#Q#R#S#T#U#V#W#X#Y#Z#0#1#1#2#3#3.3.i.h.i.2.u#1#0#Z#Y#X#W#V#U#T#S#R#Q#d#bQtQtQtQtQtQtQtQtQtQtQtQtQt",
"QtQtQtQtQtQtQtQtQtQtQtQtQt#b#4#5#6#7#8#X#0#2#9#9#9#9#9a.a.a.a..3.2.i.3.3.3#9#9#9#9#9#2#0#X#8#7#6#5#4#bQtQtQtQtQtQtQtQtQtQtQtQtQt",
"QtQtQtQtQtQtQtQtQtQtQtQtQt#b#4a##6#7#V#X#0#2#9#9#9#9#9a.a.a.a..3.i.i.i.i.6.3#9#9#9#9#2#0#X#V#7aaa##4#bQtQtQtQtQtQtQtQtQtQtQtQtQt",
"QtQtQtQtQtQtQtQtQtQtQtQtQt#bab#Q#R#S#T#U#V#W#X#Y#Z#0#1#1#2#3#3.3.6.6.6.6.6.3#0#Z#Y#X#W#V#U#T#S#R#Qab#bQtQtQtQtQtQtQtQtQtQtQtQtQt",
"QtQtQtQtQtQtQtQtQtQtQtQtQtQt#b#zac#Pad#Sae#F#G#H#I#J#K#L#M#Naf.3.2.1.s.2.S.3#J#I#H#G#Fae#Sad#Pac#z#bQtQtQtQtQtQtQtQtQtQtQtQtQtQt",
"QtQtQtQtQtQtQtQtQtQtQtQtQtQtQt#bab#f#p#q#ragah#u#v#w#x#y#Tai#7aj.3.3.3.3.3#x#w#v#uahag#r#q#p#fab#bQtQtQtQtQtQtQtQtQtQtQtQtQtQtQt",
"QtQtQtQtQtQtQtQtQtQtQtQtQtQtQtQt#b#b#d#g#f#h#i#j#k#l#m#nakalam#s#samalak#n#m#l#k#j#i#Q#f#g#d#b#bQtQtQtQtQtQtQtQtQtQtQtQtQtQtQtQt",
"QtQtQtQtQtQtQtQtQtQtQtQtQtQtQtQtQtQt#b#b#b#c#d#z#g#e#fanaoaoaoapapaoaoaoan#f#e#g#z#d#c#b#b#bQtQtQtQtQtQtQtQtQtQtQtQtQtQtQtQtQtQt",
"QtQtQtQtQtQtQtQtQtQtQtQtQtQtQtQtQtQtQtQtQtQt#b#b#b#b#b#b#b#b#b#b#b#b#b#b#b#b#b#b#b#bQtQtQtQtQtQtQtQtQtQtQtQtQtQtQtQtQtQtQtQtQtQt",
"QtQtQtQtQtQtQtQtQtQtQtQtQtQtQtQtQtQtQtQtQtQtQtQtQtQtQtQtQtQtQtQtQtQtQtQtQtQtQtQtQtQtQtQtQtQtQtQtQtQtQtQtQtQtQtQtQtQtQtQtQtQtQtQt",
"QtQtQtQtQtQtQtQtQtQtQtQtQtQtQtQtQtQtQtQtQtQtQtQtQtQtQtQtQtQtQtQtQtQtQtQtQtQtQtQtQtQtQtQtQtQtQtQtQtQtQtQtQtQtQtQtQtQtQtQtQtQtQtQt"};
