/* XPM */
static char *dummy[]={
"64 64 146 2",
"Qt c None",
"#c c #000000",
"#d c #000000",
"#e c #000000",
"a. c #000000",
"#f c #000000",
"#0 c #000000",
"#i c #000000",
"an c #000000",
"#q c #000000",
"#g c #000000",
"#h c #000000",
"ao c #000000",
"ap c #000000",
"#j c #000000",
"#O c #000000",
"#C c #000000",
"aa c #000000",
"#r c #000000",
"#k c #000000",
"#1 c #000000",
"#8 c #000000",
"#l c #000000",
"#s c #000000",
"#m c #000000",
"#D c #000000",
"#N c #000000",
"#n c #000000",
"#t c #000000",
"#o c #000000",
"#P c #000000",
"#p c #000000",
"ak c #000000",
"al c #000000",
"am c #000000",
"#u c #000000",
"#B c #000000",
"#E c #000000",
"ab c #000000",
"#v c #000000",
"#A c #000000",
"#2 c #000000",
"#9 c #000000",
"#w c #000000",
"#F c #000000",
"#Q c #000000",
"#x c #000000",
"#y c #000000",
"#G c #000000",
"ac c #000000",
"#z c #000000",
"ah c #000000",
"#R c #000000",
"#H c #000000",
"ai c #000000",
"#3 c #000000",
"aj c #000000",
"#I c #000000",
"#S c #000000",
"#J c #000000",
"#K c #000000",
"#L c #000000",
"#4 c #000000",
"#T c #000000",
"#M c #000000",
"ad c #000000",
"ae c #000000",
"#U c #000000",
"af c #000000",
"ag c #000000",
"#V c #000000",
"#W c #000000",
"#X c #000000",
"#Y c #000000",
"#Z c #000000",
"#5 c #000000",
"a# c #000000",
"#6 c #000000",
"#7 c #000000",
".K c #000008",
".j c #00b39e",
"## c #020101",
".u c #060808",
".G c #061e11",
".l c #06eba8",
".X c #080014",
".s c #080808",
".f c #0c1211",
".z c #0f0e11",
".3 c #131314",
".q c #137177",
".y c #140500",
".b c #1a2520",
".M c #1e194b",
".e c #212828",
".C c #250001",
".L c #260c0c",
".5 c #26252c",
".4 c #282829",
".# c #2b3932",
".c c #313539",
".Z c #35353a",
".Q c #382966",
".d c #3a4a42",
".6 c #3d3d3d",
".k c #444448",
".2 c #463626",
".J c #47474e",
".D c #490008",
".1 c #4a2121",
".8 c #51545b",
".7 c #525351",
".t c #535353",
".S c #554783",
".Y c #562f1d",
".a c #585c5e",
".9 c #655324",
".W c #665e9a",
".v c #6d2029",
".F c #6e0023",
".T c #6f6f76",
".U c #72472d",
".B c #7291ea",
".x c #797a7c",
".g c #798487",
".R c #822d1e",
".i c #838384",
"#. c #8b682a",
".V c #946c45",
"#b c #9e7e55",
".p c #9e99a6",
".0 c #a3a3aa",
".P c #ad473d",
".h c #adb2af",
".H c #b00a35",
".w c #b14432",
"#a c #b1c4ce",
".o c #ccd3d6",
".n c #e49e87",
".A c #e5f4ff",
".m c #e67160",
".E c #e87252",
".r c #f7e0d0",
".N c #ff2f58",
".I c #ffbf75",
".O c #ffef7c",
"QtQtQtQtQtQtQtQtQtQtQtQtQtQtQtQtQtQtQtQtQtQtQtQtQtQtQtQtQtQtQtQtQtQtQtQtQtQtQtQtQtQtQtQtQtQtQtQtQtQtQtQtQtQtQtQtQtQtQtQtQtQtQtQt",
"QtQtQtQtQtQtQtQtQtQtQtQtQtQtQtQtQtQtQtQtQtQtQtQtQtQtQtQtQtQtQtQtQtQtQtQtQtQtQtQtQtQtQtQtQtQtQtQtQtQtQtQtQtQtQtQtQtQtQtQtQtQtQtQt",
"QtQtQtQtQtQtQtQtQtQtQtQtQtQtQtQtQtQtQtQtQtQtQtQtQtQtQtQtQtQt.#.a.bQtQtQtQtQtQtQtQtQtQtQtQtQtQtQtQtQtQtQtQtQtQtQtQtQtQtQtQtQtQtQt",
"QtQtQtQtQtQtQtQtQtQtQtQtQtQtQtQtQtQtQtQtQtQtQtQtQtQtQtQtQt.c.d.e.#.bQtQtQtQtQtQtQtQtQtQtQtQtQtQtQtQtQtQtQtQtQtQtQtQtQtQtQtQtQtQt",
"QtQtQtQtQtQtQtQtQtQtQtQtQtQtQtQtQtQtQtQtQtQtQtQtQtQtQtQt.f.b.f.b.f.b.fQtQtQtQtQtQtQtQtQtQtQtQtQtQtQtQtQtQtQtQtQtQtQtQtQtQtQtQtQt",
"QtQtQtQtQtQtQtQtQtQtQtQtQtQtQtQtQtQtQtQtQtQtQtQtQtQt.b.f.b.#.b.a.b.#.b.f.bQtQtQtQtQtQtQtQtQtQtQtQtQtQtQtQtQtQtQtQtQtQtQtQtQtQtQt",
"QtQtQtQtQtQtQtQtQtQtQtQtQtQtQtQtQtQtQtQtQtQtQtQtQtQt.f.b.a.b.#.a.#.b.a.b.fQtQtQtQtQtQtQtQtQtQtQtQtQtQtQtQtQtQtQtQtQtQtQtQtQtQtQt",
"QtQtQtQtQtQtQtQtQtQtQtQtQtQtQtQtQtQtQtQtQtQtQtQtQtQt.b.f.b.g.#.g.#.g.b.f.bQtQtQtQtQtQtQtQtQtQtQtQtQtQtQtQtQtQtQtQtQtQtQtQtQtQtQt",
"QtQtQtQtQtQtQtQtQtQtQtQtQtQtQtQtQtQtQt.h.i.jQtQtQt.f.a.g.b.a.b.a.b.a.b.g.a.fQtQtQtQt.k.k.kQtQtQtQtQtQtQtQtQtQtQtQtQtQtQtQtQtQtQt",
"QtQtQtQtQtQtQtQtQtQtQtQtQtQtQtQtQtQtQt.i.l.iQtQtQt.a.b.#.a.m.b.n.n.m.a.#.b.aQtQtQt.k.o.p.kQtQtQtQtQtQtQtQtQtQtQtQtQtQtQtQtQtQtQt",
"QtQtQtQtQtQtQtQtQtQtQtQtQtQtQtQtQtQtQt.q.i.h.jQt.b.f.b.b.#.n.b.r.r.n.#.b.b.fQtQt.k.o.s.o.kQtQtQtQtQtQtQtQtQtQtQtQtQtQtQtQtQtQtQt",
"QtQtQtQtQtQtQtQtQtQtQtQtQtQtQtQtQtQtQtQt.t.j.lQtQt.b.f.#.n.r.f.r.r.r.n.#.f.b.uQt.k.p.o.kQtQtQtQtQtQtQtQtQtQtQtQtQtQtQtQtQtQtQtQt",
"QtQtQtQtQtQtQtQtQtQtQtQtQtQtQtQtQtQtQtQtQt.q.h.iQt.u.f.#.v.w.r.r.r.w.v.#.f.u.u.k.x.p.kQtQtQtQtQtQtQtQtQtQtQtQtQtQtQtQtQtQtQtQtQt",
"QtQtQtQtQtQtQtQtQtQtQtQtQtQtQtQtQtQtQtQtQtQt.t.h.i.u.f.a.h.y.w.n.w.y.h.a.f.z.s.u.x.sQtQtQtQtQtQtQtQtQtQtQtQtQtQtQtQtQtQtQtQtQtQt",
"QtQtQtQtQtQtQtQtQtQtQtQtQtQtQtQtQtQtQtQtQtQtQt.i.i.i.f.g.A.B.n.n.n.B.A.g.f.f.C.p.sQtQtQtQtQtQtQtQtQtQtQtQtQtQtQtQtQtQtQtQtQtQtQt",
"QtQtQtQtQtQtQtQtQtQtQtQtQtQtQtQtQtQtQtQtQtQtQt.t.i.i.f.a.n.r.r.r.r.r.n.a.f.b.D.C.sQtQtQtQtQtQtQtQtQtQtQtQtQtQtQtQtQtQtQtQtQtQtQt",
"QtQtQtQtQtQtQtQtQtQtQtQtQtQtQtQtQtQtQtQtQtQtQtQt.i.i.f.#.w.n.r.r.r.n.w.#.f.k.E.F.DQtQtQtQtQtQtQtQtQtQtQtQtQtQtQtQtQtQtQtQtQtQtQt",
"QtQtQtQtQtQtQtQtQtQtQtQtQtQtQtQtQtQtQtQtQtQtQtQt.i.G.f.#.v.w.n.n.n.w.v.#.f.F.H.I.FQtQtQtQtQtQtQtQtQtQtQtQtQtQtQtQtQtQtQtQtQtQtQt",
"QtQtQtQtQtQtQtQtQtQtQtQtQtQtQtQtQtQtQtQtQtQtQtQt.G.J.f.b.K.L.v.v.v.L.K.b.M.I.N.H.E.CQtQtQtQtQtQtQtQtQtQtQtQtQtQtQtQtQtQtQtQtQtQt",
"QtQtQtQtQtQtQtQtQtQtQtQtQtQtQtQtQtQtQtQtQtQtQtQt.J.J.J.b.e.K.v.w.v.K.e.b.M.O.F.N.H.CQtQtQtQtQtQtQtQtQtQtQtQtQtQtQtQtQtQtQtQtQtQt",
"QtQtQtQtQtQtQtQtQtQtQtQtQtQtQtQtQtQtQtQtQtQtQt.G.M.E.J.f.b.G.v.w.v.G.b.f.M.P.O.I.H.DQtQtQtQtQtQtQtQtQtQtQtQtQtQtQtQtQtQtQtQtQtQt",
"QtQtQtQtQtQtQtQtQtQtQtQtQtQtQtQtQtQtQtQtQtQtQt.Q.Q.M.P.f.b.G.G.v.G.b.J.f.M.R.C.D.E.EQtQtQtQtQtQtQtQtQtQtQtQtQtQtQtQtQtQtQtQtQtQt",
"QtQtQtQtQtQtQtQtQtQtQtQtQtQtQtQtQtQtQtQtQtQt.E.I.S.Q.M.Q.T.T.J.G.J.T.k.M.M.M.E.F.F.DQtQtQtQtQtQtQtQtQtQtQtQtQtQtQtQtQtQtQtQtQtQt",
"QtQtQtQtQtQtQtQtQtQtQtQtQtQtQtQtQtQtQtQtQtQt.Q.S.I.E.M.S.f.T.T.K.J.T.b.Q.U.M.M.E.F.FQtQtQtQtQtQtQtQtQtQtQtQtQtQtQtQtQtQtQtQtQtQt",
"QtQtQtQtQtQtQtQtQtQtQtQtQtQtQtQtQtQtQtQtQt.f.S.S.U.P.M.V.S.T.k.K.J.T.f.V.M.M.Q.M.P.RQtQtQtQtQtQtQtQtQtQtQtQtQtQtQtQtQtQtQtQtQtQt",
"QtQtQtQtQtQtQtQtQtQtQtQtQtQtQtQtQtQtQtQtQt.b.S.W.U.M.M.Q.S.J.k.U.U.T.Q.Q.M.M.M.Q.M.MQtQtQtQtQtQtQtQtQtQtQtQtQtQtQtQtQtQtQtQtQtQt",
"QtQtQtQtQtQtQtQtQtQtQtQtQtQtQtQtQtQtQtQtQt.Q.W.W.Q.M.X.M.S.S.J.G.G.J.S.Q.M.X.M.Q.S.MQtQtQtQtQtQtQtQtQtQtQtQtQtQtQtQtQtQtQtQtQtQt",
"QtQtQtQtQtQtQtQtQtQtQtQtQtQtQtQtQtQtQtQt.M.S.W.S.Q.f.z.M.Q.Q.c.G.c.J.Q.M.M.X.M.Q.S.MQtQtQtQtQtQtQtQtQtQtQtQtQtQtQtQtQtQtQtQtQtQt",
"QtQtQtQtQtQtQtQtQtQtQtQtQtQtQtQtQtQtQtQt.M.S.W.S.Q.f.X.X.M.J.h.h.J.J.M.M.X.X.M.Q.Q.MQtQtQtQtQtQtQtQtQtQtQtQtQtQtQtQtQtQtQtQtQtQt",
"QtQtQtQtQtQtQtQtQtQtQtQtQtQtQtQtQtQtQtQt.M.W.W.S.Q.f.X.Y.G.Z.t.t.T.U.U.U.Y.X.J.T.T.JQtQtQtQtQtQtQtQtQtQtQtQtQtQtQtQtQtQtQtQtQtQt",
"QtQtQtQtQtQtQtQtQtQtQtQtQtQtQtQtQtQtQtQt.J.0.0.J.Y.f.X.X.M.J.U.V.U.c.U.M.X.X.M.Q.Q.cQtQtQtQtQtQtQtQtQtQtQtQtQtQtQtQtQtQtQtQtQtQt",
"QtQtQtQtQtQtQtQtQtQtQtQtQtQtQtQtQtQtQtQt.c.Q.Q.c.Y.Y.s.X.1.J.G.K.c.J.2.U.Y.X.s.3.#.MQtQtQtQtQtQtQtQtQtQtQtQtQtQtQtQtQtQtQtQtQtQt",
"QtQtQtQtQtQtQtQtQtQtQtQtQtQtQtQtQtQtQtQt.Q.4.4.4.X.X.X.M.G.J.G.G.#.J.2.G.M.Y.3.5.6.3QtQtQtQtQtQtQtQtQtQtQtQtQtQtQtQtQtQtQtQtQtQt",
"QtQtQtQtQtQtQtQtQtQtQtQtQtQtQtQtQtQtQtQt.4.7.6.n.w.M.M.M.k.J.G.G.c.J.2.Q.M.M.v.3.3.4QtQtQtQtQtQtQtQtQtQtQtQtQtQtQtQtQtQtQtQtQtQt",
"QtQtQtQtQtQtQtQtQtQtQtQtQtQtQtQtQtQtQt.8.4.a.6.v.r.X.M.M.T.J.Y.K.Y.J.2.Q.Q.X.w.v.w.3QtQtQtQtQtQtQtQtQtQtQtQtQtQtQtQtQtQtQtQtQtQt",
"QtQtQtQtQtQtQtQtQtQtQtQtQtQtQtQtQtQt.8.x.4.w.n.v.n.X.M.M.T.J.Y.K.U.T.J.2.Q.M.X.m.v.iQtQtQtQtQtQtQtQtQtQtQtQtQtQtQtQtQtQtQtQtQtQt",
"QtQtQtQtQtQtQtQtQtQtQtQtQtQtQtQtQt.8.x.p.x.w.m.m.k.M.Q.M.T.Y.U.K.V.T.J.2.Q.Q.M.b.f.#QtQtQtQtQtQtQtQtQtQtQtQtQtQtQtQtQtQtQtQtQtQt",
"QtQtQtQtQtQtQtQtQtQtQtQtQtQtQtQtQt.k.x.p.x.s.s.s.X.M.Q.J.T.G.u.K.J.J.T.9.S.Q.M.X.b.f.hQtQtQtQtQtQtQtQtQtQtQtQtQtQtQtQtQtQtQtQtQt",
"QtQtQtQtQtQtQtQtQtQtQtQtQtQtQtQt.k.x.p.p.J.sQt.k.X.Q.Q.T.T.G.K.G.c.J.T#..S.Q.Q.M.t.b.#.hQtQtQtQtQtQtQtQtQtQtQtQtQtQtQtQtQtQtQtQt",
"QtQtQtQtQtQtQtQtQtQtQtQtQtQtQtQt.k.x.p.x.k.s.s.k.M.Q.M.T.G.G.K##.h.h.0.T.9.Q.Q.M.X.t.f.#.iQtQtQtQtQtQtQtQtQtQtQtQtQtQtQtQtQtQtQt",
"QtQtQtQtQtQtQtQtQtQtQtQtQtQtQtQt.8.p#a.x.s.k.x.X.M.Q.M.0.G.G.G.i.h.h.0.0.9.S.Q.Q.MQt.b#b.#QtQtQtQtQtQtQtQtQtQtQtQtQtQtQtQtQtQtQt",
"QtQtQtQtQtQtQtQtQtQtQtQtQtQtQtQt.8.p#a.k.x.x.x.X.Q.S.T.0.h.i##.t.i.i.t.0#..S.Q.Q.M.X.t.b#b.iQtQtQtQtQtQtQtQtQtQtQtQtQtQtQtQtQtQt",
"QtQtQtQtQtQtQtQtQtQtQtQtQtQtQt.8.x#a#a.p.x.x.X.M.Q.S.0.0.i.i##.t.i.i.i.0#..S.S.Q.M.MQt.7.b.#QtQtQtQtQtQtQtQtQtQtQtQtQtQtQtQtQtQt",
"QtQtQtQtQtQtQtQtQtQtQtQtQtQtQt.8.x#a#a.p.p.x.X.M.S.T.0.t.t.t##.e.t.t.t.0.T.9.S.Q.Q.M.XQt.t.b.iQtQtQtQtQtQtQtQtQtQtQtQtQtQtQtQtQt",
"QtQtQtQtQtQtQtQtQtQtQtQtQtQtQt.8.x#a#a.x.x.k.M.Q.S.T.0.e.e.t####.s####.0.0#..S.Q.Q.M.MQtQt.t.tQtQtQtQtQtQtQtQtQtQtQtQtQtQtQtQtQt",
"QtQtQtQtQtQtQtQtQtQtQtQtQtQtQt.k.x.x.x.k.J.X.M.Q.S.0.0######.s.z.3.3.3.3.0#..S.S.Q.Q.M.XQtQt.t.iQtQtQtQtQtQtQtQtQtQtQtQtQtQtQtQt",
"QtQtQtQtQtQtQtQtQtQtQtQtQtQtQt.k.k.k.kQtQt.M.M.Q.S.0.0##.4.4.3##.4.4.8.3.0#..S.S.Q.Q.M.MQtQtQt.tQtQtQtQtQtQtQtQtQtQtQtQtQtQtQtQt",
"QtQtQtQtQtQtQtQtQtQtQtQtQtQtQtQtQtQtQtQtQtQt.M.Q.Q.0Qt##.8.8.3##.x.x.8.3.0.T.9.S.Q.Q.M.MQtQtQtQtQtQtQtQtQtQtQtQtQtQtQtQtQtQtQtQt",
"QtQtQtQtQtQtQtQtQtQtQtQtQtQtQtQtQtQtQtQtQtQt#c.M.T.0#c.s.4.4.3##.4.8.4.3.0.0#..S.S.Q.Q.MQtQtQtQtQtQtQtQtQtQtQtQtQtQtQtQtQtQtQtQt",
"QtQtQtQtQtQtQtQtQtQtQtQtQtQtQtQtQtQt#c#c#c#d#e#f.T.0#g.s.s.z.3##.4.t.4###h.0#..S.S.Q#d#c#c#cQtQtQtQtQtQtQtQtQtQtQtQtQtQtQtQtQtQt",
"QtQtQtQtQtQtQtQtQtQtQtQtQtQtQtQt#c#c#e#i#g#j#k#l#m#n#o##.3##.s##.x.x.x.8#p.0#..S#l#k#j#g#i#e#c#cQtQtQtQtQtQtQtQtQtQtQtQtQtQtQtQt",
"QtQtQtQtQtQtQtQtQtQtQtQtQtQtQt#c#e#q#r#s#t#u#v#w#x#y#z##.8.3.3##.4.8.4#####z#y#x#w#A#B#t#s#r#q#e#cQtQtQtQtQtQtQtQtQtQtQtQtQtQtQt",
"QtQtQtQtQtQtQtQtQtQtQtQtQtQt#c#f#C#D#E#F#G#H#I#J#K#L#M##.8.8.3##.x.h.h.x.5#M#L#K#J#I#H#G#F#E#N#C#f#cQtQtQtQtQtQtQtQtQtQtQtQtQtQt",
"QtQtQtQtQtQtQtQtQtQtQtQtQt#c#e#O#P#Q#R#S#T#U#V#W#X#Y#Z#Z############.3.4##.u#Y#X#W#V#U#T#S#R#Q#P#O#e#cQtQtQtQtQtQtQtQtQtQtQtQtQt",
"QtQtQtQtQtQtQtQtQtQtQtQtQt#c#0#1#2#3#4#V#Y#5#6#6#6#6#6#7#7#7#7##.i.x.x.8.4###6#6#6#6#5#Y#V#4#3#2#1#0#cQtQtQtQtQtQtQtQtQtQtQtQtQt",
"QtQtQtQtQtQtQtQtQtQtQtQtQt#c#0#8#2#3#T#V#Y#5#6#6#6#6#6#7#7#7#7##.8.8.8.8.4###6#6#6#6#5#Y#V#T#3#9#8#0#cQtQtQtQtQtQtQtQtQtQtQtQtQt",
"QtQtQtQtQtQtQtQtQtQtQtQtQt#ca.#O#P#Q#R#S#T#U#V#W#X#Y#Z#Z#5a#a################Y#X#W#V#U#T#S#R#Q#P#Oa.#cQtQtQtQtQtQtQtQtQtQtQtQtQt",
"QtQtQtQtQtQtQtQtQtQtQtQtQtQt#c#faa#Nab#Qac#H#I#J#K#L#Madaeafagagagagafaead#M#L#K#J#I#Hac#Qab#Naa#f#cQtQtQtQtQtQtQtQtQtQtQtQtQtQt",
"QtQtQtQtQtQtQtQtQtQtQtQtQtQtQt#ca.#g#r#s#t#B#A#w#x#y#zah#Rai#3ajaj#3ai#Rah#z#y#x#w#A#B#t#s#r#ga.#cQtQtQtQtQtQtQtQtQtQtQtQtQtQtQt",
"QtQtQtQtQtQtQtQtQtQtQtQtQtQtQtQt#c#c#e#i#g#j#k#l#m#n#o#pakalam#u#uamalak#p#o#n#m#l#k#O#g#i#e#c#cQtQtQtQtQtQtQtQtQtQtQtQtQtQtQtQt",
"QtQtQtQtQtQtQtQtQtQtQtQtQtQtQtQtQtQt#c#c#c#d#e#f#ian#g#haoaoaoapapaoaoao#h#gan#i#f#e#d#c#c#cQtQtQtQtQtQtQtQtQtQtQtQtQtQtQtQtQtQt",
"QtQtQtQtQtQtQtQtQtQtQtQtQtQtQtQtQtQtQtQtQtQt#c#c#c#c#c#c#c#c#c#c#c#c#c#c#c#c#c#c#c#cQtQtQtQtQtQtQtQtQtQtQtQtQtQtQtQtQtQtQtQtQtQt",
"QtQtQtQtQtQtQtQtQtQtQtQtQtQtQtQtQtQtQtQtQtQtQtQtQtQtQtQtQtQtQtQtQtQtQtQtQtQtQtQtQtQtQtQtQtQtQtQtQtQtQtQtQtQtQtQtQtQtQtQtQtQtQtQt",
"QtQtQtQtQtQtQtQtQtQtQtQtQtQtQtQtQtQtQtQtQtQtQtQtQtQtQtQtQtQtQtQtQtQtQtQtQtQtQtQtQtQtQtQtQtQtQtQtQtQtQtQtQtQtQtQtQtQtQtQtQtQtQtQt"};
