/* XPM */
static char *dummy[]={
"64 64 146 2",
"Qt c None",
"#c c #000000",
"#i c #000000",
"#h c #000000",
"ae c #000000",
"#g c #000000",
"#8 c #000000",
"#q c #000000",
"#d c #000000",
"#r c #000000",
"#f c #000000",
"#e c #000000",
"ao c #000000",
"ap c #000000",
"#p c #000000",
"#U c #000000",
"#D c #000000",
"af c #000000",
"#s c #000000",
"#o c #000000",
"#9 c #000000",
"ac c #000000",
"#n c #000000",
"#t c #000000",
"#j c #000000",
"#E c #000000",
"#T c #000000",
"#k c #000000",
"#C c #000000",
"#l c #000000",
"#V c #000000",
"#m c #000000",
"ak c #000000",
"al c #000000",
"am c #000000",
"an c #000000",
"#B c #000000",
"#F c #000000",
"ag c #000000",
"#A c #000000",
"a. c #000000",
"ad c #000000",
"#z c #000000",
"#G c #000000",
"#W c #000000",
"#u c #000000",
"#v c #000000",
"#H c #000000",
"ah c #000000",
"#w c #000000",
"#y c #000000",
"#x c #000000",
"#I c #000000",
"aj c #000000",
"a# c #000000",
"ai c #000000",
"#S c #000000",
"#X c #000000",
"#R c #000000",
"#J c #000000",
"#K c #000000",
"aa c #000000",
"#Y c #000000",
"#L c #000000",
"#Q c #000000",
"#P c #000000",
"#Z c #000000",
"#O c #000000",
"#N c #000000",
"#M c #000000",
"#0 c #000000",
"#1 c #000000",
"#2 c #000000",
"#3 c #000000",
"#7 c #000000",
"#6 c #000000",
"#5 c #000000",
"#4 c #000000",
"ab c #000000",
".L c #000008",
".j c #00b39e",
".3 c #020101",
".u c #060808",
".G c #061e11",
".l c #06eba8",
".R c #080014",
".s c #080808",
".f c #0c1211",
".z c #0f0e11",
".C c #131314",
".q c #137177",
".y c #140500",
".b c #1a2520",
".N c #1e194b",
".e c #212828",
".F c #250001",
".M c #260c0c",
"#b c #26252c",
".U c #282829",
".# c #2b3932",
".c c #313539",
".8 c #35353a",
".W c #382966",
".d c #3a4a42",
".4 c #3d3d3d",
".V c #441400",
".k c #444448",
".7 c #463626",
".K c #47474e",
".D c #490008",
".6 c #51545b",
".5 c #525351",
".t c #535353",
".Y c #554783",
".1 c #562f1d",
".a c #585c5e",
".9 c #655324",
".0 c #665e9a",
".v c #6d2029",
".E c #6e0023",
".T c #6f6f76",
".X c #72472d",
".B c #7291ea",
".x c #797a7c",
".g c #798487",
".S c #822d1e",
".i c #838384",
"#a c #8b682a",
".Z c #946c45",
"## c #9e7e55",
".p c #9e99a6",
".2 c #a3a3aa",
".H c #ad473d",
".h c #adb2af",
".P c #b00a35",
".w c #b14432",
"#. c #b1c4ce",
".o c #ccd3d6",
".n c #e49e87",
".A c #e5f4ff",
".m c #e67160",
".I c #e87252",
".r c #f7e0d0",
".O c #ff2f58",
".J c #ffbf75",
".Q c #ffef7c",
"QtQtQtQtQtQtQtQtQtQtQtQtQtQtQtQtQtQtQtQtQtQtQtQtQtQtQtQtQtQtQtQtQtQtQtQtQtQtQtQtQtQtQtQtQtQtQtQtQtQtQtQtQtQtQtQtQtQtQtQtQtQtQtQt",
"QtQtQtQtQtQtQtQtQtQtQtQtQtQtQtQtQtQtQtQtQtQtQtQtQtQtQtQtQtQtQtQtQtQtQtQtQtQtQtQtQtQtQtQtQtQtQtQtQtQtQtQtQtQtQtQtQtQtQtQtQtQtQtQt",
"QtQtQtQtQtQtQtQtQtQtQtQtQtQtQtQtQtQtQtQtQtQtQtQtQtQtQtQtQtQtQtQtQtQtQtQtQtQtQtQtQtQtQtQtQtQtQtQtQtQtQtQtQtQtQtQtQtQtQtQtQtQtQtQt",
"QtQtQtQtQtQtQtQtQtQtQtQtQtQtQtQtQtQtQtQtQtQtQtQtQtQtQtQtQtQt.#.a.bQtQtQtQtQtQtQtQtQtQtQtQtQtQtQtQtQtQtQtQtQtQtQtQtQtQtQtQtQtQtQt",
"QtQtQtQtQtQtQtQtQtQtQtQtQtQtQtQtQtQtQtQtQtQtQtQtQtQtQtQtQt.c.d.e.#.bQtQtQtQtQtQtQtQtQtQtQtQtQtQtQtQtQtQtQtQtQtQtQtQtQtQtQtQtQtQt",
"QtQtQtQtQtQtQtQtQtQtQtQtQtQtQtQtQtQtQtQtQtQtQtQtQtQtQtQt.f.b.f.b.f.b.fQtQtQtQtQtQtQtQtQtQtQtQtQtQtQtQtQtQtQtQtQtQtQtQtQtQtQtQtQt",
"QtQtQtQtQtQtQtQtQtQtQtQtQtQtQtQtQtQtQtQtQtQtQtQtQtQt.b.f.b.#.b.a.b.#.b.f.bQtQtQtQtQtQtQtQtQtQtQtQtQtQtQtQtQtQtQtQtQtQtQtQtQtQtQt",
"QtQtQtQtQtQtQtQtQtQtQtQtQtQtQtQtQtQtQtQtQtQtQtQtQtQt.f.b.a.b.#.a.#.b.a.b.fQtQtQtQtQtQtQtQtQtQtQtQtQtQtQtQtQtQtQtQtQtQtQtQtQtQtQt",
"QtQtQtQtQtQtQtQtQtQtQtQtQtQtQtQtQtQtQtQtQtQtQtQtQtQt.b.f.b.g.#.g.#.g.b.f.bQtQtQtQtQtQtQtQtQtQtQtQtQtQtQtQtQtQtQtQtQtQtQtQtQtQtQt",
"QtQtQtQtQtQtQtQtQtQtQtQtQtQtQtQtQtQtQt.h.i.jQtQtQt.f.a.g.b.a.b.a.b.a.b.g.a.fQtQtQtQt.k.k.kQtQtQtQtQtQtQtQtQtQtQtQtQtQtQtQtQtQtQt",
"QtQtQtQtQtQtQtQtQtQtQtQtQtQtQtQtQtQtQt.i.l.iQtQtQt.a.b.#.a.m.b.n.n.m.a.#.b.aQtQtQt.k.o.p.kQtQtQtQtQtQtQtQtQtQtQtQtQtQtQtQtQtQtQt",
"QtQtQtQtQtQtQtQtQtQtQtQtQtQtQtQtQtQtQt.q.i.h.jQt.b.f.b.b.#.r.n.b.r.n.#.b.b.fQtQt.k.o.s.o.kQtQtQtQtQtQtQtQtQtQtQtQtQtQtQtQtQtQtQt",
"QtQtQtQtQtQtQtQtQtQtQtQtQtQtQtQtQtQtQtQt.t.j.lQtQt.b.f.#.n.r.r.b.r.r.n.#.f.b.uQt.k.p.o.kQtQtQtQtQtQtQtQtQtQtQtQtQtQtQtQtQtQtQtQt",
"QtQtQtQtQtQtQtQtQtQtQtQtQtQtQtQtQtQtQtQtQt.q.h.iQt.u.f.#.v.w.r.r.r.w.v.#.f.u.u.k.x.p.kQtQtQtQtQtQtQtQtQtQtQtQtQtQtQtQtQtQtQtQtQt",
"QtQtQtQtQtQtQtQtQtQtQtQtQtQtQtQtQtQtQtQtQtQt.t.h.i.u.f.a.h.y.w.n.w.y.h.a.f.z.s.u.x.sQtQtQtQtQtQtQtQtQtQtQtQtQtQtQtQtQtQtQtQtQtQt",
"QtQtQtQtQtQtQtQtQtQtQtQtQtQtQtQtQtQtQtQtQtQtQt.i.i.i.f.g.A.B.n.n.n.B.A.g.f.C.s.p.sQtQtQtQtQtQtQtQtQtQtQtQtQtQtQtQtQtQtQtQtQtQtQt",
"QtQtQtQtQtQtQtQtQtQtQtQtQtQtQtQtQtQtQtQtQtQtQt.t.i.i.f.a.n.r.r.r.r.r.n.a.f.b.k.D.sQtQtQtQtQtQtQtQtQtQtQtQtQtQtQtQtQtQtQtQtQtQtQt",
"QtQtQtQtQtQtQtQtQtQtQtQtQtQtQtQtQtQtQtQtQtQtQtQt.i.i.f.#.w.n.r.r.r.n.w.#.f.k.x.E.FQtQtQtQtQtQtQtQtQtQtQtQtQtQtQtQtQtQtQtQtQtQtQt",
"QtQtQtQtQtQtQtQtQtQtQtQtQtQtQtQtQtQtQtQtQtQtQtQt.i.G.f.#.v.w.n.n.n.w.v.#.f.G.H.I.J.DQtQtQtQtQtQtQtQtQtQtQtQtQtQtQtQtQtQtQtQtQtQt",
"QtQtQtQtQtQtQtQtQtQtQtQtQtQtQtQtQtQtQtQtQtQtQtQt.G.K.f.b.L.M.v.v.v.M.L.b.f.N.J.O.P.IQtQtQtQtQtQtQtQtQtQtQtQtQtQtQtQtQtQtQtQtQtQt",
"QtQtQtQtQtQtQtQtQtQtQtQtQtQtQtQtQtQtQtQtQtQtQt.G.K.K.K.b.e.v.w.w.v.L.e.b.K.N.Q.E.O.P.FQtQtQtQtQtQtQtQtQtQtQtQtQtQtQtQtQtQtQtQtQt",
"QtQtQtQtQtQtQtQtQtQtQtQtQtQtQtQtQtQtQtQtQtQtQt.R.N.H.S.f.e.v.w.v.G.k.K.f.T.N.H.Q.Q.O.DQtQtQtQtQtQtQtQtQtQtQtQtQtQtQtQtQtQtQtQtQt",
"QtQtQtQtQtQtQtQtQtQtQtQtQtQtQtQtQtQtQtQtQtQtQt.N.N.N.N.f.b.U.v.G.K.K.T.f.I.N.I.F.D.Q.JQtQtQtQtQtQtQtQtQtQtQtQtQtQtQtQtQtQtQtQtQt",
"QtQtQtQtQtQtQtQtQtQtQtQtQtQtQtQtQtQtQtQtQtQt.V.W.W.N.N.N.b.e.e.G.K.T.T.W.N.W.N.I.P.E.DQtQtQtQtQtQtQtQtQtQtQtQtQtQtQtQtQtQtQtQtQt",
"QtQtQtQtQtQtQtQtQtQtQtQtQtQtQtQtQtQtQtQtQtQt.R.S.V.R.X.W.T.K.K.L.T.T.f.Y.N.I.Q.J.P.P.EQtQtQtQtQtQtQtQtQtQtQtQtQtQtQtQtQtQtQtQtQt",
"QtQtQtQtQtQtQtQtQtQtQtQtQtQtQtQtQtQtQtQtQtQt.N.W.N.R.N.Z.f.T.K.L.k.T.Y.Z.X.I.Y.N.J.P.EQtQtQtQtQtQtQtQtQtQtQtQtQtQtQtQtQtQtQtQtQt",
"QtQtQtQtQtQtQtQtQtQtQtQtQtQtQtQtQtQtQtQtQtQt.W.W.N.R.N.W.W.T.X.X.K.Y.Y.W.N.W.X.0.N.I.HQtQtQtQtQtQtQtQtQtQtQtQtQtQtQtQtQtQtQtQtQt",
"QtQtQtQtQtQtQtQtQtQtQtQtQtQtQtQtQtQtQtQtQtQt.N.W.N.R.N.W.Y.K.G.G.K.Y.Y.N.R.N.Y.0.0.WQtQtQtQtQtQtQtQtQtQtQtQtQtQtQtQtQtQtQtQtQtQt",
"QtQtQtQtQtQtQtQtQtQtQtQtQtQtQtQtQtQtQtQtQtQt.K.T.T.R.N.W.W.K.c.G.c.W.W.N.R.N.Y.0.0.Y.NQtQtQtQtQtQtQtQtQtQtQtQtQtQtQtQtQtQtQtQtQt",
"QtQtQtQtQtQtQtQtQtQtQtQtQtQtQtQtQtQtQtQtQtQt.N.W.W.N.R.N.N.K.h.h.K.K.N.R.R.N.Y.0.0.Y.NQtQtQtQtQtQtQtQtQtQtQtQtQtQtQtQtQtQtQtQtQt",
"QtQtQtQtQtQtQtQtQtQtQtQtQtQtQtQtQtQtQtQtQtQt.N.#.C.N.R.1.X.X.T.t.R.z.R.1.R.f.W.K.2.Y.NQtQtQtQtQtQtQtQtQtQtQtQtQtQtQtQtQtQtQtQtQt",
"QtQtQtQtQtQtQtQtQtQtQtQtQtQtQtQtQtQtQtQtQtQt.3.U.C.R.N.X.Y.G.X.Z.R.G.N.R.R.1.N.W.W.T.NQtQtQtQtQtQtQtQtQtQtQtQtQtQtQtQtQtQtQtQtQt",
"QtQtQtQtQtQtQtQtQtQtQtQtQtQtQtQtQtQtQtQtQtQt.3.C.U.1.X.K.c.2.c.L.G.K.N.N.f.R.U.U.U.W.KQtQtQtQtQtQtQtQtQtQtQtQtQtQtQtQtQtQtQtQtQt",
"QtQtQtQtQtQtQtQtQtQtQtQtQtQtQtQtQtQtQtQtQt.k.3.U.C.w.N.G.c.2.c.G.G.K.G.N.R.w.n.4.5.UQtQtQtQtQtQtQtQtQtQtQtQtQtQtQtQtQtQtQtQtQtQt",
"QtQtQtQtQtQtQtQtQtQtQtQtQtQtQtQtQtQtQtQt.6.x.x.3.v.N.W.W.c.G.1.G.G.K.c.N.R.r.v.4.a.UQtQtQtQtQtQtQtQtQtQtQtQtQtQtQtQtQtQtQtQtQtQt",
"QtQtQtQtQtQtQtQtQtQtQtQtQtQtQtQtQtQtQt.6.x.x.x.x.R.N.W.7.T.X.X.G.1.K.8.N.N.R.v.a.n.UQtQtQtQtQtQtQtQtQtQtQtQtQtQtQtQtQtQtQtQtQtQt",
"QtQtQtQtQtQtQtQtQtQtQtQtQtQtQtQtQtQt.6.x.x.x.k.R.N.W.Y.7.T.X.Z.G.X.K.K.N.N.R.r.r.m.wQtQtQtQtQtQtQtQtQtQtQtQtQtQtQtQtQtQtQtQtQtQt",
"QtQtQtQtQtQtQtQtQtQtQtQtQtQtQtQtQt.6.x.p.x.k.s.N.W.Y.Y.9.T.K.c.L.1.L.K.c.W.N.R.m.w.#QtQtQtQtQtQtQtQtQtQtQtQtQtQtQtQtQtQtQtQtQtQt",
"QtQtQtQtQtQtQtQtQtQtQtQtQtQtQtQtQt.k.x.p.x.s.R.N.W.Y.9.T.K.k.K.L.L.L.T.9.W.N.R.t.b.f.hQtQtQtQtQtQtQtQtQtQtQtQtQtQtQtQtQtQtQtQtQt",
"QtQtQtQtQtQtQtQtQtQtQtQtQtQtQtQt.k.x.p.p.K.s.N.W.Y.Y.T.2.c.K.c.L.s.L.T.9.W.N.N.R.t.b.#.hQtQtQtQtQtQtQtQtQtQtQtQtQtQtQtQtQtQtQtQt",
"QtQtQtQtQtQtQtQtQtQtQtQtQtQtQtQt.k.x.p.x.k.R.N.W.Y.9.2.T.h.o.o.3.L.t.i.T.9.W.N.RQt.t.f.#.iQtQtQtQtQtQtQtQtQtQtQtQtQtQtQtQtQtQtQt",
"QtQtQtQtQtQtQtQtQtQtQtQtQtQtQtQt.6.p#..x.R.N.W.W.Y.T.2.i.h.o.o.i.3.t.i.T.9.W.N.N.RQt.b##.#QtQtQtQtQtQtQtQtQtQtQtQtQtQtQtQtQtQtQt",
"QtQtQtQtQtQtQtQtQtQtQtQtQtQtQtQt.6.p#..k.N.N.W.Y.9.2.T.a.t.h.h.5.3.e.t.e.T.W.W.N.RQt.5.b##.iQtQtQtQtQtQtQtQtQtQtQtQtQtQtQtQtQtQt",
"QtQtQtQtQtQtQtQtQtQtQtQtQtQtQt.6.x#.#..R.N.W.W.Y#a.2.e.t.i.i.i.t.3.e.e#b.T.9.W.N.R.RQt.t.b.#QtQtQtQtQtQtQtQtQtQtQtQtQtQtQtQtQtQt",
"QtQtQtQtQtQtQtQtQtQtQtQtQtQtQt.6.x#.#..N.N.W.Y.Y.2.2.e.U.t.i.i.b.3.3.3.3.R.9.W.N.N.RQtQt.t.b.iQtQtQtQtQtQtQtQtQtQtQtQtQtQtQtQtQt",
"QtQtQtQtQtQtQtQtQtQtQtQtQtQtQt.6.x#..R.N.W.W.Y.9.2.T.e.C.3.3.3.s.3#b.6.3Qt.T.9.W.N.RQtQtQt.t.tQtQtQtQtQtQtQtQtQtQtQtQtQtQtQtQtQt",
"QtQtQtQtQtQtQtQtQtQtQtQtQtQtQt.k.x.x.R.N.N.Y.Y#a.2Qt.e.e.C.C.C.C.3.U.U.3Qt.T.9.W.NQtQtQtQtQt.t.iQtQtQtQtQtQtQtQtQtQtQtQtQtQtQtQt",
"QtQtQtQtQtQtQtQtQtQtQtQtQtQtQt.k.k.k.N.W.N.Y.9.2.2Qt.3.U.U.U.U.C.3.3.U.3QtQt.T.W.NQtQtQtQtQtQt.tQtQtQtQtQtQtQtQtQtQtQtQtQtQtQtQt",
"QtQtQtQtQtQtQtQtQtQtQtQtQtQtQtQtQtQt.N.N.W.Y#a.2.T#c.3.U.6.x.x.C.3.C.6.3#c#c.T.9#c#cQtQtQtQtQtQtQtQtQtQtQtQtQtQtQtQtQtQtQtQtQtQt",
"QtQtQtQtQtQtQtQtQtQtQtQtQtQtQtQtQtQt.W.N.Y.Y#a.2.T#d.s.U.6.t.t.3.C.6.6.3#e#f.T.9#g#h#i#c#c#cQtQtQtQtQtQtQtQtQtQtQtQtQtQtQtQtQtQt",
"QtQtQtQtQtQtQtQtQtQtQtQtQtQtQtQt#c#c#h.N.Y.Y.2.2#j#k#l.b.U.U.t.3.C.6.6.3#m#l#k#j#n#o#p#f#q#h#c#cQtQtQtQtQtQtQtQtQtQtQtQtQtQtQtQt",
"QtQtQtQtQtQtQtQtQtQtQtQtQtQtQt#c#h#r#s#t.Y.Y.2.T#u#v#w.C.6.x.x.3.3.3.3#x#y#w#v#u#z#A#B#C#t#s#r#h#cQtQtQtQtQtQtQtQtQtQtQtQtQtQtQt",
"QtQtQtQtQtQtQtQtQtQtQtQtQtQt#c#g#D#E#F#G#H#I.2.T#J#K#L.C.U.U.6.3#M#N#O#P#Q#L#K#J#R#S#I#H#G#F#T#D#g#cQtQtQtQtQtQtQtQtQtQtQtQtQtQt",
"QtQtQtQtQtQtQtQtQtQtQtQtQt#c#h#U#V#W#x#X#Y#Z#0#1#2#3.3.C.i.h.i.3#4#5#5#6#7#7#3#2#1#0#Z#Y#X#x#W#V#U#h#cQtQtQtQtQtQtQtQtQtQtQtQtQt",
"QtQtQtQtQtQtQtQtQtQtQtQtQt#c#8#9a.a#aa#0#3#6#4#4#4#4.3.3.3.i.C.3ababababab#4#4#4#4#4#6#3#0aaa#a.#9#8#cQtQtQtQtQtQtQtQtQtQtQtQtQt",
"QtQtQtQtQtQtQtQtQtQtQtQtQt#c#8aca.a##Y#0#3#6#4#4#4.3.6.i.i.i.i.3ababababab#4#4#4#4#4#6#3#0#Ya#adac#8#cQtQtQtQtQtQtQtQtQtQtQtQtQt",
"QtQtQtQtQtQtQtQtQtQtQtQtQt#cae#U#V#W#x#X#Y#Z#0#1#2.3.6.6.6.6.6.3#4#5#5#6#7#7#3#2#1#0#Z#Y#X#x#W#V#Uae#cQtQtQtQtQtQtQtQtQtQtQtQtQt",
"QtQtQtQtQtQtQtQtQtQtQtQtQtQt#c#gaf#Tag#Wah#I#S#R#J.3.U.C.z.s.C.3#M#M#O#P#Q#L#K#J#R#S#Iah#Wag#Taf#g#cQtQtQtQtQtQtQtQtQtQtQtQtQtQt",
"QtQtQtQtQtQtQtQtQtQtQtQtQtQtQt#cae#f#s#t#C#B#A#z#u#v.3.3.3.3.3aiaia#aj#x#y#w#v#u#z#A#B#C#t#s#fae#cQtQtQtQtQtQtQtQtQtQtQtQtQtQtQt",
"QtQtQtQtQtQtQtQtQtQtQtQtQtQtQtQt#c#c#h#q#f#p#o#n#j#k#l#makalamananamalak#m#l#k#j#n#o#U#f#q#h#c#cQtQtQtQtQtQtQtQtQtQtQtQtQtQtQtQt",
"QtQtQtQtQtQtQtQtQtQtQtQtQtQtQtQtQtQt#c#c#c#i#h#g#q#d#f#eaoaoaoapapaoaoao#e#f#d#q#g#h#i#c#c#cQtQtQtQtQtQtQtQtQtQtQtQtQtQtQtQtQtQt",
"QtQtQtQtQtQtQtQtQtQtQtQtQtQtQtQtQtQtQtQtQtQt#c#c#c#c#c#c#c#c#c#c#c#c#c#c#c#c#c#c#c#cQtQtQtQtQtQtQtQtQtQtQtQtQtQtQtQtQtQtQtQtQtQt",
"QtQtQtQtQtQtQtQtQtQtQtQtQtQtQtQtQtQtQtQtQtQtQtQtQtQtQtQtQtQtQtQtQtQtQtQtQtQtQtQtQtQtQtQtQtQtQtQtQtQtQtQtQtQtQtQtQtQtQtQtQtQtQtQt",
"QtQtQtQtQtQtQtQtQtQtQtQtQtQtQtQtQtQtQtQtQtQtQtQtQtQtQtQtQtQtQtQtQtQtQtQtQtQtQtQtQtQtQtQtQtQtQtQtQtQtQtQtQtQtQtQtQtQtQtQtQtQtQtQt"};
