/* XPM */
static char *dummy[]={
"64 64 135 2",
"Qt c None",
".1 c #000000",
".2 c #000000",
".3 c #000000",
"#S c #000000",
"#i c #000000",
"#I c #000000",
".4 c #000000",
"ab c #000000",
"#. c #000000",
".5 c #000000",
"ac c #000000",
"ad c #000000",
"ae c #000000",
".6 c #000000",
"#v c #000000",
"#j c #000000",
"#U c #000000",
"## c #000000",
".7 c #000000",
"#J c #000000",
"#Q c #000000",
".8 c #000000",
"#a c #000000",
"#6 c #000000",
"#k c #000000",
"#u c #000000",
"#7 c #000000",
"#b c #000000",
"#8 c #000000",
"#w c #000000",
"#9 c #000000",
"a. c #000000",
"a# c #000000",
"aa c #000000",
"#c c #000000",
"#h c #000000",
"#l c #000000",
"#V c #000000",
"#d c #000000",
"#1 c #000000",
"#K c #000000",
"#R c #000000",
"#e c #000000",
"#m c #000000",
"#x c #000000",
"#f c #000000",
"#g c #000000",
"#n c #000000",
"#W c #000000",
"#2 c #000000",
"#3 c #000000",
"#y c #000000",
"#o c #000000",
"#4 c #000000",
"#L c #000000",
"#5 c #000000",
"#p c #000000",
"#z c #000000",
"#q c #000000",
"#r c #000000",
"#s c #000000",
"#M c #000000",
"#A c #000000",
"#t c #000000",
"#X c #000000",
"#Y c #000000",
"#B c #000000",
"#Z c #000000",
"#0 c #000000",
"#C c #000000",
"#D c #000000",
"#E c #000000",
"#F c #000000",
"#G c #000000",
"#N c #000000",
"#T c #000000",
"#O c #000000",
"#P c #000000",
".R c #005477",
".j c #00b39e",
"#H c #020101",
".Q c #060808",
".F c #061e11",
".o c #06eba8",
".S c #080014",
".q c #080808",
".# c #0c1211",
".Z c #0f0e11",
".0 c #120034",
".t c #131314",
".u c #137177",
".a c #1a2520",
".x c #1e194b",
".f c #212828",
".A c #250001",
".U c #282829",
".b c #2b3932",
".s c #313539",
".W c #35353a",
".H c #382966",
".c c #3a4a42",
".r c #3d3d3d",
".i c #444448",
".e c #47474e",
".y c #490008",
".n c #51545b",
".V c #525351",
".v c #535353",
".I c #554783",
".T c #562f1d",
".d c #585c5e",
".9 c #655324",
".P c #665e9a",
".z c #6e0023",
".M c #6f6f76",
".w c #797a7c",
".g c #798487",
".N c #822d1e",
".k c #838384",
".h c #9ca9ae",
".Y c #9e7e55",
".m c #9e99a6",
".L c #a3a3aa",
".J c #ad473d",
".l c #adb2af",
".C c #b00a35",
".E c #bea375",
".O c #c91c23",
".p c #ccd3d6",
".X c #e49e87",
".K c #e5f4ff",
".B c #e87252",
".D c #ff2f58",
".G c #ffbf75",
"QtQtQtQtQtQtQtQtQtQtQtQtQtQtQtQtQtQtQtQtQtQtQtQtQtQtQtQtQtQtQtQtQtQtQtQtQtQtQtQtQtQtQtQtQtQtQtQtQtQtQtQtQtQtQtQtQtQtQtQtQtQtQtQt",
"QtQtQtQtQtQtQtQtQtQtQtQtQtQtQtQtQtQtQtQtQtQtQtQtQtQtQtQtQtQtQtQtQtQtQtQtQtQtQtQtQtQtQtQtQtQtQtQtQtQtQtQtQtQtQtQtQtQtQtQtQtQtQtQt",
"QtQtQtQtQtQtQtQtQtQtQtQtQtQtQtQtQtQtQtQtQtQtQtQtQtQtQtQtQtQt.#.#.#QtQtQtQtQtQtQtQtQtQtQtQtQtQtQtQtQtQtQtQtQtQtQtQtQtQtQtQtQtQtQt",
"QtQtQtQtQtQtQtQtQtQtQtQtQtQtQtQtQtQtQtQtQtQtQtQtQtQtQtQt.#.a.b.a.a.a.#QtQtQtQtQtQtQtQtQtQtQtQtQtQtQtQtQtQtQtQtQtQtQtQtQtQtQtQtQt",
"QtQtQtQtQtQtQtQtQtQtQtQtQtQtQtQtQtQtQtQtQtQtQtQtQtQt.a.#.a.c.a.c.c.a.a.#.aQtQtQtQtQtQtQtQtQtQtQtQtQtQtQtQtQtQtQtQtQtQtQtQtQtQtQt",
"QtQtQtQtQtQtQtQtQtQtQtQtQtQtQtQtQtQtQtQtQtQtQtQtQtQt.#.a.d.d.b.d.d.e.a.f.#QtQtQtQtQtQtQtQtQtQtQtQtQtQtQtQtQtQtQtQtQtQtQtQtQtQtQt",
"QtQtQtQtQtQtQtQtQtQtQtQtQtQtQtQtQtQtQtQtQtQtQtQtQtQt.a.d.c.a.b.g.g.d.a.c.aQtQtQtQtQtQtQtQtQtQtQtQtQtQtQtQtQtQtQtQtQtQtQtQtQtQtQt",
"QtQtQtQtQtQtQtQtQtQtQtQtQtQtQtQtQtQtQtQtQtQtQtQtQt.#.b.c.a.a.c.g.h.d.b.a.b.#QtQtQtQtQtQtQtQtQtQtQtQtQtQtQtQtQtQtQtQtQtQtQtQtQtQt",
"QtQtQtQtQtQtQtQtQtQtQtQtQtQtQtQtQtQtQtQtQtQtQtQtQt.a.c.b.#.b.c.g.h.c.b.#.c.aQtQtQtQtQtQtQtQtQtQtQtQtQtQtQtQtQtQtQtQtQtQtQtQtQtQt",
"QtQtQtQtQtQtQtQtQtQtQtQtQtQtQtQtQtQt.i.iQtQtQtQt.a.#.b.a.#.b.c.d.g.c.f.#.b.#QtQtQt.j.k.lQtQtQtQtQtQtQtQtQtQtQtQtQtQtQtQtQtQtQtQt",
"QtQtQtQtQtQtQtQtQtQtQtQtQtQtQtQtQt.i.m.m.iQtQtQt.#.b.a.#.a.b.c.n.g.b.a.#.a.bQtQtQt.k.o.kQtQtQtQtQtQtQtQtQtQtQtQtQtQtQtQtQtQtQtQt",
"QtQtQtQtQtQtQtQtQtQtQtQtQtQtQtQtQt.i.p.q.p.qQt.#Qt.#.a.#.a.b.r.c.d.s.#.t.a.#QtQt.j.l.k.uQtQtQtQtQtQtQtQtQtQtQtQtQtQtQtQtQtQtQtQt",
"QtQtQtQtQtQtQtQtQtQtQtQtQtQtQtQtQtQt.i.p.m.iQtQtQt.#.#.#.a.a.d.b.d.s.#.#.#.#QtQt.o.j.vQtQtQtQtQtQtQtQtQtQtQtQtQtQtQtQtQtQtQtQtQt",
"QtQtQtQtQtQtQtQtQtQtQtQtQtQtQtQtQtQtQt.q.r.w.qQtQt.q.i.r.r.a.d.c.d.s.#.t.#QtQt.v.l.vQtQtQtQtQtQtQtQtQtQtQtQtQtQtQtQtQtQtQtQtQtQt",
"QtQtQtQtQtQtQtQtQtQtQtQtQtQtQtQtQtQtQtQt.q.i.m.qQtQt.x.q.m.#.d.b.d.b.#.x.xQt.k.u.vQtQtQtQtQtQtQtQtQtQtQtQtQtQtQtQtQtQtQtQtQtQtQt",
"QtQtQtQtQtQtQtQtQtQtQtQtQtQtQtQtQtQtQtQtQt.q.i.i.q.x.x.x.i.#.c.b.c.f.#.x.x.v.k.vQtQtQtQtQtQtQtQtQtQtQtQtQtQtQtQtQtQtQtQtQtQtQtQt",
"QtQtQtQtQtQtQtQtQtQtQtQtQtQtQtQtQtQtQtQtQt.y.q.m.i.q.x.x.q.#.b.r.c.f.#.l.l.l.vQtQtQtQtQtQtQtQtQtQtQtQtQtQtQtQtQtQtQtQtQtQtQtQtQt",
"QtQtQtQtQtQtQtQtQtQtQtQtQtQtQtQtQtQtQtQtQt.z.q.m.i.q.q.x.x.#.b.c.b.a.f.a.a.k.lQtQtQtQtQtQtQtQtQtQtQtQtQtQtQtQtQtQtQtQtQtQtQtQtQt",
"QtQtQtQtQtQtQtQtQtQtQtQtQtQtQtQtQtQtQtQt.A.B.C.q.i.m.w.q.x.t.a.c.b.c.b.#.k.a.lQtQtQtQtQtQtQtQtQtQtQtQtQtQtQtQtQtQtQtQtQtQtQtQtQt",
"QtQtQtQtQtQtQtQtQtQtQtQtQtQtQtQtQtQtQtQt.A.C.D.q.m.w.w.w.q.#.a.d.b.c.b.#.E.a.k.FQtQtQtQtQtQtQtQtQtQtQtQtQtQtQtQtQtQtQtQtQtQtQtQt",
"QtQtQtQtQtQtQtQtQtQtQtQtQtQtQtQtQtQtQtQt.y.C.G.q.w.m.i.w.w.#.b.d.b.d.r.a.v.v.v.HQtQtQtQtQtQtQtQtQtQtQtQtQtQtQtQtQtQtQtQtQtQtQtQt",
"QtQtQtQtQtQtQtQtQtQtQtQtQtQtQtQtQtQtQtQt.B.G.y.A.i.p.w.e.i.#.r.d.b.d.b.a.v.x.I.I.JQtQtQtQtQtQtQtQtQtQtQtQtQtQtQtQtQtQtQtQtQtQtQt",
"QtQtQtQtQtQtQtQtQtQtQtQtQtQtQtQtQtQtQtQt.y.q.z.G.q.K.m.q.q.f.c.d.b.b.d.b.H.x.J.B.IQtQtQtQtQtQtQtQtQtQtQtQtQtQtQtQtQtQtQtQtQtQtQt",
"QtQtQtQtQtQtQtQtQtQtQtQtQtQtQtQtQtQtQtQt.z.q.q.q.q.p.m.q.H.#.b.d.c.a.d.#.b.x.I.L.MQtQtQtQtQtQtQtQtQtQtQtQtQtQtQtQtQtQtQtQtQtQtQt",
"QtQtQtQtQtQtQtQtQtQtQtQtQtQtQtQtQtQtQtQt.N.O.q.i.q.i.K.q.q.#.b.c.d.a.c.#.b.x.H.P.I.HQtQtQtQtQtQtQtQtQtQtQtQtQtQtQtQtQtQtQtQtQtQt",
"QtQtQtQtQtQtQtQtQtQtQtQtQtQtQtQtQtQtQtQt.x.q.q.w.q.w.i.m.q.a.b.b.d.#.c.Q.b.f.x.I.P.HQtQtQtQtQtQtQtQtQtQtQtQtQtQtQtQtQtQtQtQtQtQt",
"QtQtQtQtQtQtQtQtQtQtQtQtQtQtQtQtQtQtQtQtQt.q.O.i.R.i.i.p.K.l.a.b.d.#.b.Q.b.a.x.I.x.HQtQtQtQtQtQtQtQtQtQtQtQtQtQtQtQtQtQtQtQtQtQt",
"QtQtQtQtQtQtQtQtQtQtQtQtQtQtQtQtQtQtQtQt.S.x.q.w.x.R.q.w.l.k.#.b.c.Q.b.Q.a.b.x.H.H.HQtQtQtQtQtQtQtQtQtQtQtQtQtQtQtQtQtQtQtQtQtQt",
"QtQtQtQtQtQtQtQtQtQtQtQtQtQtQtQtQtQtQtQt.S.x.q.i.w.q.i.l.k.a.#.f.c.Q.a.Q.#.s.e.x.x.HQtQtQtQtQtQtQtQtQtQtQtQtQtQtQtQtQtQtQtQtQtQt",
"QtQtQtQtQtQtQtQtQtQtQtQtQtQtQtQtQtQtQtQt.x.x.x.x.q.n.l.k.a.a.a.f.b.a.a.#.t.b.w.M.M.eQtQtQtQtQtQtQtQtQtQtQtQtQtQtQtQtQtQtQtQtQtQt",
"QtQtQtQtQtQtQtQtQtQtQtQtQtQtQtQtQtQtQtQt.e.L.L.e.T.q.k.#.#.v.b.f.a.c.Q.q.Q.Q.b.x.x.sQtQtQtQtQtQtQtQtQtQtQtQtQtQtQtQtQtQtQtQtQtQt",
"QtQtQtQtQtQtQtQtQtQtQtQtQtQtQtQtQtQtQtQt.s.x.x.s.T.l.#.a.v.q.a.b.#.b.#.Q.Q.m.a.t.b.xQtQtQtQtQtQtQtQtQtQtQtQtQtQtQtQtQtQtQtQtQtQt",
"QtQtQtQtQtQtQtQtQtQtQtQtQtQtQtQtQtQtQtQt.x.U.U.U.l.b.#.v.T.T.#.b.f.b.t.Q.K.K.a.i.r.tQtQtQtQtQtQtQtQtQtQtQtQtQtQtQtQtQtQtQtQtQtQt",
"QtQtQtQtQtQtQtQtQtQtQtQtQtQtQtQtQtQtQtQt.U.V.r.V.W.#.v.x.#.F.x.#.b.#.a.#.q.K.p.m.i.rQtQtQtQtQtQtQtQtQtQtQtQtQtQtQtQtQtQtQtQtQtQt",
"QtQtQtQtQtQtQtQtQtQtQtQtQtQtQtQtQtQtQtQt.U.g.r.l.#.a.v.x.x.F.x.#.b.#.a.#.r.q.K.K.m.iQtQtQtQtQtQtQtQtQtQtQtQtQtQtQtQtQtQtQtQtQtQt",
"QtQtQtQtQtQtQtQtQtQtQtQtQtQtQtQtQtQtQtQt.U.X.l.b.a.v.x.x.F.a.x.#.b.#.f.Q.K.q.i.K.p.p.mQtQtQtQtQtQtQtQtQtQtQtQtQtQtQtQtQtQtQtQtQt",
"QtQtQtQtQtQtQtQtQtQtQtQtQtQtQtQtQtQtQtQtQt.l.b.#.v.x.x.F.F.x.x.x.a.#.#.m.K.i.i.p.K.K.K.wQtQtQtQtQtQtQtQtQtQtQtQtQtQtQtQtQtQtQtQt",
"QtQtQtQtQtQtQtQtQtQtQtQtQtQtQtQtQtQtQtQtQt.b.#.a.v.x.H.F.s.x.x.x.#.t.Q.i.p.p.q.q.i.m.K.m.wQtQtQtQtQtQtQtQtQtQtQtQtQtQtQtQtQtQtQt",
"QtQtQtQtQtQtQtQtQtQtQtQtQtQtQtQtQtQtQtQt.l.#.a.v.x.x.H.F.s.x.H.x.H.#.#.i.p.K.i.q.q.q.m.K.m.wQtQtQtQtQtQtQtQtQtQtQtQtQtQtQtQtQtQt",
"QtQtQtQtQtQtQtQtQtQtQtQtQtQtQtQtQtQtQt.l.b.a.v.S.x.x.H.s.x.x.H.x.H.I.#.i.m.K.m.qQt.q.q.K.K.wQtQtQtQtQtQtQtQtQtQtQtQtQtQtQtQtQtQt",
"QtQtQtQtQtQtQtQtQtQtQtQtQtQtQtQtQtQt.k.b.#.v.S.S.x.x.H.s.x.x.H.x.H.I.H.s.w.p.K.i.q.q.q.m.K.p.iQtQtQtQtQtQtQtQtQtQtQtQtQtQtQtQtQt",
"QtQtQtQtQtQtQtQtQtQtQtQtQtQtQtQtQtQt.b.Y.a.v.S.x.x.x.H.s.x.x.H.x.H.I.H.s.w.p.K.m.q.q.q.w.p.K.iQtQtQtQtQtQtQtQtQtQtQtQtQtQtQtQtQt",
"QtQtQtQtQtQtQtQtQtQtQtQtQtQtQtQtQt.b.Y.a.VQt.S.x.x.x.s.x.x.x.H.H.H.I.H.s.H.i.p.K.K.m.w.w.p.K.iQtQtQtQtQtQtQtQtQtQtQtQtQtQtQtQtQt",
"QtQtQtQtQtQtQtQtQtQtQtQtQtQtQtQtQt.a.a.vQt.S.S.x.x.H.s.x.x.x.H.H.I.I.H.s.H.I.i.m.K.K.p.m.p.K.w.iQtQtQtQtQtQtQtQtQtQtQtQtQtQtQtQt",
"QtQtQtQtQtQtQtQtQtQtQtQtQtQtQtQt.k.a.vQtQt.S.x.x.x.H.s.x.x.x.H.H.I.I.I.s.H.I.H.i.w.m.K.p.p.K.m.iQtQtQtQtQtQtQtQtQtQtQtQtQtQtQtQt",
"QtQtQtQtQtQtQtQtQtQtQtQtQtQtQtQt.v.vQtQt.S.Z.x.x.x.H.s.x.x.H.H.H.I.P.I.H.s.P.H.H.i.w.m.K.K.K.p.iQtQtQtQtQtQtQtQtQtQtQtQtQtQtQtQt",
"QtQtQtQtQtQtQtQtQtQtQtQtQtQtQt.k.vQtQtQt.S.0.x.x.x.s.H.x.x.H.H.H.I.P.I.H.s.P.H.H.H.i.w.p.p.K.p.iQtQtQtQtQtQtQtQtQtQtQtQtQtQtQtQt",
"QtQtQtQtQtQtQtQtQtQtQtQtQtQtQt.vQtQtQtQt.S.S.x.x.x.s.I.x.x.H.H.H.I.P.I.H.s.P.I.H.H.x.x.i.w.m.p.wQtQtQtQtQtQtQtQtQtQtQtQtQtQtQtQt",
"QtQtQtQtQtQtQtQtQtQtQtQtQtQtQtQtQtQtQtQtQt.S.x.x.H.s.I.x.x.H.H.H.I.P.I.H.s.P.I.H.H.x.xQt.i.w.m.iQtQtQtQtQtQtQtQtQtQtQtQtQtQtQtQt",
"QtQtQtQtQtQtQtQtQtQtQtQtQtQtQtQtQtQt.1.1.1.2.S.x.H.s.I.x.x.H.H.H.I.P.P.H.s.P.I.H.H.H.x.Z.1.1.i.iQtQtQtQtQtQtQtQtQtQtQtQtQtQtQtQt",
"QtQtQtQtQtQtQtQtQtQtQtQtQtQtQtQt.1.1.3.4.5.6.7.8.H.s.I.x.x.H.H.H.I.P.P.I.9.P.P.I.H.H.x.5.4.3.1.1QtQtQtQtQtQtQtQtQtQtQtQtQtQtQtQt",
"QtQtQtQtQtQtQtQtQtQtQtQtQtQtQt.1.3#.###a#b#c#d#e#f#g.H.x.x.H.H.I.I.P.P.I.9.P.P.I.x.x#h#b#a###..3.1QtQtQtQtQtQtQtQtQtQtQtQtQtQtQt",
"QtQtQtQtQtQtQtQtQtQtQtQtQtQt.1#i#j#k#l#m#n#o#p#q#r#s#t.Q.x.H.H.I.I.P.P.I.9.P.I.H#q#p#o#n#m#l#u#j#i.1QtQtQtQtQtQtQtQtQtQtQtQtQtQt",
"QtQtQtQtQtQtQtQtQtQtQtQtQt.1.3#v#w#x#y#z#A#B#C#D#E#F#G#G#H#H#H#H#H#H.t.U#H.Q#F#E#D#C#B#A#z#y#x#w#v.3.1QtQtQtQtQtQtQtQtQtQtQtQtQt",
"QtQtQtQtQtQtQtQtQtQtQtQtQt.1#I#J#K#L#M#C#F#N#O#O#O#O#O#P#P#P#P#H.k.w.w.n.U#H#O#O#O#O#N#F#C#M#L#K#J#I.1QtQtQtQtQtQtQtQtQtQtQtQtQt",
"QtQtQtQtQtQtQtQtQtQtQtQtQt.1#I#Q#K#L#A#C#F#N#O#O#O#O#O#P#P#P#P#H.n.n.n.n.U#H#O#O#O#O#N#F#C#A#L#R#Q#I.1QtQtQtQtQtQtQtQtQtQtQtQtQt",
"QtQtQtQtQtQtQtQtQtQtQtQtQt.1#S#v#w#x#y#z#A#B#C#D#E#F#G#G#N#T#T#H#H#H#H#H#H#H#F#E#D#C#B#A#z#y#x#w#v#S.1QtQtQtQtQtQtQtQtQtQtQtQtQt",
"QtQtQtQtQtQtQtQtQtQtQtQtQtQt.1#i#U#u#V#x#W#o#p#q#r#s#t#X#Y#Z#0#0#0#0#Z#Y#X#t#s#r#q#p#o#W#x#V#u#U#i.1QtQtQtQtQtQtQtQtQtQtQtQtQtQt",
"QtQtQtQtQtQtQtQtQtQtQtQtQtQtQt.1#S.5###a#b#h#1#e#f#g#2#3#y#4#L#5#5#L#4#y#3#2#g#f#e#1#h#b#a##.5#S.1QtQtQtQtQtQtQtQtQtQtQtQtQtQtQt",
"QtQtQtQtQtQtQtQtQtQtQtQtQtQtQtQt.1.1.3.4.5.6.7.8#6#7#8#9a.a#aa#c#caaa#a.#9#8#7#6.8.7#v.5.4.3.1.1QtQtQtQtQtQtQtQtQtQtQtQtQtQtQtQt",
"QtQtQtQtQtQtQtQtQtQtQtQtQtQtQtQtQtQt.1.1.1.2.3#i.4ab.5acadadadaeaeadadadac.5ab.4#i.3.2.1.1.1QtQtQtQtQtQtQtQtQtQtQtQtQtQtQtQtQtQt",
"QtQtQtQtQtQtQtQtQtQtQtQtQtQtQtQtQtQtQtQtQtQt.1.1.1.1.1.1.1.1.1.1.1.1.1.1.1.1.1.1.1.1QtQtQtQtQtQtQtQtQtQtQtQtQtQtQtQtQtQtQtQtQtQt",
"QtQtQtQtQtQtQtQtQtQtQtQtQtQtQtQtQtQtQtQtQtQtQtQtQtQtQtQtQtQtQtQtQtQtQtQtQtQtQtQtQtQtQtQtQtQtQtQtQtQtQtQtQtQtQtQtQtQtQtQtQtQtQtQt",
"QtQtQtQtQtQtQtQtQtQtQtQtQtQtQtQtQtQtQtQtQtQtQtQtQtQtQtQtQtQtQtQtQtQtQtQtQtQtQtQtQtQtQtQtQtQtQtQtQtQtQtQtQtQtQtQtQtQtQtQtQtQtQtQt"};
