/* XPM */
static char *dummy[]={
"64 64 134 2",
"Qt c None",
".Z c #000000",
".1 c #000000",
".2 c #000000",
"#N c #000000",
"#e c #000000",
"#C c #000000",
".3 c #000000",
"aa c #000000",
".8 c #000000",
".7 c #000000",
"ab c #000000",
"ac c #000000",
"ad c #000000",
".6 c #000000",
"#q c #000000",
"#f c #000000",
"#P c #000000",
".9 c #000000",
".5 c #000000",
"#D c #000000",
"#K c #000000",
"#3 c #000000",
"#. c #000000",
"#4 c #000000",
"#g c #000000",
"#p c #000000",
"#5 c #000000",
"#d c #000000",
"#6 c #000000",
"#r c #000000",
"#7 c #000000",
"#8 c #000000",
"#9 c #000000",
"a. c #000000",
"a# c #000000",
"#c c #000000",
"#h c #000000",
"#Q c #000000",
"#b c #000000",
"#E c #000000",
"#M c #000000",
"#a c #000000",
"#i c #000000",
"#s c #000000",
"#X c #000000",
"#Y c #000000",
"#o c #000000",
"#R c #000000",
"#2 c #000000",
"#1 c #000000",
"#t c #000000",
"#n c #000000",
"#0 c #000000",
"#F c #000000",
"#Z c #000000",
"#m c #000000",
"#u c #000000",
"#l c #000000",
"#k c #000000",
"#j c #000000",
"#G c #000000",
"#v c #000000",
"#W c #000000",
"#V c #000000",
"#U c #000000",
"#B c #000000",
"#T c #000000",
"#S c #000000",
"#A c #000000",
"#z c #000000",
"#y c #000000",
"#x c #000000",
"#w c #000000",
"#H c #000000",
"#O c #000000",
"#I c #000000",
"#J c #000000",
".Q c #005477",
".k c #00b39e",
"#L c #020101",
".P c #060808",
".D c #061e11",
".p c #06eba8",
".X c #080014",
".r c #080808",
".# c #0c1211",
".0 c #0f0e11",
".4 c #120034",
".t c #131314",
".u c #137177",
".a c #1a2520",
".z c #1e194b",
".f c #212828",
".x c #250001",
".W c #26252c",
".S c #282829",
".b c #2b3932",
".s c #313539",
".F c #382966",
".c c #3a4a42",
".o c #3d3d3d",
".j c #444448",
".e c #47474e",
".y c #490008",
".h c #51545b",
".V c #525351",
".v c #535353",
".L c #554783",
".T c #562f1d",
".d c #585c5e",
"## c #655324",
".K c #665e9a",
".U c #6d2029",
".B c #6e0023",
".R c #6f6f76",
".M c #72472d",
".w c #797a7c",
".g c #798487",
".I c #822d1e",
".l c #838384",
".i c #9ca9ae",
".Y c #9e7e55",
".n c #9e99a6",
".N c #a3a3aa",
".E c #ad473d",
".m c #adb2af",
".C c #bea375",
".O c #c91c23",
".q c #ccd3d6",
".J c #e5f4ff",
".A c #e87252",
".H c #ffbf75",
".G c #ffef7c",
"QtQtQtQtQtQtQtQtQtQtQtQtQtQtQtQtQtQtQtQtQtQtQtQtQtQtQtQtQtQtQtQtQtQtQtQtQtQtQtQtQtQtQtQtQtQtQtQtQtQtQtQtQtQtQtQtQtQtQtQtQtQtQtQt",
"QtQtQtQtQtQtQtQtQtQtQtQtQtQtQtQtQtQtQtQtQtQtQtQtQtQtQtQtQtQtQtQtQtQtQtQtQtQtQtQtQtQtQtQtQtQtQtQtQtQtQtQtQtQtQtQtQtQtQtQtQtQtQtQt",
"QtQtQtQtQtQtQtQtQtQtQtQtQtQtQtQtQtQtQtQtQtQtQtQtQtQtQtQtQtQtQtQtQtQtQtQtQtQtQtQtQtQtQtQtQtQtQtQtQtQtQtQtQtQtQtQtQtQtQtQtQtQtQtQt",
"QtQtQtQtQtQtQtQtQtQtQtQtQtQtQtQtQtQtQtQtQtQtQtQtQtQtQtQtQtQt.#.#.#QtQtQtQtQtQtQtQtQtQtQtQtQtQtQtQtQtQtQtQtQtQtQtQtQtQtQtQtQtQtQt",
"QtQtQtQtQtQtQtQtQtQtQtQtQtQtQtQtQtQtQtQtQtQtQtQtQtQtQtQt.#.a.b.a.a.a.#QtQtQtQtQtQtQtQtQtQtQtQtQtQtQtQtQtQtQtQtQtQtQtQtQtQtQtQtQt",
"QtQtQtQtQtQtQtQtQtQtQtQtQtQtQtQtQtQtQtQtQtQtQtQtQtQt.a.#.a.c.a.c.c.a.a.#.aQtQtQtQtQtQtQtQtQtQtQtQtQtQtQtQtQtQtQtQtQtQtQtQtQtQtQt",
"QtQtQtQtQtQtQtQtQtQtQtQtQtQtQtQtQtQtQtQtQtQtQtQtQtQt.#.a.d.d.b.d.d.e.a.f.#QtQtQtQtQtQtQtQtQtQtQtQtQtQtQtQtQtQtQtQtQtQtQtQtQtQtQt",
"QtQtQtQtQtQtQtQtQtQtQtQtQtQtQtQtQtQtQtQtQtQtQtQtQtQt.a.d.c.a.b.g.g.h.a.c.aQtQtQtQtQtQtQtQtQtQtQtQtQtQtQtQtQtQtQtQtQtQtQtQtQtQtQt",
"QtQtQtQtQtQtQtQtQtQtQtQtQtQtQtQtQtQtQtQtQtQtQtQtQt.#.b.c.a.a.c.i.g.h.b.a.b.#QtQtQtQtQtQtQtQtQtQtQtQtQtQtQtQtQtQtQtQtQtQtQtQtQtQt",
"QtQtQtQtQtQtQtQtQtQtQtQtQtQtQtQtQtQtQtQtQtQtQtQtQt.a.c.b.#.b.c.i.g.c.b.#.c.aQtQtQtQtQtQtQtQtQtQtQtQtQtQtQtQtQtQtQtQtQtQtQtQtQtQt",
"QtQtQtQtQtQtQtQtQtQtQtQtQtQtQtQtQtQt.j.jQtQtQtQt.a.#.b.a.#.b.c.g.d.c.f.#.b.#QtQtQt.k.l.mQtQtQtQtQtQtQtQtQtQtQtQtQtQtQtQtQtQtQtQt",
"QtQtQtQtQtQtQtQtQtQtQtQtQtQtQtQtQt.j.n.n.jQtQtQt.#.b.a.#.a.o.d.g.h.b.a.#.a.bQtQtQt.l.p.lQtQtQtQtQtQtQtQtQtQtQtQtQtQtQtQtQtQtQtQt",
"QtQtQtQtQtQtQtQtQtQtQtQtQtQtQtQtQt.j.q.r.q.rQt.#Qt.#.a.#.a.s.d.g.c.b.#.t.a.#QtQt.k.m.l.uQtQtQtQtQtQtQtQtQtQtQtQtQtQtQtQtQtQtQtQt",
"QtQtQtQtQtQtQtQtQtQtQtQtQtQtQtQtQtQt.j.q.n.jQtQtQt.#.#.#.a.a.d.d.c.b.t.#.#.#QtQt.p.k.vQtQtQtQtQtQtQtQtQtQtQtQtQtQtQtQtQtQtQtQtQt",
"QtQtQtQtQtQtQtQtQtQtQtQtQtQtQtQtQtQtQt.r.o.w.rQtQt.r.j.j.a.d.c.d.s.#.t.#.#QtQt.v.m.vQtQtQtQtQtQtQtQtQtQtQtQtQtQtQtQtQtQtQtQtQtQt",
"QtQtQtQtQtQtQtQtQtQtQtQtQtQtQtQtQtQtQtQt.r.j.n.r.x.y.z.r.#.d.b.d.b.#.z.z.zQt.l.u.vQtQtQtQtQtQtQtQtQtQtQtQtQtQtQtQtQtQtQtQtQtQtQt",
"QtQtQtQtQtQtQtQtQtQtQtQtQtQtQtQtQtQtQtQtQt.r.o.j.r.A.z.z.#.c.b.d.a.#.z.z.z.v.l.vQtQtQtQtQtQtQtQtQtQtQtQtQtQtQtQtQtQtQtQtQtQtQtQt",
"QtQtQtQtQtQtQtQtQtQtQtQtQtQtQtQtQtQtQtQtQtQt.r.n.j.r.B.z.#.b.c.b.a.#.l.m.m.m.vQtQtQtQtQtQtQtQtQtQtQtQtQtQtQtQtQtQtQtQtQtQtQtQtQt",
"QtQtQtQtQtQtQtQtQtQtQtQtQtQtQtQtQtQtQtQtQtQt.r.n.j.r.r.z.#.b.c.b.f.a.l.a.a.l.mQtQtQtQtQtQtQtQtQtQtQtQtQtQtQtQtQtQtQtQtQtQtQtQtQt",
"QtQtQtQtQtQtQtQtQtQtQtQtQtQtQtQtQtQtQtQtQtQt.x.r.j.n.w.#.a.c.b.a.b.#.v.a.l.a.mQtQtQtQtQtQtQtQtQtQtQtQtQtQtQtQtQtQtQtQtQtQtQtQtQt",
"QtQtQtQtQtQtQtQtQtQtQtQtQtQtQtQtQtQtQtQtQtQt.y.r.n.w.w.#.a.d.b.a.c.#.C.C.C.a.l.DQtQtQtQtQtQtQtQtQtQtQtQtQtQtQtQtQtQtQtQtQtQtQtQt",
"QtQtQtQtQtQtQtQtQtQtQtQtQtQtQtQtQtQtQtQtQtQt.E.r.w.n.j.#.b.d.b.o.c.a.p.C.v.v.v.DQtQtQtQtQtQtQtQtQtQtQtQtQtQtQtQtQtQtQtQtQtQtQtQt",
"QtQtQtQtQtQtQtQtQtQtQtQtQtQtQtQtQtQtQtQtQtQt.x.y.j.q.w.#.o.d.b.c.b.a.a.v.v.F.G.H.AQtQtQtQtQtQtQtQtQtQtQtQtQtQtQtQtQtQtQtQtQtQtQt",
"QtQtQtQtQtQtQtQtQtQtQtQtQtQtQtQtQtQtQtQtQt.r.I.I.r.J.n.a.o.d.b.d.a.b.a.v.F.H.K.L.#QtQtQtQtQtQtQtQtQtQtQtQtQtQtQtQtQtQtQtQtQtQtQt",
"QtQtQtQtQtQtQtQtQtQtQtQtQtQtQtQtQtQtQtQtQt.r.r.r.r.q.#.a.c.d.a.d.#.b.v.q.j.M.N.K.zQtQtQtQtQtQtQtQtQtQtQtQtQtQtQtQtQtQtQtQtQtQtQt",
"QtQtQtQtQtQtQtQtQtQtQtQtQtQtQtQtQtQtQtQtQt.O.r.j.r.j.#.b.c.d.a.c.#.b.J.q.j.M.L.K.z.#QtQtQtQtQtQtQtQtQtQtQtQtQtQtQtQtQtQtQtQtQtQt",
"QtQtQtQtQtQtQtQtQtQtQtQtQtQtQtQtQtQtQtQtQt.r.r.w.r.w.a.b.b.d.#.c.P.b.a.J.n.j.M.K.F.aQtQtQtQtQtQtQtQtQtQtQtQtQtQtQtQtQtQtQtQtQtQt",
"QtQtQtQtQtQtQtQtQtQtQtQtQtQtQtQtQtQtQtQtQt.r.O.j.Q.j.b.a.b.c.#.b.P.b.a.J.J.w.L.K.F.zQtQtQtQtQtQtQtQtQtQtQtQtQtQtQtQtQtQtQtQtQtQt",
"QtQtQtQtQtQtQtQtQtQtQtQtQtQtQtQtQtQtQtQtQtQt.r.w.R.Q.b.#.b.c.P.b.P.a.b.J.J.n.L.z.L.F.zQtQtQtQtQtQtQtQtQtQtQtQtQtQtQtQtQtQtQtQtQt",
"QtQtQtQtQtQtQtQtQtQtQtQtQtQtQtQtQtQtQtQtQtQt.r.j.w.P.b.#.f.c.P.a.P.#.b.w.J.q.j.F.L.L.zQtQtQtQtQtQtQtQtQtQtQtQtQtQtQtQtQtQtQtQtQt",
"QtQtQtQtQtQtQtQtQtQtQtQtQtQtQtQtQtQtQtQtQtQt.z.b.r.P.b.f.a.b.P.a.#.t.s.j.q.w.w.e.N.L.zQtQtQtQtQtQtQtQtQtQtQtQtQtQtQtQtQtQtQtQtQt",
"QtQtQtQtQtQtQtQtQtQtQtQtQtQtQtQtQtQtQtQtQtQt.t.o.a.P.b.a.#.b.P.r.P.P.b.w.j.w.j.F.F.R.zQtQtQtQtQtQtQtQtQtQtQtQtQtQtQtQtQtQtQtQtQt",
"QtQtQtQtQtQtQtQtQtQtQtQtQtQtQtQtQtQtQtQtQtQt.t.S.T.P.a.b.#.b.#.P.P.J.a.J.J.n.j.S.S.F.eQtQtQtQtQtQtQtQtQtQtQtQtQtQtQtQtQtQtQtQtQt",
"QtQtQtQtQtQtQtQtQtQtQtQtQtQtQtQtQtQtQtQtQtQt.t.U.m.P.#.b.#.b.t.P.j.w.a.r.J.J.w.j.V.SQtQtQtQtQtQtQtQtQtQtQtQtQtQtQtQtQtQtQtQtQtQt",
"QtQtQtQtQtQtQtQtQtQtQtQtQtQtQtQtQtQtQtQtQtQtQt.U.b.#.#.b.#.a.t.t.z.j.q.J.r.J.q.n.j.SQtQtQtQtQtQtQtQtQtQtQtQtQtQtQtQtQtQtQtQtQtQt",
"QtQtQtQtQtQtQtQtQtQtQtQtQtQtQtQtQtQtQtQtQtQtQt.m.#.a.#.b.#.a.t.#.z.j.w.J.j.r.J.J.n.jQtQtQtQtQtQtQtQtQtQtQtQtQtQtQtQtQtQtQtQtQtQt",
"QtQtQtQtQtQtQtQtQtQtQtQtQtQtQtQtQtQtQtQtQtQt.m.b.a.v.#.b.#.a.P.z.z.z.w.q.J.r.j.J.q.q.nQtQtQtQtQtQtQtQtQtQtQtQtQtQtQtQtQtQtQtQtQt",
"QtQtQtQtQtQtQtQtQtQtQtQtQtQtQtQtQtQtQtQtQt.m.b.#.v.F.W.a.#.#.F.F.z.z.j.n.J.j.j.q.J.J.J.wQtQtQtQtQtQtQtQtQtQtQtQtQtQtQtQtQtQtQtQt",
"QtQtQtQtQtQtQtQtQtQtQtQtQtQtQtQtQtQtQtQtQt.b.#.a.v.F.z.t.t.P.F.F.z.z.z.j.q.q.r.r.j.n.J.n.wQtQtQtQtQtQtQtQtQtQtQtQtQtQtQtQtQtQtQt",
"QtQtQtQtQtQtQtQtQtQtQtQtQtQtQtQtQtQtQtQt.m.#.a.v.z.F.z.#.#.L.F.F.z.z.z.j.q.J.j.r.r.r.n.J.n.wQtQtQtQtQtQtQtQtQtQtQtQtQtQtQtQtQtQt",
"QtQtQtQtQtQtQtQtQtQtQtQtQtQtQtQtQtQtQt.m.b.a.v.X.z.F.z.z.#.L.F.F.z.z.z.j.n.J.n.rQt.r.r.J.J.wQtQtQtQtQtQtQtQtQtQtQtQtQtQtQtQtQtQt",
"QtQtQtQtQtQtQtQtQtQtQtQtQtQtQtQtQtQt.l.b.#.VQt.X.F.F.z.z.s.L.L.F.F.z.z.s.w.q.J.j.r.r.r.n.J.q.jQtQtQtQtQtQtQtQtQtQtQtQtQtQtQtQtQt",
"QtQtQtQtQtQtQtQtQtQtQtQtQtQtQtQtQtQt.b.Y.a.vQt.z.F.L.z.z.s.K.L.F.F.z.F.F.w.q.J.n.r.r.r.w.q.J.jQtQtQtQtQtQtQtQtQtQtQtQtQtQtQtQtQt",
"QtQtQtQtQtQtQtQtQtQtQtQtQtQtQtQtQt.b.Y.a.vQtQt.z.F.L.F.z.s.K.L.F.F.z.z.F.s.j.q.J.J.n.w.w.q.J.jQtQtQtQtQtQtQtQtQtQtQtQtQtQtQtQtQt",
"QtQtQtQtQtQtQtQtQtQtQtQtQtQtQtQtQt.a.a.vQtQt.X.z.F.L.L.z.s.K.L.F.F.z.z.F.L.F.j.n.J.J.q.n.q.J.w.jQtQtQtQtQtQtQtQtQtQtQtQtQtQtQtQt",
"QtQtQtQtQtQtQtQtQtQtQtQtQtQtQtQt.l.a.vQtQtQt.X.F.F.L.L.z.s.K.L.F.F.F.z.F.L.s.F.j.w.n.J.q.q.J.n.jQtQtQtQtQtQtQtQtQtQtQtQtQtQtQtQt",
"QtQtQtQtQtQtQtQtQtQtQtQtQtQtQtQt.v.vQtQtQtQt.z.F.L.L.K.z.s.K.L.L.F.F.z.z.L.s.F.z.j.w.n.J.J.J.q.jQtQtQtQtQtQtQtQtQtQtQtQtQtQtQtQt",
"QtQtQtQtQtQtQtQtQtQtQtQtQtQtQt.l.vQtQtQtQt.X.z.F.L.L.K.z.s.K.K.L.F.F.z.z.L.L.F.z.z.j.w.q.q.J.q.jQtQtQtQtQtQtQtQtQtQtQtQtQtQtQtQt",
"QtQtQtQtQtQtQtQtQtQtQtQtQtQtQt.vQtQtQtQtQt.X.F.F.L.L.K.s.L.K.K.L.F.F.z.z.L.L.F.F.z.XQt.j.w.n.q.wQtQtQtQtQtQtQtQtQtQtQtQtQtQtQtQt",
"QtQtQtQtQtQtQtQtQtQtQtQtQtQtQtQtQtQt.Z.Z.Z.z.F.L.L.K.K.s.L.K.K.L.F.F.F.z.K.L.s.F.z.0.1.Z.j.w.n.jQtQtQtQtQtQtQtQtQtQtQtQtQtQtQtQt",
"QtQtQtQtQtQtQtQtQtQtQtQtQtQtQtQt.Z.Z.2.3.4.z.F.L.L.K.K.s.L.K.K.L.F.F.F.z.K.L.s.F.z.5.6.7.3.2.j.jQtQtQtQtQtQtQtQtQtQtQtQtQtQtQtQt",
"QtQtQtQtQtQtQtQtQtQtQtQtQtQtQt.Z.2.8.9#..X.z.F.L.L.K.K##.L.K.K.L.L.F.F.z.K.L.s.F#a#b#c#d#..9.8.2.ZQtQtQtQtQtQtQtQtQtQtQtQtQtQtQt",
"QtQtQtQtQtQtQtQtQtQtQtQtQtQt.Z#e#f#g#h#i.0.z.F.F.L.K.K##.L.K.K.L.L.F.F.z.K.L#j#k#l#m#n#o#i#h#p#f#e.ZQtQtQtQtQtQtQtQtQtQtQtQtQtQt",
"QtQtQtQtQtQtQtQtQtQtQtQtQt.Z.2#q#r#s#t#u#v.z.z.F.L.K.K##.L.K.K.L.L.F.F.z#w#w#x#y#z#A#B#v#u#t#s#r#q.2.ZQtQtQtQtQtQtQtQtQtQtQtQtQt",
"QtQtQtQtQtQtQtQtQtQtQtQtQt.Z#C#D#E#F#G#A#x#H#I#I.F.F.F.s.L.L.L.F#J#J#J#J#J#I#I#I#I#I#H#x#A#G#F#E#D#C.ZQtQtQtQtQtQtQtQtQtQtQtQtQt",
"QtQtQtQtQtQtQtQtQtQtQtQtQt.Z#C#K#E#F#v#A#x#H#I#I#I#L.h.l.l.l.h#L#J#J#J#J#J#I#I#I#I#I#H#x#A#v#F#M#K#C.ZQtQtQtQtQtQtQtQtQtQtQtQtQt",
"QtQtQtQtQtQtQtQtQtQtQtQtQt.Z#N#q#r#s#t#u#v#B#A#z#y#L.h.t.t.t.0.r#I#O#O#H#w#w#x#y#z#A#B#v#u#t#s#r#q#N.ZQtQtQtQtQtQtQtQtQtQtQtQtQt",
"QtQtQtQtQtQtQtQtQtQtQtQtQtQt.Z#e#P#p#Q#s#R#n#m#l#k#L.t.r.0.r.t#L#S#S#T#U#V#W#j#k#l#m#n#R#s#Q#p#P#e.ZQtQtQtQtQtQtQtQtQtQtQtQtQtQt",
"QtQtQtQtQtQtQtQtQtQtQtQtQtQtQt.Z#N.7.9#.#d#c#b#a#X#Y#L#L#L#L#L#Z#Z#F#0#t#1#2#Y#X#a#b#c#d#..9.7#N.ZQtQtQtQtQtQtQtQtQtQtQtQtQtQtQt",
"QtQtQtQtQtQtQtQtQtQtQtQtQtQtQtQt.Z.Z.2.3.7.6.5#3#4#5#6#7#8#9a.a#a#a.#9#8#7#6#5#4#3.5#q.7.3.2.Z.ZQtQtQtQtQtQtQtQtQtQtQtQtQtQtQtQt",
"QtQtQtQtQtQtQtQtQtQtQtQtQtQtQtQtQtQt.Z.Z.Z.1.2#e.3aa.7abacacacadadacacacab.7aa.3#e.2.1.Z.Z.ZQtQtQtQtQtQtQtQtQtQtQtQtQtQtQtQtQtQt",
"QtQtQtQtQtQtQtQtQtQtQtQtQtQtQtQtQtQtQtQtQtQt.Z.Z.Z.Z.Z.Z.Z.Z.Z.Z.Z.Z.Z.Z.Z.Z.Z.Z.Z.ZQtQtQtQtQtQtQtQtQtQtQtQtQtQtQtQtQtQtQtQtQtQt",
"QtQtQtQtQtQtQtQtQtQtQtQtQtQtQtQtQtQtQtQtQtQtQtQtQtQtQtQtQtQtQtQtQtQtQtQtQtQtQtQtQtQtQtQtQtQtQtQtQtQtQtQtQtQtQtQtQtQtQtQtQtQtQtQt",
"QtQtQtQtQtQtQtQtQtQtQtQtQtQtQtQtQtQtQtQtQtQtQtQtQtQtQtQtQtQtQtQtQtQtQtQtQtQtQtQtQtQtQtQtQtQtQtQtQtQtQtQtQtQtQtQtQtQtQtQtQtQtQtQt"};
