/* XPM */
static char *dummy[]={
"64 64 135 2",
"Qt c None",
".1 c #000000",
".2 c #000000",
".3 c #000000",
"#K c #000000",
"#c c #000000",
"#z c #000000",
".4 c #000000",
"ab c #000000",
".7 c #000000",
".5 c #000000",
"ac c #000000",
"ad c #000000",
"ae c #000000",
".6 c #000000",
"#n c #000000",
"#d c #000000",
"#M c #000000",
".8 c #000000",
"#4 c #000000",
"#A c #000000",
"#H c #000000",
"#5 c #000000",
".9 c #000000",
"#6 c #000000",
"#e c #000000",
"#m c #000000",
"#7 c #000000",
"#. c #000000",
"#8 c #000000",
"#o c #000000",
"#9 c #000000",
"a. c #000000",
"a# c #000000",
"aa c #000000",
"## c #000000",
"#V c #000000",
"#f c #000000",
"#N c #000000",
"#a c #000000",
"#W c #000000",
"#B c #000000",
"#J c #000000",
"#X c #000000",
"#g c #000000",
"#p c #000000",
"#Y c #000000",
"#Z c #000000",
"#h c #000000",
"#O c #000000",
"#0 c #000000",
"#1 c #000000",
"#q c #000000",
"#i c #000000",
"#2 c #000000",
"#C c #000000",
"#3 c #000000",
"#j c #000000",
"#r c #000000",
"#k c #000000",
"#l c #000000",
"#P c #000000",
"#D c #000000",
"#s c #000000",
"#Q c #000000",
"#R c #000000",
"#S c #000000",
"#t c #000000",
"#T c #000000",
"#U c #000000",
"#u c #000000",
"#v c #000000",
"#w c #000000",
"#x c #000000",
"#y c #000000",
"#E c #000000",
"#L c #000000",
"#F c #000000",
"#G c #000000",
".P c #005477",
".j c #00b39e",
"#I c #020101",
".O c #060808",
".D c #061e11",
".n c #06eba8",
".Y c #080014",
".p c #080808",
".# c #0c1211",
".J c #0f0e11",
".r c #131314",
".s c #137177",
".a c #1a2520",
".x c #1e194b",
".f c #212828",
".B c #250001",
".X c #26252c",
".T c #282829",
".b c #2b3932",
".q c #313539",
".t c #35353a",
".G c #382966",
".c c #3a4a42",
".v c #3d3d3d",
".i c #444448",
".e c #47474e",
".y c #490008",
".S c #51545b",
".V c #525351",
".u c #535353",
".L c #554783",
".U c #562f1d",
".d c #585c5e",
"#b c #655324",
".0 c #665e9a",
".M c #6e0023",
".Q c #6f6f76",
".w c #797a7c",
".g c #798487",
".H c #822d1e",
".k c #838384",
".h c #9ca9ae",
".Z c #9e7e55",
".m c #9e99a6",
".R c #a3a3aa",
".K c #ad473d",
".l c #adb2af",
".A c #b00a35",
".N c #c91c23",
".o c #ccd3d6",
".I c #e5f4ff",
".z c #e87252",
".W c #f7e0d0",
".C c #ff2f58",
".F c #ffbf75",
".E c #ffef7c",
"QtQtQtQtQtQtQtQtQtQtQtQtQtQtQtQtQtQtQtQtQtQtQtQtQtQtQtQtQtQtQtQtQtQtQtQtQtQtQtQtQtQtQtQtQtQtQtQtQtQtQtQtQtQtQtQtQtQtQtQtQtQtQtQt",
"QtQtQtQtQtQtQtQtQtQtQtQtQtQtQtQtQtQtQtQtQtQtQtQtQtQtQtQtQtQtQtQtQtQtQtQtQtQtQtQtQtQtQtQtQtQtQtQtQtQtQtQtQtQtQtQtQtQtQtQtQtQtQtQt",
"QtQtQtQtQtQtQtQtQtQtQtQtQtQtQtQtQtQtQtQtQtQtQtQtQtQtQtQtQtQtQtQtQtQtQtQtQtQtQtQtQtQtQtQtQtQtQtQtQtQtQtQtQtQtQtQtQtQtQtQtQtQtQtQt",
"QtQtQtQtQtQtQtQtQtQtQtQtQtQtQtQtQtQtQtQtQtQtQtQtQtQtQtQtQtQt.#.#.#QtQtQtQtQtQtQtQtQtQtQtQtQtQtQtQtQtQtQtQtQtQtQtQtQtQtQtQtQtQtQt",
"QtQtQtQtQtQtQtQtQtQtQtQtQtQtQtQtQtQtQtQtQtQtQtQtQtQtQtQt.#.a.b.a.a.a.#QtQtQtQtQtQtQtQtQtQtQtQtQtQtQtQtQtQtQtQtQtQtQtQtQtQtQtQtQt",
"QtQtQtQtQtQtQtQtQtQtQtQtQtQtQtQtQtQtQtQtQtQtQtQtQtQt.a.#.a.c.a.c.c.a.a.#.aQtQtQtQtQtQtQtQtQtQtQtQtQtQtQtQtQtQtQtQtQtQtQtQtQtQtQt",
"QtQtQtQtQtQtQtQtQtQtQtQtQtQtQtQtQtQtQtQtQtQtQtQtQtQt.#.a.d.d.b.d.d.e.a.f.#QtQtQtQtQtQtQtQtQtQtQtQtQtQtQtQtQtQtQtQtQtQtQtQtQtQtQt",
"QtQtQtQtQtQtQtQtQtQtQtQtQtQtQtQtQtQtQtQtQtQtQtQtQtQt.a.d.c.a.b.g.g.d.a.c.aQtQtQtQtQtQtQtQtQtQtQtQtQtQtQtQtQtQtQtQtQtQtQtQtQtQtQt",
"QtQtQtQtQtQtQtQtQtQtQtQtQtQtQtQtQtQtQtQtQtQtQtQtQt.#.b.c.a.a.c.g.h.d.b.a.b.#QtQtQtQtQtQtQtQtQtQtQtQtQtQtQtQtQtQtQtQtQtQtQtQtQtQt",
"QtQtQtQtQtQtQtQtQtQtQtQtQtQtQtQtQtQtQtQtQtQtQtQtQt.a.c.b.#.b.c.g.h.c.b.#.c.aQtQtQtQtQtQtQtQtQtQtQtQtQtQtQtQtQtQtQtQtQtQtQtQtQtQt",
"QtQtQtQtQtQtQtQtQtQtQtQtQtQtQtQtQtQt.i.iQtQtQtQt.a.#.b.a.#.b.c.d.g.e.f.#.b.#QtQtQt.j.k.lQtQtQtQtQtQtQtQtQtQtQtQtQtQtQtQtQtQtQtQt",
"QtQtQtQtQtQtQtQtQtQtQtQtQtQtQtQtQt.i.m.m.iQtQtQt.#.b.a.#.a.b.c.c.g.b.a.#.a.bQtQtQt.k.n.kQtQtQtQtQtQtQtQtQtQtQtQtQtQtQtQtQtQtQtQt",
"QtQtQtQtQtQtQtQtQtQtQtQtQtQtQtQtQt.i.o.p.o.pQt.#Qt.#.a.#.a.q.d.c.d.q.#.r.a.#QtQt.j.l.k.sQtQtQtQtQtQtQtQtQtQtQtQtQtQtQtQtQtQtQtQt",
"QtQtQtQtQtQtQtQtQtQtQtQtQtQtQtQtQtQt.i.o.m.iQtQtQt.#.#.#.a.a.d.c.d.t.#.#.#.#QtQt.n.j.uQtQtQtQtQtQtQtQtQtQtQtQtQtQtQtQtQtQtQtQtQt",
"QtQtQtQtQtQtQtQtQtQtQtQtQtQtQtQtQtQtQt.p.v.w.pQtQt.p.i.v.i.#.q.d.c.d.#.#.#QtQt.u.l.uQtQtQtQtQtQtQtQtQtQtQtQtQtQtQtQtQtQtQtQtQtQt",
"QtQtQtQtQtQtQtQtQtQtQtQtQtQtQtQtQtQtQtQt.p.i.m.pQtQt.x.p.m.#.b.d.b.d.#.#.xQt.k.s.uQtQtQtQtQtQtQtQtQtQtQtQtQtQtQtQtQtQtQtQtQtQtQt",
"QtQtQtQtQtQtQtQtQtQtQtQtQtQtQtQtQtQtQtQtQt.p.v.i.p.b.x.x.i.#.b.c.b.d.a.#.x.u.k.uQtQtQtQtQtQtQtQtQtQtQtQtQtQtQtQtQtQtQtQtQtQtQtQt",
"QtQtQtQtQtQtQtQtQtQtQtQtQtQtQtQtQtQtQtQtQtQt.p.m.i.p.a.x.p.#.#.b.v.c.f.#.l.l.uQtQtQtQtQtQtQtQtQtQtQtQtQtQtQtQtQtQtQtQtQtQtQtQtQt",
"QtQtQtQtQtQtQtQtQtQtQtQtQtQtQtQtQtQtQtQtQt.y.p.m.i.p.p.x.x.i.#.b.c.b.a.a.a.k.lQtQtQtQtQtQtQtQtQtQtQtQtQtQtQtQtQtQtQtQtQtQtQtQtQt",
"QtQtQtQtQtQtQtQtQtQtQtQtQtQtQtQtQtQtQtQtQt.z.A.p.i.m.w.p.x.i.#.a.c.b.a.b.#.a.lQtQtQtQtQtQtQtQtQtQtQtQtQtQtQtQtQtQtQtQtQtQtQtQtQt",
"QtQtQtQtQtQtQtQtQtQtQtQtQtQtQtQtQtQtQtQt.B.A.C.p.m.w.w.w.p.p.#.a.d.b.a.c.#.a.k.DQtQtQtQtQtQtQtQtQtQtQtQtQtQtQtQtQtQtQtQtQtQtQtQt",
"QtQtQtQtQtQtQtQtQtQtQtQtQtQtQtQtQtQtQtQt.y.C.E.p.w.m.i.w.w.w.#.b.d.b.v.c.a.u.u.xQtQtQtQtQtQtQtQtQtQtQtQtQtQtQtQtQtQtQtQtQtQtQtQt",
"QtQtQtQtQtQtQtQtQtQtQtQtQtQtQtQtQtQtQtQt.F.E.y.B.i.o.w.e.i.m.#.v.d.b.c.b.a.G.x.HQtQtQtQtQtQtQtQtQtQtQtQtQtQtQtQtQtQtQtQtQtQtQtQt",
"QtQtQtQtQtQtQtQtQtQtQtQtQtQtQtQtQtQtQtQt.y.p.A.z.p.I.m.p.J.p.f.v.d.b.d.a.b.H.K.L.xQtQtQtQtQtQtQtQtQtQtQtQtQtQtQtQtQtQtQtQtQtQtQt",
"QtQtQtQtQtQtQtQtQtQtQtQtQtQtQtQtQtQtQtQt.M.p.p.p.p.o.m.p.G.p.a.c.d.a.d.#.b.x.L.L.GQtQtQtQtQtQtQtQtQtQtQtQtQtQtQtQtQtQtQtQtQtQtQt",
"QtQtQtQtQtQtQtQtQtQtQtQtQtQtQtQtQtQtQtQt.M.N.p.i.p.i.I.p.p.p.l.#.b.c.d.a.c.#.G.L.GQtQtQtQtQtQtQtQtQtQtQtQtQtQtQtQtQtQtQtQtQtQtQt",
"QtQtQtQtQtQtQtQtQtQtQtQtQtQtQtQtQtQtQtQt.K.p.p.w.p.w.i.m.p.p.k.a.b.b.d.#.c.O.b.L.LQtQtQtQtQtQtQtQtQtQtQtQtQtQtQtQtQtQtQtQtQtQtQt",
"QtQtQtQtQtQtQtQtQtQtQtQtQtQtQtQtQtQtQtQtQt.p.N.i.P.i.i.o.I.l.a.b.a.b.c.#.b.O.q.L.LQtQtQtQtQtQtQtQtQtQtQtQtQtQtQtQtQtQtQtQtQtQtQt",
"QtQtQtQtQtQtQtQtQtQtQtQtQtQtQtQtQtQtQtQt.x.G.p.w.L.P.p.w.l.k.a.b.#.b.c.O.b.O.f.Q.eQtQtQtQtQtQtQtQtQtQtQtQtQtQtQtQtQtQtQtQtQtQtQt",
"QtQtQtQtQtQtQtQtQtQtQtQtQtQtQtQtQtQtQtQt.x.L.p.e.w.p.i.l.k.a.a.b.#.f.c.O.a.O.#.b.xQtQtQtQtQtQtQtQtQtQtQtQtQtQtQtQtQtQtQtQtQtQtQt",
"QtQtQtQtQtQtQtQtQtQtQtQtQtQtQtQtQtQtQtQt.x.L.R.e.p.S.l.k.a.a.u.q.f.f.b.O.a.#.r.b.xQtQtQtQtQtQtQtQtQtQtQtQtQtQtQtQtQtQtQtQtQtQtQt",
"QtQtQtQtQtQtQtQtQtQtQtQtQtQtQtQtQtQtQtQt.x.Q.G.G.x.p.k.#.#.u.i.a.b.#.b.O.p.#.O.b.rQtQtQtQtQtQtQtQtQtQtQtQtQtQtQtQtQtQtQtQtQtQtQt",
"QtQtQtQtQtQtQtQtQtQtQtQtQtQtQtQtQtQtQtQt.e.G.T.T.T.l.#.a.u.p.U.#.b.#.b.#.O.O.i.a.rQtQtQtQtQtQtQtQtQtQtQtQtQtQtQtQtQtQtQtQtQtQtQt",
"QtQtQtQtQtQtQtQtQtQtQtQtQtQtQtQtQtQtQtQtQt.T.V.v.l.b.#.u.U.U.U.#.b.#.b.r.J.O.w.a.rQtQtQtQtQtQtQtQtQtQtQtQtQtQtQtQtQtQtQtQtQtQtQt",
"QtQtQtQtQtQtQtQtQtQtQtQtQtQtQtQtQtQtQtQtQt.T.g.v.q.#.u.x.D.x.r.r.#.b.a.r.#.O.o.m.iQtQtQtQtQtQtQtQtQtQtQtQtQtQtQtQtQtQtQtQtQtQtQt",
"QtQtQtQtQtQtQtQtQtQtQtQtQtQtQtQtQtQtQtQtQt.T.W.l.#.a.u.x.D.a.x.#.#.b.#.a.#.p.I.I.m.iQtQtQtQtQtQtQtQtQtQtQtQtQtQtQtQtQtQtQtQtQtQt",
"QtQtQtQtQtQtQtQtQtQtQtQtQtQtQtQtQtQtQtQtQtQt.l.b.a.u.x.G.D.x.x.x.#.b.#.a.O.p.i.I.o.o.mQtQtQtQtQtQtQtQtQtQtQtQtQtQtQtQtQtQtQtQtQt",
"QtQtQtQtQtQtQtQtQtQtQtQtQtQtQtQtQtQtQtQtQt.l.b.#.u.x.x.G.D.x.x.G.G.a.#.O.O.i.i.o.I.I.I.wQtQtQtQtQtQtQtQtQtQtQtQtQtQtQtQtQtQtQtQt",
"QtQtQtQtQtQtQtQtQtQtQtQtQtQtQtQtQtQtQtQtQt.b.#.a.u.x.x.D.x.x.x.G.G.#.r.#.O.o.p.p.i.m.I.m.wQtQtQtQtQtQtQtQtQtQtQtQtQtQtQtQtQtQtQt",
"QtQtQtQtQtQtQtQtQtQtQtQtQtQtQtQtQtQtQtQt.l.#.a.u.X.x.x.D.x.x.x.G.G.L.D.O.O.I.i.p.p.p.m.I.m.wQtQtQtQtQtQtQtQtQtQtQtQtQtQtQtQtQtQt",
"QtQtQtQtQtQtQtQtQtQtQtQtQtQtQtQtQtQtQt.l.b.a.u.Y.x.x.G.D.x.x.x.G.G.L.q.i.O.I.m.pQt.p.p.I.I.wQtQtQtQtQtQtQtQtQtQtQtQtQtQtQtQtQtQt",
"QtQtQtQtQtQtQtQtQtQtQtQtQtQtQtQtQtQt.k.b.#.uQt.Y.x.G.D.q.x.x.G.G.L.L.q.x.w.o.I.i.p.p.p.m.I.o.iQtQtQtQtQtQtQtQtQtQtQtQtQtQtQtQtQt",
"QtQtQtQtQtQtQtQtQtQtQtQtQtQtQtQtQtQt.b.Z.a.u.Y.x.x.G.q.G.x.G.G.G.L.0.q.x.w.o.I.m.p.p.p.w.o.I.iQtQtQtQtQtQtQtQtQtQtQtQtQtQtQtQtQt",
"QtQtQtQtQtQtQtQtQtQtQtQtQtQtQtQtQt.b.Z.a.uQt.Y.x.x.G.q.G.x.x.G.G.L.0.q.x.G.i.o.I.I.m.w.w.o.I.iQtQtQtQtQtQtQtQtQtQtQtQtQtQtQtQtQt",
"QtQtQtQtQtQtQtQtQtQtQtQtQtQtQtQtQt.a.a.uQtQt.Y.x.x.G.L.G.x.x.G.G.L.0.q.x.L.L.i.m.I.I.o.m.o.I.w.iQtQtQtQtQtQtQtQtQtQtQtQtQtQtQtQt",
"QtQtQtQtQtQtQtQtQtQtQtQtQtQtQtQt.k.a.uQtQtQt.Y.x.G.q.L.G.x.G.G.G.L.0.q.x.L.L.G.i.w.m.I.o.o.I.m.iQtQtQtQtQtQtQtQtQtQtQtQtQtQtQtQt",
"QtQtQtQtQtQtQtQtQtQtQtQtQtQtQtQt.u.uQtQtQt.Y.x.x.G.q.L.x.x.G.G.L.L.0.q.x.0.L.L.G.i.w.m.I.I.I.o.iQtQtQtQtQtQtQtQtQtQtQtQtQtQtQtQt",
"QtQtQtQtQtQtQtQtQtQtQtQtQtQtQt.k.uQtQtQtQt.Y.x.x.G.L.L.x.x.G.G.L.0.0.q.x.0.L.L.G.x.i.w.o.o.I.o.iQtQtQtQtQtQtQtQtQtQtQtQtQtQtQtQt",
"QtQtQtQtQtQtQtQtQtQtQtQtQtQtQt.uQtQtQtQtQt.Y.x.G.G.L.L.x.x.G.G.L.0.0.L.q.0.L.L.G.G.YQt.i.w.m.o.wQtQtQtQtQtQtQtQtQtQtQtQtQtQtQtQt",
"QtQtQtQtQtQtQtQtQtQtQtQtQtQtQtQtQtQt.1.1.1.Y.x.G.q.L.0.x.G.G.G.L.0.0.L.q.0.0.L.L.G.x.2.1.i.w.m.iQtQtQtQtQtQtQtQtQtQtQtQtQtQtQtQt",
"QtQtQtQtQtQtQtQtQtQtQtQtQtQtQtQt.1.1.3.4.5.6.x.G.q.L.0.x.G.G.G.L.0.0.L.q.0.0.L.L.G.x.Y.5.4.3.i.iQtQtQtQtQtQtQtQtQtQtQtQtQtQtQtQt",
"QtQtQtQtQtQtQtQtQtQtQtQtQtQtQt.1.3.7.8.9#.###a.G.q.L.0.x.G.G.L.L.0.0.L#b.0.0.L.L.G.x.J#..9.8.7.3.1QtQtQtQtQtQtQtQtQtQtQtQtQtQtQt",
"QtQtQtQtQtQtQtQtQtQtQtQtQtQt.1#c#d#e#f#g#h#i#j#k#l.L.0.x.G.G.L.L.0.0.L#b.0.0.L.G.G.x.Y#h#g#f#m#d#c.1QtQtQtQtQtQtQtQtQtQtQtQtQtQt",
"QtQtQtQtQtQtQtQtQtQtQtQtQt.1.3#n#o#p#q#r#s#t#u#v#w#x#y.x.G.G.L.L.0.0.L#b.0.0.L.G.x.x#t#s#r#q#p#o#n.3.1QtQtQtQtQtQtQtQtQtQtQtQtQt",
"QtQtQtQtQtQtQtQtQtQtQtQtQt.1#z#A#B#C#D#u#x#E#F#F#F#F#F#G#G#G#G.G.L.L.L.q.G.G.G#F#F#F#E#x#u#D#C#B#A#z.1QtQtQtQtQtQtQtQtQtQtQtQtQt",
"QtQtQtQtQtQtQtQtQtQtQtQtQt.1#z#H#B#C#s#u#x#E#F#F#F#F#F#G#G#G#G#I.S.k.k.k.S#I#F#F#F#F#E#x#u#s#C#J#H#z.1QtQtQtQtQtQtQtQtQtQtQtQtQt",
"QtQtQtQtQtQtQtQtQtQtQtQtQt.1#K#n#o#p#q#r#s#t#u#v#w#x#y#y#E#L#L.p.J.r.r.r.S#I#x#w#v#u#t#s#r#q#p#o#n#K.1QtQtQtQtQtQtQtQtQtQtQtQtQt",
"QtQtQtQtQtQtQtQtQtQtQtQtQtQt.1#c#M#m#N#p#O#i#j#k#l#P#Q#R#S#T#U#I.r.p.J.p.r#I#P#l#k#j#i#O#p#N#m#M#c.1QtQtQtQtQtQtQtQtQtQtQtQtQtQt",
"QtQtQtQtQtQtQtQtQtQtQtQtQtQtQt.1#K.5.8.9#.#V#W#X#Y#Z#0#1#q#2#C#3#I#I#I#I#I#0#Z#Y#X#W#V#..9.8.5#K.1QtQtQtQtQtQtQtQtQtQtQtQtQtQtQt",
"QtQtQtQtQtQtQtQtQtQtQtQtQtQtQtQt.1.1.3.4.5.6#4#5#6#7#8#9a.a#aa####aaa#a.#9#8#7#6#5#4#n.5.4.3.1.1QtQtQtQtQtQtQtQtQtQtQtQtQtQtQtQt",
"QtQtQtQtQtQtQtQtQtQtQtQtQtQtQtQtQtQt.1.1.1.2.3#c.4ab.5acadadadaeaeadadadac.5ab.4#c.3.2.1.1.1QtQtQtQtQtQtQtQtQtQtQtQtQtQtQtQtQtQt",
"QtQtQtQtQtQtQtQtQtQtQtQtQtQtQtQtQtQtQtQtQtQt.1.1.1.1.1.1.1.1.1.1.1.1.1.1.1.1.1.1.1.1QtQtQtQtQtQtQtQtQtQtQtQtQtQtQtQtQtQtQtQtQtQt",
"QtQtQtQtQtQtQtQtQtQtQtQtQtQtQtQtQtQtQtQtQtQtQtQtQtQtQtQtQtQtQtQtQtQtQtQtQtQtQtQtQtQtQtQtQtQtQtQtQtQtQtQtQtQtQtQtQtQtQtQtQtQtQtQt",
"QtQtQtQtQtQtQtQtQtQtQtQtQtQtQtQtQtQtQtQtQtQtQtQtQtQtQtQtQtQtQtQtQtQtQtQtQtQtQtQtQtQtQtQtQtQtQtQtQtQtQtQtQtQtQtQtQtQtQtQtQtQtQtQt"};
