/* XPM */
static char *dummy[]={
"64 64 130 2",
"Qt c None",
".Z c #000000",
"a. c #000000",
".3 c #000000",
"#I c #000000",
"#f c #000000",
"#A c #000000",
".4 c #000000",
"a# c #000000",
"#. c #000000",
"#U c #000000",
".0 c #000000",
".1 c #000000",
".2 c #000000",
"#4 c #000000",
"#p c #000000",
"#g c #000000",
"#L c #000000",
"## c #000000",
"#5 c #000000",
"#B c #000000",
"#G c #000000",
"#6 c #000000",
"#a c #000000",
"#7 c #000000",
"#h c #000000",
"#o c #000000",
"#8 c #000000",
"#V c #000000",
"#9 c #000000",
"#q c #000000",
".5 c #000000",
".6 c #000000",
".7 c #000000",
".8 c #000000",
".9 c #000000",
"#W c #000000",
"#i c #000000",
"#M c #000000",
"#X c #000000",
"#C c #000000",
"#H c #000000",
"#Y c #000000",
"#j c #000000",
"#r c #000000",
"#Z c #000000",
"#0 c #000000",
"#N c #000000",
"#1 c #000000",
"#2 c #000000",
"#b c #000000",
"#c c #000000",
"#3 c #000000",
"#d c #000000",
"#e c #000000",
"#O c #000000",
"#s c #000000",
"#P c #000000",
"#Q c #000000",
"#R c #000000",
"#D c #000000",
"#t c #000000",
"#S c #000000",
"#T c #000000",
"#k c #000000",
"#u c #000000",
"#l c #000000",
"#m c #000000",
"#n c #000000",
"#v c #000000",
"#J c #000000",
"#K c #000000",
"#E c #000000",
"#z c #000000",
"#w c #000000",
"#x c #000000",
"#y c #000000",
"#F c #000000",
".E c #001111",
".y c #002b2b",
".K c #005477",
".F c #005e7f",
".H c #007faa",
".G c #00e200",
".g c #080808",
".V c #0f0e11",
".A c #1e424f",
".Q c #212828",
".u c #260c0c",
".W c #26252c",
".S c #35353a",
".T c #35383f",
".z c #3d5358",
".d c #444448",
".w c #470000",
".r c #494482",
".p c #4a2121",
".X c #51545b",
".U c #535353",
".Y c #562f1d",
".I c #637a82",
".# c #6d3300",
".J c #72472d",
".o c #7291ea",
".t c #750000",
".e c #797a7c",
".D c #838384",
".m c #84393a",
".v c #870000",
".N c #8e3314",
".L c #946c45",
".q c #96b2ff",
".a c #996314",
".f c #9e99a6",
".C c #adb2af",
".x c #af001c",
".P c #c09d7b",
".l c #c1bfbc",
".j c #c46555",
".O c #c65619",
".i c #ccd3d6",
".b c #d19e30",
".n c #e5f4ff",
".R c #ef0c23",
".M c #f78c6b",
".h c #f9edd6",
".c c #fcd670",
".B c #ff7084",
".k c #ffa893",
".s c #ffd8ce",
"QtQtQtQtQtQtQtQtQtQtQtQtQtQtQtQtQtQtQtQtQtQtQtQtQtQtQtQtQtQtQtQtQtQtQtQtQtQtQtQtQtQtQtQtQtQtQtQtQtQtQtQtQtQtQtQtQtQtQtQtQtQtQtQt",
"QtQtQtQtQtQtQtQtQtQtQtQtQtQtQtQtQtQtQtQtQtQtQtQtQtQtQtQtQtQtQtQtQtQtQtQtQtQtQtQtQtQtQtQtQtQtQtQtQtQtQtQtQtQtQtQtQtQtQtQtQtQtQtQt",
"QtQtQtQtQtQtQtQtQtQtQtQtQtQtQtQtQtQtQtQtQtQtQtQtQtQtQtQtQtQtQtQtQtQtQtQtQtQtQtQtQtQtQtQtQtQtQtQtQtQtQtQtQtQtQtQtQtQtQtQtQtQtQtQt",
"QtQtQtQtQtQtQtQtQtQtQtQtQtQtQtQtQtQtQtQtQtQtQtQtQtQtQtQtQtQtQtQtQtQtQtQtQtQtQtQtQtQtQtQtQtQtQtQtQtQtQtQtQtQtQtQtQtQtQtQtQtQtQtQt",
"QtQtQtQtQtQtQtQtQtQtQtQtQtQtQtQtQtQtQtQtQtQtQtQtQtQtQtQtQtQtQtQtQtQtQtQtQtQtQtQtQtQtQtQtQtQtQtQtQtQtQtQtQtQtQtQtQtQtQtQtQtQtQtQt",
"QtQtQtQtQtQtQtQtQtQtQtQtQtQtQtQtQtQtQtQtQtQtQtQtQtQtQtQtQtQtQtQtQtQtQtQtQtQtQtQtQtQtQtQtQtQtQtQtQtQtQtQtQtQtQtQtQtQtQtQtQtQtQtQt",
"QtQtQtQtQtQtQtQtQtQtQtQtQtQtQtQtQtQtQtQtQtQtQtQtQtQtQtQtQtQtQtQtQtQtQtQtQtQtQtQtQtQtQtQtQtQtQtQtQtQtQtQtQtQtQtQtQtQtQtQtQtQtQtQt",
"QtQtQtQtQtQtQtQtQtQtQtQtQtQtQtQtQtQtQtQtQtQtQtQtQtQtQtQtQt.#.#.#.#.#QtQt.a.a.a.aQtQtQtQtQtQtQtQtQtQtQtQtQtQtQtQtQtQtQtQtQtQtQtQt",
"QtQtQtQtQtQtQtQtQtQtQtQtQtQtQtQtQtQtQtQtQtQtQtQtQtQtQt.#.a.a.a.a.a.a.a.#.a.#.#.#.aQtQtQtQtQtQtQtQtQtQtQtQtQtQtQtQtQtQtQtQtQtQtQt",
"QtQtQtQtQtQtQtQtQtQtQtQtQtQtQtQtQtQtQtQtQtQtQtQtQtQt.#.a.a.b.b.a.b.b.a.b.b.aQtQt.#QtQtQtQtQtQtQtQtQtQtQtQtQtQtQtQtQtQtQtQtQtQtQt",
"QtQtQtQtQtQtQtQtQtQtQtQtQtQtQtQtQtQtQtQtQtQtQtQtQt.#.a.a.b.b.a.b.c.c.b.c.c.b.aQtQtQtQtQtQtQtQtQtQtQtQtQtQtQtQtQtQtQtQtQtQtQtQtQt",
"QtQtQtQtQtQtQtQtQtQtQtQtQtQtQtQtQtQtQt.d.e.eQtQt.#.a.a.b.b.a.c.c.c.c.c.b.c.c.b.aQtQtQtQtQtQtQtQtQtQtQtQtQtQtQtQtQtQtQtQtQtQtQtQt",
"QtQtQtQtQtQtQtQtQtQtQtQtQtQtQtQtQtQtQt.d.f.g.eQt.#.a.#.b.b.c.c.b.h.c.c.h.c.b.a.b.aQtQtQtQtQtQtQtQtQtQtQtQtQtQtQtQtQtQtQtQtQtQtQt",
"QtQtQtQtQtQtQtQtQtQtQtQtQtQtQtQtQtQtQt.d.i.g.e.#.a.#.b.b.b.c.b.c.h.b.c.h.c.c.b.#.#.#QtQtQtQtQtQtQtQtQtQtQtQtQtQtQtQtQtQtQtQtQtQt",
"QtQtQtQtQtQtQtQtQtQtQtQtQtQtQtQtQtQtQt.d.f.f.d.#.#.a.b.a.c.c.c.h.b.a.h.h.c.h.c.bQtQtQtQtQtQtQtQtQtQtQtQtQtQtQtQtQtQtQtQtQtQtQtQt",
"QtQtQtQtQtQtQtQtQtQtQtQtQtQtQtQtQtQtQtQt.g.g.#.#.#.a.a.#.c.b.c.a.j.k.h.b.c.h.c.b.aQtQtQtQtQtQtQtQtQtQtQtQtQtQtQtQtQtQtQtQtQtQtQt",
"QtQtQtQtQtQtQtQtQtQtQtQtQtQtQtQtQtQtQtQtQt.g.d.#.a.a.#.a.c.a.l.g.g.m.c.a.b.h.c.a.b.aQtQtQtQtQtQtQtQtQtQtQtQtQtQtQtQtQtQtQtQtQtQt",
"QtQtQtQtQtQtQtQtQtQtQtQtQtQtQtQtQtQtQtQtQtQt.g.#.a.#.a.j.b.g.n.o.g.k.b.j.#.h.b.aQtQtQtQtQtQtQtQtQtQtQtQtQtQtQtQtQtQtQtQtQtQtQtQt",
"QtQtQtQtQtQtQtQtQtQtQtQtQtQtQtQtQtQtQtQtQtQt.g.#.d.#.a.j.b.p.k.q.r.s.k.k.#.c.bQtQtQtQtQtQtQtQtQtQtQtQtQtQtQtQtQtQtQtQtQtQtQtQtQt",
"QtQtQtQtQtQtQtQtQtQtQtQtQtQtQtQtQtQtQtQtQtQtQt.g.d.#.a.#.a.p.j.s.s.s.s.k.#.c.aQtQtQtQtQtQtQtQtQtQtQtQtQtQtQtQtQtQtQtQtQtQtQtQtQt",
"QtQtQtQtQtQtQtQtQtQtQtQtQtQtQtQtQtQtQtQtQtQtQt.g.g.f.#.#.#.p.m.k.s.s.s.j.#.bQtQtQtQtQtQtQtQtQtQtQtQtQtQtQtQtQtQtQtQtQtQtQtQtQtQt",
"QtQtQtQtQtQtQtQtQtQtQtQtQtQtQtQtQtQtQtQtQt.g.g.d.g.f.d.t.#.u.p.m.j.k.j.pQt.aQtQtQtQtQtQtQtQtQtQtQtQtQtQtQtQtQtQtQtQtQtQtQtQtQtQt",
"QtQtQtQtQtQtQtQtQtQtQtQtQtQtQtQtQtQtQtQtQt.g.v.d.e.d.w.t.t.x.u.p.p.p.y.p.pQtQtQtQtQtQtQtQtQtQtQtQtQtQtQtQtQtQtQtQtQtQtQtQtQtQtQt",
"QtQtQtQtQtQtQtQtQtQtQtQtQtQtQtQtQtQtQtQtQt.g.g.d.e.w.y.y.y.y.t.x.u.z.z.y.tQtQtQtQtQtQtQtQtQtQtQtQtQtQtQtQtQtQtQtQtQtQtQtQtQtQtQt",
"QtQtQtQtQtQtQtQtQtQtQtQtQtQtQtQtQtQtQtQtQt.g.v.d.e.y.y.A.A.A.t.x.B.C.C.D.EQtQtQtQtQtQtQtQtQtQtQtQtQtQtQtQtQtQtQtQtQtQtQtQtQtQtQt",
"QtQtQtQtQtQtQtQtQtQtQtQtQtQtQtQtQtQtQtQtQt.g.g.g.y.y.F.z.z.A.y.x.y.z.y.y.z.EQtQtQtQtQtQtQtQtQtQtQtQtQtQtQtQtQtQtQtQtQtQtQtQtQtQt",
"QtQtQtQtQtQtQtQtQtQtQtQtQtQtQtQtQtQtQtQtQtQt.g.G.y.A.y.H.z.A.y.x.H.I.z.J.J.EQtQtQtQtQtQtQtQtQtQtQtQtQtQtQtQtQtQtQtQtQtQtQtQtQtQt",
"QtQtQtQtQtQtQtQtQtQtQtQtQtQtQtQtQtQtQtQtQtQt.g.K.y.y.J.z.z.y.y.t.J.L.z.y.A.EQtQtQtQtQtQtQtQtQtQtQtQtQtQtQtQtQtQtQtQtQtQtQtQtQtQt",
"QtQtQtQtQtQtQtQtQtQtQtQtQtQtQtQtQtQtQtQtQtQtQt.m.m.m.y.A.A.y.w.t.A.A.z.J.J.EQtQtQtQtQtQtQtQtQtQtQtQtQtQtQtQtQtQtQtQtQtQtQtQtQtQt",
"QtQtQtQtQtQtQtQtQtQtQtQtQtQtQtQtQtQtQtQtQtQtQt.m.j.M.j.m.y.y.t.x.J.L.z.y.A.EQtQtQtQtQtQtQtQtQtQtQtQtQtQtQtQtQtQtQtQtQtQtQtQtQtQt",
"QtQtQtQtQtQtQtQtQtQtQtQtQtQtQtQtQtQtQtQtQtQt.m.j.M.s.M.m.w.t.t.t.x.A.E.E.E.JQtQtQtQtQtQtQtQtQtQtQtQtQtQtQtQtQtQtQtQtQtQtQtQtQtQt",
"QtQtQtQtQtQtQtQtQtQtQtQtQtQtQtQtQtQtQtQtQtQt.J.J.j.j.m.w.w.w.w.t.t.E.N.z.y.JQtQtQtQtQtQtQtQtQtQtQtQtQtQtQtQtQtQtQtQtQtQtQtQtQtQt",
"QtQtQtQtQtQtQtQtQtQtQtQtQtQtQtQtQtQtQtQtQt.J.L.z.I.z.y.w.t.w.t.w.w.w.y.O.O.wQtQtQtQtQtQtQtQtQtQtQtQtQtQtQtQtQtQtQtQtQtQtQtQtQtQt",
"QtQtQtQtQtQtQtQtQtQtQtQtQtQtQtQtQtQtQtQtQt.J.z.L.P.P.y.t.w.w.x.x.x.t.y.A.y.w.JQtQtQtQtQtQtQtQtQtQtQtQtQtQtQtQtQtQtQtQtQtQtQtQtQt",
"QtQtQtQtQtQtQtQtQtQtQtQtQtQtQtQtQtQtQtQtQt.y.L.z.j.y.w.w.w.w.w.w.w.w.y.z.z.y.w.m.mQtQtQtQtQtQtQtQtQtQtQtQtQtQtQtQtQtQtQtQtQtQtQt",
"QtQtQtQtQtQtQtQtQtQtQtQtQtQtQtQtQtQtQtQtQt.J.z.L.z.m.m.w.w.w.t.v.t.A.y.y.J.y.w.j.M.mQtQtQtQtQtQtQtQtQtQtQtQtQtQtQtQtQtQtQtQtQtQt",
"QtQtQtQtQtQtQtQtQtQtQtQtQtQtQtQtQtQtQtQt.w.p.p.j.M.m.M.m.w.t.t.x.t.A.J.E.J.J.w.M.m.j.mQtQtQtQtQtQtQtQtQtQtQtQtQtQtQtQtQtQtQtQtQt",
"QtQtQtQtQtQtQtQtQtQtQtQtQtQtQtQtQtQt.w.w.t.p.m.m.j.j.M.m.t.t.t.x.t.A.L.y.E.J.y.t.M.j.mQtQtQtQtQtQtQtQtQtQtQtQtQtQtQtQtQtQtQtQtQt",
"QtQtQtQtQtQtQtQtQtQtQtQtQtQtQtQt.w.x.x.v.t.p.m.M.M.s.m.t.t.t.x.t.Q.E.y.L.E.E.y.t.m.mQtQtQtQtQtQtQtQtQtQtQtQtQtQtQtQtQtQtQtQtQtQt",
"QtQtQtQtQtQtQtQtQtQtQtQt.C.C.R.R.R.x.t.t.t.p.m.m.j.j.m.t.t.x.x.t.Q.Q.E.J.E.E.E.w.tQtQtQtQtQtQtQtQtQtQtQtQtQtQtQtQtQtQtQtQtQtQtQt",
"QtQtQtQtQtQtQtQtQtQtQt.C.C.xQt.x.w.w.t.tQt.t.p.M.s.m.t.x.x.x.x.Q.S.T.U.U.U.Q.w.w.tQtQtQtQtQtQtQtQtQtQtQtQtQtQtQtQtQtQtQtQtQtQtQt",
"QtQtQtQtQtQtQtQtQtQt.C.C.x.Q.Q.x.x.tQtQt.w.t.t.t.t.x.x.x.R.R.x.Q.S.T.D.D.D.U.w.w.w.tQtQtQtQtQtQtQtQtQtQtQtQtQtQtQtQtQtQtQtQtQtQt",
"QtQtQtQtQtQtQtQtQtQtQt.D.D.x.t.tQtQtQt.Q.U.U.t.x.x.x.x.R.R.x.V.Q.S.T.D.C.C.D.Q.w.w.tQtQtQtQtQtQtQtQtQtQtQtQtQtQtQtQtQtQtQtQtQtQt",
"QtQtQtQtQtQtQtQtQtQtQtQtQt.w.w.wQtQt.Q.U.Q.e.U.t.x.x.R.R.R.Q.V.Q.S.U.D.C.C.C.Q.w.w.D.UQtQtQtQtQtQtQtQtQtQtQtQtQtQtQtQtQtQtQtQtQt",
"QtQtQtQtQtQtQtQtQtQtQtQtQt.w.w.wQtQt.Q.U.Q.Q.C.U.x.R.R.R.x.V.w.V.W.U.X.D.D.X.Q.w.w.C.QQtQtQtQtQtQtQtQtQtQtQtQtQtQtQtQtQtQtQtQtQt",
"QtQtQtQtQtQtQtQtQtQtQtQtQt.w.w.wQtQtQt.Q.e.e.Q.U.t.R.R.R.Q.VQt.V.Q.T.U.U.T.T.W.w.w.Q.C.UQtQtQtQtQtQtQtQtQtQtQtQtQtQtQtQtQtQtQtQt",
"QtQtQtQtQtQtQtQtQtQtQtQtQt.U.X.UQtQtQtQt.Q.e.Q.e.C.t.x.R.VQtQtQt.V.W.T.T.J.L.J.WQt.D.UQtQtQtQtQtQtQtQtQtQtQtQtQtQtQtQtQtQtQtQtQt",
"QtQtQtQtQtQtQtQtQtQtQtQtQtQt.U.UQtQtQtQtQt.U.C.Q.Q.C.C.CQtQtQtQtQt.V.W.Y.L.X.S.WQtQtQtQtQtQtQtQtQtQtQtQtQtQtQtQtQtQtQtQtQtQtQtQt",
"QtQtQtQtQtQtQtQtQtQtQtQtQtQt.UQtQtQtQtQtQt.V.U.e.C.Q.Q.e.Z.Z.Z.Z.Z.Z.W.S.W.J.L.J.W.ZQtQtQtQtQtQtQtQtQtQtQtQtQtQtQtQtQtQtQtQtQtQt",
"QtQtQtQtQtQtQtQtQtQtQtQtQtQt.UQtQtQt.Z.Z.g.V.V.U.U.e.e.0.1.1.1.2.2.1.V.V.Y.V.X.S.Y.W.X.X.U.ZQtQtQtQtQtQtQtQtQtQtQtQtQtQtQtQtQtQt",
"QtQtQtQtQtQtQtQtQtQtQtQtQtQtQtQt.Z.Z.3.4.V.V.V.V.W.W.V.5.6.7.8.9.9.8.7.V.V.X.S.J.S.X.e.e.e.X.Z.ZQtQtQtQtQtQtQtQtQtQtQtQtQtQtQtQt",
"QtQtQtQtQtQtQtQtQtQtQtQtQtQtQt.Z.3#.###a.g.V.V.W.W.S.W.V#b#c#d#e#e#d#c#b.V.W.Y.S.X.e.e.e.W.V#..3.ZQtQtQtQtQtQtQtQtQtQtQtQtQtQtQt",
"QtQtQtQtQtQtQtQtQtQtQtQtQtQt.Z#f#g#h#i#j.g.V.V.W.W.S.S.V#k#l#m#n#n#m#l#k.V.V.W.X.X.X.X.W.V#i#o#g#f.ZQtQtQtQtQtQtQtQtQtQtQtQtQtQt",
"QtQtQtQtQtQtQtQtQtQtQtQtQt.Z.3#p#q#r#b#s#t#u#v.g.V.V.V.g#w#x#x#y#y#x#x#w#z.V.W.S.X.W.V.g#s#b#r#q#p.3.ZQtQtQtQtQtQtQtQtQtQtQtQtQt",
"QtQtQtQtQtQtQtQtQtQtQtQtQt.Z#A#B#C#d#D#v#E#w#y#y#y#y#y#F#F#F#F#F#F#F#F#F#F#y.V.W.S.V#w#E#v#D#d#C#B#A.ZQtQtQtQtQtQtQtQtQtQtQtQtQt",
"QtQtQtQtQtQtQtQtQtQtQtQtQt.Z#A#G#C#d#t#v#E#w#y#y#y#y#y#F#F#F#F#F#F#F#F#F#F#y.g.V.g#y#w#E#v#t#d#H#G#A.ZQtQtQtQtQtQtQtQtQtQtQtQtQt",
"QtQtQtQtQtQtQtQtQtQtQtQtQt.Z#I#p#q#r#b#s#t#u#v#J#K#E#z#z#w#x#x#y#y#x#x#w#z#z#E#K#J#v#u#t#s#b#r#q#p#I.ZQtQtQtQtQtQtQtQtQtQtQtQtQt",
"QtQtQtQtQtQtQtQtQtQtQtQtQtQt.Z#f#L#o#M#r#N#c#O#P#Q#R#S#T#k#l#n#n#n#n#l#k#T#S#R#Q#P#O#c#N#r#M#o#L#f.ZQtQtQtQtQtQtQtQtQtQtQtQtQtQt",
"QtQtQtQtQtQtQtQtQtQtQtQtQtQtQt.Z#I#U###a#V#W#X#Y#Z#0#1#2#b#3#d#e#e#d#3#b#2#1#0#Z#Y#X#W#V#a###U#I.ZQtQtQtQtQtQtQtQtQtQtQtQtQtQtQt",
"QtQtQtQtQtQtQtQtQtQtQtQtQtQtQtQt.Z.Z.3.4#U#4#5#6#7#8#9.5.6.7.8.9.9.8.7.6.5#9#8#7#6#5#p#U.4.3.Z.ZQtQtQtQtQtQtQtQtQtQtQtQtQtQtQtQt",
"QtQtQtQtQtQtQtQtQtQtQtQtQtQtQtQtQtQt.Z.Z.Za..3#f.4a##U.0.1.1.1.2.2.1.1.1.0#Ua#.4#f.3a..Z.Z.ZQtQtQtQtQtQtQtQtQtQtQtQtQtQtQtQtQtQt",
"QtQtQtQtQtQtQtQtQtQtQtQtQtQtQtQtQtQtQtQtQtQt.Z.Z.Z.Z.Z.Z.Z.Z.Z.Z.Z.Z.Z.Z.Z.Z.Z.Z.Z.ZQtQtQtQtQtQtQtQtQtQtQtQtQtQtQtQtQtQtQtQtQtQt",
"QtQtQtQtQtQtQtQtQtQtQtQtQtQtQtQtQtQtQtQtQtQtQtQtQtQtQtQtQtQtQtQtQtQtQtQtQtQtQtQtQtQtQtQtQtQtQtQtQtQtQtQtQtQtQtQtQtQtQtQtQtQtQtQt",
"QtQtQtQtQtQtQtQtQtQtQtQtQtQtQtQtQtQtQtQtQtQtQtQtQtQtQtQtQtQtQtQtQtQtQtQtQtQtQtQtQtQtQtQtQtQtQtQtQtQtQtQtQtQtQtQtQtQtQtQtQtQtQtQt"};
