/* XPM */
static char *dummy[]={
"64 64 132 2",
"Qt c None",
".Z c #000000",
".0 c #000000",
".1 c #000000",
"#S c #000000",
".2 c #000000",
"#I c #000000",
".3 c #000000",
".5 c #000000",
"#b c #000000",
".4 c #000000",
"a# c #000000",
"aa c #000000",
"ab c #000000",
".6 c #000000",
"#x c #000000",
"#n c #000000",
"#V c #000000",
"#c c #000000",
".7 c #000000",
"#J c #000000",
"#Q c #000000",
".8 c #000000",
"#d c #000000",
"#a c #000000",
"#o c #000000",
"#w c #000000",
"## c #000000",
"#e c #000000",
"#. c #000000",
"#y c #000000",
"#7 c #000000",
"#8 c #000000",
"#9 c #000000",
"a. c #000000",
"#f c #000000",
"#m c #000000",
"#p c #000000",
"#W c #000000",
"#g c #000000",
"#l c #000000",
"#K c #000000",
"#R c #000000",
"#h c #000000",
"#q c #000000",
"#z c #000000",
"#k c #000000",
"#j c #000000",
"#r c #000000",
"#X c #000000",
"#i c #000000",
"#4 c #000000",
"#A c #000000",
"#s c #000000",
"#5 c #000000",
"#L c #000000",
"#6 c #000000",
"#t c #000000",
"#B c #000000",
"#u c #000000",
"#v c #000000",
"#Y c #000000",
"#M c #000000",
"#C c #000000",
"#Z c #000000",
"#0 c #000000",
"#1 c #000000",
"#D c #000000",
"#2 c #000000",
"#3 c #000000",
"#E c #000000",
"#F c #000000",
"#G c #000000",
"#H c #000000",
"#T c #000000",
"#N c #000000",
"#U c #000000",
"#O c #000000",
"#P c #000000",
".A c #001111",
".y c #002b2b",
".L c #005477",
".G c #005e7f",
".I c #007faa",
".H c #00e200",
".g c #080808",
".z c #0f0e11",
".C c #1e424f",
".S c #212828",
".u c #260c0c",
".T c #26252c",
".9 c #35353a",
".U c #35383f",
".X c #371812",
".B c #3d5358",
".d c #444448",
".w c #470000",
".r c #494482",
".p c #4a2121",
".W c #51545b",
".V c #535353",
".Y c #562f1d",
".J c #637a82",
".# c #6d3300",
".K c #72472d",
".o c #7291ea",
".t c #750000",
".e c #797a7c",
".F c #838384",
".m c #84393a",
".v c #870000",
".O c #8e3314",
".M c #946c45",
".q c #96b2ff",
".a c #996314",
".f c #9e99a6",
".E c #adb2af",
".x c #af001c",
".P c #c09d7b",
".l c #c1bfbc",
".j c #c46555",
".Q c #c65619",
".i c #ccd3d6",
".b c #d19e30",
".n c #e5f4ff",
".R c #ef0c23",
".N c #f78c6b",
".h c #f9edd6",
".c c #fcd670",
".D c #ff7084",
".k c #ffa893",
".s c #ffd8ce",
"QtQtQtQtQtQtQtQtQtQtQtQtQtQtQtQtQtQtQtQtQtQtQtQtQtQtQtQtQtQtQtQtQtQtQtQtQtQtQtQtQtQtQtQtQtQtQtQtQtQtQtQtQtQtQtQtQtQtQtQtQtQtQtQt",
"QtQtQtQtQtQtQtQtQtQtQtQtQtQtQtQtQtQtQtQtQtQtQtQtQtQtQtQtQtQtQtQtQtQtQtQtQtQtQtQtQtQtQtQtQtQtQtQtQtQtQtQtQtQtQtQtQtQtQtQtQtQtQtQt",
"QtQtQtQtQtQtQtQtQtQtQtQtQtQtQtQtQtQtQtQtQtQtQtQtQtQtQtQtQtQtQtQtQtQtQtQtQtQtQtQtQtQtQtQtQtQtQtQtQtQtQtQtQtQtQtQtQtQtQtQtQtQtQtQt",
"QtQtQtQtQtQtQtQtQtQtQtQtQtQtQtQtQtQtQtQtQtQtQtQtQtQtQtQtQtQtQtQtQtQtQtQtQtQtQtQtQtQtQtQtQtQtQtQtQtQtQtQtQtQtQtQtQtQtQtQtQtQtQtQt",
"QtQtQtQtQtQtQtQtQtQtQtQtQtQtQtQtQtQtQtQtQtQtQtQtQtQtQtQtQtQtQtQtQtQtQtQtQtQtQtQtQtQtQtQtQtQtQtQtQtQtQtQtQtQtQtQtQtQtQtQtQtQtQtQt",
"QtQtQtQtQtQtQtQtQtQtQtQtQtQtQtQtQtQtQtQtQtQtQtQtQtQtQtQtQtQtQtQtQtQtQtQtQtQtQtQtQtQtQtQtQtQtQtQtQtQtQtQtQtQtQtQtQtQtQtQtQtQtQtQt",
"QtQtQtQtQtQtQtQtQtQtQtQtQtQtQtQtQtQtQtQtQtQtQtQtQtQtQtQtQt.#.#.#.#.#QtQt.a.a.a.aQtQtQtQtQtQtQtQtQtQtQtQtQtQtQtQtQtQtQtQtQtQtQtQt",
"QtQtQtQtQtQtQtQtQtQtQtQtQtQtQtQtQtQtQtQtQtQtQtQtQtQtQt.#.a.a.a.a.a.a.a.#.a.#.#.#.aQtQtQtQtQtQtQtQtQtQtQtQtQtQtQtQtQtQtQtQtQtQtQt",
"QtQtQtQtQtQtQtQtQtQtQtQtQtQtQtQtQtQtQtQtQtQtQtQtQtQt.#.a.a.b.b.a.b.b.a.b.b.aQtQt.#QtQtQtQtQtQtQtQtQtQtQtQtQtQtQtQtQtQtQtQtQtQtQt",
"QtQtQtQtQtQtQtQtQtQtQtQtQtQtQtQtQtQtQtQtQtQtQtQtQt.#.a.a.b.b.a.b.c.c.b.c.c.b.aQtQtQtQtQtQtQtQtQtQtQtQtQtQtQtQtQtQtQtQtQtQtQtQtQt",
"QtQtQtQtQtQtQtQtQtQtQtQtQtQtQtQtQtQtQt.d.e.eQtQt.#.a.a.b.b.a.c.c.c.c.c.b.c.c.b.aQtQtQtQtQtQtQtQtQtQtQtQtQtQtQtQtQtQtQtQtQtQtQtQt",
"QtQtQtQtQtQtQtQtQtQtQtQtQtQtQtQtQtQtQt.d.f.g.eQt.#.a.#.b.b.c.c.b.h.c.c.h.c.b.a.b.aQtQtQtQtQtQtQtQtQtQtQtQtQtQtQtQtQtQtQtQtQtQtQt",
"QtQtQtQtQtQtQtQtQtQtQtQtQtQtQtQtQtQtQt.d.i.g.e.#.a.#.b.b.b.c.b.c.h.b.c.h.c.c.b.#.#.#QtQtQtQtQtQtQtQtQtQtQtQtQtQtQtQtQtQtQtQtQtQt",
"QtQtQtQtQtQtQtQtQtQtQtQtQtQtQtQtQtQtQt.d.f.f.d.#.#.a.b.a.c.c.c.h.b.a.h.h.c.h.c.bQtQtQtQtQtQtQtQtQtQtQtQtQtQtQtQtQtQtQtQtQtQtQtQt",
"QtQtQtQtQtQtQtQtQtQtQtQtQtQtQtQtQtQtQtQt.g.g.#.#.#.a.a.#.c.b.c.a.j.k.h.b.c.h.c.b.aQtQtQtQtQtQtQtQtQtQtQtQtQtQtQtQtQtQtQtQtQtQtQt",
"QtQtQtQtQtQtQtQtQtQtQtQtQtQtQtQtQtQtQtQtQt.g.d.#.a.a.#.a.c.a.l.g.g.m.c.a.b.h.c.a.b.aQtQtQtQtQtQtQtQtQtQtQtQtQtQtQtQtQtQtQtQtQtQt",
"QtQtQtQtQtQtQtQtQtQtQtQtQtQtQtQtQtQtQtQtQtQt.g.#.a.#.a.j.b.g.n.o.g.k.b.j.#.h.b.aQtQtQtQtQtQtQtQtQtQtQtQtQtQtQtQtQtQtQtQtQtQtQtQt",
"QtQtQtQtQtQtQtQtQtQtQtQtQtQtQtQtQtQtQtQtQtQt.g.#.d.#.a.j.b.p.k.q.r.s.k.k.#.c.bQtQtQtQtQtQtQtQtQtQtQtQtQtQtQtQtQtQtQtQtQtQtQtQtQt",
"QtQtQtQtQtQtQtQtQtQtQtQtQtQtQtQtQtQtQtQtQtQtQt.g.d.#.a.#.a.p.j.s.s.s.s.k.#.c.aQtQtQtQtQtQtQtQtQtQtQtQtQtQtQtQtQtQtQtQtQtQtQtQtQt",
"QtQtQtQtQtQtQtQtQtQtQtQtQtQtQtQtQtQtQtQtQtQtQt.g.g.f.#.#.#.p.m.k.s.s.s.j.#.bQtQtQtQtQtQtQtQtQtQtQtQtQtQtQtQtQtQtQtQtQtQtQtQtQtQt",
"QtQtQtQtQtQtQtQtQtQtQtQtQtQtQtQtQtQtQtQtQt.g.g.d.g.f.d.t.#.u.p.m.j.k.j.pQt.aQtQtQtQtQtQtQtQtQtQtQtQtQtQtQtQtQtQtQtQtQtQtQtQtQtQt",
"QtQtQtQtQtQtQtQtQtQtQtQtQtQtQtQtQtQtQtQtQt.g.v.d.e.d.w.t.t.x.u.p.p.p.y.p.pQtQtQtQtQtQtQtQtQtQtQtQtQtQtQtQtQtQtQtQtQtQtQtQtQtQtQt",
"QtQtQtQtQtQtQtQtQtQtQtQtQtQtQtQtQtQtQtQtQt.g.g.d.e.w.z.A.y.y.y.x.u.B.B.y.tQtQtQtQtQtQtQtQtQtQtQtQtQtQtQtQtQtQtQtQtQtQtQtQtQtQtQt",
"QtQtQtQtQtQtQtQtQtQtQtQtQtQtQtQtQtQtQtQtQt.g.v.d.e.A.A.y.y.B.C.x.D.E.E.F.AQtQtQtQtQtQtQtQtQtQtQtQtQtQtQtQtQtQtQtQtQtQtQtQtQtQtQt",
"QtQtQtQtQtQtQtQtQtQtQtQtQtQtQtQtQtQtQtQtQt.g.g.g.e.A.y.G.y.B.C.x.y.B.y.y.B.AQtQtQtQtQtQtQtQtQtQtQtQtQtQtQtQtQtQtQtQtQtQtQtQtQtQt",
"QtQtQtQtQtQtQtQtQtQtQtQtQtQtQtQtQtQtQtQtQtQt.g.H.e.y.y.y.I.B.y.x.I.J.B.y.K.AQtQtQtQtQtQtQtQtQtQtQtQtQtQtQtQtQtQtQtQtQtQtQtQtQtQt",
"QtQtQtQtQtQtQtQtQtQtQtQtQtQtQtQtQtQtQtQtQtQt.g.L.g.y.C.C.B.y.B.y.B.K.M.y.C.AQtQtQtQtQtQtQtQtQtQtQtQtQtQtQtQtQtQtQtQtQtQtQtQtQtQt",
"QtQtQtQtQtQtQtQtQtQtQtQtQtQtQtQtQtQtQtQtQtQtQt.g.y.C.K.B.B.y.w.t.C.C.B.y.K.AQtQtQtQtQtQtQtQtQtQtQtQtQtQtQtQtQtQtQtQtQtQtQtQtQtQt",
"QtQtQtQtQtQtQtQtQtQtQtQtQtQtQtQtQtQtQtQtQtQtQt.g.m.y.y.C.C.y.t.x.C.K.M.y.C.AQtQtQtQtQtQtQtQtQtQtQtQtQtQtQtQtQtQtQtQtQtQtQtQtQtQt",
"QtQtQtQtQtQtQtQtQtQtQtQtQtQtQtQtQtQtQtQtQtQtQtQt.m.j.N.m.y.y.y.t.x.C.A.A.AQtQtQtQtQtQtQtQtQtQtQtQtQtQtQtQtQtQtQtQtQtQtQtQtQtQtQt",
"QtQtQtQtQtQtQtQtQtQtQtQtQtQtQtQtQtQtQtQtQtQtQt.m.j.N.s.N.m.w.w.t.t.A.O.B.yQtQtQtQtQtQtQtQtQtQtQtQtQtQtQtQtQtQtQtQtQtQtQtQtQtQtQt",
"QtQtQtQtQtQtQtQtQtQtQtQtQtQtQtQtQtQtQtQtQtQtQt.m.M.P.P.M.m.t.t.w.w.w.y.Q.QQtQtQtQtQtQtQtQtQtQtQtQtQtQtQtQtQtQtQtQtQtQtQtQtQtQtQt",
"QtQtQtQtQtQtQtQtQtQtQtQtQtQtQtQtQtQtQtQtQtQtQt.M.M.J.B.y.x.w.R.x.x.t.y.C.y.KQtQtQtQtQtQtQtQtQtQtQtQtQtQtQtQtQtQtQtQtQtQtQtQtQtQt",
"QtQtQtQtQtQtQtQtQtQtQtQtQtQtQtQtQtQtQtQtQtQtQt.K.J.P.P.M.w.w.w.w.w.w.y.B.B.yQtQtQtQtQtQtQtQtQtQtQtQtQtQtQtQtQtQtQtQtQtQtQtQtQtQt",
"QtQtQtQtQtQtQtQtQtQtQtQtQtQtQtQtQtQtQtQtQtQtQt.y.M.J.B.j.N.w.w.t.t.C.y.y.K.y.mQtQtQtQtQtQtQtQtQtQtQtQtQtQtQtQtQtQtQtQtQtQtQtQtQt",
"QtQtQtQtQtQtQtQtQtQtQtQtQtQtQtQtQtQtQtQtQtQt.t.w.B.P.M.m.m.N.w.x.t.K.y.A.M.K.y.mQtQtQtQtQtQtQtQtQtQtQtQtQtQtQtQtQtQtQtQtQtQtQtQt",
"QtQtQtQtQtQtQtQtQtQtQtQtQtQtQtQtQtQtQtQtQt.t.w.w.K.m.j.N.s.m.w.x.t.K.M.A.A.M.y.j.mQtQtQtQtQtQtQtQtQtQtQtQtQtQtQtQtQtQtQtQtQtQtQt",
"QtQtQtQtQtQtQtQtQtQtQtQtQtQtQtQtQtQtQtQt.t.w.w.w.p.m.m.N.j.m.t.x.t.y.M.A.S.A.y.j.mQtQtQtQtQtQtQtQtQtQtQtQtQtQtQtQtQtQtQtQtQtQtQt",
"QtQtQtQtQtQtQtQtQtQtQtQtQtQtQtQtQtQt.x.t.t.t.w.w.p.m.m.N.s.N.x.R.t.A.A.S.T.A.A.mQtQtQtQtQtQtQtQtQtQtQtQtQtQtQtQtQtQtQtQtQtQtQtQt",
"QtQtQtQtQtQtQtQtQtQtQtQtQtQtQtQtQt.x.t.t.t.w.t.t.t.p.m.N.s.N.x.R.S.S.U.U.S.w.tQtQtQtQtQtQtQtQtQtQtQtQtQtQtQtQtQtQtQtQtQtQtQtQtQt",
"QtQtQtQtQtQtQtQtQtQtQtQtQtQtQt.R.R.x.t.t.w.w.t.t.t.w.w.w.w.x.R.R.U.U.V.V.S.w.tQtQtQtQtQtQtQtQtQtQtQtQtQtQtQtQtQtQtQtQtQtQtQtQtQt",
"QtQtQtQtQtQtQtQtQtQtQtQt.E.E.R.x.w.w.wQt.S.w.t.t.t.t.t.x.x.R.R.x.U.U.F.F.V.w.x.tQtQtQtQtQtQtQtQtQtQtQtQtQtQtQtQtQtQtQtQtQtQtQtQt",
"QtQtQtQtQtQtQtQtQtQtQt.E.E.x.w.x.x.tQt.S.S.V.w.w.t.t.x.x.x.R.R.x.U.F.E.E.V.w.x.tQtQtQtQtQtQtQtQtQtQtQtQtQtQtQtQtQtQtQtQtQtQtQtQt",
"QtQtQtQtQtQtQtQtQtQtQt.E.x.S.S.t.wQtQt.S.V.S.V.e.V.t.x.x.R.R.R.x.V.F.E.E.F.V.t.SQtQtQtQtQtQtQtQtQtQtQtQtQtQtQtQtQtQtQtQtQtQtQtQt",
"QtQtQtQtQtQtQtQtQtQt.E.F.F.x.t.wQtQtQtQt.S.V.S.S.S.E.V.V.R.R.R.S.V.V.F.F.F.W.e.VQtQtQtQtQtQtQtQtQtQtQtQtQtQtQtQtQtQtQtQtQtQtQtQt",
"QtQtQtQtQtQtQtQtQtQtQtQtQt.V.w.wQtQtQtQtQt.S.S.V.e.S.S.E.E.V.V.S.U.V.F.F.W.T.S.SQtQtQtQtQtQtQtQtQtQtQtQtQtQtQtQtQtQtQtQtQtQtQtQt",
"QtQtQtQtQtQtQtQtQtQtQtQtQt.V.W.VQtQtQtQtQtQtQt.S.S.e.e.S.S.E.E.X.T.T.T.T.MQt.E.eQtQtQtQtQtQtQtQtQtQtQtQtQtQtQtQtQtQtQtQtQtQtQtQt",
"QtQtQtQtQtQtQtQtQtQtQtQtQt.V.VQtQtQtQtQtQtQtQtQtQt.T.S.e.e.S.S.z.X.Y.K.M.TQtQtQtQtQtQtQtQtQtQtQtQtQtQtQtQtQtQtQtQtQtQtQtQtQtQtQt",
"QtQtQtQtQtQtQtQtQtQtQtQt.V.VQtQtQtQtQtQtQtQt.Z.Z.Z.Z.z.S.T.e.e.X.z.T.T.T.M.Z.Z.Z.Z.ZQtQtQtQtQtQtQtQtQtQtQtQtQtQtQtQtQtQtQtQtQtQt",
"QtQtQtQtQtQtQtQtQtQtQtQt.VQtQtQtQtQt.Z.Z.Z.0.1.2.3.X.X.z.z.z.z.z.X.Y.K.M.z.4.5.3.2.1.0.Z.Z.ZQtQtQtQtQtQtQtQtQtQtQtQtQtQtQtQtQtQt",
"QtQtQtQtQtQtQtQtQtQtQtQtQtQtQtQt.Z.Z.1.3.4.6.7.8.z.T.T.Y.Y.z.z.z.z.T.9.W.z#.###a.8.7.6.4.3.1.Z.ZQtQtQtQtQtQtQtQtQtQtQtQtQtQtQtQt",
"QtQtQtQtQtQtQtQtQtQtQtQtQtQtQt.Z.1#b#c#d#e#f#g#h.z.T.T.T.T.z.z.X.z.9.W.Y.z#i#j#k#h#l#m#e#d#c#b.1.ZQtQtQtQtQtQtQtQtQtQtQtQtQtQtQt",
"QtQtQtQtQtQtQtQtQtQtQtQtQtQt.Z.2#n#o#p#q#r#s#t#u.g.z.T.T.z.z.z.z.X.Y.Y.T.W.e.W#v#u#t#s#r#q#p#w#n.2.ZQtQtQtQtQtQtQtQtQtQtQtQtQtQt",
"QtQtQtQtQtQtQtQtQtQtQtQtQt.Z.1#x#y#z#A#B#C#D#E#F#G#H.g.z.z.z.z.z.z.T.U.W.e.e.e.W#F#E#D#C#B#A#z#y#x.1.ZQtQtQtQtQtQtQtQtQtQtQtQtQt",
"QtQtQtQtQtQtQtQtQtQtQtQtQt.Z#I#J#K#L#M#E#H#N#O#O#O#O#O#P#P#P#P.g.z.T.9.W.e.e.W.T#O#O#N#H#E#M#L#K#J#I.ZQtQtQtQtQtQtQtQtQtQtQtQtQt",
"QtQtQtQtQtQtQtQtQtQtQtQtQt.Z#I#Q#K#L#C#E#H#N#O#O#O#O#O#P#P#P#P.g.z.z.z.z.z.z.z.g#O#O#N#H#E#C#L#R#Q#I.ZQtQtQtQtQtQtQtQtQtQtQtQtQt",
"QtQtQtQtQtQtQtQtQtQtQtQtQt.Z#S#x#y#z#A#B#C#D#E#F#G#H#T#T#N#U#U#O#O#U#U#N#T#T#H#G#F#E#D#C#B#A#z#y#x#S.ZQtQtQtQtQtQtQtQtQtQtQtQtQt",
"QtQtQtQtQtQtQtQtQtQtQtQtQtQt.Z.2#V#w#W#z#X#s#t#u#v#Y#Z#0#1#2#3#3#3#3#2#1#0#Z#Y#v#u#t#s#X#z#W#w#V.2.ZQtQtQtQtQtQtQtQtQtQtQtQtQtQt",
"QtQtQtQtQtQtQtQtQtQtQtQtQtQtQt.Z#S.4#c#d#e#m#l#h#k#j#i#4#A#5#L#6#6#L#5#A#4#i#j#k#h#l#m#e#d#c.4#S.ZQtQtQtQtQtQtQtQtQtQtQtQtQtQtQt",
"QtQtQtQtQtQtQtQtQtQtQtQtQtQtQtQt.Z.Z.1.3.4.6.7.8#a###.#7#8#9a.#f#fa.#9#8#7#.###a.8.7#x.4.3.1.Z.ZQtQtQtQtQtQtQtQtQtQtQtQtQtQtQtQt",
"QtQtQtQtQtQtQtQtQtQtQtQtQtQtQtQtQtQt.Z.Z.Z.0.1.2.3.5.4a#aaaaaaababaaaaaaa#.4.5.3.2.1.0.Z.Z.ZQtQtQtQtQtQtQtQtQtQtQtQtQtQtQtQtQtQt",
"QtQtQtQtQtQtQtQtQtQtQtQtQtQtQtQtQtQtQtQtQtQt.Z.Z.Z.Z.Z.Z.Z.Z.Z.Z.Z.Z.Z.Z.Z.Z.Z.Z.Z.ZQtQtQtQtQtQtQtQtQtQtQtQtQtQtQtQtQtQtQtQtQtQt",
"QtQtQtQtQtQtQtQtQtQtQtQtQtQtQtQtQtQtQtQtQtQtQtQtQtQtQtQtQtQtQtQtQtQtQtQtQtQtQtQtQtQtQtQtQtQtQtQtQtQtQtQtQtQtQtQtQtQtQtQtQtQtQtQt",
"QtQtQtQtQtQtQtQtQtQtQtQtQtQtQtQtQtQtQtQtQtQtQtQtQtQtQtQtQtQtQtQtQtQtQtQtQtQtQtQtQtQtQtQtQtQtQtQtQtQtQtQtQtQtQtQtQtQtQtQtQtQtQtQt"};
