/* XPM */
static char *dummy[]={
"128 64 147 2",
"#8 c #000000",
"#E c #001111",
"#y c #002b2b",
"#L c #005477",
"#G c #005e7f",
"#H c #007faa",
"#F c #00e200",
"#d c #080808",
"#Y c #0f0e11",
"#B c #1e424f",
"#W c #212828",
"#v c #260c0c",
"#3 c #26252c",
"#6 c #35353a",
"#9 c #35383f",
"#5 c #371812",
".5 c #383f4a",
".g c #383f4b",
"#V c #383f4c",
".4 c #38404c",
".e c #393f4b",
"Qt c #3a404b",
".h c #3a404c",
"ae c #3d4046",
".d c #3d4047",
"#A c #3d5358",
".f c #3f4148",
".i c #404248",
"am c #424349",
".# c #434245",
"ap c #43434a",
"ai c #44434a",
"#. c #444448",
".j c #44444b",
"aa c #46413d",
".a c #46413e",
"#u c #470000",
".s c #474242",
"ao c #474548",
".k c #47464d",
"#r c #494482",
"ac c #494649",
"#p c #4a2121",
"#J c #4a4138",
".b c #4a423a",
".t c #4a433e",
"aq c #4b4440",
".l c #4b4951",
".c c #4c423a",
".m c #4d484c",
".u c #4e4541",
"#2 c #4f443c",
"ad c #50443c",
"a. c #50453d",
"an c #51453d",
".S c #514743",
"#0 c #51545b",
"ag c #53463f",
"#Z c #535353",
".E c #54473f",
"ab c #544845",
".n c #544946",
".q c #554840",
".r c #554a47",
"#1 c #562f1d",
".p c #584a43",
".o c #584a44",
"ak c #584a47",
".D c #584d4d",
".v c #5a4d4b",
"#4 c #5b4b44",
"aj c #5b4c48",
"#7 c #5c4b43",
"a# c #5d4b43",
".9 c #5e4d45",
"al c #5e4d48",
"ah c #5f4f4d",
".6 c #614d45",
".w c #61514f",
"#l c #635049",
"#T c #637a82",
".7 c #644f48",
"af c #645352",
".x c #655451",
".F c #66514a",
"#b c #67524b",
".T c #67544f",
"#N c #68524b",
".Z c #68534c",
"#K c #69534d",
".Y c #69544d",
".O c #6c564f",
".1 c #6c5650",
".y c #6c5959",
".P c #6d3300",
"#o c #6d5650",
"#g c #6e5651",
".0 c #6e5751",
".G c #6f5750",
".3 c #6f5a56",
".R c #705853",
".A c #705c5c",
".z c #705c5d",
".B c #715c5b",
"#I c #72472d",
".H c #725a55",
"#n c #7291ea",
"#P c #735a54",
".N c #745b56",
".C c #745d59",
"#x c #750000",
"#O c #755c57",
".U c #785e5a",
"## c #797a7c",
".X c #7a5f5b",
".V c #7a605b",
".W c #7a605c",
"#a c #7c615d",
"#t c #7d625e",
".I c #7e625e",
".M c #826663",
".K c #836663",
".L c #836764",
"#D c #838384",
"#k c #84393a",
".J c #846763",
"#w c #870000",
"#R c #8e3314",
"#M c #946c45",
"#q c #96b2ff",
".Q c #996314",
"#c c #9e99a6",
"#C c #adb2af",
"#z c #af001c",
"#U c #c09d7b",
"#j c #c1bfbc",
"#h c #c46555",
"#S c #c65619",
"#f c #ccd3d6",
".2 c #d19e30",
"#m c #e5f4ff",
"#X c #ef0c23",
"#Q c #f78c6b",
"#e c #f9edd6",
".8 c #fcd670",
"#i c #ffa893",
"#s c #ffd8ce",
"QtQtQtQtQtQtQtQtQtQtQtQtQtQtQtQtQtQtQt.#.a.b.b.b.b.b.b.c.b.b.b.b.b.b.b.a.d.e.f.g.f.e.h.hQtQt.f.gQt.f.e.h.f.gQtQtQtQt.f.d.a.c.c.bQtQtQtQtQtQtQtQtQtQtQtQtQtQtQtQtQtQtQt.#.a.b.b.b.b.b.b.c.b.b.b.b.b.b.b.a.d.e.f.g.f.e.h.hQtQt.f.gQt.f.e.h.f.gQtQtQtQt.f.d.a.c.c.b",
"QtQtQtQtQtQtQt.gQt.gQt.g.gQt.g.g.g.g.g.d.a.b.b.b.b.b.b.b.b.b.b.b.b.b.b.a.e.e.g.g.g.g.e.gQt.g.g.g.g.g.e.e.g.g.g.g.gQt.g.d.a.c.c.cQtQtQtQtQtQtQt.gQt.gQt.g.gQt.g.g.g.g.g.d.a.b.b.b.b.b.b.b.b.b.b.b.b.b.b.a.e.e.g.g.g.g.e.gQt.g.g.g.g.g.e.e.g.g.g.g.gQt.g.d.a.c.c.c",
".h.hQtQtQt.g.gQt.gQtQt.g.g.g.g.g.g.g.g.d.a.b.b.b.b.b.b.b.b.b.b.b.b.b.b.a.e.g.g.g.g.g.g.g.g.g.g.g.g.g.e.e.g.g.g.g.g.g.g.d.a.c.c.c.h.hQtQtQt.g.gQt.gQtQt.g.g.g.g.g.g.g.g.d.a.b.b.b.b.b.b.b.b.b.b.b.b.b.b.a.e.g.g.g.g.g.g.g.g.g.g.g.g.g.e.e.g.g.g.g.g.g.g.d.a.c.c.c",
".d.d.d.i.j.j.k.k.k.l.l.l.m.l.l.m.l.l.l.m.n.o.p.o.o.o.q.p.o.o.o.o.o.o.p.n.r.l.l.l.l.l.l.l.l.l.l.l.l.l.l.l.l.l.l.l.k.k.k.j.s.a.t.a.d.d.d.i.j.j.k.k.k.l.l.l.m.l.l.m.l.l.l.m.n.o.p.o.o.o.q.p.o.o.o.o.o.o.p.n.r.l.l.l.l.l.l.l.l.l.l.l.l.l.l.l.l.l.l.l.k.k.k.j.s.a.t.a",
".t.a.a.u.v.w.w.x.y.z.z.z.y.z.z.z.z.A.A.B.B.C.C.C.C.C.C.C.C.C.C.C.C.C.C.C.z.A.A.A.y.z.z.z.z.z.z.y.A.A.z.z.z.z.z.y.x.w.w.D.j.d.d.d.t.a.a.u.v.w.w.x.y.z.z.z.y.z.z.z.z.A.A.B.B.C.C.C.C.C.C.C.C.C.C.C.C.C.C.C.z.A.A.A.y.z.z.z.z.z.z.y.A.A.z.z.z.z.z.y.x.w.w.D.j.d.d.d",
".c.b.b.E.F.G.G.H.I.J.J.K.L.L.L.L.K.J.K.K.J.M.M.M.M.M.L.M.M.M.M.M.M.M.M.L.J.J.K.J.K.K.L.M.J.L.L.K.K.K.K.J.K.J.L.I.N.G.G.w.k.gQtQt.c.b.b.E.F.G.G.H.I.J.J.K.L.L.L.L.K.J.K.K.J.M.M.M.M.M.L.M.M.M.M.M.M.M.M.L.J.J.K.J.K.K.L.M.J.L.L.K.K.K.K.J.K.J.L.I.N.G.G.w.k.gQtQt",
".c.c.b.E.F.G.O.H.I.J.K.K.K.K.J.J.L.K.K.K.K.K.M.M.M.M.M.M.M.M.M.M.P.P.P.P.P.K.K.Q.Q.Q.Q.K.K.K.K.K.K.M.M.K.K.K.K.I.R.O.O.w.kQtQt.h.c.c.b.E.F.G.O.H.I.J.K.K.K.K.J.J.L.K.K.K.K.K.M.M.M.M.M.M.M.M.M.M.M.M.M.M.K.K.K.K.K.K.K.K.K.K.K.K.K.M.M.K.K.K.K.I.R.O.O.w.kQtQt.h",
".a.a.a.S.T.H.H.N.U.V.V.V.V.V.V.V.W.X.U.X.W.I.W.I.X.X.X.X.X.X.P.Q.Q.Q.Q.Q.Q.Q.P.Q.P.P.P.Q.I.I.I.W.X.X.X.W.I.I.W.U.N.N.H.x.k.g.gQt.a.a.a.S.T.H.H.N.U.V.V.V.V.V.V.V.W.X.U.X.W.I.W.I.X.X.X.X.X.X.X.X.X.X.X.X.X.I.X.I.I.W.I.W.I.I.I.W.X.X.X.W.I.I.W.U.N.N.H.x.k.g.gQt",
".d.d.d.m.y.I.I.U.G.Y.Y.Y.Y.Y.Y.Y.Z.Z.Y.G.0.H.H.R.1.Z.Z.Z.Z.P.Q.Q.2.2.Q.2.2.Q.2.2.Q.H.H.P.H.H.H.3.1.Z.Z.1.G.H.H.H.X.M.I.y.k.g.g.f.d.d.d.m.y.I.I.U.G.Y.Y.Y.Y.Y.Y.Y.Z.Z.Y.G.0.H.H.R.1.Z.Z.Z.Z.Z.Z.Z.Z.Z.Y.G.H.H.H.H.H.H.H.H.H.H.H.3.1.Z.Z.1.G.H.H.H.X.M.I.y.k.g.g.f",
"Qt.4.5.l.z.J.K.V.Z.6.6.6.6.6.6.6.6.6.6.7.Z.G.G.x.7.6.7.6.P.Q.Q.2.2.Q.2.8.8.2.8.8.2.Q.1.1.1.1.1.Z.7.6.6.7.Z.1.G.H.X.M.K.B.l.g.e.eQt.4.5.l.z.J.K.V.Z.6.6.6.6.6.6.6.6.6.6.7.Z.G.G.x.7.6.7.6.7.6.7.6.6.6.6.7.x.1.G.Y.G.1.1.1.1.1.1.Z.7.6.6.7.Z.1.G.H.X.M.K.B.l.g.e.e",
"QtQt.5.l.z.J.K.V.Y.6.6.6.6.6.6.6.6.6.9.7.1.G.1#.####.9.P.Q.Q.2.2.Q.8.8.8.8.8.2.8.8.2.Q.1.1.1.G.x.7.6.9.7.1.1.Y.H#a.K.J.B.l.e.e.eQtQt.5.l.z.J.K.V.Y.6.6.6.6.6.6.6.6.6.9.7.1.G.1.Z.7.6.9.6.6.6.6.6.6.6.6.7#b.G.1.1.1.1.1.1.1.1.G.x.7.6.9.7.1.1.Y.H#a.K.J.B.l.e.e.e",
"Qt.5Qt.l.B.J.K.V.Y.6.6.6.7.6.6.7.7.F.7.F#b.1.1#.#c#d##.P.Q.P.2.2.8.8.2#e.8.8#e.8.2.Q.2.Q.1.1.G.1.F.7.7.F.1.1.G.3.I.J.K.B.l.e.e.hQt.5Qt.l.B.J.K.V.Y.6.6.6.7.6.6.7.7.F.7.F#b.1.1#b.7.6.7.6.6.7.6.7.7.7.7.F.1.1.G.1.1.1.G.1.1.1.G.1.F.7.7.F.1.1.G.3.I.J.K.B.l.e.e.h",
"Qt.5.5.l.z.K.K.V.Y.6.6.7.6.6.6.F#b.Z.1#b.F.F.7#.#f#d.P.Q.P.2.2.2.8.2.8#e.2.8#e.8.8.2.P.P.P.1.1.1.Y.Z.1.1.1.1.1.H.I.K.L.z.l.g.gQtQt.5.5.l.z.K.K.V.Y.6.6.7.6.6.6.F#b.Z.1#b.F.F.7.7.7.7.6.6.6.7.6.7.Z.1.x.Y.G.G.G.1.1.G.1.1#g.1.1.1.Y.Z.1.1.1.1.1.H.I.K.L.z.l.g.gQt",
"QtQt.5.l.z.J.K.V.Y.6.6.6.6.7.6.F.1.G.G.1.7.6.6#.#c#c.P.P.Q.2.Q.8.8.8#e.2.Q#e#e.8#e.8.2.1.1#g#g.1.G.G.1.1.G.1.1.H.W.K.L.z.l.g.gQtQtQt.5.l.z.J.K.V.Y.6.6.6.6.7.6.F.1.G.G.1.7.6.6.7.6.6.6.7.6.6.6.7.Z.G.G.1.1.G.1.1.1.1.G.1.1#g#g.1.G.G.1.1.G.1.1.H.W.K.L.z.l.g.gQt",
"Qt.5.5.l.z.K.K.W.Y.6.6.6.6.6.6.F.1.G.G.Y.F.6.6.6#d.P.P.P.Q.Q.P.8.2.8.Q#h#i#e.2.8#e.8.2.Q.1#g.1#g.1.1.G.1.1.1.G.H.I.K.L.z.l.e.g.fQt.5.5.l.z.K.K.W.Y.6.6.6.6.6.6.F.1.G.G.Y.F.6.6.6.6.6.6.6.6.7.6.7.1.G.G.1.G.1.1.1.1.1.1.1.1#g.1#g.1.1.G.1.1.1.G.H.I.K.L.z.l.e.g.f",
"QtQt.5.l.z.K.K.W.Y.6.6.6.7.F.7.F.Z.Z.1.Z.7.6.6.7.6#d.P.Q.Q.P.Q.8.Q#j#d#d#k.8.Q.2#e.8.Q.2.Q.1#g.1.1.G.1.1.1.G.1.H.W.K.L.y.l.e.e.eQtQt.5.l.z.K.K.W.Y.6.6.6.7.F.7.F.Z.Z.1.Z.7.6.6.7.6.7.6.7.7.F.7#b.Z.Z.1.1.1.1.1.G.G.1.G.1#g.1#g.1.1.G.1.1.1.G.1.H.W.K.L.y.l.e.e.e",
"Qt.gQt.m.y.L.L.W.Y.6.6.7#b.Y.1#b.F#l.7.7.7.6.7.6.9.6.P.Q.P.Q#h.2#d#m#n#d#i.2#h.P#e.2.Q#g#g.1.1#g.G.1.0.1.1.1.1.H.W.M.L.z.l.g.gQtQt.gQt.m.y.L.L.W.Y.6.6.7#b.Y.1#b.F#l.7.7.7.6.7.6.9.6.7.7#b.1.1#b.F.F.F.F.x#o.1#g.1#g.1#g#g.1.1#g.G.1.0.1.1.1.1.H.W.M.L.z.l.g.gQt",
"QtQtQt.l.z.L.K.W.Y.6.6.F.Y.G.G.Y.F.6.7.6.6.6.7.6.7.6.P##.P.Q#h.2#p#i#q#r#s#i#i.P.8.2#g.1.1.1#g.1.1.1.1#g.1.1.1.H.I.M.M.z.l.gQtQtQtQtQt.l.z.L.K.W.Y.6.6.F.Y.G.G.Y.F.6.7.6.6.6.7.6.7.6.6.7.Z.G.G.Z.7.6.9.F.1#o#o.1#g.1#g.1.1.1#g.1.1.1.1#g.1.1.1.H.I.M.M.z.l.gQtQt",
"Qt.g.g.l.z.K.K.W.Y.6.6.F.1.G.G.1.7.6.6.6.6.7.6.6.7.6.6#d.P.Q.P.Q#p#h#s#s#s#s#i.P.8.Q#g.1#g.1.1#g.1#g.1.0.G.1.1.H.W.M.M.z.m.g.gQtQt.g.g.l.z.K.K.W.Y.6.6.F.1.G.G.1.7.6.6.6.6.7.6.6.7.6.6.7.1.0.0.1.7.6.6#l.Y.0.1#g.1#g#g.1#g.1.1#g.1#g.1.0.G.1.1.H.W.M.M.z.m.g.gQt",
"Qt.g.g.k.z.K.K.W.Y.7.7.F.Z.Y.1#b.7.6.7.6.6.6.6.7.7.7.7#d#d.P.P.P#p#k#i#s#s#s#h.P.2.1.1#g.1#g#g.1.1.1#g.1.1.1.1.H#t.M.M.z.l.gQtQtQt.g.g.k.z.K.K.W.Y.7.7.F.Z.Y.1#b.7.6.7.6.6.6.6.7.7.7.7#b.Z.Z.1.Z.F.7#l.F.1.1#g.1.1.1.1#g.1#g#g.1.1.1#g.1.1.1.1.H#t.M.M.z.l.gQtQt",
"QtQtQt.l.z.K.K.I.0.Y.Y.Y.F.F.7.F.6.7.6.7.7.6.6.F#b#d#d#.#d#c#u.P#v#p#k#h#i#h#p#g.Q.1#g.1#g.1#g#g.0.1#g.1#g.1.G.H.I.K.J.z.l.g.gQtQtQtQt.l.z.K.K.I.0.Y.Y.Y.F.F.7.F.6.7.6.7.7.6.6.F#b.1.Z#b.F.7.7.F.Y.Y.Y.Y.1#g.1#g#g.1#g.1#g.1#g#g.0.1#g.1#g.1.G.H.I.K.J.z.l.g.gQt",
"QtQtQt.l.z.K.K.W.H.G.0.1.7.6.6.6.6.6.6.6.6.6.6#l.1#d#w#.###u#u#x#u#v#p#p#p#y#p#p.1#g.1#g.1#g.1.1.1#g.1#g#g.1.Y.H.I.K.J.z.l.e.g.hQtQtQt.l.z.K.K.W.H.G.0.1.7.6.6.6.6.6.6.6.6.6.6#l.1.G.G.1.7.6.6.F.Y.G.0.0.1#g#g.1.1#g.1#g.1#g.1.1.1#g.1#g#g.1.Y.H.I.K.J.z.l.e.g.h",
"QtQt.5.k.z.K.K.I.H.G.G.Y.7.6.6.6.7.6.7.6.6.6.6.F.Y#d#d#.###u#x#u#y#y#y#x#z#A#y#x.1#g#g.1#g.1.1#g.1#g.1.1.1#g.1.H.V.K.J.z.l.g.g.hQtQt.5.k.z.K.K.I.H.G.G.Y.7.6.6.6.7.6.7.6.6.6.6.F.Y.G.G.1.F.9.6.7.Y.1.G.G.1.1.1#g.1#g#g.1#g.1.1#g.1#g.1.1.1#g.1.H.V.K.J.z.l.g.g.h",
"Qt.5Qt.l.z.K.K.W.R.Y.Y.Z.F.7#l.F.7.6.6.6.7.F.7.F.Z#d#w#.#u#u#u#y#B#B#y#u#z#C#D#E#g.1#g.1.1#g.1.1.0.1#g.1.1.1.1.B.I.K.J.z.m.d.d.dQt.5Qt.l.z.K.K.W.R.Y.Y.Z.F.7#l.F.7.6.6.6.7.F.7.F.Z.1.Z.Z.F.7.7#l.1.G.1.G#g.1#g.1#g.1#g.1.1#g.1.1.0.1#g.1.1.1.1.B.I.K.J.z.m.d.d.d",
"QtQt.5.k.z.J.J.W.O.7.7.F.Y.Y.O.Y.F.6.6.F#b.Y.1.Z#b#d#d#d#u#u#y#B#A#A#A#y#z#y#y#A#E#g.1.1#g.1.1#g#g.1.1.1.1.1.1.H.W.K.K.B.n.a.a.tQtQt.5.k.z.J.J.W.O.7.7.F.Y.Y.O.Y.F.6.6.F#b.Y.1.Z#b.F.7.F.Z.1.Y.1.1.1.1.1.1.1.1.1.1#g.1.1#g.1.1#g#g.1.1.1.1.1.1.H.W.K.K.B.n.a.a.t",
"Qt.4Qt.l.z.L.K.V.Y.6.6.7.Y.0.G.Y.7.6.6.F.1.G.G.Z.7.6#d#F#u#u#y#y#G#H#A#y#x#A#y#y#I.1.1#g.1#g#g.1.1.1#g.G.G.1.1.H.W.K.K.C.p.c#J.bQt.4Qt.l.z.L.K.V.Y.6.6.7.Y.0.G.Y.7.6.6.F.1.G.G.Z.7.6.6.7.Z.G.G.G.1.1.G.1.3.1.G.1#g.1.1#g.1#g#g.1.1.1#g.G.G.1.1.H.W.K.K.C.p.c#J.b",
"Qt.4.4.l.y.L.L.W#K.6.6.7.O.0.0.Y.F.6.6.7.1.G.G.Y.F.6#d#L#d#u#y#y#y#A#A#y#x#M#I#y#E#g.1.1#g.1.1#g#g.1.1.1.1.1.1.H.I.K.K.H.p#J.b.bQt.4.4.l.y.L.L.W#K.6.6.7.O.0.0.Y.F.6.6.7.1.G.G.Y.F.6.6.7.x.G#g#g.G.1.1.1.1.1.1.1.1#g.1.1#g.1.1#g#g.1.1.1.1.1.1.H.I.K.K.H.p#J.b.b",
".d.d.d.m.z.K.L.W.Y.7.7.F.Y.Y.Y#N.7.6.6.7.Z.Y.Y.Z.F.7.7#d#.#u#y#y#I#y#y#y#z#A#y#y#I.1#g#g.1#g#g.1.1#g.1.G.1.1.1.H.I.K.K.B.p.b.b.b.d.d.d.m.z.K.L.W.Y.7.7.F.Y.Y.Y#N.7.6.6.7.Z.Y.Y.Z.F.7.7#b.1#g.1.1.1.1.G.1.G.1.G.1#g.1#g#g.1#g#g.1.1#g.1.G.1.1.1.H.I.K.K.B.p.b.b.b",
".a.a.a.n.B.J.L.W.R.Y.Y.Y.F.F.F.7.6.6.6.7.F.7.F.F#b.Y.1#d#.#u#y#B#I#y#A#y#x#z#I#B#E.1#g.1#g.1#g.1#g.1.1#g.1.1.1.H.I.M.M.C.p.b.b.b.a.a.a.n.B.J.L.W.R.Y.Y.Y.F.F.F.7.6.6.6.7.F.7.F.F#b.Y.1.1.1.1.1#g#o.1.1#g.1.G.1.1#g.1#g.1#g.1#g.1#g.1.1#g.1.1.1.H.I.M.M.C.p.b.b.b",
".b.b#J.p#O.K.L.W#P.0.0.Y.F.6.6.7.6.7.6.7.6.6.6.7.1.G.G.1#d#d#y#y#y#y#y#y#x#x#E#E.1#g.1#g.1#g.1#g.1#g#g.1.1.1.1.H.W.M.M.C.p.b.b.b.b.b#J.p#O.K.L.W#P.0.0.Y.F.6.6.7.6.7.6.7.6.6.6.7.1.G.G.1.1.1.G.1#o.1#g.1.1.1.1#g.1#g.1#g.1#g.1#g.1#g#g.1.1.1.1.H.W.M.M.C.p.b.b.b",
".b.b.b.p#O.K.K.I.H.0.O.Y#l.6.6.6.6.6.7.6.6.6.6.F.Z.1.1.1.1.1#u#k#h#Q#h#k#u#R#A#y.1.1.1#g.1#g#g.1.1#g.1#g.1.1.G.H.I.M.M.C.q.b.b.b.b.b.b.p#O.K.K.I.H.0.O.Y#l.6.6.6.6.6.7.6.6.6.6.F.Z.1.1.1.1.1.1.0#o#g.1#g.1.1#g.1.1.1.1#g.1#g#g.1.1#g.1#g.1.1.G.H.I.M.M.C.q.b.b.b",
".c.b.b.p#O.K.K.W.H.O.G.Y.F.6.6.6.7.6.6.6.6.7.6.F.1.G.G.1.1.1#u#k#Q#i#Q#k#u#y#S#S#g.1#g.1#g.1.1.1#g.1#g.1.G.1.1.H.W.M.M.C.o#J.b.b.c.b.b.p#O.K.K.W.H.O.G.Y.F.6.6.6.7.6.6.6.6.7.6.F.1.G.G.1.1.1.1.1#g.1#g.1#g#g.1#g#g.1#g.1#g.1.1.1#g.1#g.1.G.1.1.H.W.M.M.C.o#J.b.b",
".b.b.b.p.B.K.K.I.H.1.G.Y.7.7.6.7.6.7.7.6.6.6.6.7.1#g#g#g.G#u#u#k#h#T#A#y#x#u#B#y.1#g.1#g.1.1.1#g.1#g.1#g.1.1.1.H.W.M.M.C.o.b.b.b.b.b.b.p.B.K.K.I.H.1.G.Y.7.7.6.7.6.7.7.6.6.6.6.7.1#g#g#g.G.1.1.0.1#g.1#g.1.1#o#o.1#g.1#g.1.1.1#g.1#g.1#g.1.1.1.H.W.M.M.C.o.b.b.b",
".c.b#J.p.N.K.K.W.H.1.G.Z.7.6.6.6.6.6.6.6.7.6.7.7.x#g.1.1#u#u#u#I#A#M#U#M#y#u#A#A#y.1#g.1.1#g#g.1#g.1.1.1.G.1.1.H.W.M.K.C.o.b.b.b.c.b#J.p.N.K.K.W.H.1.G.Z.7.6.6.6.6.6.6.6.7.6.7.7.x#g.1.1.1.0.1.1#g.1#g#o#g.1#o#o#g.1#g.1.1#g#g.1#g.1.1.1.G.1.1.H.W.M.K.C.o.b.b.b",
".c#J.b.p.C.K.K.I.H.G.G.1.F.6.6.6.7.6.6.7.6.6.6.F.Z.G#g#u#u#u#u#I#y#M#A#T#A#k#Q#y#I#g#g.1#g.1#g.1#g.1#g.1.1.1.1.H#t.M.M.C.p.b.b.c.c#J.b.p.C.K.K.I.H.G.G.1.F.6.6.6.7.6.6.7.6.6.6.F.Z.G#g.1#g.1.1.1.1.1#o#o#o#o#o#o.1#g#g.1#g.1#g.1#g.1#g.1.1.1.1.H#t.M.M.C.p.b.b.c",
".a.a.a.n.B.K.K.X.3.Z.Y.Z.7.6.7.6.6.6.6.7.7.7.7#b.Y.G#u#u#u#u#u#x#I#A#T#p#k#h#i#i#I#y.1#g.1#g.1#g.1#g.1#g.1.G.1.H#t.M.M.z.n.a.a.a.a.a.a.n.B.K.K.X.3.Z.Y.Z.7.6.7.6.6.6.6.7.7.7.7#b.Y.G#g.1#g.1.G.1#g.1#o#o#o#o#o#o.1#g.1#g.1#g.1#g.1#g.1#g.1.G.1.H#t.M.M.z.n.a.a.a",
".d.d.e.r.z.J.J.I.Y.7.F.7.7.6.6.6.7.6.7.7#b.x.Y.Y.G#x#u#u#u#u#x#x#u#y#p#k#k#k#h#h#y#M#g.1.1.1.1.1#g.1#g.1.1.1.G.H.I.K.J.z.m.d.d.d.d.d.e.r.z.J.J.I.Y.7.F.7.7.6.6.6.7.6.7.7#b.x.Y.Y.G.G.1.1.1.1.G.1.G.1.1.1#o.1#g.1.1.1#g.1.1.1.1.1#g.1#g.1.1.1.G.H.I.K.J.z.m.d.d.d",
"Qt.g#V.l.z.L.K.U.Z.6.6.6.6.7.6.7.6.6.6.7.1.G.G#z#x#u#u#u#u#x#x#x#u#I#p#k#k#h#Q#Q#M#y#E#g.1.G.1.1#g.1.1#g#o#o.Y.H.W.K.K.z.lQtQtQtQt.g#V.l.z.L.K.U.Z.6.6.6.6.7.6.7.6.6.6.7.1.G.G.G.1.1.1.G.1.G.1.1.1.1.G.1#o#g#o.1#g.1.1#g.1.G.1.1#g.1.1#g#o#o.Y.H.W.K.K.z.lQtQtQt",
"Qt.g#V.l.z.L.M.W.Z.6.6.7.6.6.6.7.6.6.6.7#b.G#z#x#x#u#u#u#x#x#x#u#u#x#p#k#k#k#h#h#W#E#E.G.1.G.1.3.1#g.1.1#o.G.1.H.I.K.L.z.l.5QtQtQt.g#V.l.z.L.M.W.Z.6.6.7.6.6.6.7.6.6.6.7#b.G.1.G.G.G.1.G.1.1.1.1.1.0.G.G#o#o#o#o.1#g.1.G.1.G.1.3.1#g.1.1#o.G.1.H.I.K.L.z.l.5QtQt",
".d.d.e.m.z.L.M.W.Z.6.6.6.7.6.6.6.7.F.7#b#z#z#x#x#u#u#u#u#x#x#x#u#x#x#x#p#k#h#Q#s#W#W.1.1.1.1.1#g#g.1#g.1.1.x.Y.3.W.K.M.y.l.5QtQt.d.d.e.m.z.L.M.W.Z.6.6.6.7.6.6.6.7.F.7#b.1.G.1.G.Y.Z.x.1.1.1.G.G.1.1.x.1.1#o#o#o.G.1.1.1.1.1.1#g#g.1#g.1.1.x.Y.3.W.K.M.y.l.5QtQt",
".t.a.a.n.B.K.K.U.Z.7.6.6.6#C#C#C#C#x#z#z#x#x#x#u#u#u#u#x#x#x#x#u#u#x#x#z#u#u#u#X#W#W#W.1.1.1.G.1.G.1.G.O.F.F.F.Y.W.K.J.z.lQtQtQt.t.a.a.n.B.K.K.U.Z.7.6.6.6.7.7.7.Z.Y.1.x.G.1.1.Z#b.7.7#b.1.G.G.1#l#l.F.F.Y.G.1.1.1.1.1.1.1.1.G.1.G.1.G.O.F.F.F.Y.W.K.J.z.lQtQtQt",
".b.b#J.p#O.J.J.U.Z.6.6.7.6#D#C.7#u#u#x#x#x#u#u#u.7.6#u#x#x#x#u#u#u#x#x#z#z#z#X#X#W#W#W.G.1.G.1.1.1.G.G.Y.F.6.6.Y.V.K.L.z.lQtQtQt.b.b#J.p#O.J.J.U.Z.6.6.7.6.6.6.7.1.G.1.1.G.G.G.Y.7.6.6.7.Z.G.G.Z#l.6.6.F.Y.G.G.1.1.G.1.G.1.G.1.1.1.G.G.Y.F.6.6.Y.V.K.L.z.lQtQtQt",
".c.b#J.p.C.M.J.V.Z.7.6.6.6.7#D#D#D#u#u#u#u#u.G.1.7#W#W#u#x#x#u#u#x#x#z#z#z#z#X#X#z#W#Y#g.1.1.1.1.1.G.G.Y.F.6.6.Y.V.K.K.z.k.g.4Qt.c.b#J.p.C.M.J.V.Z.7.6.6.6.7.9.7.Z.G.1.G.G.G.G.1.7.9.7.7.x.G.G.O.6.6.6.7.x.G.1#g.1#g.1#g.1.1.1.1.1.G.G.Y.F.6.6.Y.V.K.K.z.k.g.4Qt",
".b.b.b.p.C.K.K.V.Z.6.6.7.7.7.7#Z#Z#u#u#u#u.Z.1#b.F#W#Z#W#x#x#u#u#x#x#z#z#z#z#X#X#z#Y#Y.1.1.1.1.1.Y.Y.Y.F.6.p.o#b.V.K.K.y.l.g.gQt.b.b.b.p.C.K.K.V.Z.6.6.7.7.7.7#b.1.G.1.1.1.Z.1#b.F.7.7#b.Z.O.Z.Z.F.F#l.F.1#g#g.1.1.1#g.1.1.1.1.1.Y.Y.Y.F.6.p.o#b.V.K.K.y.l.g.gQt",
".b.b.b.o.C.M.M.X.Z.7.6.7.Z.Z#Z#Z#0#Z#Z.1#b.7.7.F#W#W#W#W#W#Z#W#Z###x#z#z#z#z#z#C#C#C#1#Y#g.1.G.1#b.F.F.9.E#2#2.9.C.J.J.z.mQtQtQt.b.b.b.o.C.M.M.X.Z.7.6.7.Z.Z.1.Z.1.1.G.1#b.7.7.F#b.Y.1.Z.F.7.7#b.Y.Y.Y.1.1.1.1#g#g.1#g.1#g.1.G.1#b.F.F.9.E#2#2.9.C.J.J.z.mQtQtQt",
".b.b.b.o.C.K.M.X.Z.6.6.7.1#Z#Z#Z#Z.1.G.Z.7.9.6.7#W#W#Z#Z#Z#W#W#W#W#####C#C#C###W#W#W#3#Y#g#o.G.Y#l.6.6#4#2.b.b.q.C.K.J.z.l.hQtQt.b.b.b.o.C.K.M.X.Z.6.6.7.1.1.G.1.1.1.G.Z.7.9.6.7.1.1.G.Z.F.6.6.7.Y.G.G.1.1.1.G.1.1#g.1.1#g#o.G.Y#l.6.6#4#2.b.b.q.C.K.J.z.l.hQtQt",
".b.b.b.o.C.M.M.X.Z.6.9.7.Z.G.G.1.G.1.G.1.7.6.6.7.1.G#W#W#W#Z#Z#Z#Z#W#W#W#W#W#W#C#C#C#1#1#Y.G.G.1.F.6.6.9#2.b.b.o.C.K.K.z.k.5.4Qt.b.b.b.o.C.M.M.X.Z.6.9.7.Z.G.G.1.G.1.G.1.7.6.6.7.1.G.G.1.7.6.9.7.Y.G.1.1.1.1.1.1#g.1#g#g#g.G.G.1.F.6.6.9#2.b.b.o.C.K.K.z.k.5.4Qt",
".a.a.a.r.C.M.M.W.1.7.7#b.1.G.G.G.x.1.Z.Z#b.7.7#b#b#Y#Y#I#W#3#W#W#3#Z#Z#Z#######Y#5#1#3#3#1#Y#6#6.F.6.6#7#2.b.b.o.C.K.J.z.l.5QtQt.a.a.a.r.C.M.M.W.1.7.7#b.1.G.G.G.x.1.Z.Z#b.7.7#b#b.1.Z.Z.F.7.7.F.G.G.G.1.G.1.G.1.1#g.1.1.1.x.Y#b.F.6.6#7#2.b.b.o.C.K.J.z.l.5QtQt",
".d.d.e.r.z.J.K.W.R.Z.Z.1.1.1.1.1.F.7.7.F#b#8#8#8#Y#Y#3#3#I#3#3#Y#8#8#8#8#8#8#8#8#d#Y#3#1#Y#6#9#0#6.7.6.9#2.b.b.n.C.J.J.B.l.g.gQt.d.d.e.r.z.J.K.W.R.Z.Z.1.1.1.1.1.F.7.7.F#b.Y.1#b.F.F.7.F.Z.1.Y.1.1.1#g.1.1.1.1.1.G.1.G.G.F.F.F.F.6.7.6.9#2.b.b.n.C.J.J.B.l.g.gQt",
"Qt.g#V.l.z.J.K.I.H.G.1.G.1.G.G.Z.F.6.6#8#8#8#8#Y#Y#3#3#9#6#3#8#8#8#8#8#8#8#8#8#8#8#5#1#3#3#6#6#6#3#Y#8#7#2.b.b.q.C.J.J.z.l.gQtQtQt.g#V.l.z.J.K.I.H.G.1.G.1.G.G.Z.F.6.6.F.Y.G.1.1.7.9.6.7.Z.G.G.G#g#g.1#g#g.G.1.1.1.1.G.Y.7.6.6.6.6.6.6#7#2.b.b.q.C.J.J.z.l.gQtQt",
"Qt.g#V.l.z.M.M.W.H.G.G.1.G.G.G.1.7.6#8#8#8#8#8#Y#3#3#6#0#6#Y#3#8#8#8#8#8#8#8#8#8#8#Y#Y#3#3#6#3#Y#d#8#8#8a..b.b.n.C.J.J.z.l.g.gQtQt.g#V.l.z.M.M.W.H.G.G.1.G.G.G.1.7.6.6.7.Y.G.G.Y.F.6.6.7.x.G#g#g.1.1#g.1.1#g.1.G.1.G.G.Y.F.6.6.6.6.6.6a#a..b.b.n.C.J.J.z.l.g.gQt",
".d.d.e.m.z.M.M.I.H.O.Y.G.Y.Y.x#b.F#8#8#8#8#8#8#8#Y#6#6#0#0###6#3#8#8#8#8#8#8#8#8#8#8#d#Y#3#Y#d#8#8#8#8#8#8#2#2.9.C.J.K.B.m.d.d.d.d.d.e.m.z.M.M.I.H.O.Y.G.Y.Y.x#b.F.6.6.F.Y.G.G.1.F.7.7#b.1#g.1.1.1#g.1.1#g.1.1.1.Y.x.Y.Z.7.6.6.6.F.F.F.6.q#2#2.9.C.J.K.B.m.d.d.d",
".t.aaa.n.C.K.M.I.H.1.G.Y#b.F.7.7#8#8#8#8#8#8#8#8#8#Y#6#6#0#0###3#8#8#8#8#8#8#8#8#8#8#d#Y#d#8#8#8#8#8#8#8#8#8#7.F.V.K.K.B.n.a.a.a.t.aaa.n.C.K.M.I.H.1.G.Y#b.F.7.7.7.6.6.F.Y.G.G.Y.Y.Y.1.1.1.1.1#g#g.1#g.1.1.G.1.1#N.7.7.7.7.6.6.F#N.Y.1#b.9.o#7.F.V.K.K.B.n.a.a.a",
".b.b#J.p.C.K.M.I.H.1.G.1.7.6.6.6#8#8#8#8#8#8#8#8#8#8#d#Y#0#####3#8#8#8#8#8#8#8#8#8#8#8#8#8#8#8#8#8#8#8#8#8#8.6.Y.V.K.K.C.p.b.c.c.b.b#J.p.C.K.M.I.H.1.G.1.7.6.6.6.6.6.6.F.1.1.G.1.G.G#g.1.1.1.1#g#g.1#g#g.1.G.G.Z.F.6.6.6.6.6.6.F.Y.G.G.Y.F.6.6.Y.V.K.K.C.p.b.c.c",
".c.c#J.p.C.M.M#t.H.1.G.Y.7.6.6.7#8#8#8#8#8#8#8#8#8#8#8#8#d#Y#Y#d#8#8#8#8#8#8#8#8#8#8#8#8#8#8#8#8#8#8#8#8#8#8.6.Y.V.K.K.C.p#J#J.c.c.c#J.p.C.M.M#t.H.1.G.Y.7.6.6.7.6.6.6#l.T.G.1.G.G.1.G.G.1.1.1.1.G.G.1#g.G.G.G.Y.F.6.6.6.6.6.6.F.Y.G.G.1.F.6.6.Y.V.K.K.C.p#J#J.c",
".a.a.a.n.H.I.I.C.0.Z.Y.Z.7.7.6.6#8#8#8#8#8#8#8#8#8#8#8#8#8#8#8#8#8#8#8#8#8#8#8#8#8#8#8#8#8#8#8#8#8#8#8#8#8#8#7.F#O.I.I.3ab.a.a.t.a.a.a.n.H.I.I.C.0.Z.Y.Z.7.7.6.6.7.7.F#b.Y.1.G.O.1.1.1.1.1.1#g.1.Y.Y.x.1.O.Y.Y.Z.F.6.6.7.7.7.F.F.Y.O.Y#b.6#7#7.F#O.I.I.3ab.a.a.t",
".#.d.eac.x.H.H.G.Z.F.7.7.7.7.6.7.Z#8#8#8#8#8#8#8#8#8#8#8#8#8#8#8#8#8#8#8#8#8#8#8#8#8#8#8#8#8#8#8#8#8#8#8#8#2ad.p.Y#O#O.Tacae.d.d.#.d.eac.x.H.H.G.Z.F.7.7.7.7.6.7.Z.Y.O.Y.G.G.G.G.1.1.1.1.1.G.G.O#b.7.F.F.7.F.F.7.6.6.7.7#N.O.Y.Z.F.F.F.9.E#2ad.p.Y#O#O.Tacae.d.d",
".e.g.g.kaf.G.G.1.7.7.6.7.6.6.7.7.Y.G#8#8#8#8#8#8#8#8#8#8#8#8#8#8#8#8#8#8#8#8#8#8#8#8#8#8#8#8#8#8#8#8#8#8ad.b#Jag.F.G.O.w.k.4QtQt.e.g.g.kaf.G.G.1.7.7.6.7.6.6.7.7.Y.G.G.G.G.G.G.O.G.G.G.G.G.G.G.Y.F.6.6.6.6.6.6.6.7.6.6.F.O.O.G.O.F.6.6a#ad.b#Jag.F.G.O.w.k.4QtQt",
".e.e.e.kah.G.G.Z.7.7.6.6.6.7.6.7.O.G.G#8#8#8#8#8#8#8#8#8#8#8#8#8#8#8#8#8#8#8#8#8#8#8#8#8#8#8#8#8#8#8#8.9ad.b.bag.F.0.0.w.k.4QtQt.e.e.e.kah.G.G.Z.7.7.6.6.6.7.6.7.O.G.G.G.1.G.G.G.G.G.G.G.1.G.G.Y.7.6.6.7.6.7.7.6.7.6.6.F.O.G.G.Y.7.7.6.9ad.b.bag.F.0.0.w.k.4QtQt",
".e.f.dai.v#b.7.7.v.n.oaj#7.6#4#4.vafah.w.w#8#8#8#8#8#8#8#8#8#8#8#8#8#8#8#8#8#8#8#8#8#8#8#8#8#8#8#8.oakab#2.a.a.Sal.F.T.vam.4QtQt.e.f.dai.v#b.7.7.v.n.oaj#7.6#4#4.vafah.w.w.F#l.w.wah.w.w.F.w.F.7.9#4#4#4#7#7#7#7#7#7#7.9.7ahaf.v.v.oakab#2.a.a.Sal.F.T.vam.4QtQt",
".t.a.a.tan.E.E.Saoapaiaq#2anan.uac.k.jac.S.E.E.Sac#8#8#8#8#8#8#8#8#8#8#8#8#8#8#8#8#8#8#8#8.k.k.j.jaiai.i.i.d.d.#.u.E.q.u.fQtQtQt.t.a.a.tan.E.E.Saoapaiaq#2anan.uac.k.jac.S.E.E.Sac.k.k.j.Sa..q.Sa.a.a.a.a.a.a.a.a.a.a..uac.k.k.j.jaiai.i.i.d.d.#.u.E.q.u.fQtQtQt",
".b.c.c.c.b.b.baa.e.e.e.e.a.b.c.a.dQt#Vae.a.b.b.a.d#V.g.d.a.b.b.b.c.c.t.b.c.b.b.c.b.b.c.a.d.g.g.g.gQtQtQt.h.h.h.d.a.b.b.a.dQtQtQt.b.c.c.c.b.b.baa.e.e.e.e.a.b.c.a.dQt#Vae.a.b.b.a.d#V.g.d.a.b.b.b.c.c.t.b.c.b.b.c.b.b.c.a.d.g.g.g.gQtQtQt.h.h.h.d.a.b.b.a.dQtQtQt",
".c.c.c.c.b.c.b.t.#.e.e.f.a.c.c.a.dQtQt.d.a#J.b.a.d.hQt.d.a.c.b.b.b.c.b.b.b.b.c.b.b.b.b.a.d.g.gQtQtQtQtQtQt.h.h.d.a.c.b.a.d.h.hQt.c.c.c.c.b.c.b.t.#.e.e.f.a.c.c.a.dQtQt.d.a#J.b.a.d.hQt.d.a.c.b.b.b.c.b.b.b.b.c.b.b.b.b.a.d.g.gQtQtQtQtQtQt.h.h.d.a.c.b.a.d.h.hQt",
".b.b.c.b.b.c.b.t.e.e.g.e.t.c.c.a.dQtQt.d.a.c.b.a.d.hQt.d.a.c.c.c.c.b.c.b.c.c.b.c.c.b.b.t.dQtQtQtQtQtQtQtQtQt.h.d.a.c.c.a.dQtQtQt.b.b.c.b.b.c.b.t.e.e.g.e.t.c.c.a.dQtQt.d.a.c.b.a.d.hQt.d.a.c.c.c.c.b.c.b.c.c.b.c.c.b.b.t.dQtQtQtQtQtQtQtQtQt.h.d.a.c.c.a.dQtQtQt"};
