/* XPM */
static char *dummy[]={
"64 64 131 2",
"Qt c None",
".Y c #000000",
"a# c #000000",
".3 c #000000",
"#P c #000000",
"#i c #000000",
"#H c #000000",
".4 c #000000",
"aa c #000000",
"## c #000000",
"#Y c #000000",
".1 c #000000",
".Z c #000000",
".0 c #000000",
"#6 c #000000",
"#w c #000000",
"#j c #000000",
"#S c #000000",
"#a c #000000",
"#7 c #000000",
"#I c #000000",
"#N c #000000",
"#8 c #000000",
"#b c #000000",
"#9 c #000000",
"#k c #000000",
"#v c #000000",
"a. c #000000",
"#Z c #000000",
"#. c #000000",
"#x c #000000",
".5 c #000000",
".6 c #000000",
".7 c #000000",
".8 c #000000",
".9 c #000000",
"#0 c #000000",
"#l c #000000",
"#T c #000000",
"#1 c #000000",
"#J c #000000",
"#O c #000000",
"#2 c #000000",
"#m c #000000",
"#y c #000000",
"#3 c #000000",
"#4 c #000000",
"#n c #000000",
"#U c #000000",
"#h c #000000",
"#g c #000000",
"#c c #000000",
"#d c #000000",
"#5 c #000000",
"#e c #000000",
"#f c #000000",
"#V c #000000",
"#z c #000000",
"#W c #000000",
"#X c #000000",
"#u c #000000",
"#K c #000000",
"#A c #000000",
"#t c #000000",
"#s c #000000",
"#r c #000000",
"#B c #000000",
"#o c #000000",
"#p c #000000",
"#q c #000000",
"#L c #000000",
"#Q c #000000",
"#R c #000000",
"#G c #000000",
"#F c #000000",
"#E c #000000",
"#C c #000000",
"#D c #000000",
"#M c #000000",
".D c #001111",
".x c #002b2b",
".I c #005477",
".F c #005e7f",
".G c #007faa",
".E c #00e200",
".g c #080808",
".R c #0f0e11",
".A c #1e424f",
".P c #212828",
".u c #260c0c",
".V c #26252c",
".X c #35353a",
".2 c #35383f",
".W c #371812",
".z c #3d5358",
".d c #444448",
".t c #470000",
".r c #494482",
".p c #4a2121",
".T c #51545b",
".S c #535353",
".U c #562f1d",
".N c #637a82",
".# c #6d3300",
".H c #72472d",
".o c #7291ea",
".w c #750000",
".e c #797a7c",
".C c #838384",
".m c #84393a",
".v c #870000",
".L c #8e3314",
".J c #946c45",
".q c #96b2ff",
".a c #996314",
".f c #9e99a6",
".B c #adb2af",
".y c #af001c",
".O c #c09d7b",
".l c #c1bfbc",
".j c #c46555",
".M c #c65619",
".i c #ccd3d6",
".b c #d19e30",
".n c #e5f4ff",
".Q c #ef0c23",
".K c #f78c6b",
".h c #f9edd6",
".c c #fcd670",
".k c #ffa893",
".s c #ffd8ce",
"QtQtQtQtQtQtQtQtQtQtQtQtQtQtQtQtQtQtQtQtQtQtQtQtQtQtQtQtQtQtQtQtQtQtQtQtQtQtQtQtQtQtQtQtQtQtQtQtQtQtQtQtQtQtQtQtQtQtQtQtQtQtQtQt",
"QtQtQtQtQtQtQtQtQtQtQtQtQtQtQtQtQtQtQtQtQtQtQtQtQtQtQtQtQtQtQtQtQtQtQtQtQtQtQtQtQtQtQtQtQtQtQtQtQtQtQtQtQtQtQtQtQtQtQtQtQtQtQtQt",
"QtQtQtQtQtQtQtQtQtQtQtQtQtQtQtQtQtQtQtQtQtQtQtQtQtQtQtQtQtQtQtQtQtQtQtQtQtQtQtQtQtQtQtQtQtQtQtQtQtQtQtQtQtQtQtQtQtQtQtQtQtQtQtQt",
"QtQtQtQtQtQtQtQtQtQtQtQtQtQtQtQtQtQtQtQtQtQtQtQtQtQtQtQtQtQtQtQtQtQtQtQtQtQtQtQtQtQtQtQtQtQtQtQtQtQtQtQtQtQtQtQtQtQtQtQtQtQtQtQt",
"QtQtQtQtQtQtQtQtQtQtQtQtQtQtQtQtQtQtQtQtQtQtQtQtQtQtQtQtQtQtQtQtQtQtQtQtQtQtQtQtQtQtQtQtQtQtQtQtQtQtQtQtQtQtQtQtQtQtQtQtQtQtQtQt",
"QtQtQtQtQtQtQtQtQtQtQtQtQtQtQtQtQtQtQtQtQtQtQtQtQtQtQtQtQtQtQtQtQtQtQtQtQtQtQtQtQtQtQtQtQtQtQtQtQtQtQtQtQtQtQtQtQtQtQtQtQtQtQtQt",
"QtQtQtQtQtQtQtQtQtQtQtQtQtQtQtQtQtQtQtQtQtQtQtQtQtQtQtQtQtQtQtQtQtQtQtQtQtQtQtQtQtQtQtQtQtQtQtQtQtQtQtQtQtQtQtQtQtQtQtQtQtQtQtQt",
"QtQtQtQtQtQtQtQtQtQtQtQtQtQtQtQtQtQtQtQtQtQtQtQtQtQtQtQtQt.#.#.#.#.#QtQt.a.a.a.aQtQtQtQtQtQtQtQtQtQtQtQtQtQtQtQtQtQtQtQtQtQtQtQt",
"QtQtQtQtQtQtQtQtQtQtQtQtQtQtQtQtQtQtQtQtQtQtQtQtQtQtQt.#.a.a.a.a.a.a.a.#.a.#.#.#.aQtQtQtQtQtQtQtQtQtQtQtQtQtQtQtQtQtQtQtQtQtQtQt",
"QtQtQtQtQtQtQtQtQtQtQtQtQtQtQtQtQtQtQtQtQtQtQtQtQtQt.#.a.a.b.b.a.b.b.a.b.b.aQtQt.#QtQtQtQtQtQtQtQtQtQtQtQtQtQtQtQtQtQtQtQtQtQtQt",
"QtQtQtQtQtQtQtQtQtQtQtQtQtQtQtQtQtQtQtQtQtQtQtQtQt.#.a.a.b.b.a.b.c.c.b.c.c.b.aQtQtQtQtQtQtQtQtQtQtQtQtQtQtQtQtQtQtQtQtQtQtQtQtQt",
"QtQtQtQtQtQtQtQtQtQtQtQtQtQtQtQtQtQtQtQt.d.e.eQt.#.a.a.b.b.a.c.c.c.c.c.b.c.c.b.aQtQtQtQtQtQtQtQtQtQtQtQtQtQtQtQtQtQtQtQtQtQtQtQt",
"QtQtQtQtQtQtQtQtQtQtQtQtQtQtQtQtQtQtQtQt.d.f.g.e.#.a.#.b.b.c.c.b.h.c.c.h.c.b.a.b.aQtQtQtQtQtQtQtQtQtQtQtQtQtQtQtQtQtQtQtQtQtQtQt",
"QtQtQtQtQtQtQtQtQtQtQtQtQtQtQtQtQtQtQtQt.d.i.g.#.a.#.b.b.b.c.b.c.h.b.c.h.c.c.b.#.#.#QtQtQtQtQtQtQtQtQtQtQtQtQtQtQtQtQtQtQtQtQtQt",
"QtQtQtQtQtQtQtQtQtQtQtQtQtQtQtQtQtQtQtQt.d.f.f.#.#.a.b.a.c.c.c.h.b.a.h.h.c.h.c.bQtQtQtQtQtQtQtQtQtQtQtQtQtQtQtQtQtQtQtQtQtQtQtQt",
"QtQtQtQtQtQtQtQtQtQtQtQtQtQtQtQtQtQtQtQtQt.g.#.#.#.a.a.#.c.b.c.a.j.k.h.b.c.h.c.b.aQtQtQtQtQtQtQtQtQtQtQtQtQtQtQtQtQtQtQtQtQtQtQt",
"QtQtQtQtQtQtQtQtQtQtQtQtQtQtQtQtQtQtQtQtQtQt.g.#.a.a.#.a.c.a.l.g.g.m.c.a.b.h.c.a.b.aQtQtQtQtQtQtQtQtQtQtQtQtQtQtQtQtQtQtQtQtQtQt",
"QtQtQtQtQtQtQtQtQtQtQtQtQtQtQtQtQtQtQtQtQtQtQt.#.a.#.a.j.b.g.n.o.g.k.b.j.#.h.b.aQtQtQtQtQtQtQtQtQtQtQtQtQtQtQtQtQtQtQtQtQtQtQtQt",
"QtQtQtQtQtQtQtQtQtQtQtQtQtQtQtQtQtQtQtQtQtQtQt.#.e.#.a.j.b.p.k.q.r.s.k.k.#.c.bQtQtQtQtQtQtQtQtQtQtQtQtQtQtQtQtQtQtQtQtQtQtQtQtQt",
"QtQtQtQtQtQtQtQtQtQtQtQtQtQtQtQtQtQtQtQtQtQtQtQt.g.#.a.#.a.p.j.s.s.s.s.k.#.c.aQtQtQtQtQtQtQtQtQtQtQtQtQtQtQtQtQtQtQtQtQtQtQtQtQt",
"QtQtQtQtQtQtQtQtQtQtQtQtQtQtQtQtQtQtQtQtQtQtQtQt.g.g.#.#.#.p.m.k.s.s.s.j.#.bQtQtQtQtQtQtQtQtQtQtQtQtQtQtQtQtQtQtQtQtQtQtQtQtQtQt",
"QtQtQtQtQtQtQtQtQtQtQtQtQtQtQtQtQtQtQtQtQtQt.g.g.d.g.f.t.#.u.p.m.j.k.j.pQt.aQtQtQtQtQtQtQtQtQtQtQtQtQtQtQtQtQtQtQtQtQtQtQtQtQtQt",
"QtQtQtQtQtQtQtQtQtQtQtQtQtQtQtQtQtQtQtQtQtQt.g.v.d.e.t.t.w.t.u.p.p.p.x.p.pQtQtQtQtQtQtQtQtQtQtQtQtQtQtQtQtQtQtQtQtQtQtQtQtQtQtQt",
"QtQtQtQtQtQtQtQtQtQtQtQtQtQtQtQtQtQtQtQtQtQt.g.g.d.e.t.w.t.x.x.x.w.y.z.x.wQtQtQtQtQtQtQtQtQtQtQtQtQtQtQtQtQtQtQtQtQtQtQtQtQtQtQt",
"QtQtQtQtQtQtQtQtQtQtQtQtQtQtQtQtQtQtQtQtQtQt.g.v.d.t.t.t.x.A.A.x.t.y.B.C.DQtQtQtQtQtQtQtQtQtQtQtQtQtQtQtQtQtQtQtQtQtQtQtQtQtQtQt",
"QtQtQtQtQtQtQtQtQtQtQtQtQtQtQtQtQtQtQtQtQtQt.g.g.g.t.t.x.A.z.z.z.x.y.x.x.z.DQtQtQtQtQtQtQtQtQtQtQtQtQtQtQtQtQtQtQtQtQtQtQtQtQtQt",
"QtQtQtQtQtQtQtQtQtQtQtQtQtQtQtQtQtQtQtQtQtQtQt.g.E.t.t.x.x.F.G.z.x.w.z.x.x.HQtQtQtQtQtQtQtQtQtQtQtQtQtQtQtQtQtQtQtQtQtQtQtQtQtQt",
"QtQtQtQtQtQtQtQtQtQtQtQtQtQtQtQtQtQtQtQtQtQtQt.g.I.g.t.x.x.x.z.z.x.w.J.H.x.DQtQtQtQtQtQtQtQtQtQtQtQtQtQtQtQtQtQtQtQtQtQtQtQtQtQt",
"QtQtQtQtQtQtQtQtQtQtQtQtQtQtQtQtQtQtQtQtQtQtQtQt.g.d.t.x.x.H.x.x.x.y.z.x.x.HQtQtQtQtQtQtQtQtQtQtQtQtQtQtQtQtQtQtQtQtQtQtQtQtQtQt",
"QtQtQtQtQtQtQtQtQtQtQtQtQtQtQtQtQtQtQtQtQtQtQtQt.g.d.t.x.A.H.x.z.x.w.y.H.A.DQtQtQtQtQtQtQtQtQtQtQtQtQtQtQtQtQtQtQtQtQtQtQtQtQtQt",
"QtQtQtQtQtQtQtQtQtQtQtQtQtQtQtQtQtQtQtQtQtQtQtQtQt.g.g.x.x.x.x.x.x.w.w.D.DQtQtQtQtQtQtQtQtQtQtQtQtQtQtQtQtQtQtQtQtQtQtQtQtQtQtQt",
"QtQtQtQtQtQtQtQtQtQtQtQtQtQtQtQtQtQtQtQtQtQtQtQtQtQtQt.t.m.j.K.j.m.t.L.z.xQtQtQtQtQtQtQtQtQtQtQtQtQtQtQtQtQtQtQtQtQtQtQtQtQtQtQt",
"QtQtQtQtQtQtQtQtQtQtQtQtQtQtQtQtQtQtQtQtQtQtQtQtQtQtQt.t.m.K.k.K.m.t.x.M.MQtQtQtQtQtQtQtQtQtQtQtQtQtQtQtQtQtQtQtQtQtQtQtQtQtQtQt",
"QtQtQtQtQtQtQtQtQtQtQtQtQtQtQtQtQtQtQtQtQtQtQtQtQtQt.t.t.m.j.N.z.x.w.t.A.xQtQtQtQtQtQtQtQtQtQtQtQtQtQtQtQtQtQtQtQtQtQtQtQtQtQtQt",
"QtQtQtQtQtQtQtQtQtQtQtQtQtQtQtQtQtQtQtQtQtQtQtQtQt.t.t.t.H.z.J.O.J.x.t.z.z.xQtQtQtQtQtQtQtQtQtQtQtQtQtQtQtQtQtQtQtQtQtQtQtQtQtQt",
"QtQtQtQtQtQtQtQtQtQtQtQtQtQtQtQtQtQtQtQtQtQtQtQt.t.t.t.t.H.x.J.z.N.z.m.K.x.HQtQtQtQtQtQtQtQtQtQtQtQtQtQtQtQtQtQtQtQtQtQtQtQtQtQt",
"QtQtQtQtQtQtQtQtQtQtQtQtQtQtQtQtQtQtQtQtQtQtQt.t.t.t.t.t.w.H.z.N.p.m.j.k.k.H.xQtQtQtQtQtQtQtQtQtQtQtQtQtQtQtQtQtQtQtQtQtQtQtQtQt",
"QtQtQtQtQtQtQtQtQtQtQtQtQtQtQtQtQtQtQtQtQtQt.w.t.t.t.t.w.w.t.x.p.m.m.m.j.j.x.JQtQtQtQtQtQtQtQtQtQtQtQtQtQtQtQtQtQtQtQtQtQtQtQtQt",
"QtQtQtQtQtQtQtQtQtQtQtQtQtQtQtQtQtQtQtQt.y.w.t.t.t.t.w.w.w.t.H.p.m.m.j.K.K.J.x.DQtQtQtQtQtQtQtQtQtQtQtQtQtQtQtQtQtQtQtQtQtQtQtQt",
"QtQtQtQtQtQtQtQtQtQtQtQtQtQtQtQtQtQtQt.y.w.w.t.t.t.w.w.w.t.t.w.p.m.m.m.j.j.P.D.DQtQtQtQtQtQtQtQtQtQtQtQtQtQtQtQtQtQtQtQtQtQtQtQt",
"QtQtQtQtQtQtQtQtQtQtQtQtQtQtQtQtQt.y.y.w.w.t.t.t.t.w.w.w.t.w.w.w.p.m.j.K.s.P.PQtQtQtQtQtQtQtQtQtQtQtQtQtQtQtQtQtQtQtQtQtQtQtQtQt",
"QtQtQtQtQtQtQtQtQtQt.B.B.B.B.w.y.y.w.w.w.t.t.t.t.w.w.w.w.t.t.w.w.y.t.t.t.Q.P.P.PQtQtQtQtQtQtQtQtQtQtQtQtQtQtQtQtQtQtQtQtQtQtQtQt",
"QtQtQtQtQtQtQtQtQtQt.C.BQt.t.t.w.w.w.t.t.tQtQt.t.w.w.w.t.t.t.w.w.y.y.y.Q.Q.P.P.PQtQtQtQtQtQtQtQtQtQtQtQtQtQtQtQtQtQtQtQtQtQtQtQt",
"QtQtQtQtQtQtQtQtQtQtQt.C.C.C.t.t.t.t.tQtQtQt.P.P.t.w.w.t.t.w.w.y.y.y.y.Q.Q.y.P.RQtQtQtQtQtQtQtQtQtQtQtQtQtQtQtQtQtQtQtQtQtQtQtQt",
"QtQtQtQtQtQtQtQtQtQtQtQt.S.S.t.t.t.tQtQtQtQt.P.S.P.w.w.t.t.w.w.y.y.y.y.Q.Q.y.R.RQtQtQtQtQtQtQtQtQtQtQtQtQtQtQtQtQtQtQtQtQtQtQtQt",
"QtQtQtQtQtQtQtQtQtQtQt.S.S.T.S.SQtQtQtQtQt.P.P.P.P.P.S.P.S.e.w.y.y.y.y.y.B.B.B.U.RQtQtQtQtQtQtQtQtQtQtQtQtQtQtQtQtQtQtQtQtQtQtQt",
"QtQtQtQtQtQtQtQtQtQt.S.S.S.SQtQtQtQtQtQtQt.P.P.S.S.S.P.P.P.P.e.e.B.B.B.e.P.P.P.V.RQtQtQtQtQtQtQtQtQtQtQtQtQtQtQtQtQtQtQtQtQtQtQt",
"QtQtQtQtQtQtQtQtQtQtQtQtQtQtQtQtQtQtQtQtQtQtQt.P.P.P.S.S.S.S.P.P.P.P.P.P.B.B.B.U.U.RQtQtQtQtQtQtQtQtQtQtQtQtQtQtQtQtQtQtQtQtQtQt",
"QtQtQtQtQtQtQtQtQtQtQtQtQtQtQtQtQtQtQtQtQtQt.R.R.H.P.V.P.P.V.S.S.S.e.e.e.R.W.U.V.V.U.R.X.XQtQtQtQtQtQtQtQtQtQtQtQtQtQtQtQtQtQtQt",
"QtQtQtQtQtQtQtQtQtQtQtQtQtQtQtQtQtQt.Y.Y.Y.R.R.V.V.H.V.V.R.Z.Z.0.0.Z.Z.Z.1.g.R.V.U.R.X.2.T.XQtQtQtQtQtQtQtQtQtQtQtQtQtQtQtQtQtQt",
"QtQtQtQtQtQtQtQtQtQtQtQtQtQtQtQt.Y.Y.3.4.R.R.V.V.2.X.V.5.6.7.8.9.9.8.7.6.5#..W.U.V.V.X.X.X.V.R.YQtQtQtQtQtQtQtQtQtQtQtQtQtQtQtQt",
"QtQtQtQtQtQtQtQtQtQtQtQtQtQtQt.Y.3###a#b.R.V.V.X.T.X.R.V#c#d#e#f#f#e#d#c#g#h.R.R.V.V.X.V.R.g##.3.YQtQtQtQtQtQtQtQtQtQtQtQtQtQtQt",
"QtQtQtQtQtQtQtQtQtQtQtQtQtQt.Y#i#j#k#l#m#n.R.X.X.T.T.e.X.V#o#p#q#q#p#o#r#s#t#u.g.R.V.R.g#m#l#v#j#i.YQtQtQtQtQtQtQtQtQtQtQtQtQtQt",
"QtQtQtQtQtQtQtQtQtQtQtQtQt.Y.3#w#x#y#c#z#A#B.R.X.X.T.T.e.V#C#C#D#D#C#C#E#F#F#G.g.R.g#B#A#z#c#y#x#w.3.YQtQtQtQtQtQtQtQtQtQtQtQtQt",
"QtQtQtQtQtQtQtQtQtQtQtQtQt.Y#H#I#J#e#K#L#G#E#D.g.R.T.e.e.V#M#M#M#M#M#M#M#M#D#D#D#D#D#E#G#L#K#e#J#I#H.YQtQtQtQtQtQtQtQtQtQtQtQtQt",
"QtQtQtQtQtQtQtQtQtQtQtQtQt.Y#H#N#J#e#A#L#G#E#D#D#D.g.R.R.g#M#M#M#M#M#M#M#M#D#D#D#D#D#E#G#L#A#e#O#N#H.YQtQtQtQtQtQtQtQtQtQtQtQtQt",
"QtQtQtQtQtQtQtQtQtQtQtQtQt.Y#P#w#x#y#c#z#A#B#L#Q#R#G#F#F#E#C#C#D#D#C#C#E#F#F#G#R#Q#L#B#A#z#c#y#x#w#P.YQtQtQtQtQtQtQtQtQtQtQtQtQt",
"QtQtQtQtQtQtQtQtQtQtQtQtQtQt.Y#i#S#v#T#y#U#d#V#W#X#u#t#s#r#o#q#q#q#q#o#r#s#t#u#X#W#V#d#U#y#T#v#S#i.YQtQtQtQtQtQtQtQtQtQtQtQtQtQt",
"QtQtQtQtQtQtQtQtQtQtQtQtQtQtQt.Y#P#Y#a#b#Z#0#1#2#3#4#h#g#c#5#e#f#f#e#5#c#g#h#4#3#2#1#0#Z#b#a#Y#P.YQtQtQtQtQtQtQtQtQtQtQtQtQtQtQt",
"QtQtQtQtQtQtQtQtQtQtQtQtQtQtQtQt.Y.Y.3.4#Y#6#7#8#9a.#..5.6.7.8.9.9.8.7.6.5#.a.#9#8#7#w#Y.4.3.Y.YQtQtQtQtQtQtQtQtQtQtQtQtQtQtQtQt",
"QtQtQtQtQtQtQtQtQtQtQtQtQtQtQtQtQtQt.Y.Y.Ya#.3#i.4aa#Y.1.Z.Z.Z.0.0.Z.Z.Z.1#Yaa.4#i.3a#.Y.Y.YQtQtQtQtQtQtQtQtQtQtQtQtQtQtQtQtQtQt",
"QtQtQtQtQtQtQtQtQtQtQtQtQtQtQtQtQtQtQtQtQtQt.Y.Y.Y.Y.Y.Y.Y.Y.Y.Y.Y.Y.Y.Y.Y.Y.Y.Y.Y.YQtQtQtQtQtQtQtQtQtQtQtQtQtQtQtQtQtQtQtQtQtQt",
"QtQtQtQtQtQtQtQtQtQtQtQtQtQtQtQtQtQtQtQtQtQtQtQtQtQtQtQtQtQtQtQtQtQtQtQtQtQtQtQtQtQtQtQtQtQtQtQtQtQtQtQtQtQtQtQtQtQtQtQtQtQtQtQt",
"QtQtQtQtQtQtQtQtQtQtQtQtQtQtQtQtQtQtQtQtQtQtQtQtQtQtQtQtQtQtQtQtQtQtQtQtQtQtQtQtQtQtQtQtQtQtQtQtQtQtQtQtQtQtQtQtQtQtQtQtQtQtQtQt"};
