/* XPM */
static char *dummy[]={
"64 64 130 2",
"Qt c None",
".V c #000000",
".Y c #000000",
".Z c #000000",
"#O c #000000",
".0 c #000000",
"#D c #000000",
".1 c #000000",
".5 c #000000",
"## c #000000",
".4 c #000000",
".3 c #000000",
"a. c #000000",
"a# c #000000",
".6 c #000000",
"#t c #000000",
"#j c #000000",
"#R c #000000",
"#a c #000000",
".7 c #000000",
"#E c #000000",
"#M c #000000",
".8 c #000000",
"#b c #000000",
".9 c #000000",
"#k c #000000",
"#s c #000000",
"#. c #000000",
"#c c #000000",
"#5 c #000000",
"#u c #000000",
"#6 c #000000",
"#7 c #000000",
"#8 c #000000",
"#9 c #000000",
"#d c #000000",
"#i c #000000",
"#l c #000000",
"#S c #000000",
"#e c #000000",
"#h c #000000",
"#F c #000000",
"#N c #000000",
"#f c #000000",
"#m c #000000",
"#v c #000000",
"#g c #000000",
"#0 c #000000",
"#n c #000000",
"#T c #000000",
"#1 c #000000",
"#2 c #000000",
"#w c #000000",
"#o c #000000",
"#3 c #000000",
"#G c #000000",
"#4 c #000000",
"#p c #000000",
"#x c #000000",
"#q c #000000",
"#r c #000000",
"#U c #000000",
"#H c #000000",
"#y c #000000",
"#V c #000000",
"#W c #000000",
"#X c #000000",
"#z c #000000",
"#Y c #000000",
"#Z c #000000",
"#A c #000000",
"#B c #000000",
"#C c #000000",
"#I c #000000",
"#P c #000000",
"#J c #000000",
"#Q c #000000",
"#K c #000000",
"#L c #000000",
".D c #001111",
".x c #002b2b",
".J c #005477",
".E c #005e7f",
".G c #007faa",
".F c #00e200",
".g c #080808",
".R c #0f0e11",
".A c #1e424f",
".Q c #212828",
".u c #260c0c",
".U c #26252c",
".X c #35353a",
".W c #371812",
".z c #3d5358",
".d c #444448",
".t c #470000",
".r c #494482",
".p c #4a2121",
".T c #51545b",
".S c #535353",
".2 c #562f1d",
".H c #637a82",
".# c #6d3300",
".I c #72472d",
".o c #7291ea",
".w c #750000",
".e c #797a7c",
".C c #838384",
".m c #84393a",
".v c #870000",
".M c #8e3314",
".K c #946c45",
".q c #96b2ff",
".a c #996314",
".f c #9e99a6",
".B c #adb2af",
".y c #af001c",
".N c #c09d7b",
".l c #c1bfbc",
".j c #c46555",
".O c #c65619",
".i c #ccd3d6",
".b c #d19e30",
".n c #e5f4ff",
".P c #ef0c23",
".L c #f78c6b",
".h c #f9edd6",
".c c #fcd670",
".k c #ffa893",
".s c #ffd8ce",
"QtQtQtQtQtQtQtQtQtQtQtQtQtQtQtQtQtQtQtQtQtQtQtQtQtQtQtQtQtQtQtQtQtQtQtQtQtQtQtQtQtQtQtQtQtQtQtQtQtQtQtQtQtQtQtQtQtQtQtQtQtQtQtQt",
"QtQtQtQtQtQtQtQtQtQtQtQtQtQtQtQtQtQtQtQtQtQtQtQtQtQtQtQtQtQtQtQtQtQtQtQtQtQtQtQtQtQtQtQtQtQtQtQtQtQtQtQtQtQtQtQtQtQtQtQtQtQtQtQt",
"QtQtQtQtQtQtQtQtQtQtQtQtQtQtQtQtQtQtQtQtQtQtQtQtQtQtQtQtQtQtQtQtQtQtQtQtQtQtQtQtQtQtQtQtQtQtQtQtQtQtQtQtQtQtQtQtQtQtQtQtQtQtQtQt",
"QtQtQtQtQtQtQtQtQtQtQtQtQtQtQtQtQtQtQtQtQtQtQtQtQtQtQtQtQtQtQtQtQtQtQtQtQtQtQtQtQtQtQtQtQtQtQtQtQtQtQtQtQtQtQtQtQtQtQtQtQtQtQtQt",
"QtQtQtQtQtQtQtQtQtQtQtQtQtQtQtQtQtQtQtQtQtQtQtQtQtQtQtQtQtQtQtQtQtQtQtQtQtQtQtQtQtQtQtQtQtQtQtQtQtQtQtQtQtQtQtQtQtQtQtQtQtQtQtQt",
"QtQtQtQtQtQtQtQtQtQtQtQtQtQtQtQtQtQtQtQtQtQtQtQtQtQtQtQtQtQtQtQtQtQtQtQtQtQtQtQtQtQtQtQtQtQtQtQtQtQtQtQtQtQtQtQtQtQtQtQtQtQtQtQt",
"QtQtQtQtQtQtQtQtQtQtQtQtQtQtQtQtQtQtQtQtQtQtQtQtQtQtQtQtQt.#.#.#.#.#QtQt.a.a.a.aQtQtQtQtQtQtQtQtQtQtQtQtQtQtQtQtQtQtQtQtQtQtQtQt",
"QtQtQtQtQtQtQtQtQtQtQtQtQtQtQtQtQtQtQtQtQtQtQtQtQtQtQt.#.a.a.a.a.a.a.a.#.a.#.#.#.aQtQtQtQtQtQtQtQtQtQtQtQtQtQtQtQtQtQtQtQtQtQtQt",
"QtQtQtQtQtQtQtQtQtQtQtQtQtQtQtQtQtQtQtQtQtQtQtQtQtQt.#.a.a.b.b.a.b.b.a.b.b.aQtQt.#QtQtQtQtQtQtQtQtQtQtQtQtQtQtQtQtQtQtQtQtQtQtQt",
"QtQtQtQtQtQtQtQtQtQtQtQtQtQtQtQtQtQtQtQtQtQtQtQtQt.#.a.a.b.b.a.b.c.c.b.c.c.b.aQtQtQtQtQtQtQtQtQtQtQtQtQtQtQtQtQtQtQtQtQtQtQtQtQt",
"QtQtQtQtQtQtQtQtQtQtQtQtQtQtQtQtQtQtQtQt.d.e.eQt.#.a.a.b.b.a.c.c.c.c.c.b.c.c.b.aQtQtQtQtQtQtQtQtQtQtQtQtQtQtQtQtQtQtQtQtQtQtQtQt",
"QtQtQtQtQtQtQtQtQtQtQtQtQtQtQtQtQtQtQtQt.d.f.g.e.#.a.#.b.b.c.c.b.h.c.c.h.c.b.a.b.aQtQtQtQtQtQtQtQtQtQtQtQtQtQtQtQtQtQtQtQtQtQtQt",
"QtQtQtQtQtQtQtQtQtQtQtQtQtQtQtQtQtQtQtQt.d.i.g.#.a.#.b.b.b.c.b.c.h.b.c.h.c.c.b.#.#.#QtQtQtQtQtQtQtQtQtQtQtQtQtQtQtQtQtQtQtQtQtQt",
"QtQtQtQtQtQtQtQtQtQtQtQtQtQtQtQtQtQtQtQt.d.f.f.#.#.a.b.a.c.c.c.h.b.a.h.h.c.h.c.bQtQtQtQtQtQtQtQtQtQtQtQtQtQtQtQtQtQtQtQtQtQtQtQt",
"QtQtQtQtQtQtQtQtQtQtQtQtQtQtQtQtQtQtQtQtQt.g.#.#.#.a.a.#.c.b.c.a.j.k.h.b.c.h.c.b.aQtQtQtQtQtQtQtQtQtQtQtQtQtQtQtQtQtQtQtQtQtQtQt",
"QtQtQtQtQtQtQtQtQtQtQtQtQtQtQtQtQtQtQtQtQtQt.g.#.a.a.#.a.c.a.l.g.g.m.c.a.b.h.c.a.b.aQtQtQtQtQtQtQtQtQtQtQtQtQtQtQtQtQtQtQtQtQtQt",
"QtQtQtQtQtQtQtQtQtQtQtQtQtQtQtQtQtQtQtQtQtQtQt.#.a.#.a.j.b.g.n.o.g.k.b.j.#.h.b.aQtQtQtQtQtQtQtQtQtQtQtQtQtQtQtQtQtQtQtQtQtQtQtQt",
"QtQtQtQtQtQtQtQtQtQtQtQtQtQtQtQtQtQtQtQtQtQtQt.#.e.#.a.j.b.p.k.q.r.s.k.k.#.c.bQtQtQtQtQtQtQtQtQtQtQtQtQtQtQtQtQtQtQtQtQtQtQtQtQt",
"QtQtQtQtQtQtQtQtQtQtQtQtQtQtQtQtQtQtQtQtQtQtQtQt.g.#.a.#.a.p.j.s.s.s.s.k.#.c.aQtQtQtQtQtQtQtQtQtQtQtQtQtQtQtQtQtQtQtQtQtQtQtQtQt",
"QtQtQtQtQtQtQtQtQtQtQtQtQtQtQtQtQtQtQtQtQtQtQtQt.g.g.#.#.#.p.m.k.s.s.s.j.#.bQtQtQtQtQtQtQtQtQtQtQtQtQtQtQtQtQtQtQtQtQtQtQtQtQtQt",
"QtQtQtQtQtQtQtQtQtQtQtQtQtQtQtQtQtQtQtQtQtQt.g.g.d.g.f.t.#.u.p.m.j.k.j.pQt.aQtQtQtQtQtQtQtQtQtQtQtQtQtQtQtQtQtQtQtQtQtQtQtQtQtQt",
"QtQtQtQtQtQtQtQtQtQtQtQtQtQtQtQtQtQtQtQtQtQt.g.v.d.e.t.t.w.w.u.p.p.p.x.p.pQtQtQtQtQtQtQtQtQtQtQtQtQtQtQtQtQtQtQtQtQtQtQtQtQtQtQt",
"QtQtQtQtQtQtQtQtQtQtQtQtQtQtQtQtQtQtQtQtQtQt.g.g.d.t.t.t.x.x.x.w.y.z.z.x.wQtQtQtQtQtQtQtQtQtQtQtQtQtQtQtQtQtQtQtQtQtQtQtQtQtQtQt",
"QtQtQtQtQtQtQtQtQtQtQtQtQtQtQtQtQtQtQtQtQtQt.g.v.d.t.t.x.x.z.A.w.y.B.B.C.DQtQtQtQtQtQtQtQtQtQtQtQtQtQtQtQtQtQtQtQtQtQtQtQtQtQtQt",
"QtQtQtQtQtQtQtQtQtQtQtQtQtQtQtQtQtQtQtQtQtQt.g.g.g.t.x.E.x.z.A.D.y.z.x.x.z.DQtQtQtQtQtQtQtQtQtQtQtQtQtQtQtQtQtQtQtQtQtQtQtQtQtQt",
"QtQtQtQtQtQtQtQtQtQtQtQtQtQtQtQtQtQtQtQtQtQtQt.g.F.x.x.x.G.z.x.D.y.H.z.x.I.DQtQtQtQtQtQtQtQtQtQtQtQtQtQtQtQtQtQtQtQtQtQtQtQtQtQt",
"QtQtQtQtQtQtQtQtQtQtQtQtQtQtQtQtQtQtQtQtQtQtQt.g.J.x.A.A.z.x.z.x.w.I.K.x.A.DQtQtQtQtQtQtQtQtQtQtQtQtQtQtQtQtQtQtQtQtQtQtQtQtQtQt",
"QtQtQtQtQtQtQtQtQtQtQtQtQtQtQtQtQtQtQtQtQtQtQtQt.g.x.A.I.z.z.x.t.w.A.z.x.I.DQtQtQtQtQtQtQtQtQtQtQtQtQtQtQtQtQtQtQtQtQtQtQtQtQtQt",
"QtQtQtQtQtQtQtQtQtQtQtQtQtQtQtQtQtQtQtQtQtQtQtQt.g.m.x.x.A.A.x.w.y.I.K.x.A.DQtQtQtQtQtQtQtQtQtQtQtQtQtQtQtQtQtQtQtQtQtQtQtQtQtQt",
"QtQtQtQtQtQtQtQtQtQtQtQtQtQtQtQtQtQtQtQtQtQtQtQtQt.m.j.L.m.x.x.x.w.y.D.D.DQtQtQtQtQtQtQtQtQtQtQtQtQtQtQtQtQtQtQtQtQtQtQtQtQtQtQt",
"QtQtQtQtQtQtQtQtQtQtQtQtQtQtQtQtQtQtQtQtQtQtQtQtQt.j.L.s.L.m.D.t.w.w.M.z.xQtQtQtQtQtQtQtQtQtQtQtQtQtQtQtQtQtQtQtQtQtQtQtQtQtQtQt",
"QtQtQtQtQtQtQtQtQtQtQtQtQtQtQtQtQtQtQtQtQtQtQtQtQt.K.N.N.K.m.w.t.t.t.x.O.OQtQtQtQtQtQtQtQtQtQtQtQtQtQtQtQtQtQtQtQtQtQtQtQtQtQtQt",
"QtQtQtQtQtQtQtQtQtQtQtQtQtQtQtQtQtQtQtQtQtQtQtQt.t.K.H.H.z.x.P.P.y.w.x.A.xQtQtQtQtQtQtQtQtQtQtQtQtQtQtQtQtQtQtQtQtQtQtQtQtQtQtQt",
"QtQtQtQtQtQtQtQtQtQtQtQtQtQtQtQtQtQtQtQtQtQtQt.t.t.x.H.N.N.K.t.t.t.t.x.z.z.xQtQtQtQtQtQtQtQtQtQtQtQtQtQtQtQtQtQtQtQtQtQtQtQtQtQt",
"QtQtQtQtQtQtQtQtQtQtQtQtQtQtQtQtQtQtQtQtQtQt.t.t.t.x.K.z.H.z.j.L.t.w.x.x.I.xQtQtQtQtQtQtQtQtQtQtQtQtQtQtQtQtQtQtQtQtQtQtQtQtQtQt",
"QtQtQtQtQtQtQtQtQtQtQtQtQtQtQtQtQtQtQtQtQt.t.t.tQt.t.I.x.N.K.m.m.j.y.x.D.K.I.xQtQtQtQtQtQtQtQtQtQtQtQtQtQtQtQtQtQtQtQtQtQtQtQtQt",
"QtQtQtQtQtQtQtQtQtQtQtQtQtQtQtQtQtQtQtQt.t.t.tQtQt.t.t.p.m.j.L.s.L.y.K.D.D.K.xQtQtQtQtQtQtQtQtQtQtQtQtQtQtQtQtQtQtQtQtQtQtQtQtQt",
"QtQtQtQtQtQtQtQtQtQtQtQtQtQtQtQtQtQtQt.t.t.tQtQtQt.t.t.p.m.m.L.j.j.P.K.DQt.DQtQtQtQtQtQtQtQtQtQtQtQtQtQtQtQtQtQtQtQtQtQtQtQtQtQt",
"QtQtQtQtQtQtQtQtQtQtQtQtQtQtQtQtQtQt.w.w.wQtQt.t.t.t.t.p.m.m.L.s.L.P.P.Q.R.jQtQtQtQtQtQtQtQtQtQtQtQtQtQtQtQtQtQtQtQtQtQtQtQtQtQt",
"QtQtQtQtQtQtQtQtQtQtQtQtQtQtQtQtQt.y.w.w.t.t.t.t.t.w.w.w.p.m.L.s.L.P.P.Q.RQtQtQtQtQtQtQtQtQtQtQtQtQtQtQtQtQtQtQtQtQtQtQtQtQtQtQt",
"QtQtQtQtQtQtQtQtQtQtQtQtQtQtQtQt.P.P.y.w.t.tQt.t.w.w.w.t.t.t.t.t.y.P.P.Q.QQtQtQtQtQtQtQtQtQtQtQtQtQtQtQtQtQtQtQtQtQtQtQtQtQtQtQt",
"QtQtQtQtQtQtQtQtQtQtQtQtQtQtQt.y.y.t.t.tQtQt.t.t.w.w.w.t.w.w.y.y.P.P.P.Q.QQtQtQtQtQtQtQtQtQtQtQtQtQtQtQtQtQtQtQtQtQtQtQtQtQtQtQt",
"QtQtQtQtQtQtQtQtQtQtQtQtQtQt.B.t.Q.y.wQtQtQt.Q.Q.t.w.w.w.w.y.y.y.P.P.P.Q.QQtQtQtQtQtQtQtQtQtQtQtQtQtQtQtQtQtQtQtQtQtQtQtQtQtQtQt",
"QtQtQtQtQtQtQtQtQtQtQtQtQtQt.B.Q.y.wQtQtQt.Q.Q.S.Q.w.w.w.w.y.y.P.P.P.P.Q.RQtQtQtQtQtQtQtQtQtQtQtQtQtQtQtQtQtQtQtQtQtQtQtQtQtQtQt",
"QtQtQtQtQtQtQtQtQtQtQtQtQtQt.B.C.w.tQtQtQt.Q.S.Q.Q.S.e.S.w.y.y.P.P.P.P.R.RQtQtQtQtQtQtQtQtQtQtQtQtQtQtQtQtQtQtQtQtQtQtQtQtQtQtQt",
"QtQtQtQtQtQtQtQtQtQtQtQtQt.S.C.w.tQtQtQtQt.Q.Q.S.S.Q.Q.Q.S.e.e.e.B.B.B.e.RQtQtQtQtQtQtQtQtQtQtQtQtQtQtQtQtQtQtQtQtQtQtQtQtQtQtQt",
"QtQtQtQtQtQtQtQtQtQtQtQt.S.T.S.SQtQtQtQtQtQtQt.Q.Q.S.e.e.Q.Q.Q.Q.Q.Q.Q.Q.RQtQtQtQtQtQtQtQtQtQtQtQtQtQtQtQtQtQtQtQtQtQtQtQtQtQtQt",
"QtQtQtQtQtQtQtQtQtQtQt.S.S.SQtQtQtQtQtQtQtQtQtQtQt.Q.U.Q.e.B.B.B.B.B.B.e.RQtQtQtQtQtQtQtQtQtQtQtQtQtQtQtQtQtQtQtQtQtQtQtQtQtQtQt",
"QtQtQtQtQtQtQtQtQtQtQtQtQtQtQtQtQtQtQtQtQtQt.V.V.V.W.U.X.X.T.U.R.W.U.R.R.V.V.V.V.V.VQtQtQtQtQtQtQtQtQtQtQtQtQtQtQtQtQtQtQtQtQtQt",
"QtQtQtQtQtQtQtQtQtQtQtQtQtQtQtQtQtQt.V.V.V.Y.Z.0.1.R.W.2.I.K.I.R.R.2.2.R.3.4.5.1.0.Z.Y.V.V.VQtQtQtQtQtQtQtQtQtQtQtQtQtQtQtQtQtQt",
"QtQtQtQtQtQtQtQtQtQtQtQtQtQtQtQt.V.V.Z.1.4.6.7.8.9.R.X.X.X.T.X.R.R.U.U.X.X.X#..9.8.7.6.4.1.Z.V.VQtQtQtQtQtQtQtQtQtQtQtQtQtQtQtQt",
"QtQtQtQtQtQtQtQtQtQtQtQtQtQtQt.V.Z###a#b#c#d#e#f.R.W.W.X.T.X.U.R.R.U.U.U.X.X.X#g#f#h#i#c#b#a##.Z.VQtQtQtQtQtQtQtQtQtQtQtQtQtQtQt",
"QtQtQtQtQtQtQtQtQtQtQtQtQtQt.V.0#j#k#l#m#n#o#p#q.R.R.U.W.2.I.2.T.R.U.U.U.U.U.U#r#q#p#o#n#m#l#s#j.0.VQtQtQtQtQtQtQtQtQtQtQtQtQtQt",
"QtQtQtQtQtQtQtQtQtQtQtQtQt.V.Z#t#u#v#w#x#y#z#A#B.g.R.U.U.U.X.T.e.T.R.R.R.R.R.g#C#B#A#z#y#x#w#v#u#t.Z.VQtQtQtQtQtQtQtQtQtQtQtQtQt",
"QtQtQtQtQtQtQtQtQtQtQtQtQt.V#D#E#F#G#H#A#I#J#K#K.g.R.R.U.X.T.e.e.T#L#L#L#L#K#K#K#K#K#J#I#A#H#G#F#E#D.VQtQtQtQtQtQtQtQtQtQtQtQtQt",
"QtQtQtQtQtQtQtQtQtQtQtQtQt.V#D#M#F#G#y#A#I#J#K#K#K#K#K.g.R.R.R.R.g#L#L#L#L#K#K#K#K#K#J#I#A#y#G#N#M#D.VQtQtQtQtQtQtQtQtQtQtQtQtQt",
"QtQtQtQtQtQtQtQtQtQtQtQtQt.V#O#t#u#v#w#x#y#z#A#B#C#I#P#P#J#Q#Q#K#K#Q#Q#J#P#P#I#C#B#A#z#y#x#w#v#u#t#O.VQtQtQtQtQtQtQtQtQtQtQtQtQt",
"QtQtQtQtQtQtQtQtQtQtQtQtQtQt.V.0#R#s#S#v#T#o#p#q#r#U#V#W#X#Y#Z#Z#Z#Z#Y#X#W#V#U#r#q#p#o#T#v#S#s#R.0.VQtQtQtQtQtQtQtQtQtQtQtQtQtQt",
"QtQtQtQtQtQtQtQtQtQtQtQtQtQtQt.V#O.4#a#b#c#i#h#f#g#0#1#2#w#3#G#4#4#G#3#w#2#1#0#g#f#h#i#c#b#a.4#O.VQtQtQtQtQtQtQtQtQtQtQtQtQtQtQt",
"QtQtQtQtQtQtQtQtQtQtQtQtQtQtQtQt.V.V.Z.1.4.6.7.8.9#.#5#6#7#8#9#d#d#9#8#7#6#5#..9.8.7#t.4.1.Z.V.VQtQtQtQtQtQtQtQtQtQtQtQtQtQtQtQt",
"QtQtQtQtQtQtQtQtQtQtQtQtQtQtQtQtQtQt.V.V.V.Y.Z.0.1.5.4.3a.a.a.a#a#a.a.a..3.4.5.1.0.Z.Y.V.V.VQtQtQtQtQtQtQtQtQtQtQtQtQtQtQtQtQtQt",
"QtQtQtQtQtQtQtQtQtQtQtQtQtQtQtQtQtQtQtQtQtQt.V.V.V.V.V.V.V.V.V.V.V.V.V.V.V.V.V.V.V.VQtQtQtQtQtQtQtQtQtQtQtQtQtQtQtQtQtQtQtQtQtQt",
"QtQtQtQtQtQtQtQtQtQtQtQtQtQtQtQtQtQtQtQtQtQtQtQtQtQtQtQtQtQtQtQtQtQtQtQtQtQtQtQtQtQtQtQtQtQtQtQtQtQtQtQtQtQtQtQtQtQtQtQtQtQtQtQt",
"QtQtQtQtQtQtQtQtQtQtQtQtQtQtQtQtQtQtQtQtQtQtQtQtQtQtQtQtQtQtQtQtQtQtQtQtQtQtQtQtQtQtQtQtQtQtQtQtQtQtQtQtQtQtQtQtQtQtQtQtQtQtQtQt"};
