/* XPM */
static char *break[] = {
/* columns rows colors chars-per-pixel */
"64 64 114 2 ",
"   c #2F3D3F",
".  c #353E3F",
"X  c #3D403F",
"o  c #46413E",
"O  c #4C433B",
"+  c #52463E",
"@  c #59453C",
"#  c #51483F",
"$  c #5E4B3F",
"%  c #684637",
"&  c #634739",
"*  c #684738",
"=  c #62493C",
"-  c #694839",
";  c #263B41",
":  c #293C42",
">  c #323E41",
",  c #383F40",
"<  c #393F4B",
"1  c #2F4145",
"2  c #364244",
"3  c #3C4146",
"4  c #3F4846",
"5  c #3A414B",
"6  c #3C4A4A",
"7  c #454541",
"8  c #4C4641",
"9  c #444947",
"0  c #4D4944",
"q  c #45454B",
"w  c #49464A",
"e  c #434C4B",
"r  c #4C4A4C",
"t  c #504741",
"y  c #534A42",
"u  c #5A4B44",
"i  c #534C4A",
"p  c #5C4E49",
"a  c #42504D",
"s  c #4A514B",
"d  c #575046",
"f  c #5A5247",
"g  c #52544A",
"h  c #5C514B",
"j  c #54584D",
"k  c #5D5A4D",
"l  c #4B4951",
"z  c #4C5650",
"x  c #5C5454",
"c  c #565C53",
"v  c #5C5E53",
"b  c #624E46",
"n  c #6F4F43",
"m  c #634F48",
"M  c #635346",
"N  c #6D5242",
"B  c #64514A",
"V  c #6A544E",
"C  c #61594C",
"Z  c #6E5948",
"A  c #765342",
"S  c #785441",
"D  c #745947",
"F  c #755A4A",
"G  c #795E4D",
"H  c #645453",
"J  c #6E5650",
"K  c #6F5A56",
"L  c #6D5B5A",
"P  c #705751",
"I  c #725A54",
"U  c #7A5C53",
"Y  c #725D5B",
"T  c #7A5F5B",
"R  c #5E6052",
"E  c #75614E",
"W  c #7E614F",
"Q  c #636251",
"!  c #696354",
"~  c #666759",
"^  c #66685A",
"/  c #6E6A59",
"(  c #756452",
")  c #746957",
"_  c #7C615D",
"`  c #736D5A",
"'  c #6E715F",
"]  c #73715E",
"[  c #7B725D",
"{  c #737462",
"}  c #7A7661",
"|  c #777A66",
" . c #7B7A65",
".. c #8A5B47",
"X. c #87614B",
"o. c #8D624C",
"O. c #91654E",
"+. c #846652",
"@. c #8D6951",
"#. c #936950",
"$. c #9B6E54",
"%. c #9F7357",
"&. c #A07457",
"*. c #A27558",
"=. c #836663",
"-. c #866864",
";. c #827D65",
":. c #887D64",
">. c #838067",
",. c #868369",
"<. c #8A866C",
"1. c #8C886D",
"2. c #928E71",
"3. c #959073",
/* pixels */
"5 5 < 5 < < < < < < < < < < q < 3 < 5 q o O O O O O O O O O O O O O O o X < < 5 < < 5 5 < 5 < 5 < 5 5 < < < < < < < < 3 O O O O ",
"5 < 5 < < < < < < < < < < < < < < < < 5 o O O O O O O O O O O O O O O o < < < < < < < < < < < < < < < < < < < < < < < < o O O O ",
"< < 5 < < < < < < < < < < < < < < < < < o o O o O O O o o o O O o o O o 3 < < < < < < < < < < < < < < < < < < < < < < < o O O O ",
"3 3 < q q q l l l l l l l l l l l l l l y u u @ @ u @ O u u y u @ @ + y i l l l l l l l l l l l l l l l l l l l l l l q o o o o ",
"O o o 8 p B B H L Y Y L Y Y L Y L Y Y L Y Y Y I P I Y I Y Y I Y I Y I Y Y Y Y Y Y Y Y Y L Y L Y Y Y Y L Y Y Y L H H H i o 3 3 q ",
"O O o @ m J P I _ =.=.=.=.=.=.=.=.=.=.=.-.=.=.=.=.=.=.=.=.=.=.=.-.-.-.=.=.=.=.=.-.=.=.=.=.=.=.=.=.=.=.=.=.=.=._ P J J B q < < < ",
"O O O @ m P J I _ =.=.=.=.=.=.=.=.=.=.=.-.=.=.=.=.=.=.=.=.=.=.=.=.=.=.=.=.=.=.=.=.=.=.=.=.=.=.=.=.=.=.=.=.=.=._ I J J B q < < < ",
"o o o t H I I I Y _ T T T T T T T T T T _ T _ _ _ _ Y T T _ T T L L L Y I T Y Y Y Y T Y _ _ _ _ _ T T _ _ _ _ _ I I I H l < < < ",
"3 < < l L _ =.Y K V B V V V B V V V V V P I I J V V V V V V H h l 5 6 9 i h p h h h p B K I I P J B V V J I I I T =.=.H l < < < ",
"< < < l Y =.=.T V b b b b b b b b b b b V J V V b b b b b m b y > ; ; > 7 t + O + O # y B J J V m b b m V J J I T =.=.Y l < < < ",
"< < < l Y =.=.T V u b b b b b b b b b b V J J V b b b b b b B y > ; ; : o O O O # O O y B P J V m b b m V J J I T =.=.L l < < 5 ",
"5 < < l Y =.=.T V b b b b b b b b m b V V V V V b b u u u u y 0 q 6 6 9 g f k p f f f k C B B B B m m B V J J I =.=.=.L l < < 5 ",
"5 < < l L =.=.T V b b b b b b m B H V V B B M b y y y t 3 X 2 6 c ~ ~ ^ / / / / / / / ! h y y f B V V V V J J P _ =.=.Y l < < < ",
"5 < < l Y =.=.T V b b b b b b m J J P V b b b b y + # 7 2 ;   2 ^ } } } } } } } } } } / f + # u V J J J J J J P =.=.=.Y l < < 5 ",
"< < < l Y =.=.T B b b b b m b m J J P V V b b u y # # 7 : ; ; 6 ^ } ;.[ } [ } } } } } / f 8 t u V J P J J J V I T =.=.Y l < < < ",
"5 < < l L =.=.T V b b m m m m m m h p p b u b u y t + 7 2 ; ; 2 c ^ ~ ~ ~ ~ ~ ~ ^ ) / ! f O # y p x p B H J J I T =.=.Y l < < 5 ",
"5 < < l Y =.=.T V b b m V V J p q < 2 7 8 y y y t t t 7 2 ; ; 1 2 6 6 6 4 6 6 e g f f d y 0 8 8 < < < o B J J I _ =.=.Y l < < < ",
"5 < < l Y -.=.T V b b b V J I h < ; ; > 7 8 # + + t # o 2 ; ; ; ; ; ; ; ; ; ;   7 O # # # # # o > ; ; < x J J I _ =.=.L l < < < ",
"5 < < l Y =.=.T H b b B V P P h 2 ; ; : 7 8 + O O + # o .   ;   ; ; ; ; ; ; ; : o 8 O # # # # o . ; ; < h J J K _ =.=.Y l < < 5 ",
"5 < < l Y =.=.T J b m m b h h i 9 2 2 4 g C C C k k k d 2 2 : 2 X 2 X . . 2 X 7 d f f f k k k g 2 ; : , h B B J T =.=.L l < < 5 ",
"< < < l Y =.=.T P J V m 9 2 2 4 s j j R [ ;.;. .;.;.;.` g o 7 8 + @ @ @ $ $ @ b ! / / ` [ >.>./ 6 : : > 8 u u B _ =.=.Y l < < < ",
"< < < l L =.=.T I P P p 2 ; ; 2 j Q R / ,.3.3.2.2.2.2.;.k # # @ - - - - - - % N ) } }  .1.3.3.| e ; ; > 7 O O p Y =.=.Y l < < 5 ",
"< < < l L =.=.=.I I P h 3 ; ; 1 j Q Q / ,.2.2.2.2.2.2.;.k # # + $ - - - - - - N )  .}  .1.2.3.| e ; ; : 7 + O p Y -.=.Y r < < < ",
"5 < < l Y =.=.Y H p p r 2 ;   2 g k k ! >.2.1.2.2.2.2.;.C + + $ N S S S S S - D ( ) ) [ ,.2.2.| z 2 2 6 g f f C I T T H r < < q ",
"5 < < l Y =.=.Y l < < , 1 ; ; 1 o d # Q ;.2.2.2.1.2.2.;.Z @ & N X.#.#.#.#.#.#.o.E - D E >.2.2.>.Q g j k ~ / ) ! h p p u O o o 7 ",
"5 < < l L =.=.L 5 ; ; ; ; 1 ; 2 o # # k ;.2.2.1.3.3.2.;.D - - S #.*.&.&.%.&.&.#.S - - D :.3.3.,./ R R ~ ` } } / f t # + O O O O ",
"5 < < l L =.=.L q ; ; ; ; ; ; > o # # k ;.2.2.2.2.2.3.:.Z - - S #.*.&.*.&.&.&.#.- - % D :.3.3.,./ Q R Q ] [  ./ f O t # O O O O ",
"o 5 5 l Y =.=.L 3 ; ; > 2 2 2 4 o # # f [ ;.;. . . . .` N - - S #.&.%.%.&.&.&.@.- + @ k ` | | ] Q k k Q ` } [ / g 7 7 7 o O O O ",
"o o o t Y =.=.L 6 ; ; 2 s j j g 0 # o d j k k j s 6 e r $ - - S #.&.&.&.%.&.*.+.0 X X 1 6 6 6 6 0 d 0 k /  .[ ~ 3       o O O O ",
"O O o u Y =.=.L 3 ; ; 2 j Q Q k g # # # O # # 7 > ; ; . @ - - S #.*.*.*.&.&.*.+.6 ; ; ; 1 ; ; X o # # f / [  .~ 4 ;     o O O O ",
"O O O @ Y -.-.L q ; ; 2 j Q Q k d # # # # # # o > ; ; . @ - - S #.*.*.*.&.*.*.+.6 ; ; X ; ; X ; 9 # # f )  . .^ 4 ;     . O O O ",
"O O O @ Y -.-.K 6 ; ; 2 s j j g # # # # # # # 7 2 ; ; > O $ @ = W +.+.+.+.@.@.W 2 X 1 1 1 1 1 X o o o 0 c ^ ^ c 2 ;     O O O O ",
"O O o u Y =.=.L 6 ; ; 1 1 1 6 3 8 # y # 8 t t 7 > : : : . 2 , 3 9 9 9 0 f M M h y 7 # 7 o 7 # X 2 X 1 1 6 6 6 2 : : : > o O O O ",
"O O O u Y =.=.L 6 ; ; ; ;     > 7 # # t # # + o > ; : ; : ; : ; ; ; ;   7 + # O # # # 8 # y # 9 X 1 ; ; ; ; ; : : : : : o O O O ",
"O O O u Y -.=.L 3 ; ; ; ; ; : > 7 # t # # # t 7 > ; ; ; : : : : ; ; ;   7 t # # + y + y # # # o 1   ; ; : : : : : ; ; > X O O O ",
"O X o i I -.=.L w , . X . 2 . . o 7 7 8 f k k k s e s 6 : : : : > 2 > 2 7 O 7 7 7 7 7 7 8 7 0 X   ; ; 1 : : : : 5 6 6 7 o o o o ",
". 3 3 w Y =.=.T b @ @ @ = $ @ + 3 X   6 / ;.;. .| | | ^ 6 ; : > 4 o 7 o 2   2   > > > > > > > > ; ; ; ; : ; : 5 x L L H o < 3 3 ",
"< < < l Y =.=.T A * - * - - - $ X 1 ; 6 | 3.3.3.2.3.3. .a ; ; > o # y 7 2 ; ; ; : : : : : ; ; : 1 ; ; ; : ; : 3 L -.-.Y l < < 3 ",
"< < < l Y =.-.T n % * - - - - @ 1 ; ; 6 | 3.3.2.2.3.3.| e ; : > # 0 # # :   ; : : : : : : ; : ; ; ; ;   :   ; 6 L -.-.Y l < < < ",
"3 3 q w P U T U D A A A S S - b 2 ; 1 6 ' ,.,.,.<.1.1.{ e ; ; > 4 o o 3 X 2 : 2 : : : : 2 5 5 < 2 2 6 2 2 2 > 9 L -.-.Y l < < 5 ",
"O o o O * n n A o.#.#.#.#.#.#.W 9   ; 6 R / / / } ;. ./ 6 ; : : X X 1 X 3 o o X 1 ; ; 1 i h h h h h p p p y y m T =.=.Y l < < < ",
"O o O O % % * A #.&.&.&.&.&.&.+.4 ; ; 2 z R Q Q ` } } ^ 6 ; : : 1 ; ; ; # y # 0 X 1 ; 2 h P P P P P J J m b m V T =.=.Y l < < < ",
"O O O @ b * * S #.&.&.&.&.&.&.+.9   ; 2 j Q R Q ] } } ^ 6 ; ; : ; ; ; X 7 # t 7 > ; ; 2 h J J J J J P J m b b H T =.=.Y l < < < ",
"O O O O @ @ @ n O.&.&.&.%.$.%.W 9 ; ; 1 g k k R Q ^ ^ c 6 ; : : 2 2 2 1 t y p 0 4 2 2 9 B J J V V H B m p y y B Y -.-.L l < < < ",
"O O O o . . . y +.*.*.%.O.O...D 2 ; ; 1 O g # g 9 6 6 2 : ;   < r h h B B B B B p h p H V J J V p u y t 3 2 > w Y =.=.Y l < < < ",
"O O O X   ; ; q +.*.*.$.......Z 4 ; ; 1 o # # o > ; ; ; : ; ; , h J P J J K J J J P J J J J J H u 8 t 7 > ; ; 6 L =.=.Y l < < < ",
"O O O o : ; ; 7 +.*.*.$.O.....A X ; ; X o # # o : ; ; ; : ; ; < x J J J J J J J J J J J J J J B p O y O : ; ; 5 L =.=.Y l < < < ",
"o o o 7 7 6 5 r E +.+.U F A Z M X 1 X 4 0 # f 0 7 > 2 2 3 3 < q B J J J J J J J J J J J V V V m 8 7 7 7 < > > q Y =.-.Y l < < < ",
"X 3 3 w H Y L H l q 9 9 9 3 3 7 o w o t p B H m u y y i p p x p V J V J J J V J J J J J V m b p 4 > > , 7 o 7 u ( =.=.Y l < < 5 ",
"< < < l Y -.=.Y 5 ; ; ; ; ; ;   8 t t u V P J V m b m B J J J J J J J J V J J J J J J V b b b u > ; ; > 7 # # h Y =.=.Y l < < < ",
"< < < l Y -.-.L 5 ; ; ; ; ; ; : o t t u B J J V m b b m V J J J J J J J J J J J J J P V m b b w > ; ; > 7 # O p Y =.-.Y l < < 5 ",
"q 3 3 l Y =.=.Y l 2 2 2 2 2 2 7 t w @ u V J J J n m m V V J J J J J V J J J J V V V V V m b b u q 2 3 4 t y y b Y =.=.Y i < < 3 ",
"o o o t Y =.=.Y H p p p y y i u u b u m B J J J V V B J J J V J J J J J J J J V m m B b b b b m p p p p p b u V T =.=.Y i o o o ",
"O O O u Y =.=._ I P P V m b b b b b b m J J J J J J J J J J J J J J V J J J J V b b b b b b b B J P P V m b b V T =.=.I u o O O ",
"O O O @ I =.=._ I P P V B b b b m b b m B J J J J J J J J J J J J J J J J J J J B b b b b b b m V J J J B b b V _ =.=.I @ O O O ",
"o o o + I =._ T P V V V B b b m m m m B J J J J J J J J V J J V V V V H V V V V m b b b b B m B V V V B b u u m Y _ =.P y o o o ",
"o 5 < w H I Y J V m m m m b b m B V V J J J J J V J J J J J J V B b n m B m B b b b b m V V V V B m b b @ O + @ J I I V w < < 3 ",
"< < < q B J J V m b b b b b m m J J J J J J J J J J J J J J J V B b b b b b b b b m b B V J J V B b b u @ o o + m P P x l < < < ",
"< < < w H J J V m b b b m b b m V J P P J J J J J J J J J J J V m b b b b b b b b b b m V J J J m m b b O o o @ m J P B w < < < ",
"5 5 < q p B m b p u u u u u u b m H B m B m B B H H H B m m b b b u u u u b u u u u = b m B H p p u p y O o o + m m H p w < < < ",
"O o o O O @ + + q q q o t O @ O w w w w t @ t @ q q q w O @ O O O @ O @ O @ O + @ O O O w w w w q q q 5 q < < q O @ @ + 5 < 5 5 ",
"O O O O O O O o < < < q o O o o < < < < o O o o < < < < o O O O O O o O O O o O O O O o < < < < < < < < < 5 < o o O o o 5 3 5 5 ",
"O O O O O O O O 3 < < 3 o O O o < < < o o o O o < < < o o O O O O O O o O O O O O O O o < < < 5 < < < < 5 < 3 < o o O o q 5 5 5 ",
"O O O O O O O o < < < 3 o O O o < < < < o O O o o < < < o O O O O O O o O O O O O O O O 5 < < 5 5 5 < 5 5 5 5 3 o O O o < 5 < 5 "
};
