/* XPM */
static char *take[] = {
/* columns rows colors chars-per-pixel */
"64 64 153 2 ",
"   c #24373E",
".  c #24383F",
"X  c #4E3C23",
"o  c #4B3E2C",
"O  c #483F37",
"+  c #4E402B",
"@  c #53422D",
"#  c #4B4136",
"$  c #46413E",
"%  c #4B4239",
"&  c #564431",
"*  c #594735",
"=  c #5C4834",
"-  c #52463D",
";  c #5D4A3E",
":  c #243A41",
">  c #2D3E46",
",  c #343E43",
"<  c #3E3F42",
"1  c #393F4B",
"2  c #5B3746",
"3  c #513B46",
"4  c #5D3A46",
"5  c #603D47",
"6  c #364044",
"7  c #3C4146",
"8  c #33444C",
"9  c #3A404B",
"0  c #3B4454",
"q  c #3C4D54",
"w  c #3E4758",
"e  c #3F4858",
"r  c #3D5255",
"t  c #454445",
"y  c #4D4542",
"u  c #444947",
"i  c #4A4947",
"p  c #45454B",
"a  c #4A4649",
"s  c #4E494C",
"d  c #524543",
"f  c #544A45",
"g  c #5A4B44",
"h  c #544D4B",
"j  c #5B4D4A",
"k  c #565141",
"l  c #5B5541",
"z  c #55514C",
"x  c #5D504D",
"c  c #444750",
"v  c #474952",
"b  c #4B4951",
"n  c #404758",
"m  c #414A59",
"M  c #534E55",
"N  c #455253",
"B  c #45555C",
"V  c #48515F",
"C  c #4F5A5D",
"Z  c #5D5556",
"A  c #575850",
"S  c #585850",
"D  c #624447",
"F  c #694347",
"G  c #624E46",
"H  c #6E4F46",
"J  c #624249",
"K  c #684649",
"L  c #644F48",
"P  c #6D4A4C",
"I  c #744C49",
"U  c #645246",
"Y  c #64504A",
"T  c #6B544E",
"R  c #725446",
"E  c #7F5447",
"W  c #73504D",
"Q  c #7A5148",
"!  c #715D4F",
"~  c #7A5C4F",
"^  c #635352",
"/  c #6D5650",
"(  c #665B52",
")  c #6E5A53",
"_  c #605759",
"`  c #6C5959",
"'  c #705751",
"]  c #725A54",
"[  c #7E5F50",
"{  c #715C5B",
"}  c #795F5B",
"|  c #636351",
" . c #6C6159",
".. c #70635C",
"X. c #7C615D",
"o. c #495360",
"O. c #4D5C64",
"+. c #515B65",
"@. c #506767",
"#. c #55626B",
"$. c #5B626A",
"%. c #596570",
"&. c #5B6971",
"*. c #5F7572",
"=. c #726760",
"-. c #726B63",
";. c #7C6B66",
":. c #6C7567",
">. c #6B7569",
",. c #6F786C",
"<. c #72796E",
"1. c #617376",
"2. c #64747A",
"3. c #677979",
"4. c #6A7D7F",
"5. c #757D74",
"6. c #805447",
"7. c #8C5D47",
"8. c #855D51",
"9. c #846752",
"0. c #926754",
"q. c #A67758",
"w. c #836663",
"e. c #82736F",
"r. c #6A847F",
"t. c #74877A",
"y. c #7B8079",
"u. c #73887F",
"i. c #6C7C81",
"p. c #6C8681",
"a. c #708785",
"s. c #718885",
"d. c #7B8C84",
"f. c #748789",
"g. c #778B8B",
"h. c #7E8D8E",
"j. c #79928D",
"k. c #7F9C92",
"l. c #819089",
"z. c #829092",
"x. c #819E94",
"c. c #879C99",
"v. c #8A9C9C",
"b. c #83A096",
"n. c #81A198",
"m. c #8CA69E",
"M. c #8DA89F",
"N. c #92A6A4",
"B. c #95AAA7",
"V. c #96A8A8",
"C. c #9EB2B0",
"Z. c #A5BCB6",
"A. c #B5CAC4",
/* pixels */
"9 9 9 9 9 9 9 9 9 9 1 1 7 9 1 9 1 1 1 t 3 % % % % % % % % % % % % % % $ 7 1 9 9 1 1 1 1 3 8 1 1 1 3 8 8 1 1 1 1 1 1 9 9 $ % % % ",
"9 9 9 9 9 1 1 1 1 1 1 1 1 1 1 1 1 1 1 1 $ % # % % % % % % % % % % % O t < 1 1 1 1 1 1 1 1 1 1 1 1 1 1 1 1 1 1 1 1 1 8 3 $ % % % ",
"9 1 1 9 9 1 9 9 1 1 1 1 1 1 1 1 1 1 1 3 $ # % # % % % % % % % % % % % O 1 1 1 1 1 1 1 1 1 1 1 1 1 1 1 1 1 1 1 1 1 1 1 1 $ % % % ",
"t < 1 t p c p p b b b b b s b M v v v b f f f f g f g f f g f g f g g f h b b b b b b v v v b b b b b b b b b b b 3 c p y $ $ $ ",
"3 < $ y x Y Y ^ ` { { { { { ` { { { { { { { ] { ] ..] { ] { { { ] { { } { { ` { { { { { { { { ` { { { { { { { ` ^ L ^ h p 7 7 7 ",
"% # # f Y ) ) ] ;.w.w.w.w.w.w.w.w.w.w.w.w.w.w.w.w.w.w.w.w.w.w.w.w.w.w.w.w.w.w.w.w.w.w.w.w.w.w.w.w.w.w.w.w.;.w.X.] / / ^ p 9 1 1 ",
"% % # - Y ) T ] X.w.w.w.w.w.w.w.w.w.w.w.w.w.w.w.w.w.w.w.w.w.w.9.w.w.w.w.w.w.w.w.w.w.w.w.w.w.w.w.w.w.w.w.w.w.w.X.] / T L p 1 9 9 ",
"$ $ $ y T ] ] ] } } } X.} } } } } } } } =.9.X.X.X.X.} } X.X.X.X.} } } } } } } ;.X.X.} } w.=.X.X.X.} } X.X.X.X.X.{ ] } ^ b 1 1 9 ",
"3 1 < b ] X.} } / P T T T T Y T T Y T T ' ] ) ) T T T T T T T T / P T T / ] ] ] ] ] ) ] ) ] ] / T T T T ' ] ] ` } 9.X.` m 1 1 1 ",
"8 1 1 v { w.w.} T j G G G G G G G G G G T / / T U G g G G G G G G G G Y T / / / / / / / / / / T U G g Y P / / ] X.w.w.{ b 1 1 1 ",
"9 1 1 b { w.w.} T g G G G G G G G G G U T / / T U G G G G G G G G G G G T / / / / T / / / / / T U G G L T / / ] X.w.w.{ m 1 1 3 ",
"9 1 1 b { w.;.X.T G G G G G G G L U Y U T T T T G G G G G G G G G Y Y Y T / / / / / / / / / / T Y L Y Y T / / ] X.w.w.{ b 1 1 1 ",
"9 1 1 v { w.w.X.T G G G G G G G T T T T Y G T L G G G G G G G G T T T T / / / / / / / ^ / / / T T T T T / / / ] ;.w.w.{ b 1 1 1 ",
"9 1 1 v { w.w.X.T G G G G G G U T / / T G G G G G G G G G G G U T T / / / / / / / / / / / T / / / / / / / / / / } w.w.{ b 1 1 1 ",
"1 1 1 b { w.w.] T G G G G G G G T / T T T G G G G L U G G G U Y T ) ! T / ' ' / / / / / / / / / / / / / / / / ` } w.w.{ b 1 1 1 ",
"1 1 1 s { w.w.X.T G G G G Y Y Y T T T T G G G j g f f g h j j x ^ ^ ^ ^ j x j ^ T / / / / / / / / / / / / / / { 8.w.w.{ b 1 1 9 ",
"9 1 1 s { w.w.} T G g L T T T T Y U Y G G G U g 7 6 6 6 c v v b b b V v 7 6 7 t L / / / T / / / / / / / / / / ) X.w.w.{ b 1 1 1 ",
"9 1 1 b { w.w.} T G G U T T ' T Y G G G G G L f 6 : . 8 0 m n e e w w 8 8 . . , j / / / / / / / / / / / / T / ) X.w.w.{ b 1 1 9 ",
"9 1 1 b { w.w.} T G G U T ) T T U G G G G G G f 6 : : > 0 m m n e e w 0 : :   , x ] / / / / / / / / / / / / / ] X.w.w.` b 1 1 9 ",
"9 1 1 b { w.w.} T L G Y T T T T L G G G G G L g u 6 7 9 8 0 0 e o.O.O.O.C O.O.C Z ^ ^ ^ / / / / / / T / / / / ] X.w.w.{ b 1 1 9 ",
"1 1 1 b { w.w.=.' T T T Y Y Y G U G G G G G G L j x Y h 9 > > r 2.s.s.g.v.N.v.z.+.b b M ^ / / / / / / / / / / ] X.w.w.{ b 1 1 1 ",
"1 1 1 b { w.w.w.] T ) T G G G G G G G G G G G Y T ' ' x 6 : : r p.n.n.M.Z.A.A.V.%.0 1 V ^ / ' / / / T ^ / / T ] X.w.w.{ b 1 1 1 ",
"1 1 1 b { w.w.} } T T T Y G G G G G G G G G G Y T ! ' x 7 . : r r.b.b.M.Z.A.A.V.%.1 w m ^ / ' / / / / / / / / ] X.w.w.` b 1 1 9 ",
"1 1 1 b { w.w.} ' T T T Y U L U L G G G Y G Y Y T T T x u 6 7 N *.r.r.j.V.Z.Z.V.i.%.%.$._ ^ ^ _ / / / / / T / ] X.w.w.} b < 1 t ",
"3 1 1 v { w.w.} / G L Y T T T T L G G G T T T T U Y U L Y x x z N r r @.j.m.m.m.N.N.V.z.$.b m M ^ ' T / / / / ] X.w.w.{ f O t O ",
"1 1 1 b { w.w.} T G G Y T / / T Y G G T T ' ) T G G G L T ' ' x 6     r r.k.k.m.Z.A.A.V.%.0 3 m ^ T ) / / / T ] X.w.w.{ g % % $ ",
"1 8 1 v { w.w.} T G G G T / / T Y G G G T T T T G G G L T ' ' x 6 . . r r.x.k.m.Z.A.A.V.%.0 0 v ^ ! / / / / / ] X.w.w.{ g % % % ",
"7 3 1 b { w.w.} T G G T T T T T U G G G T T T T T Y Y Y T T ) x 6 . . N *.a.a.j.N.C.C.v.2.O.O.+.Z ^ ^ ^ / / T ] X.w.w.{ g % % % ",
"$ $ $ f { w.w.} ' T T Y Y Y U L G G G L Y U L T T T T T / ) ' x 6 6 . 8 B +.O.$.i.g.f.f.s.s.s.2.+.v b M ^ / / ' X.w.w.} g O % % ",
"% % % g ] w.w.X.] / ) T Y G G G G G G G G G G Y T T / / ' T ' x 8 : . 6 0 w e o.%.2.2.i.j.n.k.f.+.0 n V ^ / T } X.w.w.{ f % % % ",
"% % % f { w.w.X.] / / T U G G G G G G G G G G L T ' ) ' / ) ) x 6 . : 8 0 e e o.&.2.2.r.j.n.x.f.+.w n b ^ T / ] X.w.w.] f % % % ",
"% % % f =.e.e.;.] / / T Y G G G G G G L G G G L T T T T T P P j i 6 7 7 9 0 0 m #.&.&.2.g.x.k.a.O.0 1 v ^ / / ' X.w.w.{ g % % % ",
"% % % z 5.l.d.t...T T T Y G G G G G L G L G L L T / / ^ D J J D H R R G 7 8 6 8 N o.o.#.s.x.x.r.B > > 7 j / / ] X.w.w.{ g % % % ",
"% % # A u.n.n.d.=.T T T L G G G G G G G G G G L T / / T J 4 4 F E 7.7.R 7 . . > 0 n w O.s.b.n.p.r   . 7 Z / / ] X.w.w.{ g % % % ",
"% % % A u.n.k.d.=.! T T L G G G G G G G G G L L T ) / P J 4 2 F E 7.7.R 7 : . 8 0 n e O.s.b.b.p.r . . 6 j / / ] X.w.w.{ g % % % ",
"$ $ $ z >.t.t.t.-...=. .T G G G L G G G L L L L T P T P K F F F R R R U u 6 6 6 8 0 0 B 1.p.p.*.N 7 6 u Y / / ) X.w.w.] f $ $ $ ",
"1 7 < t k l l | 5.d.d.5.( G G L G G G Y P T T L D J J D Q Q E R y 7 7 u z j Y h 8 8 : 8 r r r N z x x Y / / / ] ;.w.w.{ s < 1 t ",
"9 1 9 7 + X X ; t.n.x.d.( G G G G G G Y / / ) T J 2 4 F E 7.7.R 7 :   6 x ! ] j 6 : . :   :   6 x ) ' / / / / ] } w.w.` b 1 1 1 ",
"9 9 9 < + X X l t.n.n.d. .G G G G G G G / / / T 5 2 4 F Q 7.7.R u . : 7 j ] / x 7 6 : . : :   7 x ) T / / / / ) } w.w.{ b 1 1 1 ",
"t 1 < t - * * U ,.t.t.,.( G G G G Y Y Y ^ P T P P P P I Q E E R u , , t Z / / Y u 6 7 7 7 7 1 p Y ) / / T T T ) } w.w.{ b 1 1 1 ",
"3 $ $ f T [ ] ! U l l ; l U G L T T T T D J J P 8.0.0.8.H F F D g f f g T / / T x x x j j j Z L T ! / T T G G T } w.w.{ v 1 1 1 ",
"% % # f ..w.w.] = X + @ ; U G U T ! ) P 5 4 2 P 0.q.q.0.H 2 4 4 G G G U T / / / ) ' T ) / ' ! T / T / T G G G T } w.w.{ v 1 1 1 ",
"% % % f ..w.w.X.= X X @ ; G G Y T / / ^ 5 2 2 P 0.q.q.0.K 4 4 J G G G U T / / / / / ' ' / / / / T / T T U G G T } w.w.{ b 1 1 1 ",
"% % % d } w.w.] ; @ @ & G Y U Y P T T P P P P I X.9.9.~ K 5 5 D K G G T T / / / / / / / / / / ) ..=.=.` U g g T } w.w.} b 1 1 1 ",
"% % # f ] w.w.X.Y ; ; G L / / ^ K 5 5 P 8.0.0.8.z p u i g G D L T T T T T T / / / / / / / T ! { 5.d.d.5.Z % - g { w.w.{ b 1 1 3 ",
"% % % g ] w.w.X.T G G Y / / / P 5 5 2 P 0.q.q.9.7 : : 6 d U G U T T ) / ' T / T T / / / / T T =.d.n.x.u.S O O f } w.w.{ b 1 1 1 ",
"% % % g ] w.w.X.T g L L T / / T J 2 2 P 0.q.q.9.u : : , f G G Y T T ) / T / T ' / / / / T T T =.d.n.n.s.S O O g } w.w.{ v 1 1 1 ",
"$ $ $ f { w.w.} / L L L P T T P P P P W [ 9.9.' i , 6 t g L U T T ) T ] ..=.=...) / / ) ..=.=.-.5.t.t.>.z O O f ] w.w.{ b 1 1 8 ",
"7 7 7 s { w.w.X.` T / L J 5 J P 8.0.0.[ z u 7 i i f f g T T T T / / ( ..y.d.u.t...! T ..5.d.d.5.| ; ; ; % # % g ] w.w.{ b 9 9 9 ",
"9 9 1 b { w.w.X.] / / P J 4 5 P 0.q.q.9.u   . 6 f U U U T T / T / / / ..d.b.b.d.=.T T =.d.n.b.t.; + + + # # % g { w.w.` b 9 9 9 ",
"1 1 1 v { w.w.X.] / / ^ 5 2 2 P 0.q.q.9.u : : 6 f G G Y T ) T ) T T / ..d.b.k.d.=.T T =.d.n.n.t.l X X + O O O g { w.w.{ v 1 9 9 ",
"1 < 1 h ` w.w.X.] / / P 5 5 5 K ~ 9.9.] i 7 6 u j G U T T / / ] ........t.t.t.t.` T T ` <.d.t.>.l & & & - - - g X.w.w.{ s < 7 7 ",
"$ $ O h ] w.w.;.` / ` P J 5 5 4 a u u i j j j Z T T T T / T T ..y.d.d.t.| ; l ; U Y Y U l l l l l U U U G g g T } w.w.{ f $ $ $ ",
"- % % g { w.w.8.] / / T J 5 5 3 > : : 6 Z ' / / ' T / / / / / =.d.b.b.t.; X + @ ; G G ; @ X X & U ! ' T U G G T } w.w.{ g % % % ",
"O % % g { w.w.w.] / / P 5 5 5 3 , : : 6 j ' / / / T ' / / / T ..d.k.n.t.l X X @ ; G G ; & X X & U ) ) T Y G G T } w.w.] g % % % ",
"$ O $ f ] ;.} ] / T T T J j 4 2 t 6 7 p Y T / / T ) / / / T / ..<.t.t.:.l @ @ & G G G G = & & = U ! T Y G g g U { 8.;.) f $ $ $ ",
"9 3 1 s L } ] ! T L L L L D D j L j x ^ / / / / / / / / / / T T l l ; l ; l ; g G G G G L U L L U L U G f % % f / { { ^ a 3 9 7 ",
"9 1 1 p ^ / / T L G G L G G G Y T ' / / / / / / / / / ' ) ' ' U & + X @ ; U G U G G G U T ! / / L G G g - % % - L ' / x p 1 9 9 ",
"9 9 1 p j ' ) T L G G L G G G U T ' ' ' / / / / / ' T T T ' ' U & X + @ ; G U G G G U Y W / ' / T G U g - # % - T ' ' ^ p 9 9 9 ",
"7 7 1 a j L Y Y j g g g g g g G j ^ ^ L L Y T Y ^ Y Z Y T Y Y G & @ + @ ; g G g G g g g L Z L x g g f f y % 3 y j L T g 7 9 9 9 ",
"$ $ $ $ % f - d p t p a - - - y p b p a d - - y p p c a y - d - # - % % - - - % % d - y a c p c p p p 3 p 1 < y y - d y 7 1 9 7 ",
"% % % % % % % $ 1 1 1 7 $ % % O 7 1 1 1 $ % % $ < 1 1 1 $ % % % % % % % % % % % % % % $ 1 1 1 1 1 1 1 8 9 1 1 1 $ % % O 7 0 9 1 ",
"% % % % % % % $ 3 8 1 1 $ % % t 7 1 1 7 $ % % $ 7 8 1 3 $ % % % % % % % % % % % % % % $ 3 8 1 1 9 1 1 1 1 1 1 t $ % O y t 9 9 1 ",
"% % % $ % % % $ 1 1 1 < y % % O 7 9 9 t $ % % $ 7 9 9 9 y % % % % % % % % % % % % % % $ 7 1 9 9 9 9 9 1 1 1 1 7 $ % O y 1 9 9 9 "
};
