/* XPM */
static char *dummy[]={
"64 64 95 2",
"Qt c None",
".t c #000000",
".u c #000000",
".x c #000000",
"#n c #000000",
".S c #000000",
"#f c #000000",
".y c #000000",
"#B c #000000",
".G c #000000",
".z c #000000",
"#C c #000000",
".w c #000000",
".v c #000000",
".A c #000000",
".6 c #000000",
".T c #000000",
"#o c #000000",
".H c #000000",
".B c #000000",
"#g c #000000",
"#l c #000000",
".C c #000000",
".I c #000000",
"#w c #000000",
".U c #000000",
".5 c #000000",
"#x c #000000",
".J c #000000",
"#y c #000000",
".7 c #000000",
"#z c #000000",
"#A c #000000",
".F c #000000",
".E c #000000",
".D c #000000",
".R c #000000",
".V c #000000",
"#p c #000000",
".K c #000000",
".Q c #000000",
"#h c #000000",
"#m c #000000",
".L c #000000",
".W c #000000",
".8 c #000000",
".M c #000000",
"#v c #000000",
".X c #000000",
"#q c #000000",
"#u c #000000",
"#t c #000000",
".9 c #000000",
".P c #000000",
"#s c #000000",
".O c #000000",
".N c #000000",
".Y c #000000",
"#. c #000000",
".Z c #000000",
".0 c #000000",
"#i c #000000",
"## c #000000",
"#r c #000000",
"#a c #000000",
".4 c #000000",
".3 c #000000",
".2 c #000000",
"#b c #000000",
"#j c #000000",
"#e c #000000",
"#c c #000000",
"#d c #000000",
"#k c #000000",
".f c #000003",
".1 c #00070c",
".o c #07050d",
".h c #141d32",
".j c #1e232c",
".q c #2b2c38",
".i c #303a55",
".p c #3f4449",
".k c #4b5e7f",
".g c #4f5463",
".b c #52300c",
".n c #684700",
".s c #6c7273",
".l c #708ea7",
".e c #757c87",
".# c #946230",
".m c #9e7b10",
".r c #b1b5be",
".a c #d1a049",
".c c #f0e883",
".d c #fffffa",
"QtQtQtQtQtQtQtQtQtQtQtQtQtQtQtQtQtQtQtQtQtQtQtQtQtQtQtQtQtQtQtQtQtQtQtQtQtQtQtQtQtQtQtQtQtQtQtQtQtQtQtQtQtQtQtQtQtQtQtQtQtQtQtQt",
"QtQtQtQtQtQtQtQtQtQtQtQtQtQtQtQtQtQtQtQtQtQtQtQtQtQtQtQtQtQtQtQtQtQtQtQtQtQtQtQtQtQtQtQtQtQtQtQtQtQtQtQtQtQtQtQtQtQtQtQtQtQtQtQt",
"QtQtQtQtQtQtQtQtQtQtQtQtQtQtQtQtQtQtQtQtQtQtQtQtQtQtQtQtQtQtQtQt.#.a.#QtQtQtQtQtQtQtQtQtQtQtQtQtQtQtQtQtQtQtQtQtQtQtQtQtQtQtQtQt",
"QtQtQtQtQtQtQtQtQtQtQtQtQtQtQtQtQtQtQtQtQtQtQtQtQtQtQtQt.#.#.b.b.#.a.#QtQtQtQtQtQtQtQtQtQtQtQtQtQtQtQtQtQtQtQtQtQtQtQtQtQtQtQtQt",
"QtQtQtQtQtQtQtQtQtQtQtQtQtQtQtQtQtQtQtQtQtQtQtQtQtQt.#.#.#.#.b.b.a.#.b.#QtQtQtQtQtQtQtQtQtQtQtQtQtQtQtQtQtQtQtQtQtQtQtQtQtQtQtQt",
"QtQtQtQtQtQtQtQtQtQtQtQtQtQtQtQtQtQtQtQtQtQtQtQtQt.#.#.#.a.a.c.#.a.b.b.#.#QtQtQtQtQtQtQtQtQtQtQtQtQtQtQtQtQtQtQtQtQtQtQtQtQtQtQt",
"QtQtQtQtQtQtQtQtQtQtQtQtQtQtQtQtQtQtQtQtQtQtQtQt.a.#.a.c.c.a.#.b.#.a.a.c.#.bQtQtQtQtQtQtQtQtQtQtQtQtQtQtQtQtQtQtQtQtQtQtQtQtQtQt",
"QtQtQtQtQtQtQtQtQtQtQtQtQtQtQtQtQtQtQtQtQtQtQtQt.a.a.c.c.a.c.c.c.a.c.a.c.c.b.bQtQtQtQtQtQtQtQtQtQtQtQtQtQtQtQtQtQtQtQtQtQtQtQtQt",
"QtQtQtQtQtQtQtQtQtQtQtQtQtQtQtQtQtQtQtQtQtQtQtQt.b.#.a.a.d.c.d.d.c.a.d.#.c.#.b.bQtQtQtQtQtQtQtQtQtQtQtQtQtQtQtQtQtQtQtQtQtQtQtQt",
"QtQtQtQtQtQtQtQtQtQtQtQtQtQtQtQtQtQtQtQtQtQtQtQt.b.a.c.d.c.a.d.c.a.a.c.d.#.a.#.bQtQtQtQtQtQtQtQtQtQtQtQtQtQtQtQtQtQtQtQtQtQtQtQt",
"QtQtQtQtQtQtQtQtQtQtQtQtQtQtQtQtQtQtQtQtQtQtQt.#.#.a.#.c.a.a.c.a.a.#.a.c.a.b.bQtQtQtQtQtQtQtQtQtQtQtQtQtQtQtQtQtQtQtQtQtQtQtQtQt",
"QtQtQtQtQtQtQtQtQtQtQtQtQtQtQtQtQtQtQtQtQtQtQt.#.a.b.#.a.a.#.a.a.a.a.#.a.#.a.bQtQtQtQtQtQtQtQtQtQtQtQtQtQtQtQtQtQtQtQtQtQtQtQtQt",
"QtQtQtQtQtQtQtQtQtQtQtQtQtQtQtQtQtQtQtQtQtQtQtQt.b.b.a.a.#.#.a.a.#.a.b.a.b.#.#QtQtQtQtQtQtQtQtQtQtQtQtQtQtQtQtQtQtQtQtQtQtQtQtQt",
"QtQtQtQtQtQtQtQtQtQtQtQtQtQtQtQtQtQtQtQtQtQtQtQtQt.b.a.#.b.#.a.b.#.#.b.#.b.bQtQtQtQtQtQtQtQtQtQtQtQtQtQtQtQtQtQtQtQtQtQtQtQtQtQt",
"QtQtQtQtQtQtQtQtQtQtQtQtQtQtQtQtQtQtQtQtQtQtQtQtQt.b.#.b.b.#.#.b.b.#.b.b.b.bQtQtQtQtQtQtQtQtQtQtQtQtQtQtQtQtQtQtQtQtQtQtQtQtQtQt",
"QtQtQtQtQtQtQtQtQtQtQtQtQtQtQtQtQtQtQtQtQtQtQtQt.e.f.b.b.b.#.b.b.b.b.b.b.b.gQtQtQtQtQtQtQtQtQtQtQtQtQtQtQtQtQtQtQtQtQtQtQtQtQtQt",
"QtQtQtQtQtQtQtQtQtQtQtQtQtQtQtQtQtQtQtQtQtQtQtQt.e.f.f.b.b.b.b.b.b.b.b.f.f.g.fQtQtQtQtQtQtQtQtQtQtQtQtQtQtQtQtQtQtQtQtQtQtQtQtQt",
"QtQtQtQtQtQtQtQtQtQtQtQtQtQtQtQtQtQtQtQtQtQt.h.i.h.g.h.f.f.b.b.b.b.b.f.h.i.j.f.i.hQtQtQtQtQtQtQtQtQtQtQtQtQtQtQtQtQtQtQtQtQtQtQt",
"QtQtQtQtQtQtQtQtQtQtQtQtQtQtQtQtQtQtQtQtQtQt.h.i.h.h.f.h.i.i.i.i.i.i.h.f.f.h.k.i.hQtQtQtQtQtQtQtQtQtQtQtQtQtQtQtQtQtQtQtQtQtQtQt",
"QtQtQtQtQtQtQtQtQtQtQtQtQtQtQtQtQtQtQtQtQt.h.k.l.f.h.h.h.h.f.f.f.f.f.f.h.h.h.l.l.i.hQtQtQtQtQtQtQtQtQtQtQtQtQtQtQtQtQtQtQtQtQtQt",
"QtQtQtQtQtQtQtQtQtQtQtQtQtQtQtQtQtQtQtQtQt.h.l.l.f.i.h.h.h.h.h.h.h.h.h.h.i.i.k.l.m.hQtQtQtQtQtQtQtQtQtQtQtQtQtQtQtQtQtQtQtQtQtQt",
"QtQtQtQtQtQtQtQtQtQtQtQtQtQtQtQtQtQtQtQtQt.n.m.k.h.i.k.i.i.i.h.h.h.i.i.k.k.h.i.k.m.nQtQtQtQtQtQtQtQtQtQtQtQtQtQtQtQtQtQtQtQtQtQt",
"QtQtQtQtQtQtQtQtQtQtQtQtQtQtQtQtQtQtQtQtQt.n.m.i.f.h.i.k.k.i.i.k.k.k.l.k.i.f.i.i.i.nQtQtQtQtQtQtQtQtQtQtQtQtQtQtQtQtQtQtQtQtQtQt",
"QtQtQtQtQtQtQtQtQtQtQtQtQtQtQtQtQtQtQtQtQt.h.i.i.h.f.f.h.i.k.l.l.l.k.i.h.f.f.h.i.i.h.fQtQtQtQtQtQtQtQtQtQtQtQtQtQtQtQtQtQtQtQtQt",
"QtQtQtQtQtQtQtQtQtQtQtQtQtQtQtQtQtQtQtQt.f.h.i.h.h.f.h.h.f.f.o.o.o.f.f.h.h.f.j.h.i.h.fQtQtQtQtQtQtQtQtQtQtQtQtQtQtQtQtQtQtQtQtQt",
"QtQtQtQtQtQtQtQtQtQtQtQtQtQtQtQtQtQtQtQt.f.h.h.h.hQt.h.h.h.h.h.f.h.h.h.h.hQt.f.h.h.h.fQtQtQtQtQtQtQtQtQtQtQtQtQtQtQtQtQtQtQtQtQt",
"QtQtQtQtQtQtQtQtQtQtQtQtQtQtQtQtQtQtQtQt.f.h.h.h.fQt.h.h.h.h.h.f.i.h.h.h.fQt.f.h.h.h.h.fQtQtQtQtQtQtQtQtQtQtQtQtQtQtQtQtQtQtQtQt",
"QtQtQtQtQtQtQtQtQtQtQtQtQtQtQtQtQtQtQt.f.h.h.h.j.fQt.f.h.h.h.i.h.i.h.h.h.fQtQt.h.h.h.h.fQtQtQtQtQtQtQtQtQtQtQtQtQtQtQtQtQtQtQtQt",
"QtQtQtQtQtQtQtQtQtQtQtQtQtQtQtQtQtQtQt.f.h.h.h.fQt.f.o.h.h.h.i.f.i.j.h.h.fQtQt.f.h.h.h.f.fQtQtQtQtQtQtQtQtQtQtQtQtQtQtQtQtQtQtQt",
"QtQtQtQtQtQtQtQtQtQtQtQtQtQtQtQtQtQt.g.f.h.h.h.fQt.f.f.f.f.h.h.o.h.h.h.f.fQtQt.f.h.h.h.h.fQtQtQtQtQtQtQtQtQtQtQtQtQtQtQtQtQtQtQt",
"QtQtQtQtQtQtQtQtQtQtQtQtQtQtQtQtQtQt.g.f.h.h.f.pQt.f.q.g.q.f.f.f.f.f.q.q.o.fQt.q.f.h.h.h.gQtQtQtQtQtQtQtQtQtQtQtQtQtQtQtQtQtQtQt",
"QtQtQtQtQtQtQtQtQtQtQtQtQtQtQtQtQtQt.f.e.r.e.p.i.f.o.o.o.q.g.e.e.g.q.q.o.o.fQt.o.g.e.e.g.qQtQtQtQtQtQtQtQtQtQtQtQtQtQtQtQtQtQtQt",
"QtQtQtQtQtQtQtQtQtQtQtQtQtQtQtQtQtQt.g.i.k.k.i.p.f.f.h.h.h.h.f.o.o.o.o.o.h.fQt.j.h.h.h.h.oQtQtQtQtQtQtQtQtQtQtQtQtQtQtQtQtQtQtQt",
"QtQtQtQtQtQtQtQtQtQtQtQtQtQtQtQtQtQt.f.g.e.e.p.f.o.h.h.h.i.i.j.f.j.i.h.h.h.h.f.o.o.o.o.o.fQtQtQtQtQtQtQtQtQtQtQtQtQtQtQtQtQtQtQt",
"QtQtQtQtQtQtQtQtQtQtQtQtQtQtQtQtQtQt.f.f.f.f.j.f.f.h.h.i.i.i.i.f.i.i.i.h.h.h.fQt.o.j.j.p.jQtQtQtQtQtQtQtQtQtQtQtQtQtQtQtQtQtQtQt",
"QtQtQtQtQtQtQtQtQtQtQtQtQtQtQtQtQtQt.j.s.p.f.j.f.h.h.h.i.i.i.k.f.i.i.i.i.h.h.fQt.o.p.s.s.oQtQtQtQtQtQtQtQtQtQtQtQtQtQtQtQtQtQtQt",
"QtQtQtQtQtQtQtQtQtQtQtQtQtQtQtQtQtQt.f.s.s.p.f.o.h.h.i.i.i.k.k.f.k.i.i.i.h.h.h.fQt.o.o.oQtQtQtQtQtQtQtQtQtQtQtQtQtQtQtQtQtQtQtQt",
"QtQtQtQtQtQtQtQtQtQtQtQtQtQtQtQtQtQtQt.f.f.f.f.f.h.h.i.i.i.k.k.h.k.k.i.i.i.h.h.fQtQtQtQtQtQtQtQtQtQtQtQtQtQtQtQtQtQtQtQtQtQtQtQt",
"QtQtQtQtQtQtQtQtQtQtQtQtQtQtQtQtQtQtQtQtQtQt.f.h.h.h.i.i.k.k.k.h.k.k.i.i.i.h.h.h.fQtQtQtQtQtQtQtQtQtQtQtQtQtQtQtQtQtQtQtQtQtQtQt",
"QtQtQtQtQtQtQtQtQtQtQtQtQtQtQtQtQtQtQtQtQtQt.f.h.h.i.i.i.k.k.k.h.k.k.k.i.i.h.h.h.fQtQtQtQtQtQtQtQtQtQtQtQtQtQtQtQtQtQtQtQtQtQtQt",
"QtQtQtQtQtQtQtQtQtQtQtQtQtQtQtQtQtQtQtQtQt.o.h.h.h.i.i.k.k.k.k.i.k.k.k.i.i.i.h.h.h.fQtQtQtQtQtQtQtQtQtQtQtQtQtQtQtQtQtQtQtQtQtQt",
"QtQtQtQtQtQtQtQtQtQtQtQtQtQtQtQtQtQtQtQtQt.o.j.i.h.i.i.k.k.l.k.i.k.k.k.i.i.i.h.j.h.fQtQtQtQtQtQtQtQtQtQtQtQtQtQtQtQtQtQtQtQtQtQt",
"QtQtQtQtQtQtQtQtQtQtQtQtQtQtQtQtQtQtQtQt.o.h.h.i.h.i.i.k.k.l.k.h.k.l.k.k.i.i.h.i.h.h.fQtQtQtQtQtQtQtQtQtQtQtQtQtQtQtQtQtQtQtQtQt",
"QtQtQtQtQtQtQtQtQtQtQtQtQtQtQtQtQtQtQtQt.o.j.i.i.i.i.k.k.l.l.k.h.i.l.k.k.i.i.h.i.i.h.f.fQtQtQtQtQtQtQtQtQtQtQtQtQtQtQtQtQtQtQtQt",
"QtQtQtQtQtQtQtQtQtQtQtQtQtQtQtQtQtQtQt.o.h.h.i.i.q.i.k.k.l.l.i.f.i.l.l.k.i.i.i.k.i.h.g.fQtQtQtQtQtQtQtQtQtQtQtQtQtQtQtQtQtQtQtQt",
"QtQtQtQtQtQtQtQtQtQtQtQtQtQtQtQtQtQtQt.o.h.i.i.i.h.i.k.k.l.l.i.f.h.l.l.k.i.h.i.k.k.g.q.oQtQtQtQtQtQtQtQtQtQtQtQtQtQtQtQtQtQtQtQt",
"QtQtQtQtQtQtQtQtQtQtQtQtQtQtQtQtQtQtQt.o.q.g.i.h.h.i.k.l.l.l.fQt.h.l.l.k.i.h.h.i.e.q.q.oQtQtQtQtQtQtQtQtQtQtQtQtQtQtQtQtQtQtQtQt",
"QtQtQtQtQtQtQtQtQtQtQtQtQtQtQtQtQtQtQt.o.q.g.g.e.h.i.k.l.l.l.fQt.f.l.l.k.i.h.r.e.g.q.qQtQtQtQtQtQtQtQtQtQtQtQtQtQtQtQtQtQtQtQtQt",
"QtQtQtQtQtQtQtQtQtQtQtQtQtQtQtQtQtQtQt.o.q.g.g.q.e.r.r.r.e.i.o.t.o.i.r.r.r.r.g.g.g.q.oQtQtQtQtQtQtQtQtQtQtQtQtQtQtQtQtQtQtQtQtQt",
"QtQtQtQtQtQtQtQtQtQtQtQtQtQtQtQt.t.t.t.u.o.q.g.q.g.g.e.e.g.o.v.w.w.o.e.e.g.e.q.g.g.o.t.tQtQtQtQtQtQtQtQtQtQtQtQtQtQtQtQtQtQtQtQt",
"QtQtQtQtQtQtQtQtQtQtQtQtQtQt.t.t.x.y.z.A.B.C.o.q.g.g.e.e.g.o.D.E.F.o.e.e.g.g.q.q.o.z.y.x.t.tQtQtQtQtQtQtQtQtQtQtQtQtQtQtQtQtQtQt",
"QtQtQtQtQtQtQtQtQtQtQtQtQt.t.x.G.H.I.J.D.K.L.M.j.o.g.e.e.q.o.N.O.P.o.e.e.g.g.o.Q.R.J.I.H.G.x.tQtQtQtQtQtQtQtQtQtQtQtQtQtQtQtQtQt",
"QtQtQtQtQtQtQtQtQtQtQtQt.t.S.T.U.V.W.X.P.Y.Z.0.1.j.o.o.o.o.2.2.3.4.f.o.o.o.j.1.1.1.X.W.V.5.T.S.tQtQtQtQtQtQtQtQtQtQtQtQtQtQtQtQt",
"QtQtQtQtQtQtQtQtQtQtQt.t.x.6.7.8.9#.###a#b.1.o.h.j.j.j.o#c#d#d#c#c#e.1.p.p.p.q.1.1###..9.8.7.6.x.tQtQtQtQtQtQtQtQtQtQtQtQtQtQtQt",
"QtQtQtQtQtQtQtQtQtQtQt.t#f#g#h.O#i#b#j#e#d.1.1.j.p.p.j.1#k#k#k#k#k#k.1.q.s.s.q.q.1#j#b#i.O#h#g#f.tQtQtQtQtQtQtQtQtQtQtQtQtQtQtQt",
"QtQtQtQtQtQtQtQtQtQtQt.t#f#l#h.O###b#j#e#d.o.j.1.j.p.1.1#k#k#k#k#k#k.1.q.s.p.p.q.1#j#b##.O#m#l#f.tQtQtQtQtQtQtQtQtQtQtQtQtQtQtQt",
"QtQtQtQtQtQtQtQtQtQtQt.t#n.6.7.8.9#.###a#b.1.j.q.p.s.j.o#c#d#d#c#c#e.1.q.p.q.q.o.f###..9.8.7.6#n.tQtQtQtQtQtQtQtQtQtQtQtQtQtQtQt",
"QtQtQtQtQtQtQtQtQtQtQtQt.t.S#o.5#p.8#q.P.Y.f.1.j.p.p.j.1.2.2.2.2.4#r.f.f.1.f.f.Y.P#q.8#p.5#o.S.tQtQtQtQtQtQtQtQtQtQtQtQtQtQtQtQt",
"QtQtQtQtQtQtQtQtQtQtQtQtQt.t#n.z.H.I.J.R.Q.L.M.o.j.j.o.f.O.N.N.O#s.9#t#u#v.M.L.Q.R.J.I.H.z#n.tQtQtQtQtQtQtQtQtQtQtQtQtQtQtQtQtQt",
"QtQtQtQtQtQtQtQtQtQtQtQtQtQt.t.t.x.y.z.A.B.C#w#x#y#z#A.F.E.D.D.E.F#A#z#y#x#w.C.B.6.z.y.x.t.tQtQtQtQtQtQtQtQtQtQtQtQtQtQtQtQtQtQt",
"QtQtQtQtQtQtQtQtQtQtQtQtQtQtQtQt.t.t.t.u.x.S.y#B.z#C.w.w.w.v.v.w.w.w#C.z#B.y.S.x.u.t.t.tQtQtQtQtQtQtQtQtQtQtQtQtQtQtQtQtQtQtQtQt",
"QtQtQtQtQtQtQtQtQtQtQtQtQtQtQtQtQtQtQtQt.t.t.t.t.t.t.t.t.t.t.t.t.t.t.t.t.t.t.t.tQtQtQtQtQtQtQtQtQtQtQtQtQtQtQtQtQtQtQtQtQtQtQtQt",
"QtQtQtQtQtQtQtQtQtQtQtQtQtQtQtQtQtQtQtQtQtQtQtQtQtQtQtQtQtQtQtQtQtQtQtQtQtQtQtQtQtQtQtQtQtQtQtQtQtQtQtQtQtQtQtQtQtQtQtQtQtQtQtQt",
"QtQtQtQtQtQtQtQtQtQtQtQtQtQtQtQtQtQtQtQtQtQtQtQtQtQtQtQtQtQtQtQtQtQtQtQtQtQtQtQtQtQtQtQtQtQtQtQtQtQtQtQtQtQtQtQtQtQtQtQtQtQtQtQt"};
