/* XPM */
static char *dummy[]={
"64 64 132 2",
"#U c #000000",
"#j c #000003",
"#L c #00070c",
"#x c #07050d",
"#p c #141d32",
"#h c #1baba8",
"#c c #1c0000",
"#G c #1e232c",
"#f c #25424b",
"#R c #280500",
"#m c #2b2c38",
"#z c #303a55",
".7 c #383f4a",
".g c #383f4b",
"#N c #383f4c",
".6 c #38404c",
".e c #393f4b",
"Qt c #3a404b",
".h c #3a404c",
"#1 c #3d4046",
".d c #3d4047",
".f c #3f4148",
"#O c #3f4449",
".k c #404248",
"#9 c #424349",
".# c #434245",
"aa c #43434a",
"#5 c #44434a",
".l c #44444b",
"#X c #46413d",
".a c #46413e",
".v c #474242",
"a# c #474548",
".m c #47464d",
"#Z c #494649",
"#E c #4a4138",
".b c #4a423a",
".w c #4a433e",
"ab c #4b4440",
".n c #4b4951",
"#A c #4b5e7f",
".c c #4c423a",
".o c #4d484c",
".x c #4e4541",
"#l c #4f211e",
"#Q c #4f443c",
"#t c #4f5463",
"#0 c #50443c",
"#W c #50453d",
"a. c #51453d",
".U c #514743",
".t c #52300c",
"#3 c #53463f",
".H c #54473f",
"#Y c #544845",
".p c #544946",
".s c #554840",
".u c #554a47",
".r c #584a43",
".q c #584a44",
"#7 c #584a47",
".G c #584d4d",
".y c #5a4d4b",
"#q c #5b0a00",
"#S c #5b4b44",
"#6 c #5b4c48",
"#T c #5c4b43",
"#V c #5d4b43",
"#. c #5e4d45",
"#8 c #5e4d48",
"#4 c #5f4f4d",
".8 c #614d45",
".z c #61514f",
"#n c #635049",
".9 c #644f48",
"#2 c #645352",
".A c #655451",
".I c #66514a",
"#a c #67524b",
".V c #67544f",
"#D c #684700",
"#H c #68524b",
".2 c #68534c",
"#F c #69534d",
".1 c #69544d",
".R c #6c564f",
".5 c #6c5650",
".B c #6c5959",
"#M c #6c7273",
"#s c #6d5650",
"#d c #6e5651",
".3 c #6e5751",
".J c #6f5750",
".4 c #6f5a56",
".T c #705853",
".D c #705c5c",
".C c #705c5d",
"#K c #708ea7",
".E c #715c5b",
".K c #725a55",
"#J c #735a54",
".Q c #745b56",
".F c #745d59",
"#I c #755c57",
"#r c #757c87",
".W c #785e5a",
".Z c #7a5f5b",
".X c #7a605b",
".Y c #7a605c",
"## c #7c615d",
"#y c #7d625e",
".L c #7e625e",
".P c #826663",
".N c #836663",
".O c #836764",
"#u c #841914",
".M c #846763",
"#k c #8b4435",
".i c #946230",
"#P c #99a09e",
"#B c #9e7b10",
"#v c #b1b5be",
"#e c #b5bfce",
"#o c #c26552",
".j c #d1a049",
"#C c #dfba18",
".S c #f0e883",
"#g c #f2ffff",
"#w c #f4fffe",
"#b c #fd9370",
"#i c #ffe5ba",
".0 c #fffffa",
"QtQtQtQtQtQtQtQtQtQtQtQtQtQtQtQtQtQtQt.#.a.b.b.b.b.b.b.c.b.b.b.b.b.b.b.a.d.e.f.g.f.e.h.hQtQt.f.gQt.f.e.h.f.gQtQtQtQt.f.d.a.c.c.b",
"QtQtQtQtQtQtQt.gQt.gQt.g.gQt.g.g.g.g.g.d.a.b.b.b.b.b.b.b.b.b.b.b.b.b.b.a.e.e.g.g.g.g.e.gQt.g.g.g.g.g.e.e.g.g.g.g.gQt.g.d.a.c.c.c",
".h.hQtQtQt.g.gQt.gQtQt.g.g.g.g.g.g.g.g.d.a.b.b.b.b.b.b.b.b.b.b.b.i.j.b.a.e.g.g.g.g.g.g.g.g.g.g.g.g.g.e.e.g.g.g.g.g.g.g.d.a.c.c.c",
".d.d.d.k.l.l.m.m.m.n.n.n.o.n.n.o.n.n.n.o.p.q.r.q.q.q.s.r.q.i.i.i.i.j.t.p.u.n.n.n.n.n.n.n.n.n.n.n.n.n.n.n.n.n.n.n.m.m.m.l.v.a.w.a",
".w.a.a.x.y.z.z.A.B.C.C.C.B.C.C.C.C.D.D.E.E.F.F.F.F.F.F.i.j.i.i.i.j.t.t.i.t.D.D.D.B.C.C.C.C.C.C.B.D.D.C.C.C.C.C.B.A.z.z.G.l.d.d.d",
".c.b.b.H.I.J.J.K.L.M.M.N.O.O.O.O.N.M.N.N.M.P.P.P.P.P.i.i.j.j.j.i.i.j.i.i.t.t.N.M.N.N.O.P.M.O.O.N.N.N.N.M.N.M.O.L.Q.J.J.z.m.gQtQt",
".c.c.b.H.I.J.R.K.L.M.N.N.N.N.M.M.O.N.N.N.N.N.P.P.P.i.i.j.S.j.S.j.j.j.S.j.i.t.N.N.N.N.N.N.N.N.N.N.N.P.P.N.N.N.N.L.T.R.R.z.mQtQt.h",
".a.a.a.U.V.K.K.Q.W.X.X.X.X.X.X.X.Y.Z.W.Z.Y.L.Y.L.Z.i.S.S.j.S.S.j.S.j.S.S.0.j.i.L.L.Y.L.Y.L.L.L.Y.Z.Z.Z.Y.L.L.Y.W.Q.Q.K.A.m.g.gQt",
".d.d.d.o.B.L.L.W.J.1.1.1.1.1.1.1.2.2.1.J.3.K.K.T.t.j.S.j.j.S.j.S.S.j.S.j.S.0.i.K.K.K.K.K.K.K.K.4.5.2.2.5.J.K.K.K.Z.P.L.B.m.g.g.f",
"Qt.6.7.n.C.M.N.X.2.8.8.8.8.8.8.8.8.8.8.9.2.J.J.A.t.j.i.i.j.i.S.0.j.i.S.0.j.j.S.j.J.5.5.5.5.5.5.2.9.8.8.9.2.5.J.K.Z.P.N.E.n.g.e.e",
"QtQt.7.n.C.M.N.X.1.8.8.8.8.8.8.8.8.8#..9.5.J.5.i.j.i.t.j.j.i.0.S.i.t.i.S.0.i.j.j.5.5.5.5.5.5.J.A.9.8#..9.5.5.1.K##.N.M.E.n.e.e.e",
"Qt.7Qt.n.E.M.N.X.1.8.8.8.9.8.8.9.9.I.9.I#a.5.5.i.t.t.i.j.i.j.S.j.i#b.t.j.0.t.t.5.5.5.J.5.5.5.J.5.I.9.9.I.5.5.J.4.L.M.N.E.n.e.e.h",
"Qt.7.7.n.C.N.N.X.1.8.8.9.8.8.8.I#a.2.5#a.I.I.9.i.i.i.t.i.t.j.j.t#c#c#b.i.S.t.J.5.5.J.5.5#d.5.5.5.1.2.5.5.5.5.5.K.L.N.O.C.n.g.gQt",
"QtQt.7.n.C.M.N.X.1.8.8.8.8.9.8.I.5.J.J.5.9.8.8.i.t.t.t.i#b.i.j.t#e#f#c.t.j.t.5.5.5.5.J.5.5#d#d.5.J.J.5.5.J.5.5.K.Y.N.O.C.n.g.gQt",
"Qt.7.7.n.C.N.N.Y.1.8.8.8.8.8.8.I.5.J.J.1.I.8.8.8.8.t.t.i#b.t.i#b#g#h#i#b.t.5.5.5.5.5.5.5.5#d.5#d.5.5.J.5.5.5.J.K.L.N.O.C.n.e.g.f",
"QtQt.7.n.C.N.N.Y.1.8.8.8.9.I.9.I.2.2.5.2.9.8.8.9.8#j.t.t#k#k.t#i#i#i#i#i#l#m.5.J.J.5.J.5#d.5#d.5.5.J.5.5.5.J.5.K.Y.N.O.B.n.e.e.e",
"Qt.gQt.o.B.O.O.Y.1.8.8.9#a.1.5#a.I#n.9.9.9.8.9.8#.#j#j.t.t#k#o#i#i#i#i#o#l#m.5#d.5#d.5#d#d.5.5#d.J.5.3.5.5.5.5.K.Y.P.O.C.n.g.gQt",
"QtQtQt.n.C.O.N.Y.1.8.8.I.1.J.J.1.I.8.9.8.8.8.9.8.9#j#p#j#j.t#k#o#b#b#o#l#q#r#s.5#d.5#d.5.5.5#d.5.5.5.5#d.5.5.5.K.L.P.P.C.n.gQtQt",
"Qt.g.g.n.C.N.N.Y.1.8.8.I.5.J.J.5.9.8.8.8.8.9.8.8.9.8#p#t#r#j#j#l#k#k#l#m#u#t.5#d.5#d#d.5#d.5.5#d.5#d.5.3.J.5.5.K.Y.P.P.C.o.g.gQt",
"Qt.g.g.m.C.N.N.Y.1.9.9.I.2.1.5#a.9.8.9.8.8.8.8.9.9.9#j#p#t#v#w#r#x#j#j#r#t#x#d.5.5.5.5#d.5#d#d.5.5.5#d.5.5.5.5.K#y.P.P.C.n.gQtQt",
"QtQtQt.n.C.N.N.L.3.1.1.1.I.I.9.I.8.9.8.9.9.8.8.I#a.5#j#j#j#p#p#w#r#t#m#v#t#x.5#d#d.5#d.5#d.5#d#d.3.5#d.5#d.5.J.K.L.N.M.C.n.g.gQt",
"QtQtQt.n.C.N.N.Y.K.J.3.5.9.8.8.8.8.8.8.8.8.8.8#n.5.J#p#z#z#z#p#p#w#m#r#v#x#A#d.5.5#d.5#d.5#d.5.5.5#d.5#d#d.5.1.K.L.N.M.C.n.e.g.h",
"QtQt.7.m.C.N.N.L.K.J.J.1.9.8.8.8.9.8.9.8.8.8.8.I.1.J#z#B#C#B#A#p#v#m#t#m#x#r.5#d.5#d#d.5#d.5.5#d.5#d.5.5.5#d.5.K.X.N.M.C.n.g.g.h",
"Qt.7Qt.n.C.N.N.Y.T.1.1.2.I.9#n.I.9.8.8.8.9.I.9.I.2#p#z#C#C#C#A#p#r#v#x#m#m#r#d.5#d.5#d.5.5#d.5.5.3.5#d.5.5.5.5.E.L.N.M.C.o.d.d.d",
"QtQt.7.m.C.M.M.Y.R.9.9.I.1.1.R.1.I.8.8.I#a.1.5.2#a#p#z#C#C#B#z#p#j#w#x#t#D#r.5.5.5#d.5.5#d.5.5#d#d.5.5.5.5.5.5.K.Y.N.N.E.p.a.a.w",
"Qt.6Qt.n.C.O.N.X.1.8.8.9.1.3.J.1.9.8.8.I.5.J.J.2.9#p#z#A#A#A#z#j#j#w#x#B#m#r.J.5#d.5.5#d.5#d#d.5.5.5#d.J.J.5.5.K.Y.N.N.F.r.c#E.b",
"Qt.6.6.n.B.O.O.Y#F.8.8.9.R.3.3.1.I.8.8.9.5.J.J.1.I#p#z#z#A#z#G#p#j#v#x#t#D#t.5.5.5#d.5.5#d.5.5#d#d.5.5.5.5.5.5.K.L.N.N.K.r#E.b.b",
".d.d.d.o.C.N.O.Y.1.9.9.I.1.1.1#H.9.8.8.9.2.1.1.2.I#j#z#z#z#z#p#x#j#v#m#B#x#A.J.5#d.5#d#d.5#d#d.5.5#d.5.J.5.5.5.K.L.N.N.E.r.b.b.b",
".a.a.a.p.E.M.O.Y.T.1.1.1.I.I.I.9.8.8.8.9.I.9.I.I#a#j#p#z#z#z#p#j#j#r#m#x#x.J.5.5#d.5#d.5#d.5#d.5#d.5.5#d.5.5.5.K.L.P.P.F.r.b.b.b",
".b.b#E.r#I.N.O.Y#J.3.3.1.I.8.8.9.8.9.8.9.8.8.8.9.5.J#p#z#z#A#z#j#j#t#x#B#C.5.5#d.5#d.5#d.5#d.5#d.5#d#d.5.5.5.5.K.Y.P.P.F.r.b.b.b",
".b.b.b.r#I.N.N.L.K.3.R.1#n.8.8.8.8.8.9.8.8.8.8.I.2.5#j#z#z#K#A#p#t#x#x#D#B#D#d.5.5.5.5#d.5#d#d.5.5#d.5#d.5.5.J.K.L.P.P.F.s.b.b.b",
".c.b.b.r#I.N.N.Y.K.R.J.1.I.8.8.8.9.8.8.8.8.9.8.I.5.J#j#z#A#K#K#z#r#x#m#m#D#D.5#d#d.5#d.5#d.5.5.5#d.5#d.5.J.5.5.K.Y.P.P.F.q#E.b.b",
".b.b.b.r.E.N.N.L.K.5.J.1.9.9.8.9.8.9.9.8.8.8.8.9.5#j#j#p#A#A#A#w#v#x#D#B#C#x#s#s.5#d.5#d.5.5.5#d.5#d.5#d.5.5.5.K.Y.P.P.F.q.b.b.b",
".c.b#E.r.Q.N.N.Y.K.5.J.2.9.8.8.8.8.8.8.8.9.8.9.9.A#j#j#r#v#w#w#z#p#m#t#t#t#D#s#s#d.5#d.5.5#d#d.5#d.5.5.5.J.5.5.K.Y.P.N.F.q.b.b.b",
".c#E.b.r.F.N.N.L.K.J.J.5.I.8.8.8.9.8.8.9.8.8.8.I.2#j#j#j#p#z#z#v#r#m#D#B#D#x#s#s.5#d#d.5#d.5#d.5#d.5#d.5.5.5.5.K#y.P.P.F.r.b.b.c",
".a.a.a.p.E.N.N.Z.4.2.1.2.9.8.9.8.8.8.8.9.9.9.9#a.1#j#p#t#t#r#v#L#L#x#t#t#v#m#s#s.5#d.5#d.5#d.5#d.5#d.5#d.5.J.5.K#y.P.P.C.p.a.a.a",
".d.d.e.u.C.M.M.L.1.9.I.9.9.8.8.8.9.8.9.9#a.A.1.1#j#p#p#L#L#L#G#L#M#L#r#v#m#t#d.5.5.5#d.5.5.5.5.5#d.5#d.5.5.5.J.K.L.N.M.C.o.d.d.d",
"Qt.g#N.n.C.O.N.W.2.8.8.8.8.9.8.9.8.8.8.9.5.J.J.J#j#p#p#L#G#O#O#G#P#L#m#m#x#j#s.5#d.5.5#d.5.J.5.5#d.5.5#d#s#s.1.K.Y.N.N.C.nQtQtQt",
"Qt.g#N.n.C.O.P.Y.2.8.8.9.8.8.8.9.8.8.8.9#a.J.5#j#G#z#p#p#L#M#M#O#L#x#x#x#j#j#s#s.5#d.5.J.5.J.5.4.5#d.5.5#s.J.5.K.L.N.O.C.n.7QtQt",
".d.d.e.o.C.O.P.Y.2.8.8.8.9.8.8.8.9.I.9#a.5.J.5#j#z#z#p#p#z#L#L#L#M#p#p#j#x#j#t#s.J.5.5.5.5.5.5#d#d.5#d.5.5.A.1.4.Y.N.P.B.n.7QtQt",
".w.a.a.p.E.N.N.W.2.9.8.8.8.9.9.9.2.1.5.A.J.5#j#G#z#z#p#z#z#A#z#j#v#z#z#j#p#j#t.5.5.5.5.5.5.5.J.5.J.5.J.R.I.I.I.1.Y.N.M.C.nQtQtQt",
".b.b#E.r#I.M.M.W.2.8.8.9.8.8.8.9.5.J.5.5.J#t#j#z#O#z#z#z#A#A#A#p#v#A#p#j#p#j#r.5.5.J.5.J.5.J.5.5.5.J.J.1.I.8.8.1.X.N.O.C.nQtQtQt",
".c.b#E.r.F.P.M.X.2.9.8.8.8.9#..9.2.J.5.J#t#t#p#z#A#z#z#A#A#K#A#z#w#A#p#x#j#G#r#d.5#d.5#d.5.5.5.5.5.J.J.1.I.8.8.1.X.N.N.C.m.g.6Qt",
".b.b.b.r.F.N.N.X.2.8.8.9.9.9.9#a.5.J.5.5#t#j#p#A#A#z#z#A#A#K#A#A#w#z#j#j#p#G#r#t.5.5#d.5.5.5.5.5.1.1.1.I.8.r.q#a.X.N.N.B.n.g.gQt",
".b.b.b.q.F.P.P.Z.2.9.8.9.2.2.5.2.5.5.J#x#t#p#z#A#z#z#A#A#A#K#K#A#w#j#j#G#G#m#t#t#d.5#d.5#d.5.J.5#a.I.I#..H#Q#Q#..F.M.M.C.oQtQtQt",
".b.b.b.q.F.N.P.Z.2.8.8.9.5.5.J.5.5.5.J#x#t#p#m#z#z#z#A#A#K#K#K#z#w#O#L#G#p#G#R#r.5#d.5.5#d#s.J.1#n.8.8#S#Q.b.b.s.F.N.M.C.n.hQtQt",
".b.b.b.q.F.P.P.Z.2.8#..9.2.J.J.5.J.5.J#x#m#t#z#p#z#A#A#A#K#K#K#z#v#O#L#L#G#R#R#v#d.5#d#d#d.J.J.5.I.8.8#.#Q.b.b.q.F.N.N.C.m.7.6Qt",
".a.a.a.u.F.P.P.Y.5.9.9#a.5.J.J.J.A.5.2#x#m#r#p#p#z#A#A#K#K#K#K#v#P#O#L#L#x#c#R#v.5#d.5.5.5.A.1#a.I.8.8#T#Q.b.b.q.F.N.M.C.n.7QtQt",
".d.d.e.u.C.M.N.Y.T.2.2.5.5.5.5.5.I.9.9#x#m#t#r#r#z#A#K#K#K#K#A#w#M#O#L#L#x#R#R#t.J.5.J.J.I.I.I.I.8.9.8#.#Q.b.b.p.F.M.M.E.n.g.gQt",
"Qt.g#N.n.C.M.N.L.K.J.5.J.5.J.J.2#U#U#U#x#m#t#t#m#r#v#v#v#v#v#v#w#O#L#L#p#x#x#x#x#U#U#U#U.9.8.8.8.8.8.8#T#Q.b.b.s.F.M.M.C.n.gQtQt",
"Qt.g#N.n.C.P.P.Y.K.J.J.5.J.J#U#U#U#U#U#U#x#t#m#m#m#t#t#r#r#r#r#w#j#L#L#G#G#L#U#U#U#U#U#U#U#U.8.8.8.8.8#V#W.b.b.p.F.M.M.C.n.g.gQt",
".d.d.e.o.C.P.P.L.K.R.1.J.1#U#U#U#U#U#U#U#U#x#m#m#m#t#t#r#r#r#r#w#L#L#L#L#x#L#L#L#U#U#U#U#U#U#U.8.I.I.I.8.s#Q#Q#..F.M.N.E.o.d.d.d",
".w.a#X.p.F.N.P.L.K.5.J.1#U#U#U#U#U#U#U#U#U#U#U#x#x#m#m#m#t#t#t#v#L#L#L#L#G#G#L#x#U#U#U#U#U#U#U#U#H.1.5#a#..q#T.I.X.N.N.E.p.a.a.a",
".b.b#E.r.F.N.P.L.K.5.J#U#U#U#U#U#U#U#U#U#U#U#U#U#U#U#x#x#x#x#x#x#L#L#L#L#L#G#G#G#U#U#U#U#U#U#U#U#U.J.J.1.I.8.8.1.X.N.N.F.r.b.c.c",
".c.c#E.r.F.P.P#y.K.5.J#U#U#U#U#U#U#U#U#U#U#U#U#U#U#U#U#x#G#O#M#P#M#L#L#j#L#j#L#j#U#U#U#U#U#U#U#U#U.J.J.5.I.8.8.1.X.N.N.F.r#E#E.c",
".a.a.a.p.K.L.L.F.3.2.1#U#U#U#U#U#U#U#U#U#U#U#U#U#U#U#U#x#G#O#G#G#G#G#U#U#U#U#U#U#U#U#U#U#U#U#U#U#U.R.1#a.8#T#T.I#I.L.L.4#Y.a.a.w",
".#.d.e#Z.A.K.K.J.2.I.9#U#U#U#U#U#U#U#U#U#U#U#U#U#U#U#U#x#G#m#O#O#O#G#P#O#U#U#U#U#U#U#U#U#U#U#U#U#U.I.I#..H#Q#0.r.1#I#I.V#Z#1.d.d",
".e.g.g.m#2.J.J.5.9.9.8.9#U#U#U#U#U#U#U#U#U#U#U#U#U#U#U#x#G#G#G#O#M#M#P#O#U#U#U#U#U#U#U#U#U#U#U#U.I.8.8#V#0.b#E#3.I.J.R.z.m.6QtQt",
".e.e.e.m#4.J.J.2.9.9.8.8.8#U#U#U#U#U#U#U#U#U#U#U#U#U#U#j#j#j#j#O#O#O#O#G#U#U#U#U#U#U#U#U#U#U#U.1.9.9.8#.#0.b.b#3.I.3.3.z.m.6QtQt",
".e.f.d#5.y#a.9.9.y.p.q#6#T.8#U#U#U#U#U#U#U#U#U#U#U#U#U#U#U#U#j#j#j#j#j#j#U#U#U#U#U#U#U#U#U#U#2.y.y.q#7#Y#Q.a.a.U#8.I.V.y#9.6QtQt",
".w.a.a.wa..H.H.Ua#aa#5ab#Qa.a..x#U#U#U#U#U#U#U#U#U#U#U#U#U#U#U#U#U#U#U#U#U#U#U#U#U#U#U#U#Z.m.m.l.l#5#5.k.k.d.d.#.x.H.s.x.fQtQtQt",
".b.c.c.c.b.b.b#X.e.e.e.e.a.b.c.a.dQt#N#1#U#U#U#U#U#U#U#U#U#U#U#U#U#U#U#U#U#U#U#U.b.b.c.a.d.g.g.g.gQtQtQt.h.h.h.d.a.b.b.a.dQtQtQt",
".c.c.c.c.b.c.b.w.#.e.e.f.a.c.c.a.dQtQt.d.a#E.b.a.d.hQt.d.a.c.b.b.b.c.b.b.b.b.c.b.b.b.b.a.d.g.gQtQtQtQtQtQt.h.h.d.a.c.b.a.d.h.hQt",
".b.b.c.b.b.c.b.w.e.e.g.e.w.c.c.a.dQtQt.d.a.c.b.a.d.hQt.d.a.c.c.c.c.b.c.b.c.c.b.c.c.b.b.w.dQtQtQtQtQtQtQtQtQt.h.d.a.c.c.a.dQtQtQt"};
