/* XPM */
static char *dummy[]={
"64 64 116 2",
"#D c #000000",
"#d c #000003",
"#H c #00070c",
"#o c #07050d",
"#g c #141d32",
"#i c #1e232c",
"#v c #2b2c38",
"#h c #303a55",
".7 c #383f4a",
".g c #383f4b",
"#z c #383f4c",
".6 c #38404c",
".e c #393f4b",
"Qt c #3a404b",
".h c #3a404c",
"#L c #3d4046",
".d c #3d4047",
".f c #3f4148",
"#u c #3f4449",
".k c #404248",
"#T c #424349",
".# c #434245",
"#W c #43434a",
"#P c #44434a",
".l c #44444b",
"#G c #46413d",
".a c #46413e",
".v c #474242",
"#V c #474548",
".m c #47464d",
"#J c #494649",
"#p c #4a4138",
".b c #4a423a",
".w c #4a433e",
"#X c #4b4440",
".n c #4b4951",
"#j c #4b5e7f",
".c c #4c423a",
".o c #4d484c",
".x c #4e4541",
"#A c #4f443c",
"#e c #4f5463",
"#K c #50443c",
"#F c #50453d",
"#U c #51453d",
".U c #514743",
".t c #52300c",
"#N c #53463f",
".H c #54473f",
"#I c #544845",
".p c #544946",
".s c #554840",
".u c #554a47",
".r c #584a43",
".q c #584a44",
"#R c #584a47",
".G c #584d4d",
".y c #5a4d4b",
"#B c #5b4b44",
"#Q c #5b4c48",
"#C c #5c4b43",
"#E c #5d4b43",
"#. c #5e4d45",
"#S c #5e4d48",
"#O c #5f4f4d",
".8 c #614d45",
".z c #61514f",
"#f c #635049",
".9 c #644f48",
"#M c #645352",
".A c #655451",
".I c #66514a",
"#a c #67524b",
".V c #67544f",
"#n c #684700",
"#r c #68524b",
".1 c #68534c",
"#q c #69534d",
".0 c #69544d",
".S c #6c564f",
".5 c #6c5650",
".B c #6c5959",
"#y c #6c7273",
"#x c #6d5650",
"#b c #6e5651",
".2 c #6e5751",
".J c #6f5750",
".4 c #6f5a56",
".T c #705853",
".D c #705c5c",
".C c #705c5d",
"#k c #708ea7",
".E c #715c5b",
".K c #725a55",
"#t c #735a54",
".R c #745b56",
".F c #745d59",
"#s c #755c57",
"#c c #757c87",
".W c #785e5a",
".Z c #7a5f5b",
".X c #7a605b",
".Y c #7a605c",
"## c #7c615d",
"#l c #7d625e",
".L c #7e625e",
".P c #826663",
".N c #836663",
".O c #836764",
".M c #846763",
".i c #946230",
"#m c #9e7b10",
"#w c #b1b5be",
".j c #d1a049",
".Q c #f0e883",
".3 c #fffffa",
"QtQtQtQtQtQtQtQtQtQtQtQtQtQtQtQtQtQtQt.#.a.b.b.b.b.b.b.c.b.b.b.b.b.b.b.a.d.e.f.g.f.e.h.hQtQt.f.gQt.f.e.h.f.gQtQtQtQt.f.d.a.c.c.b",
"QtQtQtQtQtQtQt.gQt.gQt.g.gQt.g.g.g.g.g.d.a.b.b.b.b.b.b.b.b.b.b.b.b.b.b.a.e.e.g.g.g.g.e.gQt.g.g.g.g.g.e.e.g.g.g.g.gQt.g.d.a.c.c.c",
".h.hQtQtQt.g.gQt.gQtQt.g.g.g.g.g.g.g.g.d.a.b.b.b.b.b.b.b.b.b.b.b.i.j.i.a.e.g.g.g.g.g.g.g.g.g.g.g.g.g.e.e.g.g.g.g.g.g.g.d.a.c.c.c",
".d.d.d.k.l.l.m.m.m.n.n.n.o.n.n.o.n.n.n.o.p.q.r.q.q.q.s.r.i.i.t.t.i.j.i.p.u.n.n.n.n.n.n.n.n.n.n.n.n.n.n.n.n.n.n.n.m.m.m.l.v.a.w.a",
".w.a.a.x.y.z.z.A.B.C.C.C.B.C.C.C.C.D.D.E.E.F.F.F.F.F.i.i.i.i.t.t.j.i.t.i.C.D.D.D.B.C.C.C.C.C.C.B.D.D.C.C.C.C.C.B.A.z.z.G.l.d.d.d",
".c.b.b.H.I.J.J.K.L.M.M.N.O.O.O.O.N.M.N.N.M.P.P.P.P.i.i.i.j.j.Q.i.j.t.t.i.i.M.N.M.N.N.O.P.M.O.O.N.N.N.N.M.N.M.O.L.R.J.J.z.m.gQtQt",
".c.c.b.H.I.J.S.K.L.M.N.N.N.N.M.M.O.N.N.N.N.N.P.P.j.i.j.Q.Q.j.i.t.i.j.j.Q.i.t.N.N.N.N.N.N.N.N.N.N.N.P.P.N.N.N.N.L.T.S.S.z.mQtQt.h",
".a.a.a.U.V.K.K.R.W.X.X.X.X.X.X.X.Y.Z.W.Z.Y.L.Y.L.j.j.Q.Q.j.Q.Q.Q.j.Q.j.Q.Q.t.t.L.L.Y.L.Y.L.L.L.Y.Z.Z.Z.Y.L.L.Y.W.R.R.K.A.m.g.gQt",
".d.d.d.o.B.L.L.W.J.0.0.0.0.0.0.0.1.1.0.J.2.K.K.T.t.i.j.j.3.Q.3.3.Q.j.3.i.Q.i.t.t.K.K.K.K.K.K.K.4.5.1.1.5.J.K.K.K.Z.P.L.B.m.g.g.f",
"Qt.6.7.n.C.M.N.X.1.8.8.8.8.8.8.8.8.8.8.9.1.J.J.A.t.j.Q.3.Q.j.3.Q.j.j.Q.3.i.j.i.t.J.5.5.5.5.5.5.1.9.8.8.9.1.5.J.K.Z.P.N.E.n.g.e.e",
"QtQt.7.n.C.M.N.X.0.8.8.8.8.8.8.8.8.8#..9.5.J.5.i.i.j.i.Q.j.j.Q.j.j.i.j.Q.j.t.t.5.5.5.5.5.5.5.J.A.9.8#..9.5.5.0.K##.N.M.E.n.e.e.e",
"Qt.7Qt.n.E.M.N.X.0.8.8.8.9.8.8.9.9.I.9.I#a.5.5.i.j.t.i.j.j.i.j.j.j.j.i.j.i.j.t.5.5.5.J.5.5.5.J.5.I.9.9.I.5.5.J.4.L.M.N.E.n.e.e.h",
"Qt.7.7.n.C.N.N.X.0.8.8.9.8.8.8.I#a.1.5#a.I.I.9.9.t.t.j.j.i.i.j.j.i.j.t.j.t.i.i.5.5.J.5.5#b.5.5.5.0.1.5.5.5.5.5.K.L.N.O.C.n.g.gQt",
"QtQt.7.n.C.M.N.X.0.8.8.8.8.9.8.I.5.J.J.5.9.8.8.9.8.t.j.i.t.i.j.t.i.i.t.i.t.t.5.5.5.5.J.5.5#b#b.5.J.J.5.5.J.5.5.K.Y.N.O.C.n.g.gQt",
"Qt.7.7.n.C.N.N.Y.0.8.8.8.8.8.8.I.5.J.J.0.I.8.8.8.8.t.i.t.t.i.i.t.t.i.t.t.t.t.5.5.5.5.5.5.5#b.5#b.5.5.J.5.5.5.J.K.L.N.O.C.n.e.g.f",
"QtQt.7.n.C.N.N.Y.0.8.8.8.9.I.9.I.1.1.5.1.9.8.8.9#c#d.t.t.t.i.t.t.t.t.t.t.t#e.5.J.J.5.J.5#b.5#b.5.5.J.5.5.5.J.5.K.Y.N.O.B.n.e.e.e",
"Qt.gQt.o.B.O.O.Y.0.8.8.9#a.0.5#a.I#f.9.9.9.8.9.8#c#d#d.t.t.t.t.t.t.t.t#d#d#e#d#b.5#b.5#b#b.5.5#b.J.5.2.5.5.5.5.K.Y.P.O.C.n.g.gQt",
"QtQtQt.n.C.O.N.Y.0.8.8.I.0.J.J.0.I.8.9.8.8.8#g#h#g#e#g#d#d.t.t.t.t.t#d#g#h#i#d#h#g.5#b.5.5.5#b.5.5.5.5#b.5.5.5.K.L.P.P.C.n.gQtQt",
"Qt.g.g.n.C.N.N.Y.0.8.8.I.5.J.J.5.9.8.8.8.8.9#g#h#g#g#d#g#h#h#h#h#h#h#g#d#d#g#j#h#g#b#b.5#b.5.5#b.5#b.5.2.J.5.5.K.Y.P.P.C.o.g.gQt",
"Qt.g.g.m.C.N.N.Y.0.9.9.I.1.0.5#a.9.8.9.8.8#g#j#k#d#g#g#g#g#d#d#d#d#d#d#g#g#g#k#k#h#g.5#b.5#b#b.5.5.5#b.5.5.5.5.K#l.P.P.C.n.gQtQt",
"QtQtQt.n.C.N.N.L.2.0.0.0.I.I.9.I.8.9.8.9.9#g#k#k#d#h#g#g#g#g#g#g#g#g#g#g#h#h#j#k#m#g#b.5#b.5#b#b.2.5#b.5#b.5.J.K.L.N.M.C.n.g.gQt",
"QtQtQt.n.C.N.N.Y.K.J.2.5.9.8.8.8.8.8.8.8.8#n#m#j#g#h#j#h#h#h#g#g#g#h#h#j#j#g#h#j#m#n.5#b.5#b.5.5.5#b.5#b#b.5.0.K.L.N.M.C.n.e.g.h",
"QtQt.7.m.C.N.N.L.K.J.J.0.9.8.8.8.9.8.9.8.8#n#m#h#d#g#h#j#j#h#h#j#j#j#k#j#h#d#h#h#h#n#b.5#b.5.5#b.5#b.5.5.5#b.5.K.X.N.M.C.n.g.g.h",
"Qt.7Qt.n.C.N.N.Y.T.0.0.1.I.9#f.I.9.8.8.8.9#g#h#h#g#d#d#g#h#j#k#k#k#j#h#g#d#d#g#h#h#g#d.5.5#b.5.5.2.5#b.5.5.5.5.E.L.N.M.C.o.d.d.d",
"QtQt.7.m.C.M.M.Y.S.9.9.I.0.0.S.0.I.8.8.I#d#g#h#g#g#d#g#g#d#d#o#o#o#d#d#g#g#d#i#g#h#g#d.5#b.5.5#b#b.5.5.5.5.5.5.K.Y.N.N.E.p.a.a.w",
"Qt.6Qt.n.C.O.N.X.0.8.8.9.0.2.J.0.9.8.8.I#d#g#g#g#g.8#g#g#g#g#g#d#g#g#g#g#g.5#d#g#g#g#d#b.5#b#b.5.5.5#b.J.J.5.5.K.Y.N.N.F.r.c#p.b",
"Qt.6.6.n.B.O.O.Y#q.8.8.9.S.2.2.0.I.8.8.9#d#g#g#g#d.8#g#g#g#g#g#d#h#g#g#g#d.5#d#g#g#g#g#d#b.5.5#b#b.5.5.5.5.5.5.K.L.N.N.K.r#p.b.b",
".d.d.d.o.C.N.O.Y.0.9.9.I.0.0.0#r.9.8.8#d#g#g#g#i#d.9#d#g#g#g#h#g#h#g#g#g#d.5.J#g#g#g#g#d.5#b#b.5.5#b.5.J.5.5.5.K.L.N.N.E.r.b.b.b",
".a.a.a.p.E.M.O.Y.T.0.0.0.I.I.I.9.8.8.8#d#g#g#g#d#a#d#o#g#g#g#h#d#h#i#g#g#d.J.5#d#g#g#g#d#d.5#b.5#b.5.5#b.5.5.5.K.L.P.P.F.r.b.b.b",
".b.b#p.r#s.N.O.Y#t.2.2.0.I.8.8.9.8.9#e#d#g#g#g#d.5#d#d#d#d#g#g#o#g#g#g#d#d.5.5#d#g#g#g#g#d#b.5#b.5#b#b.5.5.5.5.K.Y.P.P.F.r.b.b.b",
".b.b.b.r#s.N.N.L.K.2.S.0#f.8.8.8.8.8#e#d#g#g#d#u.1#d#v#e#v#d#d#d#d#d#v#v#o#d#b#v#d#g#g#g#e#b#b.5.5#b.5#b.5.5.J.K.L.P.P.F.s.b.b.b",
".c.b.b.r#s.N.N.Y.K.S.J.0.I.8.8.8.9.8#d#c#w#c#u#h#d#o#o#o#v#e#c#c#e#v#v#o#o#d.5#o#e#c#c#e#v.5.5.5#b.5#b.5.J.5.5.K.Y.P.P.F.q#p.b.b",
".b.b.b.r.E.N.N.L.K.5.J.0.9.9.8.9.8.9#e#h#j#j#h#u#d#d#g#g#g#g#d#o#o#o#o#o#g#d#x#i#g#g#g#g#o.5.5#b.5#b.5#b.5.5.5.K.Y.P.P.F.q.b.b.b",
".c.b#p.r.R.N.N.Y.K.5.J.1.9.8.8.8.8.8#d#e#c#c#u#d#o#g#g#g#h#h#i#d#i#h#g#g#g#g#d#o#o#o#o#o#d#b#b.5#b.5.5.5.J.5.5.K.Y.P.N.F.q.b.b.b",
".c#p.b.r.F.N.N.L.K.J.J.5.I.8.8.8.9.8#d#d#d#d#i#d#d#g#g#h#h#h#h#d#h#h#h#g#g#g#d#x#o#i#i#u#i.5#b.5#b.5#b.5.5.5.5.K#l.P.P.F.r.b.b.c",
".a.a.a.p.E.N.N.Z.4.1.0.1.9.8.9.8.8.8#i#y#u#d#i#d#g#g#g#h#h#h#j#d#h#h#h#h#g#g#d#x#o#u#y#y#o#b.5#b.5#b.5#b.5.J.5.K#l.P.P.C.p.a.a.a",
".d.d.e.u.C.M.M.L.0.9.I.9.9.8.8.8.9.8#d#y#y#u#d#o#g#g#h#h#h#j#j#d#j#h#h#h#g#g#g#d.5#o#o#o.5.5.5.5#b.5#b.5.5.5.J.K.L.N.M.C.o.d.d.d",
"Qt.g#z.n.C.O.N.W.1.8.8.8.8.9.8.9.8.8.8#d#d#d#d#d#g#g#h#h#h#j#j#g#j#j#h#h#h#g#g#d#b.5.5#b.5.J.5.5#b.5.5#b#x#x.0.K.Y.N.N.C.nQtQtQt",
"Qt.g#z.n.C.O.P.Y.1.8.8.9.8.8.8.9.8.8.8.9#a.J#d#g#g#g#h#h#j#j#j#g#j#j#h#h#h#g#g#g#d#b.5.J.5.J.5.4.5#b.5.5#x.J.5.K.L.N.O.C.n.7QtQt",
".d.d.e.o.C.O.P.Y.1.8.8.8.9.8.8.8.9.I.9#a.5.J#d#g#g#h#h#h#j#j#j#g#j#j#j#h#h#g#g#g#d.5.5.5.5.5.5#b#b.5#b.5.5.A.0.4.Y.N.P.B.n.7QtQt",
".w.a.a.p.E.N.N.W.1.9.8.8.8.9.9.9.1.0.5.A.J#o#g#g#g#h#h#j#j#j#j#h#j#j#j#h#h#h#g#g#g#d.5.5.5.5.J.5.J.5.J.S.I.I.I.0.Y.N.M.C.nQtQtQt",
".b.b#p.r#s.M.M.W.1.8.8.9.8.8.8.9.5.J.5.5.J#o#i#h#g#h#h#j#j#k#j#h#j#j#j#h#h#h#g#i#g#d.5.J.5.J.5.5.5.J.J.0.I.8.8.0.X.N.O.C.nQtQtQt",
".c.b#p.r.F.P.M.X.1.9.8.8.8.9#..9.1.J.5.J#o#g#g#h#g#h#h#j#j#k#j#g#j#k#j#j#h#h#g#h#g#g#d#b.5.5.5.5.5.J.J.0.I.8.8.0.X.N.N.C.m.g.6Qt",
".b.b.b.r.F.N.N.X.1.8.8.9.9.9.9#a.5.J.5.5#o#i#h#h#h#h#j#j#k#k#j#g#h#k#j#j#h#h#g#h#h#g#d#d.5.5.5.5.0.0.0.I.8.r.q#a.X.N.N.B.n.g.gQt",
".b.b.b.q.F.P.P.Z.1.9.8.9.1.1.5.1.5.5.J#o#g#g#h#h#v#h#j#j#k#k#h#d#h#k#k#j#h#h#h#j#h#g#e#d#b.5.J.5#a.I.I#..H#A#A#..F.M.M.C.oQtQtQt",
".b.b.b.q.F.N.P.Z.1.8.8.9.5.5.J.5.5.5.J#o#g#h#h#h#g#h#j#j#k#k#h#d#g#k#k#j#h#g#h#j#j#e#v#o#b#x.J.0#f.8.8#B#A.b.b.s.F.N.M.C.n.hQtQt",
".b.b.b.q.F.P.P.Z.1.8#..9.1.J.J.5.J.5.J#o#v#e#h#g#g#h#j#k#k#k#d.9#g#k#k#j#h#g#g#h#c#v#v#o#b.J.J.5.I.8.8#.#A.b.b.q.F.N.N.C.m.7.6Qt",
".a.a.a.u.F.P.P.Y.5.9.9#a.5.J.J.J.A.5.1#o#v#e#e#c#g#h#j#k#k#k#d.I#d#k#k#j#h#g#w#c#e#v#v.5.5.A.0#a.I.8.8#C#A.b.b.q.F.N.M.C.n.7QtQt",
".d.d.e.u.C.M.N.Y.T.1.1.5.5.5.5.5.I.9.9#o#v#e#e#v#c#w#w#w#c#h#o#D#o#h#w#w#w#w#e#e#e#v#o.J.I.I.I.I.8.9.8#.#A.b.b.p.F.M.M.E.n.g.gQt",
"Qt.g#z.n.C.M.N.L.K.J.5.J.5.J.J.1#D#D#D#D#o#v#e#v#e#e#c#c#e#o#D#D#D#o#c#c#e#c#v#e#e#o#D#D.9.8.8.8.8.8.8#C#A.b.b.s.F.M.M.C.n.gQtQt",
"Qt.g#z.n.C.P.P.Y.K.J.J.5.J.J#D#D#D#D#D#D#D#D#o#v#e#e#c#c#e#o#D#D#D#o#c#c#e#e#v#v#o#D#D#D#D#D.8.8.8.8.8#E#F.b.b.p.F.M.M.C.n.g.gQt",
".d.d.e.o.C.P.P.L.K.S.0.J.0#D#D#D#D#D#D#D#D#D#D#i#o#e#c#c#v#o#D#D#D#o#c#c#e#e#o#D#D#D#D#D#D#D#D.8.I.I.I.8.s#A#A#..F.M.N.E.o.d.d.d",
".w.a#G.p.F.N.P.L.K.5.J.0#D#D#D#D#D#D#D#D#D#D#D#H#i#o#o#o#o#D#D#D#D#d#o#o#o#i#H#H#H#D#D#D#D#D#D#D#r.0.5#a#..q#C.I.X.N.N.E.p.a.a.a",
".b.b#p.r.F.N.P.L.K.5.J#D#D#D#D#D#D#D#D#D#D#H#o#g#i#i#i#o#D#D#D#D#D#D#H#u#u#u#v#H#H#D#D#D#D#D#D#D#D.J.J.0.I.8.8.0.X.N.N.F.r.b.c.c",
".c.c#p.r.F.P.P#l.K.5.J#D#D#D#D#D#D#D#D#D#D#H#H#i#u#u#i#H#D#D#D#D#D#D#H#v#y#y#v#v#H#D#D#D#D#D#D#D#D.J.J.5.I.8.8.0.X.N.N.F.r#p#p.c",
".a.a.a.p.K.L.L.F.2.1.0#D#D#D#D#D#D#D#D#D#D#o#i#H#i#u#H#H#D#D#D#D#D#D#H#v#y#u#u#v#H#D#D#D#D#D#D#D#D.S.0#a.8#C#C.I#s.L.L.4#I.a.a.w",
".#.d.e#J.A.K.K.J.1.I.9#D#D#D#D#D#D#D#D#D#D#H#i#v#u#y#i#o#D#D#D#D#D#D#H#v#u#v#v#o#d#D#D#D#D#D#D#D#D.I.I#..H#A#K.r.0#s#s.V#J#L.d.d",
".e.g.g.m#M.J.J.5.9.9.8.9#D#D#D#D#D#D#D#D#D#d#H#i#u#u#i#H#D#D#D#D#D#D#d#d#H#d#d#D#D#D#D#D#D#D#D#D.I.8.8#E#K.b#p#N.I.J.S.z.m.6QtQt",
".e.e.e.m#O.J.J.1.9.9.8.8.8#D#D#D#D#D#D#D#D#D#D#o#i#i#o#d#D#D#D#D#D#D#D#D#D#D#D#D#D#D#D#D#D#D#D.0.9.9.8#.#K.b.b#N.I.2.2.z.m.6QtQt",
".e.f.d#P.y#a.9.9.y.p.q#Q#C.8#D#D#D#D#D#D#D#D#D#D#D#D#D#D#D#D#D#D#D#D#D#D#D#D#D#D#D#D#D#D#D#D#M.y.y.q#R#I#A.a.a.U#S.I.V.y#T.6QtQt",
".w.a.a.w#U.H.H.U#V#W#P#X#A#U#U.x#D#D#D#D#D#D#D#D#D#D#D#D#D#D#D#D#D#D#D#D#D#D#D#D#D#D#D#D#J.m.m.l.l#P#P.k.k.d.d.#.x.H.s.x.fQtQtQt",
".b.c.c.c.b.b.b#G.e.e.e.e.a.b.c.a.dQt#z#L#D#D#D#D#D#D#D#D#D#D#D#D#D#D#D#D#D#D#D#D.b.b.c.a.d.g.g.g.gQtQtQt.h.h.h.d.a.b.b.a.dQtQtQt",
".c.c.c.c.b.c.b.w.#.e.e.f.a.c.c.a.dQtQt.d.a#p.b.a.d.hQt.d.a.c.b.b.b.c.b.b.b.b.c.b.b.b.b.a.d.g.gQtQtQtQtQtQt.h.h.d.a.c.b.a.d.h.hQt",
".b.b.c.b.b.c.b.w.e.e.g.e.w.c.c.a.dQtQt.d.a.c.b.a.d.hQt.d.a.c.c.c.c.b.c.b.c.c.b.c.c.b.b.w.dQtQtQtQtQtQtQtQtQt.h.d.a.c.c.a.dQtQtQt"};
