/* XPM */
static char *dummy[]={
"64 64 132 2",
"#U c #000000",
"#n c #000003",
"#L c #00070c",
"#v c #07050d",
"#r c #141d32",
"#h c #1baba8",
"#c c #1c0000",
"#G c #1e232c",
"#e c #25424b",
"#R c #280500",
"#j c #2b2c38",
"#z c #303a55",
".7 c #383f4a",
".g c #383f4b",
"#N c #383f4c",
".6 c #38404c",
".e c #393f4b",
"Qt c #3a404b",
".h c #3a404c",
"#1 c #3d4046",
".d c #3d4047",
".f c #3f4148",
"#P c #3f4449",
".k c #404248",
"#9 c #424349",
".# c #434245",
"aa c #43434a",
"#5 c #44434a",
".l c #44444b",
"#X c #46413d",
".a c #46413e",
".v c #474242",
"a# c #474548",
".m c #47464d",
"#Z c #494649",
"#E c #4a4138",
".b c #4a423a",
".w c #4a433e",
"ab c #4b4440",
".n c #4b4951",
"#A c #4b5e7f",
".c c #4c423a",
".o c #4d484c",
".x c #4e4541",
"#k c #4f211e",
"#Q c #4f443c",
"#t c #4f5463",
"#0 c #50443c",
"#W c #50453d",
"a. c #51453d",
".U c #514743",
".t c #52300c",
"#3 c #53463f",
".H c #54473f",
"#Y c #544845",
".p c #544946",
".s c #554840",
".u c #554a47",
".r c #584a43",
".q c #584a44",
"#7 c #584a47",
".G c #584d4d",
".y c #5a4d4b",
"#q c #5b0a00",
"#S c #5b4b44",
"#6 c #5b4c48",
"#T c #5c4b43",
"#V c #5d4b43",
"#. c #5e4d45",
"#8 c #5e4d48",
"#4 c #5f4f4d",
".8 c #614d45",
".z c #61514f",
"#o c #635049",
".9 c #644f48",
"#2 c #645352",
".A c #655451",
".I c #66514a",
"#a c #67524b",
".V c #67544f",
"#D c #684700",
"#H c #68524b",
".2 c #68534c",
"#F c #69534d",
".1 c #69544d",
".R c #6c564f",
".5 c #6c5650",
".B c #6c5959",
"#M c #6c7273",
"#s c #6d5650",
"#d c #6e5651",
".3 c #6e5751",
".J c #6f5750",
".4 c #6f5a56",
".T c #705853",
".D c #705c5c",
".C c #705c5d",
"#K c #708ea7",
".E c #715c5b",
".K c #725a55",
"#J c #735a54",
".Q c #745b56",
".F c #745d59",
"#I c #755c57",
"#p c #757c87",
".W c #785e5a",
".Z c #7a5f5b",
".X c #7a605b",
".Y c #7a605c",
"## c #7c615d",
"#y c #7d625e",
".L c #7e625e",
".P c #826663",
".N c #836663",
".O c #836764",
"#u c #841914",
".M c #846763",
"#m c #8b4435",
".j c #946230",
"#O c #99a09e",
"#B c #9e7b10",
"#x c #b1b5be",
"#f c #b5bfce",
"#l c #c26552",
".i c #d1a049",
"#C c #dfba18",
".S c #f0e883",
"#i c #f2ffff",
"#w c #f4fffe",
"#b c #fd9370",
"#g c #ffe5ba",
".0 c #fffffa",
"QtQtQtQtQtQtQtQtQtQtQtQtQtQtQtQtQtQtQt.#.a.b.b.b.b.b.b.c.b.b.b.b.b.b.b.a.d.e.f.g.f.e.h.hQtQt.f.gQt.f.e.h.f.gQtQtQtQt.f.d.a.c.c.b",
"QtQtQtQtQtQtQt.gQt.gQt.g.gQt.g.g.g.g.g.d.a.b.b.b.b.b.b.b.b.b.b.b.b.b.b.a.e.e.g.g.g.g.e.gQt.g.g.g.g.g.e.e.g.g.g.g.gQt.g.d.a.c.c.c",
".h.hQtQtQt.g.gQt.gQtQt.g.g.g.g.g.g.g.g.d.a.b.b.b.b.b.b.b.b.i.j.b.b.b.b.a.e.g.g.g.g.g.g.g.g.g.g.g.g.g.e.e.g.g.g.g.g.g.g.d.a.c.c.c",
".d.d.d.k.l.l.m.m.m.n.n.n.o.n.n.o.n.n.n.o.p.q.r.q.q.q.s.r.t.i.j.j.j.j.r.p.u.n.n.n.n.n.n.n.n.n.n.n.n.n.n.n.n.n.n.n.m.m.m.l.v.a.w.a",
".w.a.a.x.y.z.z.A.B.C.C.C.B.C.C.C.C.D.D.E.E.F.F.F.F.F.t.j.t.t.i.j.j.j.i.j.C.D.D.D.B.C.C.C.C.C.C.B.D.D.C.C.C.C.C.B.A.z.z.G.l.d.d.d",
".c.b.b.H.I.J.J.K.L.M.M.N.O.O.O.O.N.M.N.N.M.P.P.P.P.t.t.j.j.i.j.j.i.i.i.j.j.M.N.M.N.N.O.P.M.O.O.N.N.N.N.M.N.M.O.L.Q.J.J.z.m.gQtQt",
".c.c.b.H.I.J.R.K.L.M.N.N.N.N.M.M.O.N.N.N.N.N.P.P.P.t.j.i.S.i.i.i.S.i.S.i.j.j.N.N.N.N.N.N.N.N.N.N.N.P.P.N.N.N.N.L.T.R.R.z.mQtQt.h",
".a.a.a.U.V.K.K.Q.W.X.X.X.X.X.X.X.Y.Z.W.Z.Y.L.Y.L.j.i.0.S.S.i.S.i.S.S.i.S.S.j.Z.L.L.Y.L.Y.L.L.L.Y.Z.Z.Z.Y.L.L.Y.W.Q.Q.K.A.m.g.gQt",
".d.d.d.o.B.L.L.W.J.1.1.1.1.1.1.1.2.2.1.J.3.K.K.T.j.0.S.i.S.i.S.S.i.S.i.i.S.i.t.K.K.K.K.K.K.K.K.4.5.2.2.5.J.K.K.K.Z.P.L.B.m.g.g.f",
"Qt.6.7.n.C.M.N.X.2.8.8.8.8.8.8.8.8.8.8.9.2.J.J.i.S.i.i.0.S.j.i.0.S.j.i.j.j.i.t.1.J.5.5.5.5.5.5.2.9.8.8.9.2.5.J.K.Z.P.N.E.n.g.e.e",
"QtQt.7.n.C.M.N.X.1.8.8.8.8.8.8.8.8.8#..9.5.J.5.i.i.j.0.S.j.t.j.S.0.j.i.i.t.j.i.j.5.5.5.5.5.5.J.A.9.8#..9.5.5.1.K##.N.M.E.n.e.e.e",
"Qt.7Qt.n.E.M.N.X.1.8.8.8.9.8.8.9.9.I.9.I#a.5.5#a.t.t.0.i.t#b.j.i.S.i.j.i.j.t.t.j.5.5.J.5.5.5.J.5.I.9.9.I.5.5.J.4.L.M.N.E.n.e.e.h",
"Qt.7.7.n.C.N.N.X.1.8.8.9.8.8.8.I#a.2.5#a.I.I.9.9.9.t.S.j#b#c#c.t.i.i.t.j.t.j.j.j.5.J.5.5#d.5.5.5.1.2.5.5.5.5.5.K.L.N.O.C.n.g.gQt",
"QtQt.7.n.C.M.N.X.1.8.8.8.8.9.8.I.5.J.J.5.9.8.8.9.8.t.i.t#c#e#f.t.i.j#b.j.t.t.t.j.5.5.J.5.5#d#d.5.J.J.5.5.J.5.5.K.Y.N.O.C.n.g.gQt",
"Qt.7.7.n.C.N.N.Y.1.8.8.8.8.8.8.I.5.J.J.1.I.8.8.8.8.8.t#b#g#h#i#b.j.t#b.j.t.t.5.5.5.5.5.5.5#d.5#d.5.5.J.5.5.5.J.K.L.N.O.C.n.e.g.f",
"QtQt.7.n.C.N.N.Y.1.8.8.8.9.I.9.I.2.2.5.2.9.8.8.9.8#j#k#g#g#g#l#g.t#m#m.t.t#n.5.J.J.5.J.5#d.5#d.5.5.J.5.5.5.J.5.K.Y.N.O.B.n.e.e.e",
"Qt.gQt.o.B.O.O.Y.1.8.8.9#a.1.5#a.I#o.9.9.9.8.9.8#.#j#k#l#g#g#g#m#l#m.t.t#n#n.5#d.5#d.5#d#d.5.5#d.J.5.3.5.5.5.5.K.Y.P.O.C.n.g.gQt",
"QtQtQt.n.C.O.N.Y.1.8.8.I.1.J.J.1.I.8.9.8.8.8.9.8.9#p#q#k#l#b#b#l#m.t#n#n#r#n#s.5#d.5#d.5.5.5#d.5.5.5.5#d.5.5.5.K.L.P.P.C.n.gQtQt",
"Qt.g.g.n.C.N.N.Y.1.8.8.I.5.J.J.5.9.8.8.8.8.9.8.8.9#t#u#j#k#m#m#k#n#n#p#t#r.3.5#d.5#d#d.5#d.5.5#d.5#d.5.3.J.5.5.K.Y.P.P.C.o.g.gQt",
"Qt.g.g.m.C.N.N.Y.1.9.9.I.2.1.5#a.9.8.9.8.8.8.8.9.9#v#t#p#n#n#v#p#w#x#t#r#n.5#d.5.5.5.5#d.5#d#d.5.5.5#d.5.5.5.5.K#y.P.P.C.n.gQtQt",
"QtQtQt.n.C.N.N.L.3.1.1.1.I.I.9.I.8.9.8.9.9.8.8.I#a#v#t#x#j#t#p#w#r#r#n#n#n#d.5#d#d.5#d.5#d.5#d#d.3.5#d.5#d.5.J.K.L.N.M.C.n.g.gQt",
"QtQtQt.n.C.N.N.Y.K.J.3.5.9.8.8.8.8.8.8.8.8.8.8#o.5#t#v#x#p#j#w#r#r#z#z#z#r#d#d.5.5#d.5#d.5#d.5.5.5#d.5#d#d.5.1.K.L.N.M.C.n.e.g.h",
"QtQt.7.m.C.N.N.L.K.J.J.1.9.8.8.8.9.8.9.8.8.8.8.I.1#p#v#j#t#j#x#r#A#B#C#B#z.5.5#d.5#d#d.5#d.5.5#d.5#d.5.5.5#d.5.K.X.N.M.C.n.g.g.h",
"Qt.7Qt.n.C.N.N.Y.T.1.1.2.I.9#o.I.9.8.8.8.9.I.9.I.2#p#j#j#v#x#p#r#A#C#C#C#z#r#d.5#d.5#d.5.5#d.5.5.3.5#d.5.5.5.5.E.L.N.M.C.o.d.d.d",
"QtQt.7.m.C.M.M.Y.R.9.9.I.1.1.R.1.I.8.8.I#a.1.5.2#a#p#D#t#v#w#n#r#z#B#C#C#z#r.5.5.5#d.5.5#d.5.5#d#d.5.5.5.5.5.5.K.Y.N.N.E.p.a.a.w",
"Qt.6Qt.n.C.O.N.X.1.8.8.9.1.3.J.1.9.8.8.I.5.J.J.2.9#p#j#B#v#w#n#n#z#A#A#A#z#r.J.5#d.5.5#d.5#d#d.5.5.5#d.J.J.5.5.K.Y.N.N.F.r.c#E.b",
"Qt.6.6.n.B.O.O.Y#F.8.8.9.R.3.3.1.I.8.8.9.5.J.J.1.I#t#D#t#v#x#n#r#G#z#A#z#z#r.5.5.5#d.5.5#d.5.5#d#d.5.5.5.5.5.5.K.L.N.N.K.r#E.b.b",
".d.d.d.o.C.N.O.Y.1.9.9.I.1.1.1#H.9.8.8.9.2.1.1.2.I#t#v#B#j#x#n#v#r#z#z#z#z#n.J.5#d.5#d#d.5#d#d.5.5#d.5.J.5.5.5.K.L.N.N.E.r.b.b.b",
".a.a.a.p.E.M.O.Y.T.1.1.1.I.I.I.9.8.8.8.9.I.9.I.I#a.1#v#v#j#p#n#n#r#z#z#z#r#n.5.5#d.5#d.5#d.5#d.5#d.5.5#d.5.5.5.K.L.P.P.F.r.b.b.b",
".b.b#E.r#I.N.O.Y#J.3.3.1.I.8.8.9.8.9.8.9.8.8.8.9.5.J#C#B#v#t#n#n#z#A#z#z#r.5.5#d.5#d.5#d.5#d.5#d.5#d#d.5.5.5.5.K.Y.P.P.F.r.b.b.b",
".b.b.b.r#I.N.N.L.K.3.R.1#o.8.8.8.8.8.9.8.8.8.8.I.2#D#B#D#v#v#t#r#A#K#z#z#n.5#d.5.5.5.5#d.5#d#d.5.5#d.5#d.5.5.J.K.L.P.P.F.s.b.b.b",
".c.b.b.r#I.N.N.Y.K.R.J.1.I.8.8.8.9.8.8.8.8.9.8.I.5#D#D#j#j#v#p#z#K#K#A#z#n#d.5#d#d.5#d.5#d.5.5.5#d.5#d.5.J.5.5.K.Y.P.P.F.q#E.b.b",
".b.b.b.r.E.N.N.L.K.5.J.1.9.9.8.9.8.9.9.8.8.8.8.9.5#v#C#B#D#v#x#w#A#A#A#r#n#n#s#s.5#d.5#d.5.5.5#d.5#d.5#d.5.5.5.K.Y.P.P.F.q.b.b.b",
".c.b#E.r.Q.N.N.Y.K.5.J.2.9.8.8.8.8.8.8.8.9.8.9.9.A#D#t#t#t#j#r#z#w#w#x#p#n#n#s#s#d.5#d.5.5#d#d.5#d.5.5.5.J.5.5.K.Y.P.N.F.q.b.b.b",
".c#E.b.r.F.N.N.L.K.J.J.5.I.8.8.8.9.8.8.9.8.8.8.I.2#v#D#B#D#j#p#x#z#z#r#n#n#n#s#s.5#d#d.5#d.5#d.5#d.5#d.5.5.5.5.K#y.P.P.F.r.b.b.c",
".a.a.a.p.E.N.N.Z.4.2.1.2.9.8.9.8.8.8.8.9.9.9.9#a.1#j#x#t#t#v#L#L#x#p#t#t#r#n#s#s.5#d.5#d.5#d.5#d.5#d.5#d.5.J.5.K#y.P.P.C.p.a.a.a",
".d.d.e.u.C.M.M.L.1.9.I.9.9.8.8.8.9.8.9.9#a.A.1.1.J#t#j#x#p#L#M#L#G#L#L#L#r#r#n.5.5.5#d.5.5.5.5.5#d.5#d.5.5.5.J.K.L.N.M.C.o.d.d.d",
"Qt.g#N.n.C.O.N.W.2.8.8.8.8.9.8.9.8.8.8.9.5.J.J.J.5#n#v#j#j#L#O#G#P#P#G#L#r#r#n.5#d.5.5#d.5.J.5.5#d.5.5#d#s#s.1.K.Y.N.N.C.nQtQtQt",
"Qt.g#N.n.C.O.P.Y.2.8.8.9.8.8.8.9.8.8.8.9#a.J.5.J.J#n#n#n#v#v#L#P#M#M#L#r#r#z#G#n.5#d.5.J.5.J.5.4.5#d.5.5#s.J.5.K.L.N.O.C.n.7QtQt",
".d.d.e.o.C.O.P.Y.2.8.8.8.9.8.8.8.9.I.9#a.5.J.5.J#t#n#v#n#r#r#M#L#L#L#z#r#r#z#z#n.J.5.5.5.5.5.5#d#d.5#d.5.5.A.1.4.Y.N.P.B.n.7QtQt",
".w.a.a.p.E.N.N.W.2.9.8.8.8.9.9.9.2.1.5.A.J.5.5.2#t#n#r#n#z#z#x#n#z#A#z#z#r#z#z#G#n.5.5.5.5.5.J.5.J.5.J.R.I.I.I.1.Y.N.M.C.nQtQtQt",
".b.b#E.r#I.M.M.W.2.8.8.9.8.8.8.9.5.J.5.5.J.J.J.1#p#n#r#n#r#A#x#r#A#A#A#z#z#z#z#z#n#t.5.J.5.J.5.5.5.J.J.1.I.8.8.1.X.N.O.C.nQtQtQt",
".c.b#E.r.F.P.M.X.2.9.8.8.8.9#..9.2.J.5.J.J.J.J.5#p#G#n#v#r#A#w#z#A#K#A#A#z#z#A#z#r#t#t#d.5.5.5.5.5.J.J.1.I.8.8.1.X.N.N.C.m.g.6Qt",
".b.b.b.r.F.N.N.X.2.8.8.9.9.9.9#a.5.J.5.5.5.2.5#t#p#G#r#n#n#z#w#A#A#K#A#A#z#z#A#A#r#n#t.5.5.5.5.5.1.1.1.I.8.r.q#a.X.N.N.B.n.g.gQt",
".b.b.b.q.F.P.P.Z.2.9.8.9.2.2.5.2.5.5.J.5#a.9.9#t#t#j#G#G#n#n#w#A#K#K#A#A#A#z#z#A#z#r#t#v#d.5.J.5#a.I.I#..H#Q#Q#..F.M.M.C.oQtQtQt",
".b.b.b.q.F.N.P.Z.2.8.8.9.5.5.J.5.5.5.J.2.9#..8#p#R#G#G#G#L#P#w#z#K#K#K#A#A#z#z#j#z#r#t#v#d#s.J.1#o.8.8#S#Q.b.b.s.F.N.M.C.n.hQtQt",
".b.b.b.q.F.P.P.Z.2.8#..9.2.J.J.5.J.5.J.5.9.8.8#x#R#R#G#L#L#P#x#z#K#K#K#A#A#A#z#r#z#t#j#v#d.J.J.5.I.8.8#.#Q.b.b.q.F.N.N.C.m.7.6Qt",
".a.a.a.u.F.P.P.Y.5.9.9#a.5.J.J.J.A.5.2.2#a.9.9#x#R#c#v#L#L#P#O#x#K#K#K#K#A#A#z#r#r#p#j#v.5.A.1#a.I.8.8#T#Q.b.b.q.F.N.M.C.n.7QtQt",
".d.d.e.u.C.M.N.Y.T.2.2.5.5.5.5.5.I.9.9.I#U#U#U#t#R#R#U#L#L#P#M#w#A#K#K#K#K#A#z#p#p#t#j#v.I.I.I.I.8.9.8#.#Q.b.b.p.F.M.M.E.n.g.gQt",
"Qt.g#N.n.C.M.N.L.K.J.5.J.5.J.J.2#U#U#U#U#U#U#U#v#v#v#r#L#L#L#P#w#x#x#x#x#x#x#p#j#t#t#j#v.9.8.8.8.8.8.8#T#Q.b.b.s.F.M.M.C.n.gQtQt",
"Qt.g#N.n.C.P.P.Y.K.J.J.5.J.J#U#U#U#U#U#U#U#U#U#U#U#L#G#G#L#L#n#w#p#p#p#p#t#t#j#j#j#t#v#U#U#U.8.8.8.8.8#V#W.b.b.p.F.M.M.C.n.g.gQt",
".d.d.e.o.C.P.P.L.K.R.1.J.1#U#U#U#U#U#U#U#U#U#U#L#L#v#L#L#L#L#L#w#p#p#p#p#t#t#j#j#j#v#U#U#U#U#U.8.I.I.I.8.s#Q#Q#..F.M.N.E.o.d.d.d",
".w.a#X.p.F.N.P.L.K.5.J.1#U#U#U#U#U#U#U#U#U#U#U#v#L#G#G#L#L#L#L#x#t#t#t#j#j#j#v#v#U#U#U#U#U#U#U#U#H.1.5#a#..q#T.I.X.N.N.E.p.a.a.a",
".b.b#E.r.F.N.P.L.K.5.J#U#U#U#U#U#U#U#U#U#U#U#U#G#G#G#L#L#L#L#L#v#v#v#v#v#v#U#U#U#U#U#U#U#U#U#U#U#U.J.J.1.I.8.8.1.X.N.N.F.r.b.c.c",
".c.c#E.r.F.P.P#y.K.5.J#U#U#U#U#U#U#U#U#U#U#U#U#n#n#L#n#L#L#L#M#O#M#P#G#v#U#U#U#U#U#U#U#U#U#U#U#U#U.J.J.5.I.8.8.1.X.N.N.F.r#E#E.c",
".a.a.a.p.K.L.L.F.3.2.1#U#U#U#U#U#U#U#U#U#U#U#U#U#U#U#U#U#U#G#G#G#G#P#G#v#U#U#U#U#U#U#U#U#U#U#U#U#U.R.1#a.8#T#T.I#I.L.L.4#Y.a.a.w",
".#.d.e#Z.A.K.K.J.2.I.9#U#U#U#U#U#U#U#U#U#U#U#U#U#U#U#U#P#O#G#P#P#P#j#G#v#U#U#U#U#U#U#U#U#U#U#U#U#U.I.I#..H#Q#0.r.1#I#I.V#Z#1.d.d",
".e.g.g.m#2.J.J.5.9.9.8.9#U#U#U#U#U#U#U#U#U#U#U#U#U#U#U#P#O#M#M#P#G#G#G#v#U#U#U#U#U#U#U#U#U#U#U#U.I.8.8#V#0.b#E#3.I.J.R.z.m.6QtQt",
".e.e.e.m#4.J.J.2.9.9.8.8.8#U#U#U#U#U#U#U#U#U#U#U#U#U#U#G#P#P#P#P#n#n#n#n#U#U#U#U#U#U#U#U#U#U#U.1.9.9.8#.#0.b.b#3.I.3.3.z.m.6QtQt",
".e.f.d#5.y#a.9.9.y.p.q#6#T.8#U#U#U#U#U#U#U#U#U#U#U#U#U#n#n#n#n#n#n#U#U#U#U#U#U#U#U#U#U#U#U#U#2.y.y.q#7#Y#Q.a.a.U#8.I.V.y#9.6QtQt",
".w.a.a.wa..H.H.Ua#aa#5ab#Qa.a..x#U#U#U#U#U#U#U#U#U#U#U#U#U#U#U#U#U#U#U#U#U#U#U#U#U#U#U#U#Z.m.m.l.l#5#5.k.k.d.d.#.x.H.s.x.fQtQtQt",
".b.c.c.c.b.b.b#X.e.e.e.e.a.b.c.a.dQt#N#1#U#U#U#U#U#U#U#U#U#U#U#U#U#U#U#U#U#U#U#U.b.b.c.a.d.g.g.g.gQtQtQt.h.h.h.d.a.b.b.a.dQtQtQt",
".c.c.c.c.b.c.b.w.#.e.e.f.a.c.c.a.dQtQt.d.a#E.b.a.d.hQt.d.a.c.b.b.b.c.b.b.b.b.c.b.b.b.b.a.d.g.gQtQtQtQtQtQt.h.h.d.a.c.b.a.d.h.hQt",
".b.b.c.b.b.c.b.w.e.e.g.e.w.c.c.a.dQtQt.d.a.c.b.a.d.hQt.d.a.c.c.c.c.b.c.b.c.c.b.c.c.b.b.w.dQtQtQtQtQtQtQtQtQt.h.d.a.c.c.a.dQtQtQt"};
