/* XPM */
static char *dummy[]={
"128 64 132 2",
"#U c #000000",
"#n c #000003",
"#D c #00070c",
"#v c #07050d",
"#s c #141d32",
"#h c #1baba8",
"#d c #1c0000",
"#E c #1e232c",
"#e c #25424b",
"#j c #2b2c38",
"#z c #303a55",
".7 c #383f4a",
".g c #383f4b",
"#O c #383f4c",
".6 c #38404c",
".e c #393f4b",
"Qt c #3a404b",
".h c #3a404c",
"#1 c #3d4046",
".d c #3d4047",
".f c #3f4148",
"#M c #3f4449",
".k c #404248",
"#9 c #424349",
".# c #434245",
"aa c #43434a",
"#5 c #44434a",
".l c #44444b",
"#X c #46413d",
".a c #46413e",
".v c #474242",
"a# c #474548",
".m c #47464d",
"#Z c #494649",
"#G c #4a4138",
".b c #4a423a",
".w c #4a433e",
"ab c #4b4440",
".n c #4b4951",
"#A c #4b5e7f",
".c c #4c423a",
".o c #4d484c",
".x c #4e4541",
"#k c #4f211e",
"#R c #4f443c",
"#t c #4f5463",
"#0 c #50443c",
"#W c #50453d",
"a. c #51453d",
".U c #514743",
".u c #52300c",
"#3 c #53463f",
".H c #54473f",
"#Y c #544845",
".p c #544946",
".s c #554840",
".t c #554a47",
".r c #584a43",
".q c #584a44",
"#7 c #584a47",
".G c #584d4d",
".y c #5a4d4b",
"#r c #5b0a00",
"#S c #5b4b44",
"#6 c #5b4c48",
"#T c #5c4b43",
"#V c #5d4b43",
"#. c #5e4d45",
"#8 c #5e4d48",
"#4 c #5f4f4d",
".8 c #614d45",
".z c #61514f",
"#o c #635049",
".9 c #644f48",
"#2 c #645352",
".A c #655451",
".I c #66514a",
"## c #67524b",
".V c #67544f",
"#F c #684700",
"#I c #68524b",
".2 c #68534c",
"#H c #69534d",
".1 c #69544d",
".R c #6c564f",
".4 c #6c5650",
".B c #6c5959",
"#N c #6c7273",
"#p c #6d5650",
"#c c #6e5651",
".3 c #6e5751",
".J c #6f5750",
".5 c #6f5a56",
".T c #705853",
".D c #705c5c",
".C c #705c5d",
"#L c #708ea7",
".E c #715c5b",
".K c #725a55",
"#K c #735a54",
".Q c #745b56",
".F c #745d59",
"#J c #755c57",
"#q c #757c87",
".W c #785e5a",
".Z c #7a5f5b",
".X c #7a605b",
".Y c #7a605c",
"#a c #7c615d",
"#x c #7d625e",
".L c #7e625e",
".P c #826663",
".N c #836663",
".O c #836764",
"#u c #841914",
".M c #846763",
"#m c #8b4435",
".j c #946230",
"#P c #99a09e",
"#B c #9e7b10",
"#w c #b1b5be",
"#f c #b5bfce",
"#l c #c26552",
".i c #d1a049",
"#C c #dfba18",
"#Q c #e2e5e5",
".S c #f0e883",
"#i c #f2ffff",
"#y c #f4fffe",
"#b c #fd9370",
"#g c #ffe5ba",
".0 c #fffffa",
"QtQtQtQtQtQtQtQtQtQtQtQtQtQtQtQtQtQtQt.#.a.b.b.b.b.b.b.c.b.b.b.b.b.b.b.a.d.e.f.g.f.e.h.hQtQt.f.gQt.f.e.h.f.gQtQtQtQt.f.d.a.c.c.bQtQtQtQtQtQtQtQtQtQtQtQtQtQtQtQtQtQtQt.#.a.b.b.b.b.b.b.c.b.b.b.b.b.b.b.a.d.e.f.g.f.e.h.hQtQt.f.gQt.f.e.h.f.gQtQtQtQt.f.d.a.c.c.b",
"QtQtQtQtQtQtQt.gQt.gQt.g.gQt.g.g.g.g.g.d.a.b.b.b.b.b.b.b.b.b.b.b.b.b.b.a.e.e.g.g.g.g.e.gQt.g.g.g.g.g.e.e.g.g.g.g.gQt.g.d.a.c.c.cQtQtQtQtQtQtQt.gQt.gQt.g.gQt.g.g.g.g.g.d.a.b.b.b.b.b.b.b.b.b.b.b.b.b.b.a.e.e.g.g.g.g.e.gQt.g.g.g.g.g.e.e.g.g.g.g.gQt.g.d.a.c.c.c",
".h.hQtQtQt.g.gQt.gQtQt.g.g.g.g.g.g.g.g.d.a.b.b.b.b.b.b.b.b.b.b.b.b.b.b.a.e.g.g.g.g.g.g.g.g.g.g.g.g.i.j.e.g.g.g.g.g.g.g.d.a.c.c.c.h.hQtQtQt.g.gQt.gQtQt.g.g.g.g.g.g.g.g.d.a.b.b.b.b.b.b.b.b.b.b.b.b.b.b.a.e.g.g.g.g.g.g.g.g.g.g.g.g.g.e.e.g.g.g.g.g.g.g.d.a.c.c.c",
".d.d.d.k.l.l.m.m.m.n.n.n.o.n.n.o.n.n.n.o.p.q.r.q.q.q.s.r.q.q.q.q.q.q.r.p.t.n.n.n.n.n.n.n.n.n.n.n.u.i.j.j.j.j.n.n.m.m.m.l.v.a.w.a.d.d.d.k.l.l.m.m.m.n.n.n.o.n.n.o.n.n.n.o.p.q.r.q.q.q.s.r.q.q.q.q.q.q.r.p.t.n.n.n.n.n.n.n.n.n.n.n.n.n.n.n.n.n.n.n.m.m.m.l.v.a.w.a",
".w.a.a.x.y.z.z.A.B.C.C.C.B.C.C.C.C.D.D.E.E.F.F.F.F.F.F.F.F.F.F.F.F.F.F.F.C.D.D.D.B.C.C.C.C.C.u.j.u.u.i.j.j.j.i.j.A.z.z.G.l.d.d.d.w.a.a.x.y.z.z.A.B.C.C.C.B.C.C.C.C.D.D.E.E.F.F.F.F.F.F.F.F.F.F.F.F.F.F.F.C.D.D.D.B.C.C.C.C.C.C.B.D.D.C.C.C.C.C.B.A.z.z.G.l.d.d.d",
".c.b.b.H.I.J.J.K.L.M.M.N.O.O.O.O.N.M.N.N.M.P.P.P.P.P.O.P.P.P.P.P.P.P.P.O.M.M.N.M.N.N.O.P.M.u.u.j.j.i.j.j.i.i.i.j.j.J.J.z.m.gQtQt.c.b.b.H.I.J.J.K.L.M.M.N.O.O.O.O.N.M.N.N.M.P.P.P.P.P.O.P.P.P.P.P.P.P.P.O.M.M.N.M.N.N.O.P.M.O.O.N.N.N.N.M.N.M.O.L.Q.J.J.z.m.gQtQt",
".c.c.b.H.I.J.R.K.L.M.N.N.N.N.M.M.O.N.N.N.N.N.P.P.P.P.P.P.P.P.P.P.P.P.P.P.N.N.N.N.N.N.N.N.N.u.j.i.S.i.i.i.S.i.S.i.j.j.R.z.mQtQt.h.c.c.b.H.I.J.R.K.L.M.N.N.N.N.M.M.O.N.N.N.N.N.P.P.P.P.P.P.P.P.P.P.P.P.P.P.N.N.N.N.N.N.N.N.N.N.N.N.N.P.P.N.N.N.N.L.T.R.R.z.mQtQt.h",
".a.a.a.U.V.K.K.Q.W.X.X.X.X.X.X.X.Y.Z.W.Z.Y.L.Y.L.Z.Z.Z.Z.Z.Z.Z.Z.Z.Z.Z.Z.Z.L.Z.L.L.Y.L.Y.j.i.0.S.S.i.S.i.S.S.i.S.S.j.K.A.m.g.gQt.a.a.a.U.V.K.K.Q.W.X.X.X.X.X.X.X.Y.Z.W.Z.Y.L.Y.L.Z.Z.Z.Z.Z.Z.Z.Z.Z.Z.Z.Z.Z.L.Z.L.L.Y.L.Y.L.L.L.Y.Z.Z.Z.Y.L.L.Y.W.Q.Q.K.A.m.g.gQt",
".d.d.d.o.B.L.L.W.J.1.1.1.1.1.1.1.2.2.1.J.3.K.K.T.4.2.2.2.2.2.2.2.2.2.1.J.K.K.K.K.K.K.K.K.j.0.S.i.S.i.S.S.i.S.i.i.S.i.u.B.m.g.g.f.d.d.d.o.B.L.L.W.J.1.1.1.1.1.1.1.2.2.1.J.3.K.K.T.4.2.2.2.2.2.2.2.2.2.1.J.K.K.K.K.K.K.K.K.K.K.K.5.4.2.2.4.J.K.K.K.Z.P.L.B.m.g.g.f",
"Qt.6.7.n.C.M.N.X.2.8.8.8.8.8.8.8.8.8.8.9.2.J.J.A.9.8.9.8.9.8.9.8.8.8.8.9.A.4.J.1.J.4.4.i.S.i.i.0.S.j.i.0.S.j.i.j.j.i.u.E.n.g.e.eQt.6.7.n.C.M.N.X.2.8.8.8.8.8.8.8.8.8.8.9.2.J.J.A.9.8.9.8.9.8.9.8.8.8.8.9.A.4.J.1.J.4.4.4.4.4.4.2.9.8.8.9.2.4.J.K.Z.P.N.E.n.g.e.e",
"QtQt.7.n.C.M.N.X.1.8.8.8.8.8.8.8.8.8#..9.4.J.4.2.9.8#..8.8.8.8.8.8.8.8.9##.J.4.4.4.4.4.i.i.j.0.S.j.u.j.S.0.j.i.i.u.j.i.j.n.e.e.eQtQt.7.n.C.M.N.X.1.8.8.8.8.8.8.8.8.8#..9.4.J.4.2.9.8#..8.8.8.8.8.8.8.8.9##.J.4.4.4.4.4.4.4.4.J.A.9.8#..9.4.4.1.K#a.N.M.E.n.e.e.e",
"Qt.7Qt.n.E.M.N.X.1.8.8.8.9.8.8.9.9.I.9.I##.4.4##.9.8.9.8.8.9.8.9.9.9.9.I.4.4.J.4.4.4.J.4.u.u.0.i.u#b.j.i.S.i.j.i.j.u.u.j.n.e.e.hQt.7Qt.n.E.M.N.X.1.8.8.8.9.8.8.9.9.I.9.I##.4.4##.9.8.9.8.8.9.8.9.9.9.9.I.4.4.J.4.4.4.J.4.4.4.J.4.I.9.9.I.4.4.J.5.L.M.N.E.n.e.e.h",
"Qt.7.7.n.C.N.N.X.1.8.8.9.8.8.8.I##.2.4##.I.I.9.9.9.9.8.8.8.9.8.9.2.4.A.1.J.J.J.4.4.J.4.4#c.u.S.j#b#d#d.u.i.i.u.j.u.j.j.j.n.g.gQtQt.7.7.n.C.N.N.X.1.8.8.9.8.8.8.I##.2.4##.I.I.9.9.9.9.8.8.8.9.8.9.2.4.A.1.J.J.J.4.4.J.4.4#c.4.4.4.1.2.4.4.4.4.4.K.L.N.O.C.n.g.gQt",
"QtQt.7.n.C.M.N.X.1.8.8.8.8.9.8.I.4.J.J.4.9.8.8.9.8.8.8.9.8.8.8.9.2.J.J.4.4.J.4.4.4.4.J.4.4.u.i.u#d#e#f.u.i.j#b.j.u.u.u.j.n.g.gQtQtQt.7.n.C.M.N.X.1.8.8.8.8.9.8.I.4.J.J.4.9.8.8.9.8.8.8.9.8.8.8.9.2.J.J.4.4.J.4.4.4.4.J.4.4#c#c.4.J.J.4.4.J.4.4.K.Y.N.O.C.n.g.gQt",
"Qt.7.7.n.C.N.N.Y.1.8.8.8.8.8.8.I.4.J.J.1.I.8.8.8.8.8.8.8.8.9.8.9.4.J.J.4.J.4.4.4.4.4.4.4.4#c.u#b#g#h#i#b.j.u#b.j.u.u.O.C.n.e.g.fQt.7.7.n.C.N.N.Y.1.8.8.8.8.8.8.I.4.J.J.1.I.8.8.8.8.8.8.8.8.9.8.9.4.J.J.4.J.4.4.4.4.4.4.4.4#c.4#c.4.4.J.4.4.4.J.K.L.N.O.C.n.e.g.f",
"QtQt.7.n.C.N.N.Y.1.8.8.8.9.I.9.I.2.2.4.2.9.8.8.9.8.9.8.9.9.I.9##.2.2.4.4.4.4.4.J.J.4.J.4#c#j#k#g#g#g#l#g.u#m#m.u.u#n.O.B.n.e.e.eQtQt.7.n.C.N.N.Y.1.8.8.8.9.I.9.I.2.2.4.2.9.8.8.9.8.9.8.9.9.I.9##.2.2.4.4.4.4.4.J.J.4.J.4#c.4#c.4.4.J.4.4.4.J.4.K.Y.N.O.B.n.e.e.e",
"Qt.gQt.o.B.O.O.Y.1.8.8.9##.1.4##.I#o.9.9.9.8.9.8#..8.9.9##.4.4##.I.I.I.I.A#p.4#c.4#c.4#c#c#j#k#l#g#g#g#m#l#m.u.u#n#n.O.C.n.g.gQtQt.gQt.o.B.O.O.Y.1.8.8.9##.1.4##.I#o.9.9.9.8.9.8#..8.9.9##.4.4##.I.I.I.I.A#p.4#c.4#c.4#c#c.4.4#c.J.4.3.4.4.4.4.K.Y.P.O.C.n.g.gQt",
"QtQtQt.n.C.O.N.Y.1.8.8.I.1.J.J.1.I.8.9.8.8.8.9.8.9.8.8.9.2.J.J.2.9.8#..I.4#p#p.4#c.4#c.4.4#q#r#k#l#b#b#l#m.u.u#n#s#n.P.C.n.gQtQtQtQtQt.n.C.O.N.Y.1.8.8.I.1.J.J.1.I.8.9.8.8.8.9.8.9.8.8.9.2.J.J.2.9.8#..I.4#p#p.4#c.4#c.4.4.4#c.4.4.4.4#c.4.4.4.K.L.P.P.C.n.gQtQt",
"Qt.g.g.n.C.N.N.Y.1.8.8.I.4.J.J.4.9.8.8.8.8.9.8.8.9.8.8.9.4.3.3.4.9.8.8#o.1.3.4#c.4#c#c.4#c#t#u#j#k#m#m#k#s#n#s#t#s#n.P.C.o.g.gQtQt.g.g.n.C.N.N.Y.1.8.8.I.4.J.J.4.9.8.8.8.8.9.8.8.9.8.8.9.4.3.3.4.9.8.8#o.1.3.4#c.4#c#c.4#c.4.4#c.4#c.4.3.J.4.4.K.Y.P.P.C.o.g.gQt",
"Qt.g.g.m.C.N.N.Y.1.9.9.I.2.1.4##.9.8.9.8.8.8.8.9.9.9.9##.2.2.4.2.I.9#o.I.4.4#c.4.4.4.4#c.4#v#r#q#n#j#n#q#w#q#t#s#n.P.P.C.n.gQtQtQt.g.g.m.C.N.N.Y.1.9.9.I.2.1.4##.9.8.9.8.8.8.8.9.9.9.9##.2.2.4.2.I.9#o.I.4.4#c.4.4.4.4#c.4#c#c.4.4.4#c.4.4.4.4.K#x.P.P.C.n.gQtQt",
"QtQtQt.n.C.N.N.L.3.1.1.1.I.I.9.I.8.9.8.9.9.8.8.I##.4.2##.I.9.9.I.1.1.1.1.4#c.4#c#c.4#c.4#c#v#t#w#n#j#q#y#s#s#n#n#n#s.M.C.n.g.gQtQtQtQt.n.C.N.N.L.3.1.1.1.I.I.9.I.8.9.8.9.9.8.8.I##.4.2##.I.9.9.I.1.1.1.1.4#c.4#c#c.4#c.4#c.4#c#c.3.4#c.4#c.4.J.K.L.N.M.C.n.g.gQt",
"QtQtQt.n.C.N.N.Y.K.J.3.4.9.8.8.8.8.8.8.8.8.8.8#o.4.J.J.4.9.8.8.I.1.J.3.3.4#c#c.4.4#c.4#c.4#t#v#w#j#n#y#s#s#s#z#z#z#s.M.C.n.e.g.hQtQtQt.n.C.N.N.Y.K.J.3.4.9.8.8.8.8.8.8.8.8.8.8#o.4.J.J.4.9.8.8.I.1.J.3.3.4#c#c.4.4#c.4#c.4#c.4.4.4#c.4#c#c.4.1.K.L.N.M.C.n.e.g.h",
"QtQt.7.m.C.N.N.L.K.J.J.1.9.8.8.8.9.8.9.8.8.8.8.I.1.J.J.4.I#..8.9.1.4.J.J.4.4.4#c.4#c#c.4#c#q#v#j#j#w#w#n#s#A#B#C#B#z.M.C.n.g.g.hQtQt.7.m.C.N.N.L.K.J.J.1.9.8.8.8.9.8.9.8.8.8.8.I.1.J.J.4.I#..8.9.1.4.J.J.4.4.4#c.4#c#c.4#c.4.4#c.4#c.4.4.4#c.4.K.X.N.M.C.n.g.g.h",
"Qt.7Qt.n.C.N.N.Y.T.1.1.2.I.9#o.I.9.8.8.8.9.I.9.I.2.4.2.2.I.9.9#o.4.J.4.J#c.4#c.4#c.4#c.4.4#q#j#j#j#y#n#D#E#A#C#C#C#z#s.C.o.d.d.dQt.7Qt.n.C.N.N.Y.T.1.1.2.I.9#o.I.9.8.8.8.9.I.9.I.2.4.2.2.I.9.9#o.4.J.4.J#c.4#c.4#c.4#c.4.4#c.4.4.3.4#c.4.4.4.4.E.L.N.M.C.o.d.d.d",
"QtQt.7.m.C.M.M.Y.R.9.9.I.1.1.R.1.I.8.8.I##.1.4.2##.I.9.I.2.4.1.4.4.4.4.4.4.4.4.4.4#c.4.4#c#q#F#t#t#y#n#v#s#z#B#C#C#z#s.E.p.a.a.wQtQt.7.m.C.M.M.Y.R.9.9.I.1.1.R.1.I.8.8.I##.1.4.2##.I.9.I.2.4.1.4.4.4.4.4.4.4.4.4.4#c.4.4#c.4.4#c#c.4.4.4.4.4.4.K.Y.N.N.E.p.a.a.w",
"Qt.6Qt.n.C.O.N.X.1.8.8.9.1.3.J.1.9.8.8.I.4.J.J.2.9.8.8.9.2.J.J.J.4.4.J.4.5.4.J.4#c.4.4#c.4#t#j#B#j#y#n#n#n#z#A#A#A#z#s.F.r.c#G.bQt.6Qt.n.C.O.N.X.1.8.8.9.1.3.J.1.9.8.8.I.4.J.J.2.9.8.8.9.2.J.J.J.4.4.J.4.5.4.J.4#c.4.4#c.4#c#c.4.4.4#c.J.J.4.4.K.Y.N.N.F.r.c#G.b",
"Qt.6.6.n.B.O.O.Y#H.8.8.9.R.3.3.1.I.8.8.9.4.J.J.1.I.8.8.9.A.J#c#c.J.4.4.4.4.4.4.4.4#c.4.4#c#t#F#t#t#w#n#v#s#E#z#A#z#z#s.K.r#G.b.bQt.6.6.n.B.O.O.Y#H.8.8.9.R.3.3.1.I.8.8.9.4.J.J.1.I.8.8.9.A.J#c#c.J.4.4.4.4.4.4.4.4#c.4.4#c.4.4#c#c.4.4.4.4.4.4.K.L.N.N.K.r#G.b.b",
".d.d.d.o.C.N.O.Y.1.9.9.I.1.1.1#I.9.8.8.9.2.1.1.2.I.9.9##.4#c.4.4.4.4.J.4.J.4.J.4#c.4#c#c#n#z#v#B#j#q#n#v#v#s#z#z#z#z#n.E.r.b.b.b.d.d.d.o.C.N.O.Y.1.9.9.I.1.1.1#I.9.8.8.9.2.1.1.2.I.9.9##.4#c.4.4.4.4.J.4.J.4.J.4#c.4#c#c.4#c#c.4.4#c.4.J.4.4.4.K.L.N.N.E.r.b.b.b",
".a.a.a.p.E.M.O.Y.T.1.1.1.I.I.I.9.8.8.8.9.I.9.I.I##.1.4.4.4.4.4#c#p.4.4#c.4.J.4.4#c.4#c.4#n#z#v#v#j#q#t#n#n#s#z#z#z#s#n.F.r.b.b.b.a.a.a.p.E.M.O.Y.T.1.1.1.I.I.I.9.8.8.8.9.I.9.I.I##.1.4.4.4.4.4#c#p.4.4#c.4.J.4.4#c.4#c.4#c.4#c.4#c.4.4#c.4.4.4.K.L.P.P.F.r.b.b.b",
".b.b#G.r#J.N.O.Y#K.3.3.1.I.8.8.9.8.9.8.9.8.8.8.9.4.J.J.4.4.4.J.4#p.4#c.4.4.4.4#c.4#c.4#c#n#z#C#B#v#w#j#n#n#z#A#z#z#s.P.F.r.b.b.b.b.b#G.r#J.N.O.Y#K.3.3.1.I.8.8.9.8.9.8.9.8.8.8.9.4.J.J.4.4.4.J.4#p.4#c.4.4.4.4#c.4#c.4#c.4#c.4#c.4#c#c.4.4.4.4.K.Y.P.P.F.r.b.b.b",
".b.b.b.r#J.N.N.L.K.3.R.1#o.8.8.8.8.8.9.8.8.8.8.I.2.4.4.4.4.4.4.3#p#c.4#c.4.4#c.4.4.4.4#D#s#s#B#F#v#v#w#n#s#A#L#z#z#n.P.F.s.b.b.b.b.b.b.r#J.N.N.L.K.3.R.1#o.8.8.8.8.8.9.8.8.8.8.I.2.4.4.4.4.4.4.3#p#c.4#c.4.4#c.4.4.4.4#c.4#c#c.4.4#c.4#c.4.4.J.K.L.P.P.F.s.b.b.b",
".c.b.b.r#J.N.N.Y.K.R.J.1.I.8.8.8.9.8.8.8.8.9.8.I.4.J.J.4.4.4.4.4#c.4#c.4#c#c.4#c#c.4#c#D#n#F#F#j#j#v#q#q#z#L#L#A#z#n.P.F.q#G.b.b.c.b.b.r#J.N.N.Y.K.R.J.1.I.8.8.8.9.8.8.8.8.9.8.I.4.J.J.4.4.4.4.4#c.4#c.4#c#c.4#c#c.4#c.4#c.4.4.4#c.4#c.4.J.4.4.K.Y.P.P.F.q#G.b.b",
".b.b.b.r.E.N.N.L.K.4.J.1.9.9.8.9.8.9.9.8.8.8.8.9.4#c#c#c.J.4.4.3.4#c.4#c.4.4#p#p.4#c.4#D#E#v#C#B#F#v#q#w#y#A#A#A#s.P.P.F.q.b.b.b.b.b.b.r.E.N.N.L.K.4.J.1.9.9.8.9.8.9.9.8.8.8.8.9.4#c#c#c.J.4.4.3.4#c.4#c.4.4#p#p.4#c.4#c.4.4.4#c.4#c.4#c.4.4.4.K.Y.P.P.F.q.b.b.b",
".c.b#G.r.Q.N.N.Y.K.4.J.2.9.8.8.8.8.8.8.8.9.8.9.9.A#c.4.4.4.3.4.4#c.4#c#p#c.4#p#p#c.4#c#D#E#F#t#t#t#j#q#s#z#y#y#w#q.P.N.F.q.b.b.b.c.b#G.r.Q.N.N.Y.K.4.J.2.9.8.8.8.8.8.8.8.9.8.9.9.A#c.4.4.4.3.4.4#c.4#c#p#c.4#p#p#c.4#c.4.4#c#c.4#c.4.4.4.J.4.4.K.Y.P.N.F.q.b.b.b",
".c#G.b.r.F.N.N.L.K.J.J.4.I.8.8.8.9.8.8.9.8.8.8.I.2.J#c.4#c.4.4.4.4.4#p#p#p#p#p#p.4#c#c#D#M#v#F#B#F#v#w#q#w#z#z#s#n#n.P.F.r.b.b.c.c#G.b.r.F.N.N.L.K.J.J.4.I.8.8.8.9.8.8.9.8.8.8.I.2.J#c.4#c.4.4.4.4.4#p#p#p#p#p#p.4#c#c.4#c.4#c.4#c.4#c.4.4.4.4.K#x.P.P.F.r.b.b.c",
".a.a.a.p.E.N.N.Z.5.2.1.2.9.8.9.8.8.8.8.9.9.9.9##.1.J#c.4#c.4.J.4#c.4#p#p#p#p#p#p.4#c.4#c#D#j#w#t#t#v#w#D#D#w#q#t#t#n.P.C.p.a.a.a.a.a.a.p.E.N.N.Z.5.2.1.2.9.8.9.8.8.8.8.9.9.9.9##.1.J#c.4#c.4.J.4#c.4#p#p#p#p#p#p.4#c.4#c.4#c.4#c.4#c.4#c.4.J.4.K#x.P.P.C.p.a.a.a",
".d.d.e.t.C.M.M.L.1.9.I.9.9.8.8.8.9.8.9.9##.A.1.1.J.J.4.4.4.4.J.4.J.4.4.4#p.4#c.4.4.4#c.4.4#n#j#w#q#v#D#N#D#E#D#D#D#s#n.C.o.d.d.d.d.d.e.t.C.M.M.L.1.9.I.9.9.8.8.8.9.8.9.9##.A.1.1.J.J.4.4.4.4.J.4.J.4.4.4#p.4#c.4.4.4#c.4.4.4.4.4#c.4#c.4.4.4.J.K.L.N.M.C.o.d.d.d",
"Qt.g#O.n.C.O.N.W.2.8.8.8.8.9.8.9.8.8.8.9.4.J.J.J.4.4.4.J.4.J.4.4.4.4.J.4#p#c#p.4#c.4.4#c.4#n#n#j#j#v#D#P#E#M#M#E#D#s#n.C.nQtQtQtQt.g#O.n.C.O.N.W.2.8.8.8.8.9.8.9.8.8.8.9.4.J.J.J.4.4.4.J.4.J.4.4.4.4.J.4#p#c#p.4#c.4.4#c.4.J.4.4#c.4.4#c#p#p.1.K.Y.N.N.C.nQtQtQt",
"Qt.g#O.n.C.O.P.Y.2.8.8.9.8.8.8.9.8.8.8.9##.J.4.J.J.J.4.J.4.4.4.4.4.3.J.J#p#p#p#p.4#c.4.J.4#n#s#n#n#n#q#D#M#N#N#D#z#z#s#n.n.7QtQtQt.g#O.n.C.O.P.Y.2.8.8.9.8.8.8.9.8.8.8.9##.J.4.J.J.J.4.J.4.4.4.4.4.3.J.J#p#p#p#p.4#c.4.J.4.J.4.5.4#c.4.4#p.J.4.K.L.N.O.C.n.7QtQt",
".d.d.e.o.C.O.P.Y.2.8.8.8.9.8.8.8.9.I.9##.4.J.4.J.1.2.A.4.4.4.J.J.4.4.A.4.4#p#p#p.J.4.4.4.4#n#z#s#n#n#q#s#D#D#D#z#z#z#s#n.n.7QtQt.d.d.e.o.C.O.P.Y.2.8.8.8.9.8.8.8.9.I.9##.4.J.4.J.1.2.A.4.4.4.J.J.4.4.A.4.4#p#p#p.J.4.4.4.4.4.4#c#c.4#c.4.4.A.1.5.Y.N.P.B.n.7QtQt",
".w.a.a.p.E.N.N.W.2.9.8.8.8.9.9.9.2.1.4.A.J.4.4.2##.9.9##.4.J.J.4#o#o.I.I.1.J.4.4.4.4.4.4.4#s#A#z#E#n#w#s#A#A#A#z#s#A#z#s#nQtQtQt.w.a.a.p.E.N.N.W.2.9.8.8.8.9.9.9.2.1.4.A.J.4.4.2##.9.9##.4.J.J.4#o#o.I.I.1.J.4.4.4.4.4.4.4.4.J.4.J.4.J.R.I.I.I.1.Y.N.M.C.nQtQtQt",
".b.b#G.r#J.M.M.W.2.8.8.9.8.8.8.9.4.J.4.4.J.J.J.1.9.8.8.9.2.J.J.2#o.8.8.I.1.J.J.4.4.J.4.J.4#s#A#A#s#n#w#z#A#L#A#A#s#z#A#z#n#nQtQt.b.b#G.r#J.M.M.W.2.8.8.9.8.8.8.9.4.J.4.4.J.J.J.1.9.8.8.9.2.J.J.2#o.8.8.I.1.J.J.4.4.J.4.J.4.J.4.4.4.J.J.1.I.8.8.1.X.N.O.C.nQtQtQt",
".c.b#G.r.F.P.M.X.2.9.8.8.8.9#..9.2.J.4.J.J.J.J.4.9#..9.9.A.J.J.R.8.8.8.9.A.J.4#c.4#c.4#c.4#s#z#A#s#s#y#z#A#L#A#A#z#z#A#A#s#n#nQt.c.b#G.r.F.P.M.X.2.9.8.8.8.9#..9.2.J.4.J.J.J.J.4.9#..9.9.A.J.J.R.8.8.8.9.A.J.4#c.4#c.4#c.4.4.4.4.4.J.J.1.I.8.8.1.X.N.N.C.m.g.6Qt",
".b.b.b.r.F.N.N.X.2.8.8.9.9.9.9##.4.J.4.4.4.2.4##.I.9.9##.2.R.2.2.I.I#o.I.4#c#c.4.4.4#c.4.4#s#s#z#s#s#y#z#A#L#L#A#A#z#z#A#z#E#n#v.b.b.b.r.F.N.N.X.2.8.8.9.9.9.9##.4.J.4.4.4.2.4##.I.9.9##.2.R.2.2.I.I#o.I.4#c#c.4.4.4#c.4.4.4.4.4.1.1.1.I.8.r.q##.X.N.N.B.n.g.gQt",
".b.b.b.q.F.P.P.Z.2.9.8.9.2.2.4.2.4.4.J.4##.9.9.I##.1.4.2.I.9.9##.1.1.1.4.4.4.4#c#c.4#c.4#E#M#Q#z#z#n#y#z#A#L#L#A#A#z#s#z#z#z#n#v.b.b.b.q.F.P.P.Z.2.9.8.9.2.2.4.2.4.4.J.4##.9.9.I##.1.4.2.I.9.9##.1.1.1.4.4.4.4#c#c.4#c.4#c.4.J.4##.I.I#..H#R#R#..F.M.M.C.oQtQtQt",
".b.b.b.q.F.N.P.Z.2.8.8.9.4.4.J.4.4.4.J.2.9#..8.9.4.4.J.2.I.8.8.9.1.J.J.4.4.4.J.4.4#c.4.4#E#P#M#P#n#M#w#w#A#L#L#L#A#A#s#s#z#z#j#v.b.b.b.q.F.N.P.Z.2.8.8.9.4.4.J.4.4.4.J.2.9#..8.9.4.4.J.2.I.8.8.9.1.J.J.4.4.4.J.4.4#c.4.4#c#p.J.1#o.8.8#S#R.b.b.s.F.N.M.C.n.hQtQt",
".b.b.b.q.F.P.P.Z.2.8#..9.2.J.J.4.J.4.J.4.9.8.8.9.4.J.J.4.9.8#..9.1.J.4.4.4.4.4.4#c.4#c#c#M#Q#P#N#E#n#n#y#A#A#L#L#L#A#z#s#s#j#j#v.b.b.b.q.F.P.P.Z.2.8#..9.2.J.J.4.J.4.J.4.9.8.8.9.4.J.J.4.9.8#..9.1.J.4.4.4.4.4.4#c.4#c#c#c.J.J.4.I.8.8#.#R.b.b.q.F.N.N.C.m.7.6Qt",
".a.a.a.t.F.P.P.Y.4.9.9##.4.J.J.J.A.4.2.2##.9.9####.4.2.2.I.9.9.I.J.J.J.4.J.4.J.4.4#c.4.4#E#P#N#E#E#M#M#y#z#A#A#A#A#z#z#s#j#j#j#v.a.a.a.t.F.P.P.Y.4.9.9##.4.J.J.J.A.4.2.2##.9.9####.4.2.2.I.9.9.I.J.J.J.4.J.4.J.4.4#c.4.4.4.A.1##.I.8.8#T#R.b.b.q.F.N.M.C.n.7QtQt",
".d.d.e.t.C.M.N.Y.T.2.2.4.4.4.4.4.I.9.9.I##.1.4##.I.I.9.I.2.4.1.4.4.4#c.4.4.4.4.4.J#U#U#U#E#M#E#D#M#n#n#y#w#w#w#w#w#q#t#j#j#E#jQt.d.d.e.t.C.M.N.Y.T.2.2.4.4.4.4.4.I.9.9.I##.1.4##.I.I.9.I.2.4.1.4.4.4#c.4.4.4.4.4.J.4.J.J.I.I.I.I.8.9.8#.#R.b.b.p.F.M.M.E.n.g.gQt",
"Qt.g#O.n.C.M.N.L.K.J.4.J.4.J.J.2.I.8.8.I.1.J.4.4.9#..8.9.2.J.J.J#c#c.4#c#c#U#U#U#U#U#U#U#U#E#D#s#n#s#E#y#q#q#q#q#t#t#j#j#j#j#v#U#U.g#O.n.C.M.N.L.K.J.4.J.4.J.J.2.I.8.8.I.1.J.4.4.9#..8.9.2.J.J.J#c#c.4#c#c.J.4.4.4.4.J.1.9.8.8.8.8.8.8#T#R.b.b.s.F.M.M.C.n.gQtQt",
"Qt.g#O.n.C.P.P.Y.K.J.J.4.J.J.J.4.9.8.8.9.1.J.J.1.I.8.8.9.A.J#c#c.4.4#c#U#U#U#U#U#U#U#U#U#U#U#E#M#E#E#E#y#q#q#q#q#t#t#j#j#j#v#U#U#U#U#U.n.C.P.P.Y.K.J.J.4.J.J.J.4.9.8.8.9.1.J.J.1.I.8.8.9.A.J#c#c.4.4#c.4.4#c.4.J.4.J.J.1.I.8.8.8.8.8.8#V#W.b.b.p.F.M.M.C.n.g.gQt",
".d.d.e.o.C.P.P.L.K.R.1.J.1.1.A##.I.8.8.I.1.J.J.4.I.9.9##.4#c.4.4.4#c#U#U#U#U#U#U#U#U#U#U#U#U#P#N#M#E#n#w#q#q#q#t#t#j#j#v#v#U#U#U#U#U#U#U.C.P.P.L.K.R.1.J.1.1.A##.I.8.8.I.1.J.J.4.I.9.9##.4#c.4.4.4#c.4.4#c.4.4.4.1.A.1.2.9.8.8.8.I.I.I.8.s#R#R#..F.M.N.E.o.d.d.d",
".w.a#X.p.F.N.P.L.K.4.J.1##.I.9.9.9.8.8.I.1.J.J.1.1.1.4.4.4.4.4#c#c#U#U#U#U#U#U#U#U#U#U#U#U#N#E#M#E#s#n#v#v#v#v#v#v#D#n#U#U#U#U#U#U#U#U#U#U.N.P.L.K.4.J.1##.I.9.9.9.8.8.I.1.J.J.1.1.1.4.4.4.4.4#c#c.4#c.4.4.J.4.4#I.9.9.9.9.8.8.I#I.1.4###..q#T.I.X.N.N.E.p.a.a.a",
".b.b#G.r.F.N.P.L.K.4.J.4.9.8.8.8.8.8.8.I.4.4.J.4.J.J#c.4.4.4.4#c#U#U#U#U#U#U#U#U#U#U#U#E#E#N#P#N#M#E#n#E#D#D#D#D#D#D#D#U#U#U#U#U#U#U#U#U#U#U.P.L.K.4.J.4.9.8.8.8.8.8.8.I.4.4.J.4.J.J#c.4.4.4.4#c#c.4#c#c.4.J.J.2.I.8.8.8.8.8.8.I.1.J.J.1.I.8.8.1.X.N.N.F.r.b.c.c",
".c.c#G.r.F.P.P#x.K.4.J.1.9.8.8.9.8.8.8#o.V.J.4.J.J.4.J.J.4.4.4.4#U#U#U#U#U#U#U#U#U#U#M#E#E#E#E#E#M#E#n#E#E#E#E#D#D#D#n#U#U#U#U#U#U#U#U#U#U#U.P#x.K.4.J.1.9.8.8.9.8.8.8#o.V.J.4.J.J.4.J.J.4.4.4.4.J.J.4#c.J.J.J.1.I.8.8.8.8.8.8.I.1.J.J.4.I.8.8.1.X.N.N.F.r#G#G.c",
".a.a.a.p.K.L.L.F.3.2.1.2.9.9.8.8.9.9.I##.1.4.J.R.4.4.4.4.4.4#c.4#U#U#U#U#U#U#U#U#U#U#M#P#N#N#M#M#j#E#n#E#D#D#D#D#n#U#U#U#U#U#U#U#U#U#U#U#U#U.L.F.3.2.1.2.9.9.8.8.9.9.I##.1.4.J.R.4.4.4.4.4.4#c.4.1.1.A.4.R.1.1.2.I.8.8.9.9.9.I.I.1.R.1##.8#T#T.I#J.L.L.5#Y.a.a.w",
".#.d.e#Z.A.K.K.J.2.I.9.9.9.9.8.9.2.1.R.1.J.J.J.J.4.4.4.4.4.J.J.R#U#U#U#U#U#U#U#U#U#U#M#M#N#n#v#E#E#E#v#n#D#n#n#U#U#U#U#U#U#U#U#U#U#U#U#U#U#U.K.J.2.I.9.9.9.9.8.9.2.1.R.1.J.J.J.J.4.4.4.4.4.J.J.R##.9.I.I.9.I.I.9.8.8.9.9#I.R.1.2.I.I.I#..H#R#0.r.1#J#J.V#Z#1.d.d",
".e.g.g.m#2.J.J.4.9.9.8.9.8.8.9.9.1.J.J.J.J.J.J.R.J.J.J.J.J.J.J.1.I#U#U#U#U#U#U#U#U#U#E#E#E#v#n#n#n#n#n#U#U#U#U#U#U#U#U#U#U#U#U#U#U#U#U#U#U.J.J.4.9.9.8.9.8.8.9.9.1.J.J.J.J.J.J.R.J.J.J.J.J.J.J.1.I.8.8.8.8.8.8.8.9.8.8.I.R.R.J.R.I.8.8#V#0.b#G#3.I.J.R.z.m.6QtQt",
".e.e.e.m#4.J.J.2.9.9.8.8.8.9.8.9.R.J.J.J.4.J.J.J.J.J.J.J.4.J.J.1.9.8#U#U#U#U#U#U#U#U#U#U#U#U#U#U#U#U#U#U#U#U#U#U#U#U#U#U#U#U#U#U#U#U#U#U#4.J.J.2.9.9.8.8.8.9.8.9.R.J.J.J.4.J.J.J.J.J.J.J.4.J.J.1.9.8.8.9.8.9.9.8.9.8.8.I.R.J.J.1.9.9.8#.#0.b.b#3.I.3.3.z.m.6QtQt",
".e.f.d#5.y##.9.9.y.p.q#6#T.8#S#S.y#2#4.z.z.I#o.z.z#4.z.z.I.z.I.9#.#S#S#U#U#U#U#U#U#U#U#U#U#U#U#U#U#U#U#U#U#U#U#U#U#U#U#U#U#U#U#U#U#U#U#5.y##.9.9.y.p.q#6#T.8#S#S.y#2#4.z.z.I#o.z.z#4.z.z.I.z.I.9#.#S#S#S#T#T#T#T#T#T#T#..9#4#2.y.y.q#7#Y#R.a.a.U#8.I.V.y#9.6QtQt",
".w.a.a.wa..H.H.Ua#aa#5ab#Ra.a..x#Z.m.l#Z.U.H.H.U#Z.m.m.l.U#W.s.U#W#W#W#W#W#U#U#U#U#U#U#U#U#U#U#U#U#U#U#U#U#U#U#U#U#U#U#U#U#U#U#U#U.a.a.wa..H.H.Ua#aa#5ab#Ra.a..x#Z.m.l#Z.U.H.H.U#Z.m.m.l.U#W.s.U#W#W#W#W#W#W#W#W#W#W#W.x#Z.m.m.l.l#5#5.k.k.d.d.#.x.H.s.x.fQtQtQt",
".b.c.c.c.b.b.b#X.e.e.e.e.a.b.c.a.dQt#O#1.a.b.b.a.d#O.g.d.a.b.b.b.c.c.w.b.c.b.b.c.b#U#U#U#U#U#U#U#U#U#U#U#U#U#U#U#U#U#U#U#UQtQtQt.b.c.c.c.b.b.b#X.e.e.e.e.a.b.c.a.dQt#O#1.a.b.b.a.d#O.g.d.a.b.b.b.c.c.w.b.c.b.b.c.b.b.c.a.d.g.g.g.gQtQtQt.h.h.h.d.a.b.b.a.dQtQtQt",
".c.c.c.c.b.c.b.w.#.e.e.f.a.c.c.a.dQtQt.d.a#G.b.a.d.hQt.d.a.c.b.b.b.c.b.b.b.b.c.b.b.b.b.a.d.g.gQtQtQtQtQtQt.h.h.d.a.c.b.a.d.h.hQt.c.c.c.c.b.c.b.w.#.e.e.f.a.c.c.a.dQtQt.d.a#G.b.a.d.hQt.d.a.c.b.b.b.c.b.b.b.b.c.b.b.b.b.a.d.g.gQtQtQtQtQtQt.h.h.d.a.c.b.a.d.h.hQt",
".b.b.c.b.b.c.b.w.e.e.g.e.w.c.c.a.dQtQt.d.a.c.b.a.d.hQt.d.a.c.c.c.c.b.c.b.c.c.b.c.c.b.b.w.dQtQtQtQtQtQtQtQtQt.h.d.a.c.c.a.dQtQtQt.b.b.c.b.b.c.b.w.e.e.g.e.w.c.c.a.dQtQt.d.a.c.b.a.d.hQt.d.a.c.c.c.c.b.c.b.c.c.b.c.c.b.b.w.dQtQtQtQtQtQtQtQtQt.h.d.a.c.c.a.dQtQtQt"};
