/* XPM */
static char *dummy[]={
"128 64 130 2",
"#S c #000000",
"#n c #000003",
"#K c #00070c",
"#u c #07050d",
"#r c #141d32",
"#h c #1baba8",
"#d c #1c0000",
"#y c #1e232c",
"#e c #25424b",
"#j c #2b2c38",
"#z c #303a55",
".7 c #383f4a",
".g c #383f4b",
"#O c #383f4c",
".6 c #38404c",
".e c #393f4b",
"Qt c #3a404b",
".h c #3a404c",
"#Z c #3d4046",
".d c #3d4047",
".f c #3f4148",
"#N c #3f4449",
".k c #404248",
"#7 c #424349",
".# c #434245",
"a. c #43434a",
"#3 c #44434a",
".l c #44444b",
"#V c #46413d",
".a c #46413e",
".u c #474242",
"#9 c #474548",
".m c #47464d",
"#X c #494649",
"#E c #4a4138",
".b c #4a423a",
".w c #4a433e",
"a# c #4b4440",
".n c #4b4951",
"#C c #4b5e7f",
".c c #4c423a",
".o c #4d484c",
".x c #4e4541",
"#k c #4f211e",
"#P c #4f443c",
"#s c #4f5463",
"#Y c #50443c",
"#U c #50453d",
"#8 c #51453d",
".U c #514743",
".v c #52300c",
"#1 c #53463f",
".H c #54473f",
"#W c #544845",
".p c #544946",
".s c #554840",
".t c #554a47",
".r c #584a43",
".q c #584a44",
"#5 c #584a47",
".G c #584d4d",
".y c #5a4d4b",
"#q c #5b0a00",
"#Q c #5b4b44",
"#4 c #5b4c48",
"#R c #5c4b43",
"#T c #5d4b43",
"#. c #5e4d45",
"#6 c #5e4d48",
"#2 c #5f4f4d",
".8 c #614d45",
".z c #61514f",
"#o c #635049",
".9 c #644f48",
"#0 c #645352",
".A c #655451",
".I c #66514a",
"## c #67524b",
".V c #67544f",
"#D c #684700",
"#G c #68524b",
".2 c #68534c",
"#F c #69534d",
".1 c #69544d",
".R c #6c564f",
".4 c #6c5650",
".B c #6c5959",
"#L c #6c7273",
"#p c #6d5650",
"#c c #6e5651",
".3 c #6e5751",
".J c #6f5750",
".5 c #6f5a56",
".S c #705853",
".D c #705c5c",
".C c #705c5d",
"#J c #708ea7",
".E c #715c5b",
".K c #725a55",
"#I c #735a54",
".Q c #745b56",
".F c #745d59",
"#H c #755c57",
"#v c #757c87",
".W c #785e5a",
".Z c #7a5f5b",
".X c #7a605b",
".Y c #7a605c",
"#a c #7c615d",
"#t c #7d625e",
".L c #7e625e",
".P c #826663",
".N c #836663",
".O c #836764",
".M c #846763",
"#m c #8b4435",
".j c #946230",
"#M c #99a09e",
"#B c #9e7b10",
"#x c #b1b5be",
"#f c #b5bfce",
"#l c #c26552",
".i c #d1a049",
"#A c #dfba18",
".T c #f0e883",
"#i c #f2ffff",
"#w c #f4fffe",
"#b c #fd9370",
"#g c #ffe5ba",
".0 c #fffffa",
"QtQtQtQtQtQtQtQtQtQtQtQtQtQtQtQtQtQtQt.#.a.b.b.b.b.b.b.c.b.b.b.b.b.b.b.a.d.e.f.g.f.e.h.hQtQt.f.gQt.f.e.h.f.gQtQtQtQt.f.d.a.c.c.bQtQtQtQtQtQtQtQtQtQtQtQtQtQtQtQtQtQtQt.#.a.b.b.b.b.b.b.c.b.b.b.b.b.b.b.a.d.e.f.g.f.e.h.hQtQt.f.gQt.f.e.h.f.gQtQtQtQt.f.d.a.c.c.b",
"QtQtQtQtQtQtQt.gQt.gQt.g.gQt.g.g.g.g.g.d.a.b.b.b.b.b.b.b.b.b.b.b.b.b.b.a.e.e.g.g.g.g.e.gQt.g.g.g.g.g.e.e.g.g.g.g.gQt.g.d.a.c.c.cQtQtQtQtQtQtQt.gQt.gQt.g.gQt.g.g.g.g.g.d.a.b.b.b.b.b.b.b.b.b.b.b.b.b.b.a.e.e.g.g.g.g.e.gQt.g.g.g.g.g.e.e.g.g.g.g.gQt.g.d.a.c.c.c",
".h.hQtQtQt.g.gQt.gQtQt.g.g.g.g.g.g.g.g.d.a.b.b.b.b.b.b.b.b.b.b.b.b.b.b.a.e.g.g.g.g.g.g.g.g.g.g.g.g.g.e.e.g.g.g.g.g.g.g.d.a.c.i.j.h.hQtQtQt.g.gQt.gQtQt.g.g.g.g.g.g.g.g.d.a.b.b.b.b.b.b.b.b.b.b.b.b.b.b.a.e.g.g.g.g.g.g.g.g.g.g.g.g.g.e.e.g.g.g.g.g.g.g.d.a.c.c.c",
".d.d.d.k.l.l.m.m.m.n.n.n.o.n.n.o.n.n.n.o.p.q.r.q.q.q.s.r.q.q.q.q.q.q.r.p.t.n.n.n.n.n.n.n.n.n.n.n.n.n.n.n.n.n.n.n.m.m.m.l.u.v.i.j.j.j.j.k.l.l.m.m.m.n.n.n.o.n.n.o.n.n.n.o.p.q.r.q.q.q.s.r.q.q.q.q.q.q.r.p.t.n.n.n.n.n.n.n.n.n.n.n.n.n.n.n.n.n.n.n.m.m.m.l.u.a.w.a",
".w.a.a.x.y.z.z.A.B.C.C.C.B.C.C.C.C.D.D.E.E.F.F.F.F.F.F.F.F.F.F.F.F.F.F.F.C.D.D.D.B.C.C.C.C.C.C.B.D.D.C.C.C.C.C.B.A.z.z.v.j.v.v.i.j.j.j.i.j.z.z.A.B.C.C.C.B.C.C.C.C.D.D.E.E.F.F.F.F.F.F.F.F.F.F.F.F.F.F.F.C.D.D.D.B.C.C.C.C.C.C.B.D.D.C.C.C.C.C.B.A.z.z.G.l.d.d.d",
".c.b.b.H.I.J.J.K.L.M.M.N.O.O.O.O.N.M.N.N.M.P.P.P.P.P.O.P.P.P.P.P.P.P.P.O.M.M.N.M.N.N.O.P.M.O.O.N.N.N.N.M.N.M.O.L.Q.J.v.v.j.j.i.j.j.i.i.i.j.j.J.K.L.M.M.N.O.O.O.O.N.M.N.N.M.P.P.P.P.P.O.P.P.P.P.P.P.P.P.O.M.M.N.M.N.N.O.P.M.O.O.N.N.N.N.M.N.M.O.L.Q.J.J.z.m.gQtQt",
".c.c.b.H.I.J.R.K.L.M.N.N.N.N.M.M.O.N.N.N.N.N.P.P.P.P.P.P.P.P.P.P.P.P.P.P.N.N.N.N.N.N.N.N.N.N.N.N.N.P.P.N.N.N.N.L.S.R.v.j.i.T.i.i.i.T.i.T.i.j.j.K.L.M.N.N.N.N.M.M.O.N.N.N.N.N.P.P.P.P.P.P.P.P.P.P.P.P.P.P.N.N.N.N.N.N.N.N.N.N.N.N.N.P.P.N.N.N.N.L.S.R.R.z.mQtQt.h",
".a.a.a.U.V.K.K.Q.W.X.X.X.X.X.X.X.Y.Z.W.Z.Y.L.Y.L.Z.Z.Z.Z.Z.Z.Z.Z.Z.Z.Z.Z.Z.L.Z.L.L.Y.L.Y.L.L.L.Y.Z.Z.Z.Y.L.L.Y.W.Q.j.i.0.T.T.i.T.i.T.T.i.T.T.j.Q.W.X.X.X.X.X.X.X.Y.Z.W.Z.Y.L.Y.L.Z.Z.Z.Z.Z.Z.Z.Z.Z.Z.Z.Z.Z.L.Z.L.L.Y.L.Y.L.L.L.Y.Z.Z.Z.Y.L.L.Y.W.Q.Q.K.A.m.g.gQt",
".d.d.d.o.B.L.L.W.J.1.1.1.1.1.1.1.2.2.1.J.3.K.K.S.4.2.2.2.2.2.2.2.2.2.1.J.K.K.K.K.K.K.K.K.K.K.K.5.4.2.2.4.J.K.K.K.Z.j.0.T.i.T.i.T.T.i.T.i.i.T.i.v.J.1.1.1.1.1.1.1.2.2.1.J.3.K.K.S.4.2.2.2.2.2.2.2.2.2.1.J.K.K.K.K.K.K.K.K.K.K.K.5.4.2.2.4.J.K.K.K.Z.P.L.B.m.g.g.f",
"Qt.6.7.n.C.M.N.X.2.8.8.8.8.8.8.8.8.8.8.9.2.J.J.A.9.8.9.8.9.8.9.8.8.8.8.9.A.4.J.1.J.4.4.4.4.4.4.2.9.8.8.9.2.4.J.K.i.T.i.i.0.T.j.i.0.T.j.i.j.j.i.v.2.8.8.8.8.8.8.8.8.8.8.9.2.J.J.A.9.8.9.8.9.8.9.8.8.8.8.9.A.4.J.1.J.4.4.4.4.4.4.2.9.8.8.9.2.4.J.K.Z.P.N.E.n.g.e.e",
"QtQt.7.n.C.M.N.X.1.8.8.8.8.8.8.8.8.8#..9.4.J.4.2.9.8#..8.8.8.8.8.8.8.8.9##.J.4.4.4.4.4.4.4.4.J.A.9.8#..9.4.4.1.K.i.i.j.0.T.j.v.j.T.0.j.i.i.v.j.i.j.8.8.8.8.8.8.8.8.8#..9.4.J.4.2.9.8#..8.8.8.8.8.8.8.8.9##.J.4.4.4.4.4.4.4.4.J.A.9.8#..9.4.4.1.K#a.N.M.E.n.e.e.e",
"Qt.7Qt.n.E.M.N.X.1.8.8.8.9.8.8.9.9.I.9.I##.4.4##.9.8.9.8.8.9.8.9.9.9.9.I.4.4.J.4.4.4.J.4.4.4.J.4.I.9.9.I.4.4.J.5.L.v.v.0.i.v#b.j.i.T.i.j.i.j.v.v.j.8.8.8.9.8.8.9.9.I.9.I##.4.4##.9.8.9.8.8.9.8.9.9.9.9.I.4.4.J.4.4.4.J.4.4.4.J.4.I.9.9.I.4.4.J.5.L.M.N.E.n.e.e.h",
"Qt.7.7.n.C.N.N.X.1.8.8.9.8.8.8.I##.2.4##.I.I.9.9.9.9.8.8.8.9.8.9.2.4.A.1.J.J.J.4.4.J.4.4#c.4.4.4.1.2.4.4.4.4.4.K.L.N.v.T.j#b#d#d.v.i.i.v.j.v.j.j.j.8.8.9.8.8.8.I##.2.4##.I.I.9.9.9.9.8.8.8.9.8.9.2.4.A.1.J.J.J.4.4.J.4.4#c.4.4.4.1.2.4.4.4.4.4.K.L.N.O.C.n.g.gQt",
"QtQt.7.n.C.M.N.X.1.8.8.8.8.9.8.I.4.J.J.4.9.8.8.9.8.8.8.9.8.8.8.9.2.J.J.4.4.J.4.4.4.4.J.4.4#c#c.4.J.J.4.4.J.4.4.K.Y.N.v.i.v#d#e#f.v.i.j#b.j.v.v.v.j.8.8.8.8.9.8.I.4.J.J.4.9.8.8.9.8.8.8.9.8.8.8.9.2.J.J.4.4.J.4.4.4.4.J.4.4#c#c.4.J.J.4.4.J.4.4.K.Y.N.O.C.n.g.gQt",
"Qt.7.7.n.C.N.N.Y.1.8.8.8.8.8.8.I.4.J.J.1.I.8.8.8.8.8.8.8.8.9.8.9.4.J.J.4.J.4.4.4.4.4.4.4.4#c.4#c.4.4.J.4.4.4.J.K.L.N.O.v#b#g#h#i#b.j.v#b.j.v.v.Y.1.8.8.8.8.8.8.I.4.J.J.1.I.8.8.8.8.8.8.8.8.9.8.9.4.J.J.4.J.4.4.4.4.4.4.4.4#c.4#c.4.4.J.4.4.4.J.K.L.N.O.C.n.e.g.f",
"QtQt.7.n.C.N.N.Y.1.8.8.8.9.I.9.I.2.2.4.2.9.8.8.9.8.9.8.9.9.I.9##.2.2.4.4.4.4.4.J.J.4.J.4#c.4#c.4.4.J.4.4.4.J.4.K.Y.N#j#k#g#g#g#l#g.v#m#m.v.v#n.Y.1.8.8.8.9.I.9.I.2.2.4.2.9.8.8.9.8.9.8.9.9.I.9##.2.2.4.4.4.4.4.J.J.4.J.4#c.4#c.4.4.J.4.4.4.J.4.K.Y.N.O.B.n.e.e.e",
"Qt.gQt.o.B.O.O.Y.1.8.8.9##.1.4##.I#o.9.9.9.8.9.8#..8.9.9##.4.4##.I.I.I.I.A#p.4#c.4#c.4#c#c.4.4#c.J.4.3.4.4.4.4.K.Y.P#j#k#l#g#g#g#m#l#m.v.v#n#n.Y.1.8.8.9##.1.4##.I#o.9.9.9.8.9.8#..8.9.9##.4.4##.I.I.I.I.A#p.4#c.4#c.4#c#c.4.4#c.J.4.3.4.4.4.4.K.Y.P.O.C.n.g.gQt",
"QtQtQt.n.C.O.N.Y.1.8.8.I.1.J.J.1.I.8.9.8.8.8.9.8.9.8.8.9.2.J.J.2.9.8#..I.4#p#p.4#c.4#c.4.4.4#c.4.4.4.4#c.4.4.4.K.L.P#j#q#k#l#b#b#l#m.v#n#n#r#n.Y.1.8.8.I.1.J.J.1.I.8.9.8.8.8.9.8.9.8.8.9.2.J.J.2.9.8#..I.4#p#p.4#c.4#c.4.4.4#c.4.4.4.4#c.4.4.4.K.L.P.P.C.n.gQtQt",
"Qt.g.g.n.C.N.N.Y.1.8.8.I.4.J.J.4.9.8.8.8.8.9.8.8.9.8.8.9.4.3.3.4.9.8.8#o.1.3.4#c.4#c#c.4#c.4.4#c.4#c.4.3.J.4.4.K.Y.P#s#q#j#k#m#m#k#n#n#r#s#r#n.Y.1.8.8.I.4.J.J.4.9.8.8.8.8.9.8.8.9.8.8.9.4.3.3.4.9.8.8#o.1.3.4#c.4#c#c.4#c.4.4#c.4#c.4.3.J.4.4.K.Y.P.P.C.o.g.gQt",
"Qt.g.g.m.C.N.N.Y.1.9.9.I.2.1.4##.9.8.9.8.8.8.8.9.9.9.9##.2.2.4.2.I.9#o.I.4.4#c.4.4.4.4#c.4#c#c.4.4.4#c.4.4.4.4.K#t.P#u#q#v#n#j#v#w#x#v#s#y#r.N.Y.1.9.9.I.2.1.4##.9.8.9.8.8.8.8.9.9.9.9##.2.2.4.2.I.9#o.I.4.4#c.4.4.4.4#c.4#c#c.4.4.4#c.4.4.4.4.K#t.P.P.C.n.gQtQt",
"QtQtQt.n.C.N.N.L.3.1.1.1.I.I.9.I.8.9.8.9.9.8.8.I##.4.2##.I.9.9.I.1.1.1.1.4#c.4#c#c.4#c.4#c.4#c#c.3.4#c.4#c.4.J.K.L.N#u#s#x#n#v#w#r#r#r#r#r#n.N.L.3.1.1.1.I.I.9.I.8.9.8.9.9.8.8.I##.4.2##.I.9.9.I.1.1.1.1.4#c.4#c#c.4#c.4#c.4#c#c.3.4#c.4#c.4.J.K.L.N.M.C.n.g.gQt",
"QtQtQt.n.C.N.N.Y.K.J.3.4.9.8.8.8.8.8.8.8.8.8.8#o.4.J.J.4.9.8.8.I.1.J.3.3.4#c#c.4.4#c.4#c.4#c.4.4.4#c.4#c#c.4.1.K.L.N#j#u#x#j#w#r#r#z#z#z#r#n.N.Y.K.J.3.4.9.8.8.8.8.8.8.8.8.8.8#o.4.J.J.4.9.8.8.I.1.J.3.3.4#c#c.4.4#c.4#c.4#c.4.4.4#c.4#c#c.4.1.K.L.N.M.C.n.e.g.h",
"QtQt.7.m.C.N.N.L.K.J.J.1.9.8.8.8.9.8.9.8.8.8.8.I.1.J.J.4.I#..8.9.1.4.J.J.4.4.4#c.4#c#c.4#c.4.4#c.4#c.4.4.4#c.4.K.X.N#s#u#j#j#w#n#z#z#A#B#r#n.N.L.K.J.J.1.9.8.8.8.9.8.9.8.8.8.8.I.1.J.J.4.I#..8.9.1.4.J.J.4.4.4#c.4#c#c.4#c.4.4#c.4#c.4.4.4#c.4.K.X.N.M.C.n.g.g.h",
"Qt.7Qt.n.C.N.N.Y.S.1.1.2.I.9#o.I.9.8.8.8.9.I.9.I.2.4.2.2.I.9.9#o.4.J.4.J#c.4#c.4#c.4#c.4.4#c.4.4.3.4#c.4.4.4.4.E.L.N#v#j#j#j#w#r#C#B#A#A#z#n.N.Y.S.1.1.2.I.9#o.I.9.8.8.8.9.I.9.I.2.4.2.2.I.9.9#o.4.J.4.J#c.4#c.4#c.4#c.4.4#c.4.4.3.4#c.4.4.4.4.E.L.N.M.C.o.d.d.d",
"QtQt.7.m.C.M.M.Y.R.9.9.I.1.1.R.1.I.8.8.I##.1.4.2##.I.9.I.2.4.1.4.4.4.4.4.4.4.4.4.4#c.4.4#c.4.4#c#c.4.4.4.4.4.4.K.Y.N#s#D#s#s#x#z#C#A#A#B#r#n.M.Y.R.9.9.I.1.1.R.1.I.8.8.I##.1.4.2##.I.9.I.2.4.1.4.4.4.4.4.4.4.4.4.4#c.4.4#c.4.4#c#c.4.4.4.4.4.4.K.Y.N.N.E.p.a.a.w",
"Qt.6Qt.n.C.O.N.X.1.8.8.9.1.3.J.1.9.8.8.I.4.J.J.2.9.8.8.9.2.J.J.J.4.4.J.4.5.4.J.4#c.4.4#c.4#c#c.4.4.4#c.J.J.4.4.K.Y.N#s#j#D#j#x#z#C#C#C#z#r.O.N.X.1.8.8.9.1.3.J.1.9.8.8.I.4.J.J.2.9.8.8.9.2.J.J.J.4.4.J.4.5.4.J.4#c.4.4#c.4#c#c.4.4.4#c.J.J.4.4.K.Y.N.N.F.r.c#E.b",
"Qt.6.6.n.B.O.O.Y#F.8.8.9.R.3.3.1.I.8.8.9.4.J.J.1.I.8.8.9.A.J#c#c.J.4.4.4.4.4.4.4.4#c.4.4#c.4.4#c#c.4.4.4.4.4.4.K.L.N#j#D#s#s#v#r#z#C#z#z#n#n.O.Y#F.8.8.9.R.3.3.1.I.8.8.9.4.J.J.1.I.8.8.9.A.J#c#c.J.4.4.4.4.4.4.4.4#c.4.4#c.4.4#c#c.4.4.4.4.4.4.K.L.N.N.K.r#E.b.b",
".d.d.d.o.C.N.O.Y.1.9.9.I.1.1.1#G.9.8.8.9.2.1.1.2.I.9.9##.4#c.4.4.4.4.J.4.J.4.J.4#c.4#c#c.4#c#c.4.4#c.4.J.4.4.4.K.L.N.N#u#D#j#v#r#z#z#z#r#u#n.O.Y.1.9.9.I.1.1.1#G.9.8.8.9.2.1.1.2.I.9.9##.4#c.4.4.4.4.J.4.J.4.J.4#c.4#c#c.4#c#c.4.4#c.4.J.4.4.4.K.L.N.N.E.r.b.b.b",
".a.a.a.p.E.M.O.Y.S.1.1.1.I.I.I.9.8.8.8.9.I.9.I.I##.1.4.4.4.4.4#c#p.4.4#c.4.J.4.4#c.4#c.4#c.4#c.4#c.4.4#c.4.4.4.K.L.P.P#u#u#j#r#z#C#z#z#r#n#n.O.Y.S.1.1.1.I.I.I.9.8.8.8.9.I.9.I.I##.1.4.4.4.4.4#c#p.4.4#c.4.J.4.4#c.4#c.4#c.4#c.4#c.4.4#c.4.4.4.K.L.P.P.F.r.b.b.b",
".b.b#E.r#H.N.O.Y#I.3.3.1.I.8.8.9.8.9.8.9.8.8.8.9.4.J.J.4.4.4.J.4#p.4#c.4.4.4.4#c.4#c.4#c.4#c.4#c.4#c#c.4.4.4.4.K.Y.P.P#B#D#u#r#C#J#z#z#n#n#n.O.Y#I.3.3.1.I.8.8.9.8.9.8.9.8.8.8.9.4.J.J.4.4.4.J.4#p.4#c.4.4.4.4#c.4#c.4#c.4#c.4#c.4#c#c.4.4.4.4.K.Y.P.P.F.r.b.b.b",
".b.b.b.r#H.N.N.L.K.3.R.1#o.8.8.8.8.8.9.8.8.8.8.I.2.4.4.4.4.4.4.3#p#c.4#c.4.4#c.4.4.4.4#c.4#c#c.4.4#c.4#c.4.4.J.K.L.P#D#B#D#v#z#J#J#C#r#n#s#n.N.L.K.3.R.1#o.8.8.8.8.8.9.8.8.8.8.I.2.4.4.4.4.4.4.3#p#c.4#c.4.4#c.4.4.4.4#c.4#c#c.4.4#c.4#c.4.4.J.K.L.P.P.F.s.b.b.b",
".c.b.b.r#H.N.N.Y.K.R.J.1.I.8.8.8.9.8.8.8.8.9.8.I.4.J.J.4.4.4.4.4#c.4#c.4#c#c.4#c#c.4#c.4#c.4.4.4#c.4#c.4.J.4.4.K.Y.P#D#D#j#x#w#C#C#C#r#s#n#n.N.Y.K.R.J.1.I.8.8.8.9.8.8.8.8.9.8.I.4.J.J.4.4.4.4.4#c.4#c.4#c#c.4#c#c.4#c.4#c.4.4.4#c.4#c.4.J.4.4.K.Y.P.P.F.q#E.b.b",
".b.b.b.r.E.N.N.L.K.4.J.1.9.9.8.9.8.9.9.8.8.8.8.9.4#c#c#c.J.4.4.3.4#c.4#c.4.4#p#p.4#c.4#c.4.4.4#c.4#c.4#c.4.4.4.K.Y.P#u#B#D#r#z#w#x#v#s#r#K#n#n.L.K.4.J.1.9.9.8.9.8.9.9.8.8.8.8.9.4#c#c#c.J.4.4.3.4#c.4#c.4.4#p#p.4#c.4#c.4.4.4#c.4#c.4#c.4.4.4.K.Y.P.P.F.q.b.b.b",
".c.b#E.r.Q.N.N.Y.K.4.J.2.9.8.8.8.8.8.8.8.9.8.9.9.A#c.4.4.4.3.4.4#c.4#c#p#c.4#p#p#c.4#c.4.4#c#c.4#c.4.4.4.J.4.4.K.Y.P#D#s#j#v#x#z#z#r#n#u#u#u#u#n.K.4.J.2.9.8.8.8.8.8.8.8.9.8.9.9.A#c.4.4.4.3.4.4#c.4#c#p#c.4#p#p#c.4#c.4.4#c#c.4#c.4.4.4.J.4.4.K.Y.P.N.F.q.b.b.b",
".c#E.b.r.F.N.N.L.K.J.J.4.I.8.8.8.9.8.8.9.8.8.8.I.2.J#c.4#c.4.4.4.4.4#p#p#p#p#p#p.4#c#c.4#c.4#c.4#c.4#c.4.4.4.4.K#t.P#u#D#K#K#j#x#v#s#j#r#n#r#r#n.K.J.J.4.I.8.8.8.9.8.8.9.8.8.8.I.2.J#c.4#c.4.4.4.4.4#p#p#p#p#p#p.4#c#c.4#c.4#c.4#c.4#c.4.4.4.4.K#t.P.P.F.r.b.b.c",
".a.a.a.p.E.N.N.Z.5.2.1.2.9.8.9.8.8.8.8.9.9.9.9##.1.J#c.4#c.4.J.4#c.4#p#p#p#p#p#p.4#c.4#c.4#c.4#c.4#c.4#c.4.J.4.K#t.P#j#K#L#K#y#K#K#K#z#r#n#r#r#n#n.2.1.2.9.8.9.8.8.8.8.9.9.9.9##.1.J#c.4#c.4.J.4#c.4#p#p#p#p#p#p.4#c.4#c.4#c.4#c.4#c.4#c.4.J.4.K#t.P.P.C.p.a.a.a",
".d.d.e.t.C.M.M.L.1.9.I.9.9.8.8.8.9.8.9.9##.A.1.1.J.J.4.4.4.4.J.4.J.4.4.4#p.4#c.4.4.4#c.4.4.4.4.4#c.4#c.4.4.4.J.K.L.N.M#K#M#y#N#N#y#K#z#z#r#r#z#r#n.9.I.9.9.8.8.8.9.8.9.9##.A.1.1.J.J.4.4.4.4.J.4.J.4.4.4#p.4#c.4.4.4#c.4.4.4.4.4#c.4#c.4.4.4.J.K.L.N.M.C.o.d.d.d",
"Qt.g#O.n.C.O.N.W.2.8.8.8.8.9.8.9.8.8.8.9.4.J.J.J.4.4.4.J.4.J.4.4.4.4.J.4#p#c#p.4#c.4.4#c.4.J.4.4#c.4.4#c#p#p.1.K.Y.N#n#n#u#N#L#L#K#r#z#z#z#r#z#z#r#n.8.8.8.9.8.9.8.8.8.9.4.J.J.J.4.4.4.J.4.J.4.4.4.4.J.4#p#c#p.4#c.4.4#c.4.J.4.4#c.4.4#c#p#p.1.K.Y.N.N.C.nQtQtQt",
"Qt.g#O.n.C.O.P.Y.2.8.8.9.8.8.8.9.8.8.8.9##.J.4.J.J.J.4.J.4.4.4.4.4.3.J.J#p#p#p#p.4#c.4.J.4.J.4.5.4#c.4.4#p.J.4.K.L.N#n#u#n#K#K#K#v#r#z#z#z#r#r#z#r#n.8.9.8.8.8.9.8.8.8.9##.J.4.J.J.J.4.J.4.4.4.4.4.3.J.J#p#p#p#p.4#c.4.J.4.J.4.5.4#c.4.4#p.J.4.K.L.N.O.C.n.7QtQt",
".d.d.e.o.C.O.P.Y.2.8.8.8.9.8.8.8.9.I.9##.4.J.4.J.1.2.A.4.4.4.J.J.4.4.A.4.4#p#p#p.J.4.4.4.4.4.4#c#c.4#c.4.4.A.1.5.Y.N#n#r#r#r#r#n#v#r#z#C#z#z#r#z#z#r#n.8.9.8.8.8.9.I.9##.4.J.4.J.1.2.A.4.4.4.J.J.4.4.A.4.4#p#p#p.J.4.4.4.4.4.4#c#c.4#c.4.4.A.1.5.Y.N.P.B.n.7QtQt",
".w.a.a.p.E.N.N.W.2.9.8.8.8.9.9.9.2.1.4.A.J.4.4.2##.9.9##.4.J.J.4#o#o.I.I.1.J.4.4.4.4.4.4.4.4.J.4.J.4.J.R.I.I.I.1.Y#n#n#r#n#z#r#r#x#r#z#C#C#z#z#r#C#z#n.8.8.9.9.9.2.1.4.A.J.4.4.2##.9.9##.4.J.J.4#o#o.I.I.1.J.4.4.4.4.4.4.4.4.J.4.J.4.J.R.I.I.I.1.Y.N.M.C.nQtQtQt",
".b.b#E.r#H.M.M.W.2.8.8.9.8.8.8.9.4.J.4.4.J.J.J.1.9.8.8.9.2.J.J.2#o.8.8.I.1.J.J.4.4.J.4.J.4.J.4.4.4.J.J.1.I.8.8.1.X#n#r#r#n#C#z#r#x#r#z#C#C#C#z#z#z#C#r#n.8.8.8.9.4.J.4.4.J.J.J.1.9.8.8.9.2.J.J.2#o.8.8.I.1.J.J.4.4.J.4.J.4.J.4.4.4.J.J.1.I.8.8.1.X.N.O.C.nQtQtQt",
".c.b#E.r.F.P.M.X.2.9.8.8.8.9#..9.2.J.4.J.J.J.J.4.9#..9.9.A.J.J.R.8.8.8.9.A.J.4#c.4#c.4#c.4.4.4.4.4.J.J.1.I.8.8.1.X#n#r#r#n#z#z#z#v#v#z#C#C#C#z#z#r#z#z#n#n.9#..9.2.J.4.J.J.J.J.4.9#..9.9.A.J.J.R.8.8.8.9.A.J.4#c.4#c.4#c.4.4.4.4.4.J.J.1.I.8.8.1.X.N.N.C.m.g.6Qt",
".b.b.b.r.F.N.N.X.2.8.8.9.9.9.9##.4.J.4.4.4.2.4##.I.9.9##.2.R.2.2.I.I#o.I.4#c#c.4.4.4#c.4.4.4.4.4.1.1.1.I.8.r.q##.X#n#r#r#K#r#z#r#j#x#z#C#J#C#C#z#z#r#z#r#n#u.9##.4.J.4.4.4.2.4##.I.9.9##.2.R.2.2.I.I#o.I.4#c#c.4.4.4#c.4.4.4.4.4.1.1.1.I.8.r.q##.X.N.N.B.n.g.gQt",
".b.b.b.q.F.P.P.Z.2.9.8.9.2.2.4.2.4.4.J.4##.9.9.I##.1.4.2.I.9.9##.1.1.1.4.4.4.4#c#c.4#c.4#c.4.J.4##.I.I#..H#P#P#.#L#L#r#n#u#n#n#L#n#x#C#C#J#J#C#C#z#z#r#y#r#u.4.2.4.4.J.4##.9.9.I##.1.4.2.I.9.9##.1.1.1.4.4.4.4#c#c.4#c.4#c.4.J.4##.I.I#..H#P#P#..F.M.M.C.oQtQtQt",
".b.b.b.q.F.N.P.Z.2.8.8.9.4.4.J.4.4.4.J.2.9#..8.9.4.4.J.2.I.8.8.9.1.J.J.4.4.4.J.4.4#c.4.4#c#p.J.1#o.8.8#Q#P.b.b.s#L#N#L#y#n#n#L#y#N#w#C#J#J#J#C#C#z#z#z#r#j#u.J.4.4.4.J.2.9#..8.9.4.4.J.2.I.8.8.9.1.J.J.4.4.4.J.4.4#c.4.4#c#p.J.1#o.8.8#Q#P.b.b.s.F.N.M.C.n.hQtQt",
".b.b.b.q.F.P.P.Z.2.8#..9.2.J.J.4.J.4.J.4.9.8.8.9.4.J.J.4.9.8#..9.1.J.4.4.4.4.4.4#c.4#c#c#c.J.J.4.I.8.8#.#P.b.b.q#L#L#y#N#y#n#y#L#L#w#C#J#J#J#J#C#C#z#r#j#j#u.J.4.J.4.J.4.9.8.8.9.4.J.J.4.9.8#..9.1.J.4.4.4.4.4.4#c.4#c#c#c.J.J.4.I.8.8#.#P.b.b.q.F.N.N.C.m.7.6Qt",
".a.a.a.t.F.P.P.Y.4.9.9##.4.J.J.J.A.4.2.2##.9.9####.4.2.2.I.9.9.I.J.J.J.4.J.4.J.4.4#c.4.4.4.A.1##.I.8.8#R#P.b.b.q#y#N#N#y#u#n#n#L#N#w#z#z#z#C#C#z#z#r#s#j#j#u.J.J.A.4.2.2##.9.9####.4.2.2.I.9.9.I.J.J.J.4.J.4.J.4.4#c.4.4.4.A.1##.I.8.8#R#P.b.b.q.F.N.M.C.n.7QtQt",
".d.d.e.t.C.M.N.Y.S.2.2.4.4.4.4.4.I.9.9.I##.1.4##.I.I.9.I.2.4.1.4.4.4#c.4.4.4.4.4.J.4.J.J.I.I.I.I.8.9.8#.#P.b#S#S#S#y#K#y#K#K#n#n#n#w#x#x#v#L#v#x#x#v#j#j#u.4.4.4.I.9.9.I##.1.4##.I.I.9.I.2.4.1.4.4.4#c.4.4.4.4.4.J.4.J.J.I.I.I.I.8.9.8#.#P.b.b.p.F.M.M.E.n.g.gQt",
"Qt.g#O.n.C.M.N.L.K.J.4.J.4.J.J.2.I.8.8.I.1.J.4.4.9#..8.9.2.J.J.J#c#c.4#c#c.J.4.4.4.4.J.1.9.8.8.8.8.8#S#S#S#S#S#S#S#u#K#K#K#K#K#u#n#w#x#v#v#v#s#s#s#j#j#j#u#S.J.2.I.8.8.I.1.J.4.4.9#..8.9.2.J.J.J#c#c.4#c#c.J.4.4.4.4.J.1.9.8.8.8.8.8.8#R#P.b.b.s.F.M.M.C.n.gQtQt",
"Qt.g#O.n.C.P.P.Y.K.J.J.4.J.J.J.4.9.8.8.9.1.J.J.1.I.8.8.9.A.J#c#c.4.4#c.4.4#c.4.J.4.J.J.1.I.8.8.8#S#S#S#S#S#S#S#S#S#K#y#K#K#K#n#S#y#w#v#v#v#s#s#s#s#j#j#u#S#S#S#S.9.8.8.9.1.J.J.1.I.8.8.9.A.J#c#c.4.4#c.4.4#c.4.J.4.J.J.1.I.8.8.8.8.8.8#T#U.b.b.p.F.M.M.C.n.g.gQt",
".d.d.e.o.C.P.P.L.K.R.1.J.1.1.A##.I.8.8.I.1.J.J.4.I.9.9##.4#c.4.4.4#c.4.4#c.4.4.4.1.A.1.2.9.8.8#S#S#S#S#S#S#S#S#S#S#u#K#K#K#n#K#S#S#x#v#v#v#s#s#j#j#u#u#S#S#S#S#S#S.8.8.I.1.J.J.4.I.9.9##.4#c.4.4.4#c.4.4#c.4.4.4.1.A.1.2.9.8.8.8.I.I.I.8.s#P#P#..F.M.N.E.o.d.d.d",
".w.a#V.p.F.N.P.L.K.4.J.1##.I.9.9.9.8.8.I.1.J.J.1.1.1.4.4.4.4.4#c#c.4#c.4.4.J.4.4#G.9.9.9.9.8#S#S#S#S#S#S#S#S#S#S#K#y#y#K#K#K#K#S#S#y#u#u#u#u#u#n#u#S#S#S#S#S#S#S#S#S.8.I.1.J.J.1.1.1.4.4.4.4.4#c#c.4#c.4.4.J.4.4#G.9.9.9.9.8.8.I#G.1.4###..q#R.I.X.N.N.E.p.a.a.a",
".b.b#E.r.F.N.P.L.K.4.J.4.9.8.8.8.8.8.8.I.4.4.J.4.J.J#c.4.4.4.4#c#c.4#c#c.4.J.J.2.I.8.8.8.8#S#S#S#S#S#S#S#S#S#y#N#K#K#K#K#K#K#K#y#j#N#L#N#N#y#u#S#S#S#S#S#S#S#S#S#S#S#S.I.4.4.J.4.J.J#c.4.4.4.4#c#c.4#c#c.4.J.J.2.I.8.8.8.8.8.8.I.1.J.J.1.I.8.8.1.X.N.N.F.r.b.c.c",
".c.c#E.r.F.P.P#t.K.4.J.1.9.8.8.9.8.8.8#o.V.J.4.J.J.4.J.J.4.4.4.4.J.J.4#c.J.J.J.1.I.8.8.8.8#S#S#S#S#S#S#S#S#S#y#N#N#y#y#K#K#K#K#y#y#y#y#n#n#u#u#S#S#S#S#S#S#S#S#S#S#S#S#o.V.J.4.J.J.4.J.J.4.4.4.4.J.J.4#c.J.J.J.1.I.8.8.8.8.8.8.I.1.J.J.4.I.8.8.1.X.N.N.F.r#E#E.c",
".a.a.a.p.K.L.L.F.3.2.1.2.9.9.8.8.9.9.I##.1.4.J.R.4.4.4.4.4.4#c.4.1.1.A.4.R.1.1.2.I.8.8.9.9#S#S#S#S#S#S#S#S#S#y#y#y#K#K#K#K#K#N#L#L#N#N#N#y#y#u#S#S#S#S#S#S#S#S#S#S#S#S##.1.4.J.R.4.4.4.4.4.4#c.4.1.1.A.4.R.1.1.2.I.8.8.9.9.9.I.I.1.R.1##.8#R#R.I#H.L.L.5#W.a.a.w",
".#.d.e#X.A.K.K.J.2.I.9.9.9.9.8.9.2.1.R.1.J.J.J.J.4.4.4.4.4.J.J.R##.9.I.I.9.I.I.9.8.8.9.9#G#S#S#S#S#S#S#S#S#S#n#n#K#n#K#n#S#S#N#N#N#n#u#y#u#n#n#S#S#S#S#S#S#S#S#S#S#S#S.1.J.J.J.J.4.4.4.4.4.J.J.R##.9.I.I.9.I.I.9.8.8.9.9#G.R.1.2.I.I.I#..H#P#Y.r.1#H#H.V#X#Z.d.d",
".e.g.g.m#0.J.J.4.9.9.8.9.8.8.9.9.1.J.J.J.J.J.J.R.J.J.J.J.J.J.J.1.I.8.8.8.8.8.8.8.9.8.8.I.R.R#S#S#S#S#S#S#S#S#S#S#S#S#S#S#S#S#y#y#y#u#n#n#n#S#S#S#S#S#S#S#S#S#S#S#S#S.J.J.J.J.J.R.J.J.J.J.J.J.J.1.I.8.8.8.8.8.8.8.9.8.8.I.R.R.J.R.I.8.8#T#Y.b#E#1.I.J.R.z.m.6QtQt",
".e.e.e.m#2.J.J.2.9.9.8.8.8.9.8.9.R.J.J.J.4.J.J.J.J.J.J.J.4.J.J.1.9.8.8.9.8.9.9.8.9.8.8.I.R.J.J#S#S#S#S#S#S#S#S#S#S#S#S#S#S#S#S#S#S#S#S#S#S#S#S#S#S#S#S#S#S#S#S#S#S.J.J.J.4.J.J.J.J.J.J.J.4.J.J.1.9.8.8.9.8.9.9.8.9.8.8.I.R.J.J.1.9.9.8#.#Y.b.b#1.I.3.3.z.m.6QtQt",
".e.f.d#3.y##.9.9.y.p.q#4#R.8#Q#Q.y#0#2.z.z.I#o.z.z#2.z.z.I.z.I.9#.#Q#Q#Q#R#R#R#R#R#R#R#..9#2#0.y#S#S#S#S#S#S#S#S#S#S#S#S#S#S#S#S#S#S#S#S#S#S#S#S#S#S#S#S#S#S#S#S.y#0#2.z.z.I#o.z.z#2.z.z.I.z.I.9#.#Q#Q#Q#R#R#R#R#R#R#R#..9#2#0.y.y.q#5#W#P.a.a.U#6.I.V.y#7.6QtQt",
".w.a.a.w#8.H.H.U#9a.#3a##P#8#8.x#X.m.l#X.U.H.H.U#X.m.m.l.U#U.s.U#U#U#U#U#U#U#U#U#U#U#U.x#X.m.m.l.l#3#S#S#S#S#S#S#S#S#S#S#S#S#S#S#S#S#S#S#S#S#S#S#S#S#S#S#S#S#8.x#X.m.l#X.U.H.H.U#X.m.m.l.U#U.s.U#U#U#U#U#U#U#U#U#U#U#U.x#X.m.m.l.l#3#3.k.k.d.d.#.x.H.s.x.fQtQtQt",
".b.c.c.c.b.b.b#V.e.e.e.e.a.b.c.a.dQt#O#Z.a.b.b.a.d#O.g.d.a.b.b.b.c.c.w.b.c.b.b.c.b.b.c.a.d.g.g.g.gQtQtQt.h.h#S#S#S#S#S#S#S#S#S#S#S#S#S#S#S#S#S#S#S#S.e.e.a.b.c.a.dQt#O#Z.a.b.b.a.d#O.g.d.a.b.b.b.c.c.w.b.c.b.b.c.b.b.c.a.d.g.g.g.gQtQtQt.h.h.h.d.a.b.b.a.dQtQtQt",
".c.c.c.c.b.c.b.w.#.e.e.f.a.c.c.a.dQtQt.d.a#E.b.a.d.hQt.d.a.c.b.b.b.c.b.b.b.b.c.b.b.b.b.a.d.g.gQtQtQtQtQtQt.h.h.d.a.c.b.a.d.h.hQt.c.c.c.c.b.c.b.w.#.e.e.f.a.c.c.a.dQtQt.d.a#E.b.a.d.hQt.d.a.c.b.b.b.c.b.b.b.b.c.b.b.b.b.a.d.g.gQtQtQtQtQtQt.h.h.d.a.c.b.a.d.h.hQt",
".b.b.c.b.b.c.b.w.e.e.g.e.w.c.c.a.dQtQt.d.a.c.b.a.d.hQt.d.a.c.c.c.c.b.c.b.c.c.b.c.c.b.b.w.dQtQtQtQtQtQtQtQtQt.h.d.a.c.c.a.dQtQtQt.b.b.c.b.b.c.b.w.e.e.g.e.w.c.c.a.dQtQt.d.a.c.b.a.d.hQt.d.a.c.c.c.c.b.c.b.c.c.b.c.c.b.b.w.dQtQtQtQtQtQtQtQtQt.h.d.a.c.c.a.dQtQtQt"};
