/* XPM */
static char *dummy[]={
"64 64 131 2",
"Qt c None",
".X c #000000",
".Y c #000000",
".Z c #000000",
"#M c #000000",
".0 c #000000",
"#C c #000000",
".3 c #000000",
"a# c #000000",
"#a c #000000",
".4 c #000000",
"aa c #000000",
".1 c #000000",
".2 c #000000",
".5 c #000000",
"#u c #000000",
"#k c #000000",
"#R c #000000",
"#b c #000000",
".6 c #000000",
"#D c #000000",
"#K c #000000",
".7 c #000000",
"#c c #000000",
"#7 c #000000",
"#l c #000000",
"#t c #000000",
"#8 c #000000",
"#d c #000000",
"#9 c #000000",
"#v c #000000",
"a. c #000000",
"## c #000000",
"#. c #000000",
".8 c #000000",
".9 c #000000",
"#j c #000000",
"#m c #000000",
"#S c #000000",
"#e c #000000",
"#0 c #000000",
"#E c #000000",
"#L c #000000",
"#1 c #000000",
"#n c #000000",
"#w c #000000",
"#2 c #000000",
"#3 c #000000",
"#o c #000000",
"#T c #000000",
"#4 c #000000",
"#5 c #000000",
"#i c #000000",
"#h c #000000",
"#6 c #000000",
"#f c #000000",
"#g c #000000",
"#U c #000000",
"#x c #000000",
"#V c #000000",
"#W c #000000",
"#X c #000000",
"#F c #000000",
"#y c #000000",
"#Y c #000000",
"#Z c #000000",
"#s c #000000",
"#N c #000000",
"#r c #000000",
"#p c #000000",
"#q c #000000",
"#G c #000000",
"#O c #000000",
"#P c #000000",
"#H c #000000",
"#Q c #000000",
"#B c #000000",
"#z c #000000",
"#A c #000000",
"#J c #000000",
"#I c #000000",
".I c #001111",
".v c #002b2b",
".C c #005e7f",
".E c #007faa",
".h c #080808",
".W c #0f0e11",
".U c #190000",
".z c #1e424f",
".Q c #212828",
".q c #260c0c",
".T c #26252c",
".V c #35353a",
".R c #35383f",
".u c #3d5358",
".e c #444448",
".M c #470000",
".m c #494482",
".t c #4a2121",
".P c #51545b",
".w c #535353",
".N c #562f1d",
".D c #637a82",
".c c #6d3300",
".F c #72472d",
".r c #750000",
".k c #797a7c",
".s c #838384",
".n c #84393a",
".G c #870000",
".y c #871e38",
".L c #8e3314",
".H c #946c45",
".o c #96b2ff",
".b c #996314",
".f c #9e99a6",
".B c #adb2af",
".A c #af001c",
".K c #c09d7b",
".S c #c1bfbc",
".p c #c46555",
".O c #c65619",
".g c #ccd3d6",
".# c #d19e30",
".l c #e5f4ff",
".J c #ef0c23",
".j c #f78c6b",
".d c #f9edd6",
".a c #fcd670",
".x c #ff7084",
".i c #ffd8ce",
"QtQtQtQtQtQtQtQtQtQtQtQtQtQtQtQtQtQtQtQtQtQtQtQtQtQtQtQtQtQtQtQtQtQtQtQtQtQtQtQtQtQtQtQtQtQtQtQtQtQtQtQtQtQtQtQtQtQtQtQtQtQtQtQt",
"QtQtQtQtQtQtQtQtQtQtQtQtQtQtQtQtQtQtQtQtQtQtQtQtQtQtQtQtQtQtQtQtQtQtQtQtQtQtQtQtQtQtQtQtQtQtQtQtQtQtQtQtQtQtQtQtQtQtQtQtQtQtQtQt",
"QtQtQtQtQtQtQtQtQtQtQtQtQtQtQtQtQtQtQtQtQtQtQtQtQtQtQtQtQtQtQtQtQtQtQtQtQtQtQtQtQtQtQtQtQtQtQtQtQtQtQtQtQtQtQtQtQtQtQtQtQtQtQtQt",
"QtQtQtQtQtQtQtQtQtQtQtQtQtQtQtQtQtQtQtQtQtQtQtQtQtQtQtQtQtQtQtQtQtQtQtQtQtQtQtQtQtQtQtQtQtQtQtQtQtQtQtQtQtQtQtQtQtQtQtQtQtQtQtQt",
"QtQtQtQtQtQtQtQtQtQtQtQtQtQtQtQtQtQtQtQtQtQtQtQtQtQtQtQtQtQtQtQtQtQtQtQtQtQtQtQtQtQtQtQtQtQtQtQtQtQtQtQtQtQtQtQtQtQtQtQtQtQtQtQt",
"QtQtQtQtQtQtQtQtQtQtQtQtQtQtQtQtQtQtQtQtQtQtQtQtQtQtQtQtQtQtQtQtQtQtQtQtQtQtQtQtQtQtQtQtQtQtQtQtQtQtQtQtQtQtQtQtQtQtQtQtQtQtQtQt",
"QtQtQtQtQtQtQtQtQtQtQtQtQtQtQtQtQtQtQtQtQtQtQtQtQtQtQtQtQtQtQtQtQtQtQtQtQtQtQtQtQtQtQtQtQtQtQtQtQtQtQtQtQtQtQtQtQtQtQtQtQtQtQtQt",
"QtQtQtQtQtQtQtQtQtQtQtQtQtQtQtQtQtQtQtQtQtQtQtQtQtQt.#.a.#.b.b.b.b.c.cQtQtQtQtQtQtQtQtQtQtQtQtQtQtQtQtQtQtQtQtQtQtQtQtQtQtQtQtQt",
"QtQtQtQtQtQtQtQtQtQtQtQtQtQtQtQtQtQtQtQtQtQtQtQtQt.#Qt.b.b.#.b.b.b.b.b.b.cQtQtQtQtQtQtQtQtQtQtQtQtQtQtQtQtQtQtQtQtQtQtQtQtQtQtQt",
"QtQtQtQtQtQtQtQtQtQtQtQtQtQtQtQtQtQtQtQtQtQtQtQtQtQt.b.#.#.#.#.b.b.#.#.b.b.cQtQtQtQtQtQtQtQtQtQtQtQtQtQtQtQtQtQtQtQtQtQtQtQtQtQt",
"QtQtQtQtQtQtQtQtQtQtQtQtQtQtQtQtQtQtQtQtQtQtQtQtQt.b.#.a.a.#.a.#.#.b.#.#.b.b.cQtQtQtQtQtQtQtQtQtQtQtQtQtQtQtQtQtQtQtQtQtQtQtQtQt",
"QtQtQtQtQtQtQtQtQtQtQtQtQtQtQtQtQtQtQtQtQtQtQtQt.b.#.a.#.#.a.a.a.a.d.a.#.#.b.b.cQtQtQtQtQtQtQtQtQtQtQtQtQtQtQtQtQtQtQtQtQtQtQtQt",
"QtQtQtQtQtQtQtQtQtQtQtQtQtQtQt.e.e.eQtQtQtQtQt.b.#.b.#.d.d.d.a.#.#.a.d.a.#.c.b.cQtQtQtQtQtQtQtQtQtQtQtQtQtQtQtQtQtQtQtQtQtQtQtQt",
"QtQtQtQtQtQtQtQtQtQtQtQtQtQtQt.e.f.g.eQtQtQt.b.#.b.#.a.d.a.d.a.d.d.#.d.d.#.b.c.b.cQtQtQtQtQtQtQtQtQtQtQtQtQtQtQtQtQtQtQtQtQtQtQt",
"QtQtQtQtQtQtQtQtQtQtQtQtQtQtQt.e.g.h.g.eQtQtQt.b.#.#.#.d.#.d.d.a.d.d.#.d.a.#.c.c.cQtQtQtQtQtQtQtQtQtQtQtQtQtQtQtQtQtQtQtQtQtQtQt",
"QtQtQtQtQtQtQtQtQtQtQtQtQtQtQtQt.e.g.f.e.eQtQt.#.b.a.#.a.b.a.d.b.i.d.#.d.c.#.b.c.c.cQtQtQtQtQtQtQtQtQtQtQtQtQtQtQtQtQtQtQtQtQtQt",
"QtQtQtQtQtQtQtQtQtQtQtQtQtQtQtQtQt.h.e.f.e.h.b.#.b.a.b.a.h.h.d.j.b.h.h.a.b.c.#.bQtQtQtQtQtQtQtQtQtQtQtQtQtQtQtQtQtQtQtQtQtQtQtQt",
"QtQtQtQtQtQtQtQtQtQtQtQtQtQtQtQtQtQtQt.h.k.e.hQt.c.#.b.#.l.m.j.j.i.m.l.#.n.b.c.cQtQtQtQtQtQtQtQtQtQtQtQtQtQtQtQtQtQtQtQtQtQtQtQt",
"QtQtQtQtQtQtQtQtQtQtQtQtQtQtQtQtQtQtQtQt.h.f.e.h.c.#.c.c.i.o.i.j.i.o.i.p.n.b.c.c.cQtQtQtQtQtQtQtQtQtQtQtQtQtQtQtQtQtQtQtQtQtQtQt",
"QtQtQtQtQtQtQtQtQtQtQtQtQtQtQtQtQtQtQtQtQt.e.k.e.e.b.c.n.j.i.i.i.i.i.j.n.c.b.cQtQtQtQtQtQtQtQtQtQtQtQtQtQtQtQtQtQtQtQtQtQtQtQtQt",
"QtQtQtQtQtQtQtQtQtQtQtQtQtQtQtQtQtQtQtQtQt.h.e.e.f.c.c.q.p.j.i.i.i.j.p.q.c.cQtQtQtQtQtQtQtQtQtQtQtQtQtQtQtQtQtQtQtQtQtQtQtQtQtQt",
"QtQtQtQtQtQtQtQtQtQtQtQtQtQtQtQtQtQtQtQtQtQt.h.k.k.r.c.s.t.n.p.p.p.n.t.u.u.cQtQtQtQtQtQtQtQtQtQtQtQtQtQtQtQtQtQtQtQtQtQtQtQtQtQt",
"QtQtQtQtQtQtQtQtQtQtQtQtQtQtQtQtQtQtQtQtQtQt.h.k.f.r.c.s.u.q.q.q.q.q.s.u.v.v.vQtQtQtQtQtQtQtQtQtQtQtQtQtQtQtQtQtQtQtQtQtQtQtQtQt",
"QtQtQtQtQtQtQtQtQtQtQtQtQtQtQtQtQtQtQtQtQtQtQt.k.v.r.r.w.v.u.u.v.s.x.y.z.z.u.v.vQtQtQtQtQtQtQtQtQtQtQtQtQtQtQtQtQtQtQtQtQtQtQtQt",
"QtQtQtQtQtQtQtQtQtQtQtQtQtQtQtQtQtQtQtQtQtQtQt.v.v.z.A.z.s.B.B.s.u.v.v.z.z.u.v.C.vQtQtQtQtQtQtQtQtQtQtQtQtQtQtQtQtQtQtQtQtQtQtQt",
"QtQtQtQtQtQtQtQtQtQtQtQtQtQtQtQtQtQtQtQtQt.h.h.v.z.u.A.z.u.u.v.u.D.D.E.v.v.u.E.v.F.vQtQtQtQtQtQtQtQtQtQtQtQtQtQtQtQtQtQtQtQtQtQt",
"QtQtQtQtQtQtQtQtQtQtQtQtQtQtQtQtQtQtQtQtQt.G.v.z.v.u.r.v.H.F.v.H.F.u.u.v.v.u.v.u.z.z.vQtQtQtQtQtQtQtQtQtQtQtQtQtQtQtQtQtQtQtQtQt",
"QtQtQtQtQtQtQtQtQtQtQtQtQtQtQtQtQtQtQtQtQt.v.z.u.u.v.r.v.z.z.v.z.z.z.v.I.I.v.u.u.u.z.vQtQtQtQtQtQtQtQtQtQtQtQtQtQtQtQtQtQtQtQtQt",
"QtQtQtQtQtQtQtQtQtQtQtQtQtQtQtQtQtQtQtQtQt.v.z.u.u.z.r.v.H.F.v.H.F.z.v.I.k.v.z.z.v.v.nQtQtQtQtQtQtQtQtQtQtQtQtQtQtQtQtQtQtQtQtQt",
"QtQtQtQtQtQtQtQtQtQtQtQtQtQtQtQtQtQtQtQtQtQt.p.j.v.v.r.v.z.z.v.z.r.r.r.r.r.v.v.v.n.j.p.nQtQtQtQtQtQtQtQtQtQtQtQtQtQtQtQtQtQtQtQt",
"QtQtQtQtQtQtQtQtQtQtQtQtQtQtQtQtQtQtQtQtQt.n.j.i.p.r.A.r.I.I.I.I.r.A.J.J.A.r.k.n.j.i.j.pQtQtQtQtQtQtQtQtQtQtQtQtQtQtQtQtQtQtQtQt",
"QtQtQtQtQtQtQtQtQtQtQtQtQtQtQtQtQtQtQtQtQt.n.H.K.r.J.A.v.v.u.L.L.v.r.A.r.M.M.f.n.H.K.K.HQtQtQtQtQtQtQtQtQtQtQtQtQtQtQtQtQtQtQtQt",
"QtQtQtQtQtQtQtQtQtQtQtQtQtQtQtQtQtQtQtQtQt.H.u.D.r.A.N.L.O.O.v.z.v.v.r.A.J.A.r.v.u.D.D.HQtQtQtQtQtQtQtQtQtQtQtQtQtQtQtQtQtQtQtQt",
"QtQtQtQtQtQtQtQtQtQtQtQtQtQtQtQtQtQtQtQtQt.v.H.r.A.r.v.v.z.z.v.u.z.v.v.M.r.A.n.H.K.K.D.vQtQtQtQtQtQtQtQtQtQtQtQtQtQtQtQtQtQtQtQt",
"QtQtQtQtQtQtQtQtQtQtQtQtQtQtQtQtQtQtQtQtQt.F.u.r.A.r.v.v.u.u.v.u.z.v.z.r.j.j.p.u.D.u.H.v.PQtQtQtQtQtQtQtQtQtQtQtQtQtQtQtQtQtQtQt",
"QtQtQtQtQtQtQtQtQtQtQtQtQtQtQtQtQtQtQtQtQt.v.r.A.r.r.v.F.F.v.v.F.F.v.u.r.p.n.n.H.K.v.F.k.k.PQtQtQtQtQtQtQtQtQtQtQtQtQtQtQtQtQtQt",
"QtQtQtQtQtQtQtQtQtQtQtQtQtQtQtQtQtQtQtQtQt.n.r.A.r.F.v.H.H.I.I.H.H.v.H.F.p.i.i.j.n.n.Q.Q.k.k.PQtQtQtQtQtQtQtQtQtQtQtQtQtQtQtQtQt",
"QtQtQtQtQtQtQtQtQtQtQtQtQtQtQtQtQtQtQtQtQt.r.r.A.r.H.I.I.I.R.Q.I.I.I.H.H.n.p.p.j.n.M.r.w.Q.k.k.eQtQtQtQtQtQtQtQtQtQtQtQtQtQtQtQt",
"QtQtQtQtQtQtQtQtQtQtQtQtQtQtQtQtQtQtQtQt.r.r.r.J.v.I.R.R.R.R.Q.Q.w.w.v.H.p.i.i.j.n.M.r.Q.P.f.f.k.eQtQtQtQtQtQtQtQtQtQtQtQtQtQtQt",
"QtQtQtQtQtQtQtQtQtQtQtQtQtQtQtQtQtQtQt.Q.r.A.A.J.I.w.w.s.R.w.Q.Q.w.w.P.I.n.j.i.j.n.M.r.Q.k.Q.f.f.PQtQtQtQtQtQtQtQtQtQtQtQtQtQtQt",
"QtQtQtQtQtQtQtQtQtQtQtQtQtQtQtQtQtQt.w.Q.r.A.A.J.w.s.B.s.w.w.Q.Q.w.s.s.w.w.M.M.M.M.r.M.Q.w.Q.S.f.kQtQtQtQtQtQtQtQtQtQtQtQtQtQtQt",
"QtQtQtQtQtQtQtQtQtQtQtQtQtQtQtQtQtQt.k.Q.r.A.A.J.w.B.B.s.P.w.Q.T.R.s.B.B.s.w.w.J.J.J.w.w.Q.w.S.S.f.eQtQtQtQtQtQtQtQtQtQtQtQtQtQt",
"QtQtQtQtQtQtQtQtQtQtQtQtQtQtQtQtQtQt.k.Q.w.A.J.J.w.w.w.w.w.R.T.U.V.s.B.B.B.w.w.R.J.J.w.w.Q.w.S.S.S.PQtQtQtQtQtQtQtQtQtQtQtQtQtQt",
"QtQtQtQtQtQtQtQtQtQtQtQtQtQtQtQtQtQt.w.Q.w.A.J.A.R.w.w.w.w.R.Q.U.Q.w.s.s.w.w.w.R.J.w.w.k.Q.k.f.S.S.k.eQtQtQtQtQtQtQtQtQtQtQtQtQt",
"QtQtQtQtQtQtQtQtQtQtQtQtQtQtQtQtQtQtQt.w.Q.B.J.A.Q.Q.R.Q.Q.Q.W.U.U.w.w.w.R.W.W.W.U.w.k.B.Q.k.e.k.k.k.eQtQtQtQtQtQtQtQtQtQtQtQtQt",
"QtQtQtQtQtQtQtQtQtQtQtQtQtQtQtQtQtQtQt.w.k.Q.B.k.U.F.N.H.N.W.WQtQt.Q.W.W.F.H.N.F.W.B.B.Q.kQtQt.e.e.e.eQtQtQtQtQtQtQtQtQtQtQtQtQt",
"QtQtQtQtQtQtQtQtQtQtQtQtQtQtQtQtQtQtQtQt.B.k.w.w.U.V.P.P.V.T.WQtQtQtQt.W.V.P.T.T.W.Q.w.BQtQtQtQtQtQtQtQtQtQtQtQtQtQtQtQtQtQtQtQt",
"QtQtQtQtQtQtQtQtQtQtQtQtQtQtQtQtQtQtQtQtQt.B.B.kQt.W.W.W.T.T.WQtQtQtQt.W.W.W.W.W.W.B.BQtQtQtQtQtQtQtQtQtQtQtQtQtQtQtQtQtQtQtQtQt",
"QtQtQtQtQtQtQtQtQtQtQtQtQtQtQtQtQtQtQtQtQtQt.X.X.F.N.H.N.W.W.X.X.X.X.X.W.F.H.N.F.W.XQtQtQtQtQtQtQtQtQtQtQtQtQtQtQtQtQtQtQtQtQtQt",
"QtQtQtQtQtQtQtQtQtQtQtQtQtQtQtQtQtQt.X.X.X.Y.Z.0.V.P.P.V.T.W.1.2.2.1.1.T.T.P.P.V.W.Z.Y.X.X.XQtQtQtQtQtQtQtQtQtQtQtQtQtQtQtQtQtQt",
"QtQtQtQtQtQtQtQtQtQtQtQtQtQtQtQt.X.X.Z.3.4.5.6.7.T.T.W.T.T.W.8.9.9.8#.##.W.T.P.P.V.W.5.4.3.Z.X.XQtQtQtQtQtQtQtQtQtQtQtQtQtQtQtQt",
"QtQtQtQtQtQtQtQtQtQtQtQtQtQtQt.X.Z#a#b#c#d.9#e.T.H.F.H.N.W.W#f#g#g#f#h#i.W.F.H.N.F.W#j#d#c#b#a.Z.XQtQtQtQtQtQtQtQtQtQtQtQtQtQtQt",
"QtQtQtQtQtQtQtQtQtQtQtQtQtQt.X.0#k#l#m#n#o.W.T.V.V.V.V.W.W.W#p#q#q#p#r#s.W.T.T.T.T.T#h#o#n#m#t#k.0.XQtQtQtQtQtQtQtQtQtQtQtQtQtQt",
"QtQtQtQtQtQtQtQtQtQtQtQtQt.X.Z#u#v#w#i#x#y.W.P.k.k.P.V.T.T.W#z#A#A#z#z#B.W.T.w.P.P.V.T#y#x#i#w#v#u.Z.XQtQtQtQtQtQtQtQtQtQtQtQtQt",
"QtQtQtQtQtQtQtQtQtQtQtQtQt.X#C#D#E#f#F#G#H.W.V.V.V.T.T.W#I#J#J#J#J#J#J#J#J.W.k.k.k.R.W#H#G#F#f#E#D#C.XQtQtQtQtQtQtQtQtQtQtQtQtQt",
"QtQtQtQtQtQtQtQtQtQtQtQtQt.X#C#K#E#f#y#G#H.h.W.W.W.h#A#J#J#J#J#J#J#J#J#J#J.W.P.P.P.V.W#H#G#y#f#L#K#C.XQtQtQtQtQtQtQtQtQtQtQtQtQt",
"QtQtQtQtQtQtQtQtQtQtQtQtQt.X#M#u#v#w#i#x#y#N#G#O#P#H#Q#Q#B#z#z#A#A#z#z#B#Q#Q.h.W.W.W.h#y#x#i#w#v#u#M.XQtQtQtQtQtQtQtQtQtQtQtQtQt",
"QtQtQtQtQtQtQtQtQtQtQtQtQtQt.X.0#R#t#S#w#T#h#U#V#W#X#Y#Z#s#r#q#q#q#q#r#s#Z#Y#X#W#V#U#h#T#w#S#t#R.0.XQtQtQtQtQtQtQtQtQtQtQtQtQtQt",
"QtQtQtQtQtQtQtQtQtQtQtQtQtQtQt.X#M.4#b#c#d#j#0#1#2#3#4#5#i#6#f#g#g#f#6#i#5#4#3#2#1#0#j#d#c#b.4#M.XQtQtQtQtQtQtQtQtQtQtQtQtQtQtQt",
"QtQtQtQtQtQtQtQtQtQtQtQtQtQtQtQt.X.X.Z.3.4.5.6.7#7#8#9a.###..8.9.9.8#.##a.#9#8#7.7.6#u.4.3.Z.X.XQtQtQtQtQtQtQtQtQtQtQtQtQtQtQtQt",
"QtQtQtQtQtQtQtQtQtQtQtQtQtQtQtQtQtQt.X.X.X.Y.Z.0.3a#.4aa.1.1.1.2.2.1.1.1aa.4a#.3.0.Z.Y.X.X.XQtQtQtQtQtQtQtQtQtQtQtQtQtQtQtQtQtQt",
"QtQtQtQtQtQtQtQtQtQtQtQtQtQtQtQtQtQtQtQtQtQt.X.X.X.X.X.X.X.X.X.X.X.X.X.X.X.X.X.X.X.XQtQtQtQtQtQtQtQtQtQtQtQtQtQtQtQtQtQtQtQtQtQt",
"QtQtQtQtQtQtQtQtQtQtQtQtQtQtQtQtQtQtQtQtQtQtQtQtQtQtQtQtQtQtQtQtQtQtQtQtQtQtQtQtQtQtQtQtQtQtQtQtQtQtQtQtQtQtQtQtQtQtQtQtQtQtQtQt",
"QtQtQtQtQtQtQtQtQtQtQtQtQtQtQtQtQtQtQtQtQtQtQtQtQtQtQtQtQtQtQtQtQtQtQtQtQtQtQtQtQtQtQtQtQtQtQtQtQtQtQtQtQtQtQtQtQtQtQtQtQtQtQtQt"};
