/* XPM */
static char *dummy[]={
"64 64 146 2",
"#5 c #000000",
"#D c #001111",
"#x c #002b2b",
"#L c #005477",
"#E c #005e7f",
"#G c #007faa",
"#F c #00e200",
"#c c #080808",
"#Y c #0f0e11",
"#A c #1e424f",
"#X c #212828",
"#u c #260c0c",
"#3 c #26252c",
"#7 c #35353a",
"#6 c #371812",
".5 c #383f4a",
".g c #383f4b",
"#W c #383f4c",
".4 c #38404c",
".e c #393f4b",
"Qt c #3a404b",
".h c #3a404c",
"ad c #3d4046",
".d c #3d4047",
"#z c #3d5358",
".f c #3f4148",
".i c #404248",
"al c #424349",
".# c #434245",
"ao c #43434a",
"ah c #44434a",
"#. c #444448",
".j c #44444b",
"a# c #46413d",
".a c #46413e",
"#t c #470000",
".s c #474242",
"an c #474548",
".k c #47464d",
"#q c #494482",
"ab c #494649",
"#o c #4a2121",
"#J c #4a4138",
".b c #4a423a",
".t c #4a433e",
"ap c #4b4440",
".l c #4b4951",
".c c #4c423a",
".m c #4d484c",
".u c #4e4541",
"#0 c #4f443c",
"ac c #50443c",
"a. c #50453d",
"am c #51453d",
".S c #514743",
"#2 c #51545b",
"af c #53463f",
"#Z c #535353",
".E c #54473f",
"aa c #544845",
".n c #544946",
".q c #554840",
".r c #554a47",
"#8 c #562f1d",
".p c #584a43",
".o c #584a44",
"aj c #584a47",
".D c #584d4d",
".v c #5a4d4b",
"#1 c #5b4b44",
"ai c #5b4c48",
"#4 c #5c4b43",
"#9 c #5d4b43",
".9 c #5e4d45",
"ak c #5e4d48",
"ag c #5f4f4d",
".6 c #614d45",
".w c #61514f",
"#l c #635049",
"#H c #637a82",
".7 c #644f48",
"ae c #645352",
".x c #655451",
".F c #66514a",
"#e c #67524b",
".T c #67544f",
"#N c #68524b",
".Z c #68534c",
"#K c #69534d",
".Y c #69544d",
".O c #6c564f",
".1 c #6c5650",
".y c #6c5959",
".P c #6d3300",
"#V c #6d5650",
"#g c #6e5651",
".0 c #6e5751",
".G c #6f5750",
".3 c #6f5a56",
".R c #705853",
".A c #705c5c",
".z c #705c5d",
".B c #715c5b",
"#I c #72472d",
".H c #725a55",
"#n c #7291ea",
"#P c #735a54",
".N c #745b56",
".C c #745d59",
"#w c #750000",
"#O c #755c57",
".U c #785e5a",
"## c #797a7c",
".X c #7a5f5b",
".V c #7a605b",
".W c #7a605c",
"#a c #7c615d",
"#s c #7d625e",
".I c #7e625e",
".M c #826663",
".K c #836663",
".L c #836764",
"#C c #838384",
"#k c #84393a",
".J c #846763",
"#v c #870000",
"#R c #8e3314",
"#M c #946c45",
"#p c #96b2ff",
".Q c #996314",
"#b c #9e99a6",
"#B c #adb2af",
"#y c #af001c",
"#S c #c09d7b",
"#j c #c1bfbc",
"#h c #c46555",
"#T c #c65619",
"#f c #ccd3d6",
".2 c #d19e30",
"#m c #e5f4ff",
"#U c #ef0c23",
"#Q c #f78c6b",
"#d c #f9edd6",
".8 c #fcd670",
"#i c #ffa893",
"#r c #ffd8ce",
"QtQtQtQtQtQtQtQtQtQtQtQtQtQtQtQtQtQtQt.#.a.b.b.b.b.b.b.c.b.b.b.b.b.b.b.a.d.e.f.g.f.e.h.hQtQt.f.gQt.f.e.h.f.gQtQtQtQt.f.d.a.c.c.b",
"QtQtQtQtQtQtQt.gQt.gQt.g.gQt.g.g.g.g.g.d.a.b.b.b.b.b.b.b.b.b.b.b.b.b.b.a.e.e.g.g.g.g.e.gQt.g.g.g.g.g.e.e.g.g.g.g.gQt.g.d.a.c.c.c",
".h.hQtQtQt.g.gQt.gQtQt.g.g.g.g.g.g.g.g.d.a.b.b.b.b.b.b.b.b.b.b.b.b.b.b.a.e.g.g.g.g.g.g.g.g.g.g.g.g.g.e.e.g.g.g.g.g.g.g.d.a.c.c.c",
".d.d.d.i.j.j.k.k.k.l.l.l.m.l.l.m.l.l.l.m.n.o.p.o.o.o.q.p.o.o.o.o.o.o.p.n.r.l.l.l.l.l.l.l.l.l.l.l.l.l.l.l.l.l.l.l.k.k.k.j.s.a.t.a",
".t.a.a.u.v.w.w.x.y.z.z.z.y.z.z.z.z.A.A.B.B.C.C.C.C.C.C.C.C.C.C.C.C.C.C.C.z.A.A.A.y.z.z.z.z.z.z.y.A.A.z.z.z.z.z.y.x.w.w.D.j.d.d.d",
".c.b.b.E.F.G.G.H.I.J.J.K.L.L.L.L.K.J.K.K.J.M.M.M.M.M.L.M.M.M.M.M.M.M.M.L.J.J.K.J.K.K.L.M.J.L.L.K.K.K.K.J.K.J.L.I.N.G.G.w.k.gQtQt",
".c.c.b.E.F.G.O.H.I.J.K.K.K.K.J.J.L.K.K.K.K.K.M.M.M.M.M.M.M.P.P.P.P.P.M.M.Q.Q.Q.Q.K.K.K.K.K.K.K.K.K.M.M.K.K.K.K.I.R.O.O.w.kQtQt.h",
".a.a.a.S.T.H.H.N.U.V.V.V.V.V.V.V.W.X.U.X.W.I.W.I.X.X.X.P.Q.Q.Q.Q.Q.Q.Q.P.Q.P.P.P.Q.W.I.W.I.I.I.W.X.X.X.W.I.I.W.U.N.N.H.x.k.g.gQt",
".d.d.d.m.y.I.I.U.G.Y.Y.Y.Y.Y.Y.Y.Z.Z.Y.G.0.H.H.R.1.Z.P.Q.Q.2.2.Q.2.2.Q.2.2.Q.H.H.P.H.H.H.H.H.H.3.1.Z.Z.1.G.H.H.H.X.M.I.y.k.g.g.f",
"Qt.4.5.l.z.J.K.V.Z.6.6.6.6.6.6.6.6.6.6.7.Z.G.G.x.7.P.Q.Q.2.2.Q.2.8.8.2.8.8.2.Q.Y.G.1.1.1.1.1.1.Z.7.6.6.7.Z.1.G.H.X.M.K.B.l.g.e.e",
"QtQt.5.l.z.J.K.V.Y.6.6.6.6.6.6.6.6.6.9.7#.####.Z.P.Q.Q.2.2.Q.8.8.8.8.8.2.8.8.2.Q.1.1.1.1.1.1.G.x.7.6.9.7.1.1.Y.H#a.K.J.B.l.e.e.e",
"Qt.5Qt.l.B.J.K.V.Y.6.6.6.7.6.6.7.7.F.7.F#.#b#c##.P.Q.P.2.2.8.8.2#d.8.8#d.8.2.Q.2.Q.1.G.1.1.1.G.1.F.7.7.F.1.1.G.3.I.J.K.B.l.e.e.h",
"Qt.5.5.l.z.K.K.V.Y.6.6.7.6.6.6.F#e.Z.1#e#.#f#c.P.Q.P.2.2.2.8.2.8#d.2.8#d.8.8.2.P.P.P.1.1#g.1.1.1.Y.Z.1.1.1.1.1.H.I.K.L.z.l.g.gQt",
"QtQt.5.l.z.J.K.V.Y.6.6.6.6.7.6.F.1.G.G.1#.#b#b.P.P.Q.2.Q.8.8.8#d.2.Q#d#d.8#d.8.2.1.1.G.1.1#g#g.1.G.G.1.1.G.1.1.H.W.K.L.z.l.g.gQt",
"Qt.5.5.l.z.K.K.W.Y.6.6.6.6.6.6.F.1.G.G.Y.F#c.P.P.P.Q.Q.P.8.2.8.Q#h#i#d.2.8#d.8.2.Q.1.1.1.1#g.1#g.1.1.G.1.1.1.G.H.I.K.L.z.l.e.g.f",
"QtQt.5.l.z.K.K.W.Y.6.6.6.7.F.7.F.Z.Z.1.Z.7.6#c.P.Q.Q.P.Q.8.Q#j#c#c#k.8.Q.2#d.8.Q.2.Q.G.1#g.1#g.1.1.G.1.1.1.G.1.H.W.K.L.y.l.e.e.e",
"Qt.gQt.m.y.L.L.W.Y.6.6.7#e.Y.1#e.F#l.7.7.7.6.7.P.Q.P.Q#h.2#c#m#n#c#i.2#h.P#d.2.Q.1#g.1#g#g.1.1#g.G.1.0.1.1.1.1.H.W.M.L.z.l.g.gQt",
"QtQtQt.l.z.L.K.W.Y.6.6.F.Y.G.G.Y.F.6.7.6.6.6.7.P##.P.Q#h.2#o#i#p#q#r#i#i.P.8.2.1#g.1#g.1.1.1#g.1.1.1.1#g.1.1.1.H.I.M.M.z.l.gQtQt",
"Qt.g.g.l.z.K.K.W.Y.6.6.F.1.G.G.1.7.6.6.6.6.7.6.6#c.P.Q.P.Q#o#h#r#r#r#r#i.P.8.Q#g.1#g#g.1#g.1.1#g.1#g.1.0.G.1.1.H.W.M.M.z.m.g.gQt",
"Qt.g.g.k.z.K.K.W.Y.7.7.F.Z.Y.1#e.7.6.7.6.6.6.6.7#c#c.P.P.P#o#k#i#r#r#r#h.P.2#g.1.1.1.1#g.1#g#g.1.1.1#g.1.1.1.1.H#s.M.M.z.l.gQtQt",
"QtQtQt.l.z.K.K.I.0.Y.Y.Y.F.F.7.F.6.7.6.7.7.6#c#c#.#c#b#t.P#u#o#k#h#i#h#o.1.Q.1#g#g.1#g.1#g.1#g#g.0.1#g.1#g.1.G.H.I.K.J.z.l.g.gQt",
"QtQtQt.l.z.K.K.W.H.G.0.1.7.6.6.6.6.6.6.6.6.6#c#v#.###t#t#w#w#u#o#o#o#x#o#o#g#g.1.1#g.1#g.1#g.1.1.1#g.1#g#g.1.Y.H.I.K.J.z.l.e.g.h",
"QtQt.5.k.z.K.K.I.H.G.G.Y.7.6.6.6.7.6.7.6.6.6#c#c#.#t#t#t#x#x#x#w#y#z#z#x#w.1.1#g.1#g#g.1#g.1.1#g.1#g.1.1.1#g.1.H.V.K.J.z.l.g.g.h",
"Qt.5Qt.l.z.K.K.W.R.Y.Y.Z.F.7#l.F.7.6.6.6.7.F#c#v#.#t#t#x#x#z#A#w#y#B#B#C#D.1#g.1#g.1#g.1.1#g.1.1.0.1#g.1.1.1.1.B.I.K.J.z.m.d.d.d",
"QtQt.5.k.z.J.J.W.O.7.7.F.Y.Y.O.Y.F.6.6.F#e.Y#c#c#c#t#x#E#x#z#A#D#y#z#x#x#z#D.1.1.1#g.1.1#g.1.1#g#g.1.1.1.1.1.1.H.W.K.K.B.n.a.a.t",
"Qt.4Qt.l.z.L.K.V.Y.6.6.7.Y.0.G.Y.7.6.6.F.1.G.G#c#F#x#x#x#G#z#x#D#y#H#z#x#I#D.G.1#g.1.1#g.1#g#g.1.1.1#g.G.G.1.1.H.W.K.K.C.p.c#J.b",
"Qt.4.4.l.y.L.L.W#K.6.6.7.O.0.0.Y.F.6.6.7.1.G.G#c#L#x#A#A#z#x#z#x#w#I#M#x#A#D.1.1.1#g.1.1#g.1.1#g#g.1.1.1.1.1.1.H.I.K.K.H.p#J.b.b",
".d.d.d.m.z.K.L.W.Y.7.7.F.Y.Y.Y#N.7.6.6.7.Z.Y.Y.Z#c#x#A#I#z#z#x#t#w#A#z#x#I#D.G.1#g.1#g#g.1#g#g.1.1#g.1.G.1.1.1.H.I.K.K.B.p.b.b.b",
".a.a.a.n.B.J.L.W.R.Y.Y.Y.F.F.F.7.6.6.6.7.F.7.F.F#c#k#x#x#A#A#x#w#y#I#M#x#A#D.1.1#g.1#g.1#g.1#g.1#g.1.1#g.1.1.1.H.I.M.M.C.p.b.b.b",
".b.b#J.p#O.K.L.W#P.0.0.Y.F.6.6.7.6.7.6.7.6.6.6.7.1#k#h#Q#k#x#x#x#w#y#D#D#D.1.1#g.1#g.1#g.1#g.1#g.1#g#g.1.1.1.1.H.W.M.M.C.p.b.b.b",
".b.b.b.p#O.K.K.I.H.0.O.Y#l.6.6.6.6.6.7.6.6.6.6.F.Z#h#Q#r#Q#k#D#t#w#w#R#z#x.1#g.1.1.1.1#g.1#g#g.1.1#g.1#g.1.1.G.H.I.M.M.C.q.b.b.b",
".c.b.b.p#O.K.K.W.H.O.G.Y.F.6.6.6.7.6.6.6.6.7.6.F.1#M#S#S#M#k#w#t#t#t#x#T#T#g.1#g#g.1#g.1#g.1.1.1#g.1#g.1.G.1.1.H.W.M.M.C.o#J.b.b",
".b.b.b.p.B.K.K.I.H.1.G.Y.7.7.6.7.6.7.7.6.6.6.6.7#t#M#H#H#z#x#U#U#y#w#x#A#x.1#V#V.1#g.1#g.1.1.1#g.1#g.1#g.1.1.1.H.W.M.M.C.o.b.b.b",
".c.b#J.p.N.K.K.W.H.1.G.Z.7.6.6.6.6.6.6.6.7.6.7#t#t#x#H#S#S#M#t#t#t#t#x#z#z#x#V#V#g.1#g.1.1#g#g.1#g.1.1.1.G.1.1.H.W.M.K.C.o.b.b.b",
".c#J.b.p.C.K.K.I.H.G.G.1.F.6.6.6.7.6.6.7.6.6#t#t#t#x#M#z#H#z#h#Q#t#w#x#x#I#x#V#V.1#g#g.1#g.1#g.1#g.1#g.1.1.1.1.H#s.M.M.C.p.b.b.c",
".a.a.a.n.B.K.K.X.3.Z.Y.Z.7.6.7.6.6.6.6.7.7#t#t#t.Y#t#I#x#S#M#k#k#h#y#x#D#M#I#x#V.1#g.1#g.1#g.1#g.1#g.1#g.1.G.1.H#s.M.M.z.n.a.a.a",
".d.d.e.r.z.J.J.I.Y.7.F.7.7.6.6.6.7.6.7.7#t#t#t.Y.G#t#t#o#k#h#Q#r#Q#y#M#D#D#M#x.1.1.1#g.1.1.1.1.1#g.1#g.1.1.1.G.H.I.K.J.z.m.d.d.d",
"Qt.g#W.l.z.L.K.U.Z.6.6.6.6.7.6.7.6.6.6#t#t#t.G.G.1#t#t#o#k#k#Q#h#h#U#M#D#V#D#V.1#g.1.1#g.1.G.1.1#g.1.1#g#V#V.Y.H.W.K.K.z.lQtQtQt",
"Qt.g#W.l.z.L.M.W.Z.6.6.7.6.6.6.7.6.6#w#w#w.G.1#t#t#t#t#o#k#k#Q#r#Q#U#U#X#Y#h#V#V.1#g.1.G.1.G.1.3.1#g.1.1#V.G.1.H.I.K.L.z.l.5QtQt",
".d.d.e.m.z.L.M.W.Z.6.6.6.7.6.6.6.7#y#w#w#t#t#t#t#t#w#w#w#o#k#Q#r#Q#U#U#X#Y#V#V#V.G.1.1.1.1.1.1#g#g.1#g.1.1.x.Y.3.W.K.M.y.l.5QtQt",
".t.a.a.n.B.K.K.U.Z.7.6.6.6.7.7.7#U#U#y#w#t#t.1#t#w#w#w#t#t#t#t#t#y#U#U#X#X.G.1.1.1.1.1.1.1.1.G.1.G.1.G.O.F.F.F.Y.W.K.J.z.lQtQtQt",
".b.b#J.p#O.J.J.U.Z.6.6.7.6.6.6#y#y#t#t#t.G.G#t#t#w#w#w#t#w#w#y#y#U#U#U#X#X.G.G.1.1.G.1.G.1.G.1.1.1.G.G.Y.F.6.6.Y.V.K.L.z.lQtQtQt",
".c.b#J.p.C.M.J.V.Z.7.6.6.6.7#B#t#X#y#w.G.G.G#X#X#t#w#w#w#w#y#y#y#U#U#U#X#X.G.1#g.1#g.1#g.1.1.1.1.1.G.G.Y.F.6.6.Y.V.K.K.z.k.g.4Qt",
".b.b.b.p.C.K.K.V.Z.6.6.7.7.7#B#X#y#w.1.1.1#X#X#Z#X#w#w#w#w#y#y#U#U#U#U#X#Y#g#g.1.1.1#g.1.1.1.1.1.Y.Y.Y.F.6.p.o#e.V.K.K.y.l.g.gQt",
".b.b.b.o.C.M.M.X.Z.7.6.7.Z.Z#B#C#w#t.G.1#e#X#Z#X#X#Z###Z#w#y#y#U#U#U#U#Y#Y.1.1#g#g.1#g.1#g.1.G.1#e.F.F.9.E#0#0.9.C.J.J.z.mQtQtQt",
".b.b.b.o.C.K.M.X.Z.6.6.7.1#Z#C#w#t.1.G.Z.7#X#X#Z#Z#X#X#X#Z#######B#B#B###Y.1.G.1.1#g.1.1#g#V.G.Y#l.6.6#1#0.b.b.q.C.K.J.z.l.hQtQt",
".b.b.b.o.C.M.M.X.Z.6.9.7#Z#2#Z#Z.G.1.G.1.7.6.6#X#X#Z#####X#X#X#X#X#X#X#X#Y.1.1.1#g.1#g#g#g.G.G.1.F.6.6.9#0.b.b.o.C.K.K.z.k.5.4Qt",
".a.a.a.r.C.M.M.W.1.7.7#Z#Z#Z.G.G.x.1.Z.Z#e.7.7#e#e#X#3#X###B#B#B#B#B#B###Y.1.G.1.1#g.1.1.1.x.Y#e.F.6.6#4#0.b.b.o.C.K.J.z.l.5QtQt",
".d.d.e.r.z.J.K.W.R.Z.Z.1.1.1.1.1.F.7.7.F#e.Y#5#5#5#6#3#7#7#2#3#Y#6#3#Y#Y#5#5#5#5#5#5.G.G.F.F.F.F.6.7.6.9#0.b.b.n.C.J.J.B.l.g.gQt",
"Qt.g#W.l.z.J.K.I.H.G.1.G.1.G.G.Z.F.6#5#5#5#5#5#5#5#Y#6#8#I#M#I#Y#Y#8#8#Y#5#5#5#5#5#5#5#5#5#5.6.6.6.6.6#4#0.b.b.q.C.J.J.z.l.gQtQt",
"Qt.g#W.l.z.M.M.W.H.G.G.1.G.G.G.1#5#5#5#5#5#5#5#5#5#Y#7#7#7#2#7#Y#Y#3#3#7#7#7#5#5#5#5#5#5#5#5#5#5.6.6.6#9a..b.b.n.C.J.J.z.l.g.gQt",
".d.d.e.m.z.M.M.I.H.O.Y.G.Y.Y.x#5#5#5#5#5#5#5#5#5#Y#6#6#7#2#7#3#Y#Y#3#3#3#7#7#7#5#5#5#5#5#5#5#5#5#5.F.F.6.q#0#0.9.C.J.K.B.m.d.d.d",
".t.aa#.n.C.K.M.I.H.1.G.Y#e.F#5#5#5#5#5#5#5#5#5#5#Y#Y#3#6#8#I#8#2#Y#3#3#3#3#3#3#5#5#5#5#5#5#5#5#5#5#5.1#e.9.o#4.F.V.K.K.B.n.a.a.a",
".b.b#J.p.C.K.M.I.H.1.G.1.7#5#5#5#5#5#5#5#5#5#5#5#c#Y#3#3#3#7#2###2#Y#Y#Y#Y#Y#c#5#5#5#5#5#5#5#5#5#5#5#5.Y.F.6.6.Y.V.K.K.C.p.b.c.c",
".c.c#J.p.C.M.M#s.H.1.G.Y.7#5#5#5#5#5#5#5#5#5#5#5#c#Y#Y#3#7#2#####2#5#5#5#5#5#5#5#5#5#5#5#5#5#5#5#5#5#5.1.F.6.6.Y.V.K.K.C.p#J#J.c",
".a.a.a.n.H.I.I.C.0.Z.Y.Z.7#5#5#5#5#5#5#5#5#5#5#5#5#5#5#c#Y#Y#Y#Y#c#5#5#5#5#5#5#5#5#5#5#5#5#5#5#5#5#5#5#e.6#4#4.F#O.I.I.3aa.a.a.t",
".#.d.eab.x.H.H.G.Z.F.7.7.7#5#5#5#5#5#5#5#5#5#5#5#5#5#5#5#5#5#5#5#5#5#5#5#5#5#5#5#5#5#5#5#5#5#5#5#5#5#5.9.E#0ac.p.Y#O#O.Tabad.d.d",
".e.g.g.kae.G.G.1.7.7.6.7.6.6#5#5#5#5#5#5#5#5#5#5#5#5#5#5#5#5#5#5#5#5#5#5#5#5#5#5#5#5#5#5#5#5#5#5#5#5.6#9ac.b#Jaf.F.G.O.w.k.4QtQt",
".e.e.e.kag.G.G.Z.7.7.6.6.6.7.6#5#5#5#5#5#5#5#5#5#5#5#5#5#5#5#5#5#5#5#5#5#5#5#5#5#5#5#5#5#5#5#5#5#5.7.6.9ac.b.baf.F.0.0.w.k.4QtQt",
".e.f.dah.v#e.7.7.v.n.oai#4.6#1#1#5#5#5#5#5#5#5#5#5#5#5#5#5#5#5#5#5#5#5#5#5#5#5#5#5#5#5#5#5#5#5#5.v.oajaa#0.a.a.Sak.F.T.val.4QtQt",
".t.a.a.tam.E.E.Sanaoahap#0amam.uab.k#5#5#5#5#5#5#5#5#5#5#5#5#5#5#5#5#5#5#5#5#5#5#5#5#5#5#5#5.k.j.jahah.i.i.d.d.#.u.E.q.u.fQtQtQt",
".b.c.c.c.b.b.ba#.e.e.e.e.a.b.c.a.dQt#Wad.a.b#5#5#5#5#5#5#5#5#5#5#5#5#5#5#5#5#5#5#5#5.c.a.d.g.g.g.gQtQtQt.h.h.h.d.a.b.b.a.dQtQtQt",
".c.c.c.c.b.c.b.t.#.e.e.f.a.c.c.a.dQtQt.d.a#J.b.a.d.hQt.d.a.c.b.b.b.c.b.b.b.b.c.b.b.b.b.a.d.g.gQtQtQtQtQtQt.h.h.d.a.c.b.a.d.h.hQt",
".b.b.c.b.b.c.b.t.e.e.g.e.t.c.c.a.dQtQt.d.a.c.b.a.d.hQt.d.a.c.c.c.c.b.c.b.c.c.b.c.c.b.b.t.dQtQtQtQtQtQtQtQtQt.h.d.a.c.c.a.dQtQtQt"};
