/* XPM */
static char *dummy[]={
"64 64 145 2",
"#7 c #000000",
"#L c #001111",
"#u c #002b2b",
"#C c #005e7f",
"#E c #007faa",
"#f c #080808",
"#3 c #0f0e11",
"#1 c #190000",
"#z c #1e424f",
"#V c #212828",
"#p c #260c0c",
"#0 c #26252c",
"#2 c #35353a",
"#X c #35383f",
".6 c #383f4a",
".g c #383f4b",
"#W c #383f4c",
".5 c #38404c",
".e c #393f4b",
"Qt c #3a404b",
".h c #3a404c",
"ac c #3d4046",
".d c #3d4047",
"#t c #3d5358",
".f c #3f4148",
".i c #404248",
"ak c #424349",
".# c #434245",
"an c #43434a",
"ag c #44434a",
"#b c #444448",
".j c #44444b",
"a. c #46413d",
".a c #46413e",
"#R c #470000",
".s c #474242",
"am c #474548",
".k c #47464d",
"#k c #494482",
"aa c #494649",
"#s c #4a2121",
"#G c #4a4138",
".b c #4a423a",
".t c #4a433e",
"ao c #4b4440",
".l c #4b4951",
".c c #4c423a",
".m c #4d484c",
".u c #4e4541",
"#4 c #4f443c",
"ab c #50443c",
"#9 c #50453d",
"al c #51453d",
".Q c #514743",
"#U c #51545b",
"ae c #53463f",
"#w c #535353",
".E c #54473f",
"a# c #544845",
".n c #544946",
".q c #554840",
".r c #554a47",
"#S c #562f1d",
".p c #584a43",
".o c #584a44",
"ai c #584a47",
".D c #584d4d",
".v c #5a4d4b",
"#5 c #5b4b44",
"ah c #5b4c48",
"#6 c #5c4b43",
"#8 c #5d4b43",
".9 c #5e4d45",
"aj c #5e4d48",
"af c #5f4f4d",
".7 c #614d45",
".w c #61514f",
"#v c #635049",
"#D c #637a82",
".8 c #644f48",
"ad c #645352",
".x c #655451",
".F c #66514a",
"## c #67524b",
".R c #67544f",
"#K c #68524b",
".1 c #68534c",
"#H c #69534d",
".0 c #69544d",
".O c #6c564f",
".3 c #6c5650",
".y c #6c5959",
".Z c #6d3300",
"#Y c #6d5650",
"#c c #6e5651",
".2 c #6e5751",
".G c #6f5750",
".4 c #6f5a56",
".P c #705853",
".A c #705c5c",
".z c #705c5d",
".B c #715c5b",
"#F c #72472d",
".H c #725a55",
"#N c #735a54",
".N c #745b56",
".C c #745d59",
"#q c #750000",
"#M c #755c57",
".S c #785e5a",
"#i c #797a7c",
".V c #7a5f5b",
".T c #7a605b",
".U c #7a605c",
"#. c #7c615d",
"#o c #7d625e",
".I c #7e625e",
".M c #826663",
".K c #836663",
".L c #836764",
"#r c #838384",
"#l c #84393a",
".J c #846763",
"#I c #870000",
"#y c #871e38",
"#Q c #8e3314",
"#J c #946c45",
"#m c #96b2ff",
".Y c #996314",
"#d c #9e99a6",
"#B c #adb2af",
"#A c #af001c",
"#P c #c09d7b",
"#Z c #c1bfbc",
"#n c #c46555",
"#T c #c65619",
"#e c #ccd3d6",
".W c #d19e30",
"#j c #e5f4ff",
"#O c #ef0c23",
"#h c #f78c6b",
"#a c #f9edd6",
".X c #fcd670",
"#x c #ff7084",
"#g c #ffd8ce",
"QtQtQtQtQtQtQtQtQtQtQtQtQtQtQtQtQtQtQt.#.a.b.b.b.b.b.b.c.b.b.b.b.b.b.b.a.d.e.f.g.f.e.h.hQtQt.f.gQt.f.e.h.f.gQtQtQtQt.f.d.a.c.c.b",
"QtQtQtQtQtQtQt.gQt.gQt.g.gQt.g.g.g.g.g.d.a.b.b.b.b.b.b.b.b.b.b.b.b.b.b.a.e.e.g.g.g.g.e.gQt.g.g.g.g.g.e.e.g.g.g.g.gQt.g.d.a.c.c.c",
".h.hQtQtQt.g.gQt.gQtQt.g.g.g.g.g.g.g.g.d.a.b.b.b.b.b.b.b.b.b.b.b.b.b.b.a.e.g.g.g.g.g.g.g.g.g.g.g.g.g.e.e.g.g.g.g.g.g.g.d.a.c.c.c",
".d.d.d.i.j.j.k.k.k.l.l.l.m.l.l.m.l.l.l.m.n.o.p.o.o.o.q.p.o.o.o.o.o.o.p.n.r.l.l.l.l.l.l.l.l.l.l.l.l.l.l.l.l.l.l.l.k.k.k.j.s.a.t.a",
".t.a.a.u.v.w.w.x.y.z.z.z.y.z.z.z.z.A.A.B.B.C.C.C.C.C.C.C.C.C.C.C.C.C.C.C.z.A.A.A.y.z.z.z.z.z.z.y.A.A.z.z.z.z.z.y.x.w.w.D.j.d.d.d",
".c.b.b.E.F.G.G.H.I.J.J.K.L.L.L.L.K.J.K.K.J.M.M.M.M.M.L.M.M.M.M.M.M.M.M.L.J.J.K.J.K.K.L.M.J.L.L.K.K.K.K.J.K.J.L.I.N.G.G.w.k.gQtQt",
".c.c.b.E.F.G.O.H.I.J.K.K.K.K.J.J.L.K.K.K.K.K.M.M.M.M.M.M.M.M.M.M.M.M.M.M.K.K.K.K.K.K.K.K.K.K.K.K.K.M.M.K.K.K.K.I.P.O.O.w.kQtQt.h",
".a.a.a.Q.R.H.H.N.S.T.T.T.T.T.T.T.U.V.S.V.U.I.U.I.V.V.W.X.W.Y.Y.Y.Y.Z.Z.V.V.I.V.I.I.U.I.U.I.I.I.U.V.V.V.U.I.I.U.S.N.N.H.x.k.g.gQt",
".d.d.d.m.y.I.I.S.G.0.0.0.0.0.0.0.1.1.0.G.2.H.H.P.3.W.1.Y.Y.W.Y.Y.Y.Y.Y.Y.Z.H.H.H.H.H.H.H.H.H.H.4.3.1.1.3.G.H.H.H.V.M.I.y.k.g.g.f",
"Qt.5.6.l.z.J.K.T.1.7.7.7.7.7.7.7.7.7.7.8.1.G.G.x.8.7.Y.W.W.W.W.Y.Y.W.W.Y.Y.Z.G.0.G.3.3.3.3.3.3.1.8.7.7.8.1.3.G.H.V.M.K.B.l.g.e.e",
"QtQt.6.l.z.J.K.T.0.7.7.7.7.7.7.7.7.7.9.8.3.G.3.1.8.Y.W.X.X.W.X.W.W.Y.W.W.Y.Y.Z.3.3.3.3.3.3.3.G.x.8.7.9.8.3.3.0.H#..K.J.B.l.e.e.e",
"Qt.6Qt.l.B.J.K.T.0.7.7.7.8.7.7.8.8.F.8.F##.3.3##.Y.W.X.W.W.X.X.X.X#a.X.W.W.Y.Y.Z.3.3.G.3.3.3.G.3.F.8.8.F.3.3.G.4.I.J.K.B.l.e.e.h",
"Qt.6.6.l.z.K.K.T.0.7.7.8.7.7.7#b#b#b.3##.F.F.8.Y.W.Y.W#a#a#a.X.W.W.X#a.X.W.Z.Y.Z.3.G.3.3#c.3.3.3.0.1.3.3.3.3.3.H.I.K.L.z.l.g.gQt",
"QtQt.6.l.z.J.K.T.0.7.7.7.7.8.7#b#d#e#b.3.8.7.Y.W.Y.W.X#a.X#a.X#a#a.W#a#a.W.Y.Z.Y.Z.3.G.3.3#c#c.3.G.G.3.3.G.3.3.H.U.K.L.z.l.g.gQt",
"Qt.6.6.l.z.K.K.U.0.7.7.7.7.7.7#b#e#f#e#b.F.7.7.Y.W.W.W#a.W#a#a.X#a#a.W#a.X.W.Z.Z.Z.3.3.3.3#c.3#c.3.3.G.3.3.3.G.H.I.K.L.z.l.e.g.f",
"QtQt.6.l.z.K.K.U.0.7.7.7.8.F.8.F#b#e#d#b#b.7.7.W.Y.X.W.X.Y.X#a.Y#g#a.W#a.Z.W.Y.Z.Z.Z.G.3#c.3#c.3.3.G.3.3.3.G.3.H.U.K.L.y.l.e.e.e",
"Qt.gQt.m.y.L.L.U.0.7.7.8##.0.3##.F#f#b#d#b#f.Y.W.Y.X.Y.X#f#f#a#h.Y#f#f.X.Y.Z.W.Y.3#c.3#c#c.3.3#c.G.3.2.3.3.3.3.H.U.M.L.z.l.g.gQt",
"QtQtQt.l.z.L.K.U.0.7.7.F.0.G.G.0.F.7.8#f#i#b#f.7.Z.W.Y.W#j#k#h#h#g#k#j.W#l.Y.Z.Z#c.3#c.3.3.3#c.3.3.3.3#c.3.3.3.H.I.M.M.z.l.gQtQt",
"Qt.g.g.l.z.K.K.U.0.7.7.F.3.G.G.3.8.7.7.7#f#d#b#f.Z.W.Z.Z#g#m#g#h#g#m#g#n#l.Y.Z.Z.Z#c#c.3#c.3.3#c.3#c.3.2.G.3.3.H.U.M.M.z.m.g.gQt",
"Qt.g.g.k.z.K.K.U.0.8.8.F.1.0.3##.8.7.8.7.7#b#i#b#b.Y.Z#l#h#g#g#g#g#g#h#l.Z.Y.Z.3.3.3.3#c.3#c#c.3.3.3#c.3.3.3.3.H#o.M.M.z.l.gQtQt",
"QtQtQt.l.z.K.K.I.2.0.0.0.F.F.8.F.7.8.7.8.8#f#b#b#d.Z.Z#p#n#h#g#g#g#h#n#p.Z.Z.3#c#c.3#c.3#c.3#c#c.2.3#c.3#c.3.G.H.I.K.J.z.l.g.gQt",
"QtQtQt.l.z.K.K.U.H.G.2.3.8.7.7.7.7.7.7.7.7.7#f#i#i#q.Z#r#s#l#n#n#n#l#s#t#t.Z#c.3.3#c.3#c.3#c.3.3.3#c.3#c#c.3.0.H.I.K.J.z.l.e.g.h",
"QtQt.6.k.z.K.K.I.H.G.G.0.8.7.7.7.8.7.8.7.7.7#f#i#d#q.Z#r#t#p#p#p#p#p#r#t#u#u#u#c.3#c#c.3#c.3.3#c.3#c.3.3.3#c.3.H.T.K.J.z.l.g.g.h",
"Qt.6Qt.l.z.K.K.U.P.0.0.1.F.8#v.F.8.7.7.7.8.F.8#i#u#q#q#w#u#t#t#u#r#x#y#z#z#t#u#u#c.3#c.3.3#c.3.3.2.3#c.3.3.3.3.B.I.K.J.z.m.d.d.d",
"QtQt.6.k.z.J.J.U.O.8.8.F.0.0.O.0.F.7.7.F##.0.3#u#u#z#A#z#r#B#B#r#t#u#u#z#z#t#u#C#u#c.3.3#c.3.3#c#c.3.3.3.3.3.3.H.U.K.K.B.n.a.a.t",
"Qt.5Qt.l.z.L.K.T.0.7.7.8.0.2.G.0.8.7.7.F.3#f#f#u#z#t#A#z#t#t#u#t#D#D#E#u#u#t#E#u#F#u.3#c.3#c#c.3.3.3#c.G.G.3.3.H.U.K.K.C.p.c#G.b",
"Qt.5.5.l.y.L.L.U#H.7.7.8.O.2.2.0.F.7.7.8.3#I#u#z#u#t#q#u#J#F#u#J#F#t#t#u#u#t#u#t#z#z#u.3#c.3.3#c#c.3.3.3.3.3.3.H.I.K.K.H.p#G.b.b",
".d.d.d.m.z.K.L.U.0.8.8.F.0.0.0#K.8.7.7.8.1#u#z#t#t#u#q#u#z#z#u#z#z#z#u#L#L#u#t#t#t#z#u#c.3#c#c.3.3#c.3.G.3.3.3.H.I.K.K.B.p.b.b.b",
".a.a.a.n.B.J.L.U.P.0.0.0.F.F.F.8.7.7.7.8.F#u#z#t#t#z#q#u#J#F#u#J#F#z#u#L#i#u#z#z#u#u#l.3#c.3#c.3#c.3.3#c.3.3.3.H.I.M.M.C.p.b.b.b",
".b.b#G.p#M.K.L.U#N.2.2.0.F.7.7.8.7.8.7.8.7.7#n#h#u#u#q#u#z#z#u#z#q#q#q#q#q#u#u#u#l#h#n#l.3#c.3#c.3#c#c.3.3.3.3.H.U.M.M.C.p.b.b.b",
".b.b.b.p#M.K.K.I.H.2.O.0#v.7.7.7.7.7.8.7.7#l#h#g#n#q#A#q#L#L#L#L#q#A#O#O#A#q#i#l#h#g#h#n.3#c#c.3.3#c.3#c.3.3.G.H.I.M.M.C.q.b.b.b",
".c.b.b.p#M.K.K.U.H.O.G.0.F.7.7.7.8.7.7.7.7#l#J#P#q#O#A#u#u#t#Q#Q#u#q#A#q#R#R#d#l#J#P#P#J#c.3.3.3#c.3#c.3.G.3.3.H.U.M.M.C.o#G.b.b",
".b.b.b.p.B.K.K.I.H.3.G.0.8.8.7.8.7.8.8.7.7#J#t#D#q#A#S#Q#T#T#u#z#u#u#q#A#O#A#q#u#t#D#D#J.3.3.3#c.3#c.3#c.3.3.3.H.U.M.M.C.o.b.b.b",
".c.b#G.p.N.K.K.U.H.3.G.1.8.7.7.7.7.7.7.7.8#u#J#q#A#q#u#u#z#z#u#t#z#u#u#R#q#A#l#J#P#P#D#u.3#c#c.3#c.3.3.3.G.3.3.H.U.M.K.C.o.b.b.b",
".c#G.b.p.C.K.K.I.H.G.G.3.F.7.7.7.8.7.7.8.7#F#t#q#A#q#u#u#t#t#u#t#z#u#z#q#h#h#n#t#D#t#J#u#U.3#c.3#c.3#c.3.3.3.3.H#o.M.M.C.p.b.b.c",
".a.a.a.n.B.K.K.V.4.1.0.1.8.7.8.7.7.7.7.8.8#u#q#A#q#q#u#F#F#u#u#F#F#u#t#q#n#l#l#J#P#u#F#i#i#U.3#c.3#c.3#c.3.G.3.H#o.M.M.z.n.a.a.a",
".d.d.e.r.z.J.J.I.0.8.F.8.8.7.7.7.8.7.8.8###l#q#A#q#F#u#J#J#L#L#J#J#u#J#F#n#g#g#h#l#l#V#V#i#i#U.3#c.3#c.3.3.3.G.H.I.K.J.z.m.d.d.d",
"Qt.g#W.l.z.L.K.S.1.7.7.7.7.8.7.8.7.7.7.8.3#q#q#A#q#J#L#L#L#X#V#L#L#L#J#J#l#n#n#h#l#R#q#w#V#i#i#b#c.3.3#c#Y#Y.0.H.U.K.K.z.lQtQtQt",
"Qt.g#W.l.z.L.M.U.1.7.7.8.7.7.7.8.7.7.7.8#q#q#q#O#u#L#X#X#X#X#V#V#w#w#u#J#n#g#g#h#l#R#q#V#U#d#d#i#b#c.3.3#Y.G.3.H.I.K.L.z.l.6QtQt",
".d.d.e.m.z.L.M.U.1.7.7.7.8.7.7.7.8.F.8#V#q#A#A#O#L#w#w#r#X#w#V#V#w#w#U#L#l#h#g#h#l#R#q#V#i#V#d#d#U.3#c.3.3.x.0.4.U.K.M.y.l.6QtQt",
".t.a.a.n.B.K.K.S.1.8.7.7.7.8.8.8.1.0#w#V#q#A#A#O#w#r#B#r#w#w#V#V#w#r#r#w#w#R#R#R#R#q#R#V#w#V#Z#d#i.3.G.O.F.F.F.0.U.K.J.z.lQtQtQt",
".b.b#G.p#M.J.J.S.1.7.7.8.7.7.7.8.3.G#i#V#q#A#A#O#w#B#B#r#U#w#V#0#X#r#B#B#r#w#w#O#O#O#w#w#V#w#Z#Z#d#b.G.0.F.7.7.0.T.K.L.z.lQtQtQt",
".c.b#G.p.C.M.J.T.1.8.7.7.7.8.9.8.1.G#i#V#w#A#O#O#w#w#w#w#w#X#0#1#2#r#B#B#B#w#w#X#O#O#w#w#V#w#Z#Z#Z#U.G.0.F.7.7.0.T.K.K.z.k.g.5Qt",
".b.b.b.p.C.K.K.T.1.7.7.8.8.8.8##.3.G#w#V#w#A#O#A#X#w#w#w#w#X#V#1#V#w#r#r#w#w#w#X#O#w#w#i#V#i#d#Z#Z#i#b.F.7.p.o##.T.K.K.y.l.g.gQt",
".b.b.b.o.C.M.M.V.1.8.7.8.1.1.3.1.3.3.G#w#V#B#O#A#V#V#X#V#V#V#3#1#1#w#w#w#X#3#3#3#1#w#i#B#V#i#b#i#i#i#b.9.E#4#4.9.C.J.J.z.mQtQtQt",
".b.b.b.o.C.K.M.V.1.7.7.8.3.3.G.3.3.3.G#w#i#V#B#i#1#F#S#J#S#3#3.8.0#V#3#3#F#J#S#F#3#B#B#V#i#Y.G#b#b#b#b#5#4.b.b.q.C.K.J.z.l.hQtQt",
".b.b.b.o.C.M.M.V.1.7.9.8.1.G.G.3.G.3.G.3#B#i#w#w#1#2#U#U#2#0#3.8.0.G.3#3#2#U#0#0#3#V#w#B#c.G.G.3.F.7.7.9#4.b.b.o.C.K.K.z.k.6.5Qt",
".a.a.a.r.C.M.M.U.3.8.8##.3.G.G.G.x.3.1.1###B#B#i###3#3#3#0#0#3.F.G.G.G#3#3#3#3#3#3#B#B.3.3.x.0##.F.7.7#6#4.b.b.o.C.K.J.z.l.6QtQt",
".d.d.e.r.z.J.K.U.P.1.1.3.3.3.3.3.F.8.8.F##.0#7#7#F#S#J#S#3#3#7#7#7#7#7#3#F#J#S#F#3#7.G.G.F.F.F.F.7.8.7.9#4.b.b.n.C.J.J.B.l.g.gQt",
"Qt.g#W.l.z.J.K.I.H.G.3.G.3.G.G.1.F.7#7#7#7#7#7#7#2#U#U#2#0#3#7#7#7#7#7#0#0#U#U#2#3#7#7#7#7#7.7.7.7.7.7#6#4.b.b.q.C.J.J.z.l.gQtQt",
"Qt.g#W.l.z.M.M.U.H.G.G.3.G.G.G.3#7#7#7#7#7#7#7#7#0#0#3#0#0#3#7#7#7#7#7#7#3#0#U#U#2#3#7#7#7#7#7#7.7.7.7#8#9.b.b.n.C.J.J.z.l.g.gQt",
".d.d.e.m.z.M.M.I.H.O.0.G.0.0.x#7#7#7#7#7#7#7#7#0#J#F#J#S#3#3#7#7#7#7#7#7#3#F#J#S#F#3#7#7#7#7#7#7#7.F.F.7.q#4#4.9.C.J.K.B.m.d.d.d",
".t.aa..n.C.K.M.I.H.3.G.0##.F#7#7#7#7#7#7#7#3#0#2#2#2#2#3#3#3#7#7#7#7#7#7#3#0#0#0#0#0#7#7#7#7#7#7#7#7.3##.9.o#6.F.T.K.K.B.n.a.a.a",
".b.b#G.p.C.K.M.I.H.3.G.3.8#7#7#7#7#7#7#7#7#3#U#i#i#U#2#0#0#3#7#7#7#7#7#7#3#0#w#U#U#2#0#7#7#7#7#7#7#7#7.0.F.7.7.0.T.K.K.C.p.b.c.c",
".c.c#G.p.C.M.M#o.H.3.G.0.8#7#7#7#7#7#7#7#7#3#2#2#2#0#0#3#7#7#7#7#7#7#7#7#7#3#i#i#i#X#3#7#7#7#7#7#7#7#7.3.F.7.7.0.T.K.K.C.p#G#G.c",
".a.a.a.n.H.I.I.C.2.1.0.1.8#7#7#7#7#7#7#7#7#f#3#3#3#f#7#7#7#7#7#7#7#7#7#7#7#3#U#U#U#2#3#7#7#7#7#7#7#7#7##.7#6#6.F#M.I.I.4a#.a.a.t",
".#.d.eaa.x.H.H.G.1.F.8.8.8#7#7#7#7#7#7#7#7#7#7#7#7#7#7#7#7#7#7#7#7#7#7#7#7#7#f#3#3#3#f#7#7#7#7#7#7#7#7.9.E#4ab.p.0#M#M.Raaac.d.d",
".e.g.g.kad.G.G.3.8.8.7.8.7.7#7#7#7#7#7#7#7#7#7#7#7#7#7#7#7#7#7#7#7#7#7#7#7#7#7#7#7#7#7#7#7#7#7#7#7#7.7#8ab.b#Gae.F.G.O.w.k.5QtQt",
".e.e.e.kaf.G.G.1.8.8.7.7.7.8.7#7#7#7#7#7#7#7#7#7#7#7#7#7#7#7#7#7#7#7#7#7#7#7#7#7#7#7#7#7#7#7#7#7#7.8.7.9ab.b.bae.F.2.2.w.k.5QtQt",
".e.f.dag.v##.8.8.v.n.oah#6.7#5#5#7#7#7#7#7#7#7#7#7#7#7#7#7#7#7#7#7#7#7#7#7#7#7#7#7#7#7#7#7#7#7#7.v.oaia##4.a.a.Qaj.F.R.vak.5QtQt",
".t.a.a.tal.E.E.Qamanagao#4alal.uaa.k#7#7#7#7#7#7#7#7#7#7#7#7#7#7#7#7#7#7#7#7#7#7#7#7#7#7#7#7.k.j.jagag.i.i.d.d.#.u.E.q.u.fQtQtQt",
".b.c.c.c.b.b.ba..e.e.e.e.a.b.c.a.dQt#Wac.a.b#7#7#7#7#7#7#7#7#7#7#7#7#7#7#7#7#7#7#7#7.c.a.d.g.g.g.gQtQtQt.h.h.h.d.a.b.b.a.dQtQtQt",
".c.c.c.c.b.c.b.t.#.e.e.f.a.c.c.a.dQtQt.d.a#G.b.a.d.hQt.d.a.c.b.b.b.c.b.b.b.b.c.b.b.b.b.a.d.g.gQtQtQtQtQtQt.h.h.d.a.c.b.a.d.h.hQt",
".b.b.c.b.b.c.b.t.e.e.g.e.t.c.c.a.dQtQt.d.a.c.b.a.d.hQt.d.a.c.c.c.c.b.c.b.c.c.b.c.c.b.b.t.dQtQtQtQtQtQtQtQtQt.h.d.a.c.c.a.dQtQtQt"};
