/* XPM */
static char *dummy[]={
"64 64 140 2",
"#X c #000000",
"#p c #001111",
"#k c #002b2b",
"#J c #005477",
"#o c #005e7f",
"#r c #007faa",
"#K c #00e200",
"#g c #080808",
"#V c #0f0e11",
"#y c #190700",
"#l c #1e424f",
"#m c #212828",
"#1 c #260c0c",
"#0 c #26252c",
"#Z c #35353a",
"#5 c #35383f",
".5 c #383f4a",
".g c #383f4b",
"#M c #383f4c",
".4 c #38404c",
".e c #393f4b",
"Qt c #3a404b",
".h c #3a404c",
"#9 c #3d4046",
".d c #3d4047",
"#v c #3d5358",
".f c #3f4148",
".i c #404248",
"af c #424349",
".# c #434245",
"ai c #43434a",
"ab c #44434a",
"#d c #444448",
".j c #44444b",
"#4 c #46413d",
".a c #46413e",
"#z c #470000",
".s c #474242",
"ah c #474548",
".k c #47464d",
"#7 c #494649",
"#t c #4a4138",
".b c #4a423a",
".t c #4a433e",
"aj c #4b4440",
".l c #4b4951",
".c c #4c423a",
".m c #4d484c",
".u c #4e4541",
"#S c #4f443c",
"#8 c #50443c",
"#3 c #50453d",
"ag c #51453d",
".Q c #514743",
"#L c #51545b",
"a# c #53463f",
"#N c #535353",
".E c #54473f",
"#6 c #544845",
".n c #544946",
".q c #554840",
".r c #554a47",
"#Y c #562f1d",
".p c #584a43",
".o c #584a44",
"ad c #584a47",
".D c #584d4d",
".v c #5a4d4b",
"#T c #5b4b44",
"ac c #5b4c48",
"#W c #5c4b43",
"#2 c #5d4b43",
".8 c #5e4d45",
"ae c #5e4d48",
"aa c #5f4f4d",
".6 c #614d45",
".w c #61514f",
"#c c #635049",
"#s c #637a82",
".7 c #644f48",
"a. c #645352",
".x c #655451",
".F c #66514a",
"## c #67524b",
".R c #67544f",
"#w c #68524b",
".0 c #68534c",
"#u c #69534d",
".Z c #69544d",
".O c #6c564f",
".2 c #6c5650",
".y c #6c5959",
".W c #6d3300",
"#O c #6d5650",
"#b c #6e5651",
".1 c #6e5751",
".G c #6f5750",
".3 c #6f5a56",
".P c #705853",
".A c #705c5c",
".z c #705c5d",
".B c #715c5b",
"#q c #72472d",
".H c #725a55",
"#B c #735a54",
".N c #745b56",
".C c #745d59",
"#n c #750000",
"#A c #755c57",
".S c #785e5a",
"#i c #797a7c",
".V c #7a5f5b",
".T c #7a605b",
".U c #7a605c",
"#. c #7c615d",
"#h c #7d625e",
".I c #7e625e",
".M c #826663",
".K c #836663",
".L c #836764",
"#U c #838384",
"#x c #84393a",
".J c #846763",
"#Q c #870000",
"#H c #946c45",
".X c #996314",
"#f c #9e99a6",
"#R c #adb2af",
"#F c #af001c",
"#I c #c09d7b",
"#C c #c46555",
"#G c #c91c23",
"#e c #ccd3d6",
".Y c #d19e30",
"#j c #e5f4ff",
"#P c #ef0c23",
"#D c #f78c6b",
"#a c #f9edd6",
".9 c #fcd670",
"#E c #ffd8ce",
"QtQtQtQtQtQtQtQtQtQtQtQtQtQtQtQtQtQtQt.#.a.b.b.b.b.b.b.c.b.b.b.b.b.b.b.a.d.e.f.g.f.e.h.hQtQt.f.gQt.f.e.h.f.gQtQtQtQt.f.d.a.c.c.b",
"QtQtQtQtQtQtQt.gQt.gQt.g.gQt.g.g.g.g.g.d.a.b.b.b.b.b.b.b.b.b.b.b.b.b.b.a.e.e.g.g.g.g.e.gQt.g.g.g.g.g.e.e.g.g.g.g.gQt.g.d.a.c.c.c",
".h.hQtQtQt.g.gQt.gQtQt.g.g.g.g.g.g.g.g.d.a.b.b.b.b.b.b.b.b.b.b.b.b.b.b.a.e.g.g.g.g.g.g.g.g.g.g.g.g.g.e.e.g.g.g.g.g.g.g.d.a.c.c.c",
".d.d.d.i.j.j.k.k.k.l.l.l.m.l.l.m.l.l.l.m.n.o.p.o.o.o.q.p.o.o.o.o.o.o.p.n.r.l.l.l.l.l.l.l.l.l.l.l.l.l.l.l.l.l.l.l.k.k.k.j.s.a.t.a",
".t.a.a.u.v.w.w.x.y.z.z.z.y.z.z.z.z.A.A.B.B.C.C.C.C.C.C.C.C.C.C.C.C.C.C.C.z.A.A.A.y.z.z.z.z.z.z.y.A.A.z.z.z.z.z.y.x.w.w.D.j.d.d.d",
".c.b.b.E.F.G.G.H.I.J.J.K.L.L.L.L.K.J.K.K.J.M.M.M.M.M.L.M.M.M.M.M.M.M.M.L.J.J.K.J.K.K.L.M.J.L.L.K.K.K.K.J.K.J.L.I.N.G.G.w.k.gQtQt",
".c.c.b.E.F.G.O.H.I.J.K.K.K.K.J.J.L.K.K.K.K.K.M.M.M.M.M.M.M.M.M.M.M.M.M.M.K.K.K.K.K.K.K.K.K.K.K.K.K.M.M.K.K.K.K.I.P.O.O.w.kQtQt.h",
".a.a.a.Q.R.H.H.N.S.T.T.T.T.T.T.T.U.V.S.V.U.I.U.I.V.V.V.V.V.W.W.X.X.X.X.V.X.Y.Y.X.I.U.I.U.I.I.I.U.V.V.V.U.I.I.U.S.N.N.H.x.k.g.gQt",
".d.d.d.m.y.I.I.S.G.Z.Z.Z.Z.Z.Z.Z.0.0.Z.G.1.H.H.P.2.0.0.W.X.X.X.X.X.X.X.X.X.H.H.H.X.H.H.H.H.H.H.3.2.0.0.2.G.H.H.H.V.M.I.y.k.g.g.f",
"Qt.4.5.l.z.J.K.T.0.6.6.6.6.6.6.6.6.6.6.7.0.G.G.x.7.6.W.X.X.Y.Y.X.X.Y.Y.Y.Y.X.G.Z.G.2.2.2.2.2.2.0.7.6.6.7.0.2.G.H.V.M.K.B.l.g.e.e",
"QtQt.5.l.z.J.K.T.Z.6.6.6.6.6.6.6.6.6.8.7.2.G.2.0.7.W.X.X.Y.Y.X.Y.Y.9.Y.9.9.Y.X.2.2.2.2.2.2.2.G.x.7.6.8.7.2.2.Z.H#..K.J.B.l.e.e.e",
"Qt.5Qt.l.B.J.K.T.Z.6.6.6.7.6.6.7.7.F.7.F##.2.2##.W.X.X.Y.Y.9#a.9.9.9#a.Y.9.9.Y.X.2.2.G.2.2.2.G.2.F.7.7.F.2.2.G.3.I.J.K.B.l.e.e.h",
"Qt.5.5.l.z.K.K.T.Z.6.6.7.6.6.6.F##.0.2##.F.F.7.7.W.X.W.Y.9#a.9.Y.Y.9#a#a#a.Y.X.X.X.G.2.2#b.2.2.2.Z.0.2.2.2.2.2.H.I.K.L.z.l.g.gQt",
"QtQt.5.l.z.J.K.T.Z.6.6.6.6.7.6.F.2.G.G.2.7.6.6.W.X.W.X.Y#a#a.Y#a#a.9#a.9#a.9.Y.X.X.2.G.2.2#b#b.2.G.G.2.2.G.2.2.H.U.K.L.z.l.g.gQt",
"Qt.5.5.l.z.K.K.U.Z.6.6.6.6.6.6.F.2.G.G.Z.F.6.6.W.W.W.Y.9#a.Y#a#a.9#a#a.Y#a.Y.9.Y.X.2.2.2.2#b.2#b.2.2.G.2.2.2.G.H.I.K.L.z.l.e.g.f",
"QtQt.5.l.z.K.K.U.Z.6.6.6.7.F.7.F.0.0.2.0.7.6.W.W.W.X.Y.Y#a.Y#a.9.9#a.9.9.Y.Y.9.Y.X.2.G.2#b.2#b.2.2.G.2.2.2.G.2.H.U.K.L.y.l.e.e.e",
"Qt.gQt.m.y.L.L.U.Z.6.6.7##.Z.2##.F#c.7.7.7.6.7.6.X.Y.W.X.9.Y.9.9.9#a.9.9.Y.X.9.Y.W#b.2#b#b.2.2#b#d#d#d.2.2.2.2.H.U.M.L.z.l.g.gQt",
"QtQtQt.l.z.L.K.U.Z.6.6.F.Z.G.G.Z.F.6.7.6.6.6.7.6.W.W.X.X.Y.Y.9.9.Y.9.9.9.Y.X.Y.Y.W.2#b.2.2.2#b#d#e#f#d#b.2.2.2.H.I.M.M.z.l.gQtQt",
"Qt.g.g.l.z.K.K.U.Z.6.6.F.2.G.G.2.7.6.6.6.6.7.6.W.W.X.X.X.Y.X.Y.9.Y.9.9.Y.X.X.Y.X.2#b#b.2#b.2#g#e#g#e#d.1.G.2.2.H.U.M.M.z.m.g.gQt",
"Qt.g.g.k.z.K.K.U.Z.7.7.F.0.Z.2##.7.6.7.6.6.6.6.7.7.W.X.X.X.X.Y.9.Y.Y.Y.X.X.X.Y#d#d#d#g#b.2#g#d#f#e#d#b.2.2.2.2.H#h.M.M.z.l.gQtQt",
"QtQtQt.l.z.K.K.I.1.Z.Z.Z.F.F.7.F.6.7.6.7.7.6.6.F##.2.X.W.X.X.W.Y.Y.Y.X#d#d#f#e#d#g.2#b.2#g#f#i#g.1.2#b.2#b.2.G.H.I.K.J.z.l.g.gQt",
"QtQtQt.l.z.K.K.U.H.G.1.2.7.6.6.6.6.6.6.6.6.6.6#c.2.G.W.X.W.X.W.X.Y.X#d#d#f#j#d#g.2#b.2#g#d#d#g.2.2#b.2#b#b.2.Z.H.I.K.J.z.l.e.g.h",
"QtQt.5.k.z.K.K.I.H.G.G.Z.7.6.6.6.7.6.7.6.6.6.6.F.Z.G#k#l.W.W.X.W.X#d#i#e#j#e#g#k.2#b#g#d#f#g.2#b.2#b.2.2.2#b.2.H.T.K.J.z.l.g.g.h",
"Qt.5Qt.l.z.K.K.U.P.Z.Z.0.F.7#c.F.7.6.6.6.7.F.7.F.0#k#k#m#l.W.W.W#d#i#e#j#e#d#n#k#k#d#d#f#d#b.2.2.1.2#b.2.2.2.2.B.I.K.J.z.m.d.d.d",
"QtQt.5.k.z.J.J.U.O.7.7.F.Z.Z.O.Z.F.6.6.F##.Z.2.0#k#o#k#p#l#k.W#d#d#e#j#j#i#g#g#g#i#f#d#d#g.2.2#b#b.2.2.2.2.2.2.H.U.K.K.B.n.a.a.t",
"Qt.4Qt.l.z.L.K.T.Z.6.6.7.Z.1.G.Z.7.6.6.F.2.G.G#k#q#k#r#p#k#r#s#d#f#j#j#i#d#i#i#i#d#i#f#g.2#b#b.2.2.2#b.G.G.2.2.H.U.K.K.C.p.c#t.b",
"Qt.4.4.l.y.L.L.U#u.6.6.7.O.1.1.Z.F.6.6.7.2.G#k#l#l#v#k#p#k#v#v#f#j#j#e#d#e#f#d#d#i#f#f#g#b.2.2#b#b.2.2.2.2.2.2.H.I.K.K.H.p#t.b.b",
".d.d.d.m.z.K.L.U.Z.7.7.F.Z.Z.Z#w.7.6.6.7.0.Z#k#l#v#v#v#p#p#k#d#j#j#j#i#j#f#g#g#g#d#e#i#b.2#b#b.2.2#b.2.G.2.2.2.H.I.K.K.B.p.b.b.b",
".a.a.a.n.B.J.L.U.P.Z.Z.Z.F.F.F.7.6.6.6.7.F.7#x#k#k#l#l#k#p#d#e#j#f#f#j#g#y#z#g#g#j#f#g.2#b.2#b.2#b.2.2#b.2.2.2.H.I.M.M.C.p.b.b.b",
".b.b#t.p#A.K.L.U#B.1.1.Z.F.6.6.7.6.7.6.7.6#x#C#D#x#k#k#n#d#f#j#e#i#e#i#g#g#g#g#f#e#i#g#g#g#b.2#b.2#b#b.2.2.2.2.H.U.M.M.C.p.b.b.b",
".b.b.b.p#A.K.K.I.H.1.O.Z#c.6.6.6.6.6.7.6.6#C#D#E#D#x#n#F#i#j#j#f#d#e#f#g#g#g#f#j#g#g#d#g#G#b#b.2.2#b.2#b.2.2.G.H.I.M.M.C.q.b.b.b",
".c.b.b.p#A.K.K.U.H.O.G.Z.F.6.6.6.7.6.6.6.6#H#I#I#H#x#z#d#f#j#j#d#j#f#g#f#i#j#e#d#d#i#d#g#g.2.2.2#b.2#b.2.G.2.2.H.U.M.M.C.o#t.b.b",
".b.b.b.p.B.K.K.I.H.2.G.Z.7.7.6.7.6.7.7.6.6#H#s#s#v#n#F#i#e#j#i#j#j#g#e#f#e#f#i#d#g#J#d#G#g.2.2#b.2#b.2#b.2.2.2.H.U.M.M.C.o.b.b.b",
".c.b#t.p.N.K.K.U.H.2.G.0.7.6.6.6.6.6.6.6.7#k#s#I#n#n#d#i#e#d#d#j#g#j#j#f#d#g#d#g#J#K#i#g.2#b#b.2#b.2.2.2.G.2.2.H.U.M.K.C.o.b.b.b",
".c#t.b.p.C.K.K.I.H.G.G.2.F.6.6.6.7.6.6.7.6#k#H#z#n#n#d#i#d#i#j#g#j#j#f#d#g#g#d#g#i#i#g.2#b.2#b.2#b.2#b.2.2.2.2.H#h.M.M.C.p.b.b.c",
".a.a.a.n.B.K.K.V.3.0.Z.0.7.6.7.6.6.6.6.7.7.7#z#z#z#d#i#f#j#j#g#j#d#z#z#F#g#i#i#L#g#C#x#b.2#b.2#b.2#b.2#b.2.G.2.H#h.M.M.z.n.a.a.a",
".d.d.e.r.z.J.J.I.Z.7.F.7.7.6.6.6.7.6.7.7#m#m#n#z#d#f#e#j#j#g#j#d#F#z#z#g#d#d#g#F#F#n#x.2.2.2.2.2#b.2#b.2.2.2.G.H.I.K.J.z.m.d.d.d",
"Qt.g#M.l.z.L.K.S.0.6.6.6.6.7.6.7.6.6.6#m#N#n#z#d#f#j#j#j#g#j#j#F#F#z#z#z#z#z#z#z#z#z#z#z.2.G.2.2#b.2.2#b#O#O.Z.H.U.K.K.z.lQtQtQt",
"Qt.g#M.l.z.L.M.U.0.6.6.7.6.6.6.7.6.6.6#N#m#d#f#e#j#j#j#g#j#j#d#F#F#P#z#z#n#z#z#z#z#z#z#z#z#z.2.3.2#b.2.2#O.G.2.H.I.K.L.z.l.5QtQt",
".d.d.e.m.z.L.M.U.0.6.6.6.7.6.6.6.7.F.7#i#i#j#j#j#e#d#g#j#j#f#F#F#P#P#z#z#n#n#F#F#P#F#z#z#z#z#z#b#b.2#b.2.2.x.Z.3.U.K.M.y.l.5QtQt",
".t.a.a.n.B.K.K.S.0.7.6.6.6.7.7.7.0.Z#m#f#j#j#f#g#g#g#d#j#e#d#F#F#P#P#P#z#z#n#F#F#P#P#F#n#m#z#z#z.G.2.G.O.F.F.F.Z.U.K.J.z.lQtQtQt",
".b.b#t.p#A.J.J.S.0.6.6.7.6.6.6.7.2.G#i#j#j#f#g#g#g#g#e#e#d#n#F#F#P#P#P#P#z#z#n#F#P#P#F#n#m#N#z#z#z.G.G.Z.F.6.6.Z.T.K.L.z.lQtQtQt",
".c.b#t.p.C.M.J.T.0.7.6.6.6.7.8.7.0#d#e#j#f#g#g#P#g#g#j#f#n#Q#F#F#P#P#P#P#F#n#n#Q#F#F#F#N#m#N#z#z#z.G.G.Z.F.6.6.Z.T.K.K.z.k.g.4Qt",
".b.b.b.p.C.K.K.T.0.6.6.7.7.7.7##.2#e#j#f#g#g#g#g#f#j#f#n#n#n#n#F#F#P#P#P#F#F#n#n#n#F#P#P#P#R#R#z#z.Z.Z.F.6.p.o##.T.K.K.y.l.g.gQt",
".b.b.b.o.C.M.M.V.0.7.6.7.0.0.2.0.2#j#e#i#g#g#g#f#j#e#d#N#N#n#n#F#F#P#P#P#P#F#F#n#n#z#z#F#N#F#R#R#z.F.F.8.E#S#S.8.C.J.J.z.mQtQtQt",
".b.b.b.o.C.K.M.V.0.6.6.7.2.2.G.2#d#j#e#i#i#f#j#j#e#d#m#m#m#N#N#i#i#P#P#P#P#F#N#N#i#n#F#F#m#m#F#R#R.6.6#T#S.b.b.q.C.K.J.z.l.hQtQt",
".b.b.b.o.C.M.M.V.0.6.8.7.0.G.G.2#i#j#e#e#e#j#j#f#d#N#N#N#N#m#m#m#m#i#R#R#R#i#m#m#N#N#i#n#n#F#U#U.F.6.6.8#S.b.b.o.C.K.K.z.k.5.4Qt",
".a.a.a.r.C.M.M.U.2.7.7##.2.G.G#d#f#j#j#j#j#f#d#d#N#V#V#V#V#N#N#i#i#m#m#m#m#m#i#i#i#R#R.2.2#N#z#z.F.6.6#W#S.b.b.o.C.K.J.z.l.5QtQt",
".d.d.e.r.z.J.K.U.P.0.0.2.2.2.2#d#e#j#e#e#i#d#X#X#V#q#H#q#Y#V#X#X#X#i#R#R#R#i#i#Y#X#X.G.G.F#N.F#z.6.7.6.8#S.b.b.n.C.J.J.B.l.g.gQt",
"Qt.g#M.l.z.J.K.I.H.G.2.G.2.G#d#i#e#f#i#d#X#X#X#X#V#Z#L#L#0#0#X#X#X#X#X#V#0#Z#L#L#X#X#X#X#X#N#N.6.6.6.6#W#S.b.b.q.C.J.J.z.l.gQtQt",
"Qt.g#M.l.z.M.M.U.H.G.G.2.G.G#d#f#i#d#X#X#X#X#X#V#Z#L#L#0#V#X#X#X#X#X#X#1#0#0#V#0#V#X#X#X#X#N#N#X.6.6.6#2#3.b.b.n.C.J.J.z.l.g.gQt",
".d.d.e.m.z.M.M.I.H.O.Z.G.Z.Z.x#X#X#X#X#X#X#X#X#V#q#H#q#Y#1#X#X#X#X#X#X#V#Y#Y#H#q#V#X#X#X#X#N#X#X#X.F.F.6.q#S#S.8.C.J.K.B.m.d.d.d",
".t.a#4.n.C.K.M.I.H.2.G.Z##.F#X#X#X#X#X#X#X#X#X#0#0#0#0#0#V#X#X#X#X#X#X#V#V#V#5#Z#0#V#V#X#X#X#X#X#X#X.2##.8.o#W.F.T.K.K.B.n.a.a.a",
".b.b#t.p.C.K.M.I.H.2.G.2.7#X#X#X#X#X#X#X#X#X#X#V#5#L#Z#5#0#V#X#X#X#X#X#V#0#N#L#N#5#0#V#X#X#X#X#X#X#X#X.Z.F.6.6.Z.T.K.K.C.p.b.c.c",
".c.c#t.p.C.M.M#h.H.2.G.Z.7#X#X#X#X#X#X#X#X#X#X#V#Z#i#L#L#0#V#X#X#X#X#X#V#0#i#i#N#Z#V#V#X#X#X#X#X#X#X#X.2.F.6.6.Z.T.K.K.C.p#t#t.c",
".a.a.a.n.H.I.I.C.1.0.Z.0.7#X#X#X#X#X#X#X#X#X#X#V#Z#i#i#L#0#V#X#X#X#X#X#V#0#i#i#L#V#V#X#X#X#X#X#X#X#X#X##.6#W#W.F#A.I.I.3#6.a.a.t",
".#.d.e#7.x.H.H.G.0.F.7.7.7#X#X#X#X#X#X#X#X#X#X#g#V#V#V#V#g#X#X#X#X#X#X#X#g#V#V#V#g#X#X#X#X#X#X#X#X#X#X.8.E#S#8.p.Z#A#A.R#7#9.d.d",
".e.g.g.ka..G.G.2.7.7.6.7.6.6#X#X#X#X#X#X#X#X#X#X#X#X#X#X#X#X#X#X#X#X#X#X#X#X#X#X#X#X#X#X#X#X#X#X#X#X.6#2#8.b#ta#.F.G.O.w.k.4QtQt",
".e.e.e.kaa.G.G.0.7.7.6.6.6.7.6#X#X#X#X#X#X#X#X#X#X#X#X#X#X#X#X#X#X#X#X#X#X#X#X#X#X#X#X#X#X#X#X#X#X.7.6.8#8.b.ba#.F.1.1.w.k.4QtQt",
".e.f.dab.v##.7.7.v.n.oac#W.6#T#T#X#X#X#X#X#X#X#X#X#X#X#X#X#X#X#X#X#X#X#X#X#X#X#X#X#X#X#X#X#X#X#X.v.oad#6#S.a.a.Qae.F.R.vaf.4QtQt",
".t.a.a.tag.E.E.Qahaiabaj#Sagag.u#7.k#X#X#X#X#X#X#X#X#X#X#X#X#X#X#X#X#X#X#X#X#X#X#X#X#X#X#X#X.k.j.jabab.i.i.d.d.#.u.E.q.u.fQtQtQt",
".b.c.c.c.b.b.b#4.e.e.e.e.a.b.c.a.dQt#M#9.a.b#X#X#X#X#X#X#X#X#X#X#X#X#X#X#X#X#X#X#X#X.c.a.d.g.g.g.gQtQtQt.h.h.h.d.a.b.b.a.dQtQtQt",
".c.c.c.c.b.c.b.t.#.e.e.f.a.c.c.a.dQtQt.d.a#t.b.a.d.hQt.d.a.c.b.b.b.c.b.b.b.b.c.b.b.b.b.a.d.g.gQtQtQtQtQtQt.h.h.d.a.c.b.a.d.h.hQt",
".b.b.c.b.b.c.b.t.e.e.g.e.t.c.c.a.dQtQt.d.a.c.b.a.d.hQt.d.a.c.c.c.c.b.c.b.c.c.b.c.c.b.b.t.dQtQtQtQtQtQtQtQtQt.h.d.a.c.c.a.dQtQtQt"};
