/* XPM */
static char *dummy[]={
"64 64 144 2",
"#4 c #000000",
"#r c #001111",
"#q c #002b2b",
"#y c #005e7f",
"#z c #007faa",
"#g c #080808",
"#0 c #0f0e11",
"#u c #1e424f",
"#T c #212828",
"#p c #260c0c",
"#3 c #26252c",
"#V c #35353a",
"#S c #35383f",
".4 c #383f4a",
".g c #383f4b",
"#R c #383f4c",
".3 c #38404c",
".e c #393f4b",
"Qt c #3a404b",
".h c #3a404c",
"a# c #3d4046",
".d c #3d4047",
"#t c #3d5358",
".f c #3f4148",
".i c #404248",
"aj c #424349",
".# c #434245",
"am c #43434a",
"ae c #44434a",
"#G c #444448",
".j c #44444b",
"#7 c #46413d",
".a c #46413e",
"#M c #470000",
".s c #474242",
"al c #474548",
".k c #47464d",
"#l c #494482",
"#9 c #494649",
"#n c #4a2121",
"#B c #4a4138",
".b c #4a423a",
".t c #4a433e",
"an c #4b4440",
".l c #4b4951",
".c c #4c423a",
".m c #4d484c",
".u c #4e4541",
"#1 c #4f443c",
"a. c #50443c",
"#6 c #50453d",
"ak c #51453d",
".Q c #514743",
"#Y c #51545b",
"ac c #53463f",
"#W c #535353",
".E c #54473f",
"#8 c #544845",
".n c #544946",
".q c #554840",
".r c #554a47",
"#2 c #562f1d",
".p c #584a43",
".o c #584a44",
"ah c #584a47",
".D c #584d4d",
".v c #5a4d4b",
"ag c #5b4b44",
"af c #5b4c48",
"#5 c #5c4b43",
"ab c #5d4b43",
".8 c #5e4d45",
"ai c #5e4d48",
"ad c #5f4f4d",
".5 c #614d45",
".w c #61514f",
"#e c #635049",
"#D c #637a82",
".6 c #644f48",
"aa c #645352",
".x c #655451",
".F c #66514a",
"## c #67524b",
".R c #67544f",
"#E c #68524b",
".Z c #68534c",
"#C c #69534d",
".Y c #69544d",
".O c #6c564f",
".2 c #6c5650",
".y c #6c5959",
".X c #6d3300",
"#U c #6d5650",
"#b c #6e5651",
".0 c #6e5751",
".G c #6f5750",
".1 c #6f5a56",
".P c #705853",
".A c #705c5c",
".z c #705c5d",
".B c #715c5b",
"#A c #72472d",
".H c #725a55",
"#i c #7291ea",
"#I c #735a54",
".N c #745b56",
".C c #745d59",
"#s c #750000",
"#H c #755c57",
".S c #785e5a",
"#K c #797a7c",
".V c #7a5f5b",
".T c #7a605b",
".U c #7a605c",
"#. c #7c615d",
"#o c #7d625e",
".I c #7e625e",
".M c #826663",
".K c #836663",
".L c #836764",
"#v c #838384",
"#f c #84393a",
".J c #846763",
"#Z c #870000",
"#L c #8e3314",
"#F c #946c45",
"#m c #96b2ff",
".W c #996314",
"#O c #9e99a6",
"#w c #adb2af",
"#Q c #af001c",
"#N c #c09d7b",
"#h c #c1bfbc",
"#d c #c46555",
"#P c #c65619",
".7 c #d19e30",
"#j c #e5f4ff",
"#X c #ef0c23",
"#J c #f78c6b",
"#a c #f9edd6",
".9 c #fcd670",
"#x c #ff7084",
"#c c #ffa893",
"#k c #ffd8ce",
"QtQtQtQtQtQtQtQtQtQtQtQtQtQtQtQtQtQtQt.#.a.b.b.b.b.b.b.c.b.b.b.b.b.b.b.a.d.e.f.g.f.e.h.hQtQt.f.gQt.f.e.h.f.gQtQtQtQt.f.d.a.c.c.b",
"QtQtQtQtQtQtQt.gQt.gQt.g.gQt.g.g.g.g.g.d.a.b.b.b.b.b.b.b.b.b.b.b.b.b.b.a.e.e.g.g.g.g.e.gQt.g.g.g.g.g.e.e.g.g.g.g.gQt.g.d.a.c.c.c",
".h.hQtQtQt.g.gQt.gQtQt.g.g.g.g.g.g.g.g.d.a.b.b.b.b.b.b.b.b.b.b.b.b.b.b.a.e.g.g.g.g.g.g.g.g.g.g.g.g.g.e.e.g.g.g.g.g.g.g.d.a.c.c.c",
".d.d.d.i.j.j.k.k.k.l.l.l.m.l.l.m.l.l.l.m.n.o.p.o.o.o.q.p.o.o.o.o.o.o.p.n.r.l.l.l.l.l.l.l.l.l.l.l.l.l.l.l.l.l.l.l.k.k.k.j.s.a.t.a",
".t.a.a.u.v.w.w.x.y.z.z.z.y.z.z.z.z.A.A.B.B.C.C.C.C.C.C.C.C.C.C.C.C.C.C.C.z.A.A.A.y.z.z.z.z.z.z.y.A.A.z.z.z.z.z.y.x.w.w.D.j.d.d.d",
".c.b.b.E.F.G.G.H.I.J.J.K.L.L.L.L.K.J.K.K.J.M.M.M.M.M.L.M.M.M.M.M.M.M.M.L.J.J.K.J.K.K.L.M.J.L.L.K.K.K.K.J.K.J.L.I.N.G.G.w.k.gQtQt",
".c.c.b.E.F.G.O.H.I.J.K.K.K.K.J.J.L.K.K.K.K.K.M.M.M.M.M.M.M.M.M.M.M.M.M.M.K.K.K.K.K.K.K.K.K.K.K.K.K.M.M.K.K.K.K.I.P.O.O.w.kQtQt.h",
".a.a.a.Q.R.H.H.N.S.T.T.T.T.T.T.T.U.V.S.V.U.I.U.I.W.W.W.W.V.V.X.X.X.X.X.V.V.I.V.I.I.U.I.U.I.I.I.U.V.V.V.U.I.I.U.S.N.N.H.x.k.g.gQt",
".d.d.d.m.y.I.I.S.G.Y.Y.Y.Y.Y.Y.Y.Z.Z.Y.G.0.H.H.W.X.X.X.W.X.W.W.W.W.W.W.W.X.H.H.H.H.H.H.H.H.H.H.1.2.Z.Z.2.G.H.H.H.V.M.I.y.k.g.g.f",
"Qt.3.4.l.z.J.K.T.Z.5.5.5.5.5.5.5.5.5.5.6.Z.G.G.X.6.5.W.7.7.W.7.7.W.7.7.W.W.X.G.Y.G.2.2.2.2.2.2.Z.6.5.5.6.Z.2.G.H.V.M.K.B.l.g.e.e",
"QtQt.4.l.z.J.K.T.Y.5.5.5.5.5.5.5.5.5.8.6.2.G.2.Z.6.W.7.9.9.7.9.9.7.W.7.7.W.W.X.2.2.2.2.2.2.2.G.x.6.5.8.6.2.2.Y.H#..K.J.B.l.e.e.e",
"Qt.4Qt.l.B.J.K.T.Y.5.5.5.6.5.5.6.6.F.6.F##.2.2##.W.7.9.9.7.9.9.9.9.9.W.7.7.W.W.X.2.2.G.2.2.2.G.2.F.6.6.F.2.2.G.1.I.J.K.B.l.e.e.h",
"Qt.4.4.l.z.K.K.T.Y.5.5.6.5.5.5.F##.Z.2##.F.F.6.W.7.W.7.9#a.9.9#a.7.9.9.7.7.X.W.X.2.G.2.2#b.2.2.2.Y.Z.2.2.2.2.2.H.I.K.L.z.l.g.gQt",
"QtQt.4.l.z.J.K.T.Y.5.5.5.5.6.5.F.2.G.G.2.6.5.X.X.X.7.9.9#a.9.7#a.9.7.9.7.7.7.X.W.X.2.G.2.2#b#b.2.G.G.2.2.G.2.2.H.U.K.L.z.l.g.gQt",
"Qt.4.4.l.z.K.K.U.Y.5.5.5.5.5.5.F.2.G.G.Y.F.5.5.5.7.9#a.9#a#a.W.7#a.9.9.9.W.7.W.X.X.2.2.2.2#b.2#b.2.2.G.2.2.2.G.H.I.K.L.z.l.e.g.f",
"QtQt.4.l.z.K.K.U.Y.5.5.5.6.F.6.F.Z.Z.2.Z.6.5.5.W.7.9#a.9.7#a#c#d.W.9.7.9.X.W.W.X.X.X.G.2#b.2#b.2.2.G.2.2.2.G.2.H.U.K.L.y.l.e.e.e",
"Qt.gQt.m.y.L.L.U.Y.5.5.6##.Y.2##.F#e.6.6.6.5.W.7.W.9#a.7.W.9#f#g#g#h.W.9.W.X.W.W.X#b.2#b#b.2.2#b.G.2.0.2.2.2.2.H.U.M.L.z.l.g.gQt",
"QtQtQt.l.z.L.K.U.Y.5.5.F.Y.G.G.Y.F.5.6.5.5.5.6.5.W.7#a.X#d.7#c#g#i#j#g.7#d.W.X.W.X.2#b.2.2.2#b.2.2.2.2#b.2.2.2.H.I.M.M.z.l.gQtQt",
"Qt.g.g.l.z.K.K.U.Y.5.5.F.2.G.G.2.6.5.5.5.5.6.5.5.6.7.9.X#c#c#k#l#m#c#n.7#d.W.X#b.X#b#b.2#b.2.2#b.2#b.2.0.G.2.2.H.U.M.M.z.m.g.gQt",
"Qt.g.g.k.z.K.K.U.Y.6.6.F.Z.Y.2##.6.5.6.5.5.5.5.6.6.W.9.X#c#k#k#k#k#d#n.W.X.W.X.2.2.2.2#b.2#b#b.2.2.2#b.2.2.2.2.H#o.M.M.z.l.gQtQt",
"QtQtQt.l.z.K.K.I.0.Y.Y.Y.F.F.6.F.5.6.5.6.6.5.5.F##.2.7.X#d#k#k#k#c#f#n.X.X.X.2#b#b.2#b.2#b.2#b#b.0.2#b.2#b.2.G.H.I.K.J.z.l.g.gQt",
"QtQtQt.l.z.K.K.U.H.G.0.2.6.5.5.5.5.5.5.5.5.5.5#e.2.G.W.2#n#d#c#d#f#n#p.X#q#b#b.2.2#b.2#b.2#b.2.2.2#b.2#b#b.2.Y.H.I.K.J.z.l.e.g.h",
"QtQt.4.k.z.K.K.I.H.G.G.Y.6.5.5.5.6.5.6.5.5.5.5.F.Y.G.G#n#n#q#n#n#n#p#q#q#q#r.2#b.2#b#b.2#b.2.2#b.2#b.2.2.2#b.2.H.T.K.J.z.l.g.g.h",
"Qt.4Qt.l.z.K.K.U.P.Y.Y.Z.F.6#e.F.6.5.5.5.6.F.6.F.Z.2.Z#s#q#t#t#p#p#u#t#q#q#r#r.2#b.2#b.2.2#b.2.2.0.2#b.2.2.2.2.B.I.K.J.z.m.d.d.d",
"QtQt.4.k.z.J.J.U.O.6.6.F.Y.Y.O.Y.F.5.5.F##.Y.2.Z##.F.6#r#v#w#w#v#x#u#t#q#y#q#r.2.2#b.2.2#b.2.2#b#b.2.2.2.2.2.2.H.U.K.K.B.n.a.a.t",
"Qt.3Qt.l.z.L.K.T.Y.5.5.6.Y.0.G.Y.6.5.5.F.2.G.G.Z.6.5#r#t#q#q#t#q#q#q#t#z#q#A#q.2#b.2.2#b.2#b#b.2.2.2#b.G.G.2.2.H.U.K.K.C.p.c#B.b",
"Qt.3.3.l.y.L.L.U#C.5.5.6.O.0.0.Y.F.5.5.6.2.G.G.Y.F.5#r#A#q#t#D#D#q#t#q#t#u#u#q.2.2#b.2.2#b.2.2#b#b.2.2.2.2.2.2.H.I.K.K.H.p#B.b.b",
".d.d.d.m.z.K.L.U.Y.6.6.F.Y.Y.Y#E.6.5.5.6.Z.Y.Y.Z.F.6#r#u#q#F#A#t#t#q#t#t#t#u#q.2#b.2#b#b.2#b#b.2.2#b.2.G.2.2.2.H.I.K.K.B.p.b.b.b",
".a.a.a.n.B.J.L.U.P.Y.Y.Y.F.F.F.6.5.5.5.6.F.6.F.F##.Y#r#A#q#t#u#u#q#q#u#u#q#q#f#G#b.2#b.2#b.2#b.2#b.2.2#b.2.2.2.H.I.M.M.C.p.b.b.b",
".b.b#B.p#H.K.L.U#I.0.0.Y.F.5.5.6.5.6.5.6.5.5.5.6.2.G#r#u#q#F#A#u#q#q#q#f#J#d#f#G.2#b.2#b.2#b.2#b.2#b#b.2.2.2.2.H.U.M.M.C.p.b.b.b",
".b.b.b.p#H.K.K.I.H.0.O.Y#e.5.5.5.5.5.6.5.5.5.5.F.Z.2.2#r#r#r#u#q#q#r#A#J#k#J#d#K#G.2.2#b.2#b#b.2.2#b.2#b.2.2.G.H.I.M.M.C.q.b.b.b",
".c.b.b.p#H.K.K.U.H.O.G.Y.F.5.5.5.6.5.5.5.5.6.5.F.2.G.G#q#t#L#r#r#M#M#f#F#N#N#F#O#G.2#b.2#b.2.2.2#b.2#b.2.G.2.2.H.U.M.M.C.o#B.b.b",
".b.b.b.p.B.K.K.I.H.2.G.Y.6.6.5.6.5.6.6.5.5.5.5.6.2#b#b#P#P#q#q#s#Q#Q#q#t#D#D#F#O#O#G.2#b.2.2.2#b.2#b.2#b.2.2.2.H.U.M.M.C.o.b.b.b",
".c.b#B.p.N.K.K.U.H.2.G.Z.6.5.5.5.5.5.5.5.6.5.6.6.x#b#q#u#u#q#q#M#s#s#F#N#N#D#q#M#O#G#b.2.2#b#b.2#b.2.2.2.G.2.2.H.U.M.K.C.o.b.b.b",
".c#B.b.p.C.K.K.I.H.G.G.2.F.5.5.5.6.5.5.6.5.5.5.F.Z.G#q#t#t#q#u#J#J#d#t#D#t#F#q#M#O#O#G.2#b.2#b.2#b.2#b.2.2.2.2.H#o.M.M.C.p.b.b.c",
".a.a.a.n.B.K.K.V.1.Z.Y.Z.6.5.6.5.5.5.5.6.6.6.6##.Y.G#q#A#q#q#u#d#f#f#F#N#q#A#M#M#O#O#O#b.2#b.2#b.2#b.2#b.2.G.2.H#o.M.M.z.n.a.a.a",
".d.d.e.r.z.J.J.I.Y.6.F.6.6.5.5.5.6.5.6.6##.x.Y.Y.G#q#A#F#r#r#A#J#k#J#d#f#n#M#M#M#s#G#O#K#G.2.2.2#b.2#b.2.2.2.G.H.I.K.J.z.m.d.d.d",
"Qt.g#R.l.z.L.K.S.Z.5.5.5.5.6.5.6.5.5.5.6.2.G.G.G.2#q#F#r#S#T#A#f#d#J#f#f#n#Q#M#M#M#M#G#O#K.G.2.2#b.2.2#b#U#U.Y.H.U.K.K.z.lQtQtQt",
"Qt.g#R.l.z.L.M.U.Z.5.5.6.5.5.5.6.5.5.5.6##.G.2.G.G#q#r#S#V#T#r#J#k#J#f#f#n#Q#M#M#M#M#M#M#M#M#M#M#M#b.2.2#U.G.2.H.I.K.L.z.l.4QtQt",
".d.d.e.m.z.L.M.U.Z.5.5.5.6.5.5.5.6.F.6##.2.G.2.G#s#r#r#W#S#T#W#J#k#J#f#n#r#Q#Q#M#M#s#M#M#M#M#M#M#M#M#M.2.2.x.Y.1.U.K.M.y.l.4QtQt",
".t.a.a.n.B.K.K.S.Z.6.5.5.5.6.6.6.Z.Y.2.x.G.2.2.Z#s#M#M#v#v#W#T#r#M#M#M#M#T#Q#X#M#M#s#s#Q#W#G.G#M#M#M#M#M.F.F.F.Y.U.K.J.z.lQtQtQt",
".b.b#B.p#H.J.J.S.Z.5.5.6.5.5.5.6.2.G.2.2.G.G.G.Y#s#M#M#v#w#W#T#W#v#W#S#W#T#T#X#X#M#M#s#Q#W#T.2.2.2.G#M#M#M.5.5.Y.T.K.L.z.lQtQtQt",
".c.b#B.p.C.M.J.T.Z.6.5.5.5.6.8.6.Z.G.2.G.G.G.G#s#M#M#M#W#v#W#T#v#w#v#W#W#T#T#X#X#Q#M#M#s#K#T.2.2.2.G.G#M#M#M.5.Y.T.K.K.z.k.g.3Qt",
".b.b.b.p.C.K.K.T.Z.5.5.6.6.6.6##.2.G.2.2.2.Z.2#s#M#M#M#T#W#W#T#w#w#v#Y#W#T#T#M#X#X#Q#s#s#Z#Q#Q.2.Y.Y.Y#M#M#M.o##.T.K.K.y.l.g.gQt",
".b.b.b.o.C.M.M.V.Z.6.5.6.Z.Z.2.Z.2.2.G.2##.6.6#T#M#M#M#T#T#T#0#W#W#W#W#S#T#T#M#X#X#X#W#s#s#s#Q#X#X#X#w#w#M#M#1.8.C.J.J.z.mQtQtQt",
".b.b.b.o.C.K.M.V.Z.5.5.6.2.2.G.2.2.2.G.Z.6.8.5#W#M#M#M#M#A#2#0#S#W#W#W#V#T#T#M#W#W#W#w#K#s#s#M#M#Q.5#Q#w#w#M.b.q.C.K.J.z.l.hQtQt",
".b.b.b.o.C.M.M.V.Z.5.8.6.Z.G.G.2.G.2.G.2.6.5.5#T#M#M.G.2#V#V#0#0#0#T#S#T#T#T#0#w#w#w#W#W#w#G#s#Q#Q#T#T#Q#w#w.b.o.C.K.K.z.k.4.3Qt",
".a.a.a.r.C.M.M.U.2.6.6##.2.G.G.G.x.2.Z.Z##.6.6#K#M.2.Z.Z#0#3#0#0#0#F#2#A#2#0#0#T#T#W#w#w.2#g.Y###s#s#Q#v#v.b.b.o.C.K.J.z.l.4QtQt",
".d.d.e.r.z.J.K.U.P.Z.Z.2.2.2.2.2.F.6.6.F##.Y#4#4#4#4#4#4#A#2#0#0#0#V#Y#Y#V#3#0#w#w#w.G.G.F.F.F.F.5.6#W#M#M.b.b.n.C.J.J.B.l.g.gQt",
"Qt.g#R.l.z.J.K.I.H.G.2.G.2.G.G.Z.F.5#4#4#4#4#4#4#4#4#4#V#Y#V#3#0#0#0#0#0#3#3#0#4#4#4#4#4#4#4.5.5.5.5#W#5#M.b.b.q.C.J.J.z.l.gQtQt",
"Qt.g#R.l.z.M.M.U.H.G.G.2.G.G.G.2#4#4#4#4#4#4#4#4#4#4#3#A#A#2#0#0#0#F#2#A#2#0#4#4#4#4#4#4#4#4#4#4.5.5#W#W#6.b.b.n.C.J.J.z.l.g.gQt",
".d.d.e.m.z.M.M.I.H.O.Y.G.Y.Y.x#4#4#4#4#4#4#4#4#4#0#3#V#V#V#V#3#0#0#V#Y#Y#V#0#4#4#4#4#4#4#4#4#4#4#4.F#Y#W.q#1#1.8.C.J.K.B.m.d.d.d",
".t.a#7.n.C.K.M.I.H.2.G.Y##.F#4#4#4#4#4#4#4#4#4#4#0#V#Y#Y#V#3#0#0#0#3#0#0#3#0#4#4#4#4#4#4#4#4#4#4#4#4#W##.8.o#5.F.T.K.K.B.n.a.a.a",
".b.b#B.p.C.K.M.I.H.2.G.2.6#4#4#4#4#4#4#4#4#4#4#4#0#V#V#V#0#g#0#0#A#F#2#A#2#p#4#4#4#4#4#4#4#4#4#4#4#4#4.Y.F.5.5.Y.T.K.K.C.p.b.c.c",
".c.c#B.p.C.M.M#o.H.2.G.Y.6#4#4#4#4#4#4#4#4#4#4#4#4#4#4#4#4#4#0#3#V#V#V#V#3#0#4#4#4#4#4#4#4#4#4#4#4#4#4.2.F.5.5.Y.T.K.K.C.p#B#B.c",
".a.a.a.n.H.I.I.C.0.Z.Y.Z.6#4#4#4#4#4#4#4#4#4#4#4#4#4#4#4#4#4#0#Y#K#K#Y#V#3#0#4#4#4#4#4#4#4#4#4#4#4#4#4##.5#5#5.F#H.I.I.1#8.a.a.t",
".#.d.e#9.x.H.H.G.Z.F.6.6.6#4#4#4#4#4#4#4#4#4#4#4#4#4#4#4#4#4#0#V#V#V#3#3#g#4#4#4#4#4#4#4#4#4#4#4#4#4#4.8.E#1a..p.Y#H#H.R#9a#.d.d",
".e.g.g.kaa.G.G.2.6.6.5.6.5.5#4#4#4#4#4#4#4#4#4#4#4#4#4#4#4#4#g#0#0#0#g#4#4#4#4#4#4#4#4#4#4#4#4#4#4#4.5aba..b#Bac.F.G.O.w.k.3QtQt",
".e.e.e.kad.G.G.Z.6.6.5.5.5.6.5#4#4#4#4#4#4#4#4#4#4#4#4#4#4#4#4#4#4#4#4#4#4#4#4#4#4#4#4#4#4#4#4#4#4.6.5.8a..b.bac.F.0.0.w.k.3QtQt",
".e.f.dae.v##.6.6.v.n.oaf#5.5agag#4#4#4#4#4#4#4#4#4#4#4#4#4#4#4#4#4#4#4#4#4#4#4#4#4#4#4#4#4#4#4#4.v.oah#8#1.a.a.Qai.F.R.vaj.3QtQt",
".t.a.a.tak.E.E.Qalamaean#1akak.u#9.k#4#4#4#4#4#4#4#4#4#4#4#4#4#4#4#4#4#4#4#4#4#4#4#4#4#4#4#4.k.j.jaeae.i.i.d.d.#.u.E.q.u.fQtQtQt",
".b.c.c.c.b.b.b#7.e.e.e.e.a.b.c.a.dQt#Ra#.a.b#4#4#4#4#4#4#4#4#4#4#4#4#4#4#4#4#4#4#4#4.c.a.d.g.g.g.gQtQtQt.h.h.h.d.a.b.b.a.dQtQtQt",
".c.c.c.c.b.c.b.t.#.e.e.f.a.c.c.a.dQtQt.d.a#B.b.a.d.hQt.d.a.c.b.b.b.c.b.b.b.b.c.b.b.b.b.a.d.g.gQtQtQtQtQtQt.h.h.d.a.c.b.a.d.h.hQt",
".b.b.c.b.b.c.b.t.e.e.g.e.t.c.c.a.dQtQt.d.a.c.b.a.d.hQt.d.a.c.c.c.c.b.c.b.c.c.b.c.c.b.b.t.dQtQtQtQtQtQtQtQtQt.h.d.a.c.c.a.dQtQtQt"};
